# MagicaVoxel @ Ephtracy

# group
o 

# material
mtllib BeenForCupSmelter.mtl
usemtl palette

# normals
vn -1 0 0
vn 1 0 0
vn 0 0 1
vn 0 0 -1
vn 0 -1 0
vn 0 1 0

# texcoords
vt 0.978516 0.5
vt 0.982422 0.5

# verts
v 0 2.1 0
v 0 2.1 -0.1
v 0 2.1 -0.4
v 0 2.1 -0.5
v 0 2.1 -0.6
v 0 2.1 -0.8
v 0 2.1 -0.9
v 0 2.2 0
v 0 2.2 -0.1
v 0 2.2 -0.4
v 0 2.2 -0.5
v 0 2.2 -0.6
v 0 2.2 -0.8
v 0 2.2 -0.9
v 0.1 2 0
v 0.1 2 -0.1
v 0.1 2 -0.2
v 0.1 2 -0.3
v 0.1 2 -0.4
v 0.1 2 -0.5
v 0.1 2 -0.8
v 0.1 2 -0.9
v 0.1 2.1 0
v 0.1 2.1 -0.1
v 0.1 2.1 -0.2
v 0.1 2.1 -0.3
v 0.1 2.1 -0.4
v 0.1 2.1 -0.5
v 0.1 2.1 -0.6
v 0.1 2.1 -0.8
v 0.1 2.1 -0.9
v 0.1 2.2 0
v 0.1 2.2 -0.1
v 0.1 2.2 -0.2
v 0.1 2.2 -0.4
v 0.1 2.2 -0.5
v 0.1 2.2 -0.6
v 0.1 2.2 -0.8
v 0.1 2.2 -0.9
v 0.1 2.3 0
v 0.1 2.3 -0.1
v 0.1 2.3 -0.2
v 0.1 2.3 -0.5
v 0.1 2.3 -0.8
v 0.1 2.3 -0.9
v 0.2 2 0
v 0.2 2 -0.1
v 0.2 2 -0.2
v 0.2 2 -0.3
v 0.2 2 -0.4
v 0.2 2 -0.5
v 0.2 2 -0.8
v 0.2 2 -0.9
v 0.2 2.1 0
v 0.2 2.1 -0.1
v 0.2 2.1 -0.2
v 0.2 2.1 -0.3
v 0.2 2.1 -0.4
v 0.2 2.1 -0.5
v 0.2 2.1 -0.7
v 0.2 2.1 -0.8
v 0.2 2.1 -0.9
v 0.2 2.2 0
v 0.2 2.2 -0.1
v 0.2 2.2 -0.2
v 0.2 2.2 -0.5
v 0.2 2.2 -0.7
v 0.2 2.2 -0.8
v 0.2 2.2 -0.9
v 0.2 2.3 0
v 0.2 2.3 -0.1
v 0.2 2.3 -0.2
v 0.2 2.3 -0.5
v 0.2 2.3 -0.8
v 0.2 2.3 -0.9
v 0.3 2.1 0
v 0.3 2.1 -0.1
v 0.3 2.1 -0.2
v 0.3 2.1 -0.7
v 0.3 2.1 -0.8
v 0.3 2.1 -0.9
v 0.3 2.2 0
v 0.3 2.2 -0.1
v 0.3 2.2 -0.2
v 0.3 2.2 -0.7
v 0.3 2.2 -0.8
v 0.3 2.2 -0.9
v 0 2.1 0
v 0 2.2 0
v 0.1 2 0
v 0.1 2.1 0
v 0.1 2.2 0
v 0.1 2.3 0
v 0.2 2 0
v 0.2 2.1 0
v 0.2 2.2 0
v 0.2 2.3 0
v 0.3 2.1 0
v 0.3 2.2 0
v 0 2.1 -0.9
v 0 2.2 -0.9
v 0.1 2 -0.9
v 0.1 2.1 -0.9
v 0.1 2.2 -0.9
v 0.1 2.3 -0.9
v 0.2 2 -0.9
v 0.2 2.1 -0.9
v 0.2 2.2 -0.9
v 0.2 2.3 -0.9
v 0.3 2.1 -0.9
v 0.3 2.2 -0.9
v 0.1 2 0
v 0.2 2 0
v 0.1 2 -0.1
v 0.2 2 -0.1
v 0.1 2 -0.2
v 0.2 2 -0.2
v 0.1 2 -0.3
v 0.2 2 -0.3
v 0.1 2 -0.4
v 0.2 2 -0.4
v 0.1 2 -0.5
v 0.2 2 -0.5
v 0.1 2 -0.8
v 0.2 2 -0.8
v 0.1 2 -0.9
v 0.2 2 -0.9
v 0 2.1 0
v 0.1 2.1 0
v 0.2 2.1 0
v 0.3 2.1 0
v 0 2.1 -0.1
v 0.1 2.1 -0.1
v 0.2 2.1 -0.1
v 0.3 2.1 -0.1
v 0.1 2.1 -0.2
v 0.2 2.1 -0.2
v 0.3 2.1 -0.2
v 0.1 2.1 -0.3
v 0.2 2.1 -0.3
v 0 2.1 -0.4
v 0.1 2.1 -0.4
v 0.2 2.1 -0.4
v 0 2.1 -0.5
v 0.1 2.1 -0.5
v 0.2 2.1 -0.5
v 0 2.1 -0.6
v 0.1 2.1 -0.6
v 0.2 2.1 -0.7
v 0.3 2.1 -0.7
v 0 2.1 -0.8
v 0.1 2.1 -0.8
v 0.2 2.1 -0.8
v 0.3 2.1 -0.8
v 0 2.1 -0.9
v 0.1 2.1 -0.9
v 0.2 2.1 -0.9
v 0.3 2.1 -0.9
v 0 2.2 0
v 0.1 2.2 0
v 0.2 2.2 0
v 0.3 2.2 0
v 0 2.2 -0.1
v 0.1 2.2 -0.1
v 0.2 2.2 -0.1
v 0.3 2.2 -0.1
v 0.1 2.2 -0.2
v 0.2 2.2 -0.2
v 0.3 2.2 -0.2
v 0 2.2 -0.4
v 0.1 2.2 -0.4
v 0 2.2 -0.5
v 0.1 2.2 -0.5
v 0.2 2.2 -0.5
v 0 2.2 -0.6
v 0.1 2.2 -0.6
v 0.2 2.2 -0.7
v 0.3 2.2 -0.7
v 0 2.2 -0.8
v 0.1 2.2 -0.8
v 0.2 2.2 -0.8
v 0.3 2.2 -0.8
v 0 2.2 -0.9
v 0.1 2.2 -0.9
v 0.2 2.2 -0.9
v 0.3 2.2 -0.9
v 0.1 2.3 0
v 0.2 2.3 0
v 0.1 2.3 -0.1
v 0.2 2.3 -0.1
v 0.1 2.3 -0.2
v 0.2 2.3 -0.2
v 0.1 2.3 -0.5
v 0.2 2.3 -0.5
v 0.1 2.3 -0.8
v 0.2 2.3 -0.8
v 0.1 2.3 -0.9
v 0.2 2.3 -0.9

# faces
f 8/1/1 2/1/1 1/1/1
f 9/2/1 3/2/1 2/2/1
f 9/1/1 2/1/1 8/1/1
f 10/1/1 4/1/1 3/1/1
f 10/2/1 3/2/1 9/2/1
f 11/2/1 5/2/1 4/2/1
f 11/1/1 4/1/1 10/1/1
f 12/1/1 6/1/1 5/1/1
f 12/2/1 5/2/1 11/2/1
f 13/2/1 7/2/1 6/2/1
f 13/1/1 6/1/1 12/1/1
f 14/2/1 7/2/1 13/2/1
f 23/1/1 16/1/1 15/1/1
f 24/2/1 17/2/1 16/2/1
f 24/1/1 16/1/1 23/1/1
f 25/1/1 18/1/1 17/1/1
f 25/2/1 17/2/1 24/2/1
f 26/2/1 19/2/1 18/2/1
f 26/1/1 18/1/1 25/1/1
f 27/1/1 20/1/1 19/1/1
f 27/2/1 19/2/1 26/2/1
f 28/2/1 21/2/1 20/2/1
f 28/1/1 20/1/1 27/1/1
f 29/2/1 21/2/1 28/2/1
f 30/1/1 22/1/1 21/1/1
f 30/2/1 21/2/1 29/2/1
f 31/1/1 22/1/1 30/1/1
f 40/1/1 33/1/1 32/1/1
f 41/2/1 34/2/1 33/2/1
f 41/1/1 33/1/1 40/1/1
f 42/1/1 35/1/1 34/1/1
f 42/2/1 34/2/1 41/2/1
f 42/1/1 36/1/1 35/1/1
f 43/2/1 38/2/1 37/2/1
f 43/1/1 36/1/1 42/1/1
f 43/2/1 37/2/1 36/2/1
f 44/1/1 39/1/1 38/1/1
f 44/2/1 38/2/1 43/2/1
f 45/1/1 39/1/1 44/1/1
f 46/1/2 47/1/2 54/1/2
f 47/2/2 48/2/2 55/2/2
f 54/1/2 47/1/2 55/1/2
f 48/1/2 49/1/2 56/1/2
f 55/2/2 48/2/2 56/2/2
f 49/2/2 50/2/2 57/2/2
f 56/1/2 49/1/2 57/1/2
f 50/1/2 51/1/2 58/1/2
f 57/2/2 50/2/2 58/2/2
f 51/2/2 52/2/2 59/2/2
f 58/1/2 51/1/2 59/1/2
f 59/2/2 52/2/2 60/2/2
f 52/1/2 53/1/2 61/1/2
f 60/2/2 52/2/2 61/2/2
f 61/1/2 53/1/2 62/1/2
f 63/1/2 64/1/2 70/1/2
f 64/2/2 65/2/2 71/2/2
f 70/1/2 64/1/2 71/1/2
f 65/1/2 66/1/2 72/1/2
f 71/2/2 65/2/2 72/2/2
f 66/2/2 67/2/2 73/2/2
f 72/1/2 66/1/2 73/1/2
f 67/2/2 68/2/2 73/2/2
f 68/1/2 69/1/2 74/1/2
f 73/2/2 68/2/2 74/2/2
f 74/1/2 69/1/2 75/1/2
f 76/2/2 77/2/2 82/2/2
f 77/1/2 78/1/2 83/1/2
f 82/2/2 77/2/2 83/2/2
f 78/2/2 79/2/2 84/2/2
f 83/1/2 78/1/2 84/1/2
f 79/1/2 80/1/2 85/1/2
f 84/2/2 79/2/2 85/2/2
f 80/2/2 81/2/2 86/2/2
f 85/1/2 80/1/2 86/1/2
f 86/2/2 81/2/2 87/2/2
f 91/1/3 89/1/3 88/1/3
f 92/1/3 89/1/3 91/1/3
f 94/1/3 91/1/3 90/1/3
f 95/2/3 92/2/3 91/2/3
f 95/1/3 91/1/3 94/1/3
f 96/1/3 93/1/3 92/1/3
f 96/2/3 92/2/3 95/2/3
f 97/1/3 93/1/3 96/1/3
f 98/2/3 96/2/3 95/2/3
f 99/2/3 96/2/3 98/2/3
f 100/2/4 101/2/4 103/2/4
f 103/2/4 101/2/4 104/2/4
f 102/1/4 103/1/4 106/1/4
f 103/2/4 104/2/4 107/2/4
f 106/1/4 103/1/4 107/1/4
f 104/1/4 105/1/4 108/1/4
f 107/2/4 104/2/4 108/2/4
f 108/1/4 105/1/4 109/1/4
f 107/2/4 108/2/4 110/2/4
f 110/2/4 108/2/4 111/2/4
f 114/1/5 113/1/5 112/1/5
f 115/1/5 113/1/5 114/1/5
f 116/2/5 115/2/5 114/2/5
f 117/2/5 115/2/5 116/2/5
f 118/1/5 117/1/5 116/1/5
f 119/1/5 117/1/5 118/1/5
f 120/2/5 119/2/5 118/2/5
f 121/2/5 119/2/5 120/2/5
f 122/1/5 121/1/5 120/1/5
f 123/1/5 121/1/5 122/1/5
f 124/2/5 123/2/5 122/2/5
f 125/2/5 123/2/5 124/2/5
f 126/1/5 125/1/5 124/1/5
f 127/1/5 125/1/5 126/1/5
f 132/1/5 129/1/5 128/1/5
f 133/1/5 129/1/5 132/1/5
f 134/2/5 131/2/5 130/2/5
f 135/2/5 131/2/5 134/2/5
f 136/2/5 133/2/5 132/2/5
f 137/1/5 135/1/5 134/1/5
f 138/1/5 135/1/5 137/1/5
f 139/2/5 136/2/5 132/2/5
f 140/2/5 138/2/5 137/2/5
f 141/2/5 139/2/5 132/2/5
f 142/2/5 139/2/5 141/2/5
f 143/2/5 138/2/5 140/2/5
f 144/1/5 142/1/5 141/1/5
f 145/1/5 142/1/5 144/1/5
f 146/2/5 138/2/5 143/2/5
f 147/2/5 145/2/5 144/2/5
f 148/2/5 145/2/5 147/2/5
f 149/2/5 138/2/5 146/2/5
f 150/2/5 138/2/5 149/2/5
f 151/1/5 148/1/5 147/1/5
f 152/1/5 148/1/5 151/1/5
f 153/1/5 150/1/5 149/1/5
f 154/1/5 150/1/5 153/1/5
f 155/2/5 152/2/5 151/2/5
f 156/2/5 152/2/5 155/2/5
f 157/2/5 154/2/5 153/2/5
f 158/2/5 154/2/5 157/2/5
f 159/1/6 160/1/6 163/1/6
f 163/1/6 160/1/6 164/1/6
f 161/2/6 162/2/6 165/2/6
f 165/2/6 162/2/6 166/2/6
f 163/2/6 164/2/6 167/2/6
f 165/1/6 166/1/6 168/1/6
f 168/1/6 166/1/6 169/1/6
f 163/2/6 167/2/6 170/2/6
f 170/2/6 167/2/6 171/2/6
f 170/1/6 171/1/6 172/1/6
f 172/1/6 171/1/6 173/1/6
f 168/2/6 169/2/6 174/2/6
f 172/2/6 173/2/6 175/2/6
f 175/2/6 173/2/6 176/2/6
f 174/2/6 169/2/6 177/2/6
f 177/2/6 169/2/6 178/2/6
f 175/1/6 176/1/6 179/1/6
f 179/1/6 176/1/6 180/1/6
f 177/1/6 178/1/6 181/1/6
f 181/1/6 178/1/6 182/1/6
f 179/2/6 180/2/6 183/2/6
f 183/2/6 180/2/6 184/2/6
f 181/2/6 182/2/6 185/2/6
f 185/2/6 182/2/6 186/2/6
f 187/1/6 188/1/6 189/1/6
f 189/1/6 188/1/6 190/1/6
f 189/2/6 190/2/6 191/2/6
f 191/2/6 190/2/6 192/2/6
f 191/1/6 192/1/6 193/1/6
f 193/1/6 192/1/6 194/1/6
f 193/2/6 194/2/6 195/2/6
f 195/2/6 194/2/6 196/2/6
f 195/1/6 196/1/6 197/1/6
f 197/1/6 196/1/6 198/1/6
