# MagicaVoxel @ Ephtracy

# group
o 

# material
mtllib CupForSmelter.mtl
usemtl palette

# normals
vn -1 0 0
vn 1 0 0
vn 0 0 1
vn 0 0 -1
vn 0 -1 0
vn 0 1 0

# texcoords
vt 0.822266 0.5
vt 0.826172 0.5
vt 0.830078 0.5

# verts
v 0 2.2 -0.7
v 0 2.2 -1.2
v 0 2.3 -0.6
v 0 2.3 -0.7
v 0 2.3 -1.2
v 0 2.3 -1.3
v 0 2.5 -0.5
v 0 2.5 -0.6
v 0 2.5 -0.8
v 0 2.5 -1.1
v 0 2.5 -1.3
v 0 2.5 -1.4
v 0 2.6 -0.7
v 0 2.6 -0.8
v 0 2.6 -1
v 0 2.6 -1.1
v 0 2.6 -1.2
v 0 2.7 -0.6
v 0 2.7 -0.7
v 0 2.7 -0.8
v 0 2.7 -0.9
v 0 2.7 -1
v 0 2.7 -1.1
v 0 2.7 -1.2
v 0 2.7 -1.4
v 0 2.8 -0.5
v 0 2.8 -0.6
v 0 2.8 -0.9
v 0 2.8 -1
v 0 2.9 -1
v 0 2.9 -1.3
v 0 3 -0.5
v 0 3 -0.6
v 0 3 -0.7
v 0 3 -0.8
v 0 3 -1
v 0 3 -1.3
v 0 3 -1.4
v 0 3.1 -0.6
v 0 3.1 -0.7
v 0 3.1 -0.8
v 0 3.1 -1
v 0 3.1 -1.3
v 0 3.2 -0.6
v 0 3.2 -0.7
v 0 3.2 -1.3
v 0.1 2.1 -0.6
v 0.1 2.1 -1.3
v 0.1 2.2 -0.7
v 0.1 2.2 -1.2
v 0.1 2.3 -0.5
v 0.1 2.3 -0.6
v 0.1 2.3 -0.7
v 0.1 2.3 -1.2
v 0.1 2.3 -1.3
v 0.1 2.3 -1.4
v 0.1 2.5 -0.4
v 0.1 2.5 -0.5
v 0.1 2.5 -0.6
v 0.1 2.5 -1.3
v 0.1 2.5 -1.4
v 0.1 2.5 -1.5
v 0.1 2.7 -1.4
v 0.1 2.8 -0.4
v 0.1 2.8 -0.5
v 0.1 2.8 -1.4
v 0.1 2.8 -1.5
v 0.1 2.9 -0.4
v 0.1 2.9 -0.5
v 0.1 3 -0.4
v 0.1 3 -0.5
v 0.1 3 -0.6
v 0.1 3 -1.3
v 0.1 3 -1.4
v 0.1 3 -1.5
v 0.1 3.1 -0.5
v 0.1 3.1 -0.6
v 0.1 3.1 -1.3
v 0.1 3.1 -1.4
v 0.1 3.2 -0.5
v 0.1 3.2 -0.6
v 0.1 3.2 -1.3
v 0.1 3.2 -1.4
v 0.2 2 -0.7
v 0.2 2 -1.2
v 0.2 2.1 -0.5
v 0.2 2.1 -0.6
v 0.2 2.1 -0.7
v 0.2 2.1 -1.2
v 0.2 2.1 -1.3
v 0.2 2.1 -1.4
v 0.2 2.3 -0.4
v 0.2 2.3 -0.5
v 0.2 2.3 -0.6
v 0.2 2.3 -1.3
v 0.2 2.3 -1.4
v 0.2 2.3 -1.5
v 0.2 2.5 -0.4
v 0.2 2.5 -0.5
v 0.2 2.5 -1.4
v 0.2 2.5 -1.5
v 0.2 3 -0.4
v 0.2 3 -0.5
v 0.2 3 -1.4
v 0.2 3 -1.5
v 0.2 3.1 -0.3
v 0.2 3.1 -0.4
v 0.2 3.1 -0.5
v 0.2 3.1 -1.4
v 0.2 3.2 -0.3
v 0.2 3.2 -0.5
v 0.2 3.2 -1.4
v 0.2 3.2 -1.5
v 0.3 2 -0.6
v 0.3 2 -0.7
v 0.3 2 -1.2
v 0.3 2 -1.3
v 0.3 2.1 -0.6
v 0.3 2.1 -0.7
v 0.3 2.1 -1.2
v 0.3 2.1 -1.3
v 0.3 2.2 -0.4
v 0.3 2.2 -0.5
v 0.3 2.2 -1.4
v 0.3 2.2 -1.5
v 0.3 2.3 -0.4
v 0.3 2.3 -0.5
v 0.3 2.3 -1.4
v 0.3 2.3 -1.5
v 0.3 3 -0.3
v 0.3 3 -0.4
v 0.3 3.1 -0.2
v 0.3 3.1 -0.3
v 0.3 3.1 -0.4
v 0.3 3.2 -0.2
v 0.3 3.2 -0.3
v 0.4 2.9 -0.3
v 0.4 2.9 -0.4
v 0.4 3 -0.2
v 0.4 3 -0.3
v 0.4 3 -0.4
v 0.4 3.1 -0.1
v 0.4 3.1 -0.2
v 0.4 3.1 -0.3
v 0.4 3.2 -0.1
v 0.4 3.2 -0.2
v 0.5 2.8 -0.3
v 0.5 2.8 -0.4
v 0.5 2.9 -0.2
v 0.5 2.9 -0.3
v 0.5 2.9 -0.4
v 0.5 3 -0.2
v 0.5 3 -0.3
v 0.6 2.8 -0.4
v 0.6 2.8 -0.5
v 0.6 2.9 -0.3
v 0.6 2.9 -0.4
v 0.6 2.9 -0.5
v 0.6 3 -0.3
v 0.6 3 -0.4
v 0.7 2.9 -0.4
v 0.7 2.9 -0.5
v 0.7 3 -0.3
v 0.7 3 -0.4
v 0.7 3 -0.5
v 0.7 3.1 -0.2
v 0.7 3.1 -0.3
v 0.7 3.1 -0.4
v 0.7 3.2 -0.2
v 0.7 3.2 -0.3
v 0.8 2.3 -0.6
v 0.8 2.3 -0.7
v 0.8 2.3 -1.2
v 0.8 2.3 -1.3
v 0.8 2.4 -0.5
v 0.8 2.4 -0.6
v 0.8 2.4 -0.7
v 0.8 2.4 -1.2
v 0.8 2.4 -1.3
v 0.8 2.4 -1.4
v 0.8 2.6 -0.5
v 0.8 2.6 -1.4
v 0.8 2.7 -0.5
v 0.8 2.7 -1.4
v 0.8 2.8 -0.5
v 0.8 3 -0.4
v 0.8 3 -0.5
v 0.8 3 -0.6
v 0.8 3 -1.3
v 0.8 3 -1.4
v 0.8 3.1 -0.3
v 0.8 3.1 -0.4
v 0.8 3.1 -0.5
v 0.8 3.1 -0.6
v 0.8 3.1 -1.3
v 0.8 3.1 -1.4
v 0.8 3.2 -0.3
v 0.8 3.2 -0.5
v 0.8 3.2 -0.6
v 0.8 3.2 -1.3
v 0.8 3.2 -1.4
v 0.9 2.3 -0.7
v 0.9 2.3 -1.2
v 0.9 2.4 -0.6
v 0.9 2.4 -0.7
v 0.9 2.4 -1.2
v 0.9 2.4 -1.3
v 0.9 2.8 -0.6
v 0.9 2.8 -0.7
v 0.9 2.8 -1.2
v 0.9 2.8 -1.3
v 0.9 3 -0.6
v 0.9 3 -0.7
v 0.9 3 -1.2
v 0.9 3 -1.3
v 0.9 3.1 -0.6
v 0.9 3.1 -1.2
v 0.9 3.1 -1.3
v 0.9 3.2 -0.6
v 0.9 3.2 -0.7
v 0.9 3.2 -1.2
v 0.9 3.2 -1.3
v 1 2.4 -0.7
v 1 2.4 -1.2
v 1 2.5 -0.8
v 1 2.5 -1.1
v 1 2.6 -0.7
v 1 2.6 -0.8
v 1 2.6 -1
v 1 2.6 -1.1
v 1 2.6 -1.2
v 1 2.7 -0.7
v 1 2.7 -0.9
v 1 2.8 -0.7
v 1 2.8 -1
v 1 2.8 -1.1
v 1 2.8 -1.2
v 1 2.9 -1
v 1 2.9 -1.1
v 1 3 -0.7
v 1 3 -0.9
v 1 3 -1
v 1 3 -1.1
v 1 3 -1.2
v 1 3.1 -0.7
v 1 3.1 -0.9
v 1 3.1 -1
v 1 3.1 -1.1
v 1 3.1 -1.2
v 1 3.2 -0.7
v 1 3.2 -0.9
v 1 3.2 -1
v 1 3.2 -1.1
v 1 3.2 -1.2
v 0.1 2.4 -0.7
v 0.1 2.4 -1.2
v 0.1 2.5 -0.8
v 0.1 2.5 -1.1
v 0.1 2.6 -0.7
v 0.1 2.6 -0.8
v 0.1 2.6 -1
v 0.1 2.6 -1.1
v 0.1 2.6 -1.2
v 0.1 2.7 -0.8
v 0.1 2.7 -0.9
v 0.1 2.7 -1
v 0.1 2.7 -1.1
v 0.1 2.8 -0.7
v 0.1 2.8 -0.9
v 0.1 2.8 -1
v 0.1 2.8 -1.2
v 0.1 2.9 -0.7
v 0.1 2.9 -1
v 0.1 2.9 -1.2
v 0.1 3 -0.7
v 0.1 3 -0.8
v 0.1 3 -1
v 0.1 3.1 -0.7
v 0.1 3.1 -0.8
v 0.1 3.1 -1
v 0.1 3.1 -1.2
v 0.1 3.2 -0.7
v 0.1 3.2 -1.2
v 0.2 2.3 -0.7
v 0.2 2.3 -1.2
v 0.2 2.4 -0.6
v 0.2 2.4 -0.7
v 0.2 2.4 -1.2
v 0.2 2.4 -1.3
v 0.2 2.8 -0.6
v 0.2 2.8 -0.7
v 0.2 2.8 -1.2
v 0.2 2.8 -1.3
v 0.2 2.9 -0.6
v 0.2 2.9 -0.7
v 0.2 2.9 -1.2
v 0.2 2.9 -1.3
v 0.2 3 -0.6
v 0.2 3.1 -0.6
v 0.2 3.1 -1.2
v 0.2 3.1 -1.3
v 0.2 3.2 -0.6
v 0.2 3.2 -0.7
v 0.2 3.2 -1.2
v 0.2 3.2 -1.3
v 0.3 2.3 -0.6
v 0.3 2.3 -0.7
v 0.3 2.3 -1.2
v 0.3 2.3 -1.3
v 0.3 2.4 -0.5
v 0.3 2.4 -0.6
v 0.3 2.4 -0.7
v 0.3 2.4 -1.2
v 0.3 2.4 -1.3
v 0.3 2.4 -1.4
v 0.3 2.6 -0.5
v 0.3 2.6 -1.4
v 0.3 2.8 -0.5
v 0.3 2.8 -0.6
v 0.3 2.8 -1.3
v 0.3 2.8 -1.4
v 0.3 2.9 -0.5
v 0.3 2.9 -0.6
v 0.3 2.9 -1.3
v 0.3 2.9 -1.4
v 0.3 3 -0.4
v 0.3 3 -0.5
v 0.3 3 -0.6
v 0.3 3 -1.4
v 0.3 3.1 -0.3
v 0.3 3.1 -0.4
v 0.3 3.1 -0.5
v 0.3 3.1 -0.6
v 0.3 3.1 -1.3
v 0.3 3.1 -1.4
v 0.3 3.2 -0.3
v 0.3 3.2 -0.5
v 0.3 3.2 -0.6
v 0.3 3.2 -1.3
v 0.3 3.2 -1.4
v 0.4 2.9 -0.4
v 0.4 2.9 -0.5
v 0.4 3 -0.3
v 0.4 3 -0.4
v 0.4 3 -0.5
v 0.4 3.1 -0.2
v 0.4 3.1 -0.3
v 0.4 3.1 -0.4
v 0.4 3.2 -0.2
v 0.4 3.2 -0.3
v 0.5 2.8 -0.4
v 0.5 2.8 -0.5
v 0.5 2.9 -0.3
v 0.5 2.9 -0.4
v 0.5 2.9 -0.5
v 0.5 3 -0.3
v 0.5 3 -0.4
v 0.6 2.8 -0.3
v 0.6 2.8 -0.4
v 0.6 2.9 -0.2
v 0.6 2.9 -0.3
v 0.6 2.9 -0.4
v 0.6 3 -0.2
v 0.6 3 -0.3
v 0.7 2.9 -0.3
v 0.7 2.9 -0.4
v 0.7 3 -0.2
v 0.7 3 -0.3
v 0.7 3 -0.4
v 0.7 3.1 -0.1
v 0.7 3.1 -0.2
v 0.7 3.1 -0.3
v 0.7 3.2 -0.1
v 0.7 3.2 -0.2
v 0.8 2 -0.6
v 0.8 2 -0.7
v 0.8 2 -1.2
v 0.8 2 -1.3
v 0.8 2.1 -0.6
v 0.8 2.1 -0.7
v 0.8 2.1 -1.2
v 0.8 2.1 -1.3
v 0.8 2.2 -0.4
v 0.8 2.2 -0.5
v 0.8 2.2 -1.4
v 0.8 2.2 -1.5
v 0.8 2.3 -0.4
v 0.8 2.3 -0.5
v 0.8 2.3 -1.4
v 0.8 2.3 -1.5
v 0.8 3 -0.3
v 0.8 3 -0.4
v 0.8 3.1 -0.2
v 0.8 3.1 -0.3
v 0.8 3.1 -0.4
v 0.8 3.2 -0.2
v 0.8 3.2 -0.3
v 0.9 2 -0.7
v 0.9 2 -1.2
v 0.9 2.1 -0.5
v 0.9 2.1 -0.6
v 0.9 2.1 -0.7
v 0.9 2.1 -1.2
v 0.9 2.1 -1.3
v 0.9 2.1 -1.4
v 0.9 2.3 -0.4
v 0.9 2.3 -0.5
v 0.9 2.3 -0.6
v 0.9 2.3 -1.3
v 0.9 2.3 -1.4
v 0.9 2.3 -1.5
v 0.9 2.5 -0.4
v 0.9 2.5 -0.5
v 0.9 2.5 -1.4
v 0.9 2.5 -1.5
v 0.9 3 -0.4
v 0.9 3 -0.5
v 0.9 3 -1.4
v 0.9 3 -1.5
v 0.9 3.1 -0.3
v 0.9 3.1 -0.4
v 0.9 3.1 -0.5
v 0.9 3.1 -1.4
v 0.9 3.2 -0.3
v 0.9 3.2 -0.5
v 0.9 3.2 -1.4
v 0.9 3.2 -1.5
v 1 2.1 -0.6
v 1 2.1 -1.3
v 1 2.2 -0.7
v 1 2.2 -1.2
v 1 2.3 -0.5
v 1 2.3 -0.6
v 1 2.3 -0.7
v 1 2.3 -1.2
v 1 2.3 -1.3
v 1 2.3 -1.4
v 1 2.5 -0.4
v 1 2.5 -0.5
v 1 2.5 -0.6
v 1 2.5 -1.3
v 1 2.5 -1.4
v 1 2.5 -1.5
v 1 2.8 -0.4
v 1 2.8 -0.5
v 1 2.8 -1.4
v 1 2.8 -1.5
v 1 2.9 -0.5
v 1 3 -0.4
v 1 3 -0.5
v 1 3 -0.6
v 1 3 -1.3
v 1 3 -1.4
v 1 3 -1.5
v 1 3.1 -0.6
v 1 3.1 -1.3
v 1 3.1 -1.4
v 1 3.2 -0.5
v 1 3.2 -0.6
v 1 3.2 -1.3
v 1 3.2 -1.4
v 1.1 2.2 -0.7
v 1.1 2.2 -1.2
v 1.1 2.3 -0.6
v 1.1 2.3 -0.7
v 1.1 2.3 -1.2
v 1.1 2.3 -1.3
v 1.1 2.5 -0.5
v 1.1 2.5 -0.6
v 1.1 2.5 -0.8
v 1.1 2.5 -1.1
v 1.1 2.5 -1.3
v 1.1 2.5 -1.4
v 1.1 2.6 -0.7
v 1.1 2.6 -0.8
v 1.1 2.6 -1
v 1.1 2.6 -1.1
v 1.1 2.6 -1.2
v 1.1 2.7 -0.7
v 1.1 2.7 -0.9
v 1.1 2.7 -1.2
v 1.1 2.7 -1.3
v 1.1 2.8 -1
v 1.1 2.8 -1.1
v 1.1 2.8 -1.2
v 1.1 2.8 -1.3
v 1.1 2.8 -1.4
v 1.1 2.9 -0.5
v 1.1 2.9 -0.6
v 1.1 2.9 -1
v 1.1 2.9 -1.1
v 1.1 3 -0.5
v 1.1 3 -0.6
v 1.1 3 -0.9
v 1.1 3 -1
v 1.1 3 -1.1
v 1.1 3 -1.2
v 1.1 3 -1.3
v 1.1 3 -1.4
v 1.1 3.1 -0.6
v 1.1 3.1 -0.9
v 1.1 3.1 -1
v 1.1 3.1 -1.1
v 1.1 3.2 -0.6
v 1.1 3.2 -0.9
v 1.1 3.2 -1
v 1.1 3.2 -1.1
v 1.1 3.2 -1.3
v 0.4 3.1 -0.1
v 0.4 3.2 -0.1
v 0.7 3.1 -0.1
v 0.7 3.2 -0.1
v 0.3 3.1 -0.2
v 0.3 3.2 -0.2
v 0.4 3 -0.2
v 0.4 3.1 -0.2
v 0.4 3.2 -0.2
v 0.5 2.9 -0.2
v 0.5 3 -0.2
v 0.6 2.9 -0.2
v 0.6 3 -0.2
v 0.6 3.1 -0.2
v 0.7 3 -0.2
v 0.7 3.1 -0.2
v 0.7 3.2 -0.2
v 0.8 3.1 -0.2
v 0.8 3.2 -0.2
v 0.2 3.1 -0.3
v 0.2 3.2 -0.3
v 0.3 3 -0.3
v 0.3 3.1 -0.3
v 0.3 3.2 -0.3
v 0.4 2.9 -0.3
v 0.4 3 -0.3
v 0.4 3.1 -0.3
v 0.5 2.8 -0.3
v 0.5 2.9 -0.3
v 0.5 3 -0.3
v 0.6 2.8 -0.3
v 0.6 2.9 -0.3
v 0.6 3 -0.3
v 0.7 2.9 -0.3
v 0.7 3 -0.3
v 0.7 3.1 -0.3
v 0.8 3 -0.3
v 0.8 3.1 -0.3
v 0.8 3.2 -0.3
v 0.9 3.1 -0.3
v 0.9 3.2 -0.3
v 0.1 2.5 -0.4
v 0.1 2.8 -0.4
v 0.1 2.9 -0.4
v 0.1 3 -0.4
v 0.2 2.3 -0.4
v 0.2 2.5 -0.4
v 0.2 2.7 -0.4
v 0.2 2.8 -0.4
v 0.2 2.9 -0.4
v 0.2 3 -0.4
v 0.2 3.1 -0.4
v 0.3 2.2 -0.4
v 0.3 2.3 -0.4
v 0.3 2.6 -0.4
v 0.3 2.7 -0.4
v 0.3 2.8 -0.4
v 0.3 2.9 -0.4
v 0.3 3 -0.4
v 0.3 3.1 -0.4
v 0.4 2.5 -0.4
v 0.4 2.6 -0.4
v 0.4 2.8 -0.4
v 0.4 2.9 -0.4
v 0.4 3 -0.4
v 0.5 2.7 -0.4
v 0.5 2.8 -0.4
v 0.5 2.9 -0.4
v 0.6 2.5 -0.4
v 0.6 2.7 -0.4
v 0.6 2.8 -0.4
v 0.6 2.9 -0.4
v 0.7 2.6 -0.4
v 0.7 2.7 -0.4
v 0.7 2.8 -0.4
v 0.7 2.9 -0.4
v 0.7 3 -0.4
v 0.8 2.2 -0.4
v 0.8 2.3 -0.4
v 0.8 2.6 -0.4
v 0.8 2.7 -0.4
v 0.8 3 -0.4
v 0.8 3.1 -0.4
v 0.9 2.3 -0.4
v 0.9 2.5 -0.4
v 0.9 3 -0.4
v 0.9 3.1 -0.4
v 1 2.5 -0.4
v 1 2.8 -0.4
v 1 3 -0.4
v 0 2.5 -0.5
v 0 2.8 -0.5
v 0 3 -0.5
v 0.1 2.3 -0.5
v 0.1 2.5 -0.5
v 0.1 2.8 -0.5
v 0.1 2.9 -0.5
v 0.1 3 -0.5
v 0.1 3.1 -0.5
v 0.1 3.2 -0.5
v 0.2 2.1 -0.5
v 0.2 2.3 -0.5
v 0.2 2.5 -0.5
v 0.2 3 -0.5
v 0.2 3.1 -0.5
v 0.2 3.2 -0.5
v 0.3 2.2 -0.5
v 0.3 2.3 -0.5
v 0.8 2.2 -0.5
v 0.8 2.3 -0.5
v 0.9 2.1 -0.5
v 0.9 2.3 -0.5
v 0.9 2.5 -0.5
v 0.9 3 -0.5
v 0.9 3.1 -0.5
v 0.9 3.2 -0.5
v 1 2.3 -0.5
v 1 2.5 -0.5
v 1 2.8 -0.5
v 1 2.9 -0.5
v 1 3 -0.5
v 1 3.2 -0.5
v 1.1 2.5 -0.5
v 1.1 2.9 -0.5
v 1.1 3 -0.5
v 0 2.3 -0.6
v 0 2.5 -0.6
v 0 3 -0.6
v 0 3.1 -0.6
v 0 3.2 -0.6
v 0.1 2.1 -0.6
v 0.1 2.3 -0.6
v 0.1 2.5 -0.6
v 0.1 3 -0.6
v 0.1 3.1 -0.6
v 0.1 3.2 -0.6
v 0.2 2.1 -0.6
v 0.2 2.3 -0.6
v 0.3 2 -0.6
v 0.3 2.1 -0.6
v 0.8 2 -0.6
v 0.8 2.1 -0.6
v 0.9 2.1 -0.6
v 0.9 2.3 -0.6
v 1 2.1 -0.6
v 1 2.3 -0.6
v 1 2.5 -0.6
v 1 3 -0.6
v 1 3.1 -0.6
v 1 3.2 -0.6
v 1.1 2.3 -0.6
v 1.1 2.5 -0.6
v 1.1 3 -0.6
v 1.1 3.1 -0.6
v 1.1 3.2 -0.6
v 0 2.2 -0.7
v 0 2.3 -0.7
v 0.1 2.2 -0.7
v 0.1 2.3 -0.7
v 0.2 2 -0.7
v 0.2 2.1 -0.7
v 0.3 2 -0.7
v 0.3 2.1 -0.7
v 0.8 2 -0.7
v 0.8 2.1 -0.7
v 0.9 2 -0.7
v 0.9 2.1 -0.7
v 1 2.2 -0.7
v 1 2.3 -0.7
v 1.1 2.2 -0.7
v 1.1 2.3 -0.7
v 0.1 2.4 -1.2
v 0.1 2.6 -1.2
v 0.1 2.8 -1.2
v 0.1 2.9 -1.2
v 0.1 3.1 -1.2
v 0.1 3.2 -1.2
v 0.2 2.3 -1.2
v 0.2 2.4 -1.2
v 0.2 2.8 -1.2
v 0.2 2.9 -1.2
v 0.2 3.1 -1.2
v 0.2 3.2 -1.2
v 0.3 2.3 -1.2
v 0.3 2.4 -1.2
v 0.8 2.3 -1.2
v 0.8 2.4 -1.2
v 0.9 2.3 -1.2
v 0.9 2.4 -1.2
v 0.9 2.8 -1.2
v 0.9 3 -1.2
v 0.9 3.1 -1.2
v 0.9 3.2 -1.2
v 1 2.4 -1.2
v 1 2.6 -1.2
v 1 2.8 -1.2
v 1 3 -1.2
v 1 3.1 -1.2
v 1 3.2 -1.2
v 0.2 2.4 -1.3
v 0.2 2.8 -1.3
v 0.2 2.9 -1.3
v 0.2 3.1 -1.3
v 0.2 3.2 -1.3
v 0.3 2.3 -1.3
v 0.3 2.4 -1.3
v 0.3 2.8 -1.3
v 0.3 2.9 -1.3
v 0.3 3.1 -1.3
v 0.3 3.2 -1.3
v 0.8 2.3 -1.3
v 0.8 2.4 -1.3
v 0.8 3 -1.3
v 0.8 3.1 -1.3
v 0.8 3.2 -1.3
v 0.9 2.4 -1.3
v 0.9 2.8 -1.3
v 0.9 3 -1.3
v 0.9 3.1 -1.3
v 0.9 3.2 -1.3
v 0.3 2.4 -1.4
v 0.3 2.6 -1.4
v 0.3 2.8 -1.4
v 0.3 2.9 -1.4
v 0.3 3 -1.4
v 0.3 3.1 -1.4
v 0.3 3.2 -1.4
v 0.4 2.5 -1.4
v 0.4 2.6 -1.4
v 0.4 2.8 -1.4
v 0.5 2.6 -1.4
v 0.5 2.7 -1.4
v 0.5 2.9 -1.4
v 0.5 3 -1.4
v 0.6 2.7 -1.4
v 0.6 2.9 -1.4
v 0.7 2.5 -1.4
v 0.7 2.6 -1.4
v 0.7 2.7 -1.4
v 0.7 3 -1.4
v 0.7 3.1 -1.4
v 0.7 3.2 -1.4
v 0.8 2.4 -1.4
v 0.8 2.6 -1.4
v 0.8 2.7 -1.4
v 0.8 3 -1.4
v 0.8 3.1 -1.4
v 0.8 3.2 -1.4
v 0.4 3.1 -0.2
v 0.4 3.2 -0.2
v 0.6 3.1 -0.2
v 0.7 3.1 -0.2
v 0.7 3.2 -0.2
v 0.3 3.1 -0.3
v 0.3 3.2 -0.3
v 0.4 3 -0.3
v 0.4 3.1 -0.3
v 0.4 3.2 -0.3
v 0.5 2.9 -0.3
v 0.5 3 -0.3
v 0.6 2.9 -0.3
v 0.6 3 -0.3
v 0.6 3.1 -0.3
v 0.7 3 -0.3
v 0.7 3.1 -0.3
v 0.7 3.2 -0.3
v 0.8 3.1 -0.3
v 0.8 3.2 -0.3
v 0.3 3 -0.4
v 0.3 3.1 -0.4
v 0.4 2.9 -0.4
v 0.4 3 -0.4
v 0.4 3.1 -0.4
v 0.5 2.8 -0.4
v 0.5 2.9 -0.4
v 0.5 3 -0.4
v 0.6 2.8 -0.4
v 0.6 2.9 -0.4
v 0.6 3 -0.4
v 0.7 2.9 -0.4
v 0.7 3 -0.4
v 0.7 3.1 -0.4
v 0.8 3 -0.4
v 0.8 3.1 -0.4
v 0.3 2.4 -0.5
v 0.3 2.6 -0.5
v 0.3 2.8 -0.5
v 0.3 2.9 -0.5
v 0.3 3 -0.5
v 0.4 2.5 -0.5
v 0.4 2.6 -0.5
v 0.4 2.8 -0.5
v 0.4 2.9 -0.5
v 0.4 3 -0.5
v 0.5 2.7 -0.5
v 0.5 2.8 -0.5
v 0.5 2.9 -0.5
v 0.6 2.5 -0.5
v 0.6 2.7 -0.5
v 0.6 2.8 -0.5
v 0.6 2.9 -0.5
v 0.7 2.6 -0.5
v 0.7 2.7 -0.5
v 0.7 2.8 -0.5
v 0.7 2.9 -0.5
v 0.7 3 -0.5
v 0.8 2.4 -0.5
v 0.8 2.6 -0.5
v 0.8 2.7 -0.5
v 0.8 2.8 -0.5
v 0.8 3 -0.5
v 0.2 2.4 -0.6
v 0.2 2.8 -0.6
v 0.2 2.9 -0.6
v 0.2 3 -0.6
v 0.2 3.1 -0.6
v 0.2 3.2 -0.6
v 0.3 2.3 -0.6
v 0.3 2.4 -0.6
v 0.3 2.8 -0.6
v 0.3 2.9 -0.6
v 0.3 3 -0.6
v 0.3 3.1 -0.6
v 0.3 3.2 -0.6
v 0.8 2.3 -0.6
v 0.8 2.4 -0.6
v 0.8 3 -0.6
v 0.8 3.1 -0.6
v 0.8 3.2 -0.6
v 0.9 2.4 -0.6
v 0.9 2.8 -0.6
v 0.9 3 -0.6
v 0.9 3.1 -0.6
v 0.9 3.2 -0.6
v 0.1 2.4 -0.7
v 0.1 2.6 -0.7
v 0.1 2.8 -0.7
v 0.1 2.9 -0.7
v 0.1 3 -0.7
v 0.1 3.1 -0.7
v 0.1 3.2 -0.7
v 0.2 2.3 -0.7
v 0.2 2.4 -0.7
v 0.2 2.8 -0.7
v 0.2 2.9 -0.7
v 0.2 3.2 -0.7
v 0.3 2.3 -0.7
v 0.3 2.4 -0.7
v 0.8 2.3 -0.7
v 0.8 2.4 -0.7
v 0.9 2.3 -0.7
v 0.9 2.4 -0.7
v 0.9 2.8 -0.7
v 0.9 3 -0.7
v 0.9 3.2 -0.7
v 1 2.4 -0.7
v 1 2.6 -0.7
v 1 2.7 -0.7
v 1 2.8 -0.7
v 1 3 -0.7
v 1 3.1 -0.7
v 1 3.2 -0.7
v 0 2.2 -1.2
v 0 2.3 -1.2
v 0.1 2.2 -1.2
v 0.1 2.3 -1.2
v 0.2 2 -1.2
v 0.2 2.1 -1.2
v 0.3 2 -1.2
v 0.3 2.1 -1.2
v 0.8 2 -1.2
v 0.8 2.1 -1.2
v 0.9 2 -1.2
v 0.9 2.1 -1.2
v 1 2.2 -1.2
v 1 2.3 -1.2
v 1.1 2.2 -1.2
v 1.1 2.3 -1.2
v 0 2.3 -1.3
v 0 2.5 -1.3
v 0 3 -1.3
v 0 3.1 -1.3
v 0 3.2 -1.3
v 0.1 2.1 -1.3
v 0.1 2.3 -1.3
v 0.1 2.5 -1.3
v 0.1 3 -1.3
v 0.1 3.1 -1.3
v 0.1 3.2 -1.3
v 0.2 2.1 -1.3
v 0.2 2.3 -1.3
v 0.3 2 -1.3
v 0.3 2.1 -1.3
v 0.8 2 -1.3
v 0.8 2.1 -1.3
v 0.9 2.1 -1.3
v 0.9 2.3 -1.3
v 1 2.1 -1.3
v 1 2.3 -1.3
v 1 2.5 -1.3
v 1 3 -1.3
v 1 3.1 -1.3
v 1 3.2 -1.3
v 1.1 2.3 -1.3
v 1.1 2.5 -1.3
v 1.1 3 -1.3
v 1.1 3.2 -1.3
v 0 2.5 -1.4
v 0 2.7 -1.4
v 0 3 -1.4
v 0.1 2.3 -1.4
v 0.1 2.5 -1.4
v 0.1 2.7 -1.4
v 0.1 2.8 -1.4
v 0.1 3 -1.4
v 0.1 3.1 -1.4
v 0.1 3.2 -1.4
v 0.2 2.1 -1.4
v 0.2 2.3 -1.4
v 0.2 2.5 -1.4
v 0.2 3 -1.4
v 0.2 3.1 -1.4
v 0.2 3.2 -1.4
v 0.3 2.2 -1.4
v 0.3 2.3 -1.4
v 0.8 2.2 -1.4
v 0.8 2.3 -1.4
v 0.9 2.1 -1.4
v 0.9 2.3 -1.4
v 0.9 2.5 -1.4
v 0.9 3 -1.4
v 0.9 3.1 -1.4
v 0.9 3.2 -1.4
v 1 2.3 -1.4
v 1 2.5 -1.4
v 1 2.8 -1.4
v 1 3 -1.4
v 1 3.1 -1.4
v 1 3.2 -1.4
v 1.1 2.5 -1.4
v 1.1 2.8 -1.4
v 1.1 3 -1.4
v 0.1 2.5 -1.5
v 0.1 2.8 -1.5
v 0.1 3 -1.5
v 0.2 2.3 -1.5
v 0.2 2.5 -1.5
v 0.2 2.7 -1.5
v 0.2 2.8 -1.5
v 0.2 3 -1.5
v 0.2 3.2 -1.5
v 0.3 2.2 -1.5
v 0.3 2.3 -1.5
v 0.3 2.6 -1.5
v 0.3 2.7 -1.5
v 0.3 2.8 -1.5
v 0.3 3 -1.5
v 0.3 3.1 -1.5
v 0.3 3.2 -1.5
v 0.4 2.5 -1.5
v 0.4 2.6 -1.5
v 0.4 2.8 -1.5
v 0.5 2.6 -1.5
v 0.5 2.7 -1.5
v 0.5 2.9 -1.5
v 0.5 3 -1.5
v 0.6 2.7 -1.5
v 0.6 2.9 -1.5
v 0.7 2.5 -1.5
v 0.7 2.6 -1.5
v 0.7 2.7 -1.5
v 0.7 3 -1.5
v 0.7 3.1 -1.5
v 0.7 3.2 -1.5
v 0.8 2.2 -1.5
v 0.8 2.3 -1.5
v 0.8 2.6 -1.5
v 0.8 2.7 -1.5
v 0.9 2.3 -1.5
v 0.9 2.5 -1.5
v 0.9 2.8 -1.5
v 0.9 3 -1.5
v 0.9 3.2 -1.5
v 1 2.5 -1.5
v 1 2.8 -1.5
v 1 3 -1.5
v 0.3 2 -0.6
v 0.8 2 -0.6
v 0.2 2 -0.7
v 0.3 2 -0.7
v 0.8 2 -0.7
v 0.9 2 -0.7
v 0.2 2 -1.2
v 0.3 2 -1.2
v 0.8 2 -1.2
v 0.9 2 -1.2
v 0.3 2 -1.3
v 0.8 2 -1.3
v 0.2 2.1 -0.5
v 0.9 2.1 -0.5
v 0.1 2.1 -0.6
v 0.2 2.1 -0.6
v 0.3 2.1 -0.6
v 0.8 2.1 -0.6
v 0.9 2.1 -0.6
v 1 2.1 -0.6
v 0.2 2.1 -0.7
v 0.3 2.1 -0.7
v 0.8 2.1 -0.7
v 0.9 2.1 -0.7
v 0.2 2.1 -1.2
v 0.3 2.1 -1.2
v 0.8 2.1 -1.2
v 0.9 2.1 -1.2
v 0.1 2.1 -1.3
v 0.2 2.1 -1.3
v 0.3 2.1 -1.3
v 0.8 2.1 -1.3
v 0.9 2.1 -1.3
v 1 2.1 -1.3
v 0.2 2.1 -1.4
v 0.9 2.1 -1.4
v 0.3 2.2 -0.4
v 0.8 2.2 -0.4
v 0.3 2.2 -0.5
v 0.8 2.2 -0.5
v 0 2.2 -0.7
v 0.1 2.2 -0.7
v 1 2.2 -0.7
v 1.1 2.2 -0.7
v 0 2.2 -1.2
v 0.1 2.2 -1.2
v 1 2.2 -1.2
v 1.1 2.2 -1.2
v 0.3 2.2 -1.4
v 0.8 2.2 -1.4
v 0.3 2.2 -1.5
v 0.8 2.2 -1.5
v 0.2 2.3 -0.4
v 0.3 2.3 -0.4
v 0.8 2.3 -0.4
v 0.9 2.3 -0.4
v 0.1 2.3 -0.5
v 0.2 2.3 -0.5
v 0.3 2.3 -0.5
v 0.8 2.3 -0.5
v 0.9 2.3 -0.5
v 1 2.3 -0.5
v 0 2.3 -0.6
v 0.1 2.3 -0.6
v 0.2 2.3 -0.6
v 0.9 2.3 -0.6
v 1 2.3 -0.6
v 1.1 2.3 -0.6
v 0 2.3 -0.7
v 0.1 2.3 -0.7
v 1 2.3 -0.7
v 1.1 2.3 -0.7
v 0 2.3 -1.2
v 0.1 2.3 -1.2
v 1 2.3 -1.2
v 1.1 2.3 -1.2
v 0 2.3 -1.3
v 0.1 2.3 -1.3
v 0.2 2.3 -1.3
v 0.9 2.3 -1.3
v 1 2.3 -1.3
v 1.1 2.3 -1.3
v 0.1 2.3 -1.4
v 0.2 2.3 -1.4
v 0.3 2.3 -1.4
v 0.8 2.3 -1.4
v 0.9 2.3 -1.4
v 1 2.3 -1.4
v 0.2 2.3 -1.5
v 0.3 2.3 -1.5
v 0.8 2.3 -1.5
v 0.9 2.3 -1.5
v 0.1 2.5 -0.4
v 0.2 2.5 -0.4
v 0.9 2.5 -0.4
v 1 2.5 -0.4
v 0 2.5 -0.5
v 0.1 2.5 -0.5
v 0.2 2.5 -0.5
v 0.9 2.5 -0.5
v 1 2.5 -0.5
v 1.1 2.5 -0.5
v 0 2.5 -0.6
v 0.1 2.5 -0.6
v 1 2.5 -0.6
v 1.1 2.5 -0.6
v 0 2.5 -1.3
v 0.1 2.5 -1.3
v 1 2.5 -1.3
v 1.1 2.5 -1.3
v 0 2.5 -1.4
v 0.1 2.5 -1.4
v 0.2 2.5 -1.4
v 0.9 2.5 -1.4
v 1 2.5 -1.4
v 1.1 2.5 -1.4
v 0.1 2.5 -1.5
v 0.2 2.5 -1.5
v 0.9 2.5 -1.5
v 1 2.5 -1.5
v 0.5 2.8 -0.3
v 0.6 2.8 -0.3
v 0.5 2.8 -0.4
v 0.6 2.8 -0.4
v 0.5 2.9 -0.2
v 0.6 2.9 -0.2
v 0.4 2.9 -0.3
v 0.5 2.9 -0.3
v 0.6 2.9 -0.3
v 0.7 2.9 -0.3
v 0.4 2.9 -0.4
v 0.5 2.9 -0.4
v 0.6 2.9 -0.4
v 0.7 2.9 -0.4
v 0.4 3 -0.2
v 0.5 3 -0.2
v 0.6 3 -0.2
v 0.7 3 -0.2
v 0.3 3 -0.3
v 0.4 3 -0.3
v 0.5 3 -0.3
v 0.6 3 -0.3
v 0.7 3 -0.3
v 0.8 3 -0.3
v 0.3 3 -0.4
v 0.4 3 -0.4
v 0.7 3 -0.4
v 0.8 3 -0.4
v 0.4 3.1 -0.1
v 0.7 3.1 -0.1
v 0.3 3.1 -0.2
v 0.4 3.1 -0.2
v 0.6 3.1 -0.2
v 0.7 3.1 -0.2
v 0.8 3.1 -0.2
v 0.2 3.1 -0.3
v 0.3 3.1 -0.3
v 0.4 3.1 -0.3
v 0.7 3.1 -0.3
v 0.8 3.1 -0.3
v 0.9 3.1 -0.3
v 0.2 3.1 -0.4
v 0.3 3.1 -0.4
v 0.8 3.1 -0.4
v 0.9 3.1 -0.4
v 0.3 2.3 -0.6
v 0.8 2.3 -0.6
v 0.2 2.3 -0.7
v 0.3 2.3 -0.7
v 0.8 2.3 -0.7
v 0.9 2.3 -0.7
v 0.2 2.3 -1.2
v 0.3 2.3 -1.2
v 0.8 2.3 -1.2
v 0.9 2.3 -1.2
v 0.3 2.3 -1.3
v 0.8 2.3 -1.3
v 0.3 2.4 -0.5
v 0.8 2.4 -0.5
v 0.2 2.4 -0.6
v 0.3 2.4 -0.6
v 0.8 2.4 -0.6
v 0.9 2.4 -0.6
v 0.1 2.4 -0.7
v 0.2 2.4 -0.7
v 0.3 2.4 -0.7
v 0.8 2.4 -0.7
v 0.9 2.4 -0.7
v 1 2.4 -0.7
v 0.1 2.4 -1.2
v 0.2 2.4 -1.2
v 0.3 2.4 -1.2
v 0.8 2.4 -1.2
v 0.9 2.4 -1.2
v 1 2.4 -1.2
v 0.2 2.4 -1.3
v 0.3 2.4 -1.3
v 0.8 2.4 -1.3
v 0.9 2.4 -1.3
v 0.3 2.4 -1.4
v 0.8 2.4 -1.4
v 0.5 2.8 -0.4
v 0.6 2.8 -0.4
v 0.5 2.8 -0.5
v 0.6 2.8 -0.5
v 0.5 2.9 -0.3
v 0.6 2.9 -0.3
v 0.4 2.9 -0.4
v 0.5 2.9 -0.4
v 0.6 2.9 -0.4
v 0.7 2.9 -0.4
v 0.4 2.9 -0.5
v 0.5 2.9 -0.5
v 0.6 2.9 -0.5
v 0.7 2.9 -0.5
v 0.4 3 -0.3
v 0.5 3 -0.3
v 0.6 3 -0.3
v 0.7 3 -0.3
v 0.1 3 -0.4
v 0.2 3 -0.4
v 0.3 3 -0.4
v 0.4 3 -0.4
v 0.5 3 -0.4
v 0.6 3 -0.4
v 0.7 3 -0.4
v 0.8 3 -0.4
v 0.9 3 -0.4
v 1 3 -0.4
v 0 3 -0.5
v 0.1 3 -0.5
v 0.2 3 -0.5
v 0.3 3 -0.5
v 0.4 3 -0.5
v 0.7 3 -0.5
v 0.8 3 -0.5
v 0.9 3 -0.5
v 1 3 -0.5
v 1.1 3 -0.5
v 0 3 -0.6
v 0.1 3 -0.6
v 1 3 -0.6
v 1.1 3 -0.6
v 0 3 -1.3
v 0.1 3 -1.3
v 1 3 -1.3
v 1.1 3 -1.3
v 0 3 -1.4
v 0.1 3 -1.4
v 0.2 3 -1.4
v 0.9 3 -1.4
v 1 3 -1.4
v 1.1 3 -1.4
v 0.1 3 -1.5
v 0.2 3 -1.5
v 0.9 3 -1.5
v 1 3 -1.5
v 0.4 3.1 -0.2
v 0.6 3.1 -0.2
v 0.7 3.1 -0.2
v 0.3 3.1 -0.3
v 0.4 3.1 -0.3
v 0.6 3.1 -0.3
v 0.7 3.1 -0.3
v 0.8 3.1 -0.3
v 0.3 3.1 -0.4
v 0.4 3.1 -0.4
v 0.7 3.1 -0.4
v 0.8 3.1 -0.4
v 0.4 3.2 -0.1
v 0.7 3.2 -0.1
v 0.3 3.2 -0.2
v 0.4 3.2 -0.2
v 0.7 3.2 -0.2
v 0.8 3.2 -0.2
v 0.2 3.2 -0.3
v 0.3 3.2 -0.3
v 0.4 3.2 -0.3
v 0.7 3.2 -0.3
v 0.8 3.2 -0.3
v 0.9 3.2 -0.3
v 0.1 3.2 -0.5
v 0.2 3.2 -0.5
v 0.3 3.2 -0.5
v 0.8 3.2 -0.5
v 0.9 3.2 -0.5
v 1 3.2 -0.5
v 0 3.2 -0.6
v 0.1 3.2 -0.6
v 0.2 3.2 -0.6
v 0.3 3.2 -0.6
v 0.8 3.2 -0.6
v 0.9 3.2 -0.6
v 1 3.2 -0.6
v 1.1 3.2 -0.6
v 0 3.2 -0.7
v 0.1 3.2 -0.7
v 0.2 3.2 -0.7
v 0.9 3.2 -0.7
v 1 3.2 -0.7
v 1 3.2 -0.9
v 1.1 3.2 -0.9
v 1 3.2 -1
v 1.1 3.2 -1
v 1 3.2 -1.1
v 1.1 3.2 -1.1
v 0.1 3.2 -1.2
v 0.2 3.2 -1.2
v 0.9 3.2 -1.2
v 1 3.2 -1.2
v 0 3.2 -1.3
v 0.1 3.2 -1.3
v 0.2 3.2 -1.3
v 0.3 3.2 -1.3
v 0.8 3.2 -1.3
v 0.9 3.2 -1.3
v 1 3.2 -1.3
v 1.1 3.2 -1.3
v 0.1 3.2 -1.4
v 0.2 3.2 -1.4
v 0.3 3.2 -1.4
v 0.7 3.2 -1.4
v 0.8 3.2 -1.4
v 0.9 3.2 -1.4
v 1 3.2 -1.4
v 0.2 3.2 -1.5
v 0.3 3.2 -1.5
v 0.7 3.2 -1.5
v 0.9 3.2 -1.5

# faces
f 4/2/1 2/2/1 1/2/1
f 5/2/1 2/2/1 4/2/1
f 8/2/1 4/2/1 3/2/1
f 8/2/1 6/2/1 5/2/1
f 8/2/1 5/2/1 4/2/1
f 9/2/1 6/2/1 8/2/1
f 10/2/1 6/2/1 9/2/1
f 11/2/1 6/2/1 10/2/1
f 13/2/1 8/2/1 7/2/1
f 13/2/1 9/2/1 8/2/1
f 14/1/1 10/1/1 9/1/1
f 14/2/1 9/2/1 13/2/1
f 15/1/1 10/1/1 14/1/1
f 16/2/1 12/2/1 11/2/1
f 16/1/1 10/1/1 15/1/1
f 16/2/1 11/2/1 10/2/1
f 17/2/1 12/2/1 16/2/1
f 18/2/1 13/2/1 7/2/1
f 19/1/1 15/1/1 14/1/1
f 19/2/1 13/2/1 18/2/1
f 19/1/1 14/1/1 13/1/1
f 20/1/1 15/1/1 19/1/1
f 21/1/1 15/1/1 20/1/1
f 22/2/1 16/2/1 15/2/1
f 22/1/1 15/1/1 21/1/1
f 23/1/1 17/1/1 16/1/1
f 23/2/1 16/2/1 22/2/1
f 24/2/1 12/2/1 17/2/1
f 24/1/1 17/1/1 23/1/1
f 25/2/1 12/2/1 24/2/1
f 26/2/1 18/2/1 7/2/1
f 27/1/1 19/1/1 18/1/1
f 27/2/1 18/2/1 26/2/1
f 27/1/1 20/1/1 19/1/1
f 28/1/1 22/1/1 21/1/1
f 28/1/1 23/1/1 22/1/1
f 28/2/1 21/2/1 20/2/1
f 28/1/1 24/1/1 23/1/1
f 28/1/1 25/1/1 24/1/1
f 29/1/1 25/1/1 28/1/1
f 30/2/1 29/2/1 28/2/1
f 30/1/1 25/1/1 29/1/1
f 31/1/1 25/1/1 30/1/1
f 32/1/1 27/1/1 26/1/1
f 33/1/1 20/1/1 27/1/1
f 33/1/1 27/1/1 32/1/1
f 34/1/1 20/1/1 33/1/1
f 35/2/1 28/2/1 20/2/1
f 35/1/1 20/1/1 34/1/1
f 35/2/1 30/2/1 28/2/1
f 35/2/1 31/2/1 30/2/1
f 36/2/1 31/2/1 35/2/1
f 37/1/1 25/1/1 31/1/1
f 37/2/1 31/2/1 36/2/1
f 38/1/1 25/1/1 37/1/1
f 39/1/1 34/1/1 33/1/1
f 40/2/1 35/2/1 34/2/1
f 40/1/1 34/1/1 39/1/1
f 41/1/1 36/1/1 35/1/1
f 41/2/1 35/2/1 40/2/1
f 42/2/1 37/2/1 36/2/1
f 42/1/1 36/1/1 41/1/1
f 43/2/1 37/2/1 42/2/1
f 44/2/1 40/2/1 39/2/1
f 45/1/1 41/1/1 40/1/1
f 45/2/1 40/2/1 44/2/1
f 45/1/1 42/1/1 41/1/1
f 45/1/1 43/1/1 42/1/1
f 46/1/1 43/1/1 45/1/1
f 49/3/1 48/3/1 47/3/1
f 50/3/1 48/3/1 49/3/1
f 52/3/1 49/3/1 47/3/1
f 53/3/1 49/3/1 52/3/1
f 54/3/1 48/3/1 50/3/1
f 55/3/1 48/3/1 54/3/1
f 58/2/1 52/2/1 51/2/1
f 59/2/1 52/2/1 58/2/1
f 60/2/1 56/2/1 55/2/1
f 61/2/1 56/2/1 60/2/1
f 63/2/1 62/2/1 61/2/1
f 64/2/1 58/2/1 57/2/1
f 65/2/1 58/2/1 64/2/1
f 66/2/1 62/2/1 63/2/1
f 67/2/1 62/2/1 66/2/1
f 68/1/1 65/1/1 64/1/1
f 69/1/1 65/1/1 68/1/1
f 70/2/1 69/2/1 68/2/1
f 71/2/1 69/2/1 70/2/1
f 74/1/1 67/1/1 66/1/1
f 75/1/1 67/1/1 74/1/1
f 76/1/1 72/1/1 71/1/1
f 77/1/1 72/1/1 76/1/1
f 78/2/1 74/2/1 73/2/1
f 79/2/1 74/2/1 78/2/1
f 80/2/1 77/2/1 76/2/1
f 81/2/1 77/2/1 80/2/1
f 82/1/1 79/1/1 78/1/1
f 83/1/1 79/1/1 82/1/1
f 88/3/1 85/3/1 84/3/1
f 89/3/1 85/3/1 88/3/1
f 93/3/1 87/3/1 86/3/1
f 94/3/1 87/3/1 93/3/1
f 95/3/1 91/3/1 90/3/1
f 96/3/1 91/3/1 95/3/1
f 98/2/1 93/2/1 92/2/1
f 99/2/1 93/2/1 98/2/1
f 100/2/1 97/2/1 96/2/1
f 101/2/1 97/2/1 100/2/1
f 107/2/1 103/2/1 102/2/1
f 108/2/1 103/2/1 107/2/1
f 109/1/1 105/1/1 104/1/1
f 110/1/1 108/1/1 107/1/1
f 110/1/1 107/1/1 106/1/1
f 111/1/1 108/1/1 110/1/1
f 112/1/1 105/1/1 109/1/1
f 113/1/1 105/1/1 112/1/1
f 118/3/1 115/3/1 114/3/1
f 119/3/1 115/3/1 118/3/1
f 120/3/1 117/3/1 116/3/1
f 121/3/1 117/3/1 120/3/1
f 126/2/1 123/2/1 122/2/1
f 127/2/1 123/2/1 126/2/1
f 128/2/1 125/2/1 124/2/1
f 129/2/1 125/2/1 128/2/1
f 133/1/1 131/1/1 130/1/1
f 134/1/1 131/1/1 133/1/1
f 135/2/1 133/2/1 132/2/1
f 136/2/1 133/2/1 135/2/1
f 140/2/1 138/2/1 137/2/1
f 141/2/1 138/2/1 140/2/1
f 143/2/1 140/2/1 139/2/1
f 144/2/1 140/2/1 143/2/1
f 145/2/1 143/2/1 142/2/1
f 146/2/1 143/2/1 145/2/1
f 150/2/1 148/2/1 147/2/1
f 151/2/1 148/2/1 150/2/1
f 152/2/1 150/2/1 149/2/1
f 153/2/1 150/2/1 152/2/1
f 157/1/1 155/1/1 154/1/1
f 158/1/1 155/1/1 157/1/1
f 159/2/1 157/2/1 156/2/1
f 160/2/1 157/2/1 159/2/1
f 164/1/1 162/1/1 161/1/1
f 165/1/1 162/1/1 164/1/1
f 167/2/1 164/2/1 163/2/1
f 168/2/1 164/2/1 167/2/1
f 169/1/1 167/1/1 166/1/1
f 170/1/1 167/1/1 169/1/1
f 176/2/1 172/2/1 171/2/1
f 177/2/1 172/2/1 176/2/1
f 178/2/1 174/2/1 173/2/1
f 179/2/1 174/2/1 178/2/1
f 181/2/1 176/2/1 175/2/1
f 182/2/1 180/2/1 179/2/1
f 183/2/1 176/2/1 181/2/1
f 184/2/1 182/2/1 179/2/1
f 185/2/1 176/2/1 183/2/1
f 187/2/1 176/2/1 185/2/1
f 188/2/1 176/2/1 187/2/1
f 189/2/1 184/2/1 179/2/1
f 190/2/1 184/2/1 189/2/1
f 192/2/1 187/2/1 186/2/1
f 193/1/1 188/1/1 187/1/1
f 193/2/1 187/2/1 192/2/1
f 194/1/1 188/1/1 193/1/1
f 195/1/1 190/1/1 189/1/1
f 196/1/1 190/1/1 195/1/1
f 197/1/1 192/1/1 191/1/1
f 197/1/1 193/1/1 192/1/1
f 198/2/1 194/2/1 193/2/1
f 198/1/1 193/1/1 197/1/1
f 199/2/1 194/2/1 198/2/1
f 200/2/1 196/2/1 195/2/1
f 201/2/1 196/2/1 200/2/1
f 205/2/1 203/2/1 202/2/1
f 206/2/1 203/2/1 205/2/1
f 208/2/1 205/2/1 204/2/1
f 209/2/1 205/2/1 208/2/1
f 210/2/1 207/2/1 206/2/1
f 211/2/1 207/2/1 210/2/1
f 212/1/1 209/1/1 208/1/1
f 213/1/1 209/1/1 212/1/1
f 214/1/1 211/1/1 210/1/1
f 215/1/1 211/1/1 214/1/1
f 216/2/1 213/2/1 212/2/1
f 217/2/1 215/2/1 214/2/1
f 218/2/1 215/2/1 217/2/1
f 219/2/1 213/2/1 216/2/1
f 220/2/1 213/2/1 219/2/1
f 221/1/1 218/1/1 217/1/1
f 222/1/1 218/1/1 221/1/1
f 225/2/1 224/2/1 223/2/1
f 226/2/1 224/2/1 225/2/1
f 227/2/1 225/2/1 223/2/1
f 228/1/1 226/1/1 225/1/1
f 228/2/1 225/2/1 227/2/1
f 229/1/1 226/1/1 228/1/1
f 230/2/1 224/2/1 226/2/1
f 230/1/1 226/1/1 229/1/1
f 231/2/1 224/2/1 230/2/1
f 232/1/1 229/1/1 228/1/1
f 232/1/1 228/1/1 227/1/1
f 233/1/1 229/1/1 232/1/1
f 234/2/1 233/2/1 232/2/1
f 235/2/1 230/2/1 229/2/1
f 235/1/1 229/1/1 233/1/1
f 236/1/1 231/1/1 230/1/1
f 236/2/1 230/2/1 235/2/1
f 237/1/1 231/1/1 236/1/1
f 238/1/1 235/1/1 233/1/1
f 238/1/1 236/1/1 235/1/1
f 238/1/1 237/1/1 236/1/1
f 239/1/1 237/1/1 238/1/1
f 240/2/1 233/2/1 234/2/1
f 241/1/1 238/1/1 233/1/1
f 241/2/1 233/2/1 240/2/1
f 242/2/1 239/2/1 238/2/1
f 242/1/1 238/1/1 241/1/1
f 243/1/1 237/1/1 239/1/1
f 243/2/1 239/2/1 242/2/1
f 244/1/1 237/1/1 243/1/1
f 245/1/1 242/1/1 241/1/1
f 245/1/1 241/1/1 240/1/1
f 245/1/1 244/1/1 243/1/1
f 245/1/1 243/1/1 242/1/1
f 246/1/1 244/1/1 245/1/1
f 247/1/1 244/1/1 246/1/1
f 248/1/1 244/1/1 247/1/1
f 249/1/1 244/1/1 248/1/1
f 250/2/1 246/2/1 245/2/1
f 251/1/1 247/1/1 246/1/1
f 251/2/1 246/2/1 250/2/1
f 252/2/1 248/2/1 247/2/1
f 252/1/1 247/1/1 251/1/1
f 253/1/1 249/1/1 248/1/1
f 253/2/1 248/2/1 252/2/1
f 254/1/1 249/1/1 253/1/1
f 255/2/2 256/2/2 257/2/2
f 257/2/2 256/2/2 258/2/2
f 255/2/2 257/2/2 259/2/2
f 257/1/2 258/1/2 260/1/2
f 259/2/2 257/2/2 260/2/2
f 260/1/2 258/1/2 261/1/2
f 258/2/2 256/2/2 262/2/2
f 261/1/2 258/1/2 262/1/2
f 262/2/2 256/2/2 263/2/2
f 260/1/2 261/1/2 264/1/2
f 259/1/2 260/1/2 264/1/2
f 264/1/2 261/1/2 265/1/2
f 261/2/2 262/2/2 266/2/2
f 265/1/2 261/1/2 266/1/2
f 262/1/2 263/1/2 267/1/2
f 266/2/2 262/2/2 267/2/2
f 259/1/2 264/1/2 268/1/2
f 265/1/2 266/1/2 269/1/2
f 264/2/2 265/2/2 269/2/2
f 266/1/2 267/1/2 269/1/2
f 269/1/2 267/1/2 270/1/2
f 267/1/2 263/1/2 271/1/2
f 270/1/2 267/1/2 271/1/2
f 268/1/2 264/1/2 272/1/2
f 269/2/2 270/2/2 273/2/2
f 270/1/2 271/1/2 273/1/2
f 273/1/2 271/1/2 274/1/2
f 272/1/2 264/1/2 275/1/2
f 264/2/2 269/2/2 276/2/2
f 275/1/2 264/1/2 276/1/2
f 269/2/2 273/2/2 276/2/2
f 273/2/2 274/2/2 276/2/2
f 276/2/2 274/2/2 277/2/2
f 275/2/2 276/2/2 278/2/2
f 276/1/2 277/1/2 279/1/2
f 278/2/2 276/2/2 279/2/2
f 277/2/2 274/2/2 280/2/2
f 279/1/2 277/1/2 280/1/2
f 280/2/2 274/2/2 281/2/2
f 278/1/2 279/1/2 282/1/2
f 279/1/2 280/1/2 282/1/2
f 280/1/2 281/1/2 282/1/2
f 282/1/2 281/1/2 283/1/2
f 284/2/2 285/2/2 287/2/2
f 287/2/2 285/2/2 288/2/2
f 286/2/2 287/2/2 290/2/2
f 290/2/2 287/2/2 291/2/2
f 288/2/2 289/2/2 292/2/2
f 292/2/2 289/2/2 293/2/2
f 290/1/2 291/1/2 294/1/2
f 294/1/2 291/1/2 295/1/2
f 292/1/2 293/1/2 296/1/2
f 296/1/2 293/1/2 297/1/2
f 294/2/2 295/2/2 298/2/2
f 298/2/2 295/2/2 299/2/2
f 296/2/2 297/2/2 300/2/2
f 300/2/2 297/2/2 301/2/2
f 299/2/2 295/2/2 302/2/2
f 302/2/2 295/2/2 303/2/2
f 300/1/2 301/1/2 304/1/2
f 304/1/2 301/1/2 305/1/2
f 306/2/2 307/2/2 311/2/2
f 311/2/2 307/2/2 312/2/2
f 308/2/2 309/2/2 313/2/2
f 313/2/2 309/2/2 314/2/2
f 310/2/2 311/2/2 316/2/2
f 314/2/2 315/2/2 317/2/2
f 316/2/2 311/2/2 318/2/2
f 318/2/2 311/2/2 319/2/2
f 314/2/2 317/2/2 320/2/2
f 320/2/2 317/2/2 321/2/2
f 318/1/2 319/1/2 322/1/2
f 322/1/2 319/1/2 323/1/2
f 320/1/2 321/1/2 324/1/2
f 324/1/2 321/1/2 325/1/2
f 322/2/2 323/2/2 327/2/2
f 327/2/2 323/2/2 328/2/2
f 324/2/2 325/2/2 329/2/2
f 326/2/2 327/2/2 331/2/2
f 327/1/2 328/1/2 332/1/2
f 331/2/2 327/2/2 332/2/2
f 332/1/2 328/1/2 333/1/2
f 324/2/2 329/2/2 334/2/2
f 334/2/2 329/2/2 335/2/2
f 330/1/2 331/1/2 336/1/2
f 331/1/2 332/1/2 336/1/2
f 332/2/2 333/2/2 337/2/2
f 336/1/2 332/1/2 337/1/2
f 337/2/2 333/2/2 338/2/2
f 334/1/2 335/1/2 339/1/2
f 339/1/2 335/1/2 340/1/2
f 341/1/2 342/1/2 344/1/2
f 344/1/2 342/1/2 345/1/2
f 343/1/2 344/1/2 347/1/2
f 347/1/2 344/1/2 348/1/2
f 346/2/2 347/2/2 349/2/2
f 349/2/2 347/2/2 350/2/2
f 351/2/2 352/2/2 354/2/2
f 354/2/2 352/2/2 355/2/2
f 353/2/2 354/2/2 356/2/2
f 356/2/2 354/2/2 357/2/2
f 358/2/2 359/2/2 361/2/2
f 361/2/2 359/2/2 362/2/2
f 360/2/2 361/2/2 363/2/2
f 363/2/2 361/2/2 364/2/2
f 365/2/2 366/2/2 368/2/2
f 368/2/2 366/2/2 369/2/2
f 367/1/2 368/1/2 371/1/2
f 371/1/2 368/1/2 372/1/2
f 370/2/2 371/2/2 373/2/2
f 373/2/2 371/2/2 374/2/2
f 375/3/2 376/3/2 379/3/2
f 379/3/2 376/3/2 380/3/2
f 377/3/2 378/3/2 381/3/2
f 381/3/2 378/3/2 382/3/2
f 383/2/2 384/2/2 387/2/2
f 387/2/2 384/2/2 388/2/2
f 385/2/2 386/2/2 389/2/2
f 389/2/2 386/2/2 390/2/2
f 391/2/2 392/2/2 394/2/2
f 394/2/2 392/2/2 395/2/2
f 393/1/2 394/1/2 396/1/2
f 396/1/2 394/1/2 397/1/2
f 398/3/2 399/3/2 402/3/2
f 402/3/2 399/3/2 403/3/2
f 400/3/2 401/3/2 407/3/2
f 407/3/2 401/3/2 408/3/2
f 404/3/2 405/3/2 409/3/2
f 409/3/2 405/3/2 410/3/2
f 406/2/2 407/2/2 412/2/2
f 412/2/2 407/2/2 413/2/2
f 410/2/2 411/2/2 414/2/2
f 414/2/2 411/2/2 415/2/2
f 416/2/2 417/2/2 421/2/2
f 421/2/2 417/2/2 422/2/2
f 418/1/2 419/1/2 423/1/2
f 421/1/2 422/1/2 424/1/2
f 420/1/2 421/1/2 424/1/2
f 424/1/2 422/1/2 425/1/2
f 423/1/2 419/1/2 426/1/2
f 426/1/2 419/1/2 427/1/2
f 428/3/2 429/3/2 430/3/2
f 430/3/2 429/3/2 431/3/2
f 428/3/2 430/3/2 433/3/2
f 433/3/2 430/3/2 434/3/2
f 431/3/2 429/3/2 435/3/2
f 435/3/2 429/3/2 436/3/2
f 432/2/2 433/2/2 439/2/2
f 439/2/2 433/2/2 440/2/2
f 436/2/2 437/2/2 441/2/2
f 441/2/2 437/2/2 442/2/2
f 438/2/2 439/2/2 444/2/2
f 444/2/2 439/2/2 445/2/2
f 442/2/2 443/2/2 446/2/2
f 446/2/2 443/2/2 447/2/2
f 444/1/2 445/1/2 448/1/2
f 444/1/2 448/1/2 449/1/2
f 449/1/2 448/1/2 450/1/2
f 446/1/2 447/1/2 453/1/2
f 453/1/2 447/1/2 454/1/2
f 450/2/2 451/2/2 455/2/2
f 452/1/2 453/1/2 456/1/2
f 456/1/2 453/1/2 457/1/2
f 450/2/2 455/2/2 458/2/2
f 458/2/2 455/2/2 459/2/2
f 456/2/2 457/2/2 460/2/2
f 460/2/2 457/2/2 461/2/2
f 462/2/2 463/2/2 465/2/2
f 465/2/2 463/2/2 466/2/2
f 464/2/2 465/2/2 469/2/2
f 466/2/2 467/2/2 469/2/2
f 465/2/2 466/2/2 469/2/2
f 469/2/2 467/2/2 470/2/2
f 470/2/2 467/2/2 471/2/2
f 471/2/2 467/2/2 472/2/2
f 468/2/2 469/2/2 474/2/2
f 469/2/2 470/2/2 474/2/2
f 470/1/2 471/1/2 475/1/2
f 474/2/2 470/2/2 475/2/2
f 475/1/2 471/1/2 476/1/2
f 472/2/2 473/2/2 477/2/2
f 476/1/2 471/1/2 477/1/2
f 471/2/2 472/2/2 477/2/2
f 477/2/2 473/2/2 478/2/2
f 475/1/2 476/1/2 479/1/2
f 474/1/2 475/1/2 479/1/2
f 468/2/2 474/2/2 479/2/2
f 479/1/2 476/1/2 480/1/2
f 478/2/2 473/2/2 481/2/2
f 477/1/2 478/1/2 481/1/2
f 481/2/2 473/2/2 482/2/2
f 480/1/2 476/1/2 483/1/2
f 476/2/2 477/2/2 483/2/2
f 481/1/2 482/1/2 484/1/2
f 483/2/2 477/2/2 484/2/2
f 477/1/2 481/1/2 484/1/2
f 484/1/2 482/1/2 485/1/2
f 482/2/2 473/2/2 486/2/2
f 485/1/2 482/1/2 486/1/2
f 486/2/2 473/2/2 487/2/2
f 479/2/2 480/2/2 488/2/2
f 468/2/2 479/2/2 488/2/2
f 488/2/2 480/2/2 489/2/2
f 484/1/2 485/1/2 490/1/2
f 480/1/2 483/1/2 490/1/2
f 483/1/2 484/1/2 490/1/2
f 490/1/2 485/1/2 491/1/2
f 488/1/2 489/1/2 492/1/2
f 489/2/2 480/2/2 493/2/2
f 492/1/2 489/1/2 493/1/2
f 480/1/2 490/1/2 494/1/2
f 493/2/2 480/2/2 494/2/2
f 490/2/2 491/2/2 495/2/2
f 494/1/2 490/1/2 495/1/2
f 491/1/2 485/1/2 496/1/2
f 495/2/2 491/2/2 496/2/2
f 485/2/2 486/2/2 497/2/2
f 496/1/2 485/1/2 497/1/2
f 486/1/2 487/1/2 498/1/2
f 497/2/2 486/2/2 498/2/2
f 498/1/2 487/1/2 499/1/2
f 494/1/2 495/1/2 500/1/2
f 496/1/2 497/1/2 500/1/2
f 497/1/2 498/1/2 500/1/2
f 493/1/2 494/1/2 500/1/2
f 495/1/2 496/1/2 500/1/2
f 500/1/2 498/1/2 501/1/2
f 501/1/2 498/1/2 502/1/2
f 502/1/2 498/1/2 503/1/2
f 500/2/2 501/2/2 504/2/2
f 501/1/2 502/1/2 505/1/2
f 504/2/2 501/2/2 505/2/2
f 502/2/2 503/2/2 506/2/2
f 505/1/2 502/1/2 506/1/2
f 503/1/2 498/1/2 507/1/2
f 506/2/2 503/2/2 507/2/2
f 507/1/2 498/1/2 508/1/2
f 511/2/3 510/2/3 509/2/3
f 512/2/3 510/2/3 511/2/3
f 516/2/3 514/2/3 513/2/3
f 517/2/3 514/2/3 516/2/3
f 519/2/3 516/2/3 515/2/3
f 520/2/3 519/2/3 518/2/3
f 521/2/3 516/2/3 519/2/3
f 521/2/3 519/2/3 520/2/3
f 522/2/3 516/2/3 521/2/3
f 523/1/3 522/1/3 521/1/3
f 524/1/3 522/1/3 523/1/3
f 526/1/3 525/1/3 524/1/3
f 527/1/3 525/1/3 526/1/3
f 531/1/3 529/1/3 528/1/3
f 532/1/3 529/1/3 531/1/3
f 534/1/3 531/1/3 530/1/3
f 535/1/3 531/1/3 534/1/3
f 537/2/3 534/2/3 533/2/3
f 538/2/3 534/2/3 537/2/3
f 539/2/3 537/2/3 536/2/3
f 540/2/3 537/2/3 539/2/3
f 542/2/3 541/2/3 540/2/3
f 543/2/3 541/2/3 542/2/3
f 545/2/3 544/2/3 543/2/3
f 546/2/3 544/2/3 545/2/3
f 548/1/3 547/1/3 546/1/3
f 549/1/3 547/1/3 548/1/3
f 555/2/3 551/2/3 550/2/3
f 556/2/3 551/2/3 555/2/3
f 557/1/3 552/1/3 551/1/3
f 557/2/3 551/2/3 556/2/3
f 558/2/3 553/2/3 552/2/3
f 558/1/3 552/1/3 557/1/3
f 559/2/3 553/2/3 558/2/3
f 562/2/3 556/2/3 555/2/3
f 562/2/3 555/2/3 554/2/3
f 563/2/3 556/2/3 562/2/3
f 564/1/3 557/1/3 556/1/3
f 564/2/3 556/2/3 563/2/3
f 565/2/3 558/2/3 557/2/3
f 565/1/3 557/1/3 564/1/3
f 566/1/3 559/1/3 558/1/3
f 566/2/3 558/2/3 565/2/3
f 567/2/3 560/2/3 559/2/3
f 567/1/3 559/1/3 566/1/3
f 568/2/3 560/2/3 567/2/3
f 569/2/3 563/2/3 562/2/3
f 569/2/3 562/2/3 561/2/3
f 570/1/3 566/1/3 565/1/3
f 570/2/3 563/2/3 569/2/3
f 570/1/3 565/1/3 564/1/3
f 570/1/3 567/1/3 566/1/3
f 570/1/3 564/1/3 563/1/3
f 571/1/3 567/1/3 570/1/3
f 572/1/3 567/1/3 571/1/3
f 573/1/3 567/1/3 572/1/3
f 574/1/3 570/1/3 569/1/3
f 574/1/3 571/1/3 570/1/3
f 575/2/3 572/2/3 571/2/3
f 575/1/3 571/1/3 574/1/3
f 576/2/3 572/2/3 575/2/3
f 577/2/3 569/2/3 561/2/3
f 577/1/3 574/1/3 569/1/3
f 578/2/3 575/2/3 574/2/3
f 578/1/3 574/1/3 577/1/3
f 579/2/3 575/2/3 578/2/3
f 581/2/3 578/2/3 577/2/3
f 582/1/3 580/1/3 579/1/3
f 582/2/3 578/2/3 581/2/3
f 582/1/3 579/1/3 578/1/3
f 583/1/3 580/1/3 582/1/3
f 584/1/3 580/1/3 583/1/3
f 586/2/3 577/2/3 561/2/3
f 586/2/3 581/2/3 577/2/3
f 587/2/3 581/2/3 586/2/3
f 588/1/3 582/1/3 581/1/3
f 588/2/3 581/2/3 587/2/3
f 589/2/3 583/2/3 582/2/3
f 589/1/3 582/1/3 588/1/3
f 590/1/3 584/1/3 583/1/3
f 590/1/3 585/1/3 584/1/3
f 592/2/3 589/2/3 588/2/3
f 592/2/3 588/2/3 587/2/3
f 593/2/3 589/2/3 592/2/3
f 594/1/3 590/1/3 583/1/3
f 594/2/3 591/2/3 590/2/3
f 595/2/3 591/2/3 594/2/3
f 596/2/3 589/2/3 593/2/3
f 597/2/3 583/2/3 589/2/3
f 597/2/3 589/2/3 596/2/3
f 597/1/3 594/1/3 583/1/3
f 598/1/3 594/1/3 597/1/3
f 603/2/3 600/2/3 599/2/3
f 604/1/3 601/1/3 600/1/3
f 604/2/3 600/2/3 603/2/3
f 605/1/3 601/1/3 604/1/3
f 606/1/3 601/1/3 605/1/3
f 610/2/3 603/2/3 602/2/3
f 611/2/3 603/2/3 610/2/3
f 612/1/3 607/1/3 606/1/3
f 613/2/3 608/2/3 607/2/3
f 613/1/3 607/1/3 612/1/3
f 614/2/3 608/2/3 613/2/3
f 615/3/3 610/3/3 609/3/3
f 616/3/3 610/3/3 615/3/3
f 617/3/3 615/3/3 609/3/3
f 619/3/3 617/3/3 609/3/3
f 619/3/3 618/3/3 617/3/3
f 620/3/3 618/3/3 619/3/3
f 625/2/3 621/2/3 620/2/3
f 626/2/3 621/2/3 625/2/3
f 629/2/3 624/2/3 623/2/3
f 629/2/3 623/2/3 622/2/3
f 630/2/3 624/2/3 629/2/3
f 631/2/3 628/2/3 627/2/3
f 631/2/3 627/2/3 626/2/3
f 632/1/3 629/1/3 628/1/3
f 632/2/3 628/2/3 631/2/3
f 633/1/3 629/1/3 632/1/3
f 640/2/3 635/2/3 634/2/3
f 641/2/3 635/2/3 640/2/3
f 642/1/3 637/1/3 636/1/3
f 643/2/3 638/2/3 637/2/3
f 643/1/3 637/1/3 642/1/3
f 644/2/3 638/2/3 643/2/3
f 645/3/3 640/3/3 639/3/3
f 646/3/3 640/3/3 645/3/3
f 649/3/3 648/3/3 647/3/3
f 650/3/3 648/3/3 649/3/3
f 653/3/3 652/3/3 651/3/3
f 654/3/3 652/3/3 653/3/3
f 659/2/3 655/2/3 654/2/3
f 660/2/3 655/2/3 659/2/3
f 661/1/3 657/1/3 656/1/3
f 662/2/3 658/2/3 657/2/3
f 662/1/3 657/1/3 661/1/3
f 663/2/3 658/2/3 662/2/3
f 666/2/3 665/2/3 664/2/3
f 667/2/3 665/2/3 666/2/3
f 670/3/3 669/3/3 668/3/3
f 671/3/3 669/3/3 670/3/3
f 674/3/3 673/3/3 672/3/3
f 675/3/3 673/3/3 674/3/3
f 678/2/3 677/2/3 676/2/3
f 679/2/3 677/2/3 678/2/3
f 687/2/3 681/2/3 680/2/3
f 687/2/3 682/2/3 681/2/3
f 688/1/3 683/1/3 682/1/3
f 688/2/3 682/2/3 687/2/3
f 689/2/3 684/2/3 683/2/3
f 689/1/3 683/1/3 688/1/3
f 690/1/3 685/1/3 684/1/3
f 690/2/3 684/2/3 689/2/3
f 691/1/3 685/1/3 690/1/3
f 692/2/3 687/2/3 686/2/3
f 693/2/3 687/2/3 692/2/3
f 696/2/3 695/2/3 694/2/3
f 697/2/3 695/2/3 696/2/3
f 702/2/3 698/2/3 697/2/3
f 703/2/3 698/2/3 702/2/3
f 704/1/3 699/1/3 698/1/3
f 704/2/3 698/2/3 703/2/3
f 705/2/3 700/2/3 699/2/3
f 705/1/3 699/1/3 704/1/3
f 706/1/3 701/1/3 700/1/3
f 706/2/3 700/2/3 705/2/3
f 707/1/3 701/1/3 706/1/3
f 714/2/3 709/2/3 708/2/3
f 715/1/3 710/1/3 709/1/3
f 715/2/3 709/2/3 714/2/3
f 716/2/3 711/2/3 710/2/3
f 716/1/3 710/1/3 715/1/3
f 717/1/3 712/1/3 711/1/3
f 717/2/3 711/2/3 716/2/3
f 718/1/3 712/1/3 717/1/3
f 719/2/3 714/2/3 713/2/3
f 720/2/3 714/2/3 719/2/3
f 724/2/3 721/2/3 720/2/3
f 725/2/3 721/2/3 724/2/3
f 726/1/3 722/1/3 721/1/3
f 726/2/3 721/2/3 725/2/3
f 727/2/3 723/2/3 722/2/3
f 727/1/3 722/1/3 726/1/3
f 728/2/3 723/2/3 727/2/3
f 736/2/3 730/2/3 729/2/3
f 737/1/3 731/1/3 730/1/3
f 737/2/3 730/2/3 736/2/3
f 738/2/3 732/2/3 731/2/3
f 738/1/3 731/1/3 737/1/3
f 738/2/3 733/2/3 732/2/3
f 739/1/3 737/1/3 736/1/3
f 739/2/3 738/2/3 737/2/3
f 740/2/3 738/2/3 739/2/3
f 741/2/3 733/2/3 738/2/3
f 741/2/3 738/2/3 740/2/3
f 742/1/3 734/1/3 733/1/3
f 742/2/3 733/2/3 741/2/3
f 743/1/3 740/1/3 739/1/3
f 743/2/3 741/2/3 740/2/3
f 744/1/3 742/1/3 741/1/3
f 744/2/3 741/2/3 743/2/3
f 745/2/3 736/2/3 729/2/3
f 745/1/3 743/1/3 739/1/3
f 745/1/3 744/1/3 743/1/3
f 745/1/3 739/1/3 736/1/3
f 746/1/3 744/1/3 745/1/3
f 747/1/3 744/1/3 746/1/3
f 748/1/3 742/1/3 744/1/3
f 748/1/3 744/1/3 747/1/3
f 748/1/3 734/1/3 742/1/3
f 749/2/3 735/2/3 734/2/3
f 749/1/3 734/1/3 748/1/3
f 750/2/3 735/2/3 749/2/3
f 751/2/3 746/2/3 745/2/3
f 751/2/3 745/2/3 729/2/3
f 752/1/3 747/1/3 746/1/3
f 752/2/3 746/2/3 751/2/3
f 753/2/3 748/2/3 747/2/3
f 753/1/3 747/1/3 752/1/3
f 754/1/3 750/1/3 749/1/3
f 754/2/3 748/2/3 753/2/3
f 754/1/3 749/1/3 748/1/3
f 755/1/3 750/1/3 754/1/3
f 756/1/3 750/1/3 755/1/3
f 757/2/4 758/2/4 759/2/4
f 759/2/4 758/2/4 760/2/4
f 760/2/4 758/2/4 761/2/4
f 762/2/4 763/2/4 765/2/4
f 765/2/4 763/2/4 766/2/4
f 764/2/4 765/2/4 768/2/4
f 767/2/4 768/2/4 769/2/4
f 768/2/4 765/2/4 770/2/4
f 769/2/4 768/2/4 770/2/4
f 770/2/4 765/2/4 771/2/4
f 770/1/4 771/1/4 772/1/4
f 772/1/4 771/1/4 773/1/4
f 773/1/4 774/1/4 775/1/4
f 775/1/4 774/1/4 776/1/4
f 777/1/4 778/1/4 780/1/4
f 780/1/4 778/1/4 781/1/4
f 779/2/4 780/2/4 783/2/4
f 783/2/4 780/2/4 784/2/4
f 782/2/4 783/2/4 785/2/4
f 785/2/4 783/2/4 786/2/4
f 786/2/4 787/2/4 788/2/4
f 788/2/4 787/2/4 789/2/4
f 789/2/4 790/2/4 791/2/4
f 791/2/4 790/2/4 792/2/4
f 793/2/4 794/2/4 798/2/4
f 796/1/4 797/1/4 799/1/4
f 798/2/4 794/2/4 799/2/4
f 794/1/4 795/1/4 799/1/4
f 795/1/4 796/1/4 799/1/4
f 799/1/4 797/1/4 800/1/4
f 800/1/4 797/1/4 801/1/4
f 801/1/4 797/1/4 802/1/4
f 798/1/4 799/1/4 803/1/4
f 799/1/4 800/1/4 803/1/4
f 800/2/4 801/2/4 804/2/4
f 803/1/4 800/1/4 804/1/4
f 804/2/4 801/2/4 805/2/4
f 793/2/4 798/2/4 806/2/4
f 798/1/4 803/1/4 806/1/4
f 803/2/4 804/2/4 807/2/4
f 806/1/4 803/1/4 807/1/4
f 807/2/4 804/2/4 808/2/4
f 806/2/4 807/2/4 810/2/4
f 808/1/4 809/1/4 811/1/4
f 810/2/4 807/2/4 811/2/4
f 807/1/4 808/1/4 811/1/4
f 811/1/4 809/1/4 812/1/4
f 812/1/4 809/1/4 813/1/4
f 793/2/4 806/2/4 815/2/4
f 806/2/4 810/2/4 815/2/4
f 810/1/4 811/1/4 816/1/4
f 815/2/4 810/2/4 816/2/4
f 811/2/4 812/2/4 817/2/4
f 816/1/4 811/1/4 817/1/4
f 812/1/4 813/1/4 818/1/4
f 817/2/4 812/2/4 818/2/4
f 813/1/4 814/1/4 818/1/4
f 818/1/4 814/1/4 819/1/4
f 820/2/4 821/2/4 827/2/4
f 821/1/4 822/1/4 828/1/4
f 827/2/4 821/2/4 828/2/4
f 822/2/4 823/2/4 829/2/4
f 828/1/4 822/1/4 829/1/4
f 823/1/4 824/1/4 830/1/4
f 829/2/4 823/2/4 830/2/4
f 824/2/4 825/2/4 831/2/4
f 830/1/4 824/1/4 831/1/4
f 831/2/4 825/2/4 832/2/4
f 826/2/4 827/2/4 833/2/4
f 833/2/4 827/2/4 834/2/4
f 834/2/4 835/2/4 838/2/4
f 838/2/4 835/2/4 839/2/4
f 835/1/4 836/1/4 840/1/4
f 839/2/4 835/2/4 840/2/4
f 836/2/4 837/2/4 841/2/4
f 840/1/4 836/1/4 841/1/4
f 841/2/4 837/2/4 842/2/4
f 843/2/4 844/2/4 851/2/4
f 844/2/4 845/2/4 851/2/4
f 845/1/4 846/1/4 852/1/4
f 851/2/4 845/2/4 852/2/4
f 848/2/4 849/2/4 853/2/4
f 852/1/4 846/1/4 853/1/4
f 847/2/4 848/2/4 853/2/4
f 846/2/4 847/2/4 853/2/4
f 853/2/4 849/2/4 854/2/4
f 850/2/4 851/2/4 855/2/4
f 855/2/4 851/2/4 856/2/4
f 857/2/4 858/2/4 859/2/4
f 859/2/4 858/2/4 860/2/4
f 860/2/4 861/2/4 864/2/4
f 864/2/4 861/2/4 865/2/4
f 865/2/4 861/2/4 866/2/4
f 861/1/4 862/1/4 867/1/4
f 866/2/4 861/2/4 867/2/4
f 862/2/4 863/2/4 868/2/4
f 867/1/4 862/1/4 868/1/4
f 868/2/4 863/2/4 869/2/4
f 869/2/4 863/2/4 870/2/4
f 871/2/4 872/2/4 873/2/4
f 873/2/4 872/2/4 874/2/4
f 875/3/4 876/3/4 877/3/4
f 877/3/4 876/3/4 878/3/4
f 879/3/4 880/3/4 881/3/4
f 881/3/4 880/3/4 882/3/4
f 883/2/4 884/2/4 885/2/4
f 885/2/4 884/2/4 886/2/4
f 887/2/4 888/2/4 893/2/4
f 893/2/4 888/2/4 894/2/4
f 889/2/4 890/2/4 895/2/4
f 890/1/4 891/1/4 896/1/4
f 895/2/4 890/2/4 896/2/4
f 896/1/4 891/1/4 897/1/4
f 892/3/4 893/3/4 898/3/4
f 898/3/4 893/3/4 899/3/4
f 900/3/4 901/3/4 902/3/4
f 902/3/4 901/3/4 903/3/4
f 904/3/4 905/3/4 906/3/4
f 906/3/4 905/3/4 907/3/4
f 907/2/4 908/2/4 912/2/4
f 912/2/4 908/2/4 913/2/4
f 910/1/4 911/1/4 914/1/4
f 909/1/4 910/1/4 914/1/4
f 914/1/4 911/1/4 915/1/4
f 916/2/4 917/2/4 920/2/4
f 917/1/4 918/1/4 921/1/4
f 920/2/4 917/2/4 921/2/4
f 921/1/4 918/1/4 922/1/4
f 922/1/4 918/1/4 923/1/4
f 919/2/4 920/2/4 927/2/4
f 927/2/4 920/2/4 928/2/4
f 923/2/4 924/2/4 929/2/4
f 924/1/4 925/1/4 930/1/4
f 929/2/4 924/2/4 930/2/4
f 930/1/4 925/1/4 931/1/4
f 926/3/4 927/3/4 932/3/4
f 932/3/4 927/3/4 933/3/4
f 926/3/4 932/3/4 934/3/4
f 926/3/4 934/3/4 936/3/4
f 934/3/4 935/3/4 936/3/4
f 936/3/4 935/3/4 937/3/4
f 937/2/4 938/2/4 942/2/4
f 942/2/4 938/2/4 943/2/4
f 939/1/4 940/1/4 945/1/4
f 940/2/4 941/2/4 946/2/4
f 945/1/4 940/1/4 946/1/4
f 946/2/4 941/2/4 947/2/4
f 943/2/4 944/2/4 948/2/4
f 944/1/4 945/1/4 949/1/4
f 948/2/4 944/2/4 949/2/4
f 949/1/4 945/1/4 950/1/4
f 951/2/4 952/2/4 955/2/4
f 955/2/4 952/2/4 956/2/4
f 952/1/4 953/1/4 957/1/4
f 956/2/4 952/2/4 957/2/4
f 957/1/4 953/1/4 958/1/4
f 955/2/4 956/2/4 961/2/4
f 954/2/4 955/2/4 961/2/4
f 961/2/4 956/2/4 962/2/4
f 958/1/4 959/1/4 963/1/4
f 962/2/4 956/2/4 963/2/4
f 957/1/4 958/1/4 963/1/4
f 956/1/4 957/1/4 963/1/4
f 963/1/4 959/1/4 964/1/4
f 964/1/4 959/1/4 965/1/4
f 965/1/4 959/1/4 966/1/4
f 966/1/4 959/1/4 967/1/4
f 961/2/4 962/2/4 968/2/4
f 960/2/4 961/2/4 968/2/4
f 962/1/4 963/1/4 969/1/4
f 968/2/4 962/2/4 969/2/4
f 963/1/4 964/1/4 969/1/4
f 964/2/4 965/2/4 970/2/4
f 969/1/4 964/1/4 970/1/4
f 968/1/4 969/1/4 971/1/4
f 969/2/4 970/2/4 971/2/4
f 971/2/4 970/2/4 972/2/4
f 970/2/4 965/2/4 973/2/4
f 972/2/4 970/2/4 973/2/4
f 965/1/4 966/1/4 974/1/4
f 973/2/4 965/2/4 974/2/4
f 972/2/4 973/2/4 975/2/4
f 971/1/4 972/1/4 975/1/4
f 973/1/4 974/1/4 976/1/4
f 975/2/4 973/2/4 976/2/4
f 960/2/4 968/2/4 977/2/4
f 971/1/4 975/1/4 977/1/4
f 975/1/4 976/1/4 977/1/4
f 968/1/4 971/1/4 977/1/4
f 977/1/4 976/1/4 978/1/4
f 978/1/4 976/1/4 979/1/4
f 976/1/4 974/1/4 980/1/4
f 979/1/4 976/1/4 980/1/4
f 974/1/4 966/1/4 980/1/4
f 966/2/4 967/2/4 981/2/4
f 980/1/4 966/1/4 981/1/4
f 981/2/4 967/2/4 982/2/4
f 977/2/4 978/2/4 983/2/4
f 960/2/4 977/2/4 983/2/4
f 983/2/4 978/2/4 984/2/4
f 978/1/4 979/1/4 985/1/4
f 984/2/4 978/2/4 985/2/4
f 979/2/4 980/2/4 986/2/4
f 985/1/4 979/1/4 986/1/4
f 984/2/4 985/2/4 987/2/4
f 985/2/4 986/2/4 987/2/4
f 987/2/4 986/2/4 988/2/4
f 986/2/4 980/2/4 989/2/4
f 988/2/4 986/2/4 989/2/4
f 981/1/4 982/1/4 990/1/4
f 989/2/4 980/2/4 990/2/4
f 980/1/4 981/1/4 990/1/4
f 990/1/4 982/1/4 991/1/4
f 988/2/4 989/2/4 992/2/4
f 989/1/4 990/1/4 993/1/4
f 992/2/4 989/2/4 993/2/4
f 993/1/4 990/1/4 994/1/4
f 998/3/5 996/3/5 995/3/5
f 999/3/5 996/3/5 998/3/5
f 1001/3/5 998/3/5 997/3/5
f 1001/3/5 1000/3/5 999/3/5
f 1001/3/5 999/3/5 998/3/5
f 1002/3/5 1000/3/5 1001/3/5
f 1003/3/5 1000/3/5 1002/3/5
f 1004/3/5 1000/3/5 1003/3/5
f 1005/3/5 1003/3/5 1002/3/5
f 1006/3/5 1003/3/5 1005/3/5
f 1010/3/5 1008/3/5 1007/3/5
f 1011/3/5 1008/3/5 1010/3/5
f 1012/3/5 1008/3/5 1011/3/5
f 1013/3/5 1008/3/5 1012/3/5
f 1015/3/5 1010/3/5 1009/3/5
f 1015/3/5 1011/3/5 1010/3/5
f 1016/3/5 1011/3/5 1015/3/5
f 1017/3/5 1014/3/5 1013/3/5
f 1017/3/5 1013/3/5 1012/3/5
f 1018/3/5 1014/3/5 1017/3/5
f 1019/3/5 1015/3/5 1009/3/5
f 1022/3/5 1014/3/5 1018/3/5
f 1023/3/5 1020/3/5 1019/3/5
f 1023/3/5 1019/3/5 1009/3/5
f 1024/3/5 1020/3/5 1023/3/5
f 1025/3/5 1020/3/5 1024/3/5
f 1026/3/5 1022/3/5 1021/3/5
f 1027/3/5 1014/3/5 1022/3/5
f 1027/3/5 1022/3/5 1026/3/5
f 1028/3/5 1014/3/5 1027/3/5
f 1029/3/5 1025/3/5 1024/3/5
f 1029/3/5 1026/3/5 1025/3/5
f 1029/3/5 1027/3/5 1026/3/5
f 1030/3/5 1027/3/5 1029/3/5
f 1033/2/5 1032/2/5 1031/2/5
f 1034/2/5 1032/2/5 1033/2/5
f 1039/2/5 1036/2/5 1035/2/5
f 1040/2/5 1036/2/5 1039/2/5
f 1041/2/5 1038/2/5 1037/2/5
f 1042/2/5 1038/2/5 1041/2/5
f 1045/2/5 1044/2/5 1043/2/5
f 1046/2/5 1044/2/5 1045/2/5
f 1052/2/5 1048/2/5 1047/2/5
f 1053/2/5 1048/2/5 1052/2/5
f 1054/2/5 1050/2/5 1049/2/5
f 1055/2/5 1050/2/5 1054/2/5
f 1058/2/5 1052/2/5 1051/2/5
f 1059/2/5 1052/2/5 1058/2/5
f 1060/2/5 1056/2/5 1055/2/5
f 1061/2/5 1056/2/5 1060/2/5
f 1063/2/5 1058/2/5 1057/2/5
f 1064/2/5 1058/2/5 1063/2/5
f 1065/2/5 1062/2/5 1061/2/5
f 1066/2/5 1062/2/5 1065/2/5
f 1071/2/5 1068/2/5 1067/2/5
f 1072/2/5 1068/2/5 1071/2/5
f 1075/2/5 1070/2/5 1069/2/5
f 1076/2/5 1070/2/5 1075/2/5
f 1077/2/5 1073/2/5 1072/2/5
f 1078/2/5 1073/2/5 1077/2/5
f 1081/2/5 1075/2/5 1074/2/5
f 1082/2/5 1075/2/5 1081/2/5
f 1083/2/5 1079/2/5 1078/2/5
f 1084/2/5 1079/2/5 1083/2/5
f 1085/2/5 1081/2/5 1080/2/5
f 1086/2/5 1081/2/5 1085/2/5
f 1092/2/5 1088/2/5 1087/2/5
f 1093/2/5 1088/2/5 1092/2/5
f 1094/2/5 1090/2/5 1089/2/5
f 1095/2/5 1090/2/5 1094/2/5
f 1097/2/5 1092/2/5 1091/2/5
f 1098/2/5 1092/2/5 1097/2/5
f 1099/2/5 1096/2/5 1095/2/5
f 1100/2/5 1096/2/5 1099/2/5
f 1105/2/5 1102/2/5 1101/2/5
f 1106/2/5 1102/2/5 1105/2/5
f 1109/2/5 1104/2/5 1103/2/5
f 1110/2/5 1104/2/5 1109/2/5
f 1111/2/5 1107/2/5 1106/2/5
f 1112/2/5 1107/2/5 1111/2/5
f 1113/2/5 1109/2/5 1108/2/5
f 1114/2/5 1109/2/5 1113/2/5
f 1117/2/5 1116/2/5 1115/2/5
f 1118/2/5 1116/2/5 1117/2/5
f 1122/2/5 1120/2/5 1119/2/5
f 1123/2/5 1120/2/5 1122/2/5
f 1125/2/5 1122/2/5 1121/2/5
f 1126/2/5 1122/2/5 1125/2/5
f 1127/2/5 1124/2/5 1123/2/5
f 1128/2/5 1124/2/5 1127/2/5
f 1134/2/5 1130/2/5 1129/2/5
f 1135/2/5 1130/2/5 1134/2/5
f 1136/1/5 1132/1/5 1131/1/5
f 1137/1/5 1132/1/5 1136/1/5
f 1139/1/5 1134/1/5 1133/1/5
f 1140/1/5 1134/1/5 1139/1/5
f 1141/2/5 1138/2/5 1137/2/5
f 1142/2/5 1138/2/5 1141/2/5
f 1146/2/5 1144/2/5 1143/2/5
f 1147/2/5 1144/2/5 1146/2/5
f 1148/2/5 1144/2/5 1147/2/5
f 1151/2/5 1146/2/5 1145/2/5
f 1152/2/5 1146/2/5 1151/2/5
f 1153/1/5 1149/1/5 1148/1/5
f 1154/1/5 1149/1/5 1153/1/5
f 1156/1/5 1151/1/5 1150/1/5
f 1157/1/5 1151/1/5 1156/1/5
f 1158/1/5 1155/1/5 1154/1/5
f 1159/1/5 1155/1/5 1158/1/5
f 1160/2/6 1161/2/6 1163/2/6
f 1163/2/6 1161/2/6 1164/2/6
f 1162/2/6 1163/2/6 1166/2/6
f 1164/2/6 1165/2/6 1166/2/6
f 1163/2/6 1164/2/6 1166/2/6
f 1166/2/6 1165/2/6 1167/2/6
f 1167/2/6 1165/2/6 1168/2/6
f 1168/2/6 1165/2/6 1169/2/6
f 1167/2/6 1168/2/6 1170/2/6
f 1170/2/6 1168/2/6 1171/2/6
f 1172/2/6 1173/2/6 1175/2/6
f 1175/2/6 1173/2/6 1176/2/6
f 1174/2/6 1175/2/6 1179/2/6
f 1179/2/6 1175/2/6 1180/2/6
f 1176/2/6 1177/2/6 1181/2/6
f 1181/2/6 1177/2/6 1182/2/6
f 1178/2/6 1179/2/6 1184/2/6
f 1184/2/6 1179/2/6 1185/2/6
f 1182/2/6 1183/2/6 1188/2/6
f 1188/2/6 1183/2/6 1189/2/6
f 1185/2/6 1186/2/6 1190/2/6
f 1190/2/6 1186/2/6 1191/2/6
f 1187/2/6 1188/2/6 1192/2/6
f 1192/2/6 1188/2/6 1193/2/6
f 1191/2/6 1192/2/6 1194/2/6
f 1194/2/6 1192/2/6 1195/2/6
f 1196/2/6 1197/2/6 1198/2/6
f 1198/2/6 1197/2/6 1199/2/6
f 1200/2/6 1201/2/6 1203/2/6
f 1203/2/6 1201/2/6 1204/2/6
f 1202/2/6 1203/2/6 1206/2/6
f 1206/2/6 1203/2/6 1207/2/6
f 1204/1/6 1205/1/6 1208/1/6
f 1208/1/6 1205/1/6 1209/1/6
f 1210/2/6 1211/2/6 1217/2/6
f 1217/2/6 1211/2/6 1218/2/6
f 1212/2/6 1213/2/6 1219/2/6
f 1219/2/6 1213/2/6 1220/2/6
f 1214/2/6 1215/2/6 1225/2/6
f 1225/2/6 1215/2/6 1226/2/6
f 1216/1/6 1217/1/6 1227/1/6
f 1227/1/6 1217/1/6 1228/1/6
f 1220/1/6 1221/1/6 1229/1/6
f 1229/1/6 1221/1/6 1230/1/6
f 1222/1/6 1223/1/6 1231/1/6
f 1231/1/6 1223/1/6 1232/1/6
f 1224/1/6 1225/1/6 1234/1/6
f 1234/1/6 1225/1/6 1235/1/6
f 1232/1/6 1233/1/6 1236/1/6
f 1236/1/6 1233/1/6 1237/1/6
f 1238/1/6 1239/1/6 1242/1/6
f 1242/1/6 1239/1/6 1243/1/6
f 1240/1/6 1241/1/6 1246/1/6
f 1246/1/6 1241/1/6 1247/1/6
f 1243/1/6 1244/1/6 1248/1/6
f 1248/1/6 1244/1/6 1249/1/6
f 1245/1/6 1246/1/6 1250/1/6
f 1250/1/6 1246/1/6 1251/1/6
f 1252/2/6 1253/2/6 1256/2/6
f 1253/1/6 1254/1/6 1257/1/6
f 1256/2/6 1253/2/6 1257/2/6
f 1257/1/6 1254/1/6 1258/1/6
f 1255/1/6 1256/1/6 1260/1/6
f 1260/1/6 1256/1/6 1261/1/6
f 1258/2/6 1259/2/6 1262/2/6
f 1262/2/6 1259/2/6 1263/2/6
f 1264/2/6 1265/2/6 1267/2/6
f 1267/2/6 1265/2/6 1268/2/6
f 1266/2/6 1267/2/6 1271/2/6
f 1271/2/6 1267/2/6 1272/2/6
f 1268/1/6 1269/1/6 1273/1/6
f 1273/1/6 1269/1/6 1274/1/6
f 1270/1/6 1271/1/6 1277/1/6
f 1277/1/6 1271/1/6 1278/1/6
f 1274/1/6 1275/1/6 1279/1/6
f 1279/1/6 1275/1/6 1280/1/6
f 1277/2/6 1278/2/6 1283/2/6
f 1276/2/6 1277/2/6 1283/2/6
f 1283/2/6 1278/2/6 1284/2/6
f 1284/2/6 1278/2/6 1285/2/6
f 1280/2/6 1281/2/6 1286/2/6
f 1279/2/6 1280/2/6 1286/2/6
f 1286/2/6 1281/2/6 1287/2/6
f 1287/2/6 1281/2/6 1288/2/6
f 1283/2/6 1284/2/6 1290/2/6
f 1282/2/6 1283/2/6 1290/2/6
f 1290/2/6 1284/2/6 1291/2/6
f 1291/2/6 1284/2/6 1292/2/6
f 1288/2/6 1289/2/6 1293/2/6
f 1287/2/6 1288/2/6 1293/2/6
f 1293/2/6 1289/2/6 1294/2/6
f 1294/2/6 1289/2/6 1295/2/6
f 1295/2/6 1289/2/6 1296/2/6
f 1295/1/6 1296/1/6 1297/1/6
f 1297/1/6 1296/1/6 1298/1/6
f 1297/2/6 1298/2/6 1299/2/6
f 1299/2/6 1298/2/6 1300/2/6
f 1290/1/6 1291/1/6 1301/1/6
f 1299/1/6 1300/1/6 1304/1/6
f 1301/1/6 1302/1/6 1305/1/6
f 1290/1/6 1301/1/6 1305/1/6
f 1305/1/6 1302/1/6 1306/1/6
f 1306/1/6 1302/1/6 1307/1/6
f 1303/1/6 1304/1/6 1310/1/6
f 1304/1/6 1300/1/6 1311/1/6
f 1310/1/6 1304/1/6 1311/1/6
f 1311/1/6 1300/1/6 1312/1/6
f 1307/1/6 1308/1/6 1313/1/6
f 1306/1/6 1307/1/6 1313/1/6
f 1313/1/6 1308/1/6 1314/1/6
f 1314/1/6 1308/1/6 1315/1/6
f 1309/2/6 1310/2/6 1317/2/6
f 1310/2/6 1311/2/6 1317/2/6
f 1317/2/6 1311/2/6 1318/2/6
f 1318/2/6 1311/2/6 1319/2/6
f 1314/1/6 1315/1/6 1320/1/6
f 1315/2/6 1316/2/6 1321/2/6
f 1320/1/6 1315/1/6 1321/1/6
f 1317/1/6 1318/1/6 1322/1/6
f 1321/2/6 1316/2/6 1322/2/6
f 1316/1/6 1317/1/6 1322/1/6
f 1322/1/6 1318/1/6 1323/1/6
