# MagicaVoxel @ Ephtracy

# group
o 

# material
mtllib SmeltingTable.mtl
usemtl palette

# normals
vn -1 0 0
vn 1 0 0
vn 0 0 1
vn 0 0 -1
vn 0 -1 0
vn 0 1 0

# texcoords
vt 0.943359 0.5
vt 0.974609 0.5
vt 0.982422 0.5

# verts
v 0 2 0
v 0 2 -0.1
v 0 2 -1.5
v 0 2 -1.7
v 0 2 -3.1
v 0 2 -3.2
v 0 2.1 -3.1
v 0 2.1 -3.2
v 0 2.2 0
v 0 2.2 -0.1
v 0 2.3 -1.6
v 0 2.3 -1.7
v 0 2.4 -1.5
v 0 2.4 -1.6
v 0 2.6 -3.1
v 0 2.6 -3.2
v 0 2.8 0
v 0 2.8 -0.1
v 0 2.8 -1.5
v 0 2.8 -1.6
v 0 2.9 -1.6
v 0 2.9 -1.7
v 0 3.1 -0.1
v 0 3.1 -0.2
v 0 3.1 -1.4
v 0 3.1 -1.5
v 0 3.1 -1.7
v 0 3.1 -1.8
v 0 3.1 -3
v 0 3.1 -3.1
v 0 3.2 0
v 0 3.2 -0.2
v 0 3.2 -1.4
v 0 3.2 -1.5
v 0 3.2 -1.7
v 0 3.2 -1.8
v 0 3.2 -3
v 0 3.2 -3.2
v 0 3.3 0
v 0 3.3 -3.2
v 1.3 3.1 0
v 1.3 3.1 -0.1
v 1.3 3.1 -1.5
v 1.3 3.1 -1.7
v 1.3 3.1 -3.1
v 1.3 3.1 -3.2
v 1.3 3.2 0
v 1.3 3.2 -0.1
v 1.3 3.2 -1.5
v 1.3 3.2 -1.7
v 1.3 3.2 -3.1
v 1.3 3.2 -3.2
v 1.4 2 0
v 1.4 2 -0.1
v 1.4 2 -1.5
v 1.4 2 -1.7
v 1.4 2 -3.1
v 1.4 2 -3.2
v 1.4 2.1 -1.5
v 1.4 2.1 -1.6
v 1.4 2.2 -3.1
v 1.4 2.2 -3.2
v 1.4 2.3 0
v 1.4 2.3 -0.1
v 1.4 2.3 -1.6
v 1.4 2.3 -1.7
v 1.4 2.7 0
v 1.4 2.7 -0.1
v 1.4 2.7 -1.5
v 1.4 2.7 -1.6
v 1.4 2.7 -3.1
v 1.4 2.7 -3.2
v 1.4 2.9 -1.6
v 1.4 2.9 -1.7
v 1.4 3.1 0
v 1.4 3.1 -0.1
v 1.4 3.1 -0.2
v 1.4 3.1 -1.4
v 1.4 3.1 -1.5
v 1.4 3.1 -1.7
v 1.4 3.1 -1.8
v 1.4 3.1 -3
v 1.4 3.1 -3.1
v 1.4 3.1 -3.2
v 1.4 3.2 -0.1
v 1.4 3.2 -0.2
v 1.4 3.2 -1.4
v 1.4 3.2 -1.5
v 1.4 3.2 -1.7
v 1.4 3.2 -1.8
v 1.4 3.2 -3
v 1.4 3.2 -3.1
v 0.1 2 0
v 0.1 2 -0.1
v 0.1 2 -1.5
v 0.1 2 -1.7
v 0.1 2 -3.1
v 0.1 2 -3.2
v 0.1 2.1 -3.1
v 0.1 2.1 -3.2
v 0.1 2.2 0
v 0.1 2.2 -0.1
v 0.1 2.3 -1.6
v 0.1 2.3 -1.7
v 0.1 2.4 -1.5
v 0.1 2.4 -1.6
v 0.1 2.6 -3.1
v 0.1 2.6 -3.2
v 0.1 2.8 0
v 0.1 2.8 -0.1
v 0.1 2.8 -1.5
v 0.1 2.8 -1.6
v 0.1 2.9 -1.6
v 0.1 2.9 -1.7
v 0.1 3.1 0
v 0.1 3.1 -0.1
v 0.1 3.1 -0.2
v 0.1 3.1 -1.4
v 0.1 3.1 -1.5
v 0.1 3.1 -1.7
v 0.1 3.1 -1.8
v 0.1 3.1 -3
v 0.1 3.1 -3.1
v 0.1 3.1 -3.2
v 0.1 3.2 -0.1
v 0.1 3.2 -0.2
v 0.1 3.2 -1.4
v 0.1 3.2 -1.5
v 0.1 3.2 -1.7
v 0.1 3.2 -1.8
v 0.1 3.2 -3
v 0.1 3.2 -3.1
v 0.2 3.1 0
v 0.2 3.1 -0.1
v 0.2 3.1 -1.5
v 0.2 3.1 -1.7
v 0.2 3.1 -3.1
v 0.2 3.1 -3.2
v 0.2 3.2 0
v 0.2 3.2 -0.1
v 0.2 3.2 -1.5
v 0.2 3.2 -1.6
v 0.2 3.2 -1.7
v 0.2 3.2 -3.1
v 0.2 3.2 -3.2
v 1.5 2 0
v 1.5 2 -0.1
v 1.5 2 -1.5
v 1.5 2 -1.7
v 1.5 2 -3.1
v 1.5 2 -3.2
v 1.5 2.1 -1.5
v 1.5 2.1 -1.6
v 1.5 2.2 -3.1
v 1.5 2.2 -3.2
v 1.5 2.3 0
v 1.5 2.3 -0.1
v 1.5 2.3 -1.6
v 1.5 2.3 -1.7
v 1.5 2.7 0
v 1.5 2.7 -0.1
v 1.5 2.7 -1.5
v 1.5 2.7 -1.6
v 1.5 2.7 -3.1
v 1.5 2.7 -3.2
v 1.5 2.9 -1.6
v 1.5 2.9 -1.7
v 1.5 3.1 -0.1
v 1.5 3.1 -0.2
v 1.5 3.1 -1.4
v 1.5 3.1 -1.5
v 1.5 3.1 -1.7
v 1.5 3.1 -1.8
v 1.5 3.1 -3
v 1.5 3.1 -3.1
v 1.5 3.2 0
v 1.5 3.2 -0.2
v 1.5 3.2 -1.4
v 1.5 3.2 -1.8
v 1.5 3.2 -3
v 1.5 3.2 -3.2
v 1.5 3.3 0
v 1.5 3.3 -3.2
v 0 2 0
v 0 2.2 0
v 0 2.8 0
v 0 3.2 0
v 0 3.3 0
v 0.1 2 0
v 0.1 2.2 0
v 0.1 2.8 0
v 0.1 3.1 0
v 0.2 3.1 0
v 0.2 3.2 0
v 1.3 3.1 0
v 1.3 3.2 0
v 1.4 2 0
v 1.4 2.3 0
v 1.4 2.7 0
v 1.4 3.1 0
v 1.5 2 0
v 1.5 2.3 0
v 1.5 2.7 0
v 1.5 3.2 0
v 1.5 3.3 0
v 0 3.1 -1.4
v 0 3.2 -1.4
v 0.1 3.1 -1.4
v 0.1 3.2 -1.4
v 1.4 3.1 -1.4
v 1.4 3.2 -1.4
v 1.5 3.1 -1.4
v 1.5 3.2 -1.4
v 0 2 -1.5
v 0 2.4 -1.5
v 0 2.8 -1.5
v 0 3.1 -1.5
v 0.1 2 -1.5
v 0.1 2.4 -1.5
v 0.1 2.8 -1.5
v 0.1 3.1 -1.5
v 0.1 3.2 -1.5
v 0.2 3.1 -1.5
v 0.2 3.2 -1.5
v 1.3 3.1 -1.5
v 1.3 3.2 -1.5
v 1.4 2 -1.5
v 1.4 2.1 -1.5
v 1.4 2.7 -1.5
v 1.4 3.1 -1.5
v 1.4 3.2 -1.5
v 1.5 2 -1.5
v 1.5 2.1 -1.5
v 1.5 2.7 -1.5
v 1.5 3.1 -1.5
v 0 3.1 -3
v 0 3.2 -3
v 0.1 3.1 -3
v 0.1 3.2 -3
v 1.4 3.1 -3
v 1.4 3.2 -3
v 1.5 3.1 -3
v 1.5 3.2 -3
v 0 2 -3.1
v 0 2.1 -3.1
v 0 2.6 -3.1
v 0 3.1 -3.1
v 0.1 2 -3.1
v 0.1 2.1 -3.1
v 0.1 2.6 -3.1
v 0.1 3.1 -3.1
v 0.1 3.2 -3.1
v 0.2 3.1 -3.1
v 0.2 3.2 -3.1
v 1.3 3.1 -3.1
v 1.3 3.2 -3.1
v 1.4 2 -3.1
v 1.4 2.2 -3.1
v 1.4 2.7 -3.1
v 1.4 3.1 -3.1
v 1.4 3.2 -3.1
v 1.5 2 -3.1
v 1.5 2.2 -3.1
v 1.5 2.7 -3.1
v 1.5 3.1 -3.1
v 0 2 -0.1
v 0 2.2 -0.1
v 0 2.8 -0.1
v 0 3.1 -0.1
v 0.1 2 -0.1
v 0.1 2.2 -0.1
v 0.1 2.8 -0.1
v 0.1 3.1 -0.1
v 0.1 3.2 -0.1
v 0.2 3.1 -0.1
v 0.2 3.2 -0.1
v 1.3 3.1 -0.1
v 1.3 3.2 -0.1
v 1.4 2 -0.1
v 1.4 2.3 -0.1
v 1.4 2.7 -0.1
v 1.4 3.1 -0.1
v 1.4 3.2 -0.1
v 1.5 2 -0.1
v 1.5 2.3 -0.1
v 1.5 2.7 -0.1
v 1.5 3.1 -0.1
v 0 3.1 -0.2
v 0 3.2 -0.2
v 0.1 3.1 -0.2
v 0.1 3.2 -0.2
v 1.4 3.1 -0.2
v 1.4 3.2 -0.2
v 1.5 3.1 -0.2
v 1.5 3.2 -0.2
v 0 2 -1.7
v 0 2.3 -1.7
v 0 2.9 -1.7
v 0 3.1 -1.7
v 0.1 2 -1.7
v 0.1 2.3 -1.7
v 0.1 2.9 -1.7
v 0.1 3.1 -1.7
v 0.1 3.2 -1.7
v 0.2 3.1 -1.7
v 0.2 3.2 -1.7
v 1.3 3.1 -1.7
v 1.3 3.2 -1.7
v 1.4 2 -1.7
v 1.4 2.3 -1.7
v 1.4 2.9 -1.7
v 1.4 3.1 -1.7
v 1.4 3.2 -1.7
v 1.5 2 -1.7
v 1.5 2.3 -1.7
v 1.5 2.9 -1.7
v 1.5 3.1 -1.7
v 0 3.1 -1.8
v 0 3.2 -1.8
v 0.1 3.1 -1.8
v 0.1 3.2 -1.8
v 1.4 3.1 -1.8
v 1.4 3.2 -1.8
v 1.5 3.1 -1.8
v 1.5 3.2 -1.8
v 0 2 -3.2
v 0 2.1 -3.2
v 0 2.6 -3.2
v 0 3.2 -3.2
v 0 3.3 -3.2
v 0.1 2 -3.2
v 0.1 2.1 -3.2
v 0.1 2.6 -3.2
v 0.1 3.1 -3.2
v 0.2 3.1 -3.2
v 0.2 3.2 -3.2
v 1.3 3.1 -3.2
v 1.3 3.2 -3.2
v 1.4 2 -3.2
v 1.4 2.2 -3.2
v 1.4 2.7 -3.2
v 1.4 3.1 -3.2
v 1.5 2 -3.2
v 1.5 2.2 -3.2
v 1.5 2.7 -3.2
v 1.5 3.2 -3.2
v 1.5 3.3 -3.2
v 0 2 0
v 0.1 2 0
v 1.4 2 0
v 1.5 2 0
v 0 2 -0.1
v 0.1 2 -0.1
v 1.4 2 -0.1
v 1.5 2 -0.1
v 0 2 -1.5
v 0.1 2 -1.5
v 1.4 2 -1.5
v 1.5 2 -1.5
v 0 2 -1.7
v 0.1 2 -1.7
v 1.4 2 -1.7
v 1.5 2 -1.7
v 0 2 -3.1
v 0.1 2 -3.1
v 1.4 2 -3.1
v 1.5 2 -3.1
v 0 2 -3.2
v 0.1 2 -3.2
v 1.4 2 -3.2
v 1.5 2 -3.2
v 0.1 3.1 0
v 0.2 3.1 0
v 1.3 3.1 0
v 1.4 3.1 0
v 0 3.1 -0.1
v 0.1 3.1 -0.1
v 0.2 3.1 -0.1
v 1.3 3.1 -0.1
v 1.4 3.1 -0.1
v 1.5 3.1 -0.1
v 0 3.1 -0.2
v 0.1 3.1 -0.2
v 1.4 3.1 -0.2
v 1.5 3.1 -0.2
v 0 3.1 -1.4
v 0.1 3.1 -1.4
v 1.4 3.1 -1.4
v 1.5 3.1 -1.4
v 0 3.1 -1.5
v 0.1 3.1 -1.5
v 0.2 3.1 -1.5
v 1.3 3.1 -1.5
v 1.4 3.1 -1.5
v 1.5 3.1 -1.5
v 0 3.1 -1.7
v 0.1 3.1 -1.7
v 0.2 3.1 -1.7
v 1.3 3.1 -1.7
v 1.4 3.1 -1.7
v 1.5 3.1 -1.7
v 0 3.1 -1.8
v 0.1 3.1 -1.8
v 1.4 3.1 -1.8
v 1.5 3.1 -1.8
v 0 3.1 -3
v 0.1 3.1 -3
v 1.4 3.1 -3
v 1.5 3.1 -3
v 0 3.1 -3.1
v 0.1 3.1 -3.1
v 0.2 3.1 -3.1
v 1.3 3.1 -3.1
v 1.4 3.1 -3.1
v 1.5 3.1 -3.1
v 0.1 3.1 -3.2
v 0.2 3.1 -3.2
v 1.3 3.1 -3.2
v 1.4 3.1 -3.2
v 0.2 3.2 0
v 1.3 3.2 0
v 0.1 3.2 -0.1
v 0.2 3.2 -0.1
v 0.6 3.2 -0.1
v 0.8 3.2 -0.1
v 1 3.2 -0.1
v 1.2 3.2 -0.1
v 1.3 3.2 -0.1
v 1.4 3.2 -0.1
v 0 3.2 -0.2
v 0.1 3.2 -0.2
v 0.3 3.2 -0.2
v 0.6 3.2 -0.2
v 0.8 3.2 -0.2
v 1 3.2 -0.2
v 1.2 3.2 -0.2
v 1.3 3.2 -0.2
v 1.4 3.2 -0.2
v 1.5 3.2 -0.2
v 1.3 3.2 -0.3
v 1.4 3.2 -0.3
v 0.2 3.2 -0.4
v 0.3 3.2 -0.4
v 0.1 3.2 -0.5
v 0.2 3.2 -0.5
v 0.1 3.2 -0.6
v 0.2 3.2 -0.6
v 1.3 3.2 -1.1
v 1.4 3.2 -1.1
v 0 3.2 -1.4
v 0.1 3.2 -1.4
v 1.4 3.2 -1.4
v 1.5 3.2 -1.4
v 0.1 3.2 -1.5
v 0.2 3.2 -1.5
v 1.3 3.2 -1.5
v 1.4 3.2 -1.5
v 0.2 3.2 -1.6
v 0.3 3.2 -1.6
v 0.1 3.2 -1.7
v 0.2 3.2 -1.7
v 1.3 3.2 -1.7
v 1.4 3.2 -1.7
v 0 3.2 -1.8
v 0.1 3.2 -1.8
v 0.2 3.2 -1.8
v 0.3 3.2 -1.8
v 1.3 3.2 -1.8
v 1.4 3.2 -1.8
v 1.5 3.2 -1.8
v 0.1 3.2 -1.9
v 0.2 3.2 -1.9
v 0.1 3.2 -2.4
v 0.2 3.2 -2.4
v 1.3 3.2 -2.7
v 1.4 3.2 -2.7
v 1.1 3.2 -2.9
v 1.3 3.2 -2.9
v 0 3.2 -3
v 0.1 3.2 -3
v 0.2 3.2 -3
v 0.3 3.2 -3
v 1 3.2 -3
v 1.1 3.2 -3
v 1.4 3.2 -3
v 1.5 3.2 -3
v 0.1 3.2 -3.1
v 0.2 3.2 -3.1
v 0.3 3.2 -3.1
v 1 3.2 -3.1
v 1.3 3.2 -3.1
v 1.4 3.2 -3.1
v 0.2 3.2 -3.2
v 1.3 3.2 -3.2
v 0 3.3 0
v 1.5 3.3 0
v 0.6 3.3 -0.1
v 0.8 3.3 -0.1
v 1 3.3 -0.1
v 1.2 3.3 -0.1
v 0.3 3.3 -0.2
v 0.6 3.3 -0.2
v 0.8 3.3 -0.2
v 1 3.3 -0.2
v 1.2 3.3 -0.2
v 1.3 3.3 -0.2
v 1.3 3.3 -0.3
v 1.4 3.3 -0.3
v 0.2 3.3 -0.4
v 0.3 3.3 -0.4
v 0.1 3.3 -0.5
v 0.2 3.3 -0.5
v 0.1 3.3 -0.6
v 0.2 3.3 -0.6
v 1.3 3.3 -1.1
v 1.4 3.3 -1.1
v 0.2 3.3 -1.6
v 0.3 3.3 -1.6
v 0.2 3.3 -1.8
v 0.3 3.3 -1.8
v 1.3 3.3 -1.8
v 1.4 3.3 -1.8
v 0.1 3.3 -1.9
v 0.2 3.3 -1.9
v 0.1 3.3 -2.4
v 0.2 3.3 -2.4
v 1.3 3.3 -2.7
v 1.4 3.3 -2.7
v 1.1 3.3 -2.9
v 1.3 3.3 -2.9
v 0.2 3.3 -3
v 0.3 3.3 -3
v 1 3.3 -3
v 1.1 3.3 -3
v 0.3 3.3 -3.1
v 1 3.3 -3.1
v 0 3.3 -3.2
v 1.5 3.3 -3.2

# faces
f 7/3/1 6/3/1 5/3/1
f 8/3/1 6/3/1 7/3/1
f 9/3/1 2/3/1 1/3/1
f 10/3/1 2/3/1 9/3/1
f 11/3/1 4/3/1 3/3/1
f 12/3/1 4/3/1 11/3/1
f 13/3/1 11/3/1 3/3/1
f 14/1/1 12/1/1 11/1/1
f 14/3/1 11/3/1 13/3/1
f 15/1/1 8/1/1 7/1/1
f 16/1/1 8/1/1 15/1/1
f 17/1/1 10/1/1 9/1/1
f 18/1/1 10/1/1 17/1/1
f 19/1/1 14/1/1 13/1/1
f 20/1/1 12/1/1 14/1/1
f 20/1/1 14/1/1 19/1/1
f 21/3/1 20/3/1 19/3/1
f 21/1/1 12/1/1 20/1/1
f 22/1/1 12/1/1 21/1/1
f 23/3/1 18/3/1 17/3/1
f 26/3/1 21/3/1 19/3/1
f 26/3/1 22/3/1 21/3/1
f 27/3/1 22/3/1 26/3/1
f 30/3/1 16/3/1 15/3/1
f 31/3/1 24/3/1 23/3/1
f 31/3/1 23/3/1 17/3/1
f 32/3/1 24/3/1 31/3/1
f 33/3/1 26/3/1 25/3/1
f 34/1/1 27/1/1 26/1/1
f 34/3/1 26/3/1 33/3/1
f 35/3/1 28/3/1 27/3/1
f 35/1/1 27/1/1 34/1/1
f 36/3/1 28/3/1 35/3/1
f 37/3/1 30/3/1 29/3/1
f 38/3/1 16/3/1 30/3/1
f 38/3/1 30/3/1 37/3/1
f 39/1/1 33/1/1 32/1/1
f 39/1/1 34/1/1 33/1/1
f 39/1/1 38/1/1 37/1/1
f 39/1/1 36/1/1 35/1/1
f 39/1/1 35/1/1 34/1/1
f 39/1/1 37/1/1 36/1/1
f 39/1/1 32/1/1 31/1/1
f 40/1/1 38/1/1 39/1/1
f 47/3/1 42/3/1 41/3/1
f 48/3/1 42/3/1 47/3/1
f 49/3/1 44/3/1 43/3/1
f 50/3/1 44/3/1 49/3/1
f 51/3/1 46/3/1 45/3/1
f 52/3/1 46/3/1 51/3/1
f 59/3/1 56/3/1 55/3/1
f 60/3/1 56/3/1 59/3/1
f 61/3/1 58/3/1 57/3/1
f 62/3/1 58/3/1 61/3/1
f 63/3/1 54/3/1 53/3/1
f 64/3/1 54/3/1 63/3/1
f 65/3/1 56/3/1 60/3/1
f 65/1/1 60/1/1 59/1/1
f 66/3/1 56/3/1 65/3/1
f 67/1/1 64/1/1 63/1/1
f 68/1/1 64/1/1 67/1/1
f 69/1/1 65/1/1 59/1/1
f 69/1/1 66/1/1 65/1/1
f 70/1/1 66/1/1 69/1/1
f 71/1/1 62/1/1 61/1/1
f 72/1/1 62/1/1 71/1/1
f 73/1/1 66/1/1 70/1/1
f 73/3/1 70/3/1 69/3/1
f 74/1/1 66/1/1 73/1/1
f 75/3/1 68/3/1 67/3/1
f 76/3/1 68/3/1 75/3/1
f 79/3/1 73/3/1 69/3/1
f 79/3/1 74/3/1 73/3/1
f 80/3/1 74/3/1 79/3/1
f 83/3/1 72/3/1 71/3/1
f 84/3/1 72/3/1 83/3/1
f 85/3/1 77/3/1 76/3/1
f 86/3/1 77/3/1 85/3/1
f 87/3/1 79/3/1 78/3/1
f 88/3/1 79/3/1 87/3/1
f 89/3/1 81/3/1 80/3/1
f 90/3/1 81/3/1 89/3/1
f 91/3/1 83/3/1 82/3/1
f 92/3/1 83/3/1 91/3/1
f 97/3/2 98/3/2 99/3/2
f 99/3/2 98/3/2 100/3/2
f 93/3/2 94/3/2 101/3/2
f 101/3/2 94/3/2 102/3/2
f 95/3/2 96/3/2 103/3/2
f 103/3/2 96/3/2 104/3/2
f 95/3/2 103/3/2 105/3/2
f 103/1/2 104/1/2 106/1/2
f 105/3/2 103/3/2 106/3/2
f 99/1/2 100/1/2 107/1/2
f 107/1/2 100/1/2 108/1/2
f 101/1/2 102/1/2 109/1/2
f 109/1/2 102/1/2 110/1/2
f 105/1/2 106/1/2 111/1/2
f 106/1/2 104/1/2 112/1/2
f 111/1/2 106/1/2 112/1/2
f 111/3/2 112/3/2 113/3/2
f 112/1/2 104/1/2 113/1/2
f 113/1/2 104/1/2 114/1/2
f 109/3/2 110/3/2 115/3/2
f 115/3/2 110/3/2 116/3/2
f 111/3/2 113/3/2 119/3/2
f 113/3/2 114/3/2 119/3/2
f 119/3/2 114/3/2 120/3/2
f 107/3/2 108/3/2 123/3/2
f 123/3/2 108/3/2 124/3/2
f 116/3/2 117/3/2 125/3/2
f 125/3/2 117/3/2 126/3/2
f 118/3/2 119/3/2 127/3/2
f 127/3/2 119/3/2 128/3/2
f 120/3/2 121/3/2 129/3/2
f 129/3/2 121/3/2 130/3/2
f 122/3/2 123/3/2 131/3/2
f 131/3/2 123/3/2 132/3/2
f 133/3/2 134/3/2 139/3/2
f 139/3/2 134/3/2 140/3/2
f 135/3/2 136/3/2 141/3/2
f 141/3/2 136/3/2 142/3/2
f 142/3/2 136/3/2 143/3/2
f 137/3/2 138/3/2 144/3/2
f 144/3/2 138/3/2 145/3/2
f 148/3/2 149/3/2 152/3/2
f 152/3/2 149/3/2 153/3/2
f 150/3/2 151/3/2 154/3/2
f 154/3/2 151/3/2 155/3/2
f 146/3/2 147/3/2 156/3/2
f 156/3/2 147/3/2 157/3/2
f 153/3/2 149/3/2 158/3/2
f 152/1/2 153/1/2 158/1/2
f 158/3/2 149/3/2 159/3/2
f 156/1/2 157/1/2 160/1/2
f 160/1/2 157/1/2 161/1/2
f 152/1/2 158/1/2 162/1/2
f 158/1/2 159/1/2 162/1/2
f 162/1/2 159/1/2 163/1/2
f 154/1/2 155/1/2 164/1/2
f 164/1/2 155/1/2 165/1/2
f 163/1/2 159/1/2 166/1/2
f 162/3/2 163/3/2 166/3/2
f 166/1/2 159/1/2 167/1/2
f 160/3/2 161/3/2 168/3/2
f 162/3/2 166/3/2 171/3/2
f 166/3/2 167/3/2 171/3/2
f 171/3/2 167/3/2 172/3/2
f 164/3/2 165/3/2 175/3/2
f 168/3/2 169/3/2 176/3/2
f 160/3/2 168/3/2 176/3/2
f 176/3/2 169/3/2 177/3/2
f 172/3/2 173/3/2 178/3/2
f 171/3/2 172/3/2 178/3/2
f 170/3/2 171/3/2 178/3/2
f 178/3/2 173/3/2 179/3/2
f 174/3/2 175/3/2 180/3/2
f 175/3/2 165/3/2 181/3/2
f 180/3/2 175/3/2 181/3/2
f 176/1/2 177/1/2 182/1/2
f 178/1/2 179/1/2 182/1/2
f 180/1/2 181/1/2 182/1/2
f 179/1/2 180/1/2 182/1/2
f 177/1/2 178/1/2 182/1/2
f 182/1/2 181/1/2 183/1/2
f 189/3/3 185/3/3 184/3/3
f 190/1/3 186/1/3 185/1/3
f 190/3/3 185/3/3 189/3/3
f 191/3/3 187/3/3 186/3/3
f 191/1/3 186/1/3 190/1/3
f 192/3/3 187/3/3 191/3/3
f 193/3/3 187/3/3 192/3/3
f 194/1/3 188/1/3 187/1/3
f 194/3/3 187/3/3 193/3/3
f 196/1/3 188/1/3 194/1/3
f 200/3/3 196/3/3 195/3/3
f 201/3/3 198/3/3 197/3/3
f 202/1/3 199/1/3 198/1/3
f 202/3/3 198/3/3 201/3/3
f 203/3/3 200/3/3 199/3/3
f 203/1/3 199/1/3 202/1/3
f 204/1/3 188/1/3 196/1/3
f 204/3/3 200/3/3 203/3/3
f 204/3/3 196/3/3 200/3/3
f 205/1/3 188/1/3 204/1/3
f 208/3/3 207/3/3 206/3/3
f 209/3/3 207/3/3 208/3/3
f 212/3/3 211/3/3 210/3/3
f 213/3/3 211/3/3 212/3/3
f 218/3/3 215/3/3 214/3/3
f 219/1/3 216/1/3 215/1/3
f 219/3/3 215/3/3 218/3/3
f 220/3/3 217/3/3 216/3/3
f 220/1/3 216/1/3 219/1/3
f 221/3/3 217/3/3 220/3/3
f 223/3/3 222/3/3 221/3/3
f 224/3/3 222/3/3 223/3/3
f 230/3/3 226/3/3 225/3/3
f 231/3/3 226/3/3 230/3/3
f 232/3/3 228/3/3 227/3/3
f 233/1/3 229/1/3 228/1/3
f 233/3/3 228/3/3 232/3/3
f 234/3/3 230/3/3 229/3/3
f 234/1/3 229/1/3 233/1/3
f 235/3/3 230/3/3 234/3/3
f 238/3/3 237/3/3 236/3/3
f 239/3/3 237/3/3 238/3/3
f 242/3/3 241/3/3 240/3/3
f 243/3/3 241/3/3 242/3/3
f 248/3/3 245/3/3 244/3/3
f 249/1/3 246/1/3 245/1/3
f 249/3/3 245/3/3 248/3/3
f 250/3/3 247/3/3 246/3/3
f 250/1/3 246/1/3 249/1/3
f 251/3/3 247/3/3 250/3/3
f 253/3/3 252/3/3 251/3/3
f 254/3/3 252/3/3 253/3/3
f 260/3/3 256/3/3 255/3/3
f 261/3/3 256/3/3 260/3/3
f 262/3/3 258/3/3 257/3/3
f 263/1/3 259/1/3 258/1/3
f 263/3/3 258/3/3 262/3/3
f 264/3/3 260/3/3 259/3/3
f 264/1/3 259/1/3 263/1/3
f 265/3/3 260/3/3 264/3/3
f 266/3/4 267/3/4 270/3/4
f 267/1/4 268/1/4 271/1/4
f 270/3/4 267/3/4 271/3/4
f 268/3/4 269/3/4 272/3/4
f 271/1/4 268/1/4 272/1/4
f 272/3/4 269/3/4 273/3/4
f 273/3/4 274/3/4 275/3/4
f 275/3/4 274/3/4 276/3/4
f 277/3/4 278/3/4 282/3/4
f 282/3/4 278/3/4 283/3/4
f 279/3/4 280/3/4 284/3/4
f 280/1/4 281/1/4 285/1/4
f 284/3/4 280/3/4 285/3/4
f 281/3/4 282/3/4 286/3/4
f 285/1/4 281/1/4 286/1/4
f 286/3/4 282/3/4 287/3/4
f 288/3/4 289/3/4 290/3/4
f 290/3/4 289/3/4 291/3/4
f 292/3/4 293/3/4 294/3/4
f 294/3/4 293/3/4 295/3/4
f 296/3/4 297/3/4 300/3/4
f 297/1/4 298/1/4 301/1/4
f 300/3/4 297/3/4 301/3/4
f 298/3/4 299/3/4 302/3/4
f 301/1/4 298/1/4 302/1/4
f 302/3/4 299/3/4 303/3/4
f 303/3/4 304/3/4 305/3/4
f 305/3/4 304/3/4 306/3/4
f 307/3/4 308/3/4 312/3/4
f 312/3/4 308/3/4 313/3/4
f 309/3/4 310/3/4 314/3/4
f 310/1/4 311/1/4 315/1/4
f 314/3/4 310/3/4 315/3/4
f 311/3/4 312/3/4 316/3/4
f 315/1/4 311/1/4 316/1/4
f 316/3/4 312/3/4 317/3/4
f 318/3/4 319/3/4 320/3/4
f 320/3/4 319/3/4 321/3/4
f 322/3/4 323/3/4 324/3/4
f 324/3/4 323/3/4 325/3/4
f 326/3/4 327/3/4 331/3/4
f 327/1/4 328/1/4 332/1/4
f 331/3/4 327/3/4 332/3/4
f 328/3/4 329/3/4 333/3/4
f 332/1/4 328/1/4 333/1/4
f 333/3/4 329/3/4 334/3/4
f 334/3/4 329/3/4 335/3/4
f 329/1/4 330/1/4 336/1/4
f 335/3/4 329/3/4 336/3/4
f 336/1/4 330/1/4 338/1/4
f 337/3/4 338/3/4 342/3/4
f 339/3/4 340/3/4 343/3/4
f 340/1/4 341/1/4 344/1/4
f 343/3/4 340/3/4 344/3/4
f 341/3/4 342/3/4 345/3/4
f 344/1/4 341/1/4 345/1/4
f 338/1/4 330/1/4 346/1/4
f 345/3/4 342/3/4 346/3/4
f 342/3/4 338/3/4 346/3/4
f 346/1/4 330/1/4 347/1/4
f 352/3/5 349/3/5 348/3/5
f 353/3/5 349/3/5 352/3/5
f 354/3/5 351/3/5 350/3/5
f 355/3/5 351/3/5 354/3/5
f 360/3/5 357/3/5 356/3/5
f 361/3/5 357/3/5 360/3/5
f 362/3/5 359/3/5 358/3/5
f 363/3/5 359/3/5 362/3/5
f 368/3/5 365/3/5 364/3/5
f 369/3/5 365/3/5 368/3/5
f 370/3/5 367/3/5 366/3/5
f 371/3/5 367/3/5 370/3/5
f 377/3/5 373/3/5 372/3/5
f 378/3/5 373/3/5 377/3/5
f 379/3/5 375/3/5 374/3/5
f 380/3/5 375/3/5 379/3/5
f 382/3/5 377/3/5 376/3/5
f 383/3/5 377/3/5 382/3/5
f 384/3/5 381/3/5 380/3/5
f 385/3/5 381/3/5 384/3/5
f 390/3/5 387/3/5 386/3/5
f 391/3/5 387/3/5 390/3/5
f 394/3/5 389/3/5 388/3/5
f 395/3/5 389/3/5 394/3/5
f 397/3/5 392/3/5 391/3/5
f 398/3/5 392/3/5 397/3/5
f 399/3/5 394/3/5 393/3/5
f 400/3/5 394/3/5 399/3/5
f 402/3/5 397/3/5 396/3/5
f 403/3/5 397/3/5 402/3/5
f 404/3/5 401/3/5 400/3/5
f 405/3/5 401/3/5 404/3/5
f 410/3/5 407/3/5 406/3/5
f 411/3/5 407/3/5 410/3/5
f 414/3/5 409/3/5 408/3/5
f 415/3/5 409/3/5 414/3/5
f 416/3/5 412/3/5 411/3/5
f 417/3/5 412/3/5 416/3/5
f 418/3/5 414/3/5 413/3/5
f 419/3/5 414/3/5 418/3/5
f 423/1/5 421/1/5 420/1/5
f 424/1/5 421/1/5 423/1/5
f 425/1/5 421/1/5 424/1/5
f 426/1/5 421/1/5 425/1/5
f 427/1/5 421/1/5 426/1/5
f 428/1/5 421/1/5 427/1/5
f 431/1/5 423/1/5 422/1/5
f 431/1/5 424/1/5 423/1/5
f 432/1/5 424/1/5 431/1/5
f 433/2/5 425/2/5 424/2/5
f 433/1/5 424/1/5 432/1/5
f 434/1/5 426/1/5 425/1/5
f 434/2/5 425/2/5 433/2/5
f 435/2/5 427/2/5 426/2/5
f 435/1/5 426/1/5 434/1/5
f 436/1/5 429/1/5 428/1/5
f 436/2/5 427/2/5 435/2/5
f 436/1/5 428/1/5 427/1/5
f 437/1/5 429/1/5 436/1/5
f 438/1/5 429/1/5 437/1/5
f 440/2/5 435/2/5 434/2/5
f 440/1/5 439/1/5 438/1/5
f 440/1/5 438/1/5 437/1/5
f 440/2/5 437/2/5 436/2/5
f 440/2/5 436/2/5 435/2/5
f 440/2/5 433/2/5 432/2/5
f 440/2/5 434/2/5 433/2/5
f 441/1/5 439/1/5 440/1/5
f 442/1/5 431/1/5 430/1/5
f 442/1/5 432/1/5 431/1/5
f 443/2/5 441/2/5 440/2/5
f 443/1/5 432/1/5 442/1/5
f 443/2/5 440/2/5 432/2/5
f 444/1/5 442/1/5 430/1/5
f 445/2/5 443/2/5 442/2/5
f 445/1/5 442/1/5 444/1/5
f 446/1/5 444/1/5 430/1/5
f 446/2/5 445/2/5 444/2/5
f 447/2/5 443/2/5 445/2/5
f 447/2/5 445/2/5 446/2/5
f 448/2/5 441/2/5 443/2/5
f 448/2/5 443/2/5 447/2/5
f 449/1/5 439/1/5 441/1/5
f 449/2/5 441/2/5 448/2/5
f 450/1/5 447/1/5 446/1/5
f 450/1/5 446/1/5 430/1/5
f 451/1/5 447/1/5 450/1/5
f 452/1/5 439/1/5 449/1/5
f 452/1/5 449/1/5 448/1/5
f 453/1/5 439/1/5 452/1/5
f 454/1/5 447/1/5 451/1/5
f 455/2/5 448/2/5 447/2/5
f 455/1/5 447/1/5 454/1/5
f 456/1/5 452/1/5 448/1/5
f 456/2/5 448/2/5 455/2/5
f 457/1/5 452/1/5 456/1/5
f 458/2/5 456/2/5 455/2/5
f 459/2/5 456/2/5 458/2/5
f 461/1/5 459/1/5 458/1/5
f 462/2/5 456/2/5 459/2/5
f 465/1/5 461/1/5 460/1/5
f 466/1/5 459/1/5 461/1/5
f 466/1/5 461/1/5 465/1/5
f 467/2/5 462/2/5 459/2/5
f 467/1/5 459/1/5 466/1/5
f 468/1/5 463/1/5 462/1/5
f 468/2/5 462/2/5 467/2/5
f 469/1/5 463/1/5 468/1/5
f 471/1/5 465/1/5 464/1/5
f 471/1/5 466/1/5 465/1/5
f 472/2/5 469/2/5 468/2/5
f 472/1/5 466/1/5 471/1/5
f 472/2/5 467/2/5 466/2/5
f 472/2/5 468/2/5 467/2/5
f 473/1/5 471/1/5 464/1/5
f 473/2/5 472/2/5 471/2/5
f 474/2/5 469/2/5 472/2/5
f 474/2/5 472/2/5 473/2/5
f 475/2/5 469/2/5 474/2/5
f 476/1/5 470/1/5 469/1/5
f 476/2/5 469/2/5 475/2/5
f 477/2/5 475/2/5 474/2/5
f 478/1/5 476/1/5 475/1/5
f 478/2/5 475/2/5 477/2/5
f 479/1/5 473/1/5 464/1/5
f 479/1/5 474/1/5 473/1/5
f 480/1/5 474/1/5 479/1/5
f 481/2/5 477/2/5 474/2/5
f 481/1/5 474/1/5 480/1/5
f 482/2/5 477/2/5 481/2/5
f 483/2/5 477/2/5 482/2/5
f 484/1/5 478/1/5 477/1/5
f 484/2/5 477/2/5 483/2/5
f 485/1/5 476/1/5 478/1/5
f 485/1/5 478/1/5 484/1/5
f 485/1/5 470/1/5 476/1/5
f 486/1/5 470/1/5 485/1/5
f 487/1/5 482/1/5 481/1/5
f 487/1/5 481/1/5 480/1/5
f 488/1/5 482/1/5 487/1/5
f 489/2/5 483/2/5 482/2/5
f 489/1/5 482/1/5 488/1/5
f 490/1/5 484/1/5 483/1/5
f 490/2/5 483/2/5 489/2/5
f 490/1/5 485/1/5 484/1/5
f 491/1/5 485/1/5 490/1/5
f 492/1/5 485/1/5 491/1/5
f 493/1/5 489/1/5 488/1/5
f 493/1/5 491/1/5 490/1/5
f 493/1/5 490/1/5 489/1/5
f 494/1/5 491/1/5 493/1/5
f 495/1/6 496/1/6 497/1/6
f 497/1/6 496/1/6 498/1/6
f 498/1/6 496/1/6 499/1/6
f 499/1/6 496/1/6 500/1/6
f 495/1/6 497/1/6 501/1/6
f 497/2/6 498/2/6 502/2/6
f 501/1/6 497/1/6 502/1/6
f 498/1/6 499/1/6 503/1/6
f 502/2/6 498/2/6 503/2/6
f 499/2/6 500/2/6 504/2/6
f 503/1/6 499/1/6 504/1/6
f 500/1/6 496/1/6 505/1/6
f 504/2/6 500/2/6 505/2/6
f 505/1/6 496/1/6 506/1/6
f 503/2/6 504/2/6 507/2/6
f 506/1/6 496/1/6 507/1/6
f 505/2/6 506/2/6 507/2/6
f 504/2/6 505/2/6 507/2/6
f 502/2/6 503/2/6 507/2/6
f 501/2/6 502/2/6 507/2/6
f 507/1/6 496/1/6 508/1/6
f 495/1/6 501/1/6 509/1/6
f 501/2/6 507/2/6 510/2/6
f 509/1/6 501/1/6 510/1/6
f 507/2/6 508/2/6 510/2/6
f 495/1/6 509/1/6 511/1/6
f 509/2/6 510/2/6 512/2/6
f 511/1/6 509/1/6 512/1/6
f 495/1/6 511/1/6 513/1/6
f 511/2/6 512/2/6 513/2/6
f 512/2/6 510/2/6 514/2/6
f 513/2/6 512/2/6 514/2/6
f 510/2/6 508/2/6 515/2/6
f 514/2/6 510/2/6 515/2/6
f 508/1/6 496/1/6 516/1/6
f 515/2/6 508/2/6 516/2/6
f 514/2/6 515/2/6 517/2/6
f 513/1/6 514/1/6 517/1/6
f 517/2/6 515/2/6 518/2/6
f 513/1/6 517/1/6 519/1/6
f 517/1/6 518/1/6 519/1/6
f 518/2/6 515/2/6 520/2/6
f 519/1/6 518/1/6 520/1/6
f 515/1/6 516/1/6 521/1/6
f 520/2/6 515/2/6 521/2/6
f 516/1/6 496/1/6 522/1/6
f 521/1/6 516/1/6 522/1/6
f 495/1/6 513/1/6 523/1/6
f 513/1/6 519/1/6 523/1/6
f 520/2/6 521/2/6 524/2/6
f 523/1/6 519/1/6 524/1/6
f 519/2/6 520/2/6 524/2/6
f 521/2/6 522/2/6 524/2/6
f 495/1/6 523/1/6 525/1/6
f 523/2/6 524/2/6 525/2/6
f 524/2/6 522/2/6 526/2/6
f 525/2/6 524/2/6 526/2/6
f 526/2/6 522/2/6 527/2/6
f 522/1/6 496/1/6 528/1/6
f 527/2/6 522/2/6 528/2/6
f 526/2/6 527/2/6 529/2/6
f 527/1/6 528/1/6 530/1/6
f 529/2/6 527/2/6 530/2/6
f 525/1/6 526/1/6 531/1/6
f 526/2/6 529/2/6 531/2/6
f 531/2/6 529/2/6 532/2/6
f 532/2/6 529/2/6 533/2/6
f 529/1/6 530/1/6 534/1/6
f 533/2/6 529/2/6 534/2/6
f 532/2/6 533/2/6 535/2/6
f 531/1/6 532/1/6 535/1/6
f 533/1/6 534/1/6 536/1/6
f 535/2/6 533/2/6 536/2/6
f 495/1/6 525/1/6 537/1/6
f 525/1/6 531/1/6 537/1/6
f 535/1/6 536/1/6 537/1/6
f 531/1/6 535/1/6 537/1/6
f 536/1/6 534/1/6 538/1/6
f 537/1/6 536/1/6 538/1/6
f 528/1/6 496/1/6 538/1/6
f 534/1/6 530/1/6 538/1/6
f 530/1/6 528/1/6 538/1/6
