# MagicaVoxel @ Ephtracy

# group
o 

# material
mtllib SmithingHouseCornerPillarTEX.mtl
usemtl palette

# normals
vn -1 0 0
vn 1 0 0
vn 0 0 1
vn 0 0 -1
vn 0 -1 0
vn 0 1 0

# texcoords
vt 0.958984 0.5
vt 0.962891 0.5
vt 0.982422 0.5

# verts
v 0 2 -0.1
v 0 2 -0.2
v 0 2 -0.3
v 0 2 -0.4
v 0 2.1 -0.3
v 0 2.1 -0.4
v 0 2.3 -0.1
v 0 2.3 -0.2
v 0 2.3 -0.4
v 0 3.5 -0.1
v 0 3.5 -0.2
v 0 3.5 -0.4
v 0 3.6 -0.1
v 0 3.6 -0.2
v 0 3.6 -0.3
v 0 3.6 -0.4
v 0 3.7 -0.1
v 0 3.7 -0.3
v 0 3.7 -0.4
v 0.1 2 0
v 0.1 2 -0.1
v 0.1 2 -0.4
v 0.1 2 -0.5
v 0.1 2.1 -0.4
v 0.1 2.2 0
v 0.1 2.2 -0.1
v 0.1 2.2 -0.4
v 0.1 2.2 -0.5
v 0.1 2.3 0
v 0.1 2.3 -0.1
v 0.1 2.3 -0.2
v 0.1 2.3 -0.3
v 0.1 2.3 -0.4
v 0.1 2.3 -0.5
v 0.1 2.4 -0.1
v 0.1 2.4 -0.3
v 0.1 2.4 -0.4
v 0.1 2.5 -0.2
v 0.1 2.5 -0.3
v 0.1 2.6 -0.3
v 0.1 2.6 -0.4
v 0.1 2.7 -0.1
v 0.1 2.7 -0.2
v 0.1 2.7 -0.3
v 0.1 2.7 -0.4
v 0.1 2.8 -0.3
v 0.1 2.8 -0.4
v 0.1 2.9 -0.2
v 0.1 2.9 -0.3
v 0.1 2.9 -0.4
v 0.1 3 -0.1
v 0.1 3 -0.2
v 0.1 3 -0.3
v 0.1 3 -0.4
v 0.1 3.1 -0.1
v 0.1 3.1 -0.2
v 0.1 3.2 -0.2
v 0.1 3.2 -0.3
v 0.1 3.3 -0.1
v 0.1 3.3 -0.2
v 0.1 3.3 -0.3
v 0.1 3.3 -0.4
v 0.1 3.4 -0.2
v 0.1 3.4 -0.3
v 0.1 3.5 0
v 0.1 3.5 -0.1
v 0.1 3.5 -0.2
v 0.1 3.5 -0.3
v 0.1 3.5 -0.4
v 0.1 3.5 -0.5
v 0.1 3.6 0
v 0.1 3.6 -0.1
v 0.1 3.6 -0.4
v 0.1 3.7 0
v 0.1 3.7 -0.1
v 0.1 3.7 -0.4
v 0.1 3.7 -0.5
v 0.4 2 -0.4
v 0.4 2 -0.5
v 0.4 2.2 -0.4
v 0.4 2.3 -0.1
v 0.4 2.3 -0.2
v 0.4 2.3 -0.3
v 0.4 2.3 -0.4
v 0.4 2.3 -0.5
v 0.4 2.4 -0.2
v 0.4 2.4 -0.3
v 0.4 2.6 -0.1
v 0.4 2.6 -0.3
v 0.4 2.7 -0.2
v 0.4 2.7 -0.3
v 0.4 2.8 -0.1
v 0.4 2.8 -0.2
v 0.4 2.9 -0.3
v 0.4 2.9 -0.4
v 0.4 3 -0.1
v 0.4 3 -0.3
v 0.4 3.1 -0.1
v 0.4 3.1 -0.3
v 0.4 3.2 -0.1
v 0.4 3.2 -0.2
v 0.4 3.2 -0.3
v 0.4 3.2 -0.4
v 0.4 3.3 -0.1
v 0.4 3.3 -0.2
v 0.4 3.4 -0.2
v 0.4 3.4 -0.3
v 0.4 3.5 -0.1
v 0.4 3.5 -0.3
v 0.4 3.5 -0.4
v 0.4 3.5 -0.5
v 0.4 3.6 -0.4
v 0.4 3.7 -0.4
v 0.4 3.7 -0.5
v 0.5 2 0
v 0.5 2 -0.1
v 0.5 2 -0.2
v 0.5 2 -0.4
v 0.5 2.1 0
v 0.5 2.1 -0.1
v 0.5 2.1 -0.2
v 0.5 2.2 0
v 0.5 2.2 -0.1
v 0.5 2.2 -0.4
v 0.5 2.3 0
v 0.5 2.3 -0.1
v 0.5 2.3 -0.4
v 0.5 3.5 0
v 0.5 3.5 -0.3
v 0.5 3.5 -0.4
v 0.5 3.6 0
v 0.5 3.6 -0.1
v 0.5 3.6 -0.3
v 0.5 3.6 -0.4
v 0.5 3.7 0
v 0.5 3.7 -0.1
v 0.5 3.7 -0.4
v 0.1 2 0
v 0.1 2.2 0
v 0.1 2.3 0
v 0.1 3.5 0
v 0.1 3.6 0
v 0.1 3.7 0
v 0.2 2 0
v 0.2 2.2 0
v 0.2 3.5 0
v 0.2 3.6 0
v 0.2 3.7 0
v 0.3 2.2 0
v 0.3 2.3 0
v 0.4 2.1 0
v 0.4 2.2 0
v 0.4 2.3 0
v 0.4 3.5 0
v 0.4 3.6 0
v 0.4 3.7 0
v 0.5 2 0
v 0.5 2.1 0
v 0.5 2.2 0
v 0.5 2.3 0
v 0.5 3.5 0
v 0.5 3.6 0
v 0.5 3.7 0
v 0 2 -0.1
v 0 2.3 -0.1
v 0 3.5 -0.1
v 0 3.6 -0.1
v 0 3.7 -0.1
v 0.1 2 -0.1
v 0.1 2.2 -0.1
v 0.1 2.3 -0.1
v 0.1 2.4 -0.1
v 0.1 2.7 -0.1
v 0.1 3 -0.1
v 0.1 3.1 -0.1
v 0.1 3.3 -0.1
v 0.1 3.5 -0.1
v 0.1 3.6 -0.1
v 0.1 3.7 -0.1
v 0.2 2.3 -0.1
v 0.2 2.4 -0.1
v 0.2 2.5 -0.1
v 0.2 3 -0.1
v 0.2 3.1 -0.1
v 0.2 3.3 -0.1
v 0.2 3.5 -0.1
v 0.3 2.3 -0.1
v 0.3 2.4 -0.1
v 0.3 2.5 -0.1
v 0.3 2.6 -0.1
v 0.3 2.7 -0.1
v 0.3 2.8 -0.1
v 0.3 3 -0.1
v 0.3 3.1 -0.1
v 0.3 3.2 -0.1
v 0.3 3.3 -0.1
v 0.4 2.3 -0.1
v 0.4 2.6 -0.1
v 0.4 2.8 -0.1
v 0.4 3 -0.1
v 0.4 3.1 -0.1
v 0.4 3.2 -0.1
v 0.4 3.3 -0.1
v 0.4 3.5 -0.1
v 0 2 -0.4
v 0 2.1 -0.4
v 0 2.3 -0.4
v 0 3.5 -0.4
v 0 3.6 -0.4
v 0 3.7 -0.4
v 0.1 2 -0.4
v 0.1 2.1 -0.4
v 0.1 2.2 -0.4
v 0.1 2.3 -0.4
v 0.1 2.4 -0.4
v 0.1 2.6 -0.4
v 0.1 2.7 -0.4
v 0.1 2.8 -0.4
v 0.1 2.9 -0.4
v 0.1 3 -0.4
v 0.1 3.3 -0.4
v 0.1 3.5 -0.4
v 0.1 3.6 -0.4
v 0.1 3.7 -0.4
v 0.2 2.3 -0.4
v 0.2 2.4 -0.4
v 0.2 2.5 -0.4
v 0.2 2.6 -0.4
v 0.2 2.7 -0.4
v 0.2 2.8 -0.4
v 0.2 2.9 -0.4
v 0.2 3.1 -0.4
v 0.2 3.3 -0.4
v 0.3 2.3 -0.4
v 0.3 2.5 -0.4
v 0.3 2.6 -0.4
v 0.3 2.7 -0.4
v 0.3 2.8 -0.4
v 0.3 2.9 -0.4
v 0.3 3 -0.4
v 0.3 3.1 -0.4
v 0.3 3.2 -0.4
v 0.3 3.3 -0.4
v 0.4 2 -0.4
v 0.4 2.2 -0.4
v 0.4 2.3 -0.4
v 0.4 2.9 -0.4
v 0.4 3.2 -0.4
v 0.4 3.5 -0.4
v 0.4 3.6 -0.4
v 0.4 3.7 -0.4
v 0.5 2 -0.4
v 0.5 2.2 -0.4
v 0.5 2.3 -0.4
v 0.5 3.5 -0.4
v 0.5 3.6 -0.4
v 0.5 3.7 -0.4
v 0.1 2 -0.5
v 0.1 2.2 -0.5
v 0.1 2.3 -0.5
v 0.1 3.5 -0.5
v 0.1 3.7 -0.5
v 0.2 2.1 -0.5
v 0.2 2.2 -0.5
v 0.2 3.6 -0.5
v 0.2 3.7 -0.5
v 0.3 2 -0.5
v 0.3 2.1 -0.5
v 0.3 3.6 -0.5
v 0.3 3.7 -0.5
v 0.4 2 -0.5
v 0.4 2.3 -0.5
v 0.4 3.5 -0.5
v 0.4 3.7 -0.5
v 0.1 2 0
v 0.2 2 0
v 0.5 2 0
v 0 2 -0.1
v 0.1 2 -0.1
v 0.2 2 -0.1
v 0.3 2 -0.1
v 0.4 2 -0.1
v 0.5 2 -0.1
v 0 2 -0.2
v 0.1 2 -0.2
v 0.3 2 -0.2
v 0.4 2 -0.2
v 0.5 2 -0.2
v 0 2 -0.3
v 0.1 2 -0.3
v 0.2 2 -0.3
v 0.3 2 -0.3
v 0.4 2 -0.3
v 0 2 -0.4
v 0.1 2 -0.4
v 0.2 2 -0.4
v 0.3 2 -0.4
v 0.4 2 -0.4
v 0.5 2 -0.4
v 0.1 2 -0.5
v 0.3 2 -0.5
v 0.4 2 -0.5
v 0.1 3.5 0
v 0.2 3.5 0
v 0.4 3.5 0
v 0.5 3.5 0
v 0 3.5 -0.1
v 0.1 3.5 -0.1
v 0.2 3.5 -0.1
v 0.4 3.5 -0.1
v 0 3.5 -0.2
v 0.1 3.5 -0.2
v 0.1 3.5 -0.3
v 0.4 3.5 -0.3
v 0.5 3.5 -0.3
v 0 3.5 -0.4
v 0.1 3.5 -0.4
v 0.4 3.5 -0.4
v 0.5 3.5 -0.4
v 0.1 3.5 -0.5
v 0.4 3.5 -0.5
v 0.1 2.3 0
v 0.3 2.3 0
v 0.4 2.3 0
v 0.5 2.3 0
v 0 2.3 -0.1
v 0.1 2.3 -0.1
v 0.2 2.3 -0.1
v 0.3 2.3 -0.1
v 0.4 2.3 -0.1
v 0.5 2.3 -0.1
v 0 2.3 -0.2
v 0.1 2.3 -0.2
v 0.4 2.3 -0.2
v 0.1 2.3 -0.3
v 0.4 2.3 -0.3
v 0 2.3 -0.4
v 0.1 2.3 -0.4
v 0.2 2.3 -0.4
v 0.3 2.3 -0.4
v 0.4 2.3 -0.4
v 0.5 2.3 -0.4
v 0.1 2.3 -0.5
v 0.4 2.3 -0.5
v 0.1 3.7 0
v 0.2 3.7 0
v 0.4 3.7 0
v 0.5 3.7 0
v 0 3.7 -0.1
v 0.1 3.7 -0.1
v 0.2 3.7 -0.1
v 0.3 3.7 -0.1
v 0.4 3.7 -0.1
v 0.5 3.7 -0.1
v 0.2 3.7 -0.2
v 0.3 3.7 -0.2
v 0 3.7 -0.3
v 0.2 3.7 -0.3
v 0.4 3.7 -0.3
v 0 3.7 -0.4
v 0.1 3.7 -0.4
v 0.3 3.7 -0.4
v 0.4 3.7 -0.4
v 0.5 3.7 -0.4
v 0.1 3.7 -0.5
v 0.2 3.7 -0.5
v 0.3 3.7 -0.5
v 0.4 3.7 -0.5

# faces
f 5/3/1 3/3/1 2/3/1
f 5/1/1 4/1/1 3/1/1
f 6/1/1 4/1/1 5/1/1
f 7/1/1 2/1/1 1/1/1
f 8/3/1 5/3/1 2/3/1
f 8/1/1 2/1/1 7/1/1
f 8/3/1 6/3/1 5/3/1
f 9/3/1 6/3/1 8/3/1
f 13/3/1 11/3/1 10/3/1
f 14/1/1 12/1/1 11/1/1
f 14/3/1 11/3/1 13/3/1
f 15/1/1 12/1/1 14/1/1
f 16/1/1 12/1/1 15/1/1
f 17/1/1 14/1/1 13/1/1
f 17/1/1 15/1/1 14/1/1
f 18/3/1 16/3/1 15/3/1
f 18/1/1 15/1/1 17/1/1
f 19/3/1 16/3/1 18/3/1
f 24/3/1 23/3/1 22/3/1
f 25/3/1 21/3/1 20/3/1
f 26/3/1 21/3/1 25/3/1
f 27/3/1 23/3/1 24/3/1
f 28/3/1 23/3/1 27/3/1
f 29/1/1 26/1/1 25/1/1
f 30/1/1 26/1/1 29/1/1
f 33/1/1 28/1/1 27/1/1
f 34/1/1 28/1/1 33/1/1
f 35/3/1 32/3/1 31/3/1
f 35/3/1 31/3/1 30/3/1
f 36/1/1 33/1/1 32/1/1
f 36/3/1 32/3/1 35/3/1
f 37/1/1 33/1/1 36/1/1
f 38/1/1 36/1/1 35/1/1
f 39/3/1 37/3/1 36/3/1
f 39/1/1 36/1/1 38/1/1
f 40/3/1 39/3/1 38/3/1
f 40/3/1 37/3/1 39/3/1
f 41/3/1 37/3/1 40/3/1
f 42/1/1 38/1/1 35/1/1
f 43/3/1 40/3/1 38/3/1
f 43/1/1 38/1/1 42/1/1
f 44/1/1 41/1/1 40/1/1
f 44/3/1 40/3/1 43/3/1
f 45/1/1 41/1/1 44/1/1
f 46/3/1 43/3/1 42/3/1
f 46/3/1 44/3/1 43/3/1
f 46/3/1 45/3/1 44/3/1
f 47/3/1 45/3/1 46/3/1
f 48/3/1 46/3/1 42/3/1
f 49/1/1 47/1/1 46/1/1
f 49/3/1 46/3/1 48/3/1
f 50/1/1 47/1/1 49/1/1
f 51/3/1 48/3/1 42/3/1
f 52/1/1 49/1/1 48/1/1
f 52/3/1 48/3/1 51/3/1
f 53/3/1 50/3/1 49/3/1
f 53/1/1 49/1/1 52/1/1
f 54/3/1 50/3/1 53/3/1
f 55/1/1 52/1/1 51/1/1
f 55/1/1 53/1/1 52/1/1
f 55/1/1 54/1/1 53/1/1
f 56/1/1 54/1/1 55/1/1
f 57/3/1 56/3/1 55/3/1
f 57/1/1 54/1/1 56/1/1
f 58/1/1 54/1/1 57/1/1
f 59/3/1 57/3/1 55/3/1
f 60/2/1 58/2/1 57/2/1
f 60/3/1 57/3/1 59/3/1
f 61/1/1 54/1/1 58/1/1
f 61/2/1 58/2/1 60/2/1
f 62/1/1 54/1/1 61/1/1
f 63/2/1 60/2/1 59/2/1
f 63/2/1 61/2/1 60/2/1
f 63/2/1 62/2/1 61/2/1
f 64/2/1 62/2/1 63/2/1
f 66/2/1 63/2/1 59/2/1
f 67/1/1 64/1/1 63/1/1
f 67/2/1 63/2/1 66/2/1
f 68/2/1 62/2/1 64/2/1
f 68/1/1 64/1/1 67/1/1
f 69/2/1 62/2/1 68/2/1
f 71/1/1 66/1/1 65/1/1
f 72/1/1 66/1/1 71/1/1
f 73/3/1 70/3/1 69/3/1
f 74/3/1 72/3/1 71/3/1
f 75/3/1 72/3/1 74/3/1
f 76/3/1 70/3/1 73/3/1
f 77/3/1 70/3/1 76/3/1
f 78/1/2 79/1/2 80/1/2
f 80/1/2 79/1/2 84/1/2
f 84/1/2 79/1/2 85/1/2
f 82/3/2 83/3/2 86/3/2
f 81/1/2 82/1/2 86/1/2
f 83/1/2 84/1/2 87/1/2
f 86/3/2 83/3/2 87/3/2
f 81/1/2 86/1/2 88/1/2
f 86/1/2 87/1/2 88/1/2
f 87/1/2 84/1/2 89/1/2
f 88/1/2 87/1/2 89/1/2
f 88/3/2 89/3/2 90/3/2
f 89/1/2 84/1/2 91/1/2
f 90/3/2 89/3/2 91/3/2
f 88/3/2 90/3/2 92/3/2
f 90/1/2 91/1/2 93/1/2
f 92/3/2 90/3/2 93/3/2
f 91/1/2 84/1/2 94/1/2
f 93/1/2 91/1/2 94/1/2
f 92/1/2 93/1/2 94/1/2
f 94/1/2 84/1/2 95/1/2
f 92/1/2 94/1/2 96/1/2
f 94/3/2 95/3/2 97/3/2
f 96/1/2 94/1/2 97/1/2
f 96/3/2 97/3/2 98/3/2
f 97/3/2 95/3/2 99/3/2
f 98/3/2 97/3/2 99/3/2
f 98/1/2 99/1/2 100/1/2
f 100/1/2 99/1/2 101/1/2
f 99/3/2 95/3/2 102/3/2
f 101/1/2 99/1/2 102/1/2
f 102/3/2 95/3/2 103/3/2
f 100/3/2 101/3/2 104/3/2
f 101/1/2 102/1/2 105/1/2
f 104/3/2 101/3/2 105/3/2
f 104/2/2 105/2/2 106/2/2
f 105/1/2 102/1/2 106/1/2
f 102/2/2 103/2/2 107/2/2
f 106/1/2 102/1/2 107/1/2
f 104/2/2 106/2/2 108/2/2
f 106/2/2 107/2/2 108/2/2
f 107/2/2 103/2/2 109/2/2
f 108/2/2 107/2/2 109/2/2
f 109/2/2 103/2/2 110/2/2
f 110/3/2 111/3/2 112/3/2
f 112/3/2 111/3/2 113/3/2
f 113/3/2 111/3/2 114/3/2
f 115/1/2 116/1/2 119/1/2
f 116/3/2 117/3/2 120/3/2
f 119/1/2 116/1/2 120/1/2
f 117/1/2 118/1/2 121/1/2
f 120/3/2 117/3/2 121/3/2
f 119/3/2 120/3/2 122/3/2
f 120/1/2 121/1/2 123/1/2
f 122/3/2 120/3/2 123/3/2
f 121/1/2 118/1/2 124/1/2
f 123/1/2 121/1/2 124/1/2
f 122/1/2 123/1/2 125/1/2
f 123/3/2 124/3/2 126/3/2
f 125/1/2 123/1/2 126/1/2
f 126/3/2 124/3/2 127/3/2
f 128/1/2 129/1/2 131/1/2
f 131/1/2 129/1/2 132/1/2
f 129/3/2 130/3/2 133/3/2
f 132/1/2 129/1/2 133/1/2
f 133/3/2 130/3/2 134/3/2
f 131/3/2 132/3/2 135/3/2
f 132/1/2 133/1/2 136/1/2
f 135/3/2 132/3/2 136/3/2
f 133/1/2 134/1/2 136/1/2
f 136/1/2 134/1/2 137/1/2
f 144/3/3 139/3/3 138/3/3
f 145/1/3 140/1/3 139/1/3
f 145/3/3 139/3/3 144/3/3
f 146/1/3 142/1/3 141/1/3
f 147/3/3 143/3/3 142/3/3
f 147/1/3 142/1/3 146/1/3
f 148/3/3 143/3/3 147/3/3
f 149/1/3 140/1/3 145/1/3
f 149/1/3 145/1/3 144/1/3
f 150/1/3 140/1/3 149/1/3
f 151/1/3 149/1/3 144/1/3
f 152/3/3 150/3/3 149/3/3
f 152/1/3 149/1/3 151/1/3
f 153/3/3 150/3/3 152/3/3
f 154/3/3 147/3/3 146/3/3
f 155/1/3 148/1/3 147/1/3
f 155/3/3 147/3/3 154/3/3
f 156/1/3 148/1/3 155/1/3
f 157/1/3 151/1/3 144/1/3
f 158/3/3 152/3/3 151/3/3
f 158/1/3 151/1/3 157/1/3
f 159/1/3 153/1/3 152/1/3
f 159/3/3 152/3/3 158/3/3
f 160/1/3 153/1/3 159/1/3
f 161/1/3 155/1/3 154/1/3
f 162/3/3 156/3/3 155/3/3
f 162/1/3 155/1/3 161/1/3
f 163/3/3 156/3/3 162/3/3
f 169/1/3 165/1/3 164/1/3
f 170/1/3 165/1/3 169/1/3
f 171/1/3 165/1/3 170/1/3
f 177/3/3 167/3/3 166/3/3
f 178/1/3 168/1/3 167/1/3
f 178/3/3 167/3/3 177/3/3
f 179/1/3 168/1/3 178/1/3
f 180/3/3 172/3/3 171/3/3
f 181/1/3 173/1/3 172/1/3
f 181/3/3 172/3/3 180/3/3
f 182/1/3 173/1/3 181/1/3
f 183/1/3 175/1/3 174/1/3
f 183/3/3 174/3/3 173/3/3
f 184/3/3 176/3/3 175/3/3
f 184/1/3 175/1/3 183/1/3
f 185/2/3 177/2/3 176/2/3
f 185/3/3 176/3/3 184/3/3
f 186/2/3 177/2/3 185/2/3
f 187/1/3 181/1/3 180/1/3
f 188/3/3 182/3/3 181/3/3
f 188/1/3 181/1/3 187/1/3
f 189/1/3 173/1/3 182/1/3
f 189/3/3 182/3/3 188/3/3
f 190/1/3 173/1/3 189/1/3
f 191/3/3 184/3/3 183/3/3
f 191/1/3 173/1/3 190/1/3
f 191/3/3 183/3/3 173/3/3
f 192/3/3 184/3/3 191/3/3
f 193/3/3 184/3/3 192/3/3
f 194/2/3 185/2/3 184/2/3
f 194/3/3 184/3/3 193/3/3
f 194/2/3 186/2/3 185/2/3
f 195/2/3 186/2/3 194/2/3
f 196/2/3 186/2/3 195/2/3
f 197/1/3 190/1/3 189/1/3
f 197/1/3 189/1/3 188/1/3
f 197/1/3 188/1/3 187/1/3
f 198/3/3 192/3/3 191/3/3
f 198/1/3 190/1/3 197/1/3
f 198/3/3 191/3/3 190/3/3
f 199/1/3 193/1/3 192/1/3
f 199/3/3 192/3/3 198/3/3
f 200/3/3 194/3/3 193/3/3
f 200/1/3 193/1/3 199/1/3
f 201/1/3 195/1/3 194/1/3
f 201/3/3 194/3/3 200/3/3
f 202/3/3 196/3/3 195/3/3
f 202/1/3 195/1/3 201/1/3
f 203/2/3 186/2/3 196/2/3
f 203/3/3 196/3/3 202/3/3
f 204/2/3 186/2/3 203/2/3
f 205/1/4 206/1/4 211/1/4
f 206/3/4 207/3/4 212/3/4
f 211/1/4 206/1/4 212/1/4
f 212/3/4 207/3/4 213/3/4
f 213/3/4 207/3/4 214/3/4
f 208/1/4 209/1/4 222/1/4
f 209/3/4 210/3/4 223/3/4
f 222/1/4 209/1/4 223/1/4
f 223/3/4 210/3/4 224/3/4
f 214/1/4 215/1/4 225/1/4
f 215/3/4 216/3/4 226/3/4
f 225/1/4 215/1/4 226/1/4
f 226/3/4 216/3/4 227/3/4
f 216/1/4 217/1/4 228/1/4
f 227/3/4 216/3/4 228/3/4
f 217/3/4 218/3/4 229/3/4
f 228/1/4 217/1/4 229/1/4
f 218/1/4 219/1/4 230/1/4
f 229/3/4 218/3/4 230/3/4
f 219/3/4 220/3/4 231/3/4
f 230/1/4 219/1/4 231/1/4
f 220/1/4 221/1/4 232/1/4
f 221/2/4 222/2/4 233/2/4
f 232/1/4 221/1/4 233/1/4
f 226/3/4 227/3/4 234/3/4
f 225/3/4 226/3/4 234/3/4
f 227/1/4 228/1/4 235/1/4
f 234/3/4 227/3/4 235/3/4
f 228/3/4 229/3/4 236/3/4
f 235/1/4 228/1/4 236/1/4
f 229/1/4 230/1/4 237/1/4
f 236/3/4 229/3/4 237/3/4
f 230/3/4 231/3/4 238/3/4
f 237/1/4 230/1/4 238/1/4
f 231/3/4 220/3/4 239/3/4
f 238/3/4 231/3/4 239/3/4
f 220/1/4 232/1/4 240/1/4
f 239/3/4 220/3/4 240/3/4
f 232/3/4 233/3/4 241/3/4
f 240/1/4 232/1/4 241/1/4
f 241/3/4 233/3/4 242/3/4
f 233/2/4 222/2/4 243/2/4
f 242/3/4 233/3/4 243/3/4
f 238/1/4 239/1/4 246/1/4
f 237/1/4 238/1/4 246/1/4
f 235/1/4 236/1/4 246/1/4
f 234/1/4 235/1/4 246/1/4
f 236/1/4 237/1/4 246/1/4
f 240/3/4 241/3/4 247/3/4
f 241/3/4 242/3/4 247/3/4
f 246/1/4 239/1/4 247/1/4
f 239/3/4 240/3/4 247/3/4
f 242/2/4 243/2/4 248/2/4
f 247/3/4 242/3/4 248/3/4
f 243/2/4 222/2/4 249/2/4
f 248/2/4 243/2/4 249/2/4
f 244/1/4 245/1/4 252/1/4
f 245/3/4 246/3/4 253/3/4
f 252/1/4 245/1/4 253/1/4
f 253/3/4 246/3/4 254/3/4
f 249/3/4 250/3/4 255/3/4
f 250/1/4 251/1/4 256/1/4
f 255/3/4 250/3/4 256/3/4
f 256/1/4 251/1/4 257/1/4
f 258/3/4 259/3/4 263/3/4
f 259/1/4 260/1/4 264/1/4
f 263/3/4 259/3/4 264/3/4
f 261/3/4 262/3/4 265/3/4
f 265/3/4 262/3/4 266/3/4
f 258/3/4 263/3/4 267/3/4
f 263/1/4 264/1/4 268/1/4
f 267/3/4 263/3/4 268/3/4
f 261/3/4 265/3/4 269/3/4
f 265/1/4 266/1/4 269/1/4
f 269/1/4 266/1/4 270/1/4
f 267/1/4 268/1/4 271/1/4
f 264/1/4 260/1/4 272/1/4
f 271/1/4 268/1/4 272/1/4
f 268/1/4 264/1/4 272/1/4
f 269/3/4 270/3/4 273/3/4
f 261/3/4 269/3/4 273/3/4
f 273/3/4 270/3/4 274/3/4
f 279/3/5 276/3/5 275/3/5
f 280/1/5 277/1/5 276/1/5
f 280/3/5 276/3/5 279/3/5
f 281/1/5 277/1/5 280/1/5
f 282/1/5 277/1/5 281/1/5
f 283/1/5 277/1/5 282/1/5
f 284/1/5 279/1/5 278/1/5
f 285/3/5 280/3/5 279/3/5
f 285/1/5 279/1/5 284/1/5
f 285/3/5 281/3/5 280/3/5
f 286/1/5 282/1/5 281/1/5
f 286/3/5 281/3/5 285/3/5
f 287/3/5 283/3/5 282/3/5
f 287/1/5 282/1/5 286/1/5
f 288/3/5 283/3/5 287/3/5
f 289/3/5 285/3/5 284/3/5
f 290/1/5 286/1/5 285/1/5
f 290/3/5 285/3/5 289/3/5
f 291/1/5 286/1/5 290/1/5
f 292/3/5 287/3/5 286/3/5
f 292/1/5 286/1/5 291/1/5
f 293/1/5 288/1/5 287/1/5
f 293/3/5 287/3/5 292/3/5
f 294/1/5 290/1/5 289/1/5
f 295/3/5 291/3/5 290/3/5
f 295/1/5 290/1/5 294/1/5
f 296/1/5 292/1/5 291/1/5
f 296/3/5 291/3/5 295/3/5
f 296/1/5 293/1/5 292/1/5
f 297/1/5 293/1/5 296/1/5
f 298/1/5 288/1/5 293/1/5
f 298/1/5 293/1/5 297/1/5
f 299/1/5 288/1/5 298/1/5
f 300/3/5 297/3/5 296/3/5
f 300/3/5 296/3/5 295/3/5
f 301/1/5 298/1/5 297/1/5
f 301/3/5 297/3/5 300/3/5
f 302/1/5 298/1/5 301/1/5
f 308/1/5 304/1/5 303/1/5
f 309/3/5 305/3/5 304/3/5
f 309/1/5 304/1/5 308/1/5
f 310/1/5 306/1/5 305/1/5
f 310/3/5 305/3/5 309/3/5
f 311/3/5 308/3/5 307/3/5
f 312/3/5 308/3/5 311/3/5
f 313/1/5 312/1/5 311/1/5
f 314/1/5 306/1/5 310/1/5
f 315/1/5 306/1/5 314/1/5
f 316/1/5 313/1/5 311/1/5
f 317/1/5 313/1/5 316/1/5
f 318/3/5 315/3/5 314/3/5
f 319/3/5 315/3/5 318/3/5
f 320/3/5 318/3/5 317/3/5
f 321/3/5 318/3/5 320/3/5
f 322/1/6 323/1/6 327/1/6
f 327/1/6 323/1/6 328/1/6
f 323/3/6 324/3/6 329/3/6
f 328/1/6 323/1/6 329/1/6
f 324/1/6 325/1/6 330/1/6
f 329/3/6 324/3/6 330/3/6
f 330/1/6 325/1/6 331/1/6
f 326/1/6 327/1/6 332/1/6
f 332/1/6 327/1/6 333/1/6
f 330/3/6 331/3/6 334/3/6
f 332/3/6 333/3/6 335/3/6
f 334/3/6 331/3/6 336/3/6
f 332/3/6 335/3/6 337/3/6
f 337/3/6 335/3/6 338/3/6
f 336/3/6 331/3/6 341/3/6
f 341/3/6 331/3/6 342/3/6
f 339/1/6 340/1/6 343/1/6
f 340/1/6 341/1/6 343/1/6
f 338/1/6 339/1/6 343/1/6
f 343/1/6 341/1/6 344/1/6
f 345/3/6 346/3/6 350/3/6
f 346/1/6 347/1/6 351/1/6
f 350/3/6 346/3/6 351/3/6
f 351/1/6 347/1/6 352/1/6
f 347/3/6 348/3/6 353/3/6
f 352/1/6 347/1/6 353/1/6
f 353/3/6 348/3/6 354/3/6
f 351/1/6 352/1/6 355/1/6
f 349/1/6 350/1/6 355/1/6
f 350/1/6 351/1/6 355/1/6
f 352/3/6 353/3/6 356/3/6
f 355/1/6 352/1/6 356/1/6
f 349/1/6 355/1/6 357/1/6
f 355/3/6 356/3/6 358/3/6
f 357/1/6 355/1/6 358/1/6
f 353/1/6 354/1/6 359/1/6
f 358/3/6 356/3/6 359/3/6
f 356/3/6 353/3/6 359/3/6
f 357/3/6 358/3/6 360/3/6
f 360/3/6 358/3/6 361/3/6
f 358/1/6 359/1/6 362/1/6
f 359/1/6 354/1/6 363/1/6
f 362/1/6 359/1/6 363/1/6
f 363/1/6 354/1/6 364/1/6
f 361/3/6 358/3/6 365/3/6
f 358/1/6 362/1/6 366/1/6
f 365/3/6 358/3/6 366/3/6
f 362/3/6 363/3/6 367/3/6
f 366/1/6 362/1/6 367/1/6
f 367/3/6 363/3/6 368/3/6
