# MagicaVoxel @ Ephtracy

# group
o 

# material
mtllib SmithingHouseTitle.mtl
usemtl palette

# normals
vn -1 0 0
vn 1 0 0
vn 0 0 1
vn 0 0 -1
vn 0 -1 0
vn 0 1 0

# texcoords
vt 0.369141 0.5
vt 0.373047 0.5
vt 0.537109 0.5

# verts
v 0 2 -0.1
v 0 2 -2.3
v 0 2.1 0
v 0 2.1 -0.1
v 0 2.1 -2.3
v 0 2.1 -2.4
v 0 2.5 0
v 0 2.5 -0.1
v 0 2.5 -2.3
v 0 2.5 -2.4
v 0 2.6 -0.1
v 0 2.6 -2.3
v 0.1 2 -0.1
v 0.1 2 -0.2
v 0.1 2 -2.2
v 0.1 2 -2.3
v 0.1 2.1 0
v 0.1 2.1 -0.1
v 0.1 2.1 -0.2
v 0.1 2.1 -2.2
v 0.1 2.1 -2.3
v 0.1 2.1 -2.4
v 0.1 2.2 0
v 0.1 2.2 -0.1
v 0.1 2.2 -2.3
v 0.1 2.2 -2.4
v 0.1 2.4 0
v 0.1 2.4 -0.1
v 0.1 2.4 -2.3
v 0.1 2.4 -2.4
v 0.1 2.5 0
v 0.1 2.5 -0.1
v 0.1 2.5 -0.2
v 0.1 2.5 -2.2
v 0.1 2.5 -2.3
v 0.1 2.5 -2.4
v 0.1 2.6 -0.1
v 0.1 2.6 -0.2
v 0.1 2.6 -2.2
v 0.1 2.6 -2.3
v 0.2 2 -0.2
v 0.2 2 -0.4
v 0.2 2 -0.5
v 0.2 2 -0.6
v 0.2 2 -1.1
v 0.2 2 -1.5
v 0.2 2 -1.7
v 0.2 2 -1.9
v 0.2 2 -2.2
v 0.2 2.1 -0.1
v 0.2 2.1 -0.2
v 0.2 2.1 -0.8
v 0.2 2.1 -1
v 0.2 2.1 -1.2
v 0.2 2.1 -1.4
v 0.2 2.1 -1.5
v 0.2 2.1 -1.6
v 0.2 2.1 -1.7
v 0.2 2.1 -1.9
v 0.2 2.1 -2.1
v 0.2 2.1 -2.2
v 0.2 2.1 -2.3
v 0.2 2.2 0
v 0.2 2.2 -0.1
v 0.2 2.2 -0.2
v 0.2 2.2 -0.3
v 0.2 2.2 -0.4
v 0.2 2.2 -0.5
v 0.2 2.2 -0.6
v 0.2 2.2 -0.7
v 0.2 2.2 -1
v 0.2 2.2 -1.1
v 0.2 2.2 -1.2
v 0.2 2.2 -1.4
v 0.2 2.2 -1.6
v 0.2 2.2 -1.7
v 0.2 2.2 -1.8
v 0.2 2.2 -1.9
v 0.2 2.2 -2
v 0.2 2.2 -2.1
v 0.2 2.2 -2.2
v 0.2 2.2 -2.3
v 0.2 2.2 -2.4
v 0.2 2.3 -0.1
v 0.2 2.3 -0.2
v 0.2 2.3 -0.3
v 0.2 2.3 -0.4
v 0.2 2.3 -0.7
v 0.2 2.3 -0.8
v 0.2 2.3 -0.9
v 0.2 2.3 -1.1
v 0.2 2.3 -1.2
v 0.2 2.3 -1.3
v 0.2 2.3 -1.7
v 0.2 2.3 -1.8
v 0.2 2.3 -2
v 0.2 2.3 -2.1
v 0.2 2.3 -2.2
v 0.2 2.3 -2.3
v 0.2 2.4 0
v 0.2 2.4 -0.1
v 0.2 2.4 -0.2
v 0.2 2.4 -0.3
v 0.2 2.4 -0.5
v 0.2 2.4 -0.7
v 0.2 2.4 -1
v 0.2 2.4 -1.1
v 0.2 2.4 -1.2
v 0.2 2.4 -1.3
v 0.2 2.4 -1.4
v 0.2 2.4 -1.6
v 0.2 2.4 -1.7
v 0.2 2.4 -1.8
v 0.2 2.4 -2
v 0.2 2.4 -2.1
v 0.2 2.4 -2.3
v 0.2 2.4 -2.4
v 0.2 2.5 -0.1
v 0.2 2.5 -0.2
v 0.2 2.5 -0.3
v 0.2 2.5 -0.4
v 0.2 2.5 -0.5
v 0.2 2.5 -1.1
v 0.2 2.5 -1.3
v 0.2 2.5 -1.4
v 0.2 2.5 -1.6
v 0.2 2.5 -1.8
v 0.2 2.5 -1.9
v 0.2 2.5 -2.2
v 0.2 2.5 -2.3
v 0.2 2.6 -0.2
v 0.2 2.6 -0.4
v 0.2 2.6 -0.7
v 0.2 2.6 -0.9
v 0.2 2.6 -1
v 0.2 2.6 -1.3
v 0.2 2.6 -1.4
v 0.2 2.6 -1.7
v 0.2 2.6 -1.8
v 0.2 2.6 -1.9
v 0.2 2.6 -2
v 0.2 2.6 -2.1
v 0.2 2.6 -2.2
v 0 2.1 0
v 0 2.5 0
v 0.1 2.1 0
v 0.1 2.2 0
v 0.1 2.4 0
v 0.1 2.5 0
v 0.2 2.2 0
v 0.2 2.4 0
v 0 2 -0.1
v 0 2.1 -0.1
v 0 2.5 -0.1
v 0 2.6 -0.1
v 0.1 2 -0.1
v 0.1 2.1 -0.1
v 0.1 2.2 -0.1
v 0.1 2.4 -0.1
v 0.1 2.5 -0.1
v 0.1 2.6 -0.1
v 0.2 2.1 -0.1
v 0.2 2.2 -0.1
v 0.2 2.4 -0.1
v 0.2 2.5 -0.1
v 0.1 2 -0.2
v 0.1 2.1 -0.2
v 0.1 2.5 -0.2
v 0.1 2.6 -0.2
v 0.2 2 -0.2
v 0.2 2.1 -0.2
v 0.2 2.5 -0.2
v 0.2 2.6 -0.2
v 0.1 2 -2.2
v 0.1 2.1 -2.2
v 0.1 2.5 -2.2
v 0.1 2.6 -2.2
v 0.2 2 -2.2
v 0.2 2.1 -2.2
v 0.2 2.5 -2.2
v 0.2 2.6 -2.2
v 0 2 -2.3
v 0 2.1 -2.3
v 0 2.5 -2.3
v 0 2.6 -2.3
v 0.1 2 -2.3
v 0.1 2.1 -2.3
v 0.1 2.2 -2.3
v 0.1 2.4 -2.3
v 0.1 2.5 -2.3
v 0.1 2.6 -2.3
v 0.2 2.1 -2.3
v 0.2 2.2 -2.3
v 0.2 2.4 -2.3
v 0.2 2.5 -2.3
v 0 2.1 -2.4
v 0 2.5 -2.4
v 0.1 2.1 -2.4
v 0.1 2.2 -2.4
v 0.1 2.4 -2.4
v 0.1 2.5 -2.4
v 0.2 2.2 -2.4
v 0.2 2.4 -2.4
v 0 2 -0.1
v 0.1 2 -0.1
v 0.1 2 -0.2
v 0.2 2 -0.2
v 0.1 2 -0.4
v 0.2 2 -0.4
v 0.1 2 -0.5
v 0.2 2 -0.5
v 0.1 2 -0.6
v 0.2 2 -0.6
v 0.1 2 -1.1
v 0.2 2 -1.1
v 0.1 2 -1.5
v 0.2 2 -1.5
v 0.1 2 -1.7
v 0.2 2 -1.7
v 0.1 2 -1.9
v 0.2 2 -1.9
v 0.1 2 -2.2
v 0.2 2 -2.2
v 0 2 -2.3
v 0.1 2 -2.3
v 0 2.1 0
v 0.1 2.1 0
v 0 2.1 -0.1
v 0.1 2.1 -0.1
v 0.2 2.1 -0.1
v 0.1 2.1 -0.2
v 0.2 2.1 -0.2
v 0.1 2.1 -2.2
v 0.2 2.1 -2.2
v 0 2.1 -2.3
v 0.1 2.1 -2.3
v 0.2 2.1 -2.3
v 0 2.1 -2.4
v 0.1 2.1 -2.4
v 0.1 2.2 0
v 0.2 2.2 0
v 0.1 2.2 -0.1
v 0.2 2.2 -0.1
v 0.1 2.2 -2.3
v 0.2 2.2 -2.3
v 0.1 2.2 -2.4
v 0.2 2.2 -2.4
v 0.1 2.4 0
v 0.2 2.4 0
v 0.1 2.4 -0.1
v 0.2 2.4 -0.1
v 0.1 2.4 -2.3
v 0.2 2.4 -2.3
v 0.1 2.4 -2.4
v 0.2 2.4 -2.4
v 0 2.5 0
v 0.1 2.5 0
v 0 2.5 -0.1
v 0.1 2.5 -0.1
v 0.2 2.5 -0.1
v 0.1 2.5 -0.2
v 0.2 2.5 -0.2
v 0.1 2.5 -2.2
v 0.2 2.5 -2.2
v 0 2.5 -2.3
v 0.1 2.5 -2.3
v 0.2 2.5 -2.3
v 0 2.5 -2.4
v 0.1 2.5 -2.4
v 0 2.6 -0.1
v 0.1 2.6 -0.1
v 0.1 2.6 -0.2
v 0.2 2.6 -0.2
v 0.1 2.6 -0.4
v 0.2 2.6 -0.4
v 0.1 2.6 -0.7
v 0.2 2.6 -0.7
v 0.1 2.6 -0.9
v 0.2 2.6 -0.9
v 0.1 2.6 -1
v 0.2 2.6 -1
v 0.1 2.6 -1.3
v 0.2 2.6 -1.3
v 0.1 2.6 -1.4
v 0.2 2.6 -1.4
v 0.1 2.6 -1.7
v 0.2 2.6 -1.7
v 0.1 2.6 -1.8
v 0.2 2.6 -1.8
v 0.1 2.6 -1.9
v 0.2 2.6 -1.9
v 0.1 2.6 -2
v 0.2 2.6 -2
v 0.1 2.6 -2.1
v 0.2 2.6 -2.1
v 0.1 2.6 -2.2
v 0.2 2.6 -2.2
v 0 2.6 -2.3
v 0.1 2.6 -2.3

# faces
f 4/3/1 2/3/1 1/3/1
f 5/3/1 2/3/1 4/3/1
f 7/3/1 4/3/1 3/3/1
f 7/3/1 6/3/1 5/3/1
f 7/3/1 5/3/1 4/3/1
f 8/3/1 6/3/1 7/3/1
f 9/3/1 6/3/1 8/3/1
f 10/3/1 6/3/1 9/3/1
f 11/3/1 9/3/1 8/3/1
f 12/3/1 9/3/1 11/3/1
f 13/3/2 14/3/2 18/3/2
f 18/3/2 14/3/2 19/3/2
f 15/3/2 16/3/2 20/3/2
f 20/3/2 16/3/2 21/3/2
f 17/3/2 18/3/2 23/3/2
f 23/3/2 18/3/2 24/3/2
f 21/3/2 22/3/2 25/3/2
f 25/3/2 22/3/2 26/3/2
f 27/3/2 28/3/2 31/3/2
f 31/3/2 28/3/2 32/3/2
f 29/3/2 30/3/2 35/3/2
f 35/3/2 30/3/2 36/3/2
f 32/3/2 33/3/2 37/3/2
f 37/3/2 33/3/2 38/3/2
f 34/3/2 35/3/2 39/3/2
f 39/3/2 35/3/2 40/3/2
f 41/2/2 42/2/2 51/2/2
f 44/1/2 45/1/2 52/1/2
f 52/1/2 45/1/2 53/1/2
f 45/2/2 46/2/2 54/2/2
f 54/2/2 46/2/2 55/2/2
f 46/1/2 47/1/2 56/1/2
f 55/2/2 46/2/2 56/2/2
f 56/1/2 47/1/2 57/1/2
f 47/2/2 48/2/2 58/2/2
f 57/1/2 47/1/2 58/1/2
f 48/1/2 49/1/2 59/1/2
f 58/2/2 48/2/2 59/2/2
f 59/1/2 49/1/2 60/1/2
f 60/1/2 49/1/2 61/1/2
f 50/1/2 51/1/2 64/1/2
f 51/2/2 42/2/2 65/2/2
f 64/1/2 51/1/2 65/1/2
f 65/2/2 42/2/2 66/2/2
f 42/1/2 43/1/2 67/1/2
f 66/2/2 42/2/2 67/2/2
f 43/2/2 44/2/2 68/2/2
f 67/1/2 43/1/2 68/1/2
f 44/1/2 52/1/2 69/1/2
f 68/2/2 44/2/2 69/2/2
f 69/1/2 52/1/2 70/1/2
f 53/1/2 45/1/2 71/1/2
f 52/2/2 53/2/2 71/2/2
f 45/2/2 54/2/2 72/2/2
f 71/1/2 45/1/2 72/1/2
f 54/1/2 55/1/2 73/1/2
f 72/2/2 54/2/2 73/2/2
f 56/2/2 57/2/2 74/2/2
f 73/1/2 55/1/2 74/1/2
f 55/2/2 56/2/2 74/2/2
f 57/1/2 58/1/2 75/1/2
f 74/2/2 57/2/2 75/2/2
f 58/1/2 59/1/2 75/1/2
f 75/1/2 59/1/2 76/1/2
f 76/1/2 59/1/2 77/1/2
f 59/2/2 60/2/2 78/2/2
f 77/1/2 59/1/2 78/1/2
f 78/2/2 60/2/2 79/2/2
f 61/1/2 62/1/2 80/1/2
f 79/2/2 60/2/2 80/2/2
f 60/1/2 61/1/2 80/1/2
f 80/1/2 62/1/2 81/1/2
f 81/1/2 62/1/2 82/1/2
f 65/1/2 66/1/2 84/1/2
f 63/1/2 64/1/2 84/1/2
f 64/1/2 65/1/2 84/1/2
f 84/1/2 66/1/2 85/1/2
f 66/2/2 67/2/2 86/2/2
f 85/1/2 66/1/2 86/1/2
f 67/2/2 68/2/2 86/2/2
f 69/2/2 70/2/2 86/2/2
f 68/2/2 69/2/2 86/2/2
f 86/2/2 70/2/2 87/2/2
f 70/1/2 52/1/2 88/1/2
f 87/2/2 70/2/2 88/2/2
f 73/2/2 74/2/2 89/2/2
f 88/1/2 52/1/2 89/1/2
f 71/2/2 72/2/2 89/2/2
f 72/2/2 73/2/2 89/2/2
f 52/2/2 71/2/2 89/2/2
f 89/2/2 74/2/2 90/2/2
f 90/2/2 74/2/2 91/2/2
f 91/2/2 74/2/2 92/2/2
f 92/2/2 74/2/2 93/2/2
f 74/1/2 75/1/2 94/1/2
f 75/1/2 76/1/2 94/1/2
f 76/2/2 77/2/2 94/2/2
f 78/1/2 79/1/2 95/1/2
f 94/2/2 77/2/2 95/2/2
f 77/1/2 78/1/2 95/1/2
f 79/2/2 80/2/2 96/2/2
f 95/1/2 79/1/2 96/1/2
f 80/2/2 81/2/2 96/2/2
f 96/2/2 81/2/2 97/2/2
f 82/1/2 83/1/2 98/1/2
f 97/2/2 81/2/2 98/2/2
f 81/1/2 82/1/2 98/1/2
f 98/1/2 83/1/2 99/1/2
f 63/1/2 84/1/2 100/1/2
f 84/2/2 85/2/2 101/2/2
f 100/1/2 84/1/2 101/1/2
f 86/1/2 87/1/2 102/1/2
f 101/2/2 85/2/2 102/2/2
f 85/1/2 86/1/2 102/1/2
f 102/1/2 87/1/2 103/1/2
f 87/2/2 88/2/2 104/2/2
f 89/2/2 90/2/2 104/2/2
f 88/2/2 89/2/2 104/2/2
f 104/2/2 90/2/2 105/2/2
f 90/1/2 91/1/2 106/1/2
f 91/2/2 92/2/2 107/2/2
f 106/1/2 91/1/2 107/1/2
f 92/1/2 93/1/2 108/1/2
f 107/2/2 92/2/2 108/2/2
f 93/2/2 74/2/2 109/2/2
f 108/1/2 93/1/2 109/1/2
f 74/1/2 94/1/2 110/1/2
f 109/2/2 74/2/2 110/2/2
f 94/1/2 95/1/2 110/1/2
f 110/1/2 95/1/2 111/1/2
f 111/1/2 95/1/2 112/1/2
f 95/2/2 96/2/2 113/2/2
f 112/1/2 95/1/2 113/1/2
f 96/1/2 97/1/2 114/1/2
f 113/2/2 96/2/2 114/2/2
f 98/2/2 99/2/2 115/2/2
f 114/1/2 97/1/2 115/1/2
f 97/2/2 98/2/2 115/2/2
f 99/1/2 83/1/2 116/1/2
f 115/2/2 99/2/2 116/2/2
f 116/1/2 83/1/2 117/1/2
f 102/2/2 103/2/2 118/2/2
f 101/2/2 102/2/2 118/2/2
f 118/2/2 103/2/2 119/2/2
f 103/1/2 87/1/2 120/1/2
f 119/2/2 103/2/2 120/2/2
f 87/2/2 104/2/2 121/2/2
f 120/1/2 87/1/2 121/1/2
f 104/1/2 105/1/2 122/1/2
f 121/2/2 104/2/2 122/2/2
f 108/1/2 109/1/2 123/1/2
f 107/1/2 108/1/2 123/1/2
f 106/2/2 107/2/2 123/2/2
f 109/1/2 110/1/2 123/1/2
f 110/1/2 111/1/2 123/1/2
f 123/1/2 111/1/2 124/1/2
f 124/1/2 111/1/2 125/1/2
f 111/2/2 112/2/2 126/2/2
f 125/1/2 111/1/2 126/1/2
f 112/1/2 113/1/2 127/1/2
f 113/1/2 114/1/2 127/1/2
f 127/1/2 114/1/2 128/1/2
f 115/1/2 116/1/2 129/1/2
f 129/1/2 116/1/2 130/1/2
f 120/2/2 121/2/2 131/2/2
f 119/2/2 120/2/2 131/2/2
f 121/1/2 122/1/2 132/1/2
f 131/2/2 121/2/2 132/2/2
f 122/1/2 105/1/2 133/1/2
f 132/1/2 122/1/2 133/1/2
f 105/2/2 90/2/2 133/2/2
f 90/1/2 106/1/2 134/1/2
f 133/2/2 90/2/2 134/2/2
f 106/2/2 123/2/2 135/2/2
f 134/1/2 106/1/2 135/1/2
f 123/2/2 124/2/2 135/2/2
f 124/1/2 125/1/2 136/1/2
f 135/2/2 124/2/2 136/2/2
f 125/2/2 126/2/2 137/2/2
f 136/1/2 125/1/2 137/1/2
f 126/2/2 112/2/2 138/2/2
f 137/2/2 126/2/2 138/2/2
f 112/1/2 127/1/2 138/1/2
f 127/2/2 128/2/2 139/2/2
f 138/1/2 127/1/2 139/1/2
f 128/1/2 114/1/2 140/1/2
f 139/2/2 128/2/2 140/2/2
f 114/2/2 115/2/2 141/2/2
f 140/1/2 114/1/2 141/1/2
f 115/1/2 129/1/2 142/1/2
f 141/2/2 115/2/2 142/2/2
f 142/1/2 129/1/2 143/1/2
f 146/3/3 145/3/3 144/3/3
f 147/3/3 145/3/3 146/3/3
f 148/3/3 145/3/3 147/3/3
f 149/3/3 145/3/3 148/3/3
f 150/1/3 148/1/3 147/1/3
f 151/1/3 148/1/3 150/1/3
f 156/3/3 153/3/3 152/3/3
f 157/3/3 153/3/3 156/3/3
f 160/3/3 155/3/3 154/3/3
f 161/3/3 155/3/3 160/3/3
f 162/1/3 158/1/3 157/1/3
f 163/1/3 158/1/3 162/1/3
f 164/2/3 160/2/3 159/2/3
f 165/2/3 160/2/3 164/2/3
f 170/2/3 167/2/3 166/2/3
f 171/2/3 167/2/3 170/2/3
f 172/2/3 169/2/3 168/2/3
f 173/2/3 169/2/3 172/2/3
f 174/1/4 175/1/4 178/1/4
f 178/1/4 175/1/4 179/1/4
f 176/1/4 177/1/4 180/1/4
f 180/1/4 177/1/4 181/1/4
f 182/3/4 183/3/4 186/3/4
f 186/3/4 183/3/4 187/3/4
f 184/3/4 185/3/4 190/3/4
f 190/3/4 185/3/4 191/3/4
f 187/1/4 188/1/4 192/1/4
f 192/1/4 188/1/4 193/1/4
f 189/1/4 190/1/4 194/1/4
f 194/1/4 190/1/4 195/1/4
f 196/3/4 197/3/4 198/3/4
f 198/3/4 197/3/4 199/3/4
f 199/3/4 197/3/4 200/3/4
f 200/3/4 197/3/4 201/3/4
f 199/1/4 200/1/4 202/1/4
f 202/1/4 200/1/4 203/1/4
f 206/3/5 205/3/5 204/3/5
f 208/3/5 206/3/5 204/3/5
f 208/2/5 207/2/5 206/2/5
f 209/2/5 207/2/5 208/2/5
f 210/3/5 208/3/5 204/3/5
f 210/1/5 209/1/5 208/1/5
f 211/1/5 209/1/5 210/1/5
f 212/3/5 210/3/5 204/3/5
f 212/2/5 211/2/5 210/2/5
f 213/2/5 211/2/5 212/2/5
f 214/3/5 212/3/5 204/3/5
f 214/1/5 213/1/5 212/1/5
f 215/1/5 213/1/5 214/1/5
f 216/3/5 214/3/5 204/3/5
f 216/2/5 215/2/5 214/2/5
f 217/2/5 215/2/5 216/2/5
f 218/3/5 216/3/5 204/3/5
f 218/1/5 217/1/5 216/1/5
f 219/1/5 217/1/5 218/1/5
f 220/3/5 218/3/5 204/3/5
f 220/2/5 219/2/5 218/2/5
f 221/2/5 219/2/5 220/2/5
f 222/3/5 220/3/5 204/3/5
f 222/1/5 221/1/5 220/1/5
f 223/1/5 221/1/5 222/1/5
f 224/3/5 222/3/5 204/3/5
f 225/3/5 222/3/5 224/3/5
f 228/3/5 227/3/5 226/3/5
f 229/3/5 227/3/5 228/3/5
f 231/1/5 230/1/5 229/1/5
f 232/1/5 230/1/5 231/1/5
f 236/1/5 234/1/5 233/1/5
f 237/1/5 234/1/5 236/1/5
f 238/3/5 236/3/5 235/3/5
f 239/3/5 236/3/5 238/3/5
f 242/1/5 241/1/5 240/1/5
f 243/1/5 241/1/5 242/1/5
f 246/1/5 245/1/5 244/1/5
f 247/1/5 245/1/5 246/1/5
f 248/1/6 249/1/6 250/1/6
f 250/1/6 249/1/6 251/1/6
f 252/1/6 253/1/6 254/1/6
f 254/1/6 253/1/6 255/1/6
f 256/3/6 257/3/6 258/3/6
f 258/3/6 257/3/6 259/3/6
f 259/2/6 260/2/6 261/2/6
f 261/2/6 260/2/6 262/2/6
f 263/1/6 264/1/6 266/1/6
f 266/1/6 264/1/6 267/1/6
f 265/3/6 266/3/6 268/3/6
f 268/3/6 266/3/6 269/3/6
f 270/3/6 271/3/6 272/3/6
f 270/3/6 272/3/6 274/3/6
f 272/2/6 273/2/6 274/2/6
f 274/2/6 273/2/6 275/2/6
f 270/3/6 274/3/6 276/3/6
f 274/1/6 275/1/6 276/1/6
f 276/1/6 275/1/6 277/1/6
f 270/3/6 276/3/6 278/3/6
f 276/2/6 277/2/6 278/2/6
f 278/2/6 277/2/6 279/2/6
f 270/3/6 278/3/6 280/3/6
f 278/1/6 279/1/6 280/1/6
f 280/1/6 279/1/6 281/1/6
f 270/3/6 280/3/6 282/3/6
f 280/2/6 281/2/6 282/2/6
f 282/2/6 281/2/6 283/2/6
f 270/3/6 282/3/6 284/3/6
f 282/1/6 283/1/6 284/1/6
f 284/1/6 283/1/6 285/1/6
f 270/3/6 284/3/6 286/3/6
f 284/2/6 285/2/6 286/2/6
f 286/2/6 285/2/6 287/2/6
f 270/3/6 286/3/6 288/3/6
f 286/1/6 287/1/6 288/1/6
f 288/1/6 287/1/6 289/1/6
f 270/3/6 288/3/6 290/3/6
f 288/2/6 289/2/6 290/2/6
f 290/2/6 289/2/6 291/2/6
f 270/3/6 290/3/6 292/3/6
f 290/1/6 291/1/6 292/1/6
f 292/1/6 291/1/6 293/1/6
f 270/3/6 292/3/6 294/3/6
f 292/2/6 293/2/6 294/2/6
f 294/2/6 293/2/6 295/2/6
f 270/3/6 294/3/6 296/3/6
f 294/1/6 295/1/6 296/1/6
f 296/1/6 295/1/6 297/1/6
f 270/3/6 296/3/6 298/3/6
f 298/3/6 296/3/6 299/3/6
