# MagicaVoxel @ Ephtracy

# group
o 

# material
mtllib SmithingHousePillar1TEX.mtl
usemtl palette

# normals
vn -1 0 0
vn 1 0 0
vn 0 0 1
vn 0 0 -1
vn 0 -1 0
vn 0 1 0

# texcoords
vt 0.958984 0.5
vt 0.962891 0.5
vt 0.982422 0.5

# verts
v 0 2 -0.1
v 0 2 -0.2
v 0 2 -0.4
v 0 2.1 -0.1
v 0 2.1 -0.2
v 0 2.1 -0.3
v 0 2.3 -0.1
v 0 2.3 -0.2
v 0 2.3 -0.3
v 0 2.3 -0.4
v 0 3.5 -0.1
v 0 3.5 -0.4
v 0 3.6 -0.2
v 0 3.6 -0.4
v 0 3.7 -0.1
v 0 3.7 -0.2
v 0 3.7 -0.4
v 0.1 2 0
v 0.1 2 -0.1
v 0.1 2 -0.4
v 0.1 2 -0.5
v 0.1 2.1 0
v 0.1 2.1 -0.1
v 0.1 2.1 -0.4
v 0.1 2.1 -0.5
v 0.1 2.2 0
v 0.1 2.2 -0.1
v 0.1 2.3 0
v 0.1 2.3 -0.1
v 0.1 2.3 -0.2
v 0.1 2.3 -0.3
v 0.1 2.3 -0.4
v 0.1 2.3 -0.5
v 0.1 2.4 -0.2
v 0.1 2.4 -0.4
v 0.1 2.6 -0.1
v 0.1 2.6 -0.2
v 0.1 2.6 -0.4
v 0.1 2.7 -0.1
v 0.1 2.7 -0.2
v 0.1 2.7 -0.3
v 0.1 2.8 -0.1
v 0.1 2.8 -0.2
v 0.1 2.8 -0.3
v 0.1 2.8 -0.4
v 0.1 2.9 -0.1
v 0.1 2.9 -0.2
v 0.1 3 -0.1
v 0.1 3 -0.2
v 0.1 3 -0.3
v 0.1 3.1 -0.1
v 0.1 3.1 -0.2
v 0.1 3.1 -0.3
v 0.1 3.2 -0.3
v 0.1 3.2 -0.4
v 0.1 3.3 -0.1
v 0.1 3.3 -0.2
v 0.1 3.4 -0.2
v 0.1 3.4 -0.3
v 0.1 3.5 0
v 0.1 3.5 -0.1
v 0.1 3.5 -0.4
v 0.1 3.5 -0.5
v 0.1 3.6 -0.4
v 0.1 3.7 0
v 0.1 3.7 -0.1
v 0.1 3.7 -0.4
v 0.1 3.7 -0.5
v 0.4 2 0
v 0.4 2 -0.1
v 0.4 2 -0.4
v 0.4 2 -0.5
v 0.4 2.1 -0.4
v 0.4 2.1 -0.5
v 0.4 2.2 0
v 0.4 2.2 -0.1
v 0.4 2.2 -0.4
v 0.4 2.2 -0.5
v 0.4 2.3 0
v 0.4 2.3 -0.1
v 0.4 2.3 -0.2
v 0.4 2.3 -0.3
v 0.4 2.3 -0.4
v 0.4 2.3 -0.5
v 0.4 2.4 -0.1
v 0.4 2.4 -0.2
v 0.4 2.5 -0.1
v 0.4 2.5 -0.2
v 0.4 2.6 -0.1
v 0.4 2.6 -0.2
v 0.4 2.7 -0.2
v 0.4 2.7 -0.3
v 0.4 2.7 -0.4
v 0.4 2.8 -0.2
v 0.4 2.8 -0.3
v 0.4 2.8 -0.4
v 0.4 2.9 -0.1
v 0.4 2.9 -0.2
v 0.4 3 -0.2
v 0.4 3 -0.3
v 0.4 3.1 -0.2
v 0.4 3.1 -0.3
v 0.4 3.2 -0.3
v 0.4 3.2 -0.4
v 0.4 3.3 -0.2
v 0.4 3.3 -0.4
v 0.4 3.4 -0.1
v 0.4 3.4 -0.2
v 0.4 3.5 0
v 0.4 3.5 -0.1
v 0.4 3.5 -0.2
v 0.4 3.5 -0.3
v 0.4 3.5 -0.4
v 0.4 3.5 -0.5
v 0.4 3.6 0
v 0.4 3.6 -0.1
v 0.4 3.6 -0.4
v 0.4 3.6 -0.5
v 0.4 3.7 0
v 0.4 3.7 -0.1
v 0.4 3.7 -0.4
v 0.4 3.7 -0.5
v 0.5 2 -0.1
v 0.5 2 -0.3
v 0.5 2 -0.4
v 0.5 2.1 -0.3
v 0.5 2.1 -0.4
v 0.5 2.2 -0.3
v 0.5 2.2 -0.4
v 0.5 2.3 -0.1
v 0.5 2.3 -0.3
v 0.5 2.3 -0.4
v 0.5 3.5 -0.1
v 0.5 3.5 -0.2
v 0.5 3.5 -0.3
v 0.5 3.5 -0.4
v 0.5 3.6 -0.1
v 0.5 3.6 -0.2
v 0.5 3.6 -0.3
v 0.5 3.6 -0.4
v 0.5 3.7 -0.1
v 0.5 3.7 -0.2
v 0.5 3.7 -0.3
v 0.5 3.7 -0.4
v 0.1 2 0
v 0.1 2.1 0
v 0.1 2.2 0
v 0.1 2.3 0
v 0.1 3.5 0
v 0.1 3.7 0
v 0.2 2 0
v 0.2 2.1 0
v 0.2 2.2 0
v 0.2 2.3 0
v 0.2 3.5 0
v 0.2 3.6 0
v 0.3 2.2 0
v 0.3 2.3 0
v 0.4 2 0
v 0.4 2.2 0
v 0.4 2.3 0
v 0.4 3.5 0
v 0.4 3.6 0
v 0.4 3.7 0
v 0 2 -0.1
v 0 2.1 -0.1
v 0 2.3 -0.1
v 0 3.5 -0.1
v 0 3.7 -0.1
v 0.1 2 -0.1
v 0.1 2.1 -0.1
v 0.1 2.2 -0.1
v 0.1 2.3 -0.1
v 0.1 2.6 -0.1
v 0.1 2.7 -0.1
v 0.1 2.8 -0.1
v 0.1 2.9 -0.1
v 0.1 3 -0.1
v 0.1 3.1 -0.1
v 0.1 3.3 -0.1
v 0.1 3.5 -0.1
v 0.1 3.7 -0.1
v 0.2 2.3 -0.1
v 0.2 2.5 -0.1
v 0.2 2.6 -0.1
v 0.2 2.7 -0.1
v 0.2 3 -0.1
v 0.2 3.1 -0.1
v 0.2 3.2 -0.1
v 0.2 3.5 -0.1
v 0.3 2.3 -0.1
v 0.3 2.4 -0.1
v 0.3 2.8 -0.1
v 0.3 2.9 -0.1
v 0.3 3.1 -0.1
v 0.3 3.2 -0.1
v 0.3 3.3 -0.1
v 0.3 3.4 -0.1
v 0.4 2 -0.1
v 0.4 2.2 -0.1
v 0.4 2.3 -0.1
v 0.4 2.4 -0.1
v 0.4 2.5 -0.1
v 0.4 2.6 -0.1
v 0.4 2.9 -0.1
v 0.4 3.4 -0.1
v 0.4 3.5 -0.1
v 0.4 3.6 -0.1
v 0.4 3.7 -0.1
v 0.5 2 -0.1
v 0.5 2.3 -0.1
v 0.5 3.5 -0.1
v 0.5 3.6 -0.1
v 0.5 3.7 -0.1
v 0 2 -0.4
v 0 2.3 -0.4
v 0 3.5 -0.4
v 0 3.6 -0.4
v 0 3.7 -0.4
v 0.1 2 -0.4
v 0.1 2.1 -0.4
v 0.1 2.3 -0.4
v 0.1 2.4 -0.4
v 0.1 2.6 -0.4
v 0.1 2.8 -0.4
v 0.1 3.2 -0.4
v 0.1 3.5 -0.4
v 0.1 3.6 -0.4
v 0.1 3.7 -0.4
v 0.2 2.3 -0.4
v 0.2 2.4 -0.4
v 0.2 2.6 -0.4
v 0.2 2.8 -0.4
v 0.2 3.1 -0.4
v 0.2 3.2 -0.4
v 0.2 3.3 -0.4
v 0.2 3.5 -0.4
v 0.3 2.4 -0.4
v 0.3 2.7 -0.4
v 0.3 2.8 -0.4
v 0.3 3.1 -0.4
v 0.3 3.5 -0.4
v 0.4 2 -0.4
v 0.4 2.1 -0.4
v 0.4 2.2 -0.4
v 0.4 2.3 -0.4
v 0.4 2.7 -0.4
v 0.4 2.8 -0.4
v 0.4 3.2 -0.4
v 0.4 3.3 -0.4
v 0.4 3.5 -0.4
v 0.4 3.6 -0.4
v 0.4 3.7 -0.4
v 0.5 2 -0.4
v 0.5 2.1 -0.4
v 0.5 2.2 -0.4
v 0.5 2.3 -0.4
v 0.5 3.5 -0.4
v 0.5 3.6 -0.4
v 0.5 3.7 -0.4
v 0.1 2 -0.5
v 0.1 2.1 -0.5
v 0.1 2.3 -0.5
v 0.1 3.5 -0.5
v 0.1 3.7 -0.5
v 0.2 2 -0.5
v 0.2 2.1 -0.5
v 0.2 2.2 -0.5
v 0.2 2.3 -0.5
v 0.2 3.5 -0.5
v 0.2 3.7 -0.5
v 0.3 2 -0.5
v 0.3 2.1 -0.5
v 0.3 3.5 -0.5
v 0.3 3.6 -0.5
v 0.4 2 -0.5
v 0.4 2.1 -0.5
v 0.4 2.2 -0.5
v 0.4 2.3 -0.5
v 0.4 3.5 -0.5
v 0.4 3.6 -0.5
v 0.4 3.7 -0.5
v 0.1 2 0
v 0.2 2 0
v 0.4 2 0
v 0 2 -0.1
v 0.1 2 -0.1
v 0.2 2 -0.1
v 0.4 2 -0.1
v 0.5 2 -0.1
v 0 2 -0.2
v 0.2 2 -0.2
v 0.3 2 -0.2
v 0.4 2 -0.2
v 0.2 2 -0.3
v 0.3 2 -0.3
v 0.4 2 -0.3
v 0.5 2 -0.3
v 0 2 -0.4
v 0.1 2 -0.4
v 0.2 2 -0.4
v 0.3 2 -0.4
v 0.4 2 -0.4
v 0.5 2 -0.4
v 0.1 2 -0.5
v 0.2 2 -0.5
v 0.3 2 -0.5
v 0.4 2 -0.5
v 0.1 3.5 0
v 0.2 3.5 0
v 0.4 3.5 0
v 0 3.5 -0.1
v 0.1 3.5 -0.1
v 0.2 3.5 -0.1
v 0.4 3.5 -0.1
v 0.5 3.5 -0.1
v 0.4 3.5 -0.2
v 0.5 3.5 -0.2
v 0.4 3.5 -0.3
v 0.5 3.5 -0.3
v 0 3.5 -0.4
v 0.1 3.5 -0.4
v 0.2 3.5 -0.4
v 0.3 3.5 -0.4
v 0.4 3.5 -0.4
v 0.5 3.5 -0.4
v 0.1 3.5 -0.5
v 0.2 3.5 -0.5
v 0.3 3.5 -0.5
v 0.4 3.5 -0.5
v 0.1 2.3 0
v 0.2 2.3 0
v 0.3 2.3 0
v 0.4 2.3 0
v 0 2.3 -0.1
v 0.1 2.3 -0.1
v 0.2 2.3 -0.1
v 0.3 2.3 -0.1
v 0.4 2.3 -0.1
v 0.5 2.3 -0.1
v 0 2.3 -0.2
v 0.1 2.3 -0.2
v 0.4 2.3 -0.2
v 0 2.3 -0.3
v 0.1 2.3 -0.3
v 0.4 2.3 -0.3
v 0.5 2.3 -0.3
v 0 2.3 -0.4
v 0.1 2.3 -0.4
v 0.2 2.3 -0.4
v 0.4 2.3 -0.4
v 0.5 2.3 -0.4
v 0.1 2.3 -0.5
v 0.2 2.3 -0.5
v 0.4 2.3 -0.5
v 0.1 3.7 0
v 0.4 3.7 0
v 0 3.7 -0.1
v 0.1 3.7 -0.1
v 0.2 3.7 -0.1
v 0.3 3.7 -0.1
v 0.4 3.7 -0.1
v 0.5 3.7 -0.1
v 0 3.7 -0.2
v 0.1 3.7 -0.2
v 0.2 3.7 -0.2
v 0.3 3.7 -0.2
v 0.5 3.7 -0.2
v 0.1 3.7 -0.3
v 0.2 3.7 -0.3
v 0.3 3.7 -0.3
v 0.5 3.7 -0.3
v 0 3.7 -0.4
v 0.1 3.7 -0.4
v 0.4 3.7 -0.4
v 0.5 3.7 -0.4
v 0.1 3.7 -0.5
v 0.2 3.7 -0.5
v 0.4 3.7 -0.5

# faces
f 4/3/1 2/3/1 1/3/1
f 5/1/1 3/1/1 2/1/1
f 5/3/1 2/3/1 4/3/1
f 6/1/1 3/1/1 5/1/1
f 7/1/1 5/1/1 4/1/1
f 8/3/1 6/3/1 5/3/1
f 8/1/1 5/1/1 7/1/1
f 9/1/1 3/1/1 6/1/1
f 9/3/1 6/3/1 8/3/1
f 10/1/1 3/1/1 9/1/1
f 13/3/1 12/3/1 11/3/1
f 14/3/1 12/3/1 13/3/1
f 15/3/1 13/3/1 11/3/1
f 16/1/1 14/1/1 13/1/1
f 16/3/1 13/3/1 15/3/1
f 17/1/1 14/1/1 16/1/1
f 22/3/1 19/3/1 18/3/1
f 23/3/1 19/3/1 22/3/1
f 24/3/1 21/3/1 20/3/1
f 25/3/1 21/3/1 24/3/1
f 26/1/1 23/1/1 22/1/1
f 27/1/1 23/1/1 26/1/1
f 28/3/1 27/3/1 26/3/1
f 29/3/1 27/3/1 28/3/1
f 32/1/1 25/1/1 24/1/1
f 33/1/1 25/1/1 32/1/1
f 34/3/1 31/3/1 30/3/1
f 34/3/1 32/3/1 31/3/1
f 34/3/1 30/3/1 29/3/1
f 35/3/1 32/3/1 34/3/1
f 36/3/1 34/3/1 29/3/1
f 37/1/1 35/1/1 34/1/1
f 37/3/1 34/3/1 36/3/1
f 38/1/1 35/1/1 37/1/1
f 39/1/1 37/1/1 36/1/1
f 40/3/1 38/3/1 37/3/1
f 40/1/1 37/1/1 39/1/1
f 41/3/1 38/3/1 40/3/1
f 42/3/1 40/3/1 39/3/1
f 43/1/1 41/1/1 40/1/1
f 43/3/1 40/3/1 42/3/1
f 44/3/1 38/3/1 41/3/1
f 44/1/1 41/1/1 43/1/1
f 45/3/1 38/3/1 44/3/1
f 46/1/1 43/1/1 42/1/1
f 46/1/1 44/1/1 43/1/1
f 46/1/1 45/1/1 44/1/1
f 47/1/1 45/1/1 46/1/1
f 48/3/1 47/3/1 46/3/1
f 49/1/1 45/1/1 47/1/1
f 49/3/1 47/3/1 48/3/1
f 50/1/1 45/1/1 49/1/1
f 51/1/1 49/1/1 48/1/1
f 52/3/1 50/3/1 49/3/1
f 52/1/1 49/1/1 51/1/1
f 53/1/1 45/1/1 50/1/1
f 53/3/1 50/3/1 52/3/1
f 54/1/1 53/1/1 52/1/1
f 54/1/1 45/1/1 53/1/1
f 55/1/1 45/1/1 54/1/1
f 56/3/1 52/3/1 51/3/1
f 57/1/1 54/1/1 52/1/1
f 57/3/1 52/3/1 56/3/1
f 58/2/1 57/2/1 56/2/1
f 58/1/1 54/1/1 57/1/1
f 59/2/1 55/2/1 54/2/1
f 59/1/1 54/1/1 58/1/1
f 61/2/1 58/2/1 56/2/1
f 61/2/1 59/2/1 58/2/1
f 62/2/1 55/2/1 59/2/1
f 62/2/1 59/2/1 61/2/1
f 64/3/1 63/3/1 62/3/1
f 65/1/1 61/1/1 60/1/1
f 66/1/1 61/1/1 65/1/1
f 67/3/1 63/3/1 64/3/1
f 68/3/1 63/3/1 67/3/1
f 71/3/2 72/3/2 73/3/2
f 73/3/2 72/3/2 74/3/2
f 69/1/2 70/1/2 75/1/2
f 75/1/2 70/1/2 76/1/2
f 73/1/2 74/1/2 77/1/2
f 77/1/2 74/1/2 78/1/2
f 75/3/2 76/3/2 79/3/2
f 79/3/2 76/3/2 80/3/2
f 77/3/2 78/3/2 83/3/2
f 83/3/2 78/3/2 84/3/2
f 80/1/2 81/1/2 85/1/2
f 81/3/2 82/3/2 86/3/2
f 85/1/2 81/1/2 86/1/2
f 85/3/2 86/3/2 87/3/2
f 86/3/2 82/3/2 88/3/2
f 87/3/2 86/3/2 88/3/2
f 87/1/2 88/1/2 89/1/2
f 88/3/2 82/3/2 90/3/2
f 89/1/2 88/1/2 90/1/2
f 89/3/2 90/3/2 91/3/2
f 90/3/2 82/3/2 91/3/2
f 82/1/2 83/1/2 92/1/2
f 91/3/2 82/3/2 92/3/2
f 92/1/2 83/1/2 93/1/2
f 89/3/2 91/3/2 94/3/2
f 91/1/2 92/1/2 94/1/2
f 92/3/2 93/3/2 95/3/2
f 94/1/2 92/1/2 95/1/2
f 95/3/2 93/3/2 96/3/2
f 89/3/2 94/3/2 97/3/2
f 94/3/2 95/3/2 97/3/2
f 97/3/2 95/3/2 98/3/2
f 97/1/2 98/1/2 99/1/2
f 98/3/2 95/3/2 99/3/2
f 95/1/2 96/1/2 100/1/2
f 99/3/2 95/3/2 100/3/2
f 97/1/2 99/1/2 101/1/2
f 99/1/2 100/1/2 101/1/2
f 100/1/2 96/1/2 102/1/2
f 101/1/2 100/1/2 102/1/2
f 101/3/2 102/3/2 103/3/2
f 102/1/2 96/1/2 103/1/2
f 103/1/2 96/1/2 104/1/2
f 97/1/2 101/1/2 105/1/2
f 101/3/2 103/3/2 105/3/2
f 103/3/2 104/3/2 105/3/2
f 105/3/2 104/3/2 106/3/2
f 97/1/2 105/1/2 107/1/2
f 105/2/2 106/2/2 108/2/2
f 107/1/2 105/1/2 108/1/2
f 107/2/2 108/2/2 110/2/2
f 108/2/2 106/2/2 111/2/2
f 110/2/2 108/2/2 111/2/2
f 111/2/2 106/2/2 112/2/2
f 112/2/2 106/2/2 113/2/2
f 109/3/2 110/3/2 115/3/2
f 115/3/2 110/3/2 116/3/2
f 113/3/2 114/3/2 117/3/2
f 117/3/2 114/3/2 118/3/2
f 115/1/2 116/1/2 119/1/2
f 119/1/2 116/1/2 120/1/2
f 117/1/2 118/1/2 121/1/2
f 121/1/2 118/1/2 122/1/2
f 123/1/2 124/1/2 126/1/2
f 124/3/2 125/3/2 126/3/2
f 126/3/2 125/3/2 127/3/2
f 123/1/2 126/1/2 128/1/2
f 126/1/2 127/1/2 128/1/2
f 128/1/2 127/1/2 129/1/2
f 123/1/2 128/1/2 130/1/2
f 128/3/2 129/3/2 131/3/2
f 130/1/2 128/1/2 131/1/2
f 131/3/2 129/3/2 132/3/2
f 133/3/2 134/3/2 137/3/2
f 134/1/2 135/1/2 138/1/2
f 137/3/2 134/3/2 138/3/2
f 135/3/2 136/3/2 139/3/2
f 138/1/2 135/1/2 139/1/2
f 139/3/2 136/3/2 140/3/2
f 137/1/2 138/1/2 141/1/2
f 138/3/2 139/3/2 142/3/2
f 141/1/2 138/1/2 142/1/2
f 139/1/2 140/1/2 143/1/2
f 142/3/2 139/3/2 143/3/2
f 143/1/2 140/1/2 144/1/2
f 151/3/3 146/3/3 145/3/3
f 152/1/3 147/1/3 146/1/3
f 152/3/3 146/3/3 151/3/3
f 153/3/3 148/3/3 147/3/3
f 153/1/3 147/1/3 152/1/3
f 154/3/3 148/3/3 153/3/3
f 155/1/3 150/1/3 149/1/3
f 156/1/3 150/1/3 155/1/3
f 157/1/3 154/1/3 153/1/3
f 157/1/3 152/1/3 151/1/3
f 157/1/3 153/1/3 152/1/3
f 158/1/3 154/1/3 157/1/3
f 159/1/3 157/1/3 151/1/3
f 160/3/3 158/3/3 157/3/3
f 160/1/3 157/1/3 159/1/3
f 161/3/3 158/3/3 160/3/3
f 162/3/3 156/3/3 155/3/3
f 163/1/3 150/1/3 156/1/3
f 163/3/3 156/3/3 162/3/3
f 164/1/3 150/1/3 163/1/3
f 170/3/3 166/3/3 165/3/3
f 171/1/3 167/1/3 166/1/3
f 171/3/3 166/3/3 170/3/3
f 172/1/3 167/1/3 171/1/3
f 173/1/3 167/1/3 172/1/3
f 181/3/3 169/3/3 168/3/3
f 182/3/3 169/3/3 181/3/3
f 183/3/3 174/3/3 173/3/3
f 184/3/3 174/3/3 183/3/3
f 185/1/3 175/1/3 174/1/3
f 185/3/3 174/3/3 184/3/3
f 186/3/3 176/3/3 175/3/3
f 186/1/3 175/1/3 185/1/3
f 187/1/3 179/1/3 178/1/3
f 187/3/3 178/3/3 177/3/3
f 188/3/3 180/3/3 179/3/3
f 188/1/3 179/1/3 187/1/3
f 189/3/3 180/3/3 188/3/3
f 190/2/3 181/2/3 180/2/3
f 191/3/3 184/3/3 183/3/3
f 192/3/3 184/3/3 191/3/3
f 193/3/3 176/3/3 186/3/3
f 193/1/3 177/1/3 176/1/3
f 193/3/3 186/3/3 185/3/3
f 194/3/3 187/3/3 177/3/3
f 194/1/3 177/1/3 193/1/3
f 194/3/3 188/3/3 187/3/3
f 195/1/3 189/1/3 188/1/3
f 195/3/3 188/3/3 194/3/3
f 196/3/3 180/3/3 189/3/3
f 196/1/3 189/1/3 195/1/3
f 197/2/3 190/2/3 180/2/3
f 197/3/3 180/3/3 196/3/3
f 198/2/3 190/2/3 197/2/3
f 201/1/3 192/1/3 191/1/3
f 202/3/3 184/3/3 192/3/3
f 202/1/3 192/1/3 201/1/3
f 203/1/3 185/1/3 184/1/3
f 203/3/3 184/3/3 202/3/3
f 204/3/3 193/3/3 185/3/3
f 204/1/3 185/1/3 203/1/3
f 204/3/3 194/3/3 193/3/3
f 205/1/3 195/1/3 194/1/3
f 205/3/3 194/3/3 204/3/3
f 205/1/3 196/1/3 195/1/3
f 205/1/3 197/1/3 196/1/3
f 205/1/3 198/1/3 197/1/3
f 206/2/3 190/2/3 198/2/3
f 206/1/3 198/1/3 205/1/3
f 207/2/3 190/2/3 206/2/3
f 210/1/3 201/1/3 200/1/3
f 210/1/3 200/1/3 199/1/3
f 211/1/3 201/1/3 210/1/3
f 212/3/3 208/3/3 207/3/3
f 213/1/3 209/1/3 208/1/3
f 213/3/3 208/3/3 212/3/3
f 214/1/3 209/1/3 213/1/3
f 215/1/4 216/1/4 220/1/4
f 220/1/4 216/1/4 221/1/4
f 221/1/4 216/1/4 222/1/4
f 217/3/4 218/3/4 227/3/4
f 218/1/4 219/1/4 228/1/4
f 227/3/4 218/3/4 228/3/4
f 228/1/4 219/1/4 229/1/4
f 222/3/4 223/3/4 230/3/4
f 223/1/4 224/1/4 231/1/4
f 230/3/4 223/3/4 231/3/4
f 224/3/4 225/3/4 232/3/4
f 231/1/4 224/1/4 232/1/4
f 225/1/4 226/1/4 233/1/4
f 232/3/4 225/3/4 233/3/4
f 233/1/4 226/1/4 234/1/4
f 226/2/4 227/2/4 235/2/4
f 234/1/4 226/1/4 235/1/4
f 235/2/4 227/2/4 236/2/4
f 236/2/4 227/2/4 237/2/4
f 233/3/4 234/3/4 238/3/4
f 231/3/4 232/3/4 238/3/4
f 230/1/4 231/1/4 238/1/4
f 232/3/4 233/3/4 238/3/4
f 238/3/4 234/3/4 239/3/4
f 239/3/4 234/3/4 240/3/4
f 234/1/4 235/1/4 241/1/4
f 240/3/4 234/3/4 241/3/4
f 236/2/4 237/2/4 242/2/4
f 230/1/4 238/1/4 246/1/4
f 238/1/4 239/1/4 246/1/4
f 239/3/4 240/3/4 247/3/4
f 246/1/4 239/1/4 247/1/4
f 240/1/4 241/1/4 248/1/4
f 247/3/4 240/3/4 248/3/4
f 241/1/4 235/1/4 249/1/4
f 248/1/4 241/1/4 249/1/4
f 235/3/4 236/3/4 249/3/4
f 236/2/4 242/2/4 250/2/4
f 249/3/4 236/3/4 250/3/4
f 250/2/4 242/2/4 251/2/4
f 243/3/4 244/3/4 254/3/4
f 244/1/4 245/1/4 255/1/4
f 254/3/4 244/3/4 255/3/4
f 245/3/4 246/3/4 256/3/4
f 255/1/4 245/1/4 256/1/4
f 256/3/4 246/3/4 257/3/4
f 251/3/4 252/3/4 258/3/4
f 252/1/4 253/1/4 259/1/4
f 258/3/4 252/3/4 259/3/4
f 259/1/4 253/1/4 260/1/4
f 261/3/4 262/3/4 266/3/4
f 262/1/4 263/1/4 267/1/4
f 266/3/4 262/3/4 267/3/4
f 267/1/4 263/1/4 268/1/4
f 268/1/4 263/1/4 269/1/4
f 264/3/4 265/3/4 270/3/4
f 270/3/4 265/3/4 271/3/4
f 266/1/4 267/1/4 272/1/4
f 267/1/4 268/1/4 272/1/4
f 272/1/4 268/1/4 273/1/4
f 270/1/4 271/1/4 274/1/4
f 274/1/4 271/1/4 275/1/4
f 272/3/4 273/3/4 276/3/4
f 273/1/4 268/1/4 277/1/4
f 276/3/4 273/3/4 277/3/4
f 268/3/4 269/3/4 278/3/4
f 277/1/4 268/1/4 278/1/4
f 278/3/4 269/3/4 279/3/4
f 274/3/4 275/3/4 280/3/4
f 275/1/4 271/1/4 281/1/4
f 280/3/4 275/3/4 281/3/4
f 281/1/4 271/1/4 282/1/4
f 287/3/5 284/3/5 283/3/5
f 288/1/5 285/1/5 284/1/5
f 288/3/5 284/3/5 287/3/5
f 289/1/5 285/1/5 288/1/5
f 291/3/5 287/3/5 286/3/5
f 291/3/5 288/3/5 287/3/5
f 291/3/5 289/3/5 288/3/5
f 292/3/5 289/3/5 291/3/5
f 293/3/5 289/3/5 292/3/5
f 294/1/5 290/1/5 289/1/5
f 294/3/5 289/3/5 293/3/5
f 295/3/5 293/3/5 292/3/5
f 295/1/5 292/1/5 291/1/5
f 296/1/5 294/1/5 293/1/5
f 296/3/5 293/3/5 295/3/5
f 297/1/5 290/1/5 294/1/5
f 297/1/5 294/1/5 296/1/5
f 298/1/5 290/1/5 297/1/5
f 299/1/5 296/1/5 295/1/5
f 299/1/5 295/1/5 291/1/5
f 299/1/5 297/1/5 296/1/5
f 300/1/5 297/1/5 299/1/5
f 301/1/5 297/1/5 300/1/5
f 302/1/5 297/1/5 301/1/5
f 303/3/5 298/3/5 297/3/5
f 303/1/5 297/1/5 302/1/5
f 304/3/5 298/3/5 303/3/5
f 305/3/5 301/3/5 300/3/5
f 306/1/5 302/1/5 301/1/5
f 306/3/5 301/3/5 305/3/5
f 307/3/5 303/3/5 302/3/5
f 307/1/5 302/1/5 306/1/5
f 308/3/5 303/3/5 307/3/5
f 313/1/5 310/1/5 309/1/5
f 314/3/5 311/3/5 310/3/5
f 314/1/5 310/1/5 313/1/5
f 315/3/5 311/3/5 314/3/5
f 317/3/5 316/3/5 315/3/5
f 318/3/5 316/3/5 317/3/5
f 319/1/5 318/1/5 317/1/5
f 320/1/5 318/1/5 319/1/5
f 321/3/5 313/3/5 312/3/5
f 322/3/5 313/3/5 321/3/5
f 325/3/5 320/3/5 319/3/5
f 326/3/5 320/3/5 325/3/5
f 327/3/5 323/3/5 322/3/5
f 328/1/5 324/1/5 323/1/5
f 328/3/5 323/3/5 327/3/5
f 329/3/5 325/3/5 324/3/5
f 329/1/5 324/1/5 328/1/5
f 330/3/5 325/3/5 329/3/5
f 331/3/6 332/3/6 336/3/6
f 332/1/6 333/1/6 337/1/6
f 336/3/6 332/3/6 337/3/6
f 333/3/6 334/3/6 338/3/6
f 337/1/6 333/1/6 338/1/6
f 338/3/6 334/3/6 339/3/6
f 335/1/6 336/1/6 341/1/6
f 341/1/6 336/1/6 342/1/6
f 339/1/6 340/1/6 343/1/6
f 341/3/6 342/3/6 344/3/6
f 344/3/6 342/3/6 345/3/6
f 343/1/6 340/1/6 346/1/6
f 346/1/6 340/1/6 347/1/6
f 344/1/6 345/1/6 348/1/6
f 348/1/6 345/1/6 349/1/6
f 346/3/6 347/3/6 351/3/6
f 351/3/6 347/3/6 352/3/6
f 349/1/6 350/1/6 353/1/6
f 350/3/6 351/3/6 354/3/6
f 353/1/6 350/1/6 354/1/6
f 354/3/6 351/3/6 355/3/6
f 356/1/6 357/1/6 359/1/6
f 359/1/6 357/1/6 360/1/6
f 360/1/6 357/1/6 361/1/6
f 361/1/6 357/1/6 362/1/6
f 358/3/6 359/3/6 364/3/6
f 359/1/6 360/1/6 365/1/6
f 364/3/6 359/3/6 365/3/6
f 360/3/6 361/3/6 366/3/6
f 365/1/6 360/1/6 366/1/6
f 362/1/6 363/1/6 367/1/6
f 366/3/6 361/3/6 367/3/6
f 361/1/6 362/1/6 367/1/6
f 367/1/6 363/1/6 368/1/6
f 365/1/6 366/1/6 369/1/6
f 364/1/6 365/1/6 369/1/6
f 366/1/6 367/1/6 369/1/6
f 369/1/6 367/1/6 370/1/6
f 367/3/6 368/3/6 371/3/6
f 370/1/6 367/1/6 371/1/6
f 371/3/6 368/3/6 372/3/6
f 364/1/6 369/1/6 373/1/6
f 369/3/6 370/3/6 374/3/6
f 373/1/6 369/1/6 374/1/6
f 370/1/6 371/1/6 375/1/6
f 371/1/6 372/1/6 375/1/6
f 375/1/6 372/1/6 376/1/6
f 374/3/6 370/3/6 377/3/6
f 370/1/6 375/1/6 378/1/6
f 377/3/6 370/3/6 378/3/6
f 378/1/6 375/1/6 379/1/6
