# MagicaVoxel @ Ephtracy

# group
o 

# material
mtllib SmithingFoor2TEX.mtl
usemtl palette

# normals
vn -1 0 0
vn 1 0 0
vn 0 0 1
vn 0 0 -1
vn 0 -1 0
vn 0 1 0

# texcoords
vt 0.943359 0.5
vt 0.947266 0.5
vt 0.962891 0.5
vt 0.978516 0.5
vt 0.982422 0.5
vt 0.986328 0.5
vt 0.990234 0.5

# verts
v 0 2.5 -1.5
v 0 2.5 -1.7
v 0 2.6 -1.5
v 0 2.6 -1.7
v 0.3 2.4 -1.2
v 0.3 2.4 -1.4
v 0.3 2.4 -1.5
v 0.3 2.4 -1.7
v 0.3 2.4 -1.8
v 0.3 2.4 -2
v 0.3 2.5 -1.2
v 0.3 2.5 -1.4
v 0.3 2.5 -1.5
v 0.3 2.5 -1.6
v 0.3 2.5 -1.7
v 0.3 2.5 -1.8
v 0.3 2.5 -2
v 0.6 2.3 -0.9
v 0.6 2.3 -1.1
v 0.6 2.3 -1.2
v 0.6 2.3 -2
v 0.6 2.3 -2.1
v 0.6 2.3 -2.3
v 0.6 2.4 -0.9
v 0.6 2.4 -1.1
v 0.6 2.4 -1.2
v 0.6 2.4 -1.4
v 0.6 2.4 -1.5
v 0.6 2.4 -1.7
v 0.6 2.4 -1.8
v 0.6 2.4 -2
v 0.6 2.4 -2.1
v 0.6 2.4 -2.3
v 0.9 2.2 -0.6
v 0.9 2.2 -0.8
v 0.9 2.2 -0.9
v 0.9 2.2 -2.3
v 0.9 2.2 -2.4
v 0.9 2.2 -2.6
v 0.9 2.3 -0.6
v 0.9 2.3 -0.8
v 0.9 2.3 -0.9
v 0.9 2.3 -1.1
v 0.9 2.3 -1.2
v 0.9 2.3 -2
v 0.9 2.3 -2.1
v 0.9 2.3 -2.3
v 0.9 2.3 -2.4
v 0.9 2.3 -2.6
v 1.2 2.1 -0.3
v 1.2 2.1 -0.5
v 1.2 2.1 -0.6
v 1.2 2.1 -2.6
v 1.2 2.1 -2.7
v 1.2 2.1 -2.9
v 1.2 2.2 -0.3
v 1.2 2.2 -0.5
v 1.2 2.2 -0.6
v 1.2 2.2 -0.8
v 1.2 2.2 -0.9
v 1.2 2.2 -2.3
v 1.2 2.2 -2.4
v 1.2 2.2 -2.6
v 1.2 2.2 -2.7
v 1.2 2.2 -2.9
v 1.5 2 0
v 1.5 2 -0.2
v 1.5 2 -0.3
v 1.5 2 -2.9
v 1.5 2 -3
v 1.5 2 -3.2
v 1.5 2.1 0
v 1.5 2.1 -0.2
v 1.5 2.1 -0.3
v 1.5 2.1 -0.5
v 1.5 2.1 -0.6
v 1.5 2.1 -2.6
v 1.5 2.1 -2.7
v 1.5 2.1 -2.9
v 1.5 2.1 -3
v 1.5 2.1 -3.2
v 3.5 2.1 -0.1
v 3.5 2.1 -0.3
v 3.5 2.1 -2.9
v 3.5 2.1 -3.1
v 3.5 2.2 -0.1
v 3.5 2.2 -0.3
v 3.5 2.2 -0.4
v 3.5 2.2 -0.5
v 3.5 2.2 -0.6
v 3.5 2.2 -2.6
v 3.5 2.2 -2.8
v 3.5 2.2 -2.9
v 3.5 2.2 -3.1
v 3.5 2.3 -0.4
v 3.5 2.3 -0.5
v 3.5 2.3 -0.6
v 3.5 2.3 -0.7
v 3.5 2.3 -0.9
v 3.5 2.3 -2.3
v 3.5 2.3 -2.5
v 3.5 2.3 -2.6
v 3.5 2.3 -2.8
v 3.5 2.4 -0.7
v 3.5 2.4 -0.9
v 3.5 2.4 -1
v 3.5 2.4 -1.2
v 3.5 2.4 -2
v 3.5 2.4 -2.2
v 3.5 2.4 -2.3
v 3.5 2.4 -2.5
v 3.5 2.5 -1
v 3.5 2.5 -1.2
v 3.5 2.5 -1.3
v 3.5 2.5 -1.5
v 3.5 2.5 -1.7
v 3.5 2.5 -1.8
v 3.5 2.5 -1.9
v 3.5 2.5 -2
v 3.5 2.5 -2.2
v 3.5 2.6 -1.3
v 3.5 2.6 -1.5
v 3.5 2.6 -1.7
v 3.5 2.6 -1.8
v 3.5 2.6 -1.9
v 3.5 2.1 -0.9
v 3.5 2.1 -1
v 3.5 2.1 -1.1
v 3.5 2.1 -1.2
v 3.5 2.1 -1.3
v 3.5 2.1 -1.4
v 3.5 2.1 -1.6
v 3.5 2.1 -1.7
v 3.5 2.1 -2
v 3.5 2.1 -2.1
v 3.5 2.1 -2.2
v 3.5 2.1 -2.3
v 3.5 2.2 -0.9
v 3.5 2.2 -1
v 3.5 2.2 -1.1
v 3.5 2.2 -1.2
v 3.5 2.2 -1.3
v 3.5 2.2 -1.4
v 3.5 2.2 -1.5
v 3.5 2.2 -1.6
v 3.5 2.2 -1.7
v 3.5 2.2 -2
v 3.5 2.2 -2.1
v 3.5 2.2 -2.2
v 3.5 2.2 -2.3
v 3.5 2.3 -1.2
v 3.5 2.3 -1.3
v 3.5 2.3 -1.4
v 3.5 2.3 -1.5
v 3.5 2.3 -1.6
v 3.5 2.3 -1.7
v 3.5 2.3 -2
v 3.5 2.4 -1.5
v 3.5 2.4 -1.6
v 3.5 2.4 -1.7
v 3.6 2 0
v 3.6 2 -0.6
v 3.6 2 -0.7
v 3.6 2 -1.2
v 3.6 2 -1.4
v 3.6 2 -1.6
v 3.6 2 -1.7
v 3.6 2 -2
v 3.6 2 -2.2
v 3.6 2 -2.3
v 3.6 2 -2.4
v 3.6 2 -2.7
v 3.6 2 -2.8
v 3.6 2 -2.9
v 3.6 2 -3
v 3.6 2 -3.2
v 3.6 2.1 0
v 3.6 2.1 -0.1
v 3.6 2.1 -0.3
v 3.6 2.1 -0.5
v 3.6 2.1 -0.7
v 3.6 2.1 -0.8
v 3.6 2.1 -0.9
v 3.6 2.1 -1.2
v 3.6 2.1 -1.4
v 3.6 2.1 -1.6
v 3.6 2.1 -1.7
v 3.6 2.1 -2
v 3.6 2.1 -2.2
v 3.6 2.1 -2.3
v 3.6 2.1 -2.4
v 3.6 2.1 -2.5
v 3.6 2.1 -2.7
v 3.6 2.1 -2.8
v 3.6 2.1 -2.9
v 3.6 2.1 -3
v 3.6 2.1 -3.1
v 3.6 2.1 -3.2
v 3.6 2.2 -0.1
v 3.6 2.2 -0.3
v 3.6 2.2 -0.4
v 3.6 2.2 -0.6
v 3.6 2.2 -0.8
v 3.6 2.2 -0.9
v 3.6 2.2 -1
v 3.6 2.2 -1.1
v 3.6 2.2 -1.2
v 3.6 2.2 -2
v 3.6 2.2 -2.2
v 3.6 2.2 -2.3
v 3.6 2.2 -2.4
v 3.6 2.2 -2.6
v 3.6 2.2 -2.7
v 3.6 2.2 -2.8
v 3.6 2.2 -2.9
v 3.6 2.2 -3.1
v 3.6 2.3 -0.4
v 3.6 2.3 -0.5
v 3.6 2.3 -0.7
v 3.6 2.3 -1.2
v 3.6 2.3 -1.4
v 3.6 2.3 -1.5
v 3.6 2.3 -1.7
v 3.6 2.3 -2
v 3.6 2.3 -2.1
v 3.6 2.3 -2.2
v 3.6 2.3 -2.4
v 3.6 2.3 -2.5
v 3.6 2.3 -2.6
v 3.6 2.3 -2.8
v 3.6 2.4 -0.7
v 3.6 2.4 -1
v 3.6 2.4 -1.1
v 3.6 2.4 -1.2
v 3.6 2.4 -1.4
v 3.6 2.4 -1.5
v 3.6 2.4 -1.6
v 3.6 2.4 -1.7
v 3.6 2.4 -1.9
v 3.6 2.4 -2
v 3.6 2.4 -2.1
v 3.6 2.4 -2.2
v 3.6 2.4 -2.5
v 3.6 2.5 -1
v 3.6 2.5 -1.2
v 3.6 2.5 -1.3
v 3.6 2.5 -1.4
v 3.6 2.5 -1.6
v 3.6 2.5 -1.7
v 3.6 2.5 -1.8
v 3.6 2.5 -1.9
v 3.6 2.5 -2
v 3.6 2.5 -2.2
v 3.6 2.6 -1.3
v 3.6 2.6 -1.8
v 3.6 2.6 -1.9
v 1.5 2 0
v 1.5 2.1 0
v 3.6 2 0
v 3.6 2.1 0
v 3.5 2.1 -0.1
v 3.5 2.2 -0.1
v 3.6 2.1 -0.1
v 3.6 2.2 -0.1
v 1.2 2.1 -0.3
v 1.2 2.2 -0.3
v 1.5 2.1 -0.3
v 3.4 2.1 -0.3
v 3.4 2.2 -0.3
v 3.5 2.1 -0.3
v 3.5 2.2 -0.3
v 3.5 2.2 -0.4
v 3.5 2.3 -0.4
v 3.6 2.2 -0.4
v 3.6 2.3 -0.4
v 0.9 2.2 -0.6
v 0.9 2.3 -0.6
v 1.2 2.2 -0.6
v 1.3 2.2 -0.6
v 1.3 2.3 -0.6
v 1.4 2.2 -0.6
v 1.4 2.3 -0.6
v 2.2 2.2 -0.6
v 2.2 2.3 -0.6
v 2.6 2.2 -0.6
v 2.6 2.3 -0.6
v 3.4 2.2 -0.6
v 3.4 2.3 -0.6
v 3.5 2.2 -0.6
v 3.5 2.3 -0.6
v 3.5 2.3 -0.7
v 3.5 2.4 -0.7
v 3.6 2.3 -0.7
v 3.6 2.4 -0.7
v 0.6 2.3 -0.9
v 0.6 2.4 -0.9
v 0.9 2.3 -0.9
v 1.7 2.3 -0.9
v 1.7 2.4 -0.9
v 1.9 2.3 -0.9
v 1.9 2.4 -0.9
v 2.2 2.3 -0.9
v 2.2 2.4 -0.9
v 2.3 2.3 -0.9
v 2.3 2.4 -0.9
v 3.4 2.3 -0.9
v 3.4 2.4 -0.9
v 3.5 2.3 -0.9
v 3.5 2.4 -0.9
v 3.5 2.4 -1
v 3.5 2.5 -1
v 3.6 2.4 -1
v 3.6 2.5 -1
v 0.3 2.4 -1.2
v 0.3 2.5 -1.2
v 0.6 2.4 -1.2
v 1.6 2.4 -1.2
v 1.6 2.5 -1.2
v 1.7 2.4 -1.2
v 1.7 2.5 -1.2
v 2.2 2.4 -1.2
v 2.2 2.5 -1.2
v 2.4 2.4 -1.2
v 2.4 2.5 -1.2
v 2.8 2.4 -1.2
v 2.8 2.5 -1.2
v 2.9 2.4 -1.2
v 2.9 2.5 -1.2
v 3.2 2.4 -1.2
v 3.2 2.5 -1.2
v 3.3 2.4 -1.2
v 3.3 2.5 -1.2
v 3.4 2.4 -1.2
v 3.4 2.5 -1.2
v 3.5 2.4 -1.2
v 3.5 2.5 -1.2
v 3.5 2.5 -1.3
v 3.5 2.6 -1.3
v 3.6 2.5 -1.3
v 3.6 2.6 -1.3
v 0 2.5 -1.5
v 0 2.6 -1.5
v 0.2 2.5 -1.5
v 0.2 2.6 -1.5
v 0.3 2.5 -1.5
v 0.3 2.6 -1.5
v 0.7 2.5 -1.5
v 0.7 2.6 -1.5
v 0.8 2.5 -1.5
v 0.8 2.6 -1.5
v 1.4 2.5 -1.5
v 1.4 2.6 -1.5
v 1.6 2.5 -1.5
v 1.6 2.6 -1.5
v 2.2 2.5 -1.5
v 2.2 2.6 -1.5
v 2.5 2.5 -1.5
v 2.5 2.6 -1.5
v 3.1 2.5 -1.5
v 3.1 2.6 -1.5
v 3.2 2.5 -1.5
v 3.2 2.6 -1.5
v 3.4 2.5 -1.5
v 3.4 2.6 -1.5
v 3.5 2.5 -1.5
v 3.5 2.6 -1.5
v 3.5 2.3 -1.7
v 3.5 2.4 -1.7
v 3.6 2.3 -1.7
v 3.6 2.4 -1.7
v 3.5 2.2 -2
v 3.5 2.3 -2
v 3.6 2.2 -2
v 3.6 2.3 -2
v 3.5 2.1 -2.3
v 3.5 2.2 -2.3
v 3.6 2.1 -2.3
v 3.6 2.2 -2.3
v 3.5 2.1 -0.9
v 3.5 2.2 -0.9
v 3.6 2.1 -0.9
v 3.6 2.2 -0.9
v 3.5 2.2 -1.2
v 3.5 2.3 -1.2
v 3.6 2.2 -1.2
v 3.6 2.3 -1.2
v 3.5 2.3 -1.5
v 3.5 2.4 -1.5
v 3.6 2.3 -1.5
v 3.6 2.4 -1.5
v 0 2.5 -1.7
v 0 2.6 -1.7
v 0.3 2.5 -1.7
v 2.4 2.5 -1.7
v 2.4 2.6 -1.7
v 2.5 2.5 -1.7
v 2.5 2.6 -1.7
v 3.4 2.5 -1.7
v 3.4 2.6 -1.7
v 3.5 2.5 -1.7
v 3.5 2.6 -1.7
v 3.5 2.5 -1.9
v 3.5 2.6 -1.9
v 3.6 2.5 -1.9
v 3.6 2.6 -1.9
v 0.3 2.4 -2
v 0.3 2.5 -2
v 0.6 2.4 -2
v 1.9 2.4 -2
v 1.9 2.5 -2
v 2 2.4 -2
v 2 2.5 -2
v 2.4 2.4 -2
v 2.4 2.5 -2
v 2.6 2.4 -2
v 2.6 2.5 -2
v 3 2.4 -2
v 3 2.5 -2
v 3.2 2.4 -2
v 3.2 2.5 -2
v 3.4 2.4 -2
v 3.4 2.5 -2
v 3.5 2.4 -2
v 3.5 2.5 -2
v 3.5 2.4 -2.2
v 3.5 2.5 -2.2
v 3.6 2.4 -2.2
v 3.6 2.5 -2.2
v 0.6 2.3 -2.3
v 0.6 2.4 -2.3
v 0.9 2.3 -2.3
v 1.6 2.3 -2.3
v 1.6 2.4 -2.3
v 1.7 2.3 -2.3
v 1.7 2.4 -2.3
v 2.2 2.3 -2.3
v 2.2 2.4 -2.3
v 2.3 2.3 -2.3
v 2.3 2.4 -2.3
v 2.9 2.3 -2.3
v 2.9 2.4 -2.3
v 3 2.3 -2.3
v 3 2.4 -2.3
v 3.4 2.3 -2.3
v 3.4 2.4 -2.3
v 3.5 2.3 -2.3
v 3.5 2.4 -2.3
v 3.5 2.3 -2.5
v 3.5 2.4 -2.5
v 3.6 2.3 -2.5
v 3.6 2.4 -2.5
v 0.9 2.2 -2.6
v 0.9 2.3 -2.6
v 1.2 2.2 -2.6
v 1.7 2.2 -2.6
v 1.7 2.3 -2.6
v 1.8 2.2 -2.6
v 1.8 2.3 -2.6
v 2.7 2.2 -2.6
v 2.7 2.3 -2.6
v 2.8 2.2 -2.6
v 2.8 2.3 -2.6
v 3.4 2.2 -2.6
v 3.4 2.3 -2.6
v 3.5 2.2 -2.6
v 3.5 2.3 -2.6
v 3.5 2.2 -2.8
v 3.5 2.3 -2.8
v 3.6 2.2 -2.8
v 3.6 2.3 -2.8
v 1.2 2.1 -2.9
v 1.2 2.2 -2.9
v 1.5 2.1 -2.9
v 1.6 2.1 -2.9
v 1.6 2.2 -2.9
v 1.7 2.1 -2.9
v 1.7 2.2 -2.9
v 3.1 2.1 -2.9
v 3.1 2.2 -2.9
v 3.2 2.1 -2.9
v 3.2 2.2 -2.9
v 3.4 2.1 -2.9
v 3.4 2.2 -2.9
v 3.5 2.1 -2.9
v 3.5 2.2 -2.9
v 3.5 2.1 -3.1
v 3.5 2.2 -3.1
v 3.6 2.1 -3.1
v 3.6 2.2 -3.1
v 1.5 2 -3.2
v 1.5 2.1 -3.2
v 3.6 2 -3.2
v 3.6 2.1 -3.2
v 1.5 2 0
v 3.6 2 0
v 3.4 2 -0.1
v 3.5 2 -0.1
v 1.5 2 -0.2
v 3.4 2 -0.2
v 1.5 2 -0.3
v 3.5 2 -0.3
v 3.5 2 -0.6
v 3.6 2 -0.6
v 3.5 2 -0.7
v 3.6 2 -0.7
v 3.5 2 -1.2
v 3.6 2 -1.2
v 3.5 2 -1.4
v 3.6 2 -1.4
v 3.5 2 -1.6
v 3.6 2 -1.6
v 3.5 2 -1.7
v 3.6 2 -1.7
v 3.5 2 -2
v 3.6 2 -2
v 3.5 2 -2.2
v 3.6 2 -2.2
v 3.5 2 -2.3
v 3.6 2 -2.3
v 3.5 2 -2.4
v 3.6 2 -2.4
v 3.5 2 -2.7
v 3.6 2 -2.7
v 3.5 2 -2.8
v 3.6 2 -2.8
v 1.5 2 -2.9
v 3.5 2 -2.9
v 3.6 2 -2.9
v 1.5 2 -3
v 3.4 2 -3
v 3.5 2 -3
v 3.6 2 -3
v 3.4 2 -3.1
v 3.5 2 -3.1
v 1.5 2 -3.2
v 3.6 2 -3.2
v 1.2 2.1 -0.3
v 1.5 2.1 -0.3
v 1.2 2.1 -0.5
v 1.5 2.1 -0.5
v 1.2 2.1 -0.6
v 1.5 2.1 -0.6
v 1.2 2.1 -2.6
v 1.5 2.1 -2.6
v 1.2 2.1 -2.7
v 1.5 2.1 -2.7
v 1.2 2.1 -2.9
v 1.5 2.1 -2.9
v 0.9 2.2 -0.6
v 1.2 2.2 -0.6
v 0.9 2.2 -0.8
v 1.2 2.2 -0.8
v 0.9 2.2 -0.9
v 1.2 2.2 -0.9
v 3.5 2.2 -0.9
v 3.6 2.2 -0.9
v 3.5 2.2 -1
v 3.6 2.2 -1
v 3.5 2.2 -1.1
v 3.6 2.2 -1.1
v 3.5 2.2 -1.2
v 3.6 2.2 -1.2
v 3.5 2.2 -2
v 3.6 2.2 -2
v 3.5 2.2 -2.1
v 3.5 2.2 -2.2
v 3.6 2.2 -2.2
v 0.9 2.2 -2.3
v 1.2 2.2 -2.3
v 3.5 2.2 -2.3
v 3.6 2.2 -2.3
v 0.9 2.2 -2.4
v 1.2 2.2 -2.4
v 0.9 2.2 -2.6
v 1.2 2.2 -2.6
v 0.6 2.3 -0.9
v 0.9 2.3 -0.9
v 0.6 2.3 -1.1
v 0.9 2.3 -1.1
v 0.6 2.3 -1.2
v 0.9 2.3 -1.2
v 3.5 2.3 -1.2
v 3.6 2.3 -1.2
v 3.5 2.3 -1.3
v 3.5 2.3 -1.4
v 3.6 2.3 -1.4
v 3.5 2.3 -1.5
v 3.6 2.3 -1.5
v 3.5 2.3 -1.7
v 3.6 2.3 -1.7
v 0.6 2.3 -2
v 0.9 2.3 -2
v 3.5 2.3 -2
v 3.6 2.3 -2
v 0.6 2.3 -2.1
v 0.9 2.3 -2.1
v 0.6 2.3 -2.3
v 0.9 2.3 -2.3
v 0.3 2.4 -1.2
v 0.6 2.4 -1.2
v 0.3 2.4 -1.4
v 0.6 2.4 -1.4
v 0.3 2.4 -1.5
v 0.6 2.4 -1.5
v 3.5 2.4 -1.5
v 3.6 2.4 -1.5
v 3.5 2.4 -1.6
v 3.6 2.4 -1.6
v 0.3 2.4 -1.7
v 0.6 2.4 -1.7
v 3.5 2.4 -1.7
v 3.6 2.4 -1.7
v 0.3 2.4 -1.8
v 0.4 2.4 -1.8
v 0.5 2.4 -1.8
v 0.6 2.4 -1.8
v 0.4 2.4 -1.9
v 0.5 2.4 -1.9
v 0.3 2.4 -2
v 0.6 2.4 -2
v 0 2.5 -1.5
v 0.2 2.5 -1.5
v 0.3 2.5 -1.5
v 0.2 2.5 -1.6
v 0.3 2.5 -1.6
v 0 2.5 -1.7
v 0.3 2.5 -1.7
v 1.5 2.1 0
v 3.6 2.1 0
v 3.4 2.1 -0.1
v 3.5 2.1 -0.1
v 3.6 2.1 -0.1
v 1.5 2.1 -0.2
v 3.4 2.1 -0.2
v 1.5 2.1 -0.3
v 3.4 2.1 -0.3
v 3.5 2.1 -0.3
v 3.5 2.1 -0.9
v 3.6 2.1 -0.9
v 3.5 2.1 -1
v 3.5 2.1 -1.1
v 3.5 2.1 -1.2
v 3.6 2.1 -1.2
v 3.5 2.1 -1.3
v 3.5 2.1 -1.4
v 3.6 2.1 -1.4
v 3.5 2.1 -1.6
v 3.6 2.1 -1.6
v 3.5 2.1 -1.7
v 3.6 2.1 -1.7
v 3.5 2.1 -2
v 3.6 2.1 -2
v 3.5 2.1 -2.1
v 3.5 2.1 -2.2
v 3.6 2.1 -2.2
v 3.5 2.1 -2.3
v 3.6 2.1 -2.3
v 1.5 2.1 -2.9
v 1.6 2.1 -2.9
v 1.7 2.1 -2.9
v 3.1 2.1 -2.9
v 3.2 2.1 -2.9
v 3.4 2.1 -2.9
v 3.5 2.1 -2.9
v 1.5 2.1 -3
v 3.4 2.1 -3
v 3.4 2.1 -3.1
v 3.5 2.1 -3.1
v 3.6 2.1 -3.1
v 1.5 2.1 -3.2
v 3.6 2.1 -3.2
v 3.5 2.2 -0.1
v 3.6 2.2 -0.1
v 1.2 2.2 -0.3
v 3.4 2.2 -0.3
v 3.5 2.2 -0.3
v 3.6 2.2 -0.3
v 1.5 2.2 -0.4
v 1.6 2.2 -0.4
v 1.8 2.2 -0.4
v 1.9 2.2 -0.4
v 2.9 2.2 -0.4
v 3 2.2 -0.4
v 3.3 2.2 -0.4
v 3.4 2.2 -0.4
v 3.5 2.2 -0.4
v 3.6 2.2 -0.4
v 1.2 2.2 -0.5
v 1.5 2.2 -0.5
v 1.6 2.2 -0.5
v 1.8 2.2 -0.5
v 1.9 2.2 -0.5
v 2.9 2.2 -0.5
v 3 2.2 -0.5
v 3.3 2.2 -0.5
v 3.5 2.2 -0.5
v 1.2 2.2 -0.6
v 1.3 2.2 -0.6
v 1.4 2.2 -0.6
v 2.2 2.2 -0.6
v 2.6 2.2 -0.6
v 3.4 2.2 -0.6
v 3.5 2.2 -0.6
v 1.2 2.2 -2.6
v 1.7 2.2 -2.6
v 1.8 2.2 -2.6
v 2.7 2.2 -2.6
v 2.8 2.2 -2.6
v 3.4 2.2 -2.6
v 3.5 2.2 -2.6
v 1.2 2.2 -2.7
v 2 2.2 -2.7
v 2.2 2.2 -2.7
v 2.4 2.2 -2.7
v 2.6 2.2 -2.7
v 2.8 2.2 -2.7
v 2.9 2.2 -2.7
v 3.3 2.2 -2.7
v 1.6 2.2 -2.8
v 1.7 2.2 -2.8
v 2 2.2 -2.8
v 2.2 2.2 -2.8
v 2.4 2.2 -2.8
v 2.6 2.2 -2.8
v 2.8 2.2 -2.8
v 2.9 2.2 -2.8
v 3.1 2.2 -2.8
v 3.2 2.2 -2.8
v 3.3 2.2 -2.8
v 3.4 2.2 -2.8
v 3.5 2.2 -2.8
v 3.6 2.2 -2.8
v 1.2 2.2 -2.9
v 1.6 2.2 -2.9
v 1.7 2.2 -2.9
v 3.1 2.2 -2.9
v 3.2 2.2 -2.9
v 3.4 2.2 -2.9
v 3.5 2.2 -2.9
v 3.6 2.2 -2.9
v 3.5 2.2 -3.1
v 3.6 2.2 -3.1
v 3.5 2.3 -0.4
v 3.6 2.3 -0.4
v 3.5 2.3 -0.5
v 3.6 2.3 -0.5
v 0.9 2.3 -0.6
v 1.3 2.3 -0.6
v 1.4 2.3 -0.6
v 2.2 2.3 -0.6
v 2.6 2.3 -0.6
v 3.4 2.3 -0.6
v 3.5 2.3 -0.6
v 1.3 2.3 -0.7
v 1.4 2.3 -0.7
v 1.5 2.3 -0.7
v 1.6 2.3 -0.7
v 2.2 2.3 -0.7
v 2.6 2.3 -0.7
v 2.7 2.3 -0.7
v 3.1 2.3 -0.7
v 3.3 2.3 -0.7
v 3.4 2.3 -0.7
v 3.5 2.3 -0.7
v 3.6 2.3 -0.7
v 0.9 2.3 -0.8
v 1.5 2.3 -0.8
v 1.6 2.3 -0.8
v 2.7 2.3 -0.8
v 3.1 2.3 -0.8
v 3.3 2.3 -0.8
v 0.9 2.3 -0.9
v 1.7 2.3 -0.9
v 1.9 2.3 -0.9
v 2.2 2.3 -0.9
v 2.3 2.3 -0.9
v 3.4 2.3 -0.9
v 3.5 2.3 -0.9
v 0.9 2.3 -2.3
v 1.6 2.3 -2.3
v 1.7 2.3 -2.3
v 2.2 2.3 -2.3
v 2.3 2.3 -2.3
v 2.9 2.3 -2.3
v 3 2.3 -2.3
v 3.4 2.3 -2.3
v 3.5 2.3 -2.3
v 0.9 2.3 -2.4
v 1.7 2.3 -2.4
v 1.8 2.3 -2.4
v 2.4 2.3 -2.4
v 2.5 2.3 -2.4
v 2.9 2.3 -2.4
v 3 2.3 -2.4
v 3.3 2.3 -2.4
v 2.4 2.3 -2.5
v 2.5 2.3 -2.5
v 2.7 2.3 -2.5
v 2.8 2.3 -2.5
v 2.9 2.3 -2.5
v 3 2.3 -2.5
v 3.3 2.3 -2.5
v 3.4 2.3 -2.5
v 3.5 2.3 -2.5
v 3.6 2.3 -2.5
v 0.9 2.3 -2.6
v 1.7 2.3 -2.6
v 1.8 2.3 -2.6
v 2.7 2.3 -2.6
v 2.8 2.3 -2.6
v 3.4 2.3 -2.6
v 3.5 2.3 -2.6
v 3.6 2.3 -2.6
v 3.5 2.3 -2.8
v 3.6 2.3 -2.8
v 3.5 2.4 -0.7
v 3.6 2.4 -0.7
v 0.6 2.4 -0.9
v 1.7 2.4 -0.9
v 1.9 2.4 -0.9
v 2.2 2.4 -0.9
v 2.3 2.4 -0.9
v 3.4 2.4 -0.9
v 3.5 2.4 -0.9
v 1.1 2.4 -1
v 1.2 2.4 -1
v 1.7 2.4 -1
v 1.9 2.4 -1
v 2.2 2.4 -1
v 2.3 2.4 -1
v 2.7 2.4 -1
v 2.9 2.4 -1
v 3.3 2.4 -1
v 3.4 2.4 -1
v 3.5 2.4 -1
v 3.6 2.4 -1
v 0.6 2.4 -1.1
v 1.1 2.4 -1.1
v 1.2 2.4 -1.1
v 2.7 2.4 -1.1
v 2.9 2.4 -1.1
v 3.3 2.4 -1.1
v 0.6 2.4 -1.2
v 1.6 2.4 -1.2
v 1.7 2.4 -1.2
v 2.2 2.4 -1.2
v 2.4 2.4 -1.2
v 2.8 2.4 -1.2
v 2.9 2.4 -1.2
v 3.2 2.4 -1.2
v 3.3 2.4 -1.2
v 3.4 2.4 -1.2
v 3.5 2.4 -1.2
v 0.6 2.4 -2
v 1.9 2.4 -2
v 2 2.4 -2
v 2.4 2.4 -2
v 2.6 2.4 -2
v 3 2.4 -2
v 3.2 2.4 -2
v 3.4 2.4 -2
v 3.5 2.4 -2
v 0.6 2.4 -2.1
v 1 2.4 -2.1
v 1.4 2.4 -2.1
v 2.2 2.4 -2.1
v 2.3 2.4 -2.1
v 3.3 2.4 -2.1
v 1 2.4 -2.2
v 1.4 2.4 -2.2
v 1.6 2.4 -2.2
v 1.7 2.4 -2.2
v 2.9 2.4 -2.2
v 3 2.4 -2.2
v 3.3 2.4 -2.2
v 3.4 2.4 -2.2
v 3.5 2.4 -2.2
v 3.6 2.4 -2.2
v 0.6 2.4 -2.3
v 1.6 2.4 -2.3
v 1.7 2.4 -2.3
v 2.2 2.4 -2.3
v 2.3 2.4 -2.3
v 2.9 2.4 -2.3
v 3 2.4 -2.3
v 3.4 2.4 -2.3
v 3.5 2.4 -2.3
v 3.5 2.4 -2.5
v 3.6 2.4 -2.5
v 3.5 2.5 -1
v 3.6 2.5 -1
v 0.3 2.5 -1.2
v 1.6 2.5 -1.2
v 1.7 2.5 -1.2
v 2.2 2.5 -1.2
v 2.4 2.5 -1.2
v 2.8 2.5 -1.2
v 2.9 2.5 -1.2
v 3.2 2.5 -1.2
v 3.3 2.5 -1.2
v 3.4 2.5 -1.2
v 3.5 2.5 -1.2
v 3.6 2.5 -1.2
v 0.9 2.5 -1.3
v 1 2.5 -1.3
v 1.2 2.5 -1.3
v 1.3 2.5 -1.3
v 2.2 2.5 -1.3
v 2.4 2.5 -1.3
v 2.8 2.5 -1.3
v 2.9 2.5 -1.3
v 3.2 2.5 -1.3
v 3.3 2.5 -1.3
v 3.4 2.5 -1.3
v 3.5 2.5 -1.3
v 3.6 2.5 -1.3
v 0.3 2.5 -1.4
v 0.9 2.5 -1.4
v 1 2.5 -1.4
v 1.2 2.5 -1.4
v 1.3 2.5 -1.4
v 1.6 2.5 -1.4
v 1.7 2.5 -1.4
v 3.3 2.5 -1.4
v 0.3 2.5 -1.5
v 0.7 2.5 -1.5
v 0.8 2.5 -1.5
v 1.4 2.5 -1.5
v 1.6 2.5 -1.5
v 2.2 2.5 -1.5
v 2.5 2.5 -1.5
v 3.1 2.5 -1.5
v 3.2 2.5 -1.5
v 3.4 2.5 -1.5
v 3.5 2.5 -1.5
v 0.3 2.5 -1.7
v 2.4 2.5 -1.7
v 2.5 2.5 -1.7
v 3.4 2.5 -1.7
v 3.5 2.5 -1.7
v 0.3 2.5 -1.8
v 0.4 2.5 -1.8
v 0.5 2.5 -1.8
v 0.9 2.5 -1.8
v 1 2.5 -1.8
v 3.3 2.5 -1.8
v 3.5 2.5 -1.8
v 0.4 2.5 -1.9
v 0.5 2.5 -1.9
v 0.9 2.5 -1.9
v 1 2.5 -1.9
v 1.9 2.5 -1.9
v 2 2.5 -1.9
v 2.4 2.5 -1.9
v 2.6 2.5 -1.9
v 3 2.5 -1.9
v 3.2 2.5 -1.9
v 3.3 2.5 -1.9
v 3.4 2.5 -1.9
v 3.5 2.5 -1.9
v 3.6 2.5 -1.9
v 0.3 2.5 -2
v 1.9 2.5 -2
v 2 2.5 -2
v 2.4 2.5 -2
v 2.6 2.5 -2
v 3 2.5 -2
v 3.2 2.5 -2
v 3.4 2.5 -2
v 3.5 2.5 -2
v 3.6 2.5 -2
v 3.5 2.5 -2.2
v 3.6 2.5 -2.2
v 3.5 2.6 -1.3
v 3.6 2.6 -1.3
v 0 2.6 -1.5
v 0.2 2.6 -1.5
v 0.3 2.6 -1.5
v 0.7 2.6 -1.5
v 0.8 2.6 -1.5
v 1.4 2.6 -1.5
v 1.6 2.6 -1.5
v 2.2 2.6 -1.5
v 2.5 2.6 -1.5
v 3.1 2.6 -1.5
v 3.2 2.6 -1.5
v 3.4 2.6 -1.5
v 3.5 2.6 -1.5
v 0.2 2.6 -1.6
v 0.3 2.6 -1.6
v 0.7 2.6 -1.6
v 0.8 2.6 -1.6
v 1.4 2.6 -1.6
v 1.6 2.6 -1.6
v 2.2 2.6 -1.6
v 2.4 2.6 -1.6
v 3.1 2.6 -1.6
v 3.2 2.6 -1.6
v 0 2.6 -1.7
v 2.4 2.6 -1.7
v 2.5 2.6 -1.7
v 3.4 2.6 -1.7
v 3.5 2.6 -1.7
v 3.5 2.6 -1.8
v 3.6 2.6 -1.8
v 3.5 2.6 -1.9
v 3.6 2.6 -1.9

# faces
f 3/5/1 2/5/1 1/5/1
f 4/5/1 2/5/1 3/5/1
f 11/5/1 6/5/1 5/5/1
f 12/6/1 7/6/1 6/6/1
f 12/5/1 6/5/1 11/5/1
f 13/5/1 8/5/1 7/5/1
f 13/6/1 7/6/1 12/6/1
f 14/5/1 8/5/1 13/5/1
f 15/6/1 9/6/1 8/6/1
f 15/5/1 8/5/1 14/5/1
f 16/5/1 10/5/1 9/5/1
f 16/6/1 9/6/1 15/6/1
f 17/5/1 10/5/1 16/5/1
f 24/5/1 19/5/1 18/5/1
f 25/6/1 20/6/1 19/6/1
f 25/5/1 19/5/1 24/5/1
f 26/5/1 21/5/1 20/5/1
f 26/6/1 20/6/1 25/6/1
f 27/5/1 21/5/1 26/5/1
f 28/5/1 21/5/1 27/5/1
f 29/5/1 21/5/1 28/5/1
f 30/5/1 21/5/1 29/5/1
f 31/6/1 22/6/1 21/6/1
f 31/5/1 21/5/1 30/5/1
f 32/5/1 23/5/1 22/5/1
f 32/6/1 22/6/1 31/6/1
f 33/5/1 23/5/1 32/5/1
f 40/5/1 35/5/1 34/5/1
f 41/6/1 36/6/1 35/6/1
f 41/5/1 35/5/1 40/5/1
f 42/5/1 37/5/1 36/5/1
f 42/6/1 36/6/1 41/6/1
f 43/5/1 37/5/1 42/5/1
f 44/5/1 37/5/1 43/5/1
f 45/5/1 37/5/1 44/5/1
f 46/5/1 37/5/1 45/5/1
f 47/6/1 38/6/1 37/6/1
f 47/5/1 37/5/1 46/5/1
f 48/5/1 39/5/1 38/5/1
f 48/6/1 38/6/1 47/6/1
f 49/5/1 39/5/1 48/5/1
f 56/5/1 51/5/1 50/5/1
f 57/6/1 52/6/1 51/6/1
f 57/5/1 51/5/1 56/5/1
f 58/5/1 53/5/1 52/5/1
f 58/6/1 52/6/1 57/6/1
f 59/5/1 53/5/1 58/5/1
f 60/5/1 53/5/1 59/5/1
f 61/5/1 53/5/1 60/5/1
f 62/5/1 53/5/1 61/5/1
f 63/6/1 54/6/1 53/6/1
f 63/5/1 53/5/1 62/5/1
f 64/5/1 55/5/1 54/5/1
f 64/6/1 54/6/1 63/6/1
f 65/5/1 55/5/1 64/5/1
f 72/6/1 67/6/1 66/6/1
f 73/7/1 68/7/1 67/7/1
f 73/6/1 67/6/1 72/6/1
f 74/6/1 69/6/1 68/6/1
f 74/7/1 68/7/1 73/7/1
f 75/6/1 69/6/1 74/6/1
f 76/6/1 69/6/1 75/6/1
f 77/6/1 69/6/1 76/6/1
f 78/6/1 69/6/1 77/6/1
f 79/7/1 70/7/1 69/7/1
f 79/6/1 69/6/1 78/6/1
f 80/6/1 71/6/1 70/6/1
f 80/7/1 70/7/1 79/7/1
f 81/6/1 71/6/1 80/6/1
f 86/6/1 83/6/1 82/6/1
f 87/6/1 83/6/1 86/6/1
f 93/6/1 85/6/1 84/6/1
f 94/6/1 85/6/1 93/6/1
f 95/3/1 89/3/1 88/3/1
f 96/6/1 90/6/1 89/6/1
f 96/3/1 89/3/1 95/3/1
f 97/6/1 90/6/1 96/6/1
f 102/6/1 92/6/1 91/6/1
f 103/6/1 92/6/1 102/6/1
f 104/6/1 99/6/1 98/6/1
f 105/6/1 99/6/1 104/6/1
f 110/6/1 101/6/1 100/6/1
f 111/6/1 101/6/1 110/6/1
f 112/6/1 107/6/1 106/6/1
f 113/6/1 107/6/1 112/6/1
f 119/6/1 109/6/1 108/6/1
f 120/6/1 109/6/1 119/6/1
f 121/6/1 115/6/1 114/6/1
f 122/6/1 115/6/1 121/6/1
f 123/6/1 117/6/1 116/6/1
f 124/3/1 118/3/1 117/3/1
f 124/6/1 117/6/1 123/6/1
f 125/3/1 118/3/1 124/3/1
f 126/4/2 127/4/2 138/4/2
f 127/1/2 128/1/2 139/1/2
f 138/4/2 127/4/2 139/4/2
f 128/4/2 129/4/2 140/4/2
f 139/1/2 128/1/2 140/1/2
f 129/1/2 130/1/2 141/1/2
f 140/4/2 129/4/2 141/4/2
f 130/2/2 131/2/2 142/2/2
f 141/1/2 130/1/2 142/1/2
f 131/4/2 132/4/2 143/4/2
f 142/2/2 131/2/2 143/2/2
f 143/4/2 132/4/2 144/4/2
f 132/2/2 133/2/2 145/2/2
f 144/4/2 132/4/2 145/4/2
f 133/2/2 134/2/2 145/2/2
f 134/2/2 135/2/2 145/2/2
f 145/2/2 135/2/2 146/2/2
f 146/2/2 135/2/2 147/2/2
f 136/1/2 137/1/2 148/1/2
f 147/2/2 135/2/2 148/2/2
f 135/1/2 136/1/2 148/1/2
f 148/1/2 137/1/2 149/1/2
f 149/1/2 137/1/2 150/1/2
f 141/1/2 142/1/2 151/1/2
f 142/4/2 143/4/2 152/4/2
f 151/1/2 142/1/2 152/1/2
f 143/2/2 144/2/2 153/2/2
f 152/4/2 143/4/2 153/4/2
f 144/1/2 145/1/2 154/1/2
f 153/2/2 144/2/2 154/2/2
f 145/2/2 146/2/2 155/2/2
f 154/1/2 145/1/2 155/1/2
f 146/1/2 147/1/2 156/1/2
f 155/2/2 146/2/2 156/2/2
f 156/1/2 147/1/2 157/1/2
f 154/1/2 155/1/2 158/1/2
f 155/4/2 156/4/2 159/4/2
f 158/1/2 155/1/2 159/1/2
f 159/4/2 156/4/2 160/4/2
f 161/6/2 162/6/2 177/6/2
f 177/6/2 162/6/2 178/6/2
f 178/6/2 162/6/2 179/6/2
f 179/6/2 162/6/2 180/6/2
f 162/3/2 163/3/2 181/3/2
f 163/6/2 164/6/2 181/6/2
f 181/6/2 164/6/2 182/6/2
f 182/6/2 164/6/2 183/6/2
f 164/3/2 165/3/2 184/3/2
f 183/6/2 164/6/2 184/6/2
f 165/6/2 166/6/2 185/6/2
f 184/3/2 165/3/2 185/3/2
f 166/3/2 167/3/2 186/3/2
f 185/6/2 166/6/2 186/6/2
f 167/6/2 168/6/2 187/6/2
f 186/3/2 167/3/2 187/3/2
f 168/3/2 169/3/2 188/3/2
f 187/6/2 168/6/2 188/6/2
f 169/6/2 170/6/2 189/6/2
f 188/3/2 169/3/2 189/3/2
f 170/3/2 171/3/2 190/3/2
f 189/6/2 170/6/2 190/6/2
f 171/6/2 172/6/2 191/6/2
f 190/3/2 171/3/2 191/3/2
f 191/6/2 172/6/2 192/6/2
f 172/3/2 173/3/2 193/3/2
f 192/6/2 172/6/2 193/6/2
f 173/6/2 174/6/2 194/6/2
f 193/3/2 173/3/2 194/3/2
f 174/3/2 175/3/2 195/3/2
f 194/6/2 174/6/2 195/6/2
f 175/6/2 176/6/2 196/6/2
f 195/3/2 175/3/2 196/3/2
f 196/6/2 176/6/2 197/6/2
f 197/6/2 176/6/2 198/6/2
f 178/6/2 179/6/2 199/6/2
f 179/3/2 180/3/2 200/3/2
f 199/6/2 179/6/2 200/6/2
f 200/3/2 180/3/2 201/3/2
f 180/6/2 162/6/2 202/6/2
f 181/3/2 182/3/2 202/3/2
f 162/3/2 181/3/2 202/3/2
f 182/6/2 183/6/2 203/6/2
f 202/3/2 182/3/2 203/3/2
f 203/6/2 183/6/2 204/6/2
f 190/6/2 191/6/2 210/6/2
f 191/6/2 192/6/2 210/6/2
f 210/6/2 192/6/2 211/6/2
f 192/3/2 193/3/2 212/3/2
f 193/6/2 194/6/2 213/6/2
f 212/3/2 193/3/2 213/3/2
f 194/3/2 195/3/2 214/3/2
f 213/6/2 194/6/2 214/6/2
f 196/6/2 197/6/2 215/6/2
f 214/3/2 195/3/2 215/3/2
f 195/6/2 196/6/2 215/6/2
f 215/6/2 197/6/2 216/6/2
f 201/3/2 180/3/2 217/3/2
f 180/6/2 202/6/2 218/6/2
f 217/3/2 180/3/2 218/3/2
f 202/6/2 203/6/2 218/6/2
f 203/6/2 204/6/2 218/6/2
f 204/6/2 205/6/2 218/6/2
f 218/6/2 205/6/2 219/6/2
f 206/6/2 207/6/2 220/6/2
f 208/6/2 209/6/2 224/6/2
f 224/6/2 209/6/2 225/6/2
f 210/3/2 211/3/2 226/3/2
f 225/6/2 209/6/2 226/6/2
f 209/3/2 210/3/2 226/3/2
f 211/6/2 192/6/2 227/6/2
f 226/3/2 211/3/2 227/3/2
f 192/3/2 212/3/2 228/3/2
f 227/6/2 192/6/2 228/6/2
f 212/6/2 213/6/2 229/6/2
f 228/3/2 212/3/2 229/3/2
f 213/6/2 214/6/2 229/6/2
f 229/6/2 214/6/2 230/6/2
f 219/6/2 205/6/2 231/6/2
f 205/3/2 206/3/2 232/3/2
f 231/6/2 205/6/2 232/6/2
f 220/6/2 221/6/2 233/6/2
f 232/3/2 206/3/2 233/3/2
f 206/6/2 220/6/2 233/6/2
f 233/6/2 221/6/2 234/6/2
f 221/3/2 222/3/2 235/3/2
f 234/6/2 221/6/2 235/6/2
f 235/3/2 222/3/2 236/3/2
f 223/6/2 224/6/2 238/6/2
f 238/6/2 224/6/2 239/6/2
f 224/3/2 225/3/2 240/3/2
f 239/6/2 224/6/2 240/6/2
f 227/6/2 228/6/2 241/6/2
f 240/3/2 225/3/2 241/3/2
f 225/6/2 226/6/2 241/6/2
f 226/6/2 227/6/2 241/6/2
f 241/6/2 228/6/2 242/6/2
f 242/6/2 228/6/2 243/6/2
f 233/6/2 234/6/2 244/6/2
f 232/6/2 233/6/2 244/6/2
f 234/3/2 235/3/2 245/3/2
f 244/6/2 234/6/2 245/6/2
f 245/3/2 235/3/2 246/3/2
f 236/6/2 237/6/2 247/6/2
f 246/3/2 235/3/2 247/3/2
f 235/6/2 236/6/2 247/6/2
f 237/3/2 238/3/2 248/3/2
f 247/6/2 237/6/2 248/6/2
f 238/6/2 239/6/2 249/6/2
f 248/3/2 238/3/2 249/3/2
f 249/6/2 239/6/2 250/6/2
f 239/3/2 240/3/2 251/3/2
f 250/6/2 239/6/2 251/6/2
f 241/6/2 242/6/2 252/6/2
f 251/3/2 240/3/2 252/3/2
f 240/6/2 241/6/2 252/6/2
f 252/6/2 242/6/2 253/6/2
f 249/6/2 250/6/2 254/6/2
f 247/6/2 248/6/2 254/6/2
f 248/6/2 249/6/2 254/6/2
f 246/6/2 247/6/2 254/6/2
f 250/3/2 251/3/2 255/3/2
f 254/6/2 250/6/2 255/6/2
f 255/3/2 251/3/2 256/3/2
f 259/6/3 258/6/3 257/6/3
f 260/6/3 258/6/3 259/6/3
f 263/6/3 262/6/3 261/6/3
f 264/6/3 262/6/3 263/6/3
f 267/5/3 266/5/3 265/5/3
f 268/5/3 266/5/3 267/5/3
f 269/5/3 266/5/3 268/5/3
f 270/6/3 269/6/3 268/6/3
f 271/6/3 269/6/3 270/6/3
f 274/3/3 273/3/3 272/3/3
f 275/3/3 273/3/3 274/3/3
f 278/5/3 277/5/3 276/5/3
f 279/5/3 277/5/3 278/5/3
f 280/5/3 277/5/3 279/5/3
f 281/6/3 280/6/3 279/6/3
f 282/6/3 280/6/3 281/6/3
f 283/5/3 282/5/3 281/5/3
f 284/5/3 282/5/3 283/5/3
f 285/6/3 284/6/3 283/6/3
f 286/6/3 284/6/3 285/6/3
f 287/5/3 286/5/3 285/5/3
f 288/5/3 286/5/3 287/5/3
f 289/6/3 288/6/3 287/6/3
f 290/6/3 288/6/3 289/6/3
f 293/6/3 292/6/3 291/6/3
f 294/6/3 292/6/3 293/6/3
f 297/5/3 296/5/3 295/5/3
f 298/5/3 296/5/3 297/5/3
f 299/5/3 296/5/3 298/5/3
f 300/6/3 299/6/3 298/6/3
f 301/6/3 299/6/3 300/6/3
f 302/5/3 301/5/3 300/5/3
f 303/5/3 301/5/3 302/5/3
f 304/6/3 303/6/3 302/6/3
f 305/6/3 303/6/3 304/6/3
f 306/5/3 305/5/3 304/5/3
f 307/5/3 305/5/3 306/5/3
f 308/6/3 307/6/3 306/6/3
f 309/6/3 307/6/3 308/6/3
f 312/6/3 311/6/3 310/6/3
f 313/6/3 311/6/3 312/6/3
f 316/5/3 315/5/3 314/5/3
f 317/5/3 315/5/3 316/5/3
f 318/5/3 315/5/3 317/5/3
f 319/6/3 318/6/3 317/6/3
f 320/6/3 318/6/3 319/6/3
f 321/5/3 320/5/3 319/5/3
f 322/5/3 320/5/3 321/5/3
f 323/6/3 322/6/3 321/6/3
f 324/6/3 322/6/3 323/6/3
f 325/5/3 324/5/3 323/5/3
f 326/5/3 324/5/3 325/5/3
f 327/6/3 326/6/3 325/6/3
f 328/6/3 326/6/3 327/6/3
f 329/5/3 328/5/3 327/5/3
f 330/5/3 328/5/3 329/5/3
f 331/6/3 330/6/3 329/6/3
f 332/6/3 330/6/3 331/6/3
f 333/5/3 332/5/3 331/5/3
f 334/5/3 332/5/3 333/5/3
f 335/6/3 334/6/3 333/6/3
f 336/6/3 334/6/3 335/6/3
f 339/6/3 338/6/3 337/6/3
f 340/6/3 338/6/3 339/6/3
f 343/5/3 342/5/3 341/5/3
f 344/5/3 342/5/3 343/5/3
f 345/6/3 344/6/3 343/6/3
f 346/6/3 344/6/3 345/6/3
f 347/5/3 346/5/3 345/5/3
f 348/5/3 346/5/3 347/5/3
f 349/6/3 348/6/3 347/6/3
f 350/6/3 348/6/3 349/6/3
f 351/5/3 350/5/3 349/5/3
f 352/5/3 350/5/3 351/5/3
f 353/6/3 352/6/3 351/6/3
f 354/6/3 352/6/3 353/6/3
f 355/5/3 354/5/3 353/5/3
f 356/5/3 354/5/3 355/5/3
f 357/6/3 356/6/3 355/6/3
f 358/6/3 356/6/3 357/6/3
f 359/5/3 358/5/3 357/5/3
f 360/5/3 358/5/3 359/5/3
f 361/6/3 360/6/3 359/6/3
f 362/6/3 360/6/3 361/6/3
f 363/5/3 362/5/3 361/5/3
f 364/5/3 362/5/3 363/5/3
f 365/6/3 364/6/3 363/6/3
f 366/6/3 364/6/3 365/6/3
f 369/6/3 368/6/3 367/6/3
f 370/6/3 368/6/3 369/6/3
f 373/6/3 372/6/3 371/6/3
f 374/6/3 372/6/3 373/6/3
f 377/6/3 376/6/3 375/6/3
f 378/6/3 376/6/3 377/6/3
f 379/6/4 380/6/4 381/6/4
f 381/6/4 380/6/4 382/6/4
f 383/6/4 384/6/4 385/6/4
f 385/6/4 384/6/4 386/6/4
f 387/3/4 388/3/4 389/3/4
f 389/3/4 388/3/4 390/3/4
f 391/5/4 392/5/4 393/5/4
f 393/5/4 392/5/4 394/5/4
f 394/5/4 392/5/4 395/5/4
f 394/6/4 395/6/4 396/6/4
f 396/6/4 395/6/4 397/6/4
f 396/5/4 397/5/4 398/5/4
f 398/5/4 397/5/4 399/5/4
f 398/6/4 399/6/4 400/6/4
f 400/6/4 399/6/4 401/6/4
f 402/3/4 403/3/4 404/3/4
f 404/3/4 403/3/4 405/3/4
f 406/5/4 407/5/4 408/5/4
f 408/5/4 407/5/4 409/5/4
f 409/5/4 407/5/4 410/5/4
f 409/6/4 410/6/4 411/6/4
f 411/6/4 410/6/4 412/6/4
f 411/5/4 412/5/4 413/5/4
f 413/5/4 412/5/4 414/5/4
f 413/6/4 414/6/4 415/6/4
f 415/6/4 414/6/4 416/6/4
f 415/5/4 416/5/4 417/5/4
f 417/5/4 416/5/4 418/5/4
f 417/6/4 418/6/4 419/6/4
f 419/6/4 418/6/4 420/6/4
f 419/5/4 420/5/4 421/5/4
f 421/5/4 420/5/4 422/5/4
f 421/6/4 422/6/4 423/6/4
f 423/6/4 422/6/4 424/6/4
f 425/6/4 426/6/4 427/6/4
f 427/6/4 426/6/4 428/6/4
f 429/5/4 430/5/4 431/5/4
f 431/5/4 430/5/4 432/5/4
f 432/5/4 430/5/4 433/5/4
f 432/6/4 433/6/4 434/6/4
f 434/6/4 433/6/4 435/6/4
f 434/5/4 435/5/4 436/5/4
f 436/5/4 435/5/4 437/5/4
f 436/6/4 437/6/4 438/6/4
f 438/6/4 437/6/4 439/6/4
f 438/5/4 439/5/4 440/5/4
f 440/5/4 439/5/4 441/5/4
f 440/6/4 441/6/4 442/6/4
f 442/6/4 441/6/4 443/6/4
f 442/5/4 443/5/4 444/5/4
f 444/5/4 443/5/4 445/5/4
f 444/6/4 445/6/4 446/6/4
f 446/6/4 445/6/4 447/6/4
f 448/6/4 449/6/4 450/6/4
f 450/6/4 449/6/4 451/6/4
f 452/5/4 453/5/4 454/5/4
f 454/5/4 453/5/4 455/5/4
f 455/5/4 453/5/4 456/5/4
f 455/6/4 456/6/4 457/6/4
f 457/6/4 456/6/4 458/6/4
f 457/5/4 458/5/4 459/5/4
f 459/5/4 458/5/4 460/5/4
f 459/6/4 460/6/4 461/6/4
f 461/6/4 460/6/4 462/6/4
f 461/5/4 462/5/4 463/5/4
f 463/5/4 462/5/4 464/5/4
f 463/6/4 464/6/4 465/6/4
f 465/6/4 464/6/4 466/6/4
f 467/6/4 468/6/4 469/6/4
f 469/6/4 468/6/4 470/6/4
f 471/5/4 472/5/4 473/5/4
f 473/5/4 472/5/4 474/5/4
f 474/5/4 472/5/4 475/5/4
f 474/6/4 475/6/4 476/6/4
f 476/6/4 475/6/4 477/6/4
f 476/5/4 477/5/4 478/5/4
f 478/5/4 477/5/4 479/5/4
f 478/6/4 479/6/4 480/6/4
f 480/6/4 479/6/4 481/6/4
f 480/5/4 481/5/4 482/5/4
f 482/5/4 481/5/4 483/5/4
f 482/6/4 483/6/4 484/6/4
f 484/6/4 483/6/4 485/6/4
f 486/6/4 487/6/4 488/6/4
f 488/6/4 487/6/4 489/6/4
f 490/6/4 491/6/4 492/6/4
f 492/6/4 491/6/4 493/6/4
f 496/6/5 495/6/5 494/6/5
f 497/6/5 495/6/5 496/6/5
f 498/6/5 496/6/5 494/6/5
f 499/7/5 497/7/5 496/7/5
f 499/6/5 496/6/5 498/6/5
f 500/7/5 499/7/5 498/7/5
f 501/6/5 495/6/5 497/6/5
f 501/7/5 499/7/5 500/7/5
f 501/7/5 497/7/5 499/7/5
f 502/6/5 501/6/5 500/6/5
f 502/6/5 495/6/5 501/6/5
f 503/6/5 495/6/5 502/6/5
f 504/6/5 502/6/5 500/6/5
f 504/3/5 503/3/5 502/3/5
f 505/3/5 503/3/5 504/3/5
f 506/6/5 504/6/5 500/6/5
f 506/6/5 505/6/5 504/6/5
f 507/6/5 505/6/5 506/6/5
f 508/6/5 506/6/5 500/6/5
f 508/3/5 507/3/5 506/3/5
f 509/3/5 507/3/5 508/3/5
f 510/6/5 508/6/5 500/6/5
f 510/6/5 509/6/5 508/6/5
f 511/6/5 509/6/5 510/6/5
f 512/6/5 510/6/5 500/6/5
f 512/3/5 511/3/5 510/3/5
f 513/3/5 511/3/5 512/3/5
f 514/6/5 512/6/5 500/6/5
f 514/6/5 513/6/5 512/6/5
f 515/6/5 513/6/5 514/6/5
f 516/6/5 514/6/5 500/6/5
f 516/3/5 515/3/5 514/3/5
f 517/3/5 515/3/5 516/3/5
f 518/6/5 516/6/5 500/6/5
f 518/6/5 517/6/5 516/6/5
f 519/6/5 517/6/5 518/6/5
f 520/6/5 518/6/5 500/6/5
f 520/3/5 519/3/5 518/3/5
f 521/3/5 519/3/5 520/3/5
f 522/6/5 520/6/5 500/6/5
f 522/6/5 521/6/5 520/6/5
f 523/6/5 521/6/5 522/6/5
f 524/6/5 522/6/5 500/6/5
f 524/3/5 523/3/5 522/3/5
f 525/3/5 523/3/5 524/3/5
f 526/6/5 524/6/5 500/6/5
f 526/6/5 525/6/5 524/6/5
f 527/6/5 525/6/5 526/6/5
f 528/6/5 525/6/5 527/6/5
f 529/7/5 527/7/5 526/7/5
f 530/7/5 527/7/5 529/7/5
f 531/3/5 528/3/5 527/3/5
f 531/7/5 527/7/5 530/7/5
f 532/3/5 528/3/5 531/3/5
f 533/6/5 530/6/5 529/6/5
f 533/7/5 531/7/5 530/7/5
f 534/6/5 532/6/5 531/6/5
f 534/7/5 531/7/5 533/7/5
f 535/6/5 533/6/5 529/6/5
f 535/6/5 534/6/5 533/6/5
f 536/6/5 532/6/5 534/6/5
f 536/6/5 534/6/5 535/6/5
f 539/5/5 538/5/5 537/5/5
f 540/5/5 538/5/5 539/5/5
f 541/6/5 540/6/5 539/6/5
f 542/6/5 540/6/5 541/6/5
f 543/5/5 542/5/5 541/5/5
f 544/5/5 542/5/5 543/5/5
f 545/6/5 544/6/5 543/6/5
f 546/6/5 544/6/5 545/6/5
f 547/5/5 546/5/5 545/5/5
f 548/5/5 546/5/5 547/5/5
f 551/5/5 550/5/5 549/5/5
f 552/5/5 550/5/5 551/5/5
f 553/6/5 552/6/5 551/6/5
f 554/6/5 552/6/5 553/6/5
f 557/6/5 556/6/5 555/6/5
f 558/6/5 556/6/5 557/6/5
f 559/3/5 558/3/5 557/3/5
f 560/3/5 558/3/5 559/3/5
f 561/6/5 560/6/5 559/6/5
f 562/6/5 560/6/5 561/6/5
f 565/6/5 564/6/5 563/6/5
f 566/6/5 564/6/5 565/6/5
f 567/6/5 564/6/5 566/6/5
f 568/5/5 554/5/5 553/5/5
f 569/5/5 554/5/5 568/5/5
f 570/3/5 567/3/5 566/3/5
f 571/3/5 567/3/5 570/3/5
f 572/6/5 569/6/5 568/6/5
f 573/6/5 569/6/5 572/6/5
f 574/5/5 573/5/5 572/5/5
f 575/5/5 573/5/5 574/5/5
f 578/5/5 577/5/5 576/5/5
f 579/5/5 577/5/5 578/5/5
f 580/6/5 579/6/5 578/6/5
f 581/6/5 579/6/5 580/6/5
f 584/6/5 583/6/5 582/6/5
f 585/6/5 583/6/5 584/6/5
f 586/6/5 583/6/5 585/6/5
f 587/3/5 586/3/5 585/3/5
f 588/3/5 586/3/5 587/3/5
f 591/5/5 581/5/5 580/5/5
f 592/5/5 581/5/5 591/5/5
f 593/6/5 590/6/5 589/6/5
f 594/6/5 590/6/5 593/6/5
f 595/6/5 592/6/5 591/6/5
f 596/6/5 592/6/5 595/6/5
f 597/5/5 596/5/5 595/5/5
f 598/5/5 596/5/5 597/5/5
f 601/5/5 600/5/5 599/5/5
f 602/5/5 600/5/5 601/5/5
f 603/6/5 602/6/5 601/6/5
f 604/6/5 602/6/5 603/6/5
f 607/6/5 606/6/5 605/6/5
f 608/6/5 606/6/5 607/6/5
f 609/5/5 604/5/5 603/5/5
f 610/5/5 604/5/5 609/5/5
f 611/3/5 608/3/5 607/3/5
f 612/3/5 608/3/5 611/3/5
f 613/6/5 610/6/5 609/6/5
f 614/6/5 610/6/5 613/6/5
f 615/6/5 610/6/5 614/6/5
f 616/6/5 610/6/5 615/6/5
f 617/5/5 614/5/5 613/5/5
f 617/6/5 615/6/5 614/6/5
f 618/5/5 616/5/5 615/5/5
f 618/6/5 615/6/5 617/6/5
f 619/5/5 617/5/5 613/5/5
f 619/5/5 618/5/5 617/5/5
f 620/5/5 616/5/5 618/5/5
f 620/5/5 618/5/5 619/5/5
f 624/5/5 622/5/5 621/5/5
f 624/6/5 623/6/5 622/6/5
f 625/6/5 623/6/5 624/6/5
f 626/5/5 624/5/5 621/5/5
f 626/5/5 625/5/5 624/5/5
f 627/5/5 625/5/5 626/5/5
f 628/6/6 629/6/6 630/6/6
f 630/6/6 629/6/6 631/6/6
f 631/6/6 629/6/6 632/6/6
f 628/6/6 630/6/6 633/6/6
f 630/7/6 631/7/6 634/7/6
f 633/6/6 630/6/6 634/6/6
f 633/7/6 634/7/6 635/7/6
f 634/7/6 631/7/6 636/7/6
f 635/7/6 634/7/6 636/7/6
f 636/7/6 631/7/6 637/7/6
f 638/6/6 639/6/6 640/6/6
f 640/6/6 639/6/6 641/6/6
f 641/6/6 639/6/6 642/6/6
f 642/6/6 639/6/6 643/6/6
f 642/3/6 643/3/6 644/3/6
f 644/3/6 643/3/6 645/3/6
f 645/3/6 643/3/6 646/3/6
f 645/6/6 646/6/6 647/6/6
f 647/6/6 646/6/6 648/6/6
f 647/3/6 648/3/6 649/3/6
f 649/3/6 648/3/6 650/3/6
f 649/6/6 650/6/6 651/6/6
f 651/6/6 650/6/6 652/6/6
f 651/3/6 652/3/6 653/3/6
f 653/3/6 652/3/6 654/3/6
f 654/3/6 652/3/6 655/3/6
f 654/6/6 655/6/6 656/6/6
f 656/6/6 655/6/6 657/6/6
f 658/7/6 659/7/6 665/7/6
f 663/7/6 664/7/6 665/7/6
f 662/7/6 663/7/6 665/7/6
f 661/7/6 662/7/6 665/7/6
f 660/7/6 661/7/6 665/7/6
f 659/7/6 660/7/6 665/7/6
f 665/7/6 664/7/6 666/7/6
f 665/6/6 666/6/6 667/6/6
f 666/7/6 664/7/6 667/7/6
f 667/7/6 664/7/6 668/7/6
f 665/6/6 667/6/6 670/6/6
f 668/6/6 669/6/6 670/6/6
f 667/6/6 668/6/6 670/6/6
f 670/6/6 669/6/6 671/6/6
f 672/6/6 673/6/6 676/6/6
f 676/6/6 673/6/6 677/6/6
f 674/5/6 675/5/6 678/5/6
f 678/5/6 675/5/6 679/5/6
f 679/5/6 675/5/6 680/5/6
f 680/5/6 675/5/6 681/5/6
f 681/5/6 675/5/6 682/5/6
f 682/5/6 675/5/6 683/5/6
f 683/5/6 675/5/6 684/5/6
f 675/6/6 676/6/6 685/6/6
f 684/5/6 675/5/6 685/5/6
f 676/3/6 677/3/6 686/3/6
f 685/6/6 676/6/6 686/6/6
f 686/3/6 677/3/6 687/3/6
f 674/5/6 678/5/6 688/5/6
f 678/6/6 679/6/6 689/6/6
f 688/5/6 678/5/6 689/5/6
f 679/5/6 680/5/6 690/5/6
f 689/6/6 679/6/6 690/6/6
f 680/6/6 681/6/6 691/6/6
f 690/5/6 680/5/6 691/5/6
f 681/5/6 682/5/6 692/5/6
f 691/6/6 681/6/6 692/6/6
f 682/6/6 683/6/6 693/6/6
f 692/5/6 682/5/6 693/5/6
f 683/5/6 684/5/6 694/5/6
f 693/6/6 683/6/6 694/6/6
f 684/6/6 685/6/6 695/6/6
f 694/5/6 684/5/6 695/5/6
f 685/7/6 686/7/6 696/7/6
f 692/6/6 693/6/6 697/6/6
f 693/6/6 694/6/6 697/6/6
f 688/6/6 689/6/6 697/6/6
f 694/6/6 695/6/6 697/6/6
f 689/6/6 690/6/6 697/6/6
f 691/6/6 692/6/6 697/6/6
f 690/6/6 691/6/6 697/6/6
f 697/6/6 695/6/6 698/6/6
f 698/6/6 695/6/6 699/6/6
f 699/6/6 695/6/6 700/6/6
f 700/6/6 695/6/6 701/6/6
f 685/7/6 696/7/6 702/7/6
f 701/6/6 695/6/6 702/6/6
f 695/6/6 685/6/6 702/6/6
f 702/7/6 696/7/6 703/7/6
f 704/6/6 705/6/6 711/6/6
f 705/6/6 706/6/6 711/6/6
f 708/6/6 709/6/6 711/6/6
f 707/6/6 708/6/6 711/6/6
f 706/6/6 707/6/6 711/6/6
f 711/6/6 709/6/6 712/6/6
f 712/6/6 709/6/6 713/6/6
f 713/6/6 709/6/6 714/6/6
f 714/6/6 709/6/6 715/6/6
f 715/6/6 709/6/6 716/6/6
f 716/6/6 709/6/6 717/6/6
f 717/6/6 709/6/6 718/6/6
f 711/5/6 712/5/6 719/5/6
f 719/5/6 712/5/6 720/5/6
f 712/6/6 713/6/6 721/6/6
f 720/5/6 712/5/6 721/5/6
f 713/5/6 714/5/6 722/5/6
f 721/6/6 713/6/6 722/6/6
f 714/6/6 715/6/6 723/6/6
f 722/5/6 714/5/6 723/5/6
f 715/5/6 716/5/6 724/5/6
f 723/6/6 715/6/6 724/6/6
f 716/6/6 717/6/6 725/6/6
f 724/5/6 716/5/6 725/5/6
f 717/5/6 718/5/6 726/5/6
f 725/6/6 717/6/6 726/6/6
f 726/5/6 718/5/6 727/5/6
f 727/5/6 718/5/6 728/5/6
f 718/6/6 709/6/6 729/6/6
f 728/5/6 718/5/6 729/5/6
f 709/7/6 710/7/6 730/7/6
f 729/6/6 709/6/6 730/6/6
f 730/7/6 710/7/6 731/7/6
f 711/5/6 719/5/6 733/5/6
f 719/6/6 720/6/6 734/6/6
f 733/5/6 719/5/6 734/5/6
f 720/5/6 721/5/6 735/5/6
f 734/6/6 720/6/6 735/6/6
f 721/5/6 722/5/6 735/5/6
f 726/5/6 727/5/6 735/5/6
f 725/5/6 726/5/6 735/5/6
f 722/5/6 723/5/6 735/5/6
f 724/5/6 725/5/6 735/5/6
f 723/5/6 724/5/6 735/5/6
f 727/6/6 728/6/6 736/6/6
f 735/5/6 727/5/6 736/5/6
f 729/5/6 730/5/6 737/5/6
f 736/6/6 728/6/6 737/6/6
f 728/5/6 729/5/6 737/5/6
f 730/6/6 731/6/6 738/6/6
f 737/5/6 730/5/6 738/5/6
f 731/3/6 732/3/6 739/3/6
f 738/6/6 731/6/6 739/6/6
f 739/3/6 732/3/6 740/3/6
f 739/6/6 740/6/6 741/6/6
f 741/6/6 740/6/6 742/6/6
f 743/3/6 744/3/6 745/3/6
f 745/3/6 744/3/6 746/3/6
f 745/6/6 746/6/6 753/6/6
f 747/5/6 748/5/6 754/5/6
f 748/6/6 749/6/6 754/6/6
f 749/5/6 750/5/6 755/5/6
f 754/6/6 749/6/6 755/6/6
f 755/5/6 750/5/6 756/5/6
f 756/5/6 750/5/6 757/5/6
f 750/6/6 751/6/6 758/6/6
f 757/5/6 750/5/6 758/5/6
f 751/5/6 752/5/6 759/5/6
f 758/6/6 751/6/6 759/6/6
f 759/5/6 752/5/6 760/5/6
f 760/5/6 752/5/6 761/5/6
f 761/5/6 752/5/6 762/5/6
f 752/6/6 753/6/6 763/6/6
f 762/5/6 752/5/6 763/5/6
f 753/6/6 746/6/6 764/6/6
f 763/6/6 753/6/6 764/6/6
f 764/6/6 746/6/6 765/6/6
f 747/5/6 754/5/6 766/5/6
f 754/5/6 755/5/6 766/5/6
f 755/5/6 756/5/6 766/5/6
f 756/6/6 757/6/6 767/6/6
f 766/5/6 756/5/6 767/5/6
f 757/5/6 758/5/6 768/5/6
f 767/6/6 757/6/6 768/6/6
f 758/5/6 759/5/6 768/5/6
f 759/5/6 760/5/6 768/5/6
f 760/6/6 761/6/6 769/6/6
f 768/5/6 760/5/6 769/5/6
f 761/5/6 762/5/6 770/5/6
f 769/6/6 761/6/6 770/6/6
f 762/6/6 763/6/6 771/6/6
f 770/5/6 762/5/6 771/5/6
f 766/6/6 767/6/6 772/6/6
f 768/6/6 769/6/6 772/6/6
f 770/6/6 771/6/6 772/6/6
f 767/6/6 768/6/6 772/6/6
f 769/6/6 770/6/6 772/6/6
f 772/6/6 771/6/6 773/6/6
f 773/6/6 771/6/6 774/6/6
f 774/6/6 771/6/6 775/6/6
f 775/6/6 771/6/6 776/6/6
f 771/6/6 763/6/6 777/6/6
f 776/6/6 771/6/6 777/6/6
f 763/7/6 764/7/6 777/7/6
f 777/7/6 764/7/6 778/7/6
f 779/6/6 780/6/6 788/6/6
f 780/6/6 781/6/6 788/6/6
f 785/6/6 786/6/6 788/6/6
f 784/6/6 785/6/6 788/6/6
f 783/6/6 784/6/6 788/6/6
f 782/6/6 783/6/6 788/6/6
f 781/6/6 782/6/6 788/6/6
f 788/6/6 786/6/6 789/6/6
f 789/6/6 786/6/6 790/6/6
f 790/6/6 786/6/6 791/6/6
f 791/6/6 786/6/6 792/6/6
f 792/6/6 786/6/6 793/6/6
f 793/6/6 786/6/6 794/6/6
f 794/6/6 786/6/6 795/6/6
f 790/5/6 791/5/6 796/5/6
f 791/6/6 792/6/6 796/6/6
f 792/5/6 793/5/6 797/5/6
f 796/6/6 792/6/6 797/6/6
f 797/5/6 793/5/6 798/5/6
f 798/5/6 793/5/6 799/5/6
f 793/6/6 794/6/6 800/6/6
f 799/5/6 793/5/6 800/5/6
f 794/5/6 795/5/6 801/5/6
f 800/6/6 794/6/6 801/6/6
f 795/6/6 786/6/6 802/6/6
f 801/5/6 795/5/6 802/5/6
f 786/7/6 787/7/6 803/7/6
f 802/6/6 786/6/6 803/6/6
f 803/7/6 787/7/6 804/7/6
f 788/5/6 789/5/6 806/5/6
f 789/6/6 790/6/6 807/6/6
f 806/5/6 789/5/6 807/5/6
f 790/5/6 796/5/6 808/5/6
f 807/6/6 790/6/6 808/6/6
f 796/5/6 797/5/6 808/5/6
f 797/5/6 798/5/6 808/5/6
f 798/6/6 799/6/6 809/6/6
f 808/5/6 798/5/6 809/5/6
f 801/5/6 802/5/6 810/5/6
f 809/6/6 799/6/6 810/6/6
f 800/5/6 801/5/6 810/5/6
f 802/5/6 803/5/6 810/5/6
f 799/5/6 800/5/6 810/5/6
f 803/6/6 804/6/6 811/6/6
f 810/5/6 803/5/6 811/5/6
f 804/3/6 805/3/6 812/3/6
f 811/6/6 804/6/6 812/6/6
f 812/3/6 805/3/6 813/3/6
f 812/6/6 813/6/6 814/6/6
f 814/6/6 813/6/6 815/6/6
f 816/6/6 817/6/6 824/6/6
f 818/5/6 819/5/6 825/5/6
f 825/5/6 819/5/6 826/5/6
f 819/6/6 820/6/6 827/6/6
f 826/5/6 819/5/6 827/5/6
f 820/5/6 821/5/6 828/5/6
f 827/6/6 820/6/6 828/6/6
f 821/6/6 822/6/6 829/6/6
f 828/5/6 821/5/6 829/5/6
f 822/5/6 823/5/6 830/5/6
f 829/6/6 822/6/6 830/6/6
f 830/5/6 823/5/6 831/5/6
f 831/5/6 823/5/6 832/5/6
f 832/5/6 823/5/6 833/5/6
f 823/6/6 824/6/6 834/6/6
f 833/5/6 823/5/6 834/5/6
f 824/6/6 817/6/6 835/6/6
f 834/6/6 824/6/6 835/6/6
f 835/6/6 817/6/6 836/6/6
f 818/5/6 825/5/6 837/5/6
f 825/6/6 826/6/6 838/6/6
f 837/5/6 825/5/6 838/5/6
f 828/5/6 829/5/6 839/5/6
f 838/6/6 826/6/6 839/6/6
f 826/5/6 827/5/6 839/5/6
f 827/5/6 828/5/6 839/5/6
f 829/5/6 830/5/6 839/5/6
f 830/5/6 831/5/6 839/5/6
f 831/6/6 832/6/6 840/6/6
f 839/5/6 831/5/6 840/5/6
f 832/5/6 833/5/6 841/5/6
f 840/6/6 832/6/6 841/6/6
f 833/6/6 834/6/6 842/6/6
f 841/5/6 833/5/6 842/5/6
f 837/6/6 838/6/6 843/6/6
f 839/6/6 840/6/6 843/6/6
f 841/6/6 842/6/6 843/6/6
f 838/6/6 839/6/6 843/6/6
f 840/6/6 841/6/6 843/6/6
f 843/6/6 842/6/6 844/6/6
f 844/6/6 842/6/6 845/6/6
f 845/6/6 842/6/6 846/6/6
f 846/6/6 842/6/6 847/6/6
f 847/6/6 842/6/6 848/6/6
f 848/6/6 842/6/6 849/6/6
f 849/6/6 842/6/6 850/6/6
f 842/6/6 834/6/6 851/6/6
f 850/6/6 842/6/6 851/6/6
f 834/7/6 835/7/6 852/7/6
f 851/6/6 834/6/6 852/6/6
f 852/7/6 835/7/6 853/7/6
f 854/6/6 855/6/6 863/6/6
f 855/6/6 856/6/6 863/6/6
f 860/6/6 861/6/6 863/6/6
f 859/6/6 860/6/6 863/6/6
f 858/6/6 859/6/6 863/6/6
f 857/6/6 858/6/6 863/6/6
f 856/6/6 857/6/6 863/6/6
f 863/6/6 861/6/6 864/6/6
f 864/6/6 861/6/6 865/6/6
f 865/6/6 861/6/6 866/6/6
f 866/6/6 861/6/6 867/6/6
f 867/6/6 861/6/6 868/6/6
f 863/5/6 864/5/6 869/5/6
f 864/6/6 865/6/6 869/6/6
f 865/5/6 866/5/6 870/5/6
f 869/6/6 865/6/6 870/6/6
f 870/5/6 866/5/6 871/5/6
f 871/5/6 866/5/6 872/5/6
f 867/5/6 868/5/6 873/5/6
f 873/5/6 868/5/6 874/5/6
f 868/6/6 861/6/6 875/6/6
f 874/5/6 868/5/6 875/5/6
f 861/7/6 862/7/6 876/7/6
f 875/6/6 861/6/6 876/6/6
f 876/7/6 862/7/6 877/7/6
f 863/5/6 869/5/6 879/5/6
f 869/5/6 870/5/6 879/5/6
f 870/5/6 871/5/6 879/5/6
f 871/6/6 872/6/6 880/6/6
f 879/5/6 871/5/6 880/5/6
f 872/5/6 866/5/6 881/5/6
f 880/6/6 872/6/6 881/6/6
f 866/6/6 867/6/6 882/6/6
f 881/5/6 866/5/6 882/5/6
f 867/5/6 873/5/6 883/5/6
f 882/6/6 867/6/6 883/6/6
f 873/6/6 874/6/6 884/6/6
f 883/5/6 873/5/6 884/5/6
f 874/5/6 875/5/6 885/5/6
f 884/6/6 874/6/6 885/6/6
f 875/5/6 876/5/6 885/5/6
f 876/6/6 877/6/6 886/6/6
f 885/5/6 876/5/6 886/5/6
f 877/6/6 878/6/6 886/6/6
f 886/6/6 878/6/6 887/6/6
f 887/6/6 878/6/6 888/6/6
f 888/6/6 878/6/6 889/6/6
f 890/6/6 891/6/6 902/6/6
f 902/6/6 891/6/6 903/6/6
f 892/5/6 893/5/6 904/5/6
f 904/5/6 893/5/6 905/5/6
f 905/5/6 893/5/6 906/5/6
f 906/5/6 893/5/6 907/5/6
f 894/5/6 895/5/6 908/5/6
f 895/6/6 896/6/6 908/6/6
f 896/5/6 897/5/6 909/5/6
f 908/6/6 896/6/6 909/6/6
f 897/6/6 898/6/6 910/6/6
f 909/5/6 897/5/6 910/5/6
f 898/5/6 899/5/6 911/5/6
f 910/6/6 898/6/6 911/6/6
f 899/6/6 900/6/6 912/6/6
f 911/5/6 899/5/6 912/5/6
f 900/5/6 901/5/6 913/5/6
f 912/6/6 900/6/6 913/6/6
f 901/6/6 902/6/6 914/6/6
f 913/5/6 901/5/6 914/5/6
f 902/3/6 903/3/6 915/3/6
f 914/6/6 902/6/6 915/6/6
f 915/3/6 903/3/6 916/3/6
f 892/5/6 904/5/6 917/5/6
f 904/6/6 905/6/6 918/6/6
f 917/5/6 904/5/6 918/5/6
f 905/5/6 906/5/6 919/5/6
f 918/6/6 905/6/6 919/6/6
f 906/6/6 907/6/6 920/6/6
f 919/5/6 906/5/6 920/5/6
f 907/5/6 893/5/6 921/5/6
f 920/6/6 907/6/6 921/6/6
f 893/6/6 894/6/6 922/6/6
f 921/5/6 893/5/6 922/5/6
f 911/5/6 912/5/6 923/5/6
f 922/6/6 894/6/6 923/6/6
f 894/5/6 908/5/6 923/5/6
f 908/5/6 909/5/6 923/5/6
f 909/5/6 910/5/6 923/5/6
f 910/5/6 911/5/6 923/5/6
f 912/5/6 913/5/6 923/5/6
f 913/6/6 914/6/6 924/6/6
f 923/5/6 913/5/6 924/5/6
f 921/6/6 922/6/6 925/6/6
f 920/6/6 921/6/6 925/6/6
f 923/6/6 924/6/6 925/6/6
f 922/6/6 923/6/6 925/6/6
f 919/6/6 920/6/6 925/6/6
f 918/6/6 919/6/6 925/6/6
f 917/6/6 918/6/6 925/6/6
f 925/6/6 924/6/6 926/6/6
f 926/6/6 924/6/6 927/6/6
f 927/6/6 924/6/6 928/6/6
f 928/6/6 924/6/6 929/6/6
f 929/6/6 924/6/6 930/6/6
f 930/6/6 924/6/6 931/6/6
f 931/6/6 924/6/6 932/6/6
f 932/6/6 924/6/6 933/6/6
f 924/6/6 914/6/6 934/6/6
f 933/6/6 924/6/6 934/6/6
f 914/7/6 915/7/6 934/7/6
f 934/7/6 915/7/6 935/7/6
f 936/6/6 937/6/6 941/6/6
f 937/6/6 938/6/6 941/6/6
f 938/6/6 939/6/6 941/6/6
f 941/6/6 939/6/6 942/6/6
f 942/6/6 939/6/6 943/6/6
f 943/6/6 939/6/6 944/6/6
f 944/6/6 939/6/6 945/6/6
f 945/6/6 939/6/6 946/6/6
f 939/7/6 940/7/6 947/7/6
f 941/5/6 942/5/6 948/5/6
f 942/6/6 943/6/6 948/6/6
f 943/5/6 944/5/6 949/5/6
f 948/6/6 943/6/6 949/6/6
f 944/6/6 945/6/6 950/6/6
f 949/5/6 944/5/6 950/5/6
f 945/5/6 946/5/6 951/5/6
f 950/6/6 945/6/6 951/6/6
f 951/5/6 946/5/6 952/5/6
f 952/5/6 946/5/6 953/5/6
f 953/5/6 946/5/6 954/5/6
f 954/5/6 946/5/6 955/5/6
f 955/5/6 946/5/6 956/5/6
f 956/5/6 946/5/6 957/5/6
f 946/6/6 939/6/6 958/6/6
f 957/5/6 946/5/6 958/5/6
f 939/7/6 947/7/6 959/7/6
f 958/6/6 939/6/6 959/6/6
f 959/7/6 947/7/6 960/7/6
f 941/5/6 948/5/6 962/5/6
f 948/5/6 949/5/6 962/5/6
f 949/5/6 950/5/6 962/5/6
f 950/5/6 951/5/6 962/5/6
f 951/5/6 952/5/6 962/5/6
f 952/6/6 953/6/6 963/6/6
f 962/5/6 952/5/6 963/5/6
f 953/5/6 954/5/6 964/5/6
f 963/6/6 953/6/6 964/6/6
f 954/6/6 955/6/6 965/6/6
f 964/5/6 954/5/6 965/5/6
f 955/5/6 956/5/6 966/5/6
f 965/6/6 955/6/6 966/6/6
f 956/6/6 957/6/6 967/6/6
f 966/5/6 956/5/6 967/5/6
f 958/5/6 959/5/6 968/5/6
f 967/6/6 957/6/6 968/6/6
f 957/5/6 958/5/6 968/5/6
f 959/6/6 960/6/6 969/6/6
f 968/5/6 959/5/6 969/5/6
f 960/3/6 961/3/6 970/3/6
f 969/6/6 960/6/6 970/6/6
f 970/3/6 961/3/6 971/3/6
f 970/6/6 971/6/6 972/6/6
f 972/6/6 971/6/6 973/6/6
f 974/6/6 975/6/6 988/6/6
f 976/5/6 977/5/6 989/5/6
f 977/6/6 978/6/6 989/6/6
f 978/5/6 979/5/6 990/5/6
f 989/6/6 978/6/6 990/6/6
f 979/6/6 980/6/6 991/6/6
f 990/5/6 979/5/6 991/5/6
f 980/5/6 981/5/6 992/5/6
f 991/6/6 980/6/6 992/6/6
f 981/6/6 982/6/6 993/6/6
f 992/5/6 981/5/6 993/5/6
f 982/5/6 983/5/6 994/5/6
f 993/6/6 982/6/6 994/6/6
f 983/6/6 984/6/6 995/6/6
f 994/5/6 983/5/6 995/5/6
f 995/6/6 984/6/6 996/6/6
f 984/5/6 985/5/6 997/5/6
f 985/6/6 986/6/6 997/6/6
f 986/5/6 987/5/6 998/5/6
f 997/6/6 986/6/6 998/6/6
f 976/5/6 989/5/6 999/5/6
f 989/5/6 990/5/6 999/5/6
f 990/5/6 991/5/6 999/5/6
f 994/5/6 995/5/6 999/5/6
f 991/5/6 992/5/6 999/5/6
f 995/5/6 996/5/6 999/5/6
f 992/5/6 993/5/6 999/5/6
f 993/5/6 994/5/6 999/5/6
f 996/6/6 984/6/6 1000/6/6
f 999/5/6 996/5/6 1000/5/6
f 984/5/6 997/5/6 1001/5/6
f 1000/6/6 984/6/6 1001/6/6
f 997/5/6 998/5/6 1001/5/6
f 987/6/6 988/6/6 1002/6/6
f 1001/5/6 998/5/6 1002/5/6
f 998/5/6 987/5/6 1002/5/6
f 988/6/6 975/6/6 1003/6/6
f 1002/6/6 988/6/6 1003/6/6
f 1003/6/6 975/6/6 1004/6/6
f 1004/6/6 975/6/6 1005/6/6
f 1004/3/6 1005/3/6 1006/3/6
f 1006/3/6 1005/3/6 1007/3/6
