# MagicaVoxel @ Ephtracy

# group
o 

# material
mtllib SmithingRoof1TEX.mtl
usemtl palette

# normals
vn -1 0 0
vn 1 0 0
vn 0 0 1
vn 0 0 -1
vn 0 -1 0
vn 0 1 0

# texcoords
vt 0.943359 0.5
vt 0.947266 0.5
vt 0.962891 0.5
vt 0.978516 0.5
vt 0.982422 0.5
vt 0.986328 0.5
vt 0.990234 0.5

# verts
v 0 2 0
v 0 2 -6.3
v 0 2.1 0
v 0 2.1 -6.3
v 0.1 2.1 0
v 0.1 2.1 -0.1
v 0.1 2.1 -6.2
v 0.1 2.1 -6.3
v 0.1 2.2 0
v 0.1 2.2 -0.1
v 0.1 2.2 -6.2
v 0.1 2.2 -6.3
v 0.3 2.1 -0.1
v 0.3 2.1 -0.2
v 0.3 2.1 -1.4
v 0.3 2.1 -1.5
v 0.3 2.1 -1.7
v 0.3 2.1 -1.8
v 0.3 2.1 -2.3
v 0.3 2.1 -2.4
v 0.3 2.1 -2.9
v 0.3 2.1 -3.1
v 0.3 2.1 -3.7
v 0.3 2.1 -3.9
v 0.3 2.1 -4.8
v 0.3 2.1 -4.9
v 0.3 2.1 -5.4
v 0.3 2.1 -5.5
v 0.3 2.1 -5.6
v 0.3 2.1 -5.7
v 0.3 2.1 -6.1
v 0.3 2.1 -6.2
v 0.3 2.2 -0.1
v 0.3 2.2 -0.2
v 0.3 2.2 -1.4
v 0.3 2.2 -1.5
v 0.3 2.2 -1.7
v 0.3 2.2 -1.8
v 0.3 2.2 -2.3
v 0.3 2.2 -2.4
v 0.3 2.2 -2.9
v 0.3 2.2 -3.1
v 0.3 2.2 -3.7
v 0.3 2.2 -3.9
v 0.3 2.2 -4.8
v 0.3 2.2 -4.9
v 0.3 2.2 -5.4
v 0.3 2.2 -5.5
v 0.3 2.2 -5.6
v 0.3 2.2 -5.7
v 0.3 2.2 -6.1
v 0.3 2.2 -6.2
v 0.4 2.2 0
v 0.4 2.2 -0.1
v 0.4 2.2 -6.2
v 0.4 2.2 -6.3
v 0.4 2.3 0
v 0.4 2.3 -0.1
v 0.4 2.3 -6.2
v 0.4 2.3 -6.3
v 0.6 2.2 -0.1
v 0.6 2.2 -0.2
v 0.6 2.2 -0.8
v 0.6 2.2 -1
v 0.6 2.2 -1.8
v 0.6 2.2 -1.9
v 0.6 2.2 -3.2
v 0.6 2.2 -3.3
v 0.6 2.2 -4
v 0.6 2.2 -4.1
v 0.6 2.2 -4.4
v 0.6 2.2 -4.5
v 0.6 2.2 -4.6
v 0.6 2.2 -5.3
v 0.6 2.2 -5.5
v 0.6 2.2 -5.7
v 0.6 2.2 -6.1
v 0.6 2.2 -6.2
v 0.6 2.3 -0.1
v 0.6 2.3 -0.2
v 0.6 2.3 -0.8
v 0.6 2.3 -1
v 0.6 2.3 -1.8
v 0.6 2.3 -1.9
v 0.6 2.3 -3.2
v 0.6 2.3 -3.3
v 0.6 2.3 -4
v 0.6 2.3 -4.1
v 0.6 2.3 -4.4
v 0.6 2.3 -4.5
v 0.6 2.3 -4.6
v 0.6 2.3 -5.3
v 0.6 2.3 -5.5
v 0.6 2.3 -5.7
v 0.6 2.3 -6.1
v 0.6 2.3 -6.2
v 0.7 2.3 0
v 0.7 2.3 -0.1
v 0.7 2.3 -6.2
v 0.7 2.3 -6.3
v 0.7 2.4 0
v 0.7 2.4 -0.1
v 0.7 2.4 -6.2
v 0.7 2.4 -6.3
v 0.9 2.3 -0.1
v 0.9 2.3 -0.2
v 0.9 2.3 -0.6
v 0.9 2.3 -0.7
v 0.9 2.3 -0.8
v 0.9 2.3 -1
v 0.9 2.3 -1.9
v 0.9 2.3 -2.2
v 0.9 2.3 -2.8
v 0.9 2.3 -3.5
v 0.9 2.3 -4
v 0.9 2.3 -4.1
v 0.9 2.3 -4.2
v 0.9 2.3 -4.4
v 0.9 2.3 -5.2
v 0.9 2.3 -5.3
v 0.9 2.3 -5.5
v 0.9 2.3 -5.6
v 0.9 2.3 -6.1
v 0.9 2.3 -6.2
v 0.9 2.4 -0.1
v 0.9 2.4 -0.2
v 0.9 2.4 -0.6
v 0.9 2.4 -0.7
v 0.9 2.4 -0.8
v 0.9 2.4 -1
v 0.9 2.4 -1.9
v 0.9 2.4 -2.2
v 0.9 2.4 -2.8
v 0.9 2.4 -3.5
v 0.9 2.4 -4
v 0.9 2.4 -4.1
v 0.9 2.4 -4.2
v 0.9 2.4 -4.4
v 0.9 2.4 -5.2
v 0.9 2.4 -5.3
v 0.9 2.4 -5.5
v 0.9 2.4 -5.6
v 0.9 2.4 -6.1
v 0.9 2.4 -6.2
v 1 2.4 0
v 1 2.4 -0.1
v 1 2.4 -6.2
v 1 2.4 -6.3
v 1 2.5 0
v 1 2.5 -0.1
v 1 2.5 -6.2
v 1 2.5 -6.3
v 1.2 2.4 -0.1
v 1.2 2.4 -0.2
v 1.2 2.4 -2.2
v 1.2 2.4 -2.3
v 1.2 2.4 -2.8
v 1.2 2.4 -2.9
v 1.2 2.4 -3.2
v 1.2 2.4 -3.7
v 1.2 2.4 -4.1
v 1.2 2.4 -4.2
v 1.2 2.4 -4.6
v 1.2 2.4 -4.8
v 1.2 2.4 -5.2
v 1.2 2.4 -5.3
v 1.2 2.4 -5.6
v 1.2 2.4 -5.7
v 1.2 2.4 -6.1
v 1.2 2.4 -6.2
v 1.2 2.5 -0.1
v 1.2 2.5 -0.2
v 1.2 2.5 -2.2
v 1.2 2.5 -2.3
v 1.2 2.5 -2.8
v 1.2 2.5 -2.9
v 1.2 2.5 -3.2
v 1.2 2.5 -3.7
v 1.2 2.5 -4.1
v 1.2 2.5 -4.2
v 1.2 2.5 -4.6
v 1.2 2.5 -4.8
v 1.2 2.5 -5.2
v 1.2 2.5 -5.3
v 1.2 2.5 -5.6
v 1.2 2.5 -5.7
v 1.2 2.5 -6.1
v 1.2 2.5 -6.2
v 1.3 2.5 0
v 1.3 2.5 -0.1
v 1.3 2.5 -6.2
v 1.3 2.5 -6.3
v 1.3 2.6 0
v 1.3 2.6 -0.1
v 1.3 2.6 -6.2
v 1.3 2.6 -6.3
v 1.5 2.5 -0.1
v 1.5 2.5 -0.2
v 1.5 2.5 -0.5
v 1.5 2.5 -0.7
v 1.5 2.5 -1.2
v 1.5 2.5 -1.3
v 1.5 2.5 -1.5
v 1.5 2.5 -1.7
v 1.5 2.5 -2.2
v 1.5 2.5 -2.4
v 1.5 2.5 -2.8
v 1.5 2.5 -2.9
v 1.5 2.5 -4
v 1.5 2.5 -4.2
v 1.5 2.5 -4.4
v 1.5 2.5 -4.5
v 1.5 2.5 -5.3
v 1.5 2.5 -5.4
v 1.5 2.5 -6.1
v 1.5 2.5 -6.2
v 1.5 2.6 -0.1
v 1.5 2.6 -0.2
v 1.5 2.6 -0.5
v 1.5 2.6 -0.7
v 1.5 2.6 -1.2
v 1.5 2.6 -1.3
v 1.5 2.6 -1.5
v 1.5 2.6 -1.7
v 1.5 2.6 -2.2
v 1.5 2.6 -2.4
v 1.5 2.6 -2.8
v 1.5 2.6 -2.9
v 1.5 2.6 -4
v 1.5 2.6 -4.2
v 1.5 2.6 -4.4
v 1.5 2.6 -4.5
v 1.5 2.6 -5.3
v 1.5 2.6 -5.4
v 1.5 2.6 -6.1
v 1.5 2.6 -6.2
v 1.6 2.6 0
v 1.6 2.6 -0.1
v 1.6 2.6 -6.2
v 1.6 2.6 -6.3
v 1.6 2.7 0
v 1.6 2.7 -0.1
v 1.6 2.7 -6.2
v 1.6 2.7 -6.3
v 1.9 2.3 0
v 1.9 2.3 -0.1
v 1.9 2.3 -6.2
v 1.9 2.3 -6.3
v 1.9 2.4 0
v 1.9 2.4 -0.1
v 1.9 2.4 -6.2
v 1.9 2.4 -6.3
v 2.2 2.2 0
v 2.2 2.2 -0.1
v 2.2 2.2 -6.2
v 2.2 2.2 -6.3
v 2.2 2.3 0
v 2.2 2.3 -0.1
v 2.2 2.3 -6.2
v 2.2 2.3 -6.3
v 2.5 2.1 0
v 2.5 2.1 -0.1
v 2.5 2.1 -6.2
v 2.5 2.1 -6.3
v 2.5 2.2 0
v 2.5 2.2 -0.1
v 2.5 2.2 -6.2
v 2.5 2.2 -6.3
v 0.9 2.1 0
v 0.9 2.1 -0.1
v 0.9 2.1 -6.2
v 0.9 2.1 -6.3
v 0.9 2.2 0
v 0.9 2.2 -0.1
v 0.9 2.2 -6.2
v 0.9 2.2 -6.3
v 1.2 2.2 0
v 1.2 2.2 -0.1
v 1.2 2.2 -6.2
v 1.2 2.2 -6.3
v 1.2 2.3 0
v 1.2 2.3 -0.1
v 1.2 2.3 -6.2
v 1.2 2.3 -6.3
v 1.5 2.3 0
v 1.5 2.3 -0.1
v 1.5 2.3 -6.2
v 1.5 2.3 -6.3
v 1.5 2.4 0
v 1.5 2.4 -0.1
v 1.5 2.4 -6.2
v 1.5 2.4 -6.3
v 1.8 2.6 0
v 1.8 2.6 -0.1
v 1.8 2.6 -6.2
v 1.8 2.6 -6.3
v 1.8 2.7 0
v 1.8 2.7 -0.1
v 1.8 2.7 -6.2
v 1.8 2.7 -6.3
v 1.9 2.5 -0.1
v 1.9 2.5 -0.2
v 1.9 2.5 -0.7
v 1.9 2.5 -0.8
v 1.9 2.5 -1.1
v 1.9 2.5 -1.3
v 1.9 2.5 -2.2
v 1.9 2.5 -2.3
v 1.9 2.5 -4.1
v 1.9 2.5 -4.5
v 1.9 2.5 -4.7
v 1.9 2.5 -4.9
v 1.9 2.5 -5.6
v 1.9 2.5 -5.8
v 1.9 2.5 -6.1
v 1.9 2.5 -6.2
v 1.9 2.6 -0.1
v 1.9 2.6 -0.2
v 1.9 2.6 -0.7
v 1.9 2.6 -0.8
v 1.9 2.6 -1.1
v 1.9 2.6 -1.3
v 1.9 2.6 -2.2
v 1.9 2.6 -2.3
v 1.9 2.6 -4.1
v 1.9 2.6 -4.5
v 1.9 2.6 -4.7
v 1.9 2.6 -4.9
v 1.9 2.6 -5.6
v 1.9 2.6 -5.8
v 1.9 2.6 -6.1
v 1.9 2.6 -6.2
v 2.1 2.5 0
v 2.1 2.5 -0.1
v 2.1 2.5 -6.2
v 2.1 2.5 -6.3
v 2.1 2.6 0
v 2.1 2.6 -0.1
v 2.1 2.6 -6.2
v 2.1 2.6 -6.3
v 2.2 2.4 -0.1
v 2.2 2.4 -0.2
v 2.2 2.4 -0.5
v 2.2 2.4 -0.6
v 2.2 2.4 -1.6
v 2.2 2.4 -1.8
v 2.2 2.4 -2.6
v 2.2 2.4 -2.8
v 2.2 2.4 -3.8
v 2.2 2.4 -3.9
v 2.2 2.4 -4.4
v 2.2 2.4 -4.8
v 2.2 2.4 -5.6
v 2.2 2.4 -5.7
v 2.2 2.4 -6.1
v 2.2 2.4 -6.2
v 2.2 2.5 -0.1
v 2.2 2.5 -0.2
v 2.2 2.5 -0.5
v 2.2 2.5 -0.6
v 2.2 2.5 -1.6
v 2.2 2.5 -1.8
v 2.2 2.5 -2.6
v 2.2 2.5 -2.8
v 2.2 2.5 -3.8
v 2.2 2.5 -3.9
v 2.2 2.5 -4.4
v 2.2 2.5 -4.8
v 2.2 2.5 -5.6
v 2.2 2.5 -5.7
v 2.2 2.5 -6.1
v 2.2 2.5 -6.2
v 2.4 2.4 0
v 2.4 2.4 -0.1
v 2.4 2.4 -6.2
v 2.4 2.4 -6.3
v 2.4 2.5 0
v 2.4 2.5 -0.1
v 2.4 2.5 -6.2
v 2.4 2.5 -6.3
v 2.5 2.3 -0.1
v 2.5 2.3 -0.2
v 2.5 2.3 -0.9
v 2.5 2.3 -1.3
v 2.5 2.3 -2
v 2.5 2.3 -2.2
v 2.5 2.3 -3.6
v 2.5 2.3 -3.8
v 2.5 2.3 -4.1
v 2.5 2.3 -4.3
v 2.5 2.3 -6.1
v 2.5 2.3 -6.2
v 2.5 2.4 -0.1
v 2.5 2.4 -0.2
v 2.5 2.4 -0.9
v 2.5 2.4 -1.3
v 2.5 2.4 -2
v 2.5 2.4 -2.2
v 2.5 2.4 -3.6
v 2.5 2.4 -3.8
v 2.5 2.4 -4.1
v 2.5 2.4 -4.3
v 2.5 2.4 -6.1
v 2.5 2.4 -6.2
v 2.7 2.3 0
v 2.7 2.3 -0.1
v 2.7 2.3 -6.2
v 2.7 2.3 -6.3
v 2.7 2.4 0
v 2.7 2.4 -0.1
v 2.7 2.4 -6.2
v 2.7 2.4 -6.3
v 2.8 2.2 -0.1
v 2.8 2.2 -0.2
v 2.8 2.2 -2.8
v 2.8 2.2 -2.9
v 2.8 2.2 -4.5
v 2.8 2.2 -4.6
v 2.8 2.2 -5
v 2.8 2.2 -5.1
v 2.8 2.2 -5.5
v 2.8 2.2 -5.7
v 2.8 2.2 -6.1
v 2.8 2.2 -6.2
v 2.8 2.3 -0.1
v 2.8 2.3 -0.2
v 2.8 2.3 -2.8
v 2.8 2.3 -2.9
v 2.8 2.3 -4.5
v 2.8 2.3 -4.6
v 2.8 2.3 -5
v 2.8 2.3 -5.1
v 2.8 2.3 -5.5
v 2.8 2.3 -5.7
v 2.8 2.3 -6.1
v 2.8 2.3 -6.2
v 3 2.2 0
v 3 2.2 -0.1
v 3 2.2 -6.2
v 3 2.2 -6.3
v 3 2.3 0
v 3 2.3 -0.1
v 3 2.3 -6.2
v 3 2.3 -6.3
v 3.1 2.1 -0.1
v 3.1 2.1 -0.2
v 3.1 2.1 -0.6
v 3.1 2.1 -0.9
v 3.1 2.1 -1.4
v 3.1 2.1 -1.6
v 3.1 2.1 -2.8
v 3.1 2.1 -2.9
v 3.1 2.1 -3.4
v 3.1 2.1 -3.5
v 3.1 2.1 -5.3
v 3.1 2.1 -5.4
v 3.1 2.1 -5.6
v 3.1 2.1 -6.1
v 3.1 2.1 -6.2
v 3.1 2.2 -0.1
v 3.1 2.2 -0.2
v 3.1 2.2 -0.6
v 3.1 2.2 -0.9
v 3.1 2.2 -1.4
v 3.1 2.2 -1.6
v 3.1 2.2 -2.8
v 3.1 2.2 -2.9
v 3.1 2.2 -3.4
v 3.1 2.2 -3.5
v 3.1 2.2 -5.3
v 3.1 2.2 -5.6
v 3.1 2.2 -6.1
v 3.1 2.2 -6.2
v 3.3 2.1 0
v 3.3 2.1 -0.1
v 3.3 2.1 -6.2
v 3.3 2.1 -6.3
v 3.3 2.2 0
v 3.3 2.2 -0.1
v 3.3 2.2 -6.2
v 3.3 2.2 -6.3
v 3.4 2 0
v 3.4 2 -6.3
v 3.4 2.1 0
v 3.4 2.1 -6.3
v 0 2 0
v 0 2.1 0
v 0.1 2.1 0
v 0.1 2.2 0
v 0.2 2 0
v 0.2 2.1 0
v 0.3 2.1 0
v 0.3 2.2 0
v 0.4 2.1 0
v 0.4 2.2 0
v 0.4 2.3 0
v 0.5 2.1 0
v 0.5 2.2 0
v 0.7 2 0
v 0.7 2.2 0
v 0.7 2.3 0
v 0.7 2.4 0
v 0.8 2.3 0
v 0.8 2.4 0
v 0.9 2 0
v 0.9 2.1 0
v 0.9 2.2 0
v 0.9 2.3 0
v 0.9 2.4 0
v 1 2.2 0
v 1 2.3 0
v 1 2.4 0
v 1 2.5 0
v 1.1 2.2 0
v 1.1 2.3 0
v 1.1 2.4 0
v 1.2 2 0
v 1.2 2.1 0
v 1.2 2.2 0
v 1.2 2.3 0
v 1.2 2.4 0
v 1.2 2.5 0
v 1.3 2.5 0
v 1.3 2.6 0
v 1.4 2 0
v 1.4 2.1 0
v 1.4 2.4 0
v 1.4 2.5 0
v 1.5 2 0
v 1.5 2.1 0
v 1.5 2.3 0
v 1.5 2.4 0
v 1.5 2.5 0
v 1.5 2.6 0
v 1.6 2.4 0
v 1.6 2.5 0
v 1.6 2.6 0
v 1.6 2.7 0
v 1.7 2 0
v 1.7 2.1 0
v 1.7 2.6 0
v 1.7 2.7 0
v 1.8 2 0
v 1.8 2.1 0
v 1.8 2.5 0
v 1.8 2.6 0
v 1.8 2.7 0
v 1.9 2.3 0
v 1.9 2.4 0
v 1.9 2.5 0
v 1.9 2.6 0
v 2.1 2 0
v 2.1 2.1 0
v 2.1 2.3 0
v 2.1 2.4 0
v 2.1 2.5 0
v 2.1 2.6 0
v 2.2 2 0
v 2.2 2.1 0
v 2.2 2.2 0
v 2.2 2.3 0
v 2.2 2.4 0
v 2.2 2.5 0
v 2.3 2 0
v 2.3 2.1 0
v 2.4 2 0
v 2.4 2.1 0
v 2.4 2.3 0
v 2.4 2.4 0
v 2.4 2.5 0
v 2.5 2.1 0
v 2.5 2.2 0
v 2.5 2.3 0
v 2.5 2.4 0
v 2.6 2.2 0
v 2.6 2.3 0
v 2.7 2.1 0
v 2.7 2.3 0
v 2.7 2.4 0
v 2.8 2 0
v 2.8 2.1 0
v 2.8 2.3 0
v 2.9 2 0
v 2.9 2.1 0
v 3 2 0
v 3 2.1 0
v 3 2.2 0
v 3 2.3 0
v 3.1 2 0
v 3.1 2.1 0
v 3.1 2.2 0
v 3.2 2.1 0
v 3.2 2.2 0
v 3.3 2.1 0
v 3.3 2.2 0
v 3.4 2 0
v 3.4 2.1 0
v 0.9 2.1 -0.1
v 0.9 2.2 -0.1
v 1 2.1 -0.1
v 1 2.2 -0.1
v 1.1 2.2 -0.1
v 1.2 2.1 -0.1
v 1.2 2.2 -0.1
v 1.2 2.3 -0.1
v 1.3 2.1 -0.1
v 1.3 2.2 -0.1
v 1.3 2.3 -0.1
v 1.4 2.1 -0.1
v 1.4 2.2 -0.1
v 1.5 2.1 -0.1
v 1.5 2.2 -0.1
v 1.5 2.3 -0.1
v 1.5 2.4 -0.1
v 1.6 2.1 -0.1
v 1.6 2.2 -0.1
v 1.6 2.3 -0.1
v 1.6 2.4 -0.1
v 1.7 2.1 -0.1
v 1.7 2.2 -0.1
v 1.8 2.1 -0.1
v 1.8 2.2 -0.1
v 1.8 2.3 -0.1
v 1.9 2.1 -0.1
v 1.9 2.2 -0.1
v 1.9 2.3 -0.1
v 1.9 2.4 -0.1
v 2 2.1 -0.1
v 2 2.2 -0.1
v 2.1 2.1 -0.1
v 2.1 2.2 -0.1
v 2.1 2.3 -0.1
v 2.2 2.1 -0.1
v 2.2 2.2 -0.1
v 2.2 2.3 -0.1
v 2.3 2.1 -0.1
v 2.4 2.1 -0.1
v 2.4 2.2 -0.1
v 2.5 2.1 -0.1
v 2.5 2.2 -0.1
v 0.1 2.1 -6.2
v 0.1 2.2 -6.2
v 0.3 2.1 -6.2
v 0.3 2.2 -6.2
v 0.4 2.2 -6.2
v 0.4 2.3 -6.2
v 0.6 2.2 -6.2
v 0.6 2.3 -6.2
v 0.7 2.3 -6.2
v 0.7 2.4 -6.2
v 0.8 2.3 -6.2
v 0.8 2.4 -6.2
v 0.9 2.3 -6.2
v 0.9 2.4 -6.2
v 1 2.4 -6.2
v 1 2.5 -6.2
v 1.2 2.4 -6.2
v 1.2 2.5 -6.2
v 1.3 2.5 -6.2
v 1.3 2.6 -6.2
v 1.5 2.5 -6.2
v 1.5 2.6 -6.2
v 1.6 2.6 -6.2
v 1.6 2.7 -6.2
v 1.7 2.6 -6.2
v 1.7 2.7 -6.2
v 1.8 2.6 -6.2
v 1.8 2.7 -6.2
v 1.9 2.5 -6.2
v 1.9 2.6 -6.2
v 2.1 2.5 -6.2
v 2.1 2.6 -6.2
v 2.2 2.4 -6.2
v 2.2 2.5 -6.2
v 2.4 2.4 -6.2
v 2.4 2.5 -6.2
v 2.5 2.3 -6.2
v 2.5 2.4 -6.2
v 2.7 2.3 -6.2
v 2.7 2.4 -6.2
v 2.8 2.2 -6.2
v 2.8 2.3 -6.2
v 3 2.2 -6.2
v 3 2.3 -6.2
v 3.1 2.1 -6.2
v 3.1 2.2 -6.2
v 3.2 2.1 -6.2
v 3.2 2.2 -6.2
v 3.3 2.1 -6.2
v 3.3 2.2 -6.2
v 0.1 2.1 -0.1
v 0.1 2.2 -0.1
v 0.3 2.1 -0.1
v 0.3 2.2 -0.1
v 0.4 2.2 -0.1
v 0.4 2.3 -0.1
v 0.6 2.2 -0.1
v 0.6 2.3 -0.1
v 0.7 2.3 -0.1
v 0.7 2.4 -0.1
v 0.8 2.3 -0.1
v 0.8 2.4 -0.1
v 0.9 2.3 -0.1
v 0.9 2.4 -0.1
v 1 2.4 -0.1
v 1 2.5 -0.1
v 1.2 2.4 -0.1
v 1.2 2.5 -0.1
v 1.3 2.5 -0.1
v 1.3 2.6 -0.1
v 1.5 2.5 -0.1
v 1.5 2.6 -0.1
v 1.6 2.6 -0.1
v 1.6 2.7 -0.1
v 1.7 2.6 -0.1
v 1.7 2.7 -0.1
v 1.8 2.6 -0.1
v 1.8 2.7 -0.1
v 1.9 2.5 -0.1
v 1.9 2.6 -0.1
v 2.1 2.5 -0.1
v 2.1 2.6 -0.1
v 2.2 2.4 -0.1
v 2.2 2.5 -0.1
v 2.4 2.4 -0.1
v 2.4 2.5 -0.1
v 2.5 2.3 -0.1
v 2.5 2.4 -0.1
v 2.7 2.3 -0.1
v 2.7 2.4 -0.1
v 2.8 2.2 -0.1
v 2.8 2.3 -0.1
v 3 2.2 -0.1
v 3 2.3 -0.1
v 3.1 2.1 -0.1
v 3.1 2.2 -0.1
v 3.2 2.1 -0.1
v 3.2 2.2 -0.1
v 3.3 2.1 -0.1
v 3.3 2.2 -0.1
v 0.9 2.1 -6.2
v 0.9 2.2 -6.2
v 1 2.2 -6.2
v 1.1 2.1 -6.2
v 1.1 2.2 -6.2
v 1.2 2.1 -6.2
v 1.2 2.2 -6.2
v 1.2 2.3 -6.2
v 1.3 2.1 -6.2
v 1.3 2.2 -6.2
v 1.4 2.1 -6.2
v 1.4 2.2 -6.2
v 1.4 2.3 -6.2
v 1.5 2.1 -6.2
v 1.5 2.3 -6.2
v 1.5 2.4 -6.2
v 1.6 2.2 -6.2
v 1.6 2.3 -6.2
v 1.6 2.4 -6.2
v 1.7 2.1 -6.2
v 1.7 2.2 -6.2
v 1.7 2.3 -6.2
v 1.8 2.1 -6.2
v 1.8 2.2 -6.2
v 1.8 2.4 -6.2
v 1.9 2.1 -6.2
v 1.9 2.3 -6.2
v 1.9 2.4 -6.2
v 2 2.1 -6.2
v 2 2.3 -6.2
v 2.1 2.1 -6.2
v 2.1 2.2 -6.2
v 2.1 2.3 -6.2
v 2.2 2.1 -6.2
v 2.2 2.2 -6.2
v 2.2 2.3 -6.2
v 2.3 2.1 -6.2
v 2.3 2.2 -6.2
v 2.4 2.1 -6.2
v 2.5 2.1 -6.2
v 2.5 2.2 -6.2
v 0 2 -6.3
v 0 2.1 -6.3
v 0.1 2.1 -6.3
v 0.1 2.2 -6.3
v 0.2 2 -6.3
v 0.2 2.1 -6.3
v 0.3 2.1 -6.3
v 0.3 2.2 -6.3
v 0.4 2.1 -6.3
v 0.4 2.2 -6.3
v 0.4 2.3 -6.3
v 0.5 2.1 -6.3
v 0.5 2.2 -6.3
v 0.7 2 -6.3
v 0.7 2.2 -6.3
v 0.7 2.3 -6.3
v 0.7 2.4 -6.3
v 0.8 2.3 -6.3
v 0.8 2.4 -6.3
v 0.9 2 -6.3
v 0.9 2.1 -6.3
v 0.9 2.2 -6.3
v 0.9 2.3 -6.3
v 0.9 2.4 -6.3
v 1 2.2 -6.3
v 1 2.3 -6.3
v 1 2.4 -6.3
v 1 2.5 -6.3
v 1.1 2.2 -6.3
v 1.1 2.3 -6.3
v 1.1 2.4 -6.3
v 1.2 2 -6.3
v 1.2 2.1 -6.3
v 1.2 2.2 -6.3
v 1.2 2.3 -6.3
v 1.2 2.4 -6.3
v 1.2 2.5 -6.3
v 1.3 2.5 -6.3
v 1.3 2.6 -6.3
v 1.4 2 -6.3
v 1.4 2.1 -6.3
v 1.4 2.4 -6.3
v 1.4 2.5 -6.3
v 1.5 2 -6.3
v 1.5 2.1 -6.3
v 1.5 2.3 -6.3
v 1.5 2.4 -6.3
v 1.5 2.5 -6.3
v 1.5 2.6 -6.3
v 1.6 2.4 -6.3
v 1.6 2.5 -6.3
v 1.6 2.6 -6.3
v 1.6 2.7 -6.3
v 1.7 2 -6.3
v 1.7 2.1 -6.3
v 1.7 2.6 -6.3
v 1.7 2.7 -6.3
v 1.8 2 -6.3
v 1.8 2.1 -6.3
v 1.8 2.5 -6.3
v 1.8 2.6 -6.3
v 1.8 2.7 -6.3
v 1.9 2.3 -6.3
v 1.9 2.4 -6.3
v 1.9 2.5 -6.3
v 1.9 2.6 -6.3
v 2.1 2 -6.3
v 2.1 2.1 -6.3
v 2.1 2.3 -6.3
v 2.1 2.4 -6.3
v 2.1 2.5 -6.3
v 2.1 2.6 -6.3
v 2.2 2 -6.3
v 2.2 2.1 -6.3
v 2.2 2.2 -6.3
v 2.2 2.3 -6.3
v 2.2 2.4 -6.3
v 2.2 2.5 -6.3
v 2.3 2 -6.3
v 2.3 2.1 -6.3
v 2.4 2 -6.3
v 2.4 2.1 -6.3
v 2.4 2.3 -6.3
v 2.4 2.4 -6.3
v 2.4 2.5 -6.3
v 2.5 2.1 -6.3
v 2.5 2.2 -6.3
v 2.5 2.3 -6.3
v 2.5 2.4 -6.3
v 2.6 2.2 -6.3
v 2.6 2.3 -6.3
v 2.7 2.1 -6.3
v 2.7 2.3 -6.3
v 2.7 2.4 -6.3
v 2.8 2 -6.3
v 2.8 2.1 -6.3
v 2.8 2.3 -6.3
v 2.9 2 -6.3
v 2.9 2.1 -6.3
v 3 2 -6.3
v 3 2.1 -6.3
v 3 2.2 -6.3
v 3 2.3 -6.3
v 3.1 2 -6.3
v 3.1 2.1 -6.3
v 3.1 2.2 -6.3
v 3.2 2.1 -6.3
v 3.2 2.2 -6.3
v 3.3 2.1 -6.3
v 3.3 2.2 -6.3
v 3.4 2 -6.3
v 3.4 2.1 -6.3
v 0 2 0
v 0.2 2 0
v 0.7 2 0
v 0.9 2 0
v 1.2 2 0
v 1.4 2 0
v 1.5 2 0
v 1.7 2 0
v 1.8 2 0
v 2.1 2 0
v 2.2 2 0
v 2.3 2 0
v 2.4 2 0
v 2.8 2 0
v 2.9 2 0
v 3 2 0
v 3.1 2 0
v 3.4 2 0
v 0.1 2 -0.1
v 0.2 2 -0.1
v 0.3 2 -0.1
v 0.7 2 -0.1
v 0.9 2 -0.1
v 1.2 2 -0.1
v 1.4 2 -0.1
v 1.5 2 -0.1
v 1.7 2 -0.1
v 1.8 2 -0.1
v 2.1 2 -0.1
v 2.2 2 -0.1
v 2.3 2 -0.1
v 2.4 2 -0.1
v 2.8 2 -0.1
v 2.9 2 -0.1
v 3 2 -0.1
v 3.1 2 -0.1
v 3.3 2 -0.1
v 0.1 2 -0.2
v 0.2 2 -0.2
v 3.2 2 -0.2
v 3.3 2 -0.2
v 0.2 2 -1.4
v 0.3 2 -1.4
v 0.2 2 -1.5
v 0.3 2 -1.5
v 3.1 2 -5.3
v 3.2 2 -5.3
v 3.1 2 -5.4
v 3.2 2 -5.4
v 0.1 2 -6.1
v 0.2 2 -6.1
v 3.2 2 -6.1
v 3.3 2 -6.1
v 0.1 2 -6.2
v 0.2 2 -6.2
v 0.3 2 -6.2
v 0.7 2 -6.2
v 0.9 2 -6.2
v 1.2 2 -6.2
v 1.4 2 -6.2
v 1.5 2 -6.2
v 1.7 2 -6.2
v 1.8 2 -6.2
v 2.1 2 -6.2
v 2.2 2 -6.2
v 2.3 2 -6.2
v 2.4 2 -6.2
v 2.8 2 -6.2
v 2.9 2 -6.2
v 3 2 -6.2
v 3.1 2 -6.2
v 3.3 2 -6.2
v 0 2 -6.3
v 0.2 2 -6.3
v 0.7 2 -6.3
v 0.9 2 -6.3
v 1.2 2 -6.3
v 1.4 2 -6.3
v 1.5 2 -6.3
v 1.7 2 -6.3
v 1.8 2 -6.3
v 2.1 2 -6.3
v 2.2 2 -6.3
v 2.3 2 -6.3
v 2.4 2 -6.3
v 2.8 2 -6.3
v 2.9 2 -6.3
v 3 2 -6.3
v 3.1 2 -6.3
v 3.4 2 -6.3
v 0.9 2.2 0
v 1 2.2 0
v 1.1 2.2 0
v 1.2 2.2 0
v 2.2 2.2 0
v 2.5 2.2 0
v 0.9 2.2 -0.1
v 1 2.2 -0.1
v 1.1 2.2 -0.1
v 1.2 2.2 -0.1
v 2.2 2.2 -0.1
v 2.4 2.2 -0.1
v 2.5 2.2 -0.1
v 0.9 2.2 -6.2
v 1 2.2 -6.2
v 1.1 2.2 -6.2
v 1.2 2.2 -6.2
v 2.2 2.2 -6.2
v 2.3 2.2 -6.2
v 2.5 2.2 -6.2
v 0.9 2.2 -6.3
v 1 2.2 -6.3
v 1.1 2.2 -6.3
v 1.2 2.2 -6.3
v 2.2 2.2 -6.3
v 2.5 2.2 -6.3
v 1.2 2.3 0
v 1.5 2.3 0
v 1.9 2.3 0
v 2.1 2.3 0
v 2.2 2.3 0
v 1.2 2.3 -0.1
v 1.3 2.3 -0.1
v 1.5 2.3 -0.1
v 1.9 2.3 -0.1
v 2.1 2.3 -0.1
v 2.2 2.3 -0.1
v 1.2 2.3 -6.2
v 1.4 2.3 -6.2
v 1.5 2.3 -6.2
v 1.9 2.3 -6.2
v 2 2.3 -6.2
v 2.1 2.3 -6.2
v 2.2 2.3 -6.2
v 1.2 2.3 -6.3
v 1.5 2.3 -6.3
v 1.9 2.3 -6.3
v 2.1 2.3 -6.3
v 2.2 2.3 -6.3
v 1.5 2.4 0
v 1.6 2.4 0
v 1.9 2.4 0
v 1.5 2.4 -0.1
v 1.6 2.4 -0.1
v 1.9 2.4 -0.1
v 1.5 2.4 -6.2
v 1.6 2.4 -6.2
v 1.8 2.4 -6.2
v 1.9 2.4 -6.2
v 1.5 2.4 -6.3
v 1.6 2.4 -6.3
v 1.9 2.4 -6.3
v 0 2.1 0
v 0.1 2.1 0
v 0.9 2.1 0
v 1.2 2.1 0
v 1.4 2.1 0
v 1.5 2.1 0
v 1.7 2.1 0
v 1.8 2.1 0
v 2.1 2.1 0
v 2.2 2.1 0
v 2.3 2.1 0
v 2.4 2.1 0
v 2.5 2.1 0
v 3.3 2.1 0
v 3.4 2.1 0
v 0.1 2.1 -0.1
v 0.3 2.1 -0.1
v 0.9 2.1 -0.1
v 1 2.1 -0.1
v 1.2 2.1 -0.1
v 1.3 2.1 -0.1
v 1.4 2.1 -0.1
v 1.5 2.1 -0.1
v 1.6 2.1 -0.1
v 1.7 2.1 -0.1
v 1.8 2.1 -0.1
v 1.9 2.1 -0.1
v 2 2.1 -0.1
v 2.1 2.1 -0.1
v 2.2 2.1 -0.1
v 2.3 2.1 -0.1
v 2.4 2.1 -0.1
v 2.5 2.1 -0.1
v 3.1 2.1 -0.1
v 3.2 2.1 -0.1
v 3.3 2.1 -0.1
v 0.1 2.1 -0.2
v 0.2 2.1 -0.2
v 0.3 2.1 -0.2
v 3.1 2.1 -0.2
v 3.2 2.1 -0.2
v 3.3 2.1 -0.2
v 3.1 2.1 -0.6
v 3.1 2.1 -0.9
v 0.2 2.1 -1.4
v 0.3 2.1 -1.4
v 3.1 2.1 -1.4
v 0.2 2.1 -1.5
v 0.3 2.1 -1.5
v 3.1 2.1 -1.6
v 0.3 2.1 -1.7
v 0.3 2.1 -1.8
v 0.3 2.1 -2.3
v 0.3 2.1 -2.4
v 3.1 2.1 -2.8
v 0.3 2.1 -2.9
v 3.1 2.1 -2.9
v 0.3 2.1 -3.1
v 3.1 2.1 -3.4
v 3.1 2.1 -3.5
v 0.3 2.1 -3.7
v 0.3 2.1 -3.9
v 0.3 2.1 -4.8
v 0.3 2.1 -4.9
v 3.1 2.1 -5.3
v 3.2 2.1 -5.3
v 0.3 2.1 -5.4
v 3.1 2.1 -5.4
v 3.2 2.1 -5.4
v 0.3 2.1 -5.5
v 0.3 2.1 -5.6
v 3.1 2.1 -5.6
v 0.3 2.1 -5.7
v 0.1 2.1 -6.1
v 0.2 2.1 -6.1
v 0.3 2.1 -6.1
v 3.1 2.1 -6.1
v 3.2 2.1 -6.1
v 3.3 2.1 -6.1
v 0.1 2.1 -6.2
v 0.3 2.1 -6.2
v 0.9 2.1 -6.2
v 1.1 2.1 -6.2
v 1.2 2.1 -6.2
v 1.3 2.1 -6.2
v 1.4 2.1 -6.2
v 1.5 2.1 -6.2
v 1.7 2.1 -6.2
v 1.8 2.1 -6.2
v 1.9 2.1 -6.2
v 2 2.1 -6.2
v 2.1 2.1 -6.2
v 2.2 2.1 -6.2
v 2.3 2.1 -6.2
v 2.4 2.1 -6.2
v 2.5 2.1 -6.2
v 3.1 2.1 -6.2
v 3.2 2.1 -6.2
v 3.3 2.1 -6.2
v 0 2.1 -6.3
v 0.1 2.1 -6.3
v 0.9 2.1 -6.3
v 1.2 2.1 -6.3
v 1.4 2.1 -6.3
v 1.5 2.1 -6.3
v 1.7 2.1 -6.3
v 1.8 2.1 -6.3
v 2.1 2.1 -6.3
v 2.2 2.1 -6.3
v 2.3 2.1 -6.3
v 2.4 2.1 -6.3
v 2.5 2.1 -6.3
v 3.3 2.1 -6.3
v 3.4 2.1 -6.3
v 0.1 2.2 0
v 0.3 2.2 0
v 0.4 2.2 0
v 3 2.2 0
v 3.1 2.2 0
v 3.2 2.2 0
v 3.3 2.2 0
v 0.1 2.2 -0.1
v 0.3 2.2 -0.1
v 0.4 2.2 -0.1
v 0.6 2.2 -0.1
v 2.8 2.2 -0.1
v 3 2.2 -0.1
v 3.1 2.2 -0.1
v 3.2 2.2 -0.1
v 3.3 2.2 -0.1
v 0.3 2.2 -0.2
v 0.4 2.2 -0.2
v 0.6 2.2 -0.2
v 2.8 2.2 -0.2
v 3 2.2 -0.2
v 3.1 2.2 -0.2
v 0.4 2.2 -0.3
v 0.5 2.2 -0.3
v 2.9 2.2 -0.3
v 3 2.2 -0.3
v 3 2.2 -0.6
v 3.1 2.2 -0.6
v 0.6 2.2 -0.8
v 2.9 2.2 -0.8
v 3 2.2 -0.8
v 3 2.2 -0.9
v 3.1 2.2 -0.9
v 0.4 2.2 -1
v 0.5 2.2 -1
v 0.6 2.2 -1
v 2.9 2.2 -1
v 3 2.2 -1
v 0.4 2.2 -1.1
v 0.5 2.2 -1.1
v 0.3 2.2 -1.4
v 0.5 2.2 -1.4
v 3 2.2 -1.4
v 3.1 2.2 -1.4
v 0.3 2.2 -1.5
v 0.4 2.2 -1.5
v 2.9 2.2 -1.5
v 3 2.2 -1.5
v 0.4 2.2 -1.6
v 0.5 2.2 -1.6
v 2.9 2.2 -1.6
v 3.1 2.2 -1.6
v 0.3 2.2 -1.7
v 0.5 2.2 -1.7
v 0.3 2.2 -1.8
v 0.4 2.2 -1.8
v 0.6 2.2 -1.8
v 0.4 2.2 -1.9
v 0.5 2.2 -1.9
v 0.6 2.2 -1.9
v 2.9 2.2 -2.2
v 3 2.2 -2.2
v 0.3 2.2 -2.3
v 0.4 2.2 -2.3
v 0.3 2.2 -2.4
v 0.4 2.2 -2.4
v 2.9 2.2 -2.7
v 3 2.2 -2.7
v 0.4 2.2 -2.8
v 0.5 2.2 -2.8
v 2.8 2.2 -2.8
v 3 2.2 -2.8
v 3.1 2.2 -2.8
v 0.3 2.2 -2.9
v 0.4 2.2 -2.9
v 0.5 2.2 -2.9
v 2.8 2.2 -2.9
v 3 2.2 -2.9
v 3.1 2.2 -2.9
v 0.3 2.2 -3.1
v 0.4 2.2 -3.1
v 2.9 2.2 -3.1
v 3 2.2 -3.1
v 0.6 2.2 -3.2
v 0.6 2.2 -3.3
v 3 2.2 -3.4
v 3.1 2.2 -3.4
v 3 2.2 -3.5
v 3.1 2.2 -3.5
v 0.3 2.2 -3.7
v 0.4 2.2 -3.7
v 0.4 2.2 -3.8
v 0.5 2.2 -3.8
v 0.3 2.2 -3.9
v 0.4 2.2 -3.9
v 2.9 2.2 -3.9
v 3 2.2 -3.9
v 0.4 2.2 -4
v 0.5 2.2 -4
v 0.6 2.2 -4
v 0.6 2.2 -4.1
v 0.6 2.2 -4.4
v 2.9 2.2 -4.4
v 3 2.2 -4.4
v 0.6 2.2 -4.5
v 2.8 2.2 -4.5
v 0.6 2.2 -4.6
v 2.8 2.2 -4.6
v 2.9 2.2 -4.6
v 3 2.2 -4.6
v 0.3 2.2 -4.8
v 0.4 2.2 -4.8
v 0.3 2.2 -4.9
v 0.4 2.2 -4.9
v 2.8 2.2 -5
v 2.8 2.2 -5.1
v 0.6 2.2 -5.3
v 3 2.2 -5.3
v 3.1 2.2 -5.3
v 0.3 2.2 -5.4
v 0.4 2.2 -5.4
v 0.3 2.2 -5.5
v 0.4 2.2 -5.5
v 0.6 2.2 -5.5
v 2.8 2.2 -5.5
v 0.3 2.2 -5.6
v 0.4 2.2 -5.6
v 3 2.2 -5.6
v 3.1 2.2 -5.6
v 0.3 2.2 -5.7
v 0.4 2.2 -5.7
v 0.6 2.2 -5.7
v 2.8 2.2 -5.7
v 0.4 2.2 -6
v 0.5 2.2 -6
v 2.9 2.2 -6
v 3 2.2 -6
v 0.3 2.2 -6.1
v 0.4 2.2 -6.1
v 0.6 2.2 -6.1
v 2.8 2.2 -6.1
v 3 2.2 -6.1
v 3.1 2.2 -6.1
v 0.1 2.2 -6.2
v 0.3 2.2 -6.2
v 0.4 2.2 -6.2
v 0.6 2.2 -6.2
v 2.8 2.2 -6.2
v 3 2.2 -6.2
v 3.1 2.2 -6.2
v 3.2 2.2 -6.2
v 3.3 2.2 -6.2
v 0.1 2.2 -6.3
v 0.3 2.2 -6.3
v 0.4 2.2 -6.3
v 3 2.2 -6.3
v 3.1 2.2 -6.3
v 3.2 2.2 -6.3
v 3.3 2.2 -6.3
v 0.4 2.3 0
v 0.7 2.3 0
v 2.7 2.3 0
v 2.8 2.3 0
v 3 2.3 0
v 0.4 2.3 -0.1
v 0.6 2.3 -0.1
v 0.7 2.3 -0.1
v 0.8 2.3 -0.1
v 0.9 2.3 -0.1
v 2.5 2.3 -0.1
v 2.7 2.3 -0.1
v 2.8 2.3 -0.1
v 3 2.3 -0.1
v 0.6 2.3 -0.2
v 0.7 2.3 -0.2
v 0.9 2.3 -0.2
v 2.5 2.3 -0.2
v 2.7 2.3 -0.2
v 2.8 2.3 -0.2
v 0.7 2.3 -0.3
v 0.8 2.3 -0.3
v 2.6 2.3 -0.3
v 2.7 2.3 -0.3
v 0.9 2.3 -0.6
v 0.7 2.3 -0.7
v 0.8 2.3 -0.7
v 0.9 2.3 -0.7
v 0.6 2.3 -0.8
v 0.7 2.3 -0.8
v 0.9 2.3 -0.8
v 0.7 2.3 -0.9
v 0.8 2.3 -0.9
v 2.5 2.3 -0.9
v 0.6 2.3 -1
v 0.7 2.3 -1
v 0.9 2.3 -1
v 0.7 2.3 -1.1
v 0.8 2.3 -1.1
v 0.7 2.3 -1.2
v 0.8 2.3 -1.2
v 2.5 2.3 -1.3
v 0.6 2.3 -1.8
v 0.8 2.3 -1.8
v 0.6 2.3 -1.9
v 0.7 2.3 -1.9
v 0.9 2.3 -1.9
v 0.7 2.3 -2
v 0.8 2.3 -2
v 2.5 2.3 -2
v 0.9 2.3 -2.2
v 2.5 2.3 -2.2
v 2.6 2.3 -2.3
v 2.7 2.3 -2.3
v 2.6 2.3 -2.4
v 2.7 2.3 -2.4
v 2.6 2.3 -2.6
v 2.7 2.3 -2.6
v 0.7 2.3 -2.7
v 0.8 2.3 -2.7
v 0.7 2.3 -2.8
v 0.8 2.3 -2.8
v 0.9 2.3 -2.8
v 2.6 2.3 -2.8
v 2.7 2.3 -2.8
v 2.8 2.3 -2.8
v 2.7 2.3 -2.9
v 2.8 2.3 -2.9
v 2.6 2.3 -3
v 2.7 2.3 -3
v 2.6 2.3 -3.1
v 2.7 2.3 -3.1
v 0.6 2.3 -3.2
v 0.7 2.3 -3.2
v 0.6 2.3 -3.3
v 0.7 2.3 -3.3
v 0.9 2.3 -3.5
v 2.5 2.3 -3.6
v 2.5 2.3 -3.8
v 0.6 2.3 -4
v 0.8 2.3 -4
v 0.9 2.3 -4
v 0.6 2.3 -4.1
v 0.8 2.3 -4.1
v 0.9 2.3 -4.1
v 2.5 2.3 -4.1
v 0.9 2.3 -4.2
v 0.7 2.3 -4.3
v 0.8 2.3 -4.3
v 2.5 2.3 -4.3
v 0.6 2.3 -4.4
v 0.7 2.3 -4.4
v 0.9 2.3 -4.4
v 0.6 2.3 -4.5
v 0.7 2.3 -4.5
v 2.7 2.3 -4.5
v 2.8 2.3 -4.5
v 0.6 2.3 -4.6
v 0.7 2.3 -4.6
v 2.7 2.3 -4.6
v 2.8 2.3 -4.6
v 0.7 2.3 -4.7
v 0.8 2.3 -4.7
v 2.6 2.3 -4.7
v 2.7 2.3 -4.7
v 2.6 2.3 -4.8
v 2.7 2.3 -4.8
v 2.6 2.3 -5
v 2.8 2.3 -5
v 2.6 2.3 -5.1
v 2.8 2.3 -5.1
v 0.9 2.3 -5.2
v 0.6 2.3 -5.3
v 0.7 2.3 -5.3
v 0.9 2.3 -5.3
v 0.6 2.3 -5.5
v 0.7 2.3 -5.5
v 0.9 2.3 -5.5
v 2.7 2.3 -5.5
v 2.8 2.3 -5.5
v 0.9 2.3 -5.6
v 2.6 2.3 -5.6
v 2.7 2.3 -5.6
v 0.6 2.3 -5.7
v 0.7 2.3 -5.7
v 2.6 2.3 -5.7
v 2.8 2.3 -5.7
v 0.7 2.3 -6
v 0.8 2.3 -6
v 2.6 2.3 -6
v 2.7 2.3 -6
v 0.6 2.3 -6.1
v 0.7 2.3 -6.1
v 0.9 2.3 -6.1
v 2.5 2.3 -6.1
v 2.7 2.3 -6.1
v 2.8 2.3 -6.1
v 0.4 2.3 -6.2
v 0.6 2.3 -6.2
v 0.7 2.3 -6.2
v 0.8 2.3 -6.2
v 0.9 2.3 -6.2
v 2.5 2.3 -6.2
v 2.7 2.3 -6.2
v 2.8 2.3 -6.2
v 3 2.3 -6.2
v 0.4 2.3 -6.3
v 0.7 2.3 -6.3
v 2.7 2.3 -6.3
v 2.8 2.3 -6.3
v 3 2.3 -6.3
v 0.7 2.4 0
v 0.8 2.4 0
v 0.9 2.4 0
v 1 2.4 0
v 2.4 2.4 0
v 2.5 2.4 0
v 2.7 2.4 0
v 0.7 2.4 -0.1
v 0.8 2.4 -0.1
v 0.9 2.4 -0.1
v 1 2.4 -0.1
v 1.2 2.4 -0.1
v 2.2 2.4 -0.1
v 2.4 2.4 -0.1
v 2.5 2.4 -0.1
v 2.7 2.4 -0.1
v 0.9 2.4 -0.2
v 1 2.4 -0.2
v 1.2 2.4 -0.2
v 2.2 2.4 -0.2
v 2.4 2.4 -0.2
v 2.5 2.4 -0.2
v 1 2.4 -0.3
v 1.1 2.4 -0.3
v 2.3 2.4 -0.3
v 2.4 2.4 -0.3
v 2.3 2.4 -0.4
v 2.4 2.4 -0.4
v 2.2 2.4 -0.5
v 0.9 2.4 -0.6
v 1 2.4 -0.6
v 2.2 2.4 -0.6
v 2.3 2.4 -0.6
v 2.4 2.4 -0.6
v 0.9 2.4 -0.7
v 1 2.4 -0.7
v 0.9 2.4 -0.8
v 1 2.4 -0.8
v 2.3 2.4 -0.8
v 2.4 2.4 -0.8
v 2.3 2.4 -0.9
v 2.4 2.4 -0.9
v 2.5 2.4 -0.9
v 0.9 2.4 -1
v 1 2.4 -1
v 2.3 2.4 -1
v 2.4 2.4 -1
v 2.3 2.4 -1.1
v 2.4 2.4 -1.1
v 2.4 2.4 -1.3
v 2.5 2.4 -1.3
v 1 2.4 -1.4
v 1.1 2.4 -1.4
v 1 2.4 -1.5
v 1.1 2.4 -1.5
v 2.2 2.4 -1.6
v 2.2 2.4 -1.8
v 0.9 2.4 -1.9
v 1 2.4 -1.9
v 2.4 2.4 -2
v 2.5 2.4 -2
v 0.9 2.4 -2.2
v 1 2.4 -2.2
v 1.2 2.4 -2.2
v 2.4 2.4 -2.2
v 2.5 2.4 -2.2
v 1.2 2.4 -2.3
v 2.2 2.4 -2.6
v 0.9 2.4 -2.8
v 1.1 2.4 -2.8
v 1.2 2.4 -2.8
v 2.2 2.4 -2.8
v 1 2.4 -2.9
v 1.1 2.4 -2.9
v 1.2 2.4 -2.9
v 1.2 2.4 -3.2
v 0.9 2.4 -3.5
v 1 2.4 -3.5
v 1.1 2.4 -3.5
v 1 2.4 -3.6
v 1.1 2.4 -3.6
v 2.4 2.4 -3.6
v 2.5 2.4 -3.6
v 1.2 2.4 -3.7
v 2.2 2.4 -3.8
v 2.3 2.4 -3.8
v 2.4 2.4 -3.8
v 2.5 2.4 -3.8
v 2.2 2.4 -3.9
v 2.3 2.4 -3.9
v 2.4 2.4 -3.9
v 0.9 2.4 -4
v 1 2.4 -4
v 0.9 2.4 -4.1
v 1 2.4 -4.1
v 1.2 2.4 -4.1
v 2.4 2.4 -4.1
v 2.5 2.4 -4.1
v 0.9 2.4 -4.2
v 1 2.4 -4.2
v 1.2 2.4 -4.2
v 2.4 2.4 -4.3
v 2.5 2.4 -4.3
v 0.9 2.4 -4.4
v 1 2.4 -4.4
v 1.1 2.4 -4.4
v 2.2 2.4 -4.4
v 1 2.4 -4.5
v 1.1 2.4 -4.5
v 1.2 2.4 -4.6
v 1.2 2.4 -4.8
v 2.2 2.4 -4.8
v 0.9 2.4 -5.2
v 1 2.4 -5.2
v 1.2 2.4 -5.2
v 0.9 2.4 -5.3
v 1 2.4 -5.3
v 1.2 2.4 -5.3
v 0.9 2.4 -5.5
v 1 2.4 -5.5
v 0.9 2.4 -5.6
v 1 2.4 -5.6
v 1.1 2.4 -5.6
v 1.2 2.4 -5.6
v 2.2 2.4 -5.6
v 1 2.4 -5.7
v 1.1 2.4 -5.7
v 1.2 2.4 -5.7
v 2.2 2.4 -5.7
v 1 2.4 -6
v 1.1 2.4 -6
v 2.3 2.4 -6
v 2.4 2.4 -6
v 0.9 2.4 -6.1
v 1 2.4 -6.1
v 1.2 2.4 -6.1
v 2.2 2.4 -6.1
v 2.4 2.4 -6.1
v 2.5 2.4 -6.1
v 0.7 2.4 -6.2
v 0.8 2.4 -6.2
v 0.9 2.4 -6.2
v 1 2.4 -6.2
v 1.2 2.4 -6.2
v 2.2 2.4 -6.2
v 2.4 2.4 -6.2
v 2.5 2.4 -6.2
v 2.7 2.4 -6.2
v 0.7 2.4 -6.3
v 0.8 2.4 -6.3
v 0.9 2.4 -6.3
v 1 2.4 -6.3
v 2.4 2.4 -6.3
v 2.5 2.4 -6.3
v 2.7 2.4 -6.3
v 1 2.5 0
v 1.2 2.5 0
v 1.3 2.5 0
v 2.1 2.5 0
v 2.2 2.5 0
v 2.4 2.5 0
v 1 2.5 -0.1
v 1.2 2.5 -0.1
v 1.3 2.5 -0.1
v 1.5 2.5 -0.1
v 1.9 2.5 -0.1
v 2.1 2.5 -0.1
v 2.2 2.5 -0.1
v 2.4 2.5 -0.1
v 1.2 2.5 -0.2
v 1.3 2.5 -0.2
v 1.5 2.5 -0.2
v 1.9 2.5 -0.2
v 2.1 2.5 -0.2
v 2.2 2.5 -0.2
v 1.3 2.5 -0.3
v 1.4 2.5 -0.3
v 2 2.5 -0.3
v 2.1 2.5 -0.3
v 1.5 2.5 -0.5
v 2.1 2.5 -0.5
v 2.2 2.5 -0.5
v 2.1 2.5 -0.6
v 2.2 2.5 -0.6
v 1.5 2.5 -0.7
v 1.9 2.5 -0.7
v 1.9 2.5 -0.8
v 1.3 2.5 -1.1
v 1.4 2.5 -1.1
v 1.9 2.5 -1.1
v 1.3 2.5 -1.2
v 1.4 2.5 -1.2
v 1.5 2.5 -1.2
v 1.5 2.5 -1.3
v 1.9 2.5 -1.3
v 1.5 2.5 -1.5
v 2.1 2.5 -1.6
v 2.2 2.5 -1.6
v 1.5 2.5 -1.7
v 2.1 2.5 -1.8
v 2.2 2.5 -1.8
v 1.2 2.5 -2.2
v 1.3 2.5 -2.2
v 1.5 2.5 -2.2
v 1.9 2.5 -2.2
v 1.2 2.5 -2.3
v 1.3 2.5 -2.3
v 1.9 2.5 -2.3
v 1.5 2.5 -2.4
v 2.1 2.5 -2.6
v 2.2 2.5 -2.6
v 1.2 2.5 -2.8
v 1.3 2.5 -2.8
v 1.5 2.5 -2.8
v 2.1 2.5 -2.8
v 2.2 2.5 -2.8
v 1.2 2.5 -2.9
v 1.3 2.5 -2.9
v 1.4 2.5 -2.9
v 1.5 2.5 -2.9
v 1.3 2.5 -3
v 1.4 2.5 -3
v 1.2 2.5 -3.2
v 1.3 2.5 -3.2
v 1.3 2.5 -3.5
v 1.4 2.5 -3.5
v 1.3 2.5 -3.6
v 1.4 2.5 -3.6
v 1.2 2.5 -3.7
v 1.3 2.5 -3.7
v 2.1 2.5 -3.8
v 2.2 2.5 -3.8
v 2.1 2.5 -3.9
v 2.2 2.5 -3.9
v 1.5 2.5 -4
v 1.2 2.5 -4.1
v 1.4 2.5 -4.1
v 1.9 2.5 -4.1
v 1.2 2.5 -4.2
v 1.3 2.5 -4.2
v 1.5 2.5 -4.2
v 1.3 2.5 -4.4
v 1.4 2.5 -4.4
v 1.5 2.5 -4.4
v 2.1 2.5 -4.4
v 2.2 2.5 -4.4
v 1.5 2.5 -4.5
v 1.9 2.5 -4.5
v 1.2 2.5 -4.6
v 1.3 2.5 -4.6
v 1.3 2.5 -4.7
v 1.4 2.5 -4.7
v 1.9 2.5 -4.7
v 1.2 2.5 -4.8
v 1.4 2.5 -4.8
v 2.1 2.5 -4.8
v 2.2 2.5 -4.8
v 1.9 2.5 -4.9
v 1.2 2.5 -5.2
v 1.3 2.5 -5.2
v 1.2 2.5 -5.3
v 1.3 2.5 -5.3
v 1.5 2.5 -5.3
v 1.5 2.5 -5.4
v 1.2 2.5 -5.6
v 1.4 2.5 -5.6
v 1.9 2.5 -5.6
v 2.1 2.5 -5.6
v 2.2 2.5 -5.6
v 1.2 2.5 -5.7
v 1.4 2.5 -5.7
v 2.1 2.5 -5.7
v 2.2 2.5 -5.7
v 1.9 2.5 -5.8
v 1.3 2.5 -6
v 1.4 2.5 -6
v 2 2.5 -6
v 2.1 2.5 -6
v 1.2 2.5 -6.1
v 1.3 2.5 -6.1
v 1.5 2.5 -6.1
v 1.9 2.5 -6.1
v 2.1 2.5 -6.1
v 2.2 2.5 -6.1
v 1 2.5 -6.2
v 1.2 2.5 -6.2
v 1.3 2.5 -6.2
v 1.5 2.5 -6.2
v 1.9 2.5 -6.2
v 2.1 2.5 -6.2
v 2.2 2.5 -6.2
v 2.4 2.5 -6.2
v 1 2.5 -6.3
v 1.2 2.5 -6.3
v 1.3 2.5 -6.3
v 2.1 2.5 -6.3
v 2.2 2.5 -6.3
v 2.4 2.5 -6.3
v 1.3 2.6 0
v 1.5 2.6 0
v 1.6 2.6 0
v 1.8 2.6 0
v 1.9 2.6 0
v 2.1 2.6 0
v 1.3 2.6 -0.1
v 1.5 2.6 -0.1
v 1.6 2.6 -0.1
v 1.7 2.6 -0.1
v 1.8 2.6 -0.1
v 1.9 2.6 -0.1
v 2.1 2.6 -0.1
v 1.5 2.6 -0.2
v 1.9 2.6 -0.2
v 1.5 2.6 -0.5
v 1.6 2.6 -0.5
v 1.7 2.6 -0.5
v 1.8 2.6 -0.5
v 1.7 2.6 -0.6
v 1.8 2.6 -0.6
v 1.5 2.6 -0.7
v 1.6 2.6 -0.7
v 1.8 2.6 -0.7
v 1.9 2.6 -0.7
v 1.8 2.6 -0.8
v 1.9 2.6 -0.8
v 1.8 2.6 -1.1
v 1.9 2.6 -1.1
v 1.5 2.6 -1.2
v 1.6 2.6 -1.2
v 1.5 2.6 -1.3
v 1.6 2.6 -1.3
v 1.8 2.6 -1.3
v 1.9 2.6 -1.3
v 1.5 2.6 -1.5
v 1.6 2.6 -1.5
v 1.7 2.6 -1.6
v 1.8 2.6 -1.6
v 1.5 2.6 -1.7
v 1.6 2.6 -1.7
v 1.7 2.6 -1.7
v 1.8 2.6 -1.7
v 1.5 2.6 -2.2
v 1.6 2.6 -2.2
v 1.8 2.6 -2.2
v 1.9 2.6 -2.2
v 1.8 2.6 -2.3
v 1.9 2.6 -2.3
v 1.5 2.6 -2.4
v 1.6 2.6 -2.4
v 1.7 2.6 -2.6
v 1.8 2.6 -2.6
v 1.7 2.6 -2.7
v 1.8 2.6 -2.7
v 1.5 2.6 -2.8
v 1.6 2.6 -2.8
v 1.5 2.6 -2.9
v 1.6 2.6 -2.9
v 1.7 2.6 -3.2
v 1.8 2.6 -3.2
v 1.7 2.6 -3.3
v 1.8 2.6 -3.3
v 1.5 2.6 -4
v 1.6 2.6 -4
v 1.8 2.6 -4.1
v 1.9 2.6 -4.1
v 1.5 2.6 -4.2
v 1.6 2.6 -4.2
v 1.5 2.6 -4.4
v 1.6 2.6 -4.4
v 1.5 2.6 -4.5
v 1.6 2.6 -4.5
v 1.8 2.6 -4.5
v 1.9 2.6 -4.5
v 1.8 2.6 -4.7
v 1.9 2.6 -4.7
v 1.8 2.6 -4.9
v 1.9 2.6 -4.9
v 1.5 2.6 -5.3
v 1.6 2.6 -5.3
v 1.7 2.6 -5.3
v 1.8 2.6 -5.3
v 1.5 2.6 -5.4
v 1.6 2.6 -5.4
v 1.7 2.6 -5.4
v 1.8 2.6 -5.4
v 1.6 2.6 -5.6
v 1.7 2.6 -5.6
v 1.8 2.6 -5.6
v 1.9 2.6 -5.6
v 1.6 2.6 -5.7
v 1.7 2.6 -5.7
v 1.8 2.6 -5.8
v 1.9 2.6 -5.8
v 1.5 2.6 -6.1
v 1.7 2.6 -6.1
v 1.8 2.6 -6.1
v 1.9 2.6 -6.1
v 1.3 2.6 -6.2
v 1.5 2.6 -6.2
v 1.6 2.6 -6.2
v 1.7 2.6 -6.2
v 1.8 2.6 -6.2
v 1.9 2.6 -6.2
v 2.1 2.6 -6.2
v 1.3 2.6 -6.3
v 1.5 2.6 -6.3
v 1.6 2.6 -6.3
v 1.8 2.6 -6.3
v 1.9 2.6 -6.3
v 2.1 2.6 -6.3
v 1.6 2.7 0
v 1.7 2.7 0
v 1.8 2.7 0
v 1.6 2.7 -0.1
v 1.7 2.7 -0.1
v 1.8 2.7 -0.1
v 1.6 2.7 -6.2
v 1.7 2.7 -6.2
v 1.8 2.7 -6.2
v 1.6 2.7 -6.3
v 1.7 2.7 -6.3
v 1.8 2.7 -6.3

# faces
f 3/6/1 2/6/1 1/6/1
f 4/6/1 2/6/1 3/6/1
f 9/6/1 6/6/1 5/6/1
f 10/6/1 6/6/1 9/6/1
f 11/6/1 8/6/1 7/6/1
f 12/6/1 8/6/1 11/6/1
f 33/6/1 14/6/1 13/6/1
f 34/5/1 15/5/1 14/5/1
f 34/6/1 14/6/1 33/6/1
f 35/6/1 16/6/1 15/6/1
f 35/5/1 15/5/1 34/5/1
f 36/5/1 17/5/1 16/5/1
f 36/6/1 16/6/1 35/6/1
f 37/6/1 18/6/1 17/6/1
f 37/5/1 17/5/1 36/5/1
f 38/5/1 19/5/1 18/5/1
f 38/6/1 18/6/1 37/6/1
f 39/6/1 20/6/1 19/6/1
f 39/5/1 19/5/1 38/5/1
f 40/5/1 21/5/1 20/5/1
f 40/6/1 20/6/1 39/6/1
f 41/6/1 22/6/1 21/6/1
f 41/5/1 21/5/1 40/5/1
f 42/5/1 23/5/1 22/5/1
f 42/6/1 22/6/1 41/6/1
f 43/6/1 24/6/1 23/6/1
f 43/5/1 23/5/1 42/5/1
f 44/5/1 25/5/1 24/5/1
f 44/6/1 24/6/1 43/6/1
f 45/6/1 26/6/1 25/6/1
f 45/5/1 25/5/1 44/5/1
f 46/5/1 27/5/1 26/5/1
f 46/6/1 26/6/1 45/6/1
f 47/6/1 28/6/1 27/6/1
f 47/5/1 27/5/1 46/5/1
f 48/5/1 29/5/1 28/5/1
f 48/6/1 28/6/1 47/6/1
f 49/6/1 30/6/1 29/6/1
f 49/5/1 29/5/1 48/5/1
f 50/5/1 31/5/1 30/5/1
f 50/6/1 30/6/1 49/6/1
f 51/6/1 32/6/1 31/6/1
f 51/5/1 31/5/1 50/5/1
f 52/6/1 32/6/1 51/6/1
f 57/6/1 54/6/1 53/6/1
f 58/6/1 54/6/1 57/6/1
f 59/6/1 56/6/1 55/6/1
f 60/6/1 56/6/1 59/6/1
f 79/6/1 62/6/1 61/6/1
f 80/5/1 63/5/1 62/5/1
f 80/6/1 62/6/1 79/6/1
f 81/6/1 64/6/1 63/6/1
f 81/5/1 63/5/1 80/5/1
f 82/5/1 65/5/1 64/5/1
f 82/6/1 64/6/1 81/6/1
f 83/6/1 66/6/1 65/6/1
f 83/5/1 65/5/1 82/5/1
f 84/5/1 67/5/1 66/5/1
f 84/6/1 66/6/1 83/6/1
f 85/6/1 68/6/1 67/6/1
f 85/5/1 67/5/1 84/5/1
f 86/5/1 69/5/1 68/5/1
f 86/6/1 68/6/1 85/6/1
f 87/6/1 70/6/1 69/6/1
f 87/5/1 69/5/1 86/5/1
f 88/5/1 71/5/1 70/5/1
f 88/6/1 70/6/1 87/6/1
f 89/6/1 72/6/1 71/6/1
f 89/5/1 71/5/1 88/5/1
f 90/5/1 73/5/1 72/5/1
f 90/6/1 72/6/1 89/6/1
f 91/6/1 74/6/1 73/6/1
f 91/5/1 73/5/1 90/5/1
f 92/5/1 75/5/1 74/5/1
f 92/6/1 74/6/1 91/6/1
f 93/6/1 76/6/1 75/6/1
f 93/5/1 75/5/1 92/5/1
f 94/5/1 77/5/1 76/5/1
f 94/6/1 76/6/1 93/6/1
f 95/6/1 78/6/1 77/6/1
f 95/5/1 77/5/1 94/5/1
f 96/6/1 78/6/1 95/6/1
f 101/6/1 98/6/1 97/6/1
f 102/6/1 98/6/1 101/6/1
f 103/6/1 100/6/1 99/6/1
f 104/6/1 100/6/1 103/6/1
f 125/6/1 106/6/1 105/6/1
f 126/5/1 107/5/1 106/5/1
f 126/6/1 106/6/1 125/6/1
f 127/6/1 108/6/1 107/6/1
f 127/5/1 107/5/1 126/5/1
f 128/5/1 109/5/1 108/5/1
f 128/6/1 108/6/1 127/6/1
f 129/6/1 110/6/1 109/6/1
f 129/5/1 109/5/1 128/5/1
f 130/5/1 111/5/1 110/5/1
f 130/6/1 110/6/1 129/6/1
f 131/6/1 112/6/1 111/6/1
f 131/5/1 111/5/1 130/5/1
f 132/5/1 113/5/1 112/5/1
f 132/6/1 112/6/1 131/6/1
f 133/6/1 114/6/1 113/6/1
f 133/5/1 113/5/1 132/5/1
f 134/5/1 115/5/1 114/5/1
f 134/6/1 114/6/1 133/6/1
f 135/6/1 116/6/1 115/6/1
f 135/5/1 115/5/1 134/5/1
f 136/5/1 117/5/1 116/5/1
f 136/6/1 116/6/1 135/6/1
f 137/6/1 118/6/1 117/6/1
f 137/5/1 117/5/1 136/5/1
f 138/5/1 119/5/1 118/5/1
f 138/6/1 118/6/1 137/6/1
f 139/6/1 120/6/1 119/6/1
f 139/5/1 119/5/1 138/5/1
f 140/5/1 121/5/1 120/5/1
f 140/6/1 120/6/1 139/6/1
f 141/6/1 122/6/1 121/6/1
f 141/5/1 121/5/1 140/5/1
f 142/5/1 123/5/1 122/5/1
f 142/6/1 122/6/1 141/6/1
f 143/3/1 124/3/1 123/3/1
f 143/5/1 123/5/1 142/5/1
f 144/3/1 124/3/1 143/3/1
f 149/6/1 146/6/1 145/6/1
f 150/6/1 146/6/1 149/6/1
f 151/6/1 148/6/1 147/6/1
f 152/6/1 148/6/1 151/6/1
f 171/6/1 154/6/1 153/6/1
f 172/5/1 155/5/1 154/5/1
f 172/6/1 154/6/1 171/6/1
f 173/6/1 156/6/1 155/6/1
f 173/5/1 155/5/1 172/5/1
f 174/5/1 157/5/1 156/5/1
f 174/6/1 156/6/1 173/6/1
f 175/6/1 158/6/1 157/6/1
f 175/5/1 157/5/1 174/5/1
f 176/5/1 159/5/1 158/5/1
f 176/6/1 158/6/1 175/6/1
f 177/6/1 160/6/1 159/6/1
f 177/5/1 159/5/1 176/5/1
f 178/5/1 161/5/1 160/5/1
f 178/6/1 160/6/1 177/6/1
f 179/6/1 162/6/1 161/6/1
f 179/5/1 161/5/1 178/5/1
f 180/5/1 163/5/1 162/5/1
f 180/6/1 162/6/1 179/6/1
f 181/6/1 164/6/1 163/6/1
f 181/5/1 163/5/1 180/5/1
f 182/5/1 165/5/1 164/5/1
f 182/6/1 164/6/1 181/6/1
f 183/6/1 166/6/1 165/6/1
f 183/5/1 165/5/1 182/5/1
f 184/5/1 167/5/1 166/5/1
f 184/6/1 166/6/1 183/6/1
f 185/6/1 168/6/1 167/6/1
f 185/5/1 167/5/1 184/5/1
f 186/5/1 169/5/1 168/5/1
f 186/6/1 168/6/1 185/6/1
f 187/3/1 170/3/1 169/3/1
f 187/5/1 169/5/1 186/5/1
f 188/3/1 170/3/1 187/3/1
f 193/6/1 190/6/1 189/6/1
f 194/6/1 190/6/1 193/6/1
f 195/6/1 192/6/1 191/6/1
f 196/6/1 192/6/1 195/6/1
f 217/6/1 198/6/1 197/6/1
f 218/5/1 199/5/1 198/5/1
f 218/6/1 198/6/1 217/6/1
f 219/6/1 200/6/1 199/6/1
f 219/5/1 199/5/1 218/5/1
f 220/5/1 201/5/1 200/5/1
f 220/6/1 200/6/1 219/6/1
f 221/6/1 202/6/1 201/6/1
f 221/5/1 201/5/1 220/5/1
f 222/5/1 203/5/1 202/5/1
f 222/6/1 202/6/1 221/6/1
f 223/6/1 204/6/1 203/6/1
f 223/5/1 203/5/1 222/5/1
f 224/5/1 205/5/1 204/5/1
f 224/6/1 204/6/1 223/6/1
f 225/6/1 206/6/1 205/6/1
f 225/5/1 205/5/1 224/5/1
f 226/5/1 207/5/1 206/5/1
f 226/6/1 206/6/1 225/6/1
f 227/6/1 208/6/1 207/6/1
f 227/5/1 207/5/1 226/5/1
f 228/5/1 209/5/1 208/5/1
f 228/6/1 208/6/1 227/6/1
f 229/6/1 210/6/1 209/6/1
f 229/5/1 209/5/1 228/5/1
f 230/5/1 211/5/1 210/5/1
f 230/6/1 210/6/1 229/6/1
f 231/6/1 212/6/1 211/6/1
f 231/5/1 211/5/1 230/5/1
f 232/5/1 213/5/1 212/5/1
f 232/6/1 212/6/1 231/6/1
f 233/6/1 214/6/1 213/6/1
f 233/5/1 213/5/1 232/5/1
f 234/5/1 215/5/1 214/5/1
f 234/6/1 214/6/1 233/6/1
f 235/3/1 216/3/1 215/3/1
f 235/5/1 215/5/1 234/5/1
f 236/3/1 216/3/1 235/3/1
f 241/6/1 238/6/1 237/6/1
f 242/6/1 238/6/1 241/6/1
f 243/6/1 240/6/1 239/6/1
f 244/6/1 240/6/1 243/6/1
f 249/6/1 246/6/1 245/6/1
f 250/6/1 246/6/1 249/6/1
f 251/6/1 248/6/1 247/6/1
f 252/6/1 248/6/1 251/6/1
f 257/6/1 254/6/1 253/6/1
f 258/6/1 254/6/1 257/6/1
f 259/6/1 256/6/1 255/6/1
f 260/6/1 256/6/1 259/6/1
f 265/6/1 262/6/1 261/6/1
f 266/6/1 262/6/1 265/6/1
f 267/6/1 264/6/1 263/6/1
f 268/6/1 264/6/1 267/6/1
f 269/6/2 270/6/2 273/6/2
f 273/6/2 270/6/2 274/6/2
f 271/6/2 272/6/2 275/6/2
f 275/6/2 272/6/2 276/6/2
f 277/6/2 278/6/2 281/6/2
f 281/6/2 278/6/2 282/6/2
f 279/6/2 280/6/2 283/6/2
f 283/6/2 280/6/2 284/6/2
f 285/6/2 286/6/2 289/6/2
f 289/6/2 286/6/2 290/6/2
f 287/6/2 288/6/2 291/6/2
f 291/6/2 288/6/2 292/6/2
f 293/3/2 294/3/2 297/3/2
f 297/3/2 294/3/2 298/3/2
f 295/3/2 296/3/2 299/3/2
f 299/3/2 296/3/2 300/3/2
f 301/6/2 302/6/2 317/6/2
f 302/5/2 303/5/2 318/5/2
f 317/6/2 302/6/2 318/6/2
f 303/6/2 304/6/2 319/6/2
f 318/5/2 303/5/2 319/5/2
f 304/5/2 305/5/2 320/5/2
f 319/6/2 304/6/2 320/6/2
f 305/6/2 306/6/2 321/6/2
f 320/5/2 305/5/2 321/5/2
f 306/5/2 307/5/2 322/5/2
f 321/6/2 306/6/2 322/6/2
f 307/6/2 308/6/2 323/6/2
f 322/5/2 307/5/2 323/5/2
f 308/5/2 309/5/2 324/5/2
f 323/6/2 308/6/2 324/6/2
f 309/6/2 310/6/2 325/6/2
f 324/5/2 309/5/2 325/5/2
f 310/5/2 311/5/2 326/5/2
f 325/6/2 310/6/2 326/6/2
f 311/6/2 312/6/2 327/6/2
f 326/5/2 311/5/2 327/5/2
f 312/5/2 313/5/2 328/5/2
f 327/6/2 312/6/2 328/6/2
f 313/6/2 314/6/2 329/6/2
f 328/5/2 313/5/2 329/5/2
f 314/5/2 315/5/2 330/5/2
f 329/6/2 314/6/2 330/6/2
f 315/3/2 316/3/2 331/3/2
f 330/5/2 315/5/2 331/5/2
f 331/3/2 316/3/2 332/3/2
f 333/6/2 334/6/2 337/6/2
f 337/6/2 334/6/2 338/6/2
f 335/6/2 336/6/2 339/6/2
f 339/6/2 336/6/2 340/6/2
f 341/6/2 342/6/2 357/6/2
f 342/5/2 343/5/2 358/5/2
f 357/6/2 342/6/2 358/6/2
f 343/6/2 344/6/2 359/6/2
f 358/5/2 343/5/2 359/5/2
f 344/5/2 345/5/2 360/5/2
f 359/6/2 344/6/2 360/6/2
f 345/6/2 346/6/2 361/6/2
f 360/5/2 345/5/2 361/5/2
f 346/5/2 347/5/2 362/5/2
f 361/6/2 346/6/2 362/6/2
f 347/6/2 348/6/2 363/6/2
f 362/5/2 347/5/2 363/5/2
f 348/5/2 349/5/2 364/5/2
f 363/6/2 348/6/2 364/6/2
f 349/6/2 350/6/2 365/6/2
f 364/5/2 349/5/2 365/5/2
f 350/5/2 351/5/2 366/5/2
f 365/6/2 350/6/2 366/6/2
f 351/6/2 352/6/2 367/6/2
f 366/5/2 351/5/2 367/5/2
f 352/5/2 353/5/2 368/5/2
f 367/6/2 352/6/2 368/6/2
f 353/6/2 354/6/2 369/6/2
f 368/5/2 353/5/2 369/5/2
f 354/5/2 355/5/2 370/5/2
f 369/6/2 354/6/2 370/6/2
f 355/6/2 356/6/2 371/6/2
f 370/5/2 355/5/2 371/5/2
f 371/6/2 356/6/2 372/6/2
f 373/3/2 374/3/2 377/3/2
f 377/3/2 374/3/2 378/3/2
f 375/3/2 376/3/2 379/3/2
f 379/3/2 376/3/2 380/3/2
f 381/6/2 382/6/2 393/6/2
f 382/5/2 383/5/2 394/5/2
f 393/6/2 382/6/2 394/6/2
f 383/6/2 384/6/2 395/6/2
f 394/5/2 383/5/2 395/5/2
f 384/5/2 385/5/2 396/5/2
f 395/6/2 384/6/2 396/6/2
f 385/6/2 386/6/2 397/6/2
f 396/5/2 385/5/2 397/5/2
f 386/5/2 387/5/2 398/5/2
f 397/6/2 386/6/2 398/6/2
f 387/6/2 388/6/2 399/6/2
f 398/5/2 387/5/2 399/5/2
f 388/5/2 389/5/2 400/5/2
f 399/6/2 388/6/2 400/6/2
f 389/6/2 390/6/2 401/6/2
f 400/5/2 389/5/2 401/5/2
f 390/5/2 391/5/2 402/5/2
f 401/6/2 390/6/2 402/6/2
f 391/6/2 392/6/2 403/6/2
f 402/5/2 391/5/2 403/5/2
f 403/6/2 392/6/2 404/6/2
f 405/6/2 406/6/2 409/6/2
f 409/6/2 406/6/2 410/6/2
f 407/6/2 408/6/2 411/6/2
f 411/6/2 408/6/2 412/6/2
f 413/6/2 414/6/2 425/6/2
f 414/5/2 415/5/2 426/5/2
f 425/6/2 414/6/2 426/6/2
f 415/6/2 416/6/2 427/6/2
f 426/5/2 415/5/2 427/5/2
f 416/5/2 417/5/2 428/5/2
f 427/6/2 416/6/2 428/6/2
f 417/6/2 418/6/2 429/6/2
f 428/5/2 417/5/2 429/5/2
f 418/5/2 419/5/2 430/5/2
f 429/6/2 418/6/2 430/6/2
f 419/6/2 420/6/2 431/6/2
f 430/5/2 419/5/2 431/5/2
f 420/5/2 421/5/2 432/5/2
f 431/6/2 420/6/2 432/6/2
f 421/6/2 422/6/2 433/6/2
f 432/5/2 421/5/2 433/5/2
f 422/5/2 423/5/2 434/5/2
f 433/6/2 422/6/2 434/6/2
f 423/6/2 424/6/2 435/6/2
f 434/5/2 423/5/2 435/5/2
f 435/6/2 424/6/2 436/6/2
f 437/6/2 438/6/2 441/6/2
f 441/6/2 438/6/2 442/6/2
f 439/6/2 440/6/2 443/6/2
f 443/6/2 440/6/2 444/6/2
f 445/6/2 446/6/2 460/6/2
f 446/5/2 447/5/2 461/5/2
f 460/6/2 446/6/2 461/6/2
f 447/6/2 448/6/2 462/6/2
f 461/5/2 447/5/2 462/5/2
f 448/5/2 449/5/2 463/5/2
f 462/6/2 448/6/2 463/6/2
f 449/6/2 450/6/2 464/6/2
f 463/5/2 449/5/2 464/5/2
f 450/5/2 451/5/2 465/5/2
f 464/6/2 450/6/2 465/6/2
f 451/6/2 452/6/2 466/6/2
f 465/5/2 451/5/2 466/5/2
f 452/5/2 453/5/2 467/5/2
f 466/6/2 452/6/2 467/6/2
f 453/6/2 454/6/2 468/6/2
f 467/5/2 453/5/2 468/5/2
f 454/5/2 455/5/2 469/5/2
f 468/6/2 454/6/2 469/6/2
f 455/6/2 456/6/2 470/6/2
f 469/5/2 455/5/2 470/5/2
f 456/6/2 457/6/2 470/6/2
f 457/5/2 458/5/2 471/5/2
f 470/6/2 457/6/2 471/6/2
f 458/6/2 459/6/2 472/6/2
f 471/5/2 458/5/2 472/5/2
f 472/6/2 459/6/2 473/6/2
f 474/6/2 475/6/2 478/6/2
f 478/6/2 475/6/2 479/6/2
f 476/6/2 477/6/2 480/6/2
f 480/6/2 477/6/2 481/6/2
f 482/6/2 483/6/2 484/6/2
f 484/6/2 483/6/2 485/6/2
f 488/6/3 487/6/3 486/6/3
f 490/6/3 488/6/3 486/6/3
f 490/6/3 489/6/3 488/6/3
f 491/6/3 489/6/3 490/6/3
f 492/3/3 491/3/3 490/3/3
f 492/6/3 489/6/3 491/6/3
f 493/6/3 489/6/3 492/6/3
f 494/3/3 492/3/3 490/3/3
f 494/3/3 493/3/3 492/3/3
f 495/3/3 493/3/3 494/3/3
f 497/6/3 495/6/3 494/6/3
f 497/6/3 496/6/3 495/6/3
f 497/3/3 494/3/3 490/3/3
f 498/6/3 496/6/3 497/6/3
f 499/3/3 497/3/3 490/3/3
f 499/3/3 498/3/3 497/3/3
f 500/6/3 496/6/3 498/6/3
f 500/3/3 498/3/3 499/3/3
f 501/6/3 496/6/3 500/6/3
f 503/6/3 500/6/3 499/6/3
f 503/6/3 502/6/3 501/6/3
f 503/6/3 501/6/3 500/6/3
f 504/6/3 502/6/3 503/6/3
f 505/6/3 503/6/3 499/6/3
f 506/6/3 503/6/3 505/6/3
f 507/6/3 503/6/3 506/6/3
f 508/3/3 504/3/3 503/3/3
f 508/6/3 503/6/3 507/6/3
f 509/3/3 504/3/3 508/3/3
f 510/6/3 508/6/3 507/6/3
f 510/6/3 509/6/3 508/6/3
f 511/6/3 509/6/3 510/6/3
f 512/6/3 509/6/3 511/6/3
f 514/3/3 511/3/3 510/3/3
f 515/6/3 512/6/3 511/6/3
f 515/3/3 511/3/3 514/3/3
f 515/6/3 513/6/3 512/6/3
f 516/6/3 513/6/3 515/6/3
f 517/3/3 506/3/3 505/3/3
f 518/3/3 506/3/3 517/3/3
f 519/6/3 515/6/3 514/6/3
f 520/3/3 516/3/3 515/3/3
f 520/6/3 515/6/3 519/6/3
f 521/6/3 513/6/3 516/6/3
f 521/3/3 516/3/3 520/3/3
f 522/6/3 513/6/3 521/6/3
f 523/3/3 522/3/3 521/3/3
f 525/6/3 518/6/3 517/6/3
f 526/6/3 518/6/3 525/6/3
f 527/3/3 523/3/3 521/3/3
f 527/6/3 521/6/3 520/6/3
f 528/6/3 524/6/3 523/6/3
f 528/3/3 523/3/3 527/3/3
f 529/3/3 526/3/3 525/3/3
f 530/3/3 526/3/3 529/3/3
f 531/6/3 527/6/3 520/6/3
f 531/6/3 528/6/3 527/6/3
f 532/6/3 528/6/3 531/6/3
f 533/6/3 524/6/3 528/6/3
f 533/6/3 528/6/3 532/6/3
f 534/6/3 524/6/3 533/6/3
f 535/6/3 533/6/3 532/6/3
f 536/3/3 534/3/3 533/3/3
f 536/6/3 533/6/3 535/6/3
f 537/3/3 534/3/3 536/3/3
f 539/6/3 530/6/3 529/6/3
f 540/6/3 530/6/3 539/6/3
f 541/6/3 537/6/3 536/6/3
f 541/6/3 538/6/3 537/6/3
f 542/6/3 538/6/3 541/6/3
f 543/3/3 540/3/3 539/3/3
f 544/3/3 540/3/3 543/3/3
f 545/3/3 536/3/3 535/3/3
f 545/6/3 541/6/3 536/6/3
f 546/3/3 542/3/3 541/3/3
f 546/6/3 541/6/3 545/6/3
f 547/3/3 542/3/3 546/3/3
f 549/3/3 545/3/3 535/3/3
f 549/3/3 546/3/3 545/3/3
f 550/3/3 546/3/3 549/3/3
f 551/3/3 546/3/3 550/3/3
f 552/6/3 544/6/3 543/6/3
f 553/6/3 544/6/3 552/6/3
f 554/6/3 549/6/3 548/6/3
f 555/3/3 550/3/3 549/3/3
f 555/6/3 549/6/3 554/6/3
f 556/6/3 551/6/3 550/6/3
f 556/3/3 550/3/3 555/3/3
f 557/6/3 551/6/3 556/6/3
f 558/3/3 553/3/3 552/3/3
f 559/3/3 553/3/3 558/3/3
f 561/3/3 555/3/3 554/3/3
f 562/6/3 556/6/3 555/6/3
f 562/3/3 555/3/3 561/3/3
f 563/6/3 556/6/3 562/6/3
f 564/6/3 559/6/3 558/6/3
f 565/6/3 559/6/3 564/6/3
f 566/3/3 565/3/3 564/3/3
f 567/3/3 565/3/3 566/3/3
f 568/6/3 561/6/3 560/6/3
f 568/6/3 562/6/3 561/6/3
f 569/3/3 563/3/3 562/3/3
f 569/6/3 562/6/3 568/6/3
f 570/3/3 563/3/3 569/3/3
f 571/6/3 567/6/3 566/6/3
f 572/6/3 568/6/3 560/6/3
f 573/3/3 569/3/3 568/3/3
f 573/6/3 568/6/3 572/6/3
f 574/3/3 569/3/3 573/3/3
f 575/6/3 572/6/3 571/6/3
f 575/3/3 573/3/3 572/3/3
f 576/6/3 574/6/3 573/6/3
f 576/3/3 573/3/3 575/3/3
f 577/6/3 571/6/3 566/6/3
f 577/6/3 575/6/3 571/6/3
f 577/6/3 576/6/3 575/6/3
f 578/6/3 574/6/3 576/6/3
f 578/6/3 576/6/3 577/6/3
f 579/6/3 574/6/3 578/6/3
f 580/6/3 577/6/3 566/6/3
f 581/3/3 578/3/3 577/3/3
f 581/6/3 577/6/3 580/6/3
f 582/3/3 578/3/3 581/3/3
f 583/3/3 581/3/3 580/3/3
f 584/6/3 582/6/3 581/6/3
f 584/3/3 581/3/3 583/3/3
f 585/6/3 584/6/3 583/6/3
f 586/6/3 582/6/3 584/6/3
f 586/6/3 584/6/3 585/6/3
f 587/6/3 582/6/3 586/6/3
f 588/6/3 582/6/3 587/6/3
f 589/3/3 586/3/3 585/3/3
f 590/6/3 587/6/3 586/6/3
f 590/3/3 586/3/3 589/3/3
f 591/6/3 587/6/3 590/6/3
f 592/6/3 590/6/3 589/6/3
f 592/3/3 591/3/3 590/3/3
f 593/3/3 591/3/3 592/3/3
f 594/6/3 592/6/3 589/6/3
f 594/6/3 593/6/3 592/6/3
f 595/6/3 593/6/3 594/6/3
f 596/6/3 594/6/3 589/6/3
f 597/6/3 594/6/3 596/6/3
f 600/4/3 599/4/3 598/4/3
f 601/4/3 599/4/3 600/4/3
f 602/1/3 601/1/3 600/1/3
f 603/1/3 602/1/3 600/1/3
f 604/1/3 602/1/3 603/1/3
f 606/1/3 604/1/3 603/1/3
f 607/4/3 605/4/3 604/4/3
f 607/1/3 604/1/3 606/1/3
f 608/4/3 605/4/3 607/4/3
f 609/2/3 607/2/3 606/2/3
f 610/1/3 608/1/3 607/1/3
f 610/2/3 607/2/3 609/2/3
f 611/4/3 610/4/3 609/4/3
f 612/1/3 608/1/3 610/1/3
f 612/4/3 610/4/3 611/4/3
f 613/1/3 608/1/3 612/1/3
f 615/2/3 612/2/3 611/2/3
f 616/1/3 613/1/3 612/1/3
f 616/2/3 612/2/3 615/2/3
f 616/1/3 614/1/3 613/1/3
f 617/1/3 614/1/3 616/1/3
f 618/1/3 614/1/3 617/1/3
f 619/1/3 616/1/3 615/1/3
f 620/2/3 617/2/3 616/2/3
f 620/1/3 616/1/3 619/1/3
f 621/4/3 620/4/3 619/4/3
f 622/2/3 617/2/3 620/2/3
f 622/4/3 620/4/3 621/4/3
f 623/1/3 618/1/3 617/1/3
f 623/2/3 617/2/3 622/2/3
f 624/4/3 622/4/3 621/4/3
f 625/1/3 623/1/3 622/1/3
f 625/4/3 622/4/3 624/4/3
f 626/1/3 618/1/3 623/1/3
f 626/1/3 623/1/3 625/1/3
f 627/1/3 618/1/3 626/1/3
f 628/1/3 625/1/3 624/1/3
f 628/1/3 626/1/3 625/1/3
f 629/1/3 626/1/3 628/1/3
f 630/4/3 629/4/3 628/4/3
f 631/1/3 626/1/3 629/1/3
f 631/4/3 629/4/3 630/4/3
f 632/1/3 626/1/3 631/1/3
f 633/1/3 631/1/3 630/1/3
f 633/1/3 632/1/3 631/1/3
f 634/1/3 632/1/3 633/1/3
f 635/1/3 632/1/3 634/1/3
f 636/1/3 634/1/3 633/1/3
f 637/1/3 634/1/3 636/1/3
f 638/1/3 634/1/3 637/1/3
f 639/4/3 638/4/3 637/4/3
f 640/4/3 638/4/3 639/4/3
f 643/6/3 642/6/3 641/6/3
f 644/6/3 642/6/3 643/6/3
f 647/6/3 646/6/3 645/6/3
f 648/6/3 646/6/3 647/6/3
f 651/6/3 650/6/3 649/6/3
f 652/6/3 650/6/3 651/6/3
f 653/3/3 652/3/3 651/3/3
f 654/3/3 652/3/3 653/3/3
f 657/6/3 656/6/3 655/6/3
f 658/6/3 656/6/3 657/6/3
f 661/6/3 660/6/3 659/6/3
f 662/6/3 660/6/3 661/6/3
f 665/6/3 664/6/3 663/6/3
f 666/6/3 664/6/3 665/6/3
f 667/3/3 666/3/3 665/3/3
f 668/3/3 666/3/3 667/3/3
f 671/6/3 670/6/3 669/6/3
f 672/6/3 670/6/3 671/6/3
f 675/3/3 674/3/3 673/3/3
f 676/3/3 674/3/3 675/3/3
f 679/6/3 678/6/3 677/6/3
f 680/6/3 678/6/3 679/6/3
f 683/6/3 682/6/3 681/6/3
f 684/6/3 682/6/3 683/6/3
f 687/3/3 686/3/3 685/3/3
f 688/3/3 686/3/3 687/3/3
f 689/6/3 688/6/3 687/6/3
f 690/6/3 688/6/3 689/6/3
f 691/6/4 692/6/4 693/6/4
f 693/6/4 692/6/4 694/6/4
f 695/6/4 696/6/4 697/6/4
f 697/6/4 696/6/4 698/6/4
f 699/6/4 700/6/4 701/6/4
f 701/6/4 700/6/4 702/6/4
f 701/3/4 702/3/4 703/3/4
f 703/3/4 702/3/4 704/3/4
f 705/6/4 706/6/4 707/6/4
f 707/6/4 706/6/4 708/6/4
f 709/6/4 710/6/4 711/6/4
f 711/6/4 710/6/4 712/6/4
f 713/6/4 714/6/4 715/6/4
f 715/6/4 714/6/4 716/6/4
f 715/3/4 716/3/4 717/3/4
f 717/3/4 716/3/4 718/3/4
f 719/6/4 720/6/4 721/6/4
f 721/6/4 720/6/4 722/6/4
f 723/3/4 724/3/4 725/3/4
f 725/3/4 724/3/4 726/3/4
f 727/6/4 728/6/4 729/6/4
f 729/6/4 728/6/4 730/6/4
f 731/6/4 732/6/4 733/6/4
f 733/6/4 732/6/4 734/6/4
f 735/3/4 736/3/4 737/3/4
f 737/3/4 736/3/4 738/3/4
f 737/6/4 738/6/4 739/6/4
f 739/6/4 738/6/4 740/6/4
f 741/1/4 742/1/4 743/1/4
f 741/1/4 743/1/4 744/1/4
f 744/1/4 743/1/4 745/1/4
f 744/4/4 745/4/4 746/4/4
f 746/4/4 745/4/4 747/4/4
f 746/1/4 747/1/4 749/1/4
f 747/1/4 748/1/4 749/1/4
f 749/1/4 748/1/4 750/1/4
f 749/2/4 750/2/4 751/2/4
f 750/1/4 748/1/4 752/1/4
f 751/2/4 750/2/4 752/2/4
f 752/1/4 748/1/4 753/1/4
f 751/4/4 752/4/4 754/4/4
f 752/4/4 753/4/4 754/4/4
f 754/4/4 753/4/4 755/4/4
f 754/4/4 755/4/4 757/4/4
f 755/4/4 756/4/4 757/4/4
f 757/4/4 756/4/4 758/4/4
f 758/4/4 756/4/4 759/4/4
f 754/4/4 757/4/4 760/4/4
f 757/2/4 758/2/4 761/2/4
f 760/4/4 757/4/4 761/4/4
f 758/1/4 759/1/4 762/1/4
f 761/2/4 758/2/4 762/2/4
f 760/2/4 761/2/4 763/2/4
f 761/1/4 762/1/4 764/1/4
f 763/2/4 761/2/4 764/2/4
f 762/1/4 759/1/4 765/1/4
f 764/1/4 762/1/4 765/1/4
f 763/2/4 764/2/4 766/2/4
f 764/2/4 765/2/4 766/2/4
f 766/2/4 765/2/4 767/2/4
f 767/2/4 765/2/4 768/2/4
f 766/4/4 767/4/4 769/4/4
f 769/4/4 767/4/4 770/4/4
f 769/1/4 770/1/4 771/1/4
f 771/1/4 770/1/4 772/1/4
f 772/1/4 770/1/4 773/1/4
f 771/1/4 772/1/4 774/1/4
f 772/4/4 773/4/4 775/4/4
f 774/1/4 772/1/4 775/1/4
f 775/4/4 773/4/4 776/4/4
f 774/4/4 775/4/4 777/4/4
f 777/4/4 775/4/4 778/4/4
f 777/1/4 778/1/4 779/1/4
f 779/1/4 778/1/4 780/1/4
f 780/1/4 778/1/4 781/1/4
f 782/6/4 783/6/4 784/6/4
f 782/6/4 784/6/4 786/6/4
f 784/6/4 785/6/4 786/6/4
f 786/6/4 785/6/4 787/6/4
f 786/3/4 787/3/4 788/3/4
f 787/6/4 785/6/4 788/6/4
f 788/6/4 785/6/4 789/6/4
f 786/3/4 788/3/4 790/3/4
f 788/3/4 789/3/4 790/3/4
f 790/3/4 789/3/4 791/3/4
f 790/6/4 791/6/4 793/6/4
f 791/6/4 792/6/4 793/6/4
f 786/3/4 790/3/4 793/3/4
f 793/6/4 792/6/4 794/6/4
f 786/3/4 793/3/4 795/3/4
f 793/3/4 794/3/4 795/3/4
f 794/6/4 792/6/4 796/6/4
f 795/3/4 794/3/4 796/3/4
f 796/6/4 792/6/4 797/6/4
f 795/6/4 796/6/4 799/6/4
f 797/6/4 798/6/4 799/6/4
f 796/6/4 797/6/4 799/6/4
f 799/6/4 798/6/4 800/6/4
f 795/6/4 799/6/4 801/6/4
f 801/6/4 799/6/4 802/6/4
f 802/6/4 799/6/4 803/6/4
f 799/3/4 800/3/4 804/3/4
f 803/6/4 799/6/4 804/6/4
f 804/3/4 800/3/4 805/3/4
f 803/6/4 804/6/4 806/6/4
f 804/6/4 805/6/4 806/6/4
f 806/6/4 805/6/4 807/6/4
f 807/6/4 805/6/4 808/6/4
f 806/3/4 807/3/4 810/3/4
f 807/6/4 808/6/4 811/6/4
f 810/3/4 807/3/4 811/3/4
f 808/6/4 809/6/4 811/6/4
f 811/6/4 809/6/4 812/6/4
f 801/3/4 802/3/4 813/3/4
f 813/3/4 802/3/4 814/3/4
f 810/6/4 811/6/4 815/6/4
f 811/3/4 812/3/4 816/3/4
f 815/6/4 811/6/4 816/6/4
f 812/6/4 809/6/4 817/6/4
f 816/3/4 812/3/4 817/3/4
f 817/6/4 809/6/4 818/6/4
f 817/3/4 818/3/4 819/3/4
f 813/6/4 814/6/4 821/6/4
f 821/6/4 814/6/4 822/6/4
f 817/3/4 819/3/4 823/3/4
f 816/6/4 817/6/4 823/6/4
f 819/6/4 820/6/4 824/6/4
f 823/3/4 819/3/4 824/3/4
f 821/3/4 822/3/4 825/3/4
f 825/3/4 822/3/4 826/3/4
f 816/6/4 823/6/4 827/6/4
f 823/6/4 824/6/4 827/6/4
f 827/6/4 824/6/4 828/6/4
f 824/6/4 820/6/4 829/6/4
f 828/6/4 824/6/4 829/6/4
f 829/6/4 820/6/4 830/6/4
f 828/6/4 829/6/4 831/6/4
f 829/3/4 830/3/4 832/3/4
f 831/6/4 829/6/4 832/6/4
f 832/3/4 830/3/4 833/3/4
f 825/6/4 826/6/4 835/6/4
f 835/6/4 826/6/4 836/6/4
f 832/6/4 833/6/4 837/6/4
f 833/6/4 834/6/4 837/6/4
f 837/6/4 834/6/4 838/6/4
f 835/3/4 836/3/4 839/3/4
f 839/3/4 836/3/4 840/3/4
f 831/3/4 832/3/4 841/3/4
f 832/6/4 837/6/4 841/6/4
f 837/3/4 838/3/4 842/3/4
f 841/6/4 837/6/4 842/6/4
f 842/3/4 838/3/4 843/3/4
f 831/3/4 841/3/4 845/3/4
f 841/3/4 842/3/4 845/3/4
f 845/3/4 842/3/4 846/3/4
f 846/3/4 842/3/4 847/3/4
f 839/6/4 840/6/4 848/6/4
f 848/6/4 840/6/4 849/6/4
f 844/6/4 845/6/4 850/6/4
f 845/3/4 846/3/4 851/3/4
f 850/6/4 845/6/4 851/6/4
f 846/6/4 847/6/4 852/6/4
f 851/3/4 846/3/4 852/3/4
f 852/6/4 847/6/4 853/6/4
f 848/3/4 849/3/4 854/3/4
f 854/3/4 849/3/4 855/3/4
f 850/3/4 851/3/4 857/3/4
f 851/6/4 852/6/4 858/6/4
f 857/3/4 851/3/4 858/3/4
f 858/6/4 852/6/4 859/6/4
f 854/6/4 855/6/4 860/6/4
f 860/6/4 855/6/4 861/6/4
f 860/3/4 861/3/4 862/3/4
f 862/3/4 861/3/4 863/3/4
f 856/6/4 857/6/4 864/6/4
f 857/6/4 858/6/4 864/6/4
f 858/3/4 859/3/4 865/3/4
f 864/6/4 858/6/4 865/6/4
f 865/3/4 859/3/4 866/3/4
f 862/6/4 863/6/4 867/6/4
f 856/6/4 864/6/4 868/6/4
f 864/3/4 865/3/4 869/3/4
f 868/6/4 864/6/4 869/6/4
f 869/3/4 865/3/4 870/3/4
f 867/6/4 868/6/4 871/6/4
f 868/3/4 869/3/4 871/3/4
f 869/6/4 870/6/4 872/6/4
f 871/3/4 869/3/4 872/3/4
f 862/6/4 867/6/4 873/6/4
f 867/6/4 871/6/4 873/6/4
f 871/6/4 872/6/4 873/6/4
f 872/6/4 870/6/4 874/6/4
f 873/6/4 872/6/4 874/6/4
f 874/6/4 870/6/4 875/6/4
f 862/6/4 873/6/4 876/6/4
f 873/3/4 874/3/4 877/3/4
f 876/6/4 873/6/4 877/6/4
f 877/3/4 874/3/4 878/3/4
f 876/3/4 877/3/4 879/3/4
f 877/6/4 878/6/4 880/6/4
f 879/3/4 877/3/4 880/3/4
f 879/6/4 880/6/4 881/6/4
f 880/6/4 878/6/4 882/6/4
f 881/6/4 880/6/4 882/6/4
f 882/6/4 878/6/4 883/6/4
f 883/6/4 878/6/4 884/6/4
f 881/3/4 882/3/4 885/3/4
f 882/6/4 883/6/4 886/6/4
f 885/3/4 882/3/4 886/3/4
f 886/6/4 883/6/4 887/6/4
f 885/6/4 886/6/4 888/6/4
f 886/3/4 887/3/4 888/3/4
f 888/3/4 887/3/4 889/3/4
f 885/6/4 888/6/4 890/6/4
f 888/6/4 889/6/4 890/6/4
f 890/6/4 889/6/4 891/6/4
f 885/6/4 890/6/4 892/6/4
f 892/6/4 890/6/4 893/6/4
f 912/6/5 895/6/5 894/6/5
f 913/3/5 896/3/5 895/3/5
f 913/6/5 895/6/5 912/6/5
f 914/3/5 896/3/5 913/3/5
f 915/6/5 897/6/5 896/6/5
f 915/3/5 896/3/5 914/3/5
f 916/3/5 898/3/5 897/3/5
f 916/6/5 897/6/5 915/6/5
f 917/6/5 899/6/5 898/6/5
f 917/3/5 898/3/5 916/3/5
f 918/3/5 900/3/5 899/3/5
f 918/6/5 899/6/5 917/6/5
f 919/6/5 901/6/5 900/6/5
f 919/3/5 900/3/5 918/3/5
f 920/3/5 902/3/5 901/3/5
f 920/6/5 901/6/5 919/6/5
f 921/6/5 903/6/5 902/6/5
f 921/3/5 902/3/5 920/3/5
f 922/3/5 904/3/5 903/3/5
f 922/6/5 903/6/5 921/6/5
f 923/6/5 905/6/5 904/6/5
f 923/3/5 904/3/5 922/3/5
f 924/3/5 906/3/5 905/3/5
f 924/6/5 905/6/5 923/6/5
f 925/6/5 907/6/5 906/6/5
f 925/3/5 906/3/5 924/3/5
f 926/3/5 908/3/5 907/3/5
f 926/6/5 907/6/5 925/6/5
f 927/6/5 909/6/5 908/6/5
f 927/3/5 908/3/5 926/3/5
f 928/3/5 910/3/5 909/3/5
f 928/6/5 909/6/5 927/6/5
f 929/6/5 911/6/5 910/6/5
f 929/3/5 910/3/5 928/3/5
f 930/6/5 911/6/5 929/6/5
f 931/6/5 912/6/5 894/6/5
f 931/7/5 914/7/5 913/7/5
f 931/7/5 913/7/5 912/7/5
f 932/7/5 914/7/5 931/7/5
f 933/7/5 930/7/5 929/7/5
f 934/6/5 911/6/5 930/6/5
f 934/7/5 930/7/5 933/7/5
f 935/7/5 914/7/5 932/7/5
f 935/6/5 932/6/5 931/6/5
f 936/6/5 928/6/5 927/6/5
f 936/7/5 914/7/5 935/7/5
f 936/6/5 915/6/5 914/6/5
f 936/6/5 916/6/5 915/6/5
f 936/6/5 917/6/5 916/6/5
f 936/6/5 929/6/5 928/6/5
f 936/6/5 927/6/5 926/6/5
f 936/6/5 926/6/5 925/6/5
f 936/6/5 925/6/5 924/6/5
f 936/6/5 924/6/5 923/6/5
f 936/6/5 923/6/5 922/6/5
f 936/6/5 922/6/5 921/6/5
f 936/6/5 921/6/5 920/6/5
f 936/6/5 920/6/5 919/6/5
f 936/6/5 919/6/5 918/6/5
f 936/6/5 918/6/5 917/6/5
f 937/6/5 935/6/5 931/6/5
f 937/6/5 936/6/5 935/6/5
f 938/6/5 929/6/5 936/6/5
f 938/6/5 936/6/5 937/6/5
f 939/7/5 933/7/5 929/7/5
f 939/6/5 929/6/5 938/6/5
f 940/6/5 934/6/5 933/6/5
f 940/7/5 933/7/5 939/7/5
f 941/6/5 939/6/5 938/6/5
f 941/6/5 940/6/5 939/6/5
f 942/6/5 934/6/5 940/6/5
f 942/6/5 940/6/5 941/6/5
f 943/6/5 937/6/5 931/6/5
f 943/6/5 931/6/5 894/6/5
f 944/7/5 938/7/5 937/7/5
f 944/6/5 937/6/5 943/6/5
f 945/6/5 934/6/5 942/6/5
f 945/7/5 942/7/5 941/7/5
f 946/6/5 911/6/5 934/6/5
f 946/6/5 934/6/5 945/6/5
f 947/6/5 943/6/5 894/6/5
f 947/7/5 944/7/5 943/7/5
f 948/7/5 938/7/5 944/7/5
f 948/7/5 944/7/5 947/7/5
f 949/6/5 941/6/5 938/6/5
f 949/7/5 938/7/5 948/7/5
f 950/6/5 941/6/5 949/6/5
f 951/6/5 941/6/5 950/6/5
f 952/6/5 941/6/5 951/6/5
f 953/6/5 941/6/5 952/6/5
f 954/6/5 941/6/5 953/6/5
f 955/6/5 941/6/5 954/6/5
f 956/6/5 941/6/5 955/6/5
f 957/6/5 941/6/5 956/6/5
f 958/6/5 941/6/5 957/6/5
f 959/6/5 941/6/5 958/6/5
f 960/6/5 941/6/5 959/6/5
f 961/6/5 941/6/5 960/6/5
f 962/6/5 941/6/5 961/6/5
f 963/6/5 941/6/5 962/6/5
f 964/7/5 945/7/5 941/7/5
f 964/6/5 941/6/5 963/6/5
f 964/7/5 946/7/5 945/7/5
f 965/6/5 911/6/5 946/6/5
f 965/7/5 946/7/5 964/7/5
f 966/6/5 947/6/5 894/6/5
f 966/6/5 948/6/5 947/6/5
f 967/3/5 949/3/5 948/3/5
f 967/6/5 948/6/5 966/6/5
f 967/3/5 950/3/5 949/3/5
f 968/6/5 951/6/5 950/6/5
f 968/3/5 950/3/5 967/3/5
f 969/3/5 952/3/5 951/3/5
f 969/6/5 951/6/5 968/6/5
f 970/6/5 953/6/5 952/6/5
f 970/3/5 952/3/5 969/3/5
f 971/3/5 954/3/5 953/3/5
f 971/6/5 953/6/5 970/6/5
f 972/6/5 955/6/5 954/6/5
f 972/3/5 954/3/5 971/3/5
f 973/3/5 956/3/5 955/3/5
f 973/6/5 955/6/5 972/6/5
f 974/6/5 957/6/5 956/6/5
f 974/3/5 956/3/5 973/3/5
f 975/3/5 958/3/5 957/3/5
f 975/6/5 957/6/5 974/6/5
f 976/6/5 959/6/5 958/6/5
f 976/3/5 958/3/5 975/3/5
f 977/3/5 960/3/5 959/3/5
f 977/6/5 959/6/5 976/6/5
f 978/6/5 961/6/5 960/6/5
f 978/3/5 960/3/5 977/3/5
f 979/3/5 962/3/5 961/3/5
f 979/6/5 961/6/5 978/6/5
f 980/6/5 963/6/5 962/6/5
f 980/3/5 962/3/5 979/3/5
f 981/3/5 964/3/5 963/3/5
f 981/6/5 963/6/5 980/6/5
f 982/6/5 965/6/5 964/6/5
f 982/3/5 964/3/5 981/3/5
f 983/6/5 911/6/5 965/6/5
f 983/6/5 965/6/5 982/6/5
f 990/6/5 985/6/5 984/6/5
f 991/3/5 986/3/5 985/3/5
f 991/6/5 985/6/5 990/6/5
f 992/6/5 987/6/5 986/6/5
f 992/3/5 986/3/5 991/3/5
f 993/6/5 987/6/5 992/6/5
f 994/6/5 989/6/5 988/6/5
f 995/6/5 989/6/5 994/6/5
f 996/6/5 989/6/5 995/6/5
f 1004/6/5 998/6/5 997/6/5
f 1005/3/5 999/3/5 998/3/5
f 1005/6/5 998/6/5 1004/6/5
f 1006/6/5 1000/6/5 999/6/5
f 1006/3/5 999/3/5 1005/3/5
f 1007/6/5 1000/6/5 1006/6/5
f 1008/6/5 1003/6/5 1002/6/5
f 1008/6/5 1002/6/5 1001/6/5
f 1009/6/5 1003/6/5 1008/6/5
f 1015/6/5 1011/6/5 1010/6/5
f 1016/6/5 1011/6/5 1015/6/5
f 1017/6/5 1011/6/5 1016/6/5
f 1018/6/5 1013/6/5 1012/6/5
f 1019/3/5 1014/3/5 1013/3/5
f 1019/6/5 1013/6/5 1018/6/5
f 1020/3/5 1014/3/5 1019/3/5
f 1028/6/5 1022/6/5 1021/6/5
f 1028/6/5 1023/6/5 1022/6/5
f 1029/6/5 1023/6/5 1028/6/5
f 1030/6/5 1026/6/5 1025/6/5
f 1030/6/5 1025/6/5 1024/6/5
f 1031/3/5 1027/3/5 1026/3/5
f 1031/6/5 1026/6/5 1030/6/5
f 1032/3/5 1027/3/5 1031/3/5
f 1036/6/5 1034/6/5 1033/6/5
f 1037/3/5 1035/3/5 1034/3/5
f 1037/6/5 1034/6/5 1036/6/5
f 1038/3/5 1035/3/5 1037/3/5
f 1043/6/5 1040/6/5 1039/6/5
f 1044/3/5 1042/3/5 1041/3/5
f 1044/6/5 1040/6/5 1043/6/5
f 1044/3/5 1041/3/5 1040/3/5
f 1045/3/5 1042/3/5 1044/3/5
f 1046/6/6 1047/6/6 1061/6/6
f 1048/3/6 1049/3/6 1063/3/6
f 1063/3/6 1049/3/6 1064/3/6
f 1049/6/6 1050/6/6 1065/6/6
f 1064/3/6 1049/3/6 1065/3/6
f 1065/6/6 1050/6/6 1066/6/6
f 1050/3/6 1051/3/6 1067/3/6
f 1066/6/6 1050/6/6 1067/6/6
f 1051/6/6 1052/6/6 1068/6/6
f 1067/3/6 1051/3/6 1068/3/6
f 1068/6/6 1052/6/6 1069/6/6
f 1052/3/6 1053/3/6 1070/3/6
f 1069/6/6 1052/6/6 1070/6/6
f 1053/6/6 1054/6/6 1071/6/6
f 1070/3/6 1053/3/6 1071/3/6
f 1071/6/6 1054/6/6 1072/6/6
f 1072/6/6 1054/6/6 1073/6/6
f 1054/3/6 1055/3/6 1074/3/6
f 1073/6/6 1054/6/6 1074/6/6
f 1055/6/6 1056/6/6 1075/6/6
f 1074/3/6 1055/3/6 1075/3/6
f 1056/3/6 1057/3/6 1076/3/6
f 1075/6/6 1056/6/6 1076/6/6
f 1057/6/6 1058/6/6 1077/6/6
f 1076/3/6 1057/3/6 1077/3/6
f 1077/6/6 1058/6/6 1078/6/6
f 1059/6/6 1060/6/6 1081/6/6
f 1061/7/6 1062/7/6 1082/7/6
f 1046/6/6 1061/6/6 1082/6/6
f 1082/7/6 1062/7/6 1083/7/6
f 1083/7/6 1062/7/6 1084/7/6
f 1079/7/6 1080/7/6 1085/7/6
f 1080/7/6 1081/7/6 1085/7/6
f 1085/7/6 1081/7/6 1086/7/6
f 1081/6/6 1060/6/6 1087/6/6
f 1086/7/6 1081/7/6 1087/7/6
f 1085/7/6 1086/7/6 1088/7/6
f 1088/7/6 1086/7/6 1089/7/6
f 1083/7/6 1084/7/6 1090/7/6
f 1082/6/6 1083/6/6 1090/6/6
f 1090/7/6 1084/7/6 1091/7/6
f 1089/7/6 1086/7/6 1092/7/6
f 1090/6/6 1091/6/6 1093/6/6
f 1082/6/6 1090/6/6 1093/6/6
f 1093/6/6 1091/6/6 1094/6/6
f 1092/7/6 1086/7/6 1095/7/6
f 1093/7/6 1094/7/6 1096/7/6
f 1093/7/6 1096/7/6 1097/7/6
f 1093/7/6 1097/7/6 1098/7/6
f 1093/7/6 1098/7/6 1099/7/6
f 1095/7/6 1086/7/6 1100/7/6
f 1093/7/6 1099/7/6 1101/7/6
f 1100/7/6 1086/7/6 1102/7/6
f 1093/7/6 1101/7/6 1103/7/6
f 1102/7/6 1086/7/6 1104/7/6
f 1104/7/6 1086/7/6 1105/7/6
f 1093/7/6 1103/7/6 1106/7/6
f 1093/7/6 1106/7/6 1107/7/6
f 1093/7/6 1107/7/6 1108/7/6
f 1093/7/6 1108/7/6 1109/7/6
f 1105/7/6 1086/7/6 1110/7/6
f 1086/6/6 1087/6/6 1111/6/6
f 1110/7/6 1086/7/6 1111/7/6
f 1093/7/6 1109/7/6 1112/7/6
f 1110/6/6 1111/6/6 1113/6/6
f 1111/6/6 1087/6/6 1114/6/6
f 1113/6/6 1111/6/6 1114/6/6
f 1093/7/6 1112/7/6 1115/7/6
f 1093/7/6 1115/7/6 1116/7/6
f 1113/7/6 1114/7/6 1117/7/6
f 1093/7/6 1116/7/6 1118/7/6
f 1046/6/6 1082/6/6 1119/6/6
f 1082/6/6 1093/6/6 1119/6/6
f 1093/7/6 1118/7/6 1120/7/6
f 1119/6/6 1093/6/6 1120/6/6
f 1120/7/6 1118/7/6 1121/7/6
f 1117/7/6 1114/7/6 1122/7/6
f 1114/6/6 1087/6/6 1123/6/6
f 1122/7/6 1114/7/6 1123/7/6
f 1087/6/6 1060/6/6 1124/6/6
f 1123/6/6 1087/6/6 1124/6/6
f 1120/7/6 1121/7/6 1125/7/6
f 1046/6/6 1119/6/6 1125/6/6
f 1119/7/6 1120/7/6 1125/7/6
f 1125/7/6 1121/7/6 1126/7/6
f 1122/7/6 1123/7/6 1142/7/6
f 1123/7/6 1124/7/6 1142/7/6
f 1142/7/6 1124/7/6 1143/7/6
f 1124/6/6 1060/6/6 1144/6/6
f 1143/7/6 1124/7/6 1144/7/6
f 1046/6/6 1125/6/6 1145/6/6
f 1145/6/6 1125/6/6 1146/6/6
f 1127/3/6 1128/3/6 1147/3/6
f 1128/3/6 1129/3/6 1147/3/6
f 1129/6/6 1130/6/6 1148/6/6
f 1147/3/6 1129/3/6 1148/3/6
f 1130/6/6 1131/6/6 1148/6/6
f 1131/3/6 1132/3/6 1149/3/6
f 1148/6/6 1131/6/6 1149/6/6
f 1132/6/6 1133/6/6 1150/6/6
f 1149/3/6 1132/3/6 1150/3/6
f 1133/3/6 1134/3/6 1151/3/6
f 1150/6/6 1133/6/6 1151/6/6
f 1134/6/6 1135/6/6 1152/6/6
f 1151/3/6 1134/3/6 1152/3/6
f 1135/6/6 1136/6/6 1152/6/6
f 1136/6/6 1137/6/6 1152/6/6
f 1137/3/6 1138/3/6 1153/3/6
f 1152/6/6 1137/6/6 1153/6/6
f 1138/6/6 1139/6/6 1154/6/6
f 1153/3/6 1138/3/6 1154/3/6
f 1139/3/6 1140/3/6 1155/3/6
f 1154/6/6 1139/6/6 1155/6/6
f 1140/6/6 1141/6/6 1156/6/6
f 1155/3/6 1140/3/6 1156/3/6
f 1156/6/6 1141/6/6 1157/6/6
f 1144/6/6 1060/6/6 1158/6/6
f 1158/6/6 1060/6/6 1159/6/6
f 1160/6/6 1161/6/6 1167/6/6
f 1161/3/6 1162/3/6 1168/3/6
f 1167/6/6 1161/6/6 1168/6/6
f 1168/3/6 1162/3/6 1169/3/6
f 1163/6/6 1164/6/6 1172/6/6
f 1164/3/6 1165/3/6 1173/3/6
f 1172/6/6 1164/6/6 1173/6/6
f 1165/6/6 1166/6/6 1174/6/6
f 1173/3/6 1165/3/6 1174/3/6
f 1174/6/6 1166/6/6 1175/6/6
f 1168/6/6 1169/6/6 1176/6/6
f 1169/7/6 1170/7/6 1177/7/6
f 1176/6/6 1169/6/6 1177/6/6
f 1177/7/6 1170/7/6 1178/7/6
f 1171/7/6 1172/7/6 1179/7/6
f 1172/6/6 1173/6/6 1180/6/6
f 1179/7/6 1172/7/6 1180/7/6
f 1180/6/6 1173/6/6 1181/6/6
f 1177/6/6 1178/6/6 1182/6/6
f 1176/5/6 1177/5/6 1182/5/6
f 1182/6/6 1178/6/6 1183/6/6
f 1179/6/6 1180/6/6 1184/6/6
f 1180/5/6 1181/5/6 1185/5/6
f 1184/6/6 1180/6/6 1185/6/6
f 1184/5/6 1185/5/6 1186/5/6
f 1185/5/6 1181/5/6 1186/5/6
f 1186/5/6 1181/5/6 1187/5/6
f 1183/6/6 1178/6/6 1188/6/6
f 1179/6/6 1184/6/6 1189/6/6
f 1184/5/6 1186/5/6 1189/5/6
f 1186/6/6 1187/6/6 1190/6/6
f 1189/5/6 1186/5/6 1190/5/6
f 1189/6/6 1190/6/6 1191/6/6
f 1190/6/6 1187/6/6 1191/6/6
f 1191/6/6 1187/6/6 1192/6/6
f 1176/5/6 1182/5/6 1193/5/6
f 1182/5/6 1183/5/6 1193/5/6
f 1183/6/6 1188/6/6 1194/6/6
f 1193/5/6 1183/5/6 1194/5/6
f 1194/6/6 1188/6/6 1195/6/6
f 1179/6/6 1189/6/6 1196/6/6
f 1189/6/6 1191/6/6 1196/6/6
f 1191/5/6 1192/5/6 1197/5/6
f 1196/6/6 1191/6/6 1197/6/6
f 1176/5/6 1193/5/6 1198/5/6
f 1194/6/6 1195/6/6 1198/6/6
f 1193/6/6 1194/6/6 1198/6/6
f 1198/6/6 1195/6/6 1199/6/6
f 1176/5/6 1198/5/6 1200/5/6
f 1198/5/6 1199/5/6 1200/5/6
f 1199/6/6 1195/6/6 1201/6/6
f 1200/5/6 1199/5/6 1201/5/6
f 1197/5/6 1192/5/6 1202/5/6
f 1196/5/6 1197/5/6 1202/5/6
f 1202/5/6 1192/5/6 1203/5/6
f 1200/6/6 1201/6/6 1204/6/6
f 1204/6/6 1201/6/6 1205/6/6
f 1179/6/6 1196/6/6 1206/6/6
f 1196/5/6 1202/5/6 1206/5/6
f 1202/6/6 1203/6/6 1207/6/6
f 1206/5/6 1202/5/6 1207/5/6
f 1205/6/6 1201/6/6 1208/6/6
f 1204/5/6 1205/5/6 1208/5/6
f 1201/6/6 1195/6/6 1209/6/6
f 1208/6/6 1201/6/6 1209/6/6
f 1206/6/6 1207/6/6 1210/6/6
f 1179/6/6 1206/6/6 1210/6/6
f 1207/6/6 1203/6/6 1211/6/6
f 1210/6/6 1207/6/6 1211/6/6
f 1204/5/6 1208/5/6 1212/5/6
f 1208/5/6 1209/5/6 1212/5/6
f 1209/6/6 1195/6/6 1213/6/6
f 1212/5/6 1209/5/6 1213/5/6
f 1212/6/6 1213/6/6 1214/6/6
f 1214/6/6 1213/6/6 1215/6/6
f 1213/6/6 1195/6/6 1216/6/6
f 1215/6/6 1213/6/6 1216/6/6
f 1214/5/6 1215/5/6 1217/5/6
f 1215/6/6 1216/6/6 1217/6/6
f 1217/6/6 1216/6/6 1218/6/6
f 1218/6/6 1216/6/6 1219/6/6
f 1179/6/6 1210/6/6 1220/6/6
f 1210/5/6 1211/5/6 1220/5/6
f 1220/5/6 1211/5/6 1221/5/6
f 1217/5/6 1218/5/6 1222/5/6
f 1214/5/6 1217/5/6 1222/5/6
f 1222/5/6 1218/5/6 1223/5/6
f 1222/6/6 1223/6/6 1224/6/6
f 1223/5/6 1218/5/6 1225/5/6
f 1224/6/6 1223/6/6 1225/6/6
f 1220/6/6 1221/6/6 1226/6/6
f 1179/6/6 1220/6/6 1226/6/6
f 1221/5/6 1211/5/6 1227/5/6
f 1226/6/6 1221/6/6 1227/6/6
f 1225/5/6 1218/5/6 1228/5/6
f 1224/5/6 1225/5/6 1228/5/6
f 1218/6/6 1219/6/6 1229/6/6
f 1228/5/6 1218/5/6 1229/5/6
f 1179/6/6 1226/6/6 1230/6/6
f 1227/5/6 1211/5/6 1231/5/6
f 1226/5/6 1227/5/6 1231/5/6
f 1231/5/6 1211/5/6 1232/5/6
f 1224/5/6 1228/5/6 1233/5/6
f 1228/6/6 1229/6/6 1234/6/6
f 1233/5/6 1228/5/6 1234/5/6
f 1229/6/6 1219/6/6 1235/6/6
f 1234/6/6 1229/6/6 1235/6/6
f 1230/6/6 1226/6/6 1236/6/6
f 1226/5/6 1231/5/6 1237/5/6
f 1231/6/6 1232/6/6 1237/6/6
f 1237/6/6 1232/6/6 1238/6/6
f 1233/6/6 1234/6/6 1239/6/6
f 1234/5/6 1235/5/6 1240/5/6
f 1239/6/6 1234/6/6 1240/6/6
f 1236/6/6 1226/6/6 1241/6/6
f 1226/5/6 1237/5/6 1241/5/6
f 1237/5/6 1238/5/6 1241/5/6
f 1241/5/6 1238/5/6 1242/5/6
f 1235/6/6 1219/6/6 1243/6/6
f 1235/6/6 1243/6/6 1244/6/6
f 1242/5/6 1238/5/6 1245/5/6
f 1241/6/6 1242/6/6 1245/6/6
f 1245/5/6 1238/5/6 1246/5/6
f 1241/6/6 1245/6/6 1247/6/6
f 1245/6/6 1246/6/6 1247/6/6
f 1247/6/6 1246/6/6 1248/6/6
f 1239/5/6 1240/5/6 1249/5/6
f 1240/5/6 1235/5/6 1250/5/6
f 1249/5/6 1240/5/6 1250/5/6
f 1249/6/6 1250/6/6 1251/6/6
f 1250/5/6 1235/5/6 1251/5/6
f 1235/6/6 1244/6/6 1252/6/6
f 1251/5/6 1235/5/6 1252/5/6
f 1249/6/6 1251/6/6 1253/6/6
f 1251/6/6 1252/6/6 1253/6/6
f 1253/6/6 1252/6/6 1254/6/6
f 1236/6/6 1241/6/6 1255/6/6
f 1241/6/6 1247/6/6 1255/6/6
f 1247/5/6 1248/5/6 1256/5/6
f 1255/6/6 1247/6/6 1256/6/6
f 1254/6/6 1252/6/6 1257/6/6
f 1253/5/6 1254/5/6 1257/5/6
f 1252/6/6 1244/6/6 1258/6/6
f 1257/6/6 1252/6/6 1258/6/6
f 1258/6/6 1244/6/6 1259/6/6
f 1258/6/6 1259/6/6 1260/6/6
f 1258/6/6 1260/6/6 1261/6/6
f 1255/5/6 1256/5/6 1262/5/6
f 1236/6/6 1255/6/6 1262/6/6
f 1256/5/6 1248/5/6 1263/5/6
f 1262/5/6 1256/5/6 1263/5/6
f 1258/6/6 1261/6/6 1264/6/6
f 1236/6/6 1262/6/6 1265/6/6
f 1262/6/6 1263/6/6 1265/6/6
f 1258/6/6 1264/6/6 1266/6/6
f 1265/6/6 1263/6/6 1267/6/6
f 1267/6/6 1263/6/6 1268/6/6
f 1263/5/6 1248/5/6 1269/5/6
f 1268/6/6 1263/6/6 1269/6/6
f 1253/5/6 1257/5/6 1270/5/6
f 1257/5/6 1258/5/6 1270/5/6
f 1270/5/6 1258/5/6 1271/5/6
f 1270/6/6 1271/6/6 1272/6/6
f 1271/5/6 1258/5/6 1273/5/6
f 1272/6/6 1271/6/6 1273/6/6
f 1267/6/6 1268/6/6 1274/6/6
f 1274/6/6 1268/6/6 1275/6/6
f 1258/6/6 1266/6/6 1276/6/6
f 1269/5/6 1248/5/6 1277/5/6
f 1268/5/6 1269/5/6 1277/5/6
f 1277/5/6 1248/5/6 1278/5/6
f 1272/5/6 1273/5/6 1279/5/6
f 1273/5/6 1258/5/6 1280/5/6
f 1279/5/6 1273/5/6 1280/5/6
f 1279/6/6 1280/6/6 1281/6/6
f 1280/5/6 1258/5/6 1282/5/6
f 1281/6/6 1280/6/6 1282/6/6
f 1258/6/6 1276/6/6 1283/6/6
f 1275/6/6 1268/6/6 1284/6/6
f 1281/5/6 1282/5/6 1285/5/6
f 1282/5/6 1258/5/6 1286/5/6
f 1285/5/6 1282/5/6 1286/5/6
f 1268/5/6 1277/5/6 1287/5/6
f 1277/6/6 1278/6/6 1287/6/6
f 1287/6/6 1278/6/6 1288/6/6
f 1285/6/6 1286/6/6 1289/6/6
f 1286/5/6 1258/5/6 1290/5/6
f 1289/6/6 1286/6/6 1290/6/6
f 1258/6/6 1283/6/6 1291/6/6
f 1284/6/6 1268/6/6 1292/6/6
f 1290/5/6 1258/5/6 1293/5/6
f 1289/5/6 1290/5/6 1293/5/6
f 1258/6/6 1291/6/6 1294/6/6
f 1293/5/6 1258/5/6 1294/5/6
f 1292/6/6 1268/6/6 1295/6/6
f 1268/5/6 1287/5/6 1295/5/6
f 1287/5/6 1288/5/6 1295/5/6
f 1295/5/6 1288/5/6 1296/5/6
f 1289/5/6 1293/5/6 1297/5/6
f 1293/6/6 1294/6/6 1298/6/6
f 1297/5/6 1293/5/6 1298/5/6
f 1294/6/6 1291/6/6 1299/6/6
f 1298/6/6 1294/6/6 1299/6/6
f 1292/6/6 1295/6/6 1300/6/6
f 1295/6/6 1296/6/6 1300/6/6
f 1296/5/6 1288/5/6 1301/5/6
f 1300/6/6 1296/6/6 1301/6/6
f 1301/5/6 1288/5/6 1302/5/6
f 1297/6/6 1298/6/6 1304/6/6
f 1298/7/6 1299/7/6 1305/7/6
f 1304/6/6 1298/6/6 1305/6/6
f 1305/7/6 1299/7/6 1306/7/6
f 1300/7/6 1301/7/6 1307/7/6
f 1301/6/6 1302/6/6 1308/6/6
f 1307/7/6 1301/7/6 1308/7/6
f 1308/6/6 1302/6/6 1309/6/6
f 1303/6/6 1304/6/6 1312/6/6
f 1304/3/6 1305/3/6 1313/3/6
f 1312/6/6 1304/6/6 1313/6/6
f 1313/3/6 1305/3/6 1314/3/6
f 1308/6/6 1309/6/6 1315/6/6
f 1309/3/6 1310/3/6 1316/3/6
f 1315/6/6 1309/6/6 1316/6/6
f 1310/6/6 1311/6/6 1317/6/6
f 1316/3/6 1310/3/6 1317/3/6
f 1317/6/6 1311/6/6 1318/6/6
f 1319/6/6 1320/6/6 1324/6/6
f 1324/6/6 1320/6/6 1325/6/6
f 1325/6/6 1320/6/6 1326/6/6
f 1321/3/6 1322/3/6 1330/3/6
f 1322/6/6 1323/6/6 1331/6/6
f 1330/3/6 1322/3/6 1331/3/6
f 1331/6/6 1323/6/6 1332/6/6
f 1325/6/6 1326/6/6 1333/6/6
f 1327/7/6 1328/7/6 1334/7/6
f 1333/6/6 1326/6/6 1334/6/6
f 1326/7/6 1327/7/6 1334/7/6
f 1334/7/6 1328/7/6 1335/7/6
f 1329/7/6 1330/7/6 1336/7/6
f 1330/6/6 1331/6/6 1337/6/6
f 1336/7/6 1330/7/6 1337/7/6
f 1337/6/6 1331/6/6 1338/6/6
f 1334/6/6 1335/6/6 1339/6/6
f 1333/5/6 1334/5/6 1339/5/6
f 1339/6/6 1335/6/6 1340/6/6
f 1336/6/6 1337/6/6 1341/6/6
f 1337/5/6 1338/5/6 1342/5/6
f 1341/6/6 1337/6/6 1342/6/6
f 1340/6/6 1335/6/6 1343/6/6
f 1333/5/6 1339/5/6 1344/5/6
f 1339/5/6 1340/5/6 1344/5/6
f 1340/6/6 1343/6/6 1345/6/6
f 1344/5/6 1340/5/6 1345/5/6
f 1345/6/6 1343/6/6 1346/6/6
f 1333/5/6 1344/5/6 1347/5/6
f 1344/6/6 1345/6/6 1348/6/6
f 1347/5/6 1344/5/6 1348/5/6
f 1345/6/6 1346/6/6 1348/6/6
f 1348/6/6 1346/6/6 1349/6/6
f 1347/6/6 1348/6/6 1350/6/6
f 1348/6/6 1349/6/6 1350/6/6
f 1350/6/6 1349/6/6 1351/6/6
f 1336/6/6 1341/6/6 1352/6/6
f 1347/6/6 1350/6/6 1353/6/6
f 1350/5/6 1351/5/6 1354/5/6
f 1353/6/6 1350/6/6 1354/6/6
f 1351/6/6 1349/6/6 1355/6/6
f 1354/5/6 1351/5/6 1356/5/6
f 1353/5/6 1354/5/6 1356/5/6
f 1351/6/6 1355/6/6 1357/6/6
f 1356/5/6 1351/5/6 1357/5/6
f 1353/5/6 1356/5/6 1358/5/6
f 1356/6/6 1357/6/6 1358/6/6
f 1357/6/6 1355/6/6 1359/6/6
f 1358/6/6 1357/6/6 1359/6/6
f 1352/6/6 1341/6/6 1360/6/6
f 1358/5/6 1359/5/6 1361/5/6
f 1353/5/6 1358/5/6 1361/5/6
f 1359/6/6 1355/6/6 1362/6/6
f 1361/5/6 1359/5/6 1362/5/6
f 1361/6/6 1362/6/6 1363/6/6
f 1363/6/6 1362/6/6 1364/6/6
f 1362/6/6 1355/6/6 1365/6/6
f 1364/6/6 1362/6/6 1365/6/6
f 1363/5/6 1364/5/6 1366/5/6
f 1364/6/6 1365/6/6 1366/6/6
f 1366/6/6 1365/6/6 1367/6/6
f 1360/6/6 1341/6/6 1368/6/6
f 1367/6/6 1365/6/6 1369/6/6
f 1368/6/6 1341/6/6 1370/6/6
f 1341/5/6 1342/5/6 1371/5/6
f 1370/6/6 1341/6/6 1371/6/6
f 1342/5/6 1338/5/6 1372/5/6
f 1371/5/6 1342/5/6 1372/5/6
f 1370/6/6 1371/6/6 1373/6/6
f 1371/6/6 1372/6/6 1373/6/6
f 1372/5/6 1338/5/6 1374/5/6
f 1373/6/6 1372/6/6 1374/6/6
f 1370/6/6 1373/6/6 1375/6/6
f 1373/5/6 1374/5/6 1375/5/6
f 1374/5/6 1338/5/6 1376/5/6
f 1375/5/6 1374/5/6 1376/5/6
f 1366/5/6 1367/5/6 1377/5/6
f 1363/5/6 1366/5/6 1377/5/6
f 1367/6/6 1369/6/6 1378/6/6
f 1377/5/6 1367/5/6 1378/5/6
f 1363/5/6 1377/5/6 1379/5/6
f 1377/6/6 1378/6/6 1379/6/6
f 1378/6/6 1369/6/6 1380/6/6
f 1379/6/6 1378/6/6 1380/6/6
f 1380/6/6 1369/6/6 1381/6/6
f 1370/6/6 1375/6/6 1382/6/6
f 1375/6/6 1376/6/6 1382/6/6
f 1376/5/6 1338/5/6 1383/5/6
f 1382/6/6 1376/6/6 1383/6/6
f 1383/5/6 1338/5/6 1384/5/6
f 1382/5/6 1383/5/6 1385/5/6
f 1383/6/6 1384/6/6 1385/6/6
f 1385/6/6 1384/6/6 1386/6/6
f 1370/6/6 1382/6/6 1387/6/6
f 1382/5/6 1385/5/6 1387/5/6
f 1385/5/6 1386/5/6 1387/5/6
f 1387/5/6 1386/5/6 1388/5/6
f 1370/6/6 1387/6/6 1389/6/6
f 1387/6/6 1388/6/6 1389/6/6
f 1388/5/6 1386/5/6 1390/5/6
f 1389/6/6 1388/6/6 1390/6/6
f 1363/5/6 1379/5/6 1391/5/6
f 1379/5/6 1380/5/6 1391/5/6
f 1391/5/6 1380/5/6 1392/5/6
f 1391/6/6 1392/6/6 1393/6/6
f 1392/5/6 1380/5/6 1394/5/6
f 1393/6/6 1392/6/6 1394/6/6
f 1380/6/6 1381/6/6 1395/6/6
f 1370/6/6 1389/6/6 1396/6/6
f 1396/6/6 1389/6/6 1397/6/6
f 1393/5/6 1394/5/6 1398/5/6
f 1394/5/6 1380/5/6 1399/5/6
f 1398/5/6 1394/5/6 1399/5/6
f 1380/6/6 1395/6/6 1399/6/6
f 1399/6/6 1395/6/6 1400/6/6
f 1398/6/6 1399/6/6 1401/6/6
f 1399/6/6 1400/6/6 1401/6/6
f 1401/6/6 1400/6/6 1402/6/6
f 1402/6/6 1400/6/6 1403/6/6
f 1397/6/6 1389/6/6 1404/6/6
f 1402/6/6 1403/6/6 1405/6/6
f 1401/5/6 1402/5/6 1406/5/6
f 1402/6/6 1405/6/6 1407/6/6
f 1406/5/6 1402/5/6 1407/5/6
f 1404/6/6 1389/6/6 1408/6/6
f 1401/5/6 1406/5/6 1409/5/6
f 1406/6/6 1407/6/6 1410/6/6
f 1409/5/6 1406/5/6 1410/5/6
f 1407/6/6 1405/6/6 1411/6/6
f 1410/6/6 1407/6/6 1411/6/6
f 1409/6/6 1410/6/6 1412/6/6
f 1410/6/6 1411/6/6 1412/6/6
f 1412/6/6 1411/6/6 1413/6/6
f 1390/5/6 1386/5/6 1414/5/6
f 1389/5/6 1390/5/6 1414/5/6
f 1414/5/6 1386/5/6 1415/5/6
f 1412/5/6 1413/5/6 1416/5/6
f 1413/6/6 1411/6/6 1417/6/6
f 1416/5/6 1413/5/6 1417/5/6
f 1389/5/6 1414/5/6 1418/5/6
f 1414/6/6 1415/6/6 1418/6/6
f 1418/6/6 1415/6/6 1419/6/6
f 1417/6/6 1411/6/6 1420/6/6
f 1416/6/6 1417/6/6 1420/6/6
f 1420/6/6 1411/6/6 1421/6/6
f 1408/6/6 1389/6/6 1422/6/6
f 1418/5/6 1419/5/6 1422/5/6
f 1389/5/6 1418/5/6 1422/5/6
f 1422/5/6 1419/5/6 1423/5/6
f 1408/6/6 1422/6/6 1424/6/6
f 1422/6/6 1423/6/6 1424/6/6
f 1423/5/6 1419/5/6 1425/5/6
f 1424/6/6 1423/6/6 1425/6/6
f 1408/6/6 1424/6/6 1426/6/6
f 1424/5/6 1425/5/6 1426/5/6
f 1425/5/6 1419/5/6 1427/5/6
f 1426/5/6 1425/5/6 1427/5/6
f 1408/6/6 1426/6/6 1428/6/6
f 1426/6/6 1427/6/6 1428/6/6
f 1428/6/6 1427/6/6 1429/6/6
f 1421/6/6 1411/6/6 1430/6/6
f 1416/6/6 1420/6/6 1431/6/6
f 1420/5/6 1421/5/6 1432/5/6
f 1431/6/6 1420/6/6 1432/6/6
f 1421/6/6 1430/6/6 1433/6/6
f 1431/5/6 1432/5/6 1434/5/6
f 1432/5/6 1421/5/6 1435/5/6
f 1434/5/6 1432/5/6 1435/5/6
f 1421/6/6 1433/6/6 1436/6/6
f 1428/5/6 1429/5/6 1437/5/6
f 1437/5/6 1429/5/6 1438/5/6
f 1421/6/6 1436/6/6 1439/6/6
f 1408/6/6 1428/6/6 1440/6/6
f 1428/5/6 1437/5/6 1440/5/6
f 1437/6/6 1438/6/6 1441/6/6
f 1440/5/6 1437/5/6 1441/5/6
f 1434/6/6 1435/6/6 1442/6/6
f 1435/5/6 1421/5/6 1443/5/6
f 1442/6/6 1435/6/6 1443/6/6
f 1408/6/6 1440/6/6 1444/6/6
f 1440/6/6 1441/6/6 1444/6/6
f 1441/6/6 1438/6/6 1445/6/6
f 1444/6/6 1441/6/6 1445/6/6
f 1443/5/6 1421/5/6 1446/5/6
f 1442/5/6 1443/5/6 1446/5/6
f 1421/6/6 1439/6/6 1447/6/6
f 1446/5/6 1421/5/6 1447/5/6
f 1408/6/6 1444/6/6 1448/6/6
f 1444/5/6 1445/5/6 1448/5/6
f 1448/5/6 1445/5/6 1449/5/6
f 1442/5/6 1446/5/6 1450/5/6
f 1446/6/6 1447/6/6 1451/6/6
f 1450/5/6 1446/5/6 1451/5/6
f 1447/6/6 1439/6/6 1452/6/6
f 1451/6/6 1447/6/6 1452/6/6
f 1408/6/6 1448/6/6 1453/6/6
f 1448/6/6 1449/6/6 1453/6/6
f 1449/5/6 1445/5/6 1454/5/6
f 1453/6/6 1449/6/6 1454/6/6
f 1454/5/6 1445/5/6 1455/5/6
f 1450/6/6 1451/6/6 1457/6/6
f 1451/7/6 1452/7/6 1458/7/6
f 1457/6/6 1451/6/6 1458/6/6
f 1458/7/6 1452/7/6 1459/7/6
f 1459/7/6 1452/7/6 1460/7/6
f 1453/7/6 1454/7/6 1461/7/6
f 1454/6/6 1455/6/6 1462/6/6
f 1461/7/6 1454/7/6 1462/7/6
f 1462/6/6 1455/6/6 1463/6/6
f 1457/6/6 1458/6/6 1465/6/6
f 1456/6/6 1457/6/6 1465/6/6
f 1465/6/6 1458/6/6 1466/6/6
f 1462/3/6 1463/3/6 1467/3/6
f 1463/6/6 1464/6/6 1468/6/6
f 1467/3/6 1463/3/6 1468/3/6
f 1468/6/6 1464/6/6 1469/6/6
f 1470/6/6 1471/6/6 1477/6/6
f 1471/3/6 1472/3/6 1478/3/6
f 1477/6/6 1471/6/6 1478/6/6
f 1472/6/6 1473/6/6 1479/6/6
f 1478/3/6 1472/3/6 1479/3/6
f 1479/6/6 1473/6/6 1480/6/6
f 1474/3/6 1475/3/6 1483/3/6
f 1475/6/6 1476/6/6 1484/6/6
f 1483/3/6 1475/3/6 1484/3/6
f 1484/6/6 1476/6/6 1485/6/6
f 1479/6/6 1480/6/6 1486/6/6
f 1480/7/6 1481/7/6 1487/7/6
f 1486/6/6 1480/6/6 1487/6/6
f 1487/7/6 1481/7/6 1488/7/6
f 1482/7/6 1483/7/6 1489/7/6
f 1483/6/6 1484/6/6 1490/6/6
f 1489/7/6 1483/7/6 1490/7/6
f 1490/6/6 1484/6/6 1491/6/6
f 1487/6/6 1488/6/6 1492/6/6
f 1486/5/6 1487/5/6 1492/5/6
f 1492/6/6 1488/6/6 1493/6/6
f 1489/6/6 1490/6/6 1494/6/6
f 1490/5/6 1491/5/6 1495/5/6
f 1494/6/6 1490/6/6 1495/6/6
f 1489/6/6 1494/6/6 1496/6/6
f 1494/5/6 1495/5/6 1496/5/6
f 1495/5/6 1491/5/6 1497/5/6
f 1496/5/6 1495/5/6 1497/5/6
f 1489/6/6 1496/6/6 1498/6/6
f 1496/6/6 1497/6/6 1498/6/6
f 1486/5/6 1492/5/6 1499/5/6
f 1492/5/6 1493/5/6 1499/5/6
f 1499/5/6 1493/5/6 1500/5/6
f 1498/6/6 1497/6/6 1501/6/6
f 1501/6/6 1497/6/6 1502/6/6
f 1497/5/6 1491/5/6 1503/5/6
f 1502/6/6 1497/6/6 1503/6/6
f 1499/6/6 1500/6/6 1504/6/6
f 1500/5/6 1493/5/6 1505/5/6
f 1504/6/6 1500/6/6 1505/6/6
f 1504/5/6 1505/5/6 1506/5/6
f 1505/5/6 1493/5/6 1507/5/6
f 1506/5/6 1505/5/6 1507/5/6
f 1501/6/6 1502/6/6 1508/6/6
f 1502/5/6 1503/5/6 1508/5/6
f 1503/5/6 1491/5/6 1509/5/6
f 1508/5/6 1503/5/6 1509/5/6
f 1501/6/6 1508/6/6 1510/6/6
f 1508/6/6 1509/6/6 1510/6/6
f 1509/5/6 1491/5/6 1511/5/6
f 1510/6/6 1509/6/6 1511/6/6
f 1511/5/6 1491/5/6 1512/5/6
f 1506/6/6 1507/6/6 1513/6/6
f 1507/5/6 1493/5/6 1514/5/6
f 1513/6/6 1507/6/6 1514/6/6
f 1501/6/6 1510/6/6 1515/6/6
f 1510/5/6 1511/5/6 1515/5/6
f 1511/6/6 1512/6/6 1516/6/6
f 1515/5/6 1511/5/6 1516/5/6
f 1501/6/6 1515/6/6 1517/6/6
f 1515/6/6 1516/6/6 1517/6/6
f 1516/6/6 1512/6/6 1518/6/6
f 1517/6/6 1516/6/6 1518/6/6
f 1517/5/6 1518/5/6 1519/5/6
f 1518/6/6 1512/6/6 1519/6/6
f 1519/6/6 1512/6/6 1520/6/6
f 1514/5/6 1493/5/6 1521/5/6
f 1513/5/6 1514/5/6 1521/5/6
f 1493/6/6 1488/6/6 1522/6/6
f 1521/5/6 1493/5/6 1522/5/6
f 1513/5/6 1521/5/6 1523/5/6
f 1521/6/6 1522/6/6 1523/6/6
f 1522/6/6 1488/6/6 1524/6/6
f 1523/6/6 1522/6/6 1524/6/6
f 1501/6/6 1517/6/6 1525/6/6
f 1525/6/6 1517/6/6 1526/6/6
f 1513/5/6 1523/5/6 1527/5/6
f 1523/5/6 1524/5/6 1527/5/6
f 1527/5/6 1524/5/6 1528/5/6
f 1519/5/6 1520/5/6 1529/5/6
f 1517/5/6 1519/5/6 1529/5/6
f 1529/5/6 1520/5/6 1530/5/6
f 1527/6/6 1528/6/6 1531/6/6
f 1528/5/6 1524/5/6 1532/5/6
f 1531/6/6 1528/6/6 1532/6/6
f 1524/6/6 1488/6/6 1533/6/6
f 1517/5/6 1529/5/6 1534/5/6
f 1529/6/6 1530/6/6 1534/6/6
f 1534/6/6 1530/6/6 1535/6/6
f 1524/6/6 1533/6/6 1536/6/6
f 1526/6/6 1517/6/6 1537/6/6
f 1531/5/6 1532/5/6 1538/5/6
f 1524/6/6 1536/6/6 1539/6/6
f 1538/5/6 1532/5/6 1539/5/6
f 1532/5/6 1524/5/6 1539/5/6
f 1539/6/6 1536/6/6 1540/6/6
f 1537/6/6 1517/6/6 1541/6/6
f 1539/6/6 1540/6/6 1542/6/6
f 1538/6/6 1539/6/6 1542/6/6
f 1542/6/6 1540/6/6 1543/6/6
f 1543/6/6 1540/6/6 1544/6/6
f 1543/6/6 1544/6/6 1545/6/6
f 1538/6/6 1542/6/6 1546/6/6
f 1542/5/6 1543/5/6 1547/5/6
f 1546/6/6 1542/6/6 1547/6/6
f 1543/6/6 1545/6/6 1548/6/6
f 1547/5/6 1543/5/6 1548/5/6
f 1546/5/6 1547/5/6 1549/5/6
f 1547/6/6 1548/6/6 1549/6/6
f 1548/6/6 1545/6/6 1550/6/6
f 1549/6/6 1548/6/6 1550/6/6
f 1517/5/6 1534/5/6 1551/5/6
f 1534/5/6 1535/5/6 1551/5/6
f 1551/5/6 1535/5/6 1552/5/6
f 1550/6/6 1545/6/6 1553/6/6
f 1541/6/6 1517/6/6 1554/6/6
f 1517/5/6 1551/5/6 1555/5/6
f 1554/6/6 1517/6/6 1555/6/6
f 1551/6/6 1552/6/6 1556/6/6
f 1555/5/6 1551/5/6 1556/5/6
f 1556/6/6 1552/6/6 1557/6/6
f 1554/6/6 1555/6/6 1558/6/6
f 1555/6/6 1556/6/6 1558/6/6
f 1558/6/6 1556/6/6 1559/6/6
f 1556/5/6 1557/5/6 1560/5/6
f 1559/6/6 1556/6/6 1560/6/6
f 1549/5/6 1550/5/6 1561/5/6
f 1546/5/6 1549/5/6 1561/5/6
f 1561/5/6 1550/5/6 1562/5/6
f 1561/6/6 1562/6/6 1563/6/6
f 1562/5/6 1550/5/6 1564/5/6
f 1563/6/6 1562/6/6 1564/6/6
f 1550/6/6 1553/6/6 1565/6/6
f 1560/5/6 1557/5/6 1566/5/6
f 1559/5/6 1560/5/6 1566/5/6
f 1566/5/6 1557/5/6 1567/5/6
f 1563/5/6 1564/5/6 1568/5/6
f 1564/5/6 1550/5/6 1569/5/6
f 1568/5/6 1564/5/6 1569/5/6
f 1550/6/6 1565/6/6 1570/6/6
f 1559/5/6 1566/5/6 1571/5/6
f 1566/6/6 1567/6/6 1571/6/6
f 1571/6/6 1567/6/6 1572/6/6
f 1568/6/6 1569/6/6 1573/6/6
f 1569/5/6 1550/5/6 1574/5/6
f 1573/6/6 1569/6/6 1574/6/6
f 1550/6/6 1570/6/6 1575/6/6
f 1574/5/6 1550/5/6 1575/5/6
f 1558/6/6 1559/6/6 1576/6/6
f 1573/5/6 1574/5/6 1577/5/6
f 1574/6/6 1575/6/6 1577/6/6
f 1575/6/6 1570/6/6 1578/6/6
f 1577/6/6 1575/6/6 1578/6/6
f 1578/6/6 1570/6/6 1579/6/6
f 1578/6/6 1579/6/6 1580/6/6
f 1576/6/6 1559/6/6 1581/6/6
f 1573/5/6 1577/5/6 1582/5/6
f 1577/5/6 1578/5/6 1582/5/6
f 1582/5/6 1578/5/6 1583/5/6
f 1578/6/6 1580/6/6 1584/6/6
f 1582/6/6 1583/6/6 1585/6/6
f 1583/5/6 1578/5/6 1586/5/6
f 1585/6/6 1583/6/6 1586/6/6
f 1578/6/6 1584/6/6 1587/6/6
f 1585/5/6 1586/5/6 1588/5/6
f 1586/5/6 1578/5/6 1589/5/6
f 1588/5/6 1586/5/6 1589/5/6
f 1588/6/6 1589/6/6 1590/6/6
f 1589/5/6 1578/5/6 1591/5/6
f 1590/6/6 1589/6/6 1591/6/6
f 1578/6/6 1587/6/6 1592/6/6
f 1591/5/6 1578/5/6 1592/5/6
f 1592/6/6 1587/6/6 1593/6/6
f 1581/6/6 1559/6/6 1594/6/6
f 1592/6/6 1593/6/6 1595/6/6
f 1591/6/6 1592/6/6 1595/6/6
f 1590/5/6 1591/5/6 1595/5/6
f 1595/6/6 1593/6/6 1596/6/6
f 1596/6/6 1593/6/6 1597/6/6
f 1594/6/6 1559/6/6 1598/6/6
f 1590/5/6 1595/5/6 1599/5/6
f 1595/5/6 1596/5/6 1599/5/6
f 1596/6/6 1597/6/6 1600/6/6
f 1599/5/6 1596/5/6 1600/5/6
f 1559/5/6 1571/5/6 1601/5/6
f 1571/5/6 1572/5/6 1601/5/6
f 1598/6/6 1559/6/6 1601/6/6
f 1601/5/6 1572/5/6 1602/5/6
f 1590/5/6 1599/5/6 1603/5/6
f 1599/6/6 1600/6/6 1604/6/6
f 1603/5/6 1599/5/6 1604/5/6
f 1600/6/6 1597/6/6 1605/6/6
f 1604/6/6 1600/6/6 1605/6/6
f 1598/6/6 1601/6/6 1606/6/6
f 1601/6/6 1602/6/6 1606/6/6
f 1602/5/6 1572/5/6 1607/5/6
f 1606/6/6 1602/6/6 1607/6/6
f 1607/5/6 1572/5/6 1608/5/6
f 1603/3/6 1604/3/6 1611/3/6
f 1604/7/6 1605/7/6 1612/7/6
f 1611/3/6 1604/3/6 1612/3/6
f 1612/7/6 1605/7/6 1613/7/6
f 1606/7/6 1607/7/6 1614/7/6
f 1607/6/6 1608/6/6 1615/6/6
f 1614/7/6 1607/7/6 1615/7/6
f 1615/6/6 1608/6/6 1616/6/6
f 1609/6/6 1610/6/6 1618/6/6
f 1610/3/6 1611/3/6 1619/3/6
f 1618/6/6 1610/6/6 1619/6/6
f 1611/6/6 1612/6/6 1620/6/6
f 1619/3/6 1611/3/6 1620/3/6
f 1620/6/6 1612/6/6 1621/6/6
f 1615/3/6 1616/3/6 1622/3/6
f 1616/6/6 1617/6/6 1623/6/6
f 1622/3/6 1616/3/6 1623/3/6
f 1623/6/6 1617/6/6 1624/6/6
f 1625/6/6 1626/6/6 1631/6/6
f 1626/3/6 1627/3/6 1632/3/6
f 1631/6/6 1626/6/6 1632/6/6
f 1632/3/6 1627/3/6 1633/3/6
f 1628/6/6 1629/6/6 1636/6/6
f 1629/3/6 1630/3/6 1637/3/6
f 1636/6/6 1629/6/6 1637/6/6
f 1637/3/6 1630/3/6 1638/3/6
f 1632/6/6 1633/6/6 1639/6/6
f 1633/7/6 1634/7/6 1640/7/6
f 1639/6/6 1633/6/6 1640/6/6
f 1640/7/6 1634/7/6 1641/7/6
f 1635/7/6 1636/7/6 1642/7/6
f 1636/6/6 1637/6/6 1643/6/6
f 1642/7/6 1636/7/6 1643/7/6
f 1643/6/6 1637/6/6 1644/6/6
f 1640/6/6 1641/6/6 1645/6/6
f 1639/5/6 1640/5/6 1645/5/6
f 1645/6/6 1641/6/6 1646/6/6
f 1642/6/6 1643/6/6 1647/6/6
f 1643/5/6 1644/5/6 1648/5/6
f 1647/6/6 1643/6/6 1648/6/6
f 1646/6/6 1641/6/6 1649/6/6
f 1648/5/6 1644/5/6 1650/5/6
f 1647/5/6 1648/5/6 1650/5/6
f 1650/5/6 1644/5/6 1651/5/6
f 1647/5/6 1650/5/6 1652/5/6
f 1650/6/6 1651/6/6 1652/6/6
f 1652/6/6 1651/6/6 1653/6/6
f 1646/6/6 1649/6/6 1654/6/6
f 1642/6/6 1647/6/6 1655/6/6
f 1655/6/6 1647/6/6 1656/6/6
f 1639/5/6 1645/5/6 1657/5/6
f 1645/5/6 1646/5/6 1657/5/6
f 1646/6/6 1654/6/6 1658/6/6
f 1657/5/6 1646/5/6 1658/5/6
f 1656/6/6 1647/6/6 1659/6/6
f 1639/5/6 1657/5/6 1660/5/6
f 1657/6/6 1658/6/6 1660/6/6
f 1658/6/6 1654/6/6 1661/6/6
f 1660/6/6 1658/6/6 1661/6/6
f 1661/6/6 1654/6/6 1662/6/6
f 1661/6/6 1662/6/6 1663/6/6
f 1659/6/6 1647/6/6 1664/6/6
f 1661/6/6 1663/6/6 1665/6/6
f 1647/5/6 1652/5/6 1666/5/6
f 1652/5/6 1653/5/6 1666/5/6
f 1666/5/6 1653/5/6 1667/5/6
f 1661/6/6 1665/6/6 1668/6/6
f 1647/5/6 1666/5/6 1669/5/6
f 1666/6/6 1667/6/6 1669/6/6
f 1669/6/6 1667/6/6 1670/6/6
f 1639/5/6 1660/5/6 1671/5/6
f 1660/5/6 1661/5/6 1671/5/6
f 1671/5/6 1661/5/6 1672/5/6
f 1661/6/6 1668/6/6 1673/6/6
f 1664/6/6 1647/6/6 1674/6/6
f 1671/6/6 1672/6/6 1675/6/6
f 1672/5/6 1661/5/6 1676/5/6
f 1675/6/6 1672/6/6 1676/6/6
f 1674/6/6 1647/6/6 1677/6/6
f 1661/6/6 1673/6/6 1678/6/6
f 1669/5/6 1670/5/6 1679/5/6
f 1647/5/6 1669/5/6 1679/5/6
f 1679/5/6 1670/5/6 1680/5/6
f 1675/5/6 1676/5/6 1681/5/6
f 1676/5/6 1661/5/6 1682/5/6
f 1681/5/6 1676/5/6 1682/5/6
f 1661/6/6 1678/6/6 1683/6/6
f 1647/5/6 1679/5/6 1684/5/6
f 1679/6/6 1680/6/6 1684/6/6
f 1684/6/6 1680/6/6 1685/6/6
f 1681/6/6 1682/6/6 1686/6/6
f 1682/5/6 1661/5/6 1687/5/6
f 1686/6/6 1682/6/6 1687/6/6
f 1661/6/6 1683/6/6 1688/6/6
f 1687/5/6 1661/5/6 1688/5/6
f 1688/6/6 1683/6/6 1689/6/6
f 1686/5/6 1687/5/6 1690/5/6
f 1687/6/6 1688/6/6 1690/6/6
f 1688/6/6 1689/6/6 1690/6/6
f 1690/6/6 1689/6/6 1691/6/6
f 1686/5/6 1690/5/6 1692/5/6
f 1690/5/6 1691/5/6 1692/5/6
f 1692/5/6 1691/5/6 1693/5/6
f 1692/6/6 1693/6/6 1694/6/6
f 1693/5/6 1691/5/6 1694/5/6
f 1691/6/6 1689/6/6 1695/6/6
f 1694/5/6 1691/5/6 1695/5/6
f 1692/6/6 1694/6/6 1696/6/6
f 1694/6/6 1695/6/6 1696/6/6
f 1695/6/6 1689/6/6 1697/6/6
f 1696/6/6 1695/6/6 1697/6/6
f 1692/6/6 1696/6/6 1698/6/6
f 1696/5/6 1697/5/6 1699/5/6
f 1698/6/6 1696/6/6 1699/6/6
f 1647/5/6 1684/5/6 1700/5/6
f 1684/5/6 1685/5/6 1700/5/6
f 1700/5/6 1685/5/6 1701/5/6
f 1647/5/6 1700/5/6 1702/5/6
f 1700/6/6 1701/6/6 1702/6/6
f 1702/6/6 1701/6/6 1703/6/6
f 1697/6/6 1689/6/6 1704/6/6
f 1698/5/6 1699/5/6 1705/5/6
f 1699/5/6 1697/5/6 1706/5/6
f 1705/5/6 1699/5/6 1706/5/6
f 1697/6/6 1704/6/6 1706/6/6
f 1677/6/6 1647/6/6 1707/6/6
f 1705/6/6 1706/6/6 1708/6/6
f 1708/6/6 1706/6/6 1709/6/6
f 1706/6/6 1704/6/6 1710/6/6
f 1709/6/6 1706/6/6 1710/6/6
f 1708/5/6 1709/5/6 1711/5/6
f 1709/6/6 1710/6/6 1711/6/6
f 1711/6/6 1710/6/6 1712/6/6
f 1712/6/6 1710/6/6 1713/6/6
f 1647/5/6 1702/5/6 1714/5/6
f 1702/5/6 1703/5/6 1714/5/6
f 1714/5/6 1703/5/6 1715/5/6
f 1712/6/6 1713/6/6 1716/6/6
f 1707/6/6 1647/6/6 1717/6/6
f 1711/5/6 1712/5/6 1718/5/6
f 1708/5/6 1711/5/6 1718/5/6
f 1718/5/6 1712/5/6 1719/5/6
f 1718/6/6 1719/6/6 1720/6/6
f 1719/5/6 1712/5/6 1720/5/6
f 1712/6/6 1716/6/6 1721/6/6
f 1720/5/6 1712/5/6 1721/5/6
f 1717/6/6 1647/6/6 1722/6/6
f 1718/6/6 1720/6/6 1723/6/6
f 1720/6/6 1721/6/6 1723/6/6
f 1721/6/6 1716/6/6 1724/6/6
f 1723/6/6 1721/6/6 1724/6/6
f 1647/5/6 1714/5/6 1725/5/6
f 1714/6/6 1715/6/6 1725/6/6
f 1725/6/6 1715/6/6 1726/6/6
f 1722/6/6 1647/6/6 1727/6/6
f 1723/5/6 1724/5/6 1728/5/6
f 1728/5/6 1724/5/6 1729/5/6
f 1728/6/6 1729/6/6 1730/6/6
f 1729/5/6 1724/5/6 1731/5/6
f 1730/6/6 1729/6/6 1731/6/6
f 1724/6/6 1716/6/6 1732/6/6
f 1724/6/6 1732/6/6 1733/6/6
f 1730/5/6 1731/5/6 1734/5/6
f 1731/5/6 1724/5/6 1735/5/6
f 1734/5/6 1731/5/6 1735/5/6
f 1724/6/6 1733/6/6 1735/6/6
f 1727/6/6 1647/6/6 1736/6/6
f 1647/5/6 1725/5/6 1737/5/6
f 1725/5/6 1726/5/6 1737/5/6
f 1737/5/6 1726/5/6 1738/5/6
f 1734/6/6 1735/6/6 1739/6/6
f 1735/6/6 1733/6/6 1740/6/6
f 1739/6/6 1735/6/6 1740/6/6
f 1647/5/6 1737/5/6 1741/5/6
f 1737/6/6 1738/6/6 1741/6/6
f 1741/6/6 1738/6/6 1742/6/6
f 1736/6/6 1647/6/6 1743/6/6
f 1739/5/6 1740/5/6 1744/5/6
f 1740/6/6 1733/6/6 1745/6/6
f 1744/5/6 1740/5/6 1745/5/6
f 1743/6/6 1647/6/6 1746/6/6
f 1647/5/6 1741/5/6 1746/5/6
f 1741/5/6 1742/5/6 1746/5/6
f 1746/5/6 1742/5/6 1747/5/6
f 1739/5/6 1744/5/6 1748/5/6
f 1744/6/6 1745/6/6 1749/6/6
f 1748/5/6 1744/5/6 1749/5/6
f 1745/6/6 1733/6/6 1750/6/6
f 1749/6/6 1745/6/6 1750/6/6
f 1743/6/6 1746/6/6 1751/6/6
f 1746/6/6 1747/6/6 1751/6/6
f 1747/5/6 1742/5/6 1752/5/6
f 1751/6/6 1747/6/6 1752/6/6
f 1752/5/6 1742/5/6 1753/5/6
f 1748/3/6 1749/3/6 1755/3/6
f 1749/7/6 1750/7/6 1756/7/6
f 1755/3/6 1749/3/6 1756/3/6
f 1756/7/6 1750/7/6 1757/7/6
f 1751/7/6 1752/7/6 1758/7/6
f 1752/6/6 1753/6/6 1759/6/6
f 1758/7/6 1752/7/6 1759/7/6
f 1759/6/6 1753/6/6 1760/6/6
f 1754/6/6 1755/6/6 1762/6/6
f 1755/3/6 1756/3/6 1763/3/6
f 1762/6/6 1755/6/6 1763/6/6
f 1763/3/6 1756/3/6 1764/3/6
f 1759/6/6 1760/6/6 1765/6/6
f 1760/3/6 1761/3/6 1766/3/6
f 1765/6/6 1760/6/6 1766/6/6
f 1766/3/6 1761/3/6 1767/3/6
f 1768/6/6 1769/6/6 1774/6/6
f 1769/3/6 1770/3/6 1775/3/6
f 1774/6/6 1769/6/6 1775/6/6
f 1775/3/6 1770/3/6 1776/3/6
f 1771/3/6 1772/3/6 1778/3/6
f 1772/6/6 1773/6/6 1779/6/6
f 1778/3/6 1772/3/6 1779/3/6
f 1779/6/6 1773/6/6 1780/6/6
f 1777/6/6 1778/6/6 1781/6/6
f 1776/6/6 1777/6/6 1781/6/6
f 1778/6/6 1779/6/6 1781/6/6
f 1775/6/6 1776/6/6 1781/6/6
f 1781/6/6 1779/6/6 1782/6/6
f 1781/5/6 1782/5/6 1783/5/6
f 1783/5/6 1782/5/6 1784/5/6
f 1784/5/6 1782/5/6 1785/5/6
f 1785/5/6 1782/5/6 1786/5/6
f 1784/5/6 1785/5/6 1787/5/6
f 1785/6/6 1786/6/6 1787/6/6
f 1786/5/6 1782/5/6 1788/5/6
f 1787/6/6 1786/6/6 1788/6/6
f 1783/6/6 1784/6/6 1789/6/6
f 1784/5/6 1787/5/6 1790/5/6
f 1789/6/6 1784/6/6 1790/6/6
f 1787/5/6 1788/5/6 1790/5/6
f 1788/5/6 1782/5/6 1791/5/6
f 1790/5/6 1788/5/6 1791/5/6
f 1791/5/6 1782/5/6 1792/5/6
f 1789/5/6 1790/5/6 1793/5/6
f 1790/5/6 1791/5/6 1793/5/6
f 1791/6/6 1792/6/6 1793/6/6
f 1793/6/6 1792/6/6 1794/6/6
f 1789/5/6 1793/5/6 1795/5/6
f 1793/5/6 1794/5/6 1795/5/6
f 1795/5/6 1794/5/6 1796/5/6
f 1789/5/6 1795/5/6 1797/5/6
f 1797/5/6 1795/5/6 1798/5/6
f 1797/6/6 1798/6/6 1799/6/6
f 1798/5/6 1795/5/6 1800/5/6
f 1799/6/6 1798/6/6 1800/6/6
f 1795/6/6 1796/6/6 1801/6/6
f 1800/5/6 1795/5/6 1801/5/6
f 1801/6/6 1796/6/6 1802/6/6
f 1799/5/6 1800/5/6 1803/5/6
f 1800/5/6 1801/5/6 1803/5/6
f 1801/5/6 1802/5/6 1803/5/6
f 1803/5/6 1802/5/6 1804/5/6
f 1804/5/6 1802/5/6 1805/5/6
f 1805/5/6 1802/5/6 1806/5/6
f 1803/6/6 1804/6/6 1807/6/6
f 1804/5/6 1805/5/6 1808/5/6
f 1807/6/6 1804/6/6 1808/6/6
f 1805/6/6 1806/6/6 1809/6/6
f 1808/5/6 1805/5/6 1809/5/6
f 1806/5/6 1802/5/6 1810/5/6
f 1809/6/6 1806/6/6 1810/6/6
f 1808/5/6 1809/5/6 1811/5/6
f 1807/5/6 1808/5/6 1811/5/6
f 1809/5/6 1810/5/6 1811/5/6
f 1811/5/6 1810/5/6 1812/5/6
f 1810/5/6 1802/5/6 1813/5/6
f 1812/5/6 1810/5/6 1813/5/6
f 1813/5/6 1802/5/6 1814/5/6
f 1812/5/6 1813/5/6 1815/5/6
f 1813/6/6 1814/6/6 1815/6/6
f 1815/6/6 1814/6/6 1816/6/6
f 1811/6/6 1812/6/6 1817/6/6
f 1812/5/6 1815/5/6 1818/5/6
f 1817/6/6 1812/6/6 1818/6/6
f 1815/5/6 1816/5/6 1818/5/6
f 1817/5/6 1818/5/6 1819/5/6
f 1818/5/6 1816/5/6 1819/5/6
f 1819/5/6 1816/5/6 1820/5/6
f 1817/5/6 1819/5/6 1821/5/6
f 1819/6/6 1820/6/6 1821/6/6
f 1820/5/6 1816/5/6 1822/5/6
f 1821/6/6 1820/6/6 1822/6/6
f 1817/5/6 1821/5/6 1823/5/6
f 1821/5/6 1822/5/6 1823/5/6
f 1823/5/6 1822/5/6 1824/5/6
f 1823/6/6 1824/6/6 1825/6/6
f 1824/5/6 1822/5/6 1826/5/6
f 1825/6/6 1824/6/6 1826/6/6
f 1825/5/6 1826/5/6 1827/5/6
f 1826/5/6 1822/5/6 1827/5/6
f 1822/5/6 1816/5/6 1828/5/6
f 1827/5/6 1822/5/6 1828/5/6
f 1825/5/6 1827/5/6 1829/5/6
f 1827/6/6 1828/6/6 1829/6/6
f 1828/5/6 1816/5/6 1830/5/6
f 1829/6/6 1828/6/6 1830/6/6
f 1825/5/6 1829/5/6 1831/5/6
f 1829/5/6 1830/5/6 1831/5/6
f 1831/5/6 1830/5/6 1832/5/6
f 1830/5/6 1816/5/6 1833/5/6
f 1832/5/6 1830/5/6 1833/5/6
f 1833/5/6 1816/5/6 1834/5/6
f 1831/6/6 1832/6/6 1835/6/6
f 1832/5/6 1833/5/6 1836/5/6
f 1835/6/6 1832/6/6 1836/6/6
f 1835/5/6 1836/5/6 1837/5/6
f 1836/5/6 1833/5/6 1838/5/6
f 1837/5/6 1836/5/6 1838/5/6
f 1837/6/6 1838/6/6 1839/6/6
f 1838/5/6 1833/5/6 1840/5/6
f 1839/6/6 1838/6/6 1840/6/6
f 1833/6/6 1834/6/6 1841/6/6
f 1840/5/6 1833/5/6 1841/5/6
f 1841/6/6 1834/6/6 1842/6/6
f 1839/5/6 1840/5/6 1843/5/6
f 1840/5/6 1841/5/6 1843/5/6
f 1841/5/6 1842/5/6 1843/5/6
f 1843/5/6 1842/5/6 1844/5/6
f 1839/5/6 1843/5/6 1845/5/6
f 1843/6/6 1844/6/6 1845/6/6
f 1845/6/6 1844/6/6 1846/6/6
f 1839/5/6 1845/5/6 1847/5/6
f 1845/5/6 1846/5/6 1847/5/6
f 1847/5/6 1846/5/6 1848/5/6
f 1848/5/6 1846/5/6 1849/5/6
f 1849/5/6 1846/5/6 1850/5/6
f 1847/6/6 1848/6/6 1851/6/6
f 1848/5/6 1849/5/6 1852/5/6
f 1851/6/6 1848/6/6 1852/6/6
f 1849/6/6 1850/6/6 1853/6/6
f 1852/5/6 1849/5/6 1853/5/6
f 1850/5/6 1846/5/6 1854/5/6
f 1853/6/6 1850/6/6 1854/6/6
f 1852/5/6 1853/5/6 1855/5/6
f 1851/5/6 1852/5/6 1855/5/6
f 1853/5/6 1854/5/6 1855/5/6
f 1855/5/6 1854/5/6 1856/5/6
f 1854/5/6 1846/5/6 1857/5/6
f 1856/5/6 1854/5/6 1857/5/6
f 1857/5/6 1846/5/6 1858/5/6
f 1855/6/6 1856/6/6 1859/6/6
f 1851/5/6 1855/5/6 1859/5/6
f 1856/5/6 1857/5/6 1860/5/6
f 1859/6/6 1856/6/6 1860/6/6
f 1857/6/6 1858/6/6 1861/6/6
f 1860/5/6 1857/5/6 1861/5/6
f 1859/5/6 1860/5/6 1861/5/6
f 1861/6/6 1858/6/6 1862/6/6
f 1851/5/6 1859/5/6 1863/5/6
f 1859/5/6 1861/5/6 1863/5/6
f 1861/5/6 1862/5/6 1863/5/6
f 1863/5/6 1862/5/6 1864/5/6
f 1864/5/6 1862/5/6 1865/5/6
f 1865/5/6 1862/5/6 1866/5/6
f 1863/3/6 1864/3/6 1868/3/6
f 1868/3/6 1864/3/6 1869/3/6
f 1864/6/6 1865/6/6 1870/6/6
f 1869/3/6 1864/3/6 1870/3/6
f 1865/3/6 1866/3/6 1871/3/6
f 1870/6/6 1865/6/6 1871/6/6
f 1871/3/6 1866/3/6 1872/3/6
f 1867/6/6 1868/6/6 1874/6/6
f 1868/3/6 1869/3/6 1875/3/6
f 1874/6/6 1868/6/6 1875/6/6
f 1875/3/6 1869/3/6 1876/3/6
f 1871/3/6 1872/3/6 1877/3/6
f 1872/6/6 1873/6/6 1878/6/6
f 1877/3/6 1872/3/6 1878/3/6
f 1878/6/6 1873/6/6 1879/6/6
f 1880/6/6 1881/6/6 1883/6/6
f 1881/3/6 1882/3/6 1884/3/6
f 1883/6/6 1881/6/6 1884/6/6
f 1884/3/6 1882/3/6 1885/3/6
f 1886/6/6 1887/6/6 1889/6/6
f 1887/3/6 1888/3/6 1890/3/6
f 1889/6/6 1887/6/6 1890/6/6
f 1890/3/6 1888/3/6 1891/3/6
