# MagicaVoxel @ Ephtracy

# group
o 

# material
mtllib SmithigHouseWindowCross.mtl
usemtl palette

# normals
vn -1 0 0
vn 1 0 0
vn 0 0 1
vn 0 0 -1
vn 0 -1 0
vn 0 1 0

# texcoords
vt 0.369141 0.5
vt 0.373047 0.5

# verts
v 0 2 -0.5
v 0 2 -0.6
v 0 2 -0.7
v 0 2.1 -0.5
v 0 2.1 -0.6
v 0 2.2 -0.6
v 0 2.2 -0.7
v 0 2.3 -0.5
v 0 2.3 -0.6
v 0 2.3 -0.7
v 0 2.4 0
v 0 2.4 -0.1
v 0 2.4 -0.4
v 0 2.4 -0.5
v 0 2.4 -0.6
v 0 2.4 -0.7
v 0 2.4 -1
v 0 2.4 -1.2
v 0 2.5 -0.1
v 0 2.5 -0.2
v 0 2.5 -0.3
v 0 2.5 -0.4
v 0 2.5 -0.5
v 0 2.5 -0.7
v 0 2.5 -0.9
v 0 2.5 -1
v 0 2.5 -1.1
v 0 2.6 0
v 0 2.6 -0.2
v 0 2.6 -0.3
v 0 2.6 -0.4
v 0 2.6 -0.5
v 0 2.6 -0.6
v 0 2.6 -0.7
v 0 2.6 -0.9
v 0 2.6 -1.1
v 0 2.6 -1.2
v 0 2.7 -0.5
v 0 2.7 -0.6
v 0 2.7 -0.7
v 0 2.8 -0.5
v 0 2.8 -0.6
v 0 2.8 -0.7
v 0 2.9 -0.5
v 0 2.9 -0.6
v 0 2.9 -0.7
v 0 3 -0.5
v 0 3 -0.6
v 0 3 -0.7
v 0.2 2 -0.5
v 0.2 2 -0.7
v 0.2 2.1 -0.6
v 0.2 2.1 -0.7
v 0.2 2.2 -0.6
v 0.2 2.2 -0.7
v 0.2 2.3 -0.5
v 0.2 2.3 -0.7
v 0.2 2.4 0
v 0.2 2.4 -0.1
v 0.2 2.4 -0.4
v 0.2 2.4 -0.5
v 0.2 2.4 -0.6
v 0.2 2.4 -0.7
v 0.2 2.4 -0.8
v 0.2 2.4 -1
v 0.2 2.4 -1.1
v 0.2 2.4 -1.2
v 0.2 2.5 0
v 0.2 2.5 -0.1
v 0.2 2.5 -0.2
v 0.2 2.5 -0.3
v 0.2 2.5 -0.4
v 0.2 2.5 -0.8
v 0.2 2.5 -0.9
v 0.2 2.6 0
v 0.2 2.6 -0.1
v 0.2 2.6 -0.2
v 0.2 2.6 -0.3
v 0.2 2.6 -0.5
v 0.2 2.6 -0.6
v 0.2 2.6 -0.7
v 0.2 2.6 -0.9
v 0.2 2.6 -1
v 0.2 2.6 -1.1
v 0.2 2.6 -1.2
v 0.2 2.7 -0.5
v 0.2 2.7 -0.7
v 0.2 2.8 -0.6
v 0.2 2.8 -0.7
v 0.2 2.9 -0.6
v 0.2 2.9 -0.7
v 0.2 3 -0.5
v 0.2 3 -0.7
v 0 2.4 0
v 0 2.6 0
v 0.1 2.5 0
v 0.1 2.6 0
v 0.2 2.4 0
v 0.2 2.5 0
v 0.2 2.6 0
v 0 2 -0.5
v 0 2.1 -0.5
v 0 2.3 -0.5
v 0 2.4 -0.5
v 0 2.6 -0.5
v 0 2.7 -0.5
v 0 2.8 -0.5
v 0 2.9 -0.5
v 0 3 -0.5
v 0.1 2.1 -0.5
v 0.1 2.3 -0.5
v 0.1 2.4 -0.5
v 0.1 2.6 -0.5
v 0.1 2.8 -0.5
v 0.1 2.9 -0.5
v 0.2 2 -0.5
v 0.2 2.3 -0.5
v 0.2 2.4 -0.5
v 0.2 2.6 -0.5
v 0.2 2.7 -0.5
v 0.2 3 -0.5
v 0 2 -0.7
v 0 2.2 -0.7
v 0 2.3 -0.7
v 0 2.4 -0.7
v 0 2.6 -0.7
v 0 2.7 -0.7
v 0 2.8 -0.7
v 0 2.9 -0.7
v 0 3 -0.7
v 0.1 2 -0.7
v 0.1 2.1 -0.7
v 0.1 2.6 -0.7
v 0.1 2.7 -0.7
v 0.1 2.8 -0.7
v 0.1 2.9 -0.7
v 0.1 3 -0.7
v 0.2 2 -0.7
v 0.2 2.1 -0.7
v 0.2 2.2 -0.7
v 0.2 2.3 -0.7
v 0.2 2.4 -0.7
v 0.2 2.6 -0.7
v 0.2 2.7 -0.7
v 0.2 2.8 -0.7
v 0.2 2.9 -0.7
v 0.2 3 -0.7
v 0 2.4 -1.2
v 0 2.6 -1.2
v 0.2 2.4 -1.2
v 0.2 2.6 -1.2
v 0 2 -0.5
v 0.2 2 -0.5
v 0 2 -0.6
v 0.1 2 -0.6
v 0 2 -0.7
v 0.1 2 -0.7
v 0.2 2 -0.7
v 0 2.4 0
v 0.2 2.4 0
v 0 2.4 -0.1
v 0.2 2.4 -0.1
v 0 2.4 -0.4
v 0.2 2.4 -0.4
v 0 2.4 -0.5
v 0.1 2.4 -0.5
v 0.2 2.4 -0.5
v 0 2.4 -0.7
v 0.2 2.4 -0.7
v 0.1 2.4 -0.8
v 0.2 2.4 -0.8
v 0 2.4 -1
v 0.1 2.4 -1
v 0.2 2.4 -1
v 0.1 2.4 -1.1
v 0.2 2.4 -1.1
v 0 2.4 -1.2
v 0.2 2.4 -1.2
v 0 2.6 0
v 0.1 2.6 0
v 0.2 2.6 0
v 0.1 2.6 -0.1
v 0.2 2.6 -0.1
v 0 2.6 -0.2
v 0.2 2.6 -0.2
v 0 2.6 -0.3
v 0.2 2.6 -0.3
v 0 2.6 -0.4
v 0.1 2.6 -0.4
v 0 2.6 -0.5
v 0.1 2.6 -0.5
v 0.2 2.6 -0.5
v 0 2.6 -0.7
v 0.1 2.6 -0.7
v 0.2 2.6 -0.7
v 0 2.6 -0.9
v 0.1 2.6 -0.9
v 0.2 2.6 -0.9
v 0.1 2.6 -1
v 0.2 2.6 -1
v 0 2.6 -1.1
v 0.2 2.6 -1.1
v 0 2.6 -1.2
v 0.2 2.6 -1.2
v 0 3 -0.5
v 0.2 3 -0.5
v 0 3 -0.6
v 0.1 3 -0.6
v 0 3 -0.7
v 0.1 3 -0.7
v 0.2 3 -0.7

# faces
f 4/2/1 2/2/1 1/2/1
f 5/1/1 3/1/1 2/1/1
f 5/2/1 2/2/1 4/2/1
f 6/1/1 5/1/1 4/1/1
f 6/1/1 3/1/1 5/1/1
f 7/1/1 3/1/1 6/1/1
f 8/1/1 6/1/1 4/1/1
f 9/2/1 7/2/1 6/2/1
f 9/1/1 6/1/1 8/1/1
f 10/2/1 7/2/1 9/2/1
f 14/2/1 9/2/1 8/2/1
f 15/1/1 10/1/1 9/1/1
f 15/2/1 9/2/1 14/2/1
f 16/1/1 10/1/1 15/1/1
f 19/2/1 13/2/1 12/2/1
f 19/1/1 12/1/1 11/1/1
f 20/2/1 13/2/1 19/2/1
f 21/2/1 13/2/1 20/2/1
f 22/1/1 14/1/1 13/1/1
f 22/2/1 13/2/1 21/2/1
f 23/2/1 16/2/1 15/2/1
f 23/1/1 14/1/1 22/1/1
f 23/2/1 15/2/1 14/2/1
f 23/2/1 17/2/1 16/2/1
f 24/2/1 17/2/1 23/2/1
f 25/2/1 17/2/1 24/2/1
f 26/1/1 18/1/1 17/1/1
f 26/2/1 17/2/1 25/2/1
f 27/1/1 18/1/1 26/1/1
f 28/1/1 20/1/1 19/1/1
f 28/1/1 19/1/1 11/1/1
f 29/2/1 21/2/1 20/2/1
f 29/1/1 20/1/1 28/1/1
f 30/1/1 22/1/1 21/1/1
f 30/2/1 21/2/1 29/2/1
f 31/2/1 23/2/1 22/2/1
f 31/1/1 22/1/1 30/1/1
f 31/2/1 24/2/1 23/2/1
f 32/2/1 24/2/1 31/2/1
f 33/2/1 24/2/1 32/2/1
f 34/1/1 25/1/1 24/1/1
f 34/2/1 24/2/1 33/2/1
f 35/2/1 27/2/1 26/2/1
f 35/1/1 25/1/1 34/1/1
f 35/2/1 26/2/1 25/2/1
f 36/1/1 18/1/1 27/1/1
f 36/2/1 27/2/1 35/2/1
f 37/1/1 18/1/1 36/1/1
f 38/1/1 33/1/1 32/1/1
f 39/2/1 34/2/1 33/2/1
f 39/1/1 33/1/1 38/1/1
f 40/2/1 34/2/1 39/2/1
f 41/2/1 39/2/1 38/2/1
f 42/1/1 40/1/1 39/1/1
f 42/2/1 39/2/1 41/2/1
f 43/1/1 40/1/1 42/1/1
f 44/1/1 42/1/1 41/1/1
f 45/2/1 43/2/1 42/2/1
f 45/1/1 42/1/1 44/1/1
f 46/2/1 43/2/1 45/2/1
f 47/2/1 45/2/1 44/2/1
f 48/1/1 46/1/1 45/1/1
f 48/2/1 45/2/1 47/2/1
f 49/1/1 46/1/1 48/1/1
f 50/2/2 51/2/2 52/2/2
f 52/2/2 51/2/2 53/2/2
f 50/2/2 52/2/2 54/2/2
f 52/1/2 53/1/2 54/1/2
f 54/1/2 53/1/2 55/1/2
f 50/2/2 54/2/2 56/2/2
f 54/2/2 55/2/2 56/2/2
f 56/2/2 55/2/2 57/2/2
f 56/1/2 57/1/2 61/1/2
f 61/1/2 57/1/2 62/1/2
f 62/1/2 57/1/2 63/1/2
f 58/1/2 59/1/2 68/1/2
f 59/2/2 60/2/2 69/2/2
f 68/1/2 59/1/2 69/1/2
f 69/2/2 60/2/2 70/2/2
f 70/2/2 60/2/2 71/2/2
f 60/1/2 61/1/2 72/1/2
f 71/2/2 60/2/2 72/2/2
f 63/2/2 64/2/2 73/2/2
f 64/1/2 65/1/2 73/1/2
f 73/1/2 65/1/2 74/1/2
f 68/2/2 69/2/2 75/2/2
f 69/1/2 70/1/2 76/1/2
f 75/2/2 69/2/2 76/2/2
f 70/2/2 71/2/2 77/2/2
f 76/1/2 70/1/2 77/1/2
f 71/1/2 72/1/2 78/1/2
f 77/2/2 71/2/2 78/2/2
f 61/2/2 62/2/2 79/2/2
f 78/1/2 72/1/2 79/1/2
f 72/1/2 61/1/2 79/1/2
f 62/1/2 63/1/2 80/1/2
f 79/2/2 62/2/2 80/2/2
f 73/2/2 74/2/2 81/2/2
f 80/1/2 63/1/2 81/1/2
f 63/2/2 73/2/2 81/2/2
f 74/1/2 65/1/2 82/1/2
f 81/2/2 74/2/2 82/2/2
f 65/2/2 66/2/2 83/2/2
f 82/1/2 65/1/2 83/1/2
f 66/1/2 67/1/2 84/1/2
f 83/2/2 66/2/2 84/2/2
f 84/1/2 67/1/2 85/1/2
f 80/1/2 81/1/2 86/1/2
f 79/1/2 80/1/2 86/1/2
f 86/1/2 81/1/2 87/1/2
f 86/2/2 87/2/2 88/2/2
f 88/2/2 87/2/2 89/2/2
f 86/2/2 88/2/2 90/2/2
f 88/1/2 89/1/2 90/1/2
f 90/1/2 89/1/2 91/1/2
f 86/2/2 90/2/2 92/2/2
f 90/2/2 91/2/2 92/2/2
f 92/2/2 91/2/2 93/2/2
f 96/1/3 95/1/3 94/1/3
f 97/1/3 95/1/3 96/1/3
f 98/1/3 96/1/3 94/1/3
f 99/2/3 97/2/3 96/2/3
f 99/1/3 96/1/3 98/1/3
f 100/2/3 97/2/3 99/2/3
f 110/2/3 102/2/3 101/2/3
f 110/1/3 103/1/3 102/1/3
f 111/2/3 104/2/3 103/2/3
f 111/1/3 103/1/3 110/1/3
f 112/2/3 104/2/3 111/2/3
f 113/1/3 106/1/3 105/1/3
f 114/1/3 108/1/3 107/1/3
f 114/2/3 107/2/3 106/2/3
f 115/2/3 109/2/3 108/2/3
f 115/1/3 108/1/3 114/1/3
f 116/2/3 110/2/3 101/2/3
f 116/2/3 111/2/3 110/2/3
f 117/1/3 112/1/3 111/1/3
f 117/2/3 111/2/3 116/2/3
f 118/1/3 112/1/3 117/1/3
f 119/1/3 106/1/3 113/1/3
f 120/2/3 114/2/3 106/2/3
f 120/1/3 106/1/3 119/1/3
f 120/2/3 115/2/3 114/2/3
f 121/2/3 109/2/3 115/2/3
f 121/2/3 115/2/3 120/2/3
f 122/1/4 123/1/4 131/1/4
f 131/1/4 123/1/4 132/1/4
f 126/2/4 127/2/4 133/2/4
f 127/1/4 128/1/4 134/1/4
f 133/2/4 127/2/4 134/2/4
f 128/2/4 129/2/4 135/2/4
f 134/1/4 128/1/4 135/1/4
f 129/1/4 130/1/4 136/1/4
f 135/2/4 129/2/4 136/2/4
f 136/1/4 130/1/4 137/1/4
f 131/2/4 132/2/4 138/2/4
f 132/1/4 123/1/4 139/1/4
f 138/2/4 132/2/4 139/2/4
f 123/2/4 124/2/4 140/2/4
f 139/1/4 123/1/4 140/1/4
f 124/1/4 125/1/4 141/1/4
f 140/2/4 124/2/4 141/2/4
f 141/1/4 125/1/4 142/1/4
f 133/1/4 134/1/4 143/1/4
f 134/2/4 135/2/4 144/2/4
f 143/1/4 134/1/4 144/1/4
f 135/1/4 136/1/4 145/1/4
f 144/2/4 135/2/4 145/2/4
f 136/2/4 137/2/4 146/2/4
f 145/1/4 136/1/4 146/1/4
f 146/2/4 137/2/4 147/2/4
f 148/1/4 149/1/4 150/1/4
f 150/1/4 149/1/4 151/1/4
f 154/2/5 153/2/5 152/2/5
f 155/2/5 153/2/5 154/2/5
f 156/1/5 155/1/5 154/1/5
f 157/2/5 153/2/5 155/2/5
f 157/1/5 155/1/5 156/1/5
f 158/2/5 153/2/5 157/2/5
f 161/1/5 160/1/5 159/1/5
f 162/1/5 160/1/5 161/1/5
f 163/2/5 162/2/5 161/2/5
f 164/2/5 162/2/5 163/2/5
f 165/1/5 164/1/5 163/1/5
f 166/1/5 164/1/5 165/1/5
f 167/1/5 164/1/5 166/1/5
f 170/2/5 169/2/5 168/2/5
f 171/2/5 169/2/5 170/2/5
f 172/2/5 170/2/5 168/2/5
f 173/1/5 171/1/5 170/1/5
f 173/2/5 170/2/5 172/2/5
f 174/1/5 171/1/5 173/1/5
f 175/1/5 173/1/5 172/1/5
f 175/2/5 174/2/5 173/2/5
f 176/2/5 174/2/5 175/2/5
f 177/1/5 175/1/5 172/1/5
f 177/1/5 176/1/5 175/1/5
f 178/1/5 176/1/5 177/1/5
f 179/1/6 180/1/6 182/1/6
f 180/2/6 181/2/6 182/2/6
f 182/2/6 181/2/6 183/2/6
f 179/1/6 182/1/6 184/1/6
f 182/1/6 183/1/6 184/1/6
f 184/1/6 183/1/6 185/1/6
f 184/2/6 185/2/6 186/2/6
f 186/2/6 185/2/6 187/2/6
f 186/1/6 187/1/6 188/1/6
f 188/1/6 187/1/6 189/1/6
f 188/2/6 189/2/6 190/2/6
f 189/1/6 187/1/6 191/1/6
f 190/2/6 189/2/6 191/2/6
f 191/1/6 187/1/6 192/1/6
f 193/1/6 194/1/6 196/1/6
f 194/2/6 195/2/6 197/2/6
f 196/1/6 194/1/6 197/1/6
f 197/2/6 195/2/6 198/2/6
f 196/2/6 197/2/6 199/2/6
f 197/1/6 198/1/6 199/1/6
f 199/1/6 198/1/6 200/1/6
f 196/2/6 199/2/6 201/2/6
f 199/2/6 200/2/6 201/2/6
f 201/2/6 200/2/6 202/2/6
f 201/1/6 202/1/6 203/1/6
f 203/1/6 202/1/6 204/1/6
f 205/2/6 206/2/6 207/2/6
f 207/2/6 206/2/6 208/2/6
f 207/1/6 208/1/6 209/1/6
f 208/2/6 206/2/6 210/2/6
f 209/1/6 208/1/6 210/1/6
f 210/2/6 206/2/6 211/2/6
