# MagicaVoxel @ Ephtracy

# group
o 

# material
mtllib SmithingHouse2WallTEX.mtl
usemtl palette

# normals
vn -1 0 0
vn 1 0 0
vn 0 0 1
vn 0 0 -1
vn 0 -1 0
vn 0 1 0

# texcoords
vt 0.943359 0.5
vt 0.947266 0.5
vt 0.958984 0.5
vt 0.974609 0.5
vt 0.978516 0.5
vt 0.982422 0.5

# verts
v 0 3.5 -0.1
v 0 3.5 -0.2
v 0 3.5 -0.5
v 0 3.5 -0.7
v 0 3.5 -1
v 0 3.5 -1.1
v 0 3.5 -1.3
v 0 3.5 -1.5
v 0 3.5 -1.7
v 0 3.6 -0.2
v 0 3.6 -0.4
v 0 3.6 -0.6
v 0 3.6 -0.7
v 0 3.6 -0.9
v 0 3.6 -1.1
v 0 3.6 -1.2
v 0 3.6 -1.5
v 0 3.6 -1.7
v 0 3.7 -0.1
v 0 3.7 -0.4
v 0 3.7 -0.5
v 0 3.7 -0.6
v 0 3.7 -0.7
v 0 3.7 -0.9
v 0 3.7 -1
v 0 3.7 -1.2
v 0 3.7 -1.3
v 0 3.7 -1.7
v 0.1 2 -0.1
v 0.1 2 -0.3
v 0.1 2 -0.5
v 0.1 2 -0.7
v 0.1 2 -0.8
v 0.1 2 -1
v 0.1 2 -1.1
v 0.1 2 -1.2
v 0.1 2 -1.4
v 0.1 2 -1.6
v 0.1 2 -1.7
v 0.1 2.1 -0.1
v 0.1 2.1 -0.2
v 0.1 2.1 -0.3
v 0.1 2.1 -0.4
v 0.1 2.1 -0.5
v 0.1 2.1 -0.7
v 0.1 2.1 -0.8
v 0.1 2.1 -1
v 0.1 2.1 -1.1
v 0.1 2.1 -1.2
v 0.1 2.1 -1.4
v 0.1 2.1 -1.5
v 0.1 2.1 -1.6
v 0.1 2.2 -0.1
v 0.1 2.2 -0.2
v 0.1 2.2 -0.3
v 0.1 2.2 -0.4
v 0.1 2.2 -0.7
v 0.1 2.2 -0.8
v 0.1 2.2 -0.9
v 0.1 2.2 -1
v 0.1 2.2 -1.1
v 0.1 2.2 -1.2
v 0.1 2.2 -1.3
v 0.1 2.2 -1.4
v 0.1 2.2 -1.5
v 0.1 2.2 -1.6
v 0.1 2.3 0
v 0.1 2.3 -0.1
v 0.1 2.3 -0.2
v 0.1 2.3 -0.3
v 0.1 2.3 -0.7
v 0.1 2.3 -0.8
v 0.1 2.3 -1
v 0.1 2.3 -1.1
v 0.1 2.3 -1.3
v 0.1 2.3 -1.4
v 0.1 2.3 -1.5
v 0.1 2.3 -1.6
v 0.1 2.3 -1.7
v 0.1 2.3 -1.8
v 0.1 2.4 -0.1
v 0.1 2.4 -0.2
v 0.1 2.4 -0.4
v 0.1 2.4 -0.5
v 0.1 2.4 -0.6
v 0.1 2.4 -0.7
v 0.1 2.4 -0.9
v 0.1 2.4 -1
v 0.1 2.4 -1.1
v 0.1 2.4 -1.2
v 0.1 2.4 -1.4
v 0.1 2.4 -1.5
v 0.1 2.4 -1.6
v 0.1 2.4 -1.7
v 0.1 2.5 -0.1
v 0.1 2.5 -0.2
v 0.1 2.5 -0.3
v 0.1 2.5 -0.4
v 0.1 2.5 -0.5
v 0.1 2.5 -0.6
v 0.1 2.5 -0.8
v 0.1 2.5 -0.9
v 0.1 2.5 -1.1
v 0.1 2.5 -1.2
v 0.1 2.5 -1.3
v 0.1 2.5 -1.4
v 0.1 2.6 -0.1
v 0.1 2.6 -0.2
v 0.1 2.6 -0.3
v 0.1 2.6 -0.4
v 0.1 2.6 -0.6
v 0.1 2.6 -0.8
v 0.1 2.6 -0.9
v 0.1 2.6 -1.1
v 0.1 2.6 -1.3
v 0.1 2.6 -1.5
v 0.1 2.6 -1.7
v 0.1 2.6 -1.8
v 0.1 2.7 -0.1
v 0.1 2.7 -0.3
v 0.1 2.7 -0.5
v 0.1 2.7 -0.6
v 0.1 2.7 -0.8
v 0.1 2.7 -0.9
v 0.1 2.7 -1.3
v 0.1 2.7 -1.5
v 0.1 2.7 -1.6
v 0.1 2.7 -1.7
v 0.1 2.8 0
v 0.1 2.8 -0.1
v 0.1 2.8 -0.3
v 0.1 2.8 -0.5
v 0.1 2.8 -0.8
v 0.1 2.8 -1
v 0.1 2.8 -1.1
v 0.1 2.8 -1.2
v 0.1 2.8 -1.5
v 0.1 2.8 -1.6
v 0.1 2.8 -1.8
v 0.1 2.9 -0.1
v 0.1 2.9 -0.2
v 0.1 2.9 -0.3
v 0.1 2.9 -0.8
v 0.1 2.9 -1
v 0.1 2.9 -1.1
v 0.1 2.9 -1.2
v 0.1 2.9 -1.3
v 0.1 2.9 -1.5
v 0.1 2.9 -1.7
v 0.1 3 0
v 0.1 3 -0.1
v 0.1 3 -0.2
v 0.1 3 -0.4
v 0.1 3 -0.5
v 0.1 3 -0.7
v 0.1 3 -0.8
v 0.1 3 -0.9
v 0.1 3 -1
v 0.1 3 -1.2
v 0.1 3 -1.3
v 0.1 3 -1.5
v 0.1 3 -1.7
v 0.1 3.1 0
v 0.1 3.1 -0.1
v 0.1 3.1 -0.2
v 0.1 3.1 -0.4
v 0.1 3.1 -0.6
v 0.1 3.1 -0.7
v 0.1 3.1 -0.8
v 0.1 3.1 -0.9
v 0.1 3.1 -1
v 0.1 3.1 -1.3
v 0.1 3.1 -1.5
v 0.1 3.1 -1.7
v 0.1 3.1 -1.8
v 0.1 3.2 -0.1
v 0.1 3.2 -0.2
v 0.1 3.2 -0.5
v 0.1 3.2 -0.6
v 0.1 3.2 -0.7
v 0.1 3.2 -1
v 0.1 3.2 -1.5
v 0.1 3.2 -1.6
v 0.1 3.2 -1.7
v 0.1 3.3 0
v 0.1 3.3 -0.1
v 0.1 3.3 -0.2
v 0.1 3.3 -0.4
v 0.1 3.3 -0.6
v 0.1 3.3 -1
v 0.1 3.3 -1.1
v 0.1 3.3 -1.4
v 0.1 3.3 -1.5
v 0.1 3.3 -1.6
v 0.1 3.4 -0.1
v 0.1 3.4 -0.2
v 0.1 3.4 -0.3
v 0.1 3.4 -0.4
v 0.1 3.4 -0.5
v 0.1 3.4 -0.6
v 0.1 3.4 -0.7
v 0.1 3.4 -0.9
v 0.1 3.4 -1
v 0.1 3.4 -1.1
v 0.1 3.4 -1.2
v 0.1 3.4 -1.4
v 0.1 3.4 -1.5
v 0.1 3.4 -1.6
v 0.1 3.4 -1.7
v 0.1 3.5 0
v 0.1 3.5 -0.1
v 0.1 3.5 -0.2
v 0.1 3.5 -0.3
v 0.1 3.5 -0.4
v 0.1 3.5 -0.5
v 0.1 3.5 -0.7
v 0.1 3.5 -0.9
v 0.1 3.5 -1
v 0.1 3.5 -1.1
v 0.1 3.5 -1.2
v 0.1 3.5 -1.3
v 0.1 3.5 -1.4
v 0.1 3.5 -1.5
v 0.1 3.5 -1.7
v 0.1 3.5 -1.8
v 0.2 2.3 0
v 0.2 2.3 -0.1
v 0.2 2.3 -0.2
v 0.2 2.3 -0.3
v 0.2 2.3 -0.4
v 0.2 2.3 -0.5
v 0.2 2.3 -0.6
v 0.2 2.3 -0.7
v 0.2 2.3 -0.8
v 0.2 2.3 -0.9
v 0.2 2.3 -1
v 0.2 2.3 -1.1
v 0.2 2.3 -1.2
v 0.2 2.3 -1.4
v 0.2 2.3 -1.5
v 0.2 2.3 -1.6
v 0.2 2.3 -1.7
v 0.2 2.3 -1.8
v 0.2 2.4 -0.1
v 0.2 2.4 -0.2
v 0.2 2.4 -0.4
v 0.2 2.4 -0.5
v 0.2 2.4 -0.6
v 0.2 2.4 -0.7
v 0.2 2.4 -0.9
v 0.2 2.4 -1
v 0.2 2.4 -1.1
v 0.2 2.4 -1.2
v 0.2 2.4 -1.4
v 0.2 2.4 -1.5
v 0.2 2.4 -1.6
v 0.2 2.4 -1.7
v 0.2 2.5 -0.1
v 0.2 2.5 -0.2
v 0.2 2.5 -0.3
v 0.2 2.5 -0.4
v 0.2 2.5 -0.5
v 0.2 2.5 -0.6
v 0.2 2.5 -0.8
v 0.2 2.5 -0.9
v 0.2 2.5 -1.1
v 0.2 2.5 -1.2
v 0.2 2.5 -1.3
v 0.2 2.5 -1.4
v 0.2 2.6 -0.1
v 0.2 2.6 -0.2
v 0.2 2.6 -0.3
v 0.2 2.6 -0.4
v 0.2 2.6 -0.6
v 0.2 2.6 -0.8
v 0.2 2.6 -0.9
v 0.2 2.6 -1.1
v 0.2 2.6 -1.3
v 0.2 2.6 -1.5
v 0.2 2.6 -1.7
v 0.2 2.6 -1.8
v 0.2 2.7 -0.1
v 0.2 2.7 -0.3
v 0.2 2.7 -0.5
v 0.2 2.7 -0.6
v 0.2 2.7 -0.8
v 0.2 2.7 -0.9
v 0.2 2.7 -1.3
v 0.2 2.7 -1.5
v 0.2 2.7 -1.6
v 0.2 2.7 -1.7
v 0.2 2.8 0
v 0.2 2.8 -0.1
v 0.2 2.8 -0.3
v 0.2 2.8 -0.5
v 0.2 2.8 -0.8
v 0.2 2.8 -1
v 0.2 2.8 -1.1
v 0.2 2.8 -1.2
v 0.2 2.8 -1.5
v 0.2 2.8 -1.6
v 0.2 2.8 -1.8
v 0.2 2.9 -0.1
v 0.2 2.9 -0.2
v 0.2 2.9 -0.3
v 0.2 2.9 -0.8
v 0.2 2.9 -1
v 0.2 2.9 -1.1
v 0.2 2.9 -1.2
v 0.2 2.9 -1.3
v 0.2 2.9 -1.5
v 0.2 2.9 -1.7
v 0.2 3 0
v 0.2 3 -0.1
v 0.2 3 -0.2
v 0.2 3 -0.4
v 0.2 3 -0.5
v 0.2 3 -0.7
v 0.2 3 -0.8
v 0.2 3 -0.9
v 0.2 3 -1
v 0.2 3 -1.2
v 0.2 3 -1.3
v 0.2 3 -1.5
v 0.2 3 -1.7
v 0.2 3.1 0
v 0.2 3.1 -0.1
v 0.2 3.1 -0.2
v 0.2 3.1 -0.4
v 0.2 3.1 -0.6
v 0.2 3.1 -0.7
v 0.2 3.1 -0.8
v 0.2 3.1 -0.9
v 0.2 3.1 -1
v 0.2 3.1 -1.3
v 0.2 3.1 -1.5
v 0.2 3.1 -1.7
v 0.2 3.1 -1.8
v 0.2 3.2 -0.1
v 0.2 3.2 -0.2
v 0.2 3.2 -0.5
v 0.2 3.2 -0.6
v 0.2 3.2 -0.7
v 0.2 3.2 -1
v 0.2 3.2 -1.5
v 0.2 3.2 -1.6
v 0.2 3.2 -1.7
v 0.2 3.3 0
v 0.2 3.3 -0.1
v 0.2 3.3 -0.2
v 0.2 3.3 -0.4
v 0.2 3.3 -0.6
v 0.2 3.3 -1
v 0.2 3.3 -1.1
v 0.2 3.3 -1.4
v 0.2 3.3 -1.5
v 0.2 3.3 -1.6
v 0.2 3.4 -0.1
v 0.2 3.4 -0.2
v 0.2 3.4 -0.3
v 0.2 3.4 -0.4
v 0.2 3.4 -0.5
v 0.2 3.4 -0.6
v 0.2 3.4 -0.7
v 0.2 3.4 -0.9
v 0.2 3.4 -1
v 0.2 3.4 -1.1
v 0.2 3.4 -1.2
v 0.2 3.4 -1.4
v 0.2 3.4 -1.5
v 0.2 3.4 -1.6
v 0.2 3.4 -1.7
v 0.2 3.5 0
v 0.2 3.5 -0.1
v 0.2 3.5 -0.2
v 0.2 3.5 -0.3
v 0.2 3.5 -0.4
v 0.2 3.5 -0.5
v 0.2 3.5 -0.7
v 0.2 3.5 -0.8
v 0.2 3.5 -0.9
v 0.2 3.5 -1
v 0.2 3.5 -1.1
v 0.2 3.5 -1.2
v 0.2 3.5 -1.3
v 0.2 3.5 -1.4
v 0.2 3.5 -1.5
v 0.2 3.5 -1.7
v 0.2 3.5 -1.8
v 0.3 2 -0.1
v 0.3 2 -0.3
v 0.3 2 -0.5
v 0.3 2 -0.8
v 0.3 2 -1
v 0.3 2 -1.2
v 0.3 2 -1.3
v 0.3 2 -1.6
v 0.3 2 -1.7
v 0.3 2.1 -0.3
v 0.3 2.1 -0.4
v 0.3 2.1 -0.8
v 0.3 2.1 -1
v 0.3 2.1 -1.2
v 0.3 2.1 -1.3
v 0.3 2.1 -1.4
v 0.3 2.1 -1.5
v 0.3 2.2 -0.2
v 0.3 2.2 -0.3
v 0.3 2.2 -0.6
v 0.3 2.2 -0.8
v 0.3 2.2 -0.9
v 0.3 2.2 -1
v 0.3 2.2 -1.2
v 0.3 2.2 -1.4
v 0.3 2.3 -0.1
v 0.3 2.3 -0.2
v 0.3 2.3 -0.3
v 0.3 2.3 -0.4
v 0.3 2.3 -0.5
v 0.3 2.3 -0.6
v 0.3 2.3 -0.8
v 0.3 2.3 -0.9
v 0.3 2.3 -1
v 0.3 2.3 -1.2
v 0.3 2.3 -1.5
v 0.3 2.3 -1.6
v 0.3 2.3 -1.7
v 0.3 3.5 -0.1
v 0.3 3.5 -0.2
v 0.3 3.5 -0.3
v 0.3 3.5 -0.5
v 0.3 3.5 -0.8
v 0.3 3.5 -1
v 0.3 3.5 -1.1
v 0.3 3.5 -1.3
v 0.3 3.5 -1.5
v 0.3 3.5 -1.7
v 0.3 3.6 -0.2
v 0.3 3.6 -0.3
v 0.3 3.6 -0.5
v 0.3 3.6 -0.7
v 0.3 3.6 -0.8
v 0.3 3.6 -0.9
v 0.3 3.6 -1.1
v 0.3 3.6 -1.2
v 0.3 3.6 -1.3
v 0.3 3.6 -1.5
v 0.3 3.6 -1.6
v 0.3 3.7 -0.1
v 0.3 3.7 -0.7
v 0.3 3.7 -0.9
v 0.3 3.7 -1
v 0.3 3.7 -1.2
v 0.3 3.7 -1.5
v 0.3 3.7 -1.6
v 0.3 3.7 -1.7
v 0.1 2.3 0
v 0.1 2.8 0
v 0.1 3 0
v 0.1 3.1 0
v 0.1 3.3 0
v 0.1 3.5 0
v 0.2 2.3 0
v 0.2 2.8 0
v 0.2 3 0
v 0.2 3.1 0
v 0.2 3.3 0
v 0.2 3.5 0
v 0 3.5 -0.1
v 0 3.7 -0.1
v 0.1 2 -0.1
v 0.1 2.1 -0.1
v 0.1 2.2 -0.1
v 0.1 2.3 -0.1
v 0.1 3.5 -0.1
v 0.2 2 -0.1
v 0.2 2.1 -0.1
v 0.2 2.2 -0.1
v 0.2 2.3 -0.1
v 0.2 3.5 -0.1
v 0.3 2 -0.1
v 0.3 2.3 -0.1
v 0.3 3.5 -0.1
v 0.3 3.7 -0.1
v 0 3.5 -1.7
v 0 3.6 -1.7
v 0 3.7 -1.7
v 0.1 2 -1.7
v 0.1 2.3 -1.7
v 0.1 3.5 -1.7
v 0.1 3.6 -1.7
v 0.1 3.7 -1.7
v 0.2 2 -1.7
v 0.2 2.3 -1.7
v 0.2 3.5 -1.7
v 0.2 3.6 -1.7
v 0.2 3.7 -1.7
v 0.3 2 -1.7
v 0.3 2.3 -1.7
v 0.3 3.5 -1.7
v 0.3 3.7 -1.7
v 0.1 2.3 -1.8
v 0.1 2.6 -1.8
v 0.1 2.8 -1.8
v 0.1 3.1 -1.8
v 0.1 3.5 -1.8
v 0.2 2.3 -1.8
v 0.2 2.6 -1.8
v 0.2 2.8 -1.8
v 0.2 3.1 -1.8
v 0.2 3.5 -1.8
v 0.1 2 -0.1
v 0.2 2 -0.1
v 0.3 2 -0.1
v 0.1 2 -0.3
v 0.2 2 -0.3
v 0.3 2 -0.3
v 0.1 2 -0.5
v 0.2 2 -0.5
v 0.3 2 -0.5
v 0.1 2 -0.7
v 0.2 2 -0.7
v 0.1 2 -0.8
v 0.2 2 -0.8
v 0.3 2 -0.8
v 0.1 2 -1
v 0.2 2 -1
v 0.3 2 -1
v 0.1 2 -1.1
v 0.2 2 -1.1
v 0.1 2 -1.2
v 0.2 2 -1.2
v 0.3 2 -1.2
v 0.2 2 -1.3
v 0.3 2 -1.3
v 0.1 2 -1.4
v 0.2 2 -1.4
v 0.1 2 -1.6
v 0.2 2 -1.6
v 0.3 2 -1.6
v 0.1 2 -1.7
v 0.2 2 -1.7
v 0.3 2 -1.7
v 0.1 2.3 0
v 0.2 2.3 0
v 0.1 2.3 -0.1
v 0.2 2.3 -0.1
v 0.1 2.3 -1.7
v 0.2 2.3 -1.7
v 0.1 2.3 -1.8
v 0.2 2.3 -1.8
v 0 3.5 -0.1
v 0.1 3.5 -0.1
v 0.2 3.5 -0.1
v 0.3 3.5 -0.1
v 0 3.5 -0.2
v 0.1 3.5 -0.2
v 0.2 3.5 -0.2
v 0.3 3.5 -0.2
v 0.1 3.5 -0.3
v 0.2 3.5 -0.3
v 0.3 3.5 -0.3
v 0.1 3.5 -0.4
v 0.2 3.5 -0.4
v 0 3.5 -0.5
v 0.1 3.5 -0.5
v 0.2 3.5 -0.5
v 0.3 3.5 -0.5
v 0 3.5 -0.7
v 0.1 3.5 -0.7
v 0.2 3.5 -0.7
v 0.2 3.5 -0.8
v 0.3 3.5 -0.8
v 0.1 3.5 -0.9
v 0.2 3.5 -0.9
v 0 3.5 -1
v 0.1 3.5 -1
v 0.2 3.5 -1
v 0.3 3.5 -1
v 0 3.5 -1.1
v 0.1 3.5 -1.1
v 0.2 3.5 -1.1
v 0.3 3.5 -1.1
v 0.1 3.5 -1.2
v 0.2 3.5 -1.2
v 0 3.5 -1.3
v 0.1 3.5 -1.3
v 0.2 3.5 -1.3
v 0.3 3.5 -1.3
v 0.1 3.5 -1.4
v 0.2 3.5 -1.4
v 0 3.5 -1.5
v 0.1 3.5 -1.5
v 0.2 3.5 -1.5
v 0.3 3.5 -1.5
v 0 3.5 -1.7
v 0.1 3.5 -1.7
v 0.2 3.5 -1.7
v 0.3 3.5 -1.7
v 0.2 2.3 -0.1
v 0.3 2.3 -0.1
v 0.2 2.3 -0.2
v 0.3 2.3 -0.2
v 0.2 2.3 -0.3
v 0.3 2.3 -0.3
v 0.2 2.3 -0.4
v 0.3 2.3 -0.4
v 0.2 2.3 -0.5
v 0.3 2.3 -0.5
v 0.2 2.3 -0.6
v 0.3 2.3 -0.6
v 0.2 2.3 -0.7
v 0.2 2.3 -0.8
v 0.3 2.3 -0.8
v 0.2 2.3 -0.9
v 0.3 2.3 -0.9
v 0.2 2.3 -1
v 0.3 2.3 -1
v 0.2 2.3 -1.1
v 0.2 2.3 -1.2
v 0.3 2.3 -1.2
v 0.2 2.3 -1.4
v 0.2 2.3 -1.5
v 0.3 2.3 -1.5
v 0.2 2.3 -1.6
v 0.3 2.3 -1.6
v 0.2 2.3 -1.7
v 0.3 2.3 -1.7
v 0.1 3.5 0
v 0.2 3.5 0
v 0.1 3.5 -0.1
v 0.2 3.5 -0.1
v 0.1 3.5 -1.7
v 0.2 3.5 -1.7
v 0.1 3.5 -1.8
v 0.2 3.5 -1.8
v 0 3.7 -0.1
v 0.3 3.7 -0.1
v 0.1 3.7 -0.2
v 0.2 3.7 -0.2
v 0 3.7 -0.4
v 0.1 3.7 -0.4
v 0 3.7 -0.5
v 0.1 3.7 -0.5
v 0 3.7 -0.6
v 0.1 3.7 -0.6
v 0 3.7 -0.7
v 0.2 3.7 -0.7
v 0.3 3.7 -0.7
v 0.1 3.7 -0.8
v 0.2 3.7 -0.8
v 0 3.7 -0.9
v 0.1 3.7 -0.9
v 0.2 3.7 -0.9
v 0.3 3.7 -0.9
v 0 3.7 -1
v 0.1 3.7 -1
v 0.2 3.7 -1
v 0.3 3.7 -1
v 0 3.7 -1.2
v 0.1 3.7 -1.2
v 0.3 3.7 -1.2
v 0 3.7 -1.3
v 0.1 3.7 -1.3
v 0.2 3.7 -1.3
v 0.2 3.7 -1.5
v 0.3 3.7 -1.5
v 0.2 3.7 -1.6
v 0.3 3.7 -1.6
v 0 3.7 -1.7
v 0.1 3.7 -1.7
v 0.2 3.7 -1.7
v 0.3 3.7 -1.7

# faces
f 10/3/1 2/3/1 1/3/1
f 10/6/1 3/6/1 2/6/1
f 11/6/1 3/6/1 10/6/1
f 12/3/1 4/3/1 3/3/1
f 13/6/1 5/6/1 4/6/1
f 13/3/1 4/3/1 12/3/1
f 14/6/1 5/6/1 13/6/1
f 15/3/1 6/3/1 5/3/1
f 15/6/1 7/6/1 6/6/1
f 16/6/1 7/6/1 15/6/1
f 17/6/1 9/6/1 8/6/1
f 17/3/1 8/3/1 7/3/1
f 18/6/1 9/6/1 17/6/1
f 19/3/1 10/3/1 1/3/1
f 19/3/1 11/3/1 10/3/1
f 20/6/1 3/6/1 11/6/1
f 20/3/1 11/3/1 19/3/1
f 21/3/1 12/3/1 3/3/1
f 21/6/1 3/6/1 20/6/1
f 22/6/1 13/6/1 12/6/1
f 22/3/1 12/3/1 21/3/1
f 23/3/1 14/3/1 13/3/1
f 23/6/1 13/6/1 22/6/1
f 24/6/1 5/6/1 14/6/1
f 24/3/1 14/3/1 23/3/1
f 25/3/1 16/3/1 15/3/1
f 25/6/1 5/6/1 24/6/1
f 25/3/1 15/3/1 5/3/1
f 26/6/1 7/6/1 16/6/1
f 26/3/1 16/3/1 25/3/1
f 27/3/1 18/3/1 17/3/1
f 27/6/1 7/6/1 26/6/1
f 27/3/1 17/3/1 7/3/1
f 28/3/1 18/3/1 27/3/1
f 40/1/1 30/1/1 29/1/1
f 41/1/1 30/1/1 40/1/1
f 42/5/1 31/5/1 30/5/1
f 42/1/1 30/1/1 41/1/1
f 43/5/1 31/5/1 42/5/1
f 44/1/1 32/1/1 31/1/1
f 44/5/1 31/5/1 43/5/1
f 45/4/1 33/4/1 32/4/1
f 45/1/1 32/1/1 44/1/1
f 46/1/1 34/1/1 33/1/1
f 46/4/1 33/4/1 45/4/1
f 47/2/1 35/2/1 34/2/1
f 47/1/1 34/1/1 46/1/1
f 48/4/1 36/4/1 35/4/1
f 48/2/1 35/2/1 47/2/1
f 49/1/1 37/1/1 36/1/1
f 49/4/1 36/4/1 48/4/1
f 50/5/1 38/5/1 37/5/1
f 50/1/1 37/1/1 49/1/1
f 51/5/1 38/5/1 50/5/1
f 52/1/1 39/1/1 38/1/1
f 52/5/1 38/5/1 51/5/1
f 53/4/1 41/4/1 40/4/1
f 54/5/1 43/5/1 42/5/1
f 54/4/1 41/4/1 53/4/1
f 54/5/1 42/5/1 41/5/1
f 55/5/1 43/5/1 54/5/1
f 56/2/1 44/2/1 43/2/1
f 56/5/1 43/5/1 55/5/1
f 56/2/1 45/2/1 44/2/1
f 57/4/1 46/4/1 45/4/1
f 57/2/1 45/2/1 56/2/1
f 57/4/1 47/4/1 46/4/1
f 57/4/1 50/4/1 49/4/1
f 57/4/1 48/4/1 47/4/1
f 57/4/1 49/4/1 48/4/1
f 58/4/1 50/4/1 57/4/1
f 59/4/1 50/4/1 58/4/1
f 60/4/1 50/4/1 59/4/1
f 61/4/1 50/4/1 60/4/1
f 62/4/1 50/4/1 61/4/1
f 63/4/1 50/4/1 62/4/1
f 64/2/1 51/2/1 50/2/1
f 64/4/1 50/4/1 63/4/1
f 65/1/1 52/1/1 51/1/1
f 65/2/1 51/2/1 64/2/1
f 66/1/1 39/1/1 52/1/1
f 66/1/1 52/1/1 65/1/1
f 68/1/1 55/1/1 54/1/1
f 68/1/1 54/1/1 53/1/1
f 69/1/1 55/1/1 68/1/1
f 70/2/1 56/2/1 55/2/1
f 70/1/1 55/1/1 69/1/1
f 71/4/1 57/4/1 56/4/1
f 71/4/1 58/4/1 57/4/1
f 72/1/1 59/1/1 58/1/1
f 72/4/1 58/4/1 71/4/1
f 73/4/1 60/4/1 59/4/1
f 73/1/1 61/1/1 60/1/1
f 74/2/1 62/2/1 61/2/1
f 74/1/1 61/1/1 73/1/1
f 75/4/1 63/4/1 62/4/1
f 75/2/1 65/2/1 64/2/1
f 75/2/1 64/2/1 63/2/1
f 76/2/1 65/2/1 75/2/1
f 77/5/1 66/5/1 65/5/1
f 77/2/1 65/2/1 76/2/1
f 78/1/1 39/1/1 66/1/1
f 78/5/1 66/5/1 77/5/1
f 79/1/1 39/1/1 78/1/1
f 81/5/1 69/5/1 68/5/1
f 81/1/1 68/1/1 67/1/1
f 82/2/1 70/2/1 69/2/1
f 82/5/1 69/5/1 81/5/1
f 83/2/1 56/2/1 70/2/1
f 83/2/1 70/2/1 82/2/1
f 83/4/1 71/4/1 56/4/1
f 84/4/1 71/4/1 83/4/1
f 85/4/1 71/4/1 84/4/1
f 86/1/1 72/1/1 71/1/1
f 86/4/1 71/4/1 85/4/1
f 87/1/1 59/1/1 72/1/1
f 87/1/1 72/1/1 86/1/1
f 87/4/1 73/4/1 59/4/1
f 88/5/1 74/5/1 73/5/1
f 88/4/1 73/4/1 87/4/1
f 89/2/1 62/2/1 74/2/1
f 89/5/1 74/5/1 88/5/1
f 90/4/1 76/4/1 75/4/1
f 90/2/1 62/2/1 89/2/1
f 90/4/1 75/4/1 62/4/1
f 91/2/1 77/2/1 76/2/1
f 91/4/1 76/4/1 90/4/1
f 92/1/1 80/1/1 79/1/1
f 92/2/1 77/2/1 91/2/1
f 92/1/1 79/1/1 78/1/1
f 92/1/1 78/1/1 77/1/1
f 93/1/1 80/1/1 92/1/1
f 94/1/1 80/1/1 93/1/1
f 95/1/1 82/1/1 81/1/1
f 95/1/1 81/1/1 67/1/1
f 96/2/1 83/2/1 82/2/1
f 96/1/1 82/1/1 95/1/1
f 97/2/1 83/2/1 96/2/1
f 98/5/1 84/5/1 83/5/1
f 98/2/1 83/2/1 97/2/1
f 99/4/1 85/4/1 84/4/1
f 99/5/1 84/5/1 98/5/1
f 100/2/1 88/2/1 87/2/1
f 100/4/1 85/4/1 99/4/1
f 100/2/1 87/2/1 86/2/1
f 100/2/1 89/2/1 88/2/1
f 100/2/1 86/2/1 85/2/1
f 101/2/1 89/2/1 100/2/1
f 102/2/1 89/2/1 101/2/1
f 103/5/1 90/5/1 89/5/1
f 103/2/1 89/2/1 102/2/1
f 104/2/1 91/2/1 90/2/1
f 104/5/1 90/5/1 103/5/1
f 105/2/1 91/2/1 104/2/1
f 106/1/1 92/1/1 91/1/1
f 106/2/1 91/2/1 105/2/1
f 107/2/1 96/2/1 95/2/1
f 107/1/1 95/1/1 67/1/1
f 108/4/1 97/4/1 96/4/1
f 108/2/1 96/2/1 107/2/1
f 109/5/1 98/5/1 97/5/1
f 109/4/1 97/4/1 108/4/1
f 110/4/1 99/4/1 98/4/1
f 110/5/1 98/5/1 109/5/1
f 110/4/1 100/4/1 99/4/1
f 110/4/1 101/4/1 100/4/1
f 111/4/1 101/4/1 110/4/1
f 112/1/1 102/1/1 101/1/1
f 112/4/1 101/4/1 111/4/1
f 113/4/1 103/4/1 102/4/1
f 113/1/1 102/1/1 112/1/1
f 114/5/1 105/5/1 104/5/1
f 114/4/1 103/4/1 113/4/1
f 114/5/1 104/5/1 103/5/1
f 115/1/1 106/1/1 105/1/1
f 115/5/1 105/5/1 114/5/1
f 116/1/1 92/1/1 106/1/1
f 116/1/1 106/1/1 115/1/1
f 116/4/1 93/4/1 92/4/1
f 117/1/1 80/1/1 94/1/1
f 117/2/1 94/2/1 93/2/1
f 118/1/1 80/1/1 117/1/1
f 119/5/1 109/5/1 108/5/1
f 119/5/1 108/5/1 107/5/1
f 119/1/1 107/1/1 67/1/1
f 120/2/1 111/2/1 110/2/1
f 120/5/1 109/5/1 119/5/1
f 120/2/1 110/2/1 109/2/1
f 121/2/1 111/2/1 120/2/1
f 122/1/1 112/1/1 111/1/1
f 122/2/1 111/2/1 121/2/1
f 123/2/1 113/2/1 112/2/1
f 123/1/1 112/1/1 122/1/1
f 124/4/1 115/4/1 114/4/1
f 124/2/1 113/2/1 123/2/1
f 124/4/1 114/4/1 113/4/1
f 125/2/1 116/2/1 115/2/1
f 125/4/1 115/4/1 124/4/1
f 126/4/1 93/4/1 116/4/1
f 126/2/1 116/2/1 125/2/1
f 127/2/1 117/2/1 93/2/1
f 127/4/1 93/4/1 126/4/1
f 128/5/1 118/5/1 117/5/1
f 128/2/1 117/2/1 127/2/1
f 129/1/1 119/1/1 67/1/1
f 130/4/1 121/4/1 120/4/1
f 130/1/1 119/1/1 129/1/1
f 130/4/1 120/4/1 119/4/1
f 131/4/1 121/4/1 130/4/1
f 132/2/1 123/2/1 122/2/1
f 132/4/1 121/4/1 131/4/1
f 132/2/1 122/2/1 121/2/1
f 133/4/1 126/4/1 125/4/1
f 133/2/1 123/2/1 132/2/1
f 133/4/1 125/4/1 124/4/1
f 133/4/1 127/4/1 126/4/1
f 133/4/1 124/4/1 123/4/1
f 134/4/1 127/4/1 133/4/1
f 135/4/1 127/4/1 134/4/1
f 136/4/1 127/4/1 135/4/1
f 137/4/1 127/4/1 136/4/1
f 138/5/1 128/5/1 127/5/1
f 138/4/1 127/4/1 137/4/1
f 139/5/1 118/5/1 128/5/1
f 139/5/1 128/5/1 138/5/1
f 140/2/1 131/2/1 130/2/1
f 140/5/1 130/5/1 129/5/1
f 141/2/1 131/2/1 140/2/1
f 142/4/1 132/4/1 131/4/1
f 142/2/1 131/2/1 141/2/1
f 142/4/1 133/4/1 132/4/1
f 143/1/1 134/1/1 133/1/1
f 143/4/1 133/4/1 142/4/1
f 144/4/1 135/4/1 134/4/1
f 144/1/1 134/1/1 143/1/1
f 145/5/1 136/5/1 135/5/1
f 145/4/1 135/4/1 144/4/1
f 146/4/1 137/4/1 136/4/1
f 146/5/1 136/5/1 145/5/1
f 147/4/1 137/4/1 146/4/1
f 148/2/1 138/2/1 137/2/1
f 148/4/1 137/4/1 147/4/1
f 148/2/1 139/2/1 138/2/1
f 149/2/1 139/2/1 148/2/1
f 150/5/1 141/5/1 140/5/1
f 150/5/1 140/5/1 129/5/1
f 151/5/1 141/5/1 150/5/1
f 152/4/1 142/4/1 141/4/1
f 152/5/1 141/5/1 151/5/1
f 152/4/1 143/4/1 142/4/1
f 153/4/1 143/4/1 152/4/1
f 154/4/1 143/4/1 153/4/1
f 155/4/1 143/4/1 154/4/1
f 156/2/1 145/2/1 144/2/1
f 156/4/1 143/4/1 155/4/1
f 156/2/1 146/2/1 145/2/1
f 156/2/1 144/2/1 143/2/1
f 157/2/1 146/2/1 156/2/1
f 158/2/1 146/2/1 157/2/1
f 159/4/1 147/4/1 146/4/1
f 159/2/1 146/2/1 158/2/1
f 160/2/1 148/2/1 147/2/1
f 160/4/1 147/4/1 159/4/1
f 161/4/1 149/4/1 148/4/1
f 161/2/1 148/2/1 160/2/1
f 162/2/1 139/2/1 149/2/1
f 162/4/1 149/4/1 161/4/1
f 163/2/1 151/2/1 150/2/1
f 164/4/1 152/4/1 151/4/1
f 164/2/1 151/2/1 163/2/1
f 165/2/1 153/2/1 152/2/1
f 165/4/1 152/4/1 164/4/1
f 166/4/1 154/4/1 153/4/1
f 166/2/1 153/2/1 165/2/1
f 167/1/1 155/1/1 154/1/1
f 168/2/1 156/2/1 155/2/1
f 168/1/1 155/1/1 167/1/1
f 169/4/1 157/4/1 156/4/1
f 169/2/1 156/2/1 168/2/1
f 170/2/1 158/2/1 157/2/1
f 170/4/1 157/4/1 169/4/1
f 171/1/1 160/1/1 159/1/1
f 171/2/1 158/2/1 170/2/1
f 171/1/1 159/1/1 158/1/1
f 172/4/1 161/4/1 160/4/1
f 172/1/1 160/1/1 171/1/1
f 173/1/1 162/1/1 161/1/1
f 173/4/1 161/4/1 172/4/1
f 174/2/1 139/2/1 162/2/1
f 174/1/1 162/1/1 173/1/1
f 175/2/1 139/2/1 174/2/1
f 176/2/1 165/2/1 164/2/1
f 176/5/1 164/5/1 163/5/1
f 177/4/1 166/4/1 165/4/1
f 177/2/1 165/2/1 176/2/1
f 178/4/1 154/4/1 166/4/1
f 178/4/1 166/4/1 177/4/1
f 178/1/1 167/1/1 154/1/1
f 179/2/1 168/2/1 167/2/1
f 179/1/1 167/1/1 178/1/1
f 180/4/1 169/4/1 168/4/1
f 180/2/1 168/2/1 179/2/1
f 180/4/1 171/4/1 170/4/1
f 180/4/1 170/4/1 169/4/1
f 181/2/1 172/2/1 171/2/1
f 181/4/1 171/4/1 180/4/1
f 181/2/1 173/2/1 172/2/1
f 182/4/1 174/4/1 173/4/1
f 182/2/1 173/2/1 181/2/1
f 183/4/1 174/4/1 182/4/1
f 184/1/1 175/1/1 174/1/1
f 184/4/1 174/4/1 183/4/1
f 185/5/1 177/5/1 176/5/1
f 185/5/1 176/5/1 163/5/1
f 186/5/1 177/5/1 185/5/1
f 187/4/1 179/4/1 178/4/1
f 187/5/1 177/5/1 186/5/1
f 187/4/1 180/4/1 179/4/1
f 187/4/1 178/4/1 177/4/1
f 187/4/1 182/4/1 181/4/1
f 187/4/1 181/4/1 180/4/1
f 187/4/1 183/4/1 182/4/1
f 188/4/1 183/4/1 187/4/1
f 189/4/1 183/4/1 188/4/1
f 190/4/1 183/4/1 189/4/1
f 191/4/1 183/4/1 190/4/1
f 192/4/1 183/4/1 191/4/1
f 193/4/1 183/4/1 192/4/1
f 194/5/1 184/5/1 183/5/1
f 194/4/1 183/4/1 193/4/1
f 195/1/1 186/1/1 185/1/1
f 195/2/1 187/2/1 186/2/1
f 196/5/1 188/5/1 187/5/1
f 196/2/1 187/2/1 195/2/1
f 197/5/1 188/5/1 196/5/1
f 198/4/1 189/4/1 188/4/1
f 198/5/1 188/5/1 197/5/1
f 199/4/1 189/4/1 198/4/1
f 200/1/1 190/1/1 189/1/1
f 200/4/1 189/4/1 199/4/1
f 201/1/1 190/1/1 200/1/1
f 202/1/1 190/1/1 201/1/1
f 203/2/1 191/2/1 190/2/1
f 203/1/1 190/1/1 202/1/1
f 204/4/1 192/4/1 191/4/1
f 204/2/1 191/2/1 203/2/1
f 205/4/1 192/4/1 204/4/1
f 206/1/1 193/1/1 192/1/1
f 206/4/1 192/4/1 205/4/1
f 207/2/1 194/2/1 193/2/1
f 207/1/1 193/1/1 206/1/1
f 208/5/1 184/5/1 194/5/1
f 208/2/1 194/2/1 207/2/1
f 209/1/1 175/1/1 184/1/1
f 209/5/1 184/5/1 208/5/1
f 210/1/1 195/1/1 185/1/1
f 210/1/1 197/1/1 196/1/1
f 210/1/1 196/1/1 195/1/1
f 211/1/1 197/1/1 210/1/1
f 212/1/1 197/1/1 211/1/1
f 213/5/1 198/5/1 197/5/1
f 213/1/1 197/1/1 212/1/1
f 214/2/1 199/2/1 198/2/1
f 214/5/1 198/5/1 213/5/1
f 215/1/1 200/1/1 199/1/1
f 215/2/1 199/2/1 214/2/1
f 215/1/1 201/1/1 200/1/1
f 216/4/1 202/4/1 201/4/1
f 216/1/1 201/1/1 215/1/1
f 217/1/1 205/1/1 204/1/1
f 217/4/1 202/4/1 216/4/1
f 217/1/1 203/1/1 202/1/1
f 217/1/1 204/1/1 203/1/1
f 218/1/1 205/1/1 217/1/1
f 219/1/1 205/1/1 218/1/1
f 220/2/1 206/2/1 205/2/1
f 220/1/1 205/1/1 219/1/1
f 221/2/1 206/2/1 220/2/1
f 222/4/1 207/4/1 206/4/1
f 222/2/1 206/2/1 221/2/1
f 223/1/1 208/1/1 207/1/1
f 223/4/1 207/4/1 222/4/1
f 223/1/1 209/1/1 208/1/1
f 224/1/1 175/1/1 209/1/1
f 224/1/1 209/1/1 223/1/1
f 225/1/1 175/1/1 224/1/1
f 226/1/2 227/1/2 244/1/2
f 227/5/2 228/5/2 244/5/2
f 228/2/2 229/2/2 245/2/2
f 244/5/2 228/5/2 245/5/2
f 229/2/2 230/2/2 245/2/2
f 230/4/2 231/4/2 246/4/2
f 245/2/2 230/2/2 246/2/2
f 231/4/2 232/4/2 246/4/2
f 232/4/2 233/4/2 246/4/2
f 246/4/2 233/4/2 247/4/2
f 247/4/2 233/4/2 248/4/2
f 233/1/2 234/1/2 249/1/2
f 248/4/2 233/4/2 249/4/2
f 234/1/2 235/1/2 249/1/2
f 235/4/2 236/4/2 250/4/2
f 249/1/2 235/1/2 250/1/2
f 236/5/2 237/5/2 251/5/2
f 250/4/2 236/4/2 251/4/2
f 237/2/2 238/2/2 252/2/2
f 251/5/2 237/5/2 252/5/2
f 238/4/2 239/4/2 253/4/2
f 252/2/2 238/2/2 253/2/2
f 239/2/2 240/2/2 254/2/2
f 253/4/2 239/4/2 254/4/2
f 242/1/2 243/1/2 255/1/2
f 254/2/2 240/2/2 255/2/2
f 241/1/2 242/1/2 255/1/2
f 240/1/2 241/1/2 255/1/2
f 255/1/2 243/1/2 256/1/2
f 256/1/2 243/1/2 257/1/2
f 226/1/2 244/1/2 258/1/2
f 244/1/2 245/1/2 258/1/2
f 245/2/2 246/2/2 259/2/2
f 258/1/2 245/1/2 259/1/2
f 259/2/2 246/2/2 260/2/2
f 246/5/2 247/5/2 261/5/2
f 260/2/2 246/2/2 261/2/2
f 247/4/2 248/4/2 262/4/2
f 261/5/2 247/5/2 262/5/2
f 250/2/2 251/2/2 263/2/2
f 262/4/2 248/4/2 263/4/2
f 251/2/2 252/2/2 263/2/2
f 248/2/2 249/2/2 263/2/2
f 249/2/2 250/2/2 263/2/2
f 263/2/2 252/2/2 264/2/2
f 264/2/2 252/2/2 265/2/2
f 252/5/2 253/5/2 266/5/2
f 265/2/2 252/2/2 266/2/2
f 253/2/2 254/2/2 267/2/2
f 266/5/2 253/5/2 267/5/2
f 267/2/2 254/2/2 268/2/2
f 254/1/2 255/1/2 269/1/2
f 268/2/2 254/2/2 269/2/2
f 226/1/2 258/1/2 270/1/2
f 258/2/2 259/2/2 270/2/2
f 259/4/2 260/4/2 271/4/2
f 270/2/2 259/2/2 271/2/2
f 260/5/2 261/5/2 272/5/2
f 271/4/2 260/4/2 272/4/2
f 261/4/2 262/4/2 273/4/2
f 272/5/2 261/5/2 273/5/2
f 262/4/2 263/4/2 273/4/2
f 263/4/2 264/4/2 273/4/2
f 273/4/2 264/4/2 274/4/2
f 264/1/2 265/1/2 275/1/2
f 274/4/2 264/4/2 275/4/2
f 265/4/2 266/4/2 276/4/2
f 275/1/2 265/1/2 276/1/2
f 267/5/2 268/5/2 277/5/2
f 276/4/2 266/4/2 277/4/2
f 266/5/2 267/5/2 277/5/2
f 268/1/2 269/1/2 278/1/2
f 277/5/2 268/5/2 278/5/2
f 269/1/2 255/1/2 279/1/2
f 278/1/2 269/1/2 279/1/2
f 255/4/2 256/4/2 279/4/2
f 257/1/2 243/1/2 280/1/2
f 256/2/2 257/2/2 280/2/2
f 280/1/2 243/1/2 281/1/2
f 271/5/2 272/5/2 282/5/2
f 270/5/2 271/5/2 282/5/2
f 226/1/2 270/1/2 282/1/2
f 273/2/2 274/2/2 283/2/2
f 282/5/2 272/5/2 283/5/2
f 272/2/2 273/2/2 283/2/2
f 283/2/2 274/2/2 284/2/2
f 274/1/2 275/1/2 285/1/2
f 284/2/2 274/2/2 285/2/2
f 275/2/2 276/2/2 286/2/2
f 285/1/2 275/1/2 286/1/2
f 277/4/2 278/4/2 287/4/2
f 286/2/2 276/2/2 287/2/2
f 276/4/2 277/4/2 287/4/2
f 278/2/2 279/2/2 288/2/2
f 287/4/2 278/4/2 288/4/2
f 279/4/2 256/4/2 289/4/2
f 288/2/2 279/2/2 289/2/2
f 256/2/2 280/2/2 290/2/2
f 289/4/2 256/4/2 290/4/2
f 280/5/2 281/5/2 291/5/2
f 290/2/2 280/2/2 291/2/2
f 226/1/2 282/1/2 292/1/2
f 283/4/2 284/4/2 293/4/2
f 292/1/2 282/1/2 293/1/2
f 282/4/2 283/4/2 293/4/2
f 293/4/2 284/4/2 294/4/2
f 285/2/2 286/2/2 295/2/2
f 294/4/2 284/4/2 295/4/2
f 284/2/2 285/2/2 295/2/2
f 287/4/2 288/4/2 296/4/2
f 295/2/2 286/2/2 296/2/2
f 286/4/2 287/4/2 296/4/2
f 289/4/2 290/4/2 296/4/2
f 288/4/2 289/4/2 296/4/2
f 296/4/2 290/4/2 297/4/2
f 297/4/2 290/4/2 298/4/2
f 298/4/2 290/4/2 299/4/2
f 299/4/2 290/4/2 300/4/2
f 290/5/2 291/5/2 301/5/2
f 300/4/2 290/4/2 301/4/2
f 291/5/2 281/5/2 302/5/2
f 301/5/2 291/5/2 302/5/2
f 293/2/2 294/2/2 303/2/2
f 292/5/2 293/5/2 303/5/2
f 303/2/2 294/2/2 304/2/2
f 294/4/2 295/4/2 305/4/2
f 304/2/2 294/2/2 305/2/2
f 295/4/2 296/4/2 305/4/2
f 296/1/2 297/1/2 306/1/2
f 305/4/2 296/4/2 306/4/2
f 297/4/2 298/4/2 307/4/2
f 306/1/2 297/1/2 307/1/2
f 298/5/2 299/5/2 308/5/2
f 307/4/2 298/4/2 308/4/2
f 299/4/2 300/4/2 309/4/2
f 308/5/2 299/5/2 309/5/2
f 309/4/2 300/4/2 310/4/2
f 301/2/2 302/2/2 311/2/2
f 310/4/2 300/4/2 311/4/2
f 300/2/2 301/2/2 311/2/2
f 311/2/2 302/2/2 312/2/2
f 303/5/2 304/5/2 313/5/2
f 292/5/2 303/5/2 313/5/2
f 313/5/2 304/5/2 314/5/2
f 304/4/2 305/4/2 315/4/2
f 314/5/2 304/5/2 315/5/2
f 305/4/2 306/4/2 315/4/2
f 315/4/2 306/4/2 316/4/2
f 316/4/2 306/4/2 317/4/2
f 317/4/2 306/4/2 318/4/2
f 308/2/2 309/2/2 319/2/2
f 318/4/2 306/4/2 319/4/2
f 307/2/2 308/2/2 319/2/2
f 306/2/2 307/2/2 319/2/2
f 319/2/2 309/2/2 320/2/2
f 320/2/2 309/2/2 321/2/2
f 309/4/2 310/4/2 322/4/2
f 321/2/2 309/2/2 322/2/2
f 310/2/2 311/2/2 323/2/2
f 322/4/2 310/4/2 323/4/2
f 311/4/2 312/4/2 324/4/2
f 323/2/2 311/2/2 324/2/2
f 312/2/2 302/2/2 325/2/2
f 324/4/2 312/4/2 325/4/2
f 313/2/2 314/2/2 326/2/2
f 314/4/2 315/4/2 327/4/2
f 326/2/2 314/2/2 327/2/2
f 315/2/2 316/2/2 328/2/2
f 327/4/2 315/4/2 328/4/2
f 316/4/2 317/4/2 329/4/2
f 328/2/2 316/2/2 329/2/2
f 317/1/2 318/1/2 330/1/2
f 318/2/2 319/2/2 331/2/2
f 330/1/2 318/1/2 331/1/2
f 319/4/2 320/4/2 332/4/2
f 331/2/2 319/2/2 332/2/2
f 320/2/2 321/2/2 333/2/2
f 332/4/2 320/4/2 333/4/2
f 322/1/2 323/1/2 334/1/2
f 333/2/2 321/2/2 334/2/2
f 321/1/2 322/1/2 334/1/2
f 323/4/2 324/4/2 335/4/2
f 334/1/2 323/1/2 335/1/2
f 324/1/2 325/1/2 336/1/2
f 335/4/2 324/4/2 336/4/2
f 325/2/2 302/2/2 337/2/2
f 336/1/2 325/1/2 337/1/2
f 337/2/2 302/2/2 338/2/2
f 327/2/2 328/2/2 339/2/2
f 326/5/2 327/5/2 339/5/2
f 328/4/2 329/4/2 340/4/2
f 339/2/2 328/2/2 340/2/2
f 329/4/2 317/4/2 341/4/2
f 340/4/2 329/4/2 341/4/2
f 317/1/2 330/1/2 341/1/2
f 330/2/2 331/2/2 342/2/2
f 341/1/2 330/1/2 342/1/2
f 333/4/2 334/4/2 343/4/2
f 342/2/2 331/2/2 343/2/2
f 331/4/2 332/4/2 343/4/2
f 332/4/2 333/4/2 343/4/2
f 334/2/2 335/2/2 344/2/2
f 343/4/2 334/4/2 344/4/2
f 335/2/2 336/2/2 344/2/2
f 336/4/2 337/4/2 345/4/2
f 344/2/2 336/2/2 345/2/2
f 345/4/2 337/4/2 346/4/2
f 337/1/2 338/1/2 347/1/2
f 346/4/2 337/4/2 347/4/2
f 339/5/2 340/5/2 348/5/2
f 326/5/2 339/5/2 348/5/2
f 348/5/2 340/5/2 349/5/2
f 341/4/2 342/4/2 350/4/2
f 349/5/2 340/5/2 350/5/2
f 342/4/2 343/4/2 350/4/2
f 340/4/2 341/4/2 350/4/2
f 344/4/2 345/4/2 350/4/2
f 343/4/2 344/4/2 350/4/2
f 345/4/2 346/4/2 350/4/2
f 350/4/2 346/4/2 351/4/2
f 351/4/2 346/4/2 352/4/2
f 352/4/2 346/4/2 353/4/2
f 353/4/2 346/4/2 354/4/2
f 354/4/2 346/4/2 355/4/2
f 355/4/2 346/4/2 356/4/2
f 346/5/2 347/5/2 357/5/2
f 356/4/2 346/4/2 357/4/2
f 348/1/2 349/1/2 358/1/2
f 349/2/2 350/2/2 358/2/2
f 350/5/2 351/5/2 359/5/2
f 358/2/2 350/2/2 359/2/2
f 359/5/2 351/5/2 360/5/2
f 351/4/2 352/4/2 361/4/2
f 360/5/2 351/5/2 361/5/2
f 361/4/2 352/4/2 362/4/2
f 352/1/2 353/1/2 363/1/2
f 362/4/2 352/4/2 363/4/2
f 363/1/2 353/1/2 364/1/2
f 364/1/2 353/1/2 365/1/2
f 353/2/2 354/2/2 366/2/2
f 365/1/2 353/1/2 366/1/2
f 354/4/2 355/4/2 367/4/2
f 366/2/2 354/2/2 367/2/2
f 367/4/2 355/4/2 368/4/2
f 355/1/2 356/1/2 369/1/2
f 368/4/2 355/4/2 369/4/2
f 356/2/2 357/2/2 370/2/2
f 369/1/2 356/1/2 370/1/2
f 357/5/2 347/5/2 371/5/2
f 370/2/2 357/2/2 371/2/2
f 347/1/2 338/1/2 372/1/2
f 371/5/2 347/5/2 372/5/2
f 348/1/2 358/1/2 373/1/2
f 359/1/2 360/1/2 373/1/2
f 358/1/2 359/1/2 373/1/2
f 373/1/2 360/1/2 374/1/2
f 374/1/2 360/1/2 375/1/2
f 360/5/2 361/5/2 376/5/2
f 375/1/2 360/1/2 376/1/2
f 361/2/2 362/2/2 377/2/2
f 376/5/2 361/5/2 377/5/2
f 362/1/2 363/1/2 378/1/2
f 377/2/2 362/2/2 378/2/2
f 363/1/2 364/1/2 378/1/2
f 364/4/2 365/4/2 379/4/2
f 378/1/2 364/1/2 379/1/2
f 379/4/2 365/4/2 380/4/2
f 367/1/2 368/1/2 381/1/2
f 380/4/2 365/4/2 381/4/2
f 365/1/2 366/1/2 381/1/2
f 366/1/2 367/1/2 381/1/2
f 381/1/2 368/1/2 382/1/2
f 382/1/2 368/1/2 383/1/2
f 368/2/2 369/2/2 384/2/2
f 383/1/2 368/1/2 384/1/2
f 384/2/2 369/2/2 385/2/2
f 369/4/2 370/4/2 386/4/2
f 385/2/2 369/2/2 386/2/2
f 370/1/2 371/1/2 387/1/2
f 386/4/2 370/4/2 387/4/2
f 371/1/2 372/1/2 387/1/2
f 372/1/2 338/1/2 388/1/2
f 387/1/2 372/1/2 388/1/2
f 388/1/2 338/1/2 389/1/2
f 390/3/2 391/3/2 399/3/2
f 391/6/2 392/6/2 399/6/2
f 399/6/2 392/6/2 400/6/2
f 392/3/2 393/3/2 401/3/2
f 393/6/2 394/6/2 401/6/2
f 394/3/2 395/3/2 402/3/2
f 401/6/2 394/6/2 402/6/2
f 395/6/2 396/6/2 403/6/2
f 402/3/2 395/3/2 403/3/2
f 396/3/2 397/3/2 404/3/2
f 403/6/2 396/6/2 404/6/2
f 404/3/2 397/3/2 405/3/2
f 405/3/2 397/3/2 406/3/2
f 399/3/2 400/3/2 407/3/2
f 390/3/2 399/3/2 407/3/2
f 407/3/2 400/3/2 408/3/2
f 402/3/2 403/3/2 409/3/2
f 392/3/2 401/3/2 409/3/2
f 401/3/2 402/3/2 409/3/2
f 403/3/2 404/3/2 409/3/2
f 404/3/2 405/3/2 409/3/2
f 409/3/2 405/3/2 410/3/2
f 410/3/2 405/3/2 411/3/2
f 411/3/2 405/3/2 412/3/2
f 412/3/2 405/3/2 413/3/2
f 405/6/2 406/6/2 414/6/2
f 413/3/2 405/3/2 414/3/2
f 390/3/2 407/3/2 415/3/2
f 407/6/2 408/6/2 416/6/2
f 415/3/2 407/3/2 416/3/2
f 408/3/2 400/3/2 417/3/2
f 416/6/2 408/6/2 417/6/2
f 400/6/2 392/6/2 418/6/2
f 417/3/2 400/3/2 418/3/2
f 392/3/2 409/3/2 419/3/2
f 418/6/2 392/6/2 419/6/2
f 409/6/2 410/6/2 420/6/2
f 419/3/2 409/3/2 420/3/2
f 410/3/2 411/3/2 421/3/2
f 420/6/2 410/6/2 421/6/2
f 411/6/2 412/6/2 422/6/2
f 421/3/2 411/3/2 422/3/2
f 412/3/2 413/3/2 423/3/2
f 422/6/2 412/6/2 423/6/2
f 413/6/2 414/6/2 424/6/2
f 423/3/2 413/3/2 424/3/2
f 406/3/2 397/3/2 425/3/2
f 424/6/2 414/6/2 425/6/2
f 414/6/2 406/6/2 425/6/2
f 397/6/2 398/6/2 426/6/2
f 425/3/2 397/3/2 426/3/2
f 426/6/2 398/6/2 427/6/2
f 428/3/2 429/3/2 438/3/2
f 429/6/2 430/6/2 438/6/2
f 430/3/2 431/3/2 439/3/2
f 438/6/2 430/6/2 439/6/2
f 431/6/2 432/6/2 440/6/2
f 439/3/2 431/3/2 440/3/2
f 440/6/2 432/6/2 441/6/2
f 432/3/2 433/3/2 442/3/2
f 441/6/2 432/6/2 442/6/2
f 442/3/2 433/3/2 443/3/2
f 433/6/2 434/6/2 444/6/2
f 434/3/2 435/3/2 444/3/2
f 444/3/2 435/3/2 445/3/2
f 435/6/2 436/6/2 446/6/2
f 445/3/2 435/3/2 446/3/2
f 436/3/2 437/3/2 447/3/2
f 446/6/2 436/6/2 447/6/2
f 447/3/2 437/3/2 448/3/2
f 428/3/2 438/3/2 449/3/2
f 438/3/2 439/3/2 449/3/2
f 440/3/2 441/3/2 449/3/2
f 439/3/2 440/3/2 449/3/2
f 442/6/2 443/6/2 450/6/2
f 449/3/2 441/3/2 450/3/2
f 441/6/2 442/6/2 450/6/2
f 443/3/2 433/3/2 451/3/2
f 450/6/2 443/6/2 451/6/2
f 444/6/2 445/6/2 452/6/2
f 451/3/2 433/3/2 452/3/2
f 433/6/2 444/6/2 452/6/2
f 445/3/2 446/3/2 453/3/2
f 452/6/2 445/6/2 453/6/2
f 446/3/2 447/3/2 453/3/2
f 447/6/2 448/6/2 454/6/2
f 453/3/2 447/3/2 454/3/2
f 448/3/2 437/3/2 455/3/2
f 454/6/2 448/6/2 455/6/2
f 455/3/2 437/3/2 456/3/2
f 463/1/3 458/1/3 457/1/3
f 464/5/3 459/5/3 458/5/3
f 464/1/3 458/1/3 463/1/3
f 465/2/3 460/2/3 459/2/3
f 465/5/3 459/5/3 464/5/3
f 466/5/3 461/5/3 460/5/3
f 466/2/3 460/2/3 465/2/3
f 467/1/3 462/1/3 461/1/3
f 467/5/3 461/5/3 466/5/3
f 468/1/3 462/1/3 467/1/3
f 475/3/3 470/3/3 469/3/3
f 476/1/3 472/1/3 471/1/3
f 477/4/3 473/4/3 472/4/3
f 477/1/3 472/1/3 476/1/3
f 478/1/3 474/1/3 473/1/3
f 478/4/3 473/4/3 477/4/3
f 479/1/3 474/1/3 478/1/3
f 480/3/3 470/3/3 475/3/3
f 481/3/3 477/3/3 476/3/3
f 481/3/3 479/3/3 478/3/3
f 481/3/3 478/3/3 477/3/3
f 482/3/3 479/3/3 481/3/3
f 483/3/3 470/3/3 480/3/3
f 484/3/3 470/3/3 483/3/3
f 485/6/4 486/6/4 490/6/4
f 486/3/4 487/3/4 491/3/4
f 490/6/4 486/6/4 491/6/4
f 491/3/4 487/3/4 492/3/4
f 488/1/4 489/1/4 493/1/4
f 493/1/4 489/1/4 494/1/4
f 490/3/4 491/3/4 495/3/4
f 491/6/4 492/6/4 496/6/4
f 495/3/4 491/3/4 496/3/4
f 496/6/4 492/6/4 497/6/4
f 493/6/4 494/6/4 498/6/4
f 498/6/4 494/6/4 499/6/4
f 495/3/4 496/3/4 500/3/4
f 496/3/4 497/3/4 500/3/4
f 500/3/4 497/3/4 501/3/4
f 502/1/4 503/1/4 507/1/4
f 503/5/4 504/5/4 508/5/4
f 507/1/4 503/1/4 508/1/4
f 504/2/4 505/2/4 509/2/4
f 508/5/4 504/5/4 509/5/4
f 505/1/4 506/1/4 510/1/4
f 509/2/4 505/2/4 510/2/4
f 510/1/4 506/1/4 511/1/4
f 515/1/5 513/1/5 512/1/5
f 516/3/5 514/3/5 513/3/5
f 516/1/5 513/1/5 515/1/5
f 517/3/5 514/3/5 516/3/5
f 518/5/5 516/5/5 515/5/5
f 519/6/5 517/6/5 516/6/5
f 519/5/5 516/5/5 518/5/5
f 520/6/5 517/6/5 519/6/5
f 521/1/5 519/1/5 518/1/5
f 522/3/5 520/3/5 519/3/5
f 522/1/5 519/1/5 521/1/5
f 523/4/5 522/4/5 521/4/5
f 524/3/5 520/3/5 522/3/5
f 524/4/5 522/4/5 523/4/5
f 525/3/5 520/3/5 524/3/5
f 526/1/5 524/1/5 523/1/5
f 527/6/5 525/6/5 524/6/5
f 527/1/5 524/1/5 526/1/5
f 528/6/5 525/6/5 527/6/5
f 529/2/5 527/2/5 526/2/5
f 530/3/5 528/3/5 527/3/5
f 530/2/5 527/2/5 529/2/5
f 531/4/5 530/4/5 529/4/5
f 532/3/5 528/3/5 530/3/5
f 532/4/5 530/4/5 531/4/5
f 533/3/5 528/3/5 532/3/5
f 534/1/5 532/1/5 531/1/5
f 534/6/5 533/6/5 532/6/5
f 535/6/5 533/6/5 534/6/5
f 536/1/5 534/1/5 531/1/5
f 537/3/5 535/3/5 534/3/5
f 537/1/5 534/1/5 536/1/5
f 538/5/5 537/5/5 536/5/5
f 539/3/5 535/3/5 537/3/5
f 539/5/5 537/5/5 538/5/5
f 540/3/5 535/3/5 539/3/5
f 541/1/5 539/1/5 538/1/5
f 542/6/5 540/6/5 539/6/5
f 542/1/5 539/1/5 541/1/5
f 543/6/5 540/6/5 542/6/5
f 546/1/5 545/1/5 544/1/5
f 547/1/5 545/1/5 546/1/5
f 550/1/5 549/1/5 548/1/5
f 551/1/5 549/1/5 550/1/5
f 556/3/5 553/3/5 552/3/5
f 557/3/5 553/3/5 556/3/5
f 558/3/5 555/3/5 554/3/5
f 559/3/5 555/3/5 558/3/5
f 560/6/5 557/6/5 556/6/5
f 561/6/5 559/6/5 558/6/5
f 562/6/5 559/6/5 561/6/5
f 563/6/5 560/6/5 556/6/5
f 564/3/5 562/3/5 561/3/5
f 565/6/5 563/6/5 556/6/5
f 566/6/5 563/6/5 565/6/5
f 567/3/5 562/3/5 564/3/5
f 568/3/5 562/3/5 567/3/5
f 569/3/5 566/3/5 565/3/5
f 570/3/5 566/3/5 569/3/5
f 571/6/5 568/6/5 567/6/5
f 572/6/5 568/6/5 571/6/5
f 573/6/5 568/6/5 572/6/5
f 574/6/5 570/6/5 569/6/5
f 575/3/5 573/3/5 572/3/5
f 576/6/5 574/6/5 569/6/5
f 577/6/5 574/6/5 576/6/5
f 578/3/5 573/3/5 575/3/5
f 579/3/5 573/3/5 578/3/5
f 580/3/5 577/3/5 576/3/5
f 581/3/5 577/3/5 580/3/5
f 582/6/5 579/6/5 578/6/5
f 583/6/5 579/6/5 582/6/5
f 584/6/5 581/6/5 580/6/5
f 585/3/5 583/3/5 582/3/5
f 586/6/5 584/6/5 580/6/5
f 587/6/5 584/6/5 586/6/5
f 588/3/5 583/3/5 585/3/5
f 589/3/5 583/3/5 588/3/5
f 590/3/5 587/3/5 586/3/5
f 591/6/5 589/6/5 588/6/5
f 592/3/5 590/3/5 586/3/5
f 593/3/5 590/3/5 592/3/5
f 594/6/5 589/6/5 591/6/5
f 595/6/5 589/6/5 594/6/5
f 596/6/5 593/6/5 592/6/5
f 597/6/5 593/6/5 596/6/5
f 598/3/5 595/3/5 594/3/5
f 599/3/5 595/3/5 598/3/5
f 600/3/6 601/3/6 602/3/6
f 602/3/6 601/3/6 603/3/6
f 602/6/6 603/6/6 604/6/6
f 604/6/6 603/6/6 605/6/6
f 604/3/6 605/3/6 606/3/6
f 606/3/6 605/3/6 607/3/6
f 606/6/6 607/6/6 608/6/6
f 608/6/6 607/6/6 609/6/6
f 608/3/6 609/3/6 610/3/6
f 610/3/6 609/3/6 611/3/6
f 610/6/6 611/6/6 612/6/6
f 612/6/6 611/6/6 613/6/6
f 613/6/6 611/6/6 614/6/6
f 613/3/6 614/3/6 615/3/6
f 615/3/6 614/3/6 616/3/6
f 615/6/6 616/6/6 617/6/6
f 617/6/6 616/6/6 618/6/6
f 617/3/6 618/3/6 619/3/6
f 619/3/6 618/3/6 620/3/6
f 620/3/6 618/3/6 621/3/6
f 620/6/6 621/6/6 622/6/6
f 622/6/6 621/6/6 623/6/6
f 623/6/6 621/6/6 624/6/6
f 623/3/6 624/3/6 625/3/6
f 625/3/6 624/3/6 626/3/6
f 625/6/6 626/6/6 627/6/6
f 627/6/6 626/6/6 628/6/6
f 629/1/6 630/1/6 631/1/6
f 631/1/6 630/1/6 632/1/6
f 633/1/6 634/1/6 635/1/6
f 635/1/6 634/1/6 636/1/6
f 637/3/6 638/3/6 639/3/6
f 639/3/6 638/3/6 640/3/6
f 637/3/6 639/3/6 641/3/6
f 639/6/6 640/6/6 642/6/6
f 641/3/6 639/3/6 642/3/6
f 641/6/6 642/6/6 643/6/6
f 642/6/6 640/6/6 644/6/6
f 643/6/6 642/6/6 644/6/6
f 643/3/6 644/3/6 645/3/6
f 644/6/6 640/6/6 646/6/6
f 645/3/6 644/3/6 646/3/6
f 645/6/6 646/6/6 647/6/6
f 640/3/6 638/3/6 648/3/6
f 647/6/6 646/6/6 648/6/6
f 646/6/6 640/6/6 648/6/6
f 648/3/6 638/3/6 649/3/6
f 647/3/6 648/3/6 650/3/6
f 648/6/6 649/6/6 651/6/6
f 650/3/6 648/3/6 651/3/6
f 647/3/6 650/3/6 652/3/6
f 650/6/6 651/6/6 653/6/6
f 652/3/6 650/3/6 653/3/6
f 651/6/6 649/6/6 654/6/6
f 653/6/6 651/6/6 654/6/6
f 654/6/6 649/6/6 655/6/6
f 652/6/6 653/6/6 656/6/6
f 653/6/6 654/6/6 656/6/6
f 656/6/6 654/6/6 657/6/6
f 654/3/6 655/3/6 658/3/6
f 657/6/6 654/6/6 658/6/6
f 658/3/6 655/3/6 659/3/6
f 656/3/6 657/3/6 660/3/6
f 657/6/6 658/6/6 661/6/6
f 660/3/6 657/3/6 661/3/6
f 658/6/6 659/6/6 661/6/6
f 661/6/6 659/6/6 662/6/6
f 660/6/6 661/6/6 663/6/6
f 661/3/6 662/3/6 664/3/6
f 663/6/6 661/6/6 664/6/6
f 664/3/6 662/3/6 665/3/6
f 664/6/6 665/6/6 666/6/6
f 665/3/6 662/3/6 666/3/6
f 666/3/6 662/3/6 667/3/6
f 664/6/6 666/6/6 668/6/6
f 666/6/6 667/6/6 668/6/6
f 668/6/6 667/6/6 669/6/6
f 663/3/6 664/3/6 670/3/6
f 664/6/6 668/6/6 671/6/6
f 670/3/6 664/3/6 671/3/6
f 668/3/6 669/3/6 672/3/6
f 671/6/6 668/6/6 672/6/6
f 672/3/6 669/3/6 673/3/6
