# MagicaVoxel @ Ephtracy

# group
o 

# material
mtllib SmithingHouse6WallTEX.mtl
usemtl palette

# normals
vn -1 0 0
vn 1 0 0
vn 0 0 1
vn 0 0 -1
vn 0 -1 0
vn 0 1 0

# texcoords
vt 0.943359 0.5
vt 0.947266 0.5
vt 0.958984 0.5
vt 0.974609 0.5
vt 0.978516 0.5
vt 0.982422 0.5

# verts
v 0 2 -1.2
v 0 2 -1.3
v 0 2 -1.8
v 0 2 -1.9
v 0 2.1 -1.2
v 0 2.1 -1.3
v 0 2.1 -1.8
v 0 2.1 -1.9
v 0 2.2 -1.8
v 0 2.2 -1.9
v 0 2.4 -1.2
v 0 2.4 -1.3
v 0 2.5 -1.8
v 0 2.5 -1.9
v 0 2.7 -1.2
v 0 2.7 -1.3
v 0 2.7 -1.8
v 0 2.7 -1.9
v 0 2.9 -1.2
v 0 2.9 -1.3
v 0 2.9 -1.4
v 0 2.9 -1.7
v 0 2.9 -1.8
v 0 3 -1.2
v 0 3 -1.3
v 0 3 -1.4
v 0 3 -1.6
v 0 3 -1.7
v 0 3 -1.8
v 0 3 -1.9
v 0 3.1 -1.3
v 0 3.1 -1.6
v 0 3.1 -1.7
v 0 3.1 -1.8
v 0 3.5 -0.1
v 0 3.5 -0.2
v 0 3.5 -0.6
v 0 3.5 -1.2
v 0 3.5 -1.5
v 0 3.5 -2.1
v 0 3.6 -0.3
v 0 3.6 -0.6
v 0 3.6 -0.8
v 0 3.6 -1
v 0 3.6 -1.2
v 0 3.6 -1.7
v 0 3.6 -1.8
v 0 3.6 -1.9
v 0 3.6 -2.1
v 0 3.7 -0.1
v 0 3.7 -0.2
v 0 3.7 -0.3
v 0 3.7 -0.6
v 0 3.7 -0.8
v 0 3.7 -1
v 0 3.7 -1.5
v 0 3.7 -1.7
v 0 3.7 -1.8
v 0 3.7 -1.9
v 0 3.7 -2.1
v 0.1 2 -0.1
v 0.1 2 -0.3
v 0.1 2 -0.4
v 0.1 2 -0.7
v 0.1 2 -0.8
v 0.1 2 -1.2
v 0.1 2 -1.3
v 0.1 2 -1.4
v 0.1 2 -1.7
v 0.1 2 -1.8
v 0.1 2 -1.9
v 0.1 2 -2.1
v 0.1 2.1 -0.3
v 0.1 2.1 -0.4
v 0.1 2.1 -0.5
v 0.1 2.1 -0.7
v 0.1 2.1 -0.8
v 0.1 2.1 -1
v 0.1 2.1 -1.2
v 0.1 2.1 -1.3
v 0.1 2.1 -1.4
v 0.1 2.1 -1.7
v 0.1 2.1 -1.8
v 0.1 2.1 -1.9
v 0.1 2.1 -2
v 0.1 2.2 -0.2
v 0.1 2.2 -0.4
v 0.1 2.2 -0.5
v 0.1 2.2 -0.8
v 0.1 2.2 -1
v 0.1 2.2 -1.1
v 0.1 2.2 -1.9
v 0.1 2.3 0
v 0.1 2.3 -0.1
v 0.1 2.3 -0.2
v 0.1 2.3 -0.3
v 0.1 2.3 -0.4
v 0.1 2.3 -0.8
v 0.1 2.3 -1.9
v 0.1 2.3 -2
v 0.1 2.3 -2.1
v 0.1 2.3 -2.2
v 0.1 2.4 -0.2
v 0.1 2.4 -0.3
v 0.1 2.4 -1
v 0.1 2.4 -1.1
v 0.1 2.4 -1.2
v 0.1 2.4 -1.9
v 0.1 2.4 -2.1
v 0.1 2.5 -0.1
v 0.1 2.5 -0.2
v 0.1 2.5 -0.6
v 0.1 2.5 -1
v 0.1 2.5 -1.1
v 0.1 2.5 -1.2
v 0.1 2.5 -1.9
v 0.1 2.5 -2.1
v 0.1 2.6 -0.1
v 0.1 2.6 -0.2
v 0.1 2.6 -0.3
v 0.1 2.6 -0.4
v 0.1 2.6 -0.6
v 0.1 2.6 -0.7
v 0.1 2.6 -0.9
v 0.1 2.6 -1
v 0.1 2.6 -1.1
v 0.1 2.6 -1.2
v 0.1 2.6 -2
v 0.1 2.6 -2.1
v 0.1 2.7 0
v 0.1 2.7 -0.1
v 0.1 2.7 -0.2
v 0.1 2.7 -0.3
v 0.1 2.7 -0.4
v 0.1 2.7 -0.5
v 0.1 2.7 -0.6
v 0.1 2.7 -0.9
v 0.1 2.7 -1
v 0.1 2.7 -1.2
v 0.1 2.7 -1.9
v 0.1 2.7 -2
v 0.1 2.7 -2.1
v 0.1 2.7 -2.2
v 0.1 2.8 -0.4
v 0.1 2.8 -0.5
v 0.1 2.8 -0.6
v 0.1 2.8 -0.7
v 0.1 2.8 -0.8
v 0.1 2.8 -1.9
v 0.1 2.8 -2.1
v 0.1 2.9 -0.5
v 0.1 2.9 -0.6
v 0.1 2.9 -0.7
v 0.1 2.9 -0.8
v 0.1 2.9 -0.9
v 0.1 2.9 -1.1
v 0.1 2.9 -1.2
v 0.1 2.9 -2.1
v 0.1 2.9 -2.2
v 0.1 3 -0.7
v 0.1 3 -0.8
v 0.1 3 -0.9
v 0.1 3 -1.2
v 0.1 3 -1.3
v 0.1 3 -1.8
v 0.1 3 -1.9
v 0.1 3 -2.1
v 0.1 3.1 0
v 0.1 3.1 -0.1
v 0.1 3.1 -0.2
v 0.1 3.1 -0.3
v 0.1 3.1 -0.6
v 0.1 3.1 -0.7
v 0.1 3.1 -0.8
v 0.1 3.1 -0.9
v 0.1 3.1 -1
v 0.1 3.1 -1.1
v 0.1 3.1 -1.2
v 0.1 3.1 -1.3
v 0.1 3.1 -1.5
v 0.1 3.1 -1.6
v 0.1 3.1 -1.7
v 0.1 3.1 -1.8
v 0.1 3.1 -1.9
v 0.1 3.1 -2
v 0.1 3.1 -2.1
v 0.1 3.1 -2.2
v 0.1 3.2 -0.1
v 0.1 3.2 -0.2
v 0.1 3.2 -0.3
v 0.1 3.2 -0.4
v 0.1 3.2 -0.6
v 0.1 3.2 -0.7
v 0.1 3.2 -1
v 0.1 3.2 -1.1
v 0.1 3.2 -1.2
v 0.1 3.2 -1.3
v 0.1 3.2 -1.5
v 0.1 3.2 -1.6
v 0.1 3.2 -1.7
v 0.1 3.2 -1.8
v 0.1 3.2 -2
v 0.1 3.2 -2.1
v 0.1 3.3 -0.3
v 0.1 3.3 -0.4
v 0.1 3.3 -0.6
v 0.1 3.3 -0.7
v 0.1 3.3 -0.9
v 0.1 3.3 -1
v 0.1 3.3 -1.1
v 0.1 3.3 -1.2
v 0.1 3.3 -1.4
v 0.1 3.3 -1.5
v 0.1 3.3 -1.8
v 0.1 3.3 -1.9
v 0.1 3.3 -2
v 0.1 3.4 0
v 0.1 3.4 -0.1
v 0.1 3.4 -0.2
v 0.1 3.4 -0.3
v 0.1 3.4 -0.4
v 0.1 3.4 -0.6
v 0.1 3.4 -0.8
v 0.1 3.4 -1.1
v 0.1 3.4 -1.2
v 0.1 3.4 -1.4
v 0.1 3.4 -1.5
v 0.1 3.4 -1.7
v 0.1 3.4 -1.8
v 0.1 3.4 -1.9
v 0.1 3.4 -2
v 0.1 3.4 -2.1
v 0.1 3.4 -2.2
v 0.1 3.5 0
v 0.1 3.5 -0.1
v 0.1 3.5 -0.2
v 0.1 3.5 -0.3
v 0.1 3.5 -0.4
v 0.1 3.5 -0.6
v 0.1 3.5 -0.8
v 0.1 3.5 -0.9
v 0.1 3.5 -1
v 0.1 3.5 -1.1
v 0.1 3.5 -1.2
v 0.1 3.5 -1.5
v 0.1 3.5 -1.7
v 0.1 3.5 -1.8
v 0.1 3.5 -1.9
v 0.1 3.5 -2
v 0.1 3.5 -2.1
v 0.1 3.5 -2.2
v 0.2 2 -0.1
v 0.2 2 -0.3
v 0.2 2 -0.4
v 0.2 2 -0.7
v 0.2 2 -0.8
v 0.2 2 -1.2
v 0.2 2 -1.3
v 0.2 2 -1.4
v 0.2 2 -1.7
v 0.2 2 -1.8
v 0.2 2 -1.9
v 0.2 2 -2.1
v 0.2 2.1 -0.3
v 0.2 2.1 -0.4
v 0.2 2.1 -0.5
v 0.2 2.1 -0.7
v 0.2 2.1 -0.8
v 0.2 2.1 -1
v 0.2 2.1 -1.3
v 0.2 2.1 -1.4
v 0.2 2.1 -1.7
v 0.2 2.1 -1.8
v 0.2 2.1 -1.9
v 0.2 2.1 -2
v 0.2 2.2 -0.2
v 0.2 2.2 -0.4
v 0.2 2.2 -0.5
v 0.2 2.2 -0.8
v 0.2 2.2 -1
v 0.2 2.2 -1.1
v 0.2 2.2 -1.2
v 0.2 2.3 0
v 0.2 2.3 -0.1
v 0.2 2.3 -0.2
v 0.2 2.3 -0.3
v 0.2 2.3 -0.4
v 0.2 2.3 -0.8
v 0.2 2.3 -1.2
v 0.2 2.3 -1.9
v 0.2 2.3 -2
v 0.2 2.3 -2.1
v 0.2 2.3 -2.2
v 0.2 2.4 -0.2
v 0.2 2.4 -0.3
v 0.2 2.4 -1
v 0.2 2.4 -1.1
v 0.2 2.4 -1.2
v 0.2 2.4 -1.9
v 0.2 2.4 -2.1
v 0.2 2.5 -0.1
v 0.2 2.5 -0.2
v 0.2 2.5 -0.6
v 0.2 2.5 -1
v 0.2 2.5 -1.1
v 0.2 2.5 -1.2
v 0.2 2.5 -1.9
v 0.2 2.5 -2.1
v 0.2 2.6 -0.1
v 0.2 2.6 -0.2
v 0.2 2.6 -0.3
v 0.2 2.6 -0.4
v 0.2 2.6 -0.6
v 0.2 2.6 -0.7
v 0.2 2.6 -0.9
v 0.2 2.6 -1
v 0.2 2.6 -1.1
v 0.2 2.6 -1.2
v 0.2 2.6 -2
v 0.2 2.6 -2.1
v 0.2 2.7 0
v 0.2 2.7 -0.1
v 0.2 2.7 -0.2
v 0.2 2.7 -0.3
v 0.2 2.7 -0.4
v 0.2 2.7 -0.5
v 0.2 2.7 -0.6
v 0.2 2.7 -0.9
v 0.2 2.7 -1
v 0.2 2.7 -1.9
v 0.2 2.7 -2
v 0.2 2.7 -2.1
v 0.2 2.7 -2.2
v 0.2 2.8 -0.4
v 0.2 2.8 -0.5
v 0.2 2.8 -0.6
v 0.2 2.8 -0.7
v 0.2 2.8 -0.8
v 0.2 2.8 -1.2
v 0.2 2.8 -1.9
v 0.2 2.8 -2.1
v 0.2 2.9 -0.5
v 0.2 2.9 -0.6
v 0.2 2.9 -0.7
v 0.2 2.9 -0.8
v 0.2 2.9 -0.9
v 0.2 2.9 -1.1
v 0.2 2.9 -1.2
v 0.2 2.9 -2.1
v 0.2 2.9 -2.2
v 0.2 3 -0.7
v 0.2 3 -0.8
v 0.2 3 -0.9
v 0.2 3 -1.2
v 0.2 3 -1.3
v 0.2 3 -1.8
v 0.2 3 -1.9
v 0.2 3 -2.1
v 0.2 3.1 0
v 0.2 3.1 -0.1
v 0.2 3.1 -0.2
v 0.2 3.1 -0.3
v 0.2 3.1 -0.6
v 0.2 3.1 -0.7
v 0.2 3.1 -0.8
v 0.2 3.1 -0.9
v 0.2 3.1 -1
v 0.2 3.1 -1.1
v 0.2 3.1 -1.2
v 0.2 3.1 -1.3
v 0.2 3.1 -1.4
v 0.2 3.1 -1.5
v 0.2 3.1 -1.6
v 0.2 3.1 -1.7
v 0.2 3.1 -1.8
v 0.2 3.1 -1.9
v 0.2 3.1 -2
v 0.2 3.1 -2.1
v 0.2 3.1 -2.2
v 0.2 3.2 -0.1
v 0.2 3.2 -0.2
v 0.2 3.2 -0.3
v 0.2 3.2 -0.4
v 0.2 3.2 -0.6
v 0.2 3.2 -0.7
v 0.2 3.2 -1
v 0.2 3.2 -1.1
v 0.2 3.2 -1.2
v 0.2 3.2 -1.3
v 0.2 3.2 -1.5
v 0.2 3.2 -1.6
v 0.2 3.2 -1.7
v 0.2 3.2 -1.8
v 0.2 3.2 -2
v 0.2 3.2 -2.1
v 0.2 3.3 -0.3
v 0.2 3.3 -0.4
v 0.2 3.3 -0.6
v 0.2 3.3 -0.7
v 0.2 3.3 -0.9
v 0.2 3.3 -1
v 0.2 3.3 -1.1
v 0.2 3.3 -1.2
v 0.2 3.3 -1.4
v 0.2 3.3 -1.5
v 0.2 3.3 -1.8
v 0.2 3.3 -1.9
v 0.2 3.3 -2
v 0.2 3.4 0
v 0.2 3.4 -0.1
v 0.2 3.4 -0.2
v 0.2 3.4 -0.3
v 0.2 3.4 -0.4
v 0.2 3.4 -0.6
v 0.2 3.4 -0.8
v 0.2 3.4 -1.1
v 0.2 3.4 -1.2
v 0.2 3.4 -1.4
v 0.2 3.4 -1.5
v 0.2 3.4 -1.7
v 0.2 3.4 -1.8
v 0.2 3.4 -1.9
v 0.2 3.4 -2
v 0.2 3.4 -2.1
v 0.2 3.4 -2.2
v 0.2 3.5 0
v 0.2 3.5 -0.1
v 0.2 3.5 -0.2
v 0.2 3.5 -0.3
v 0.2 3.5 -0.4
v 0.2 3.5 -0.5
v 0.2 3.5 -0.6
v 0.2 3.5 -0.8
v 0.2 3.5 -0.9
v 0.2 3.5 -1
v 0.2 3.5 -1.1
v 0.2 3.5 -1.4
v 0.2 3.5 -1.7
v 0.2 3.5 -1.8
v 0.2 3.5 -1.9
v 0.2 3.5 -2
v 0.2 3.5 -2.1
v 0.2 3.5 -2.2
v 0.3 2 -1.2
v 0.3 2 -1.3
v 0.3 2 -1.8
v 0.3 2 -1.9
v 0.3 2.1 -1.8
v 0.3 2.1 -1.9
v 0.3 2.2 -1.2
v 0.3 2.2 -1.3
v 0.3 2.3 -1.2
v 0.3 2.3 -1.3
v 0.3 2.3 -1.8
v 0.3 2.3 -1.9
v 0.3 2.4 -1.2
v 0.3 2.4 -1.3
v 0.3 2.4 -1.8
v 0.3 2.4 -1.9
v 0.3 2.6 -1.2
v 0.3 2.6 -1.3
v 0.3 2.7 -1.8
v 0.3 2.7 -1.9
v 0.3 2.8 -1.2
v 0.3 2.8 -1.3
v 0.3 2.9 -1.3
v 0.3 2.9 -1.4
v 0.3 2.9 -1.7
v 0.3 2.9 -1.8
v 0.3 3 -1.2
v 0.3 3 -1.3
v 0.3 3 -1.4
v 0.3 3 -1.6
v 0.3 3 -1.7
v 0.3 3 -1.8
v 0.3 3 -1.9
v 0.3 3.1 -1.3
v 0.3 3.1 -1.4
v 0.3 3.1 -1.6
v 0.3 3.1 -1.8
v 0.3 3.5 -0.1
v 0.3 3.5 -0.4
v 0.3 3.5 -0.5
v 0.3 3.5 -1
v 0.3 3.5 -1.1
v 0.3 3.5 -1.4
v 0.3 3.5 -2.1
v 0.3 3.6 -0.1
v 0.3 3.6 -0.2
v 0.3 3.6 -0.3
v 0.3 3.6 -0.4
v 0.3 3.6 -0.5
v 0.3 3.6 -0.6
v 0.3 3.6 -0.8
v 0.3 3.6 -0.9
v 0.3 3.6 -1
v 0.3 3.6 -1.1
v 0.3 3.6 -1.4
v 0.3 3.6 -1.5
v 0.3 3.6 -1.7
v 0.3 3.6 -1.9
v 0.3 3.6 -2.1
v 0.3 3.7 -0.1
v 0.3 3.7 -0.2
v 0.3 3.7 -0.3
v 0.3 3.7 -0.6
v 0.3 3.7 -0.8
v 0.3 3.7 -0.9
v 0.3 3.7 -1.1
v 0.3 3.7 -1.5
v 0.3 3.7 -1.7
v 0.3 3.7 -1.9
v 0.3 3.7 -2.1
v 0.1 2.3 0
v 0.1 2.7 0
v 0.1 3.1 0
v 0.1 3.4 0
v 0.1 3.5 0
v 0.2 2.3 0
v 0.2 2.7 0
v 0.2 3.1 0
v 0.2 3.4 0
v 0.2 3.5 0
v 0 3.5 -0.1
v 0 3.7 -0.1
v 0.1 2 -0.1
v 0.1 2.3 -0.1
v 0.1 3.5 -0.1
v 0.2 2 -0.1
v 0.2 2.3 -0.1
v 0.2 3.5 -0.1
v 0.2 3.6 -0.1
v 0.2 3.7 -0.1
v 0.3 3.5 -0.1
v 0.3 3.6 -0.1
v 0.3 3.7 -0.1
v 0 2 -1.2
v 0 2.1 -1.2
v 0 2.4 -1.2
v 0 2.7 -1.2
v 0 2.9 -1.2
v 0 3 -1.2
v 0.1 2 -1.2
v 0.1 2.1 -1.2
v 0.1 2.4 -1.2
v 0.1 2.5 -1.2
v 0.1 2.6 -1.2
v 0.1 2.7 -1.2
v 0.1 2.9 -1.2
v 0.1 3 -1.2
v 0.2 2 -1.2
v 0.2 2.2 -1.2
v 0.2 2.3 -1.2
v 0.2 2.4 -1.2
v 0.2 2.5 -1.2
v 0.2 2.6 -1.2
v 0.2 2.8 -1.2
v 0.2 2.9 -1.2
v 0.2 3 -1.2
v 0.3 2 -1.2
v 0.3 2.2 -1.2
v 0.3 2.3 -1.2
v 0.3 2.4 -1.2
v 0.3 2.6 -1.2
v 0.3 2.8 -1.2
v 0.3 3 -1.2
v 0 3 -1.3
v 0 3.1 -1.3
v 0.1 3 -1.3
v 0.1 3.1 -1.3
v 0.2 3 -1.3
v 0.2 3.1 -1.3
v 0.3 3 -1.3
v 0.3 3.1 -1.3
v 0 2.9 -1.7
v 0 3 -1.7
v 0.1 3 -1.7
v 0.2 2.9 -1.7
v 0.2 3 -1.7
v 0.3 2.9 -1.7
v 0.3 3 -1.7
v 0 2 -1.8
v 0 2.1 -1.8
v 0 2.2 -1.8
v 0 2.5 -1.8
v 0 2.7 -1.8
v 0 2.9 -1.8
v 0.1 2 -1.8
v 0.1 2.1 -1.8
v 0.1 2.2 -1.8
v 0.1 2.5 -1.8
v 0.1 2.6 -1.8
v 0.1 2.7 -1.8
v 0.1 2.8 -1.8
v 0.1 2.9 -1.8
v 0.2 2 -1.8
v 0.2 2.1 -1.8
v 0.2 2.2 -1.8
v 0.2 2.3 -1.8
v 0.2 2.4 -1.8
v 0.2 2.6 -1.8
v 0.2 2.7 -1.8
v 0.2 2.8 -1.8
v 0.2 2.9 -1.8
v 0.3 2 -1.8
v 0.3 2.1 -1.8
v 0.3 2.3 -1.8
v 0.3 2.4 -1.8
v 0.3 2.7 -1.8
v 0.3 2.9 -1.8
v 0 2 -1.3
v 0 2.1 -1.3
v 0 2.4 -1.3
v 0 2.7 -1.3
v 0 2.9 -1.3
v 0.1 2 -1.3
v 0.1 2.1 -1.3
v 0.1 2.2 -1.3
v 0.1 2.4 -1.3
v 0.1 2.6 -1.3
v 0.1 2.7 -1.3
v 0.1 2.8 -1.3
v 0.1 2.9 -1.3
v 0.2 2 -1.3
v 0.2 2.1 -1.3
v 0.2 2.2 -1.3
v 0.2 2.3 -1.3
v 0.2 2.4 -1.3
v 0.2 2.6 -1.3
v 0.2 2.8 -1.3
v 0.2 2.9 -1.3
v 0.3 2 -1.3
v 0.3 2.2 -1.3
v 0.3 2.3 -1.3
v 0.3 2.4 -1.3
v 0.3 2.6 -1.3
v 0.3 2.8 -1.3
v 0.3 2.9 -1.3
v 0 2.9 -1.4
v 0 3 -1.4
v 0.1 2.9 -1.4
v 0.1 3 -1.4
v 0.2 3 -1.4
v 0.3 2.9 -1.4
v 0.3 3 -1.4
v 0 3 -1.8
v 0 3.1 -1.8
v 0.1 3 -1.8
v 0.1 3.1 -1.8
v 0.2 3 -1.8
v 0.2 3.1 -1.8
v 0.3 3 -1.8
v 0.3 3.1 -1.8
v 0 2 -1.9
v 0 2.1 -1.9
v 0 2.2 -1.9
v 0 2.5 -1.9
v 0 2.7 -1.9
v 0 3 -1.9
v 0.1 2 -1.9
v 0.1 2.1 -1.9
v 0.1 2.2 -1.9
v 0.1 2.3 -1.9
v 0.1 2.4 -1.9
v 0.1 2.5 -1.9
v 0.1 2.7 -1.9
v 0.1 2.8 -1.9
v 0.1 3 -1.9
v 0.2 2 -1.9
v 0.2 2.1 -1.9
v 0.2 2.3 -1.9
v 0.2 2.4 -1.9
v 0.2 2.5 -1.9
v 0.2 2.7 -1.9
v 0.2 2.8 -1.9
v 0.2 3 -1.9
v 0.3 2 -1.9
v 0.3 2.1 -1.9
v 0.3 2.3 -1.9
v 0.3 2.4 -1.9
v 0.3 2.7 -1.9
v 0.3 3 -1.9
v 0 3.5 -2.1
v 0 3.6 -2.1
v 0 3.7 -2.1
v 0.1 2 -2.1
v 0.1 2.3 -2.1
v 0.1 3.5 -2.1
v 0.2 2 -2.1
v 0.2 2.3 -2.1
v 0.2 3.5 -2.1
v 0.2 3.6 -2.1
v 0.2 3.7 -2.1
v 0.3 3.5 -2.1
v 0.3 3.6 -2.1
v 0.3 3.7 -2.1
v 0.1 2.3 -2.2
v 0.1 2.7 -2.2
v 0.1 2.9 -2.2
v 0.1 3.1 -2.2
v 0.1 3.4 -2.2
v 0.1 3.5 -2.2
v 0.2 2.3 -2.2
v 0.2 2.7 -2.2
v 0.2 2.9 -2.2
v 0.2 3.1 -2.2
v 0.2 3.4 -2.2
v 0.2 3.5 -2.2
v 0.1 2 -0.1
v 0.2 2 -0.1
v 0.1 2 -0.3
v 0.2 2 -0.3
v 0.1 2 -0.4
v 0.2 2 -0.4
v 0.1 2 -0.7
v 0.2 2 -0.7
v 0.1 2 -0.8
v 0.2 2 -0.8
v 0 2 -1.2
v 0.1 2 -1.2
v 0.2 2 -1.2
v 0.3 2 -1.2
v 0 2 -1.3
v 0.1 2 -1.3
v 0.2 2 -1.3
v 0.3 2 -1.3
v 0.1 2 -1.4
v 0.2 2 -1.4
v 0.1 2 -1.7
v 0.2 2 -1.7
v 0 2 -1.8
v 0.1 2 -1.8
v 0.2 2 -1.8
v 0.3 2 -1.8
v 0 2 -1.9
v 0.1 2 -1.9
v 0.2 2 -1.9
v 0.3 2 -1.9
v 0.1 2 -2.1
v 0.2 2 -2.1
v 0.1 2.3 0
v 0.2 2.3 0
v 0.1 2.3 -0.1
v 0.2 2.3 -0.1
v 0.1 2.3 -2.1
v 0.2 2.3 -2.1
v 0.1 2.3 -2.2
v 0.2 2.3 -2.2
v 0 2.9 -1.3
v 0.1 2.9 -1.3
v 0.2 2.9 -1.3
v 0.3 2.9 -1.3
v 0 2.9 -1.4
v 0.1 2.9 -1.4
v 0.3 2.9 -1.4
v 0 2.9 -1.7
v 0.2 2.9 -1.7
v 0.3 2.9 -1.7
v 0 2.9 -1.8
v 0.1 2.9 -1.8
v 0.2 2.9 -1.8
v 0.3 2.9 -1.8
v 0 3 -1.4
v 0.1 3 -1.4
v 0.2 3 -1.4
v 0.3 3 -1.4
v 0 3 -1.6
v 0.1 3 -1.6
v 0.2 3 -1.6
v 0.3 3 -1.6
v 0 3 -1.7
v 0.1 3 -1.7
v 0.2 3 -1.7
v 0.3 3 -1.7
v 0 3.5 -0.1
v 0.1 3.5 -0.1
v 0.2 3.5 -0.1
v 0.3 3.5 -0.1
v 0 3.5 -0.2
v 0.1 3.5 -0.2
v 0.2 3.5 -0.2
v 0.1 3.5 -0.3
v 0.2 3.5 -0.3
v 0.1 3.5 -0.4
v 0.2 3.5 -0.4
v 0.3 3.5 -0.4
v 0.2 3.5 -0.5
v 0.3 3.5 -0.5
v 0 3.5 -0.6
v 0.1 3.5 -0.6
v 0.2 3.5 -0.6
v 0.1 3.5 -0.8
v 0.2 3.5 -0.8
v 0.1 3.5 -0.9
v 0.2 3.5 -0.9
v 0.1 3.5 -1
v 0.2 3.5 -1
v 0.3 3.5 -1
v 0.1 3.5 -1.1
v 0.2 3.5 -1.1
v 0.3 3.5 -1.1
v 0 3.5 -1.2
v 0.1 3.5 -1.2
v 0.2 3.5 -1.4
v 0.3 3.5 -1.4
v 0 3.5 -1.5
v 0.1 3.5 -1.5
v 0.1 3.5 -1.7
v 0.2 3.5 -1.7
v 0.1 3.5 -1.8
v 0.2 3.5 -1.8
v 0.1 3.5 -1.9
v 0.2 3.5 -1.9
v 0.1 3.5 -2
v 0.2 3.5 -2
v 0 3.5 -2.1
v 0.1 3.5 -2.1
v 0.2 3.5 -2.1
v 0.3 3.5 -2.1
v 0.1 2.1 -1.3
v 0.2 2.1 -1.3
v 0.1 2.1 -1.4
v 0.2 2.1 -1.4
v 0.1 2.1 -1.7
v 0.2 2.1 -1.7
v 0.1 2.1 -1.8
v 0.2 2.1 -1.8
v 0 3 -1.2
v 0.1 3 -1.2
v 0.2 3 -1.2
v 0.3 3 -1.2
v 0 3 -1.3
v 0.1 3 -1.3
v 0.2 3 -1.3
v 0.3 3 -1.3
v 0 3 -1.8
v 0.1 3 -1.8
v 0.2 3 -1.8
v 0.3 3 -1.8
v 0 3 -1.9
v 0.1 3 -1.9
v 0.2 3 -1.9
v 0.3 3 -1.9
v 0 3.1 -1.3
v 0.1 3.1 -1.3
v 0.2 3.1 -1.3
v 0.3 3.1 -1.3
v 0.2 3.1 -1.4
v 0.3 3.1 -1.4
v 0.1 3.1 -1.5
v 0.2 3.1 -1.5
v 0 3.1 -1.6
v 0.1 3.1 -1.6
v 0.2 3.1 -1.6
v 0.3 3.1 -1.6
v 0 3.1 -1.7
v 0.1 3.1 -1.7
v 0.2 3.1 -1.7
v 0 3.1 -1.8
v 0.1 3.1 -1.8
v 0.2 3.1 -1.8
v 0.3 3.1 -1.8
v 0.1 3.5 0
v 0.2 3.5 0
v 0.1 3.5 -0.1
v 0.2 3.5 -0.1
v 0.1 3.5 -2.1
v 0.2 3.5 -2.1
v 0.1 3.5 -2.2
v 0.2 3.5 -2.2
v 0 3.7 -0.1
v 0.2 3.7 -0.1
v 0.3 3.7 -0.1
v 0 3.7 -0.2
v 0.2 3.7 -0.2
v 0.3 3.7 -0.2
v 0 3.7 -0.3
v 0.1 3.7 -0.3
v 0.2 3.7 -0.3
v 0.3 3.7 -0.3
v 0 3.7 -0.6
v 0.1 3.7 -0.6
v 0.2 3.7 -0.6
v 0.3 3.7 -0.6
v 0.1 3.7 -0.7
v 0.2 3.7 -0.7
v 0 3.7 -0.8
v 0.1 3.7 -0.8
v 0.2 3.7 -0.8
v 0.3 3.7 -0.8
v 0.1 3.7 -0.9
v 0.2 3.7 -0.9
v 0.3 3.7 -0.9
v 0 3.7 -1
v 0.1 3.7 -1
v 0.2 3.7 -1
v 0.2 3.7 -1.1
v 0.3 3.7 -1.1
v 0 3.7 -1.5
v 0.1 3.7 -1.5
v 0.2 3.7 -1.5
v 0.3 3.7 -1.5
v 0 3.7 -1.7
v 0.1 3.7 -1.7
v 0.2 3.7 -1.7
v 0.3 3.7 -1.7
v 0 3.7 -1.8
v 0.1 3.7 -1.8
v 0 3.7 -1.9
v 0.1 3.7 -1.9
v 0.3 3.7 -1.9
v 0.1 3.7 -2
v 0.2 3.7 -2
v 0 3.7 -2.1
v 0.2 3.7 -2.1
v 0.3 3.7 -2.1

# faces
f 5/6/1 2/6/1 1/6/1
f 6/6/1 2/6/1 5/6/1
f 7/6/1 4/6/1 3/6/1
f 8/6/1 4/6/1 7/6/1
f 9/3/1 8/3/1 7/3/1
f 10/3/1 8/3/1 9/3/1
f 11/3/1 6/3/1 5/3/1
f 12/3/1 6/3/1 11/3/1
f 13/6/1 10/6/1 9/6/1
f 14/6/1 10/6/1 13/6/1
f 15/6/1 12/6/1 11/6/1
f 16/6/1 12/6/1 15/6/1
f 17/3/1 14/3/1 13/3/1
f 18/3/1 14/3/1 17/3/1
f 19/3/1 16/3/1 15/3/1
f 20/3/1 16/3/1 19/3/1
f 23/6/1 18/6/1 17/6/1
f 24/6/1 21/6/1 20/6/1
f 24/6/1 20/6/1 19/6/1
f 25/6/1 21/6/1 24/6/1
f 26/6/1 21/6/1 25/6/1
f 28/6/1 23/6/1 22/6/1
f 29/6/1 18/6/1 23/6/1
f 29/6/1 23/6/1 28/6/1
f 30/6/1 18/6/1 29/6/1
f 31/3/1 27/3/1 26/3/1
f 31/3/1 26/3/1 25/3/1
f 32/6/1 28/6/1 27/6/1
f 32/3/1 27/3/1 31/3/1
f 33/3/1 29/3/1 28/3/1
f 33/6/1 28/6/1 32/6/1
f 34/3/1 29/3/1 33/3/1
f 41/3/1 37/3/1 36/3/1
f 42/6/1 38/6/1 37/6/1
f 42/3/1 37/3/1 41/3/1
f 43/6/1 38/6/1 42/6/1
f 44/6/1 38/6/1 43/6/1
f 45/3/1 39/3/1 38/3/1
f 45/6/1 38/6/1 44/6/1
f 46/6/1 40/6/1 39/6/1
f 47/6/1 40/6/1 46/6/1
f 48/6/1 40/6/1 47/6/1
f 49/6/1 40/6/1 48/6/1
f 50/6/1 36/6/1 35/6/1
f 51/3/1 41/3/1 36/3/1
f 51/6/1 36/6/1 50/6/1
f 52/6/1 42/6/1 41/6/1
f 52/3/1 41/3/1 51/3/1
f 53/3/1 43/3/1 42/3/1
f 53/6/1 42/6/1 52/6/1
f 54/6/1 44/6/1 43/6/1
f 54/3/1 43/3/1 53/3/1
f 55/3/1 45/3/1 44/3/1
f 55/6/1 44/6/1 54/6/1
f 56/3/1 39/3/1 45/3/1
f 56/3/1 45/3/1 55/3/1
f 56/6/1 46/6/1 39/6/1
f 57/3/1 47/3/1 46/3/1
f 57/6/1 46/6/1 56/6/1
f 58/6/1 48/6/1 47/6/1
f 58/3/1 47/3/1 57/3/1
f 59/3/1 49/3/1 48/3/1
f 59/6/1 48/6/1 58/6/1
f 60/3/1 49/3/1 59/3/1
f 73/1/1 62/1/1 61/1/1
f 73/2/1 63/2/1 62/2/1
f 74/1/1 64/1/1 63/1/1
f 74/2/1 63/2/1 73/2/1
f 75/1/1 64/1/1 74/1/1
f 76/2/1 65/2/1 64/2/1
f 76/1/1 64/1/1 75/1/1
f 77/1/1 66/1/1 65/1/1
f 77/2/1 65/2/1 76/2/1
f 78/1/1 66/1/1 77/1/1
f 79/1/1 66/1/1 78/1/1
f 80/6/1 68/6/1 67/6/1
f 81/3/1 69/3/1 68/3/1
f 81/6/1 68/6/1 80/6/1
f 82/6/1 70/6/1 69/6/1
f 82/3/1 69/3/1 81/3/1
f 83/6/1 70/6/1 82/6/1
f 84/1/1 72/1/1 71/1/1
f 85/1/1 72/1/1 84/1/1
f 86/1/1 73/1/1 61/1/1
f 86/1/1 75/1/1 74/1/1
f 86/1/1 74/1/1 73/1/1
f 87/1/1 75/1/1 86/1/1
f 88/2/1 78/2/1 77/2/1
f 88/1/1 75/1/1 87/1/1
f 88/2/1 76/2/1 75/2/1
f 88/2/1 77/2/1 76/2/1
f 89/2/1 78/2/1 88/2/1
f 90/1/1 79/1/1 78/1/1
f 90/2/1 78/2/1 89/2/1
f 91/1/1 79/1/1 90/1/1
f 92/5/1 85/5/1 84/5/1
f 94/1/1 86/1/1 61/1/1
f 95/2/1 87/2/1 86/2/1
f 95/1/1 86/1/1 94/1/1
f 96/2/1 87/2/1 95/2/1
f 97/5/1 89/5/1 88/5/1
f 97/2/1 87/2/1 96/2/1
f 97/5/1 88/5/1 87/5/1
f 98/4/1 90/4/1 89/4/1
f 98/5/1 89/5/1 97/5/1
f 99/5/1 85/5/1 92/5/1
f 100/1/1 72/1/1 85/1/1
f 100/5/1 85/5/1 99/5/1
f 101/1/1 72/1/1 100/1/1
f 103/2/1 96/2/1 95/2/1
f 103/2/1 95/2/1 94/2/1
f 104/4/1 97/4/1 96/4/1
f 104/2/1 96/2/1 103/2/1
f 104/4/1 98/4/1 97/4/1
f 105/4/1 90/4/1 98/4/1
f 105/4/1 98/4/1 104/4/1
f 105/5/1 91/5/1 90/5/1
f 106/1/1 79/1/1 91/1/1
f 106/5/1 91/5/1 105/5/1
f 107/1/1 79/1/1 106/1/1
f 108/4/1 101/4/1 100/4/1
f 108/4/1 100/4/1 99/4/1
f 109/1/1 102/1/1 101/1/1
f 109/4/1 101/4/1 108/4/1
f 110/1/1 94/1/1 93/1/1
f 110/2/1 103/2/1 94/2/1
f 111/4/1 105/4/1 104/4/1
f 111/2/1 103/2/1 110/2/1
f 111/4/1 104/4/1 103/4/1
f 112/4/1 105/4/1 111/4/1
f 113/2/1 106/2/1 105/2/1
f 113/4/1 105/4/1 112/4/1
f 114/1/1 107/1/1 106/1/1
f 114/2/1 106/2/1 113/2/1
f 115/1/1 107/1/1 114/1/1
f 116/1/1 109/1/1 108/1/1
f 117/1/1 102/1/1 109/1/1
f 117/1/1 109/1/1 116/1/1
f 118/1/1 110/1/1 93/1/1
f 118/4/1 112/4/1 111/4/1
f 118/4/1 111/4/1 110/4/1
f 119/4/1 112/4/1 118/4/1
f 120/4/1 112/4/1 119/4/1
f 121/4/1 112/4/1 120/4/1
f 122/5/1 113/5/1 112/5/1
f 122/4/1 112/4/1 121/4/1
f 123/5/1 113/5/1 122/5/1
f 124/5/1 113/5/1 123/5/1
f 125/2/1 114/2/1 113/2/1
f 125/5/1 113/5/1 124/5/1
f 126/4/1 115/4/1 114/4/1
f 126/2/1 114/2/1 125/2/1
f 127/4/1 115/4/1 126/4/1
f 128/4/1 117/4/1 116/4/1
f 129/1/1 102/1/1 117/1/1
f 129/4/1 117/4/1 128/4/1
f 130/1/1 118/1/1 93/1/1
f 131/2/1 119/2/1 118/2/1
f 131/1/1 118/1/1 130/1/1
f 132/4/1 120/4/1 119/4/1
f 132/2/1 119/2/1 131/2/1
f 133/2/1 121/2/1 120/2/1
f 133/4/1 120/4/1 132/4/1
f 134/4/1 122/4/1 121/4/1
f 134/2/1 121/2/1 133/2/1
f 134/4/1 123/4/1 122/4/1
f 135/4/1 123/4/1 134/4/1
f 136/4/1 123/4/1 135/4/1
f 137/5/1 125/5/1 124/5/1
f 137/2/1 124/2/1 123/2/1
f 138/4/1 126/4/1 125/4/1
f 138/5/1 125/5/1 137/5/1
f 139/2/1 127/2/1 126/2/1
f 140/4/1 128/4/1 116/4/1
f 141/2/1 129/2/1 128/2/1
f 141/4/1 128/4/1 140/4/1
f 142/1/1 102/1/1 129/1/1
f 142/2/1 129/2/1 141/2/1
f 143/1/1 102/1/1 142/1/1
f 144/4/1 132/4/1 131/4/1
f 144/4/1 133/4/1 132/4/1
f 144/4/1 134/4/1 133/4/1
f 144/2/1 135/2/1 134/2/1
f 145/5/1 136/5/1 135/5/1
f 145/2/1 135/2/1 144/2/1
f 146/4/1 123/4/1 136/4/1
f 146/5/1 136/5/1 145/5/1
f 147/2/1 137/2/1 123/2/1
f 147/4/1 123/4/1 146/4/1
f 148/2/1 137/2/1 147/2/1
f 149/2/1 141/2/1 140/2/1
f 149/2/1 143/2/1 142/2/1
f 149/2/1 142/2/1 141/2/1
f 150/2/1 143/2/1 149/2/1
f 151/4/1 145/4/1 144/4/1
f 151/2/1 146/2/1 145/2/1
f 152/5/1 148/5/1 147/5/1
f 152/2/1 146/2/1 151/2/1
f 152/5/1 147/5/1 146/5/1
f 153/5/1 148/5/1 152/5/1
f 154/2/1 137/2/1 148/2/1
f 154/5/1 148/5/1 153/5/1
f 155/4/1 138/4/1 137/4/1
f 155/2/1 137/2/1 154/2/1
f 156/2/1 139/2/1 126/2/1
f 156/4/1 138/4/1 155/4/1
f 156/4/1 126/4/1 138/4/1
f 157/2/1 139/2/1 156/2/1
f 158/2/1 143/2/1 150/2/1
f 158/4/1 150/4/1 149/4/1
f 159/2/1 143/2/1 158/2/1
f 160/2/1 153/2/1 152/2/1
f 160/5/1 154/5/1 153/5/1
f 161/4/1 155/4/1 154/4/1
f 161/5/1 154/5/1 160/5/1
f 161/4/1 157/4/1 156/4/1
f 161/4/1 156/4/1 155/4/1
f 162/4/1 157/4/1 161/4/1
f 163/4/1 157/4/1 162/4/1
f 166/4/1 158/4/1 149/4/1
f 166/4/1 159/4/1 158/4/1
f 167/4/1 159/4/1 166/4/1
f 168/2/1 131/2/1 130/2/1
f 169/4/1 152/4/1 151/4/1
f 169/2/1 131/2/1 168/2/1
f 169/4/1 144/4/1 131/4/1
f 169/4/1 151/4/1 144/4/1
f 170/4/1 152/4/1 169/4/1
f 171/4/1 152/4/1 170/4/1
f 172/2/1 160/2/1 152/2/1
f 172/4/1 152/4/1 171/4/1
f 173/4/1 161/4/1 160/4/1
f 173/2/1 160/2/1 172/2/1
f 174/2/1 162/2/1 161/2/1
f 174/4/1 161/4/1 173/4/1
f 175/4/1 163/4/1 162/4/1
f 175/2/1 162/2/1 174/2/1
f 176/4/1 163/4/1 175/4/1
f 177/4/1 163/4/1 176/4/1
f 178/2/1 164/2/1 163/2/1
f 178/4/1 163/4/1 177/4/1
f 179/2/1 164/2/1 178/2/1
f 183/4/1 166/4/1 165/4/1
f 184/1/1 167/1/1 166/1/1
f 184/4/1 166/4/1 183/4/1
f 185/1/1 167/1/1 184/1/1
f 186/4/1 159/4/1 167/4/1
f 186/1/1 167/1/1 185/1/1
f 187/4/1 159/4/1 186/4/1
f 188/1/1 169/1/1 168/1/1
f 188/4/1 170/4/1 169/4/1
f 189/5/1 171/5/1 170/5/1
f 189/4/1 170/4/1 188/4/1
f 190/4/1 174/4/1 173/4/1
f 190/5/1 171/5/1 189/5/1
f 190/4/1 172/4/1 171/4/1
f 190/4/1 173/4/1 172/4/1
f 190/4/1 175/4/1 174/4/1
f 191/4/1 175/4/1 190/4/1
f 192/4/1 175/4/1 191/4/1
f 193/4/1 175/4/1 192/4/1
f 194/4/1 177/4/1 176/4/1
f 194/5/1 176/5/1 175/5/1
f 195/2/1 178/2/1 177/2/1
f 195/4/1 177/4/1 194/4/1
f 196/4/1 179/4/1 178/4/1
f 196/2/1 178/2/1 195/2/1
f 197/2/1 180/2/1 179/2/1
f 197/4/1 179/4/1 196/4/1
f 198/1/1 181/1/1 180/1/1
f 198/2/1 180/2/1 197/2/1
f 199/4/1 182/4/1 181/4/1
f 199/1/1 181/1/1 198/1/1
f 200/2/1 183/2/1 182/2/1
f 200/4/1 182/4/1 199/4/1
f 201/4/1 185/4/1 184/4/1
f 201/2/1 183/2/1 200/2/1
f 201/4/1 184/4/1 183/4/1
f 202/2/1 186/2/1 185/2/1
f 202/4/1 185/4/1 201/4/1
f 203/1/1 187/1/1 186/1/1
f 203/2/1 186/2/1 202/2/1
f 204/2/1 190/2/1 189/2/1
f 204/5/1 191/5/1 190/5/1
f 205/4/1 192/4/1 191/4/1
f 205/5/1 191/5/1 204/5/1
f 206/2/1 193/2/1 192/2/1
f 206/4/1 192/4/1 205/4/1
f 207/4/1 175/4/1 193/4/1
f 207/2/1 193/2/1 206/2/1
f 208/5/1 194/5/1 175/5/1
f 208/4/1 175/4/1 207/4/1
f 208/5/1 195/5/1 194/5/1
f 209/5/1 195/5/1 208/5/1
f 210/4/1 199/4/1 198/4/1
f 210/5/1 195/5/1 209/5/1
f 210/4/1 200/4/1 199/4/1
f 210/4/1 198/4/1 197/4/1
f 210/4/1 201/4/1 200/4/1
f 210/4/1 197/4/1 196/4/1
f 210/4/1 196/4/1 195/4/1
f 210/4/1 202/4/1 201/4/1
f 211/4/1 202/4/1 210/4/1
f 212/4/1 202/4/1 211/4/1
f 213/4/1 202/4/1 212/4/1
f 214/4/1 202/4/1 213/4/1
f 215/4/1 202/4/1 214/4/1
f 216/1/1 203/1/1 202/1/1
f 216/4/1 202/4/1 215/4/1
f 217/1/1 188/1/1 168/1/1
f 217/1/1 189/1/1 188/1/1
f 218/1/1 189/1/1 217/1/1
f 219/2/1 204/2/1 189/2/1
f 219/1/1 189/1/1 218/1/1
f 219/2/1 205/2/1 204/2/1
f 220/2/1 205/2/1 219/2/1
f 221/4/1 206/4/1 205/4/1
f 221/2/1 205/2/1 220/2/1
f 221/4/1 208/4/1 207/4/1
f 221/4/1 207/4/1 206/4/1
f 222/4/1 208/4/1 221/4/1
f 223/4/1 208/4/1 222/4/1
f 224/4/1 210/4/1 209/4/1
f 224/4/1 211/4/1 210/4/1
f 225/5/1 212/5/1 211/5/1
f 225/4/1 211/4/1 224/4/1
f 226/2/1 213/2/1 212/2/1
f 226/5/1 212/5/1 225/5/1
f 227/4/1 214/4/1 213/4/1
f 227/2/1 213/2/1 226/2/1
f 228/4/1 214/4/1 227/4/1
f 229/2/1 215/2/1 214/2/1
f 229/4/1 214/4/1 228/4/1
f 230/1/1 216/1/1 215/1/1
f 230/2/1 215/2/1 229/2/1
f 231/1/1 203/1/1 216/1/1
f 231/1/1 216/1/1 230/1/1
f 232/1/1 187/1/1 203/1/1
f 232/1/1 203/1/1 231/1/1
f 233/1/1 187/1/1 232/1/1
f 234/2/1 218/2/1 217/2/1
f 235/1/1 219/1/1 218/1/1
f 235/2/1 218/2/1 234/2/1
f 236/4/1 220/4/1 219/4/1
f 236/1/1 219/1/1 235/1/1
f 237/1/1 221/1/1 220/1/1
f 237/4/1 220/4/1 236/4/1
f 238/4/1 222/4/1 221/4/1
f 238/1/1 221/1/1 237/1/1
f 239/2/1 223/2/1 222/2/1
f 239/4/1 222/4/1 238/4/1
f 240/4/1 208/4/1 223/4/1
f 240/2/1 223/2/1 239/2/1
f 241/2/1 209/2/1 208/2/1
f 241/4/1 208/4/1 240/4/1
f 242/4/1 224/4/1 209/4/1
f 242/2/1 209/2/1 241/2/1
f 243/2/1 228/2/1 227/2/1
f 243/4/1 224/4/1 242/4/1
f 243/2/1 226/2/1 225/2/1
f 243/2/1 225/2/1 224/2/1
f 243/2/1 227/2/1 226/2/1
f 244/2/1 228/2/1 243/2/1
f 245/2/1 228/2/1 244/2/1
f 246/4/1 229/4/1 228/4/1
f 246/2/1 228/2/1 245/2/1
f 247/1/1 230/1/1 229/1/1
f 247/4/1 229/4/1 246/4/1
f 248/2/1 231/2/1 230/2/1
f 248/1/1 230/1/1 247/1/1
f 249/1/1 232/1/1 231/1/1
f 249/2/1 231/2/1 248/2/1
f 250/2/1 233/2/1 232/2/1
f 250/1/1 232/1/1 249/1/1
f 251/2/1 233/2/1 250/2/1
f 252/1/2 253/1/2 264/1/2
f 253/2/2 254/2/2 264/2/2
f 254/1/2 255/1/2 265/1/2
f 264/2/2 254/2/2 265/2/2
f 265/1/2 255/1/2 266/1/2
f 255/2/2 256/2/2 267/2/2
f 266/1/2 255/1/2 267/1/2
f 256/1/2 257/1/2 268/1/2
f 267/2/2 256/2/2 268/2/2
f 268/1/2 257/1/2 269/1/2
f 258/6/2 259/6/2 270/6/2
f 259/3/2 260/3/2 271/3/2
f 270/6/2 259/6/2 271/6/2
f 260/6/2 261/6/2 272/6/2
f 271/3/2 260/3/2 272/3/2
f 272/6/2 261/6/2 273/6/2
f 262/1/2 263/1/2 274/1/2
f 274/1/2 263/1/2 275/1/2
f 252/1/2 264/1/2 276/1/2
f 265/1/2 266/1/2 276/1/2
f 264/1/2 265/1/2 276/1/2
f 276/1/2 266/1/2 277/1/2
f 268/2/2 269/2/2 278/2/2
f 277/1/2 266/1/2 278/1/2
f 266/2/2 267/2/2 278/2/2
f 267/2/2 268/2/2 278/2/2
f 278/2/2 269/2/2 279/2/2
f 269/1/2 257/1/2 280/1/2
f 279/2/2 269/2/2 280/2/2
f 280/1/2 257/1/2 281/1/2
f 281/1/2 257/1/2 282/1/2
f 252/1/2 276/1/2 284/1/2
f 276/2/2 277/2/2 285/2/2
f 284/1/2 276/1/2 285/1/2
f 285/2/2 277/2/2 286/2/2
f 278/5/2 279/5/2 287/5/2
f 286/2/2 277/2/2 287/2/2
f 277/5/2 278/5/2 287/5/2
f 279/4/2 280/4/2 288/4/2
f 287/5/2 279/5/2 288/5/2
f 281/1/2 282/1/2 289/1/2
f 274/5/2 275/5/2 290/5/2
f 275/1/2 263/1/2 291/1/2
f 290/5/2 275/5/2 291/5/2
f 291/1/2 263/1/2 292/1/2
f 285/2/2 286/2/2 294/2/2
f 284/2/2 285/2/2 294/2/2
f 287/4/2 288/4/2 295/4/2
f 294/2/2 286/2/2 295/2/2
f 286/4/2 287/4/2 295/4/2
f 280/5/2 281/5/2 296/5/2
f 295/4/2 288/4/2 296/4/2
f 288/4/2 280/4/2 296/4/2
f 281/1/2 289/1/2 297/1/2
f 296/5/2 281/5/2 297/5/2
f 297/1/2 289/1/2 298/1/2
f 291/4/2 292/4/2 299/4/2
f 290/4/2 291/4/2 299/4/2
f 292/1/2 293/1/2 300/1/2
f 299/4/2 292/4/2 300/4/2
f 283/1/2 284/1/2 301/1/2
f 284/2/2 294/2/2 301/2/2
f 295/4/2 296/4/2 302/4/2
f 301/2/2 294/2/2 302/2/2
f 294/4/2 295/4/2 302/4/2
f 302/4/2 296/4/2 303/4/2
f 296/2/2 297/2/2 304/2/2
f 303/4/2 296/4/2 304/4/2
f 297/1/2 298/1/2 305/1/2
f 304/2/2 297/2/2 305/2/2
f 305/1/2 298/1/2 306/1/2
f 299/1/2 300/1/2 307/1/2
f 300/1/2 293/1/2 308/1/2
f 307/1/2 300/1/2 308/1/2
f 283/1/2 301/1/2 309/1/2
f 302/4/2 303/4/2 309/4/2
f 301/4/2 302/4/2 309/4/2
f 309/4/2 303/4/2 310/4/2
f 310/4/2 303/4/2 311/4/2
f 311/4/2 303/4/2 312/4/2
f 303/5/2 304/5/2 313/5/2
f 312/4/2 303/4/2 313/4/2
f 313/5/2 304/5/2 314/5/2
f 314/5/2 304/5/2 315/5/2
f 304/2/2 305/2/2 316/2/2
f 315/5/2 304/5/2 316/5/2
f 305/4/2 306/4/2 317/4/2
f 316/2/2 305/2/2 317/2/2
f 317/4/2 306/4/2 318/4/2
f 307/4/2 308/4/2 319/4/2
f 308/1/2 293/1/2 320/1/2
f 319/4/2 308/4/2 320/4/2
f 283/1/2 309/1/2 321/1/2
f 309/2/2 310/2/2 322/2/2
f 321/1/2 309/1/2 322/1/2
f 310/4/2 311/4/2 323/4/2
f 322/2/2 310/2/2 323/2/2
f 311/2/2 312/2/2 324/2/2
f 323/4/2 311/4/2 324/4/2
f 312/4/2 313/4/2 325/4/2
f 324/2/2 312/2/2 325/2/2
f 313/4/2 314/4/2 325/4/2
f 325/4/2 314/4/2 326/4/2
f 326/4/2 314/4/2 327/4/2
f 315/5/2 316/5/2 328/5/2
f 314/2/2 315/2/2 328/2/2
f 316/4/2 317/4/2 329/4/2
f 328/5/2 316/5/2 329/5/2
f 307/4/2 319/4/2 330/4/2
f 319/2/2 320/2/2 331/2/2
f 330/4/2 319/4/2 331/4/2
f 320/1/2 293/1/2 332/1/2
f 331/2/2 320/2/2 332/2/2
f 332/1/2 293/1/2 333/1/2
f 322/4/2 323/4/2 334/4/2
f 323/4/2 324/4/2 334/4/2
f 324/4/2 325/4/2 334/4/2
f 325/2/2 326/2/2 334/2/2
f 326/5/2 327/5/2 335/5/2
f 334/2/2 326/2/2 335/2/2
f 327/4/2 314/4/2 336/4/2
f 335/5/2 327/5/2 336/5/2
f 314/2/2 328/2/2 337/2/2
f 336/4/2 314/4/2 337/4/2
f 337/2/2 328/2/2 338/2/2
f 317/2/2 318/2/2 339/2/2
f 330/2/2 331/2/2 340/2/2
f 332/2/2 333/2/2 340/2/2
f 331/2/2 332/2/2 340/2/2
f 340/2/2 333/2/2 341/2/2
f 334/4/2 335/4/2 342/4/2
f 335/2/2 336/2/2 342/2/2
f 337/5/2 338/5/2 343/5/2
f 342/2/2 336/2/2 343/2/2
f 336/5/2 337/5/2 343/5/2
f 343/5/2 338/5/2 344/5/2
f 338/2/2 328/2/2 345/2/2
f 344/5/2 338/5/2 345/5/2
f 328/4/2 329/4/2 346/4/2
f 345/2/2 328/2/2 346/2/2
f 329/4/2 317/4/2 347/4/2
f 346/4/2 329/4/2 347/4/2
f 317/2/2 339/2/2 347/2/2
f 347/2/2 339/2/2 348/2/2
f 341/2/2 333/2/2 349/2/2
f 340/4/2 341/4/2 349/4/2
f 349/2/2 333/2/2 350/2/2
f 343/2/2 344/2/2 351/2/2
f 344/5/2 345/5/2 351/5/2
f 345/4/2 346/4/2 352/4/2
f 351/5/2 345/5/2 352/5/2
f 347/4/2 348/4/2 352/4/2
f 346/4/2 347/4/2 352/4/2
f 352/4/2 348/4/2 353/4/2
f 353/4/2 348/4/2 354/4/2
f 340/4/2 349/4/2 357/4/2
f 349/4/2 350/4/2 357/4/2
f 357/4/2 350/4/2 358/4/2
f 321/2/2 322/2/2 359/2/2
f 322/4/2 334/4/2 360/4/2
f 359/2/2 322/2/2 360/2/2
f 342/4/2 343/4/2 360/4/2
f 334/4/2 342/4/2 360/4/2
f 360/4/2 343/4/2 361/4/2
f 361/4/2 343/4/2 362/4/2
f 343/2/2 351/2/2 363/2/2
f 362/4/2 343/4/2 363/4/2
f 351/4/2 352/4/2 364/4/2
f 363/2/2 351/2/2 364/2/2
f 352/2/2 353/2/2 365/2/2
f 364/4/2 352/4/2 365/4/2
f 353/4/2 354/4/2 366/4/2
f 365/2/2 353/2/2 366/2/2
f 366/4/2 354/4/2 367/4/2
f 367/4/2 354/4/2 368/4/2
f 354/2/2 355/2/2 369/2/2
f 368/4/2 354/4/2 369/4/2
f 369/2/2 355/2/2 370/2/2
f 356/4/2 357/4/2 375/4/2
f 357/1/2 358/1/2 376/1/2
f 375/4/2 357/4/2 376/4/2
f 376/1/2 358/1/2 377/1/2
f 358/4/2 350/4/2 378/4/2
f 377/1/2 358/1/2 378/1/2
f 378/4/2 350/4/2 379/4/2
f 359/1/2 360/1/2 380/1/2
f 360/4/2 361/4/2 380/4/2
f 361/5/2 362/5/2 381/5/2
f 380/4/2 361/4/2 381/4/2
f 364/4/2 365/4/2 382/4/2
f 381/5/2 362/5/2 382/5/2
f 362/4/2 363/4/2 382/4/2
f 363/4/2 364/4/2 382/4/2
f 365/4/2 366/4/2 382/4/2
f 382/4/2 366/4/2 383/4/2
f 383/4/2 366/4/2 384/4/2
f 384/4/2 366/4/2 385/4/2
f 367/4/2 368/4/2 386/4/2
f 366/5/2 367/5/2 386/5/2
f 368/2/2 369/2/2 387/2/2
f 386/4/2 368/4/2 387/4/2
f 369/4/2 370/4/2 388/4/2
f 387/2/2 369/2/2 388/2/2
f 370/2/2 371/2/2 389/2/2
f 388/4/2 370/4/2 389/4/2
f 371/2/2 372/2/2 389/2/2
f 372/1/2 373/1/2 390/1/2
f 389/2/2 372/2/2 390/2/2
f 373/4/2 374/4/2 391/4/2
f 390/1/2 373/1/2 391/1/2
f 374/2/2 375/2/2 392/2/2
f 391/4/2 374/4/2 392/4/2
f 376/4/2 377/4/2 393/4/2
f 392/2/2 375/2/2 393/2/2
f 375/4/2 376/4/2 393/4/2
f 377/2/2 378/2/2 394/2/2
f 393/4/2 377/4/2 394/4/2
f 378/1/2 379/1/2 395/1/2
f 394/2/2 378/2/2 395/2/2
f 382/5/2 383/5/2 396/5/2
f 381/2/2 382/2/2 396/2/2
f 383/4/2 384/4/2 397/4/2
f 396/5/2 383/5/2 397/5/2
f 384/2/2 385/2/2 398/2/2
f 397/4/2 384/4/2 398/4/2
f 385/4/2 366/4/2 399/4/2
f 398/2/2 385/2/2 399/2/2
f 366/5/2 386/5/2 400/5/2
f 399/4/2 366/4/2 400/4/2
f 386/5/2 387/5/2 400/5/2
f 400/5/2 387/5/2 401/5/2
f 390/4/2 391/4/2 402/4/2
f 401/5/2 387/5/2 402/5/2
f 391/4/2 392/4/2 402/4/2
f 389/4/2 390/4/2 402/4/2
f 388/4/2 389/4/2 402/4/2
f 392/4/2 393/4/2 402/4/2
f 387/4/2 388/4/2 402/4/2
f 393/4/2 394/4/2 402/4/2
f 402/4/2 394/4/2 403/4/2
f 403/4/2 394/4/2 404/4/2
f 404/4/2 394/4/2 405/4/2
f 405/4/2 394/4/2 406/4/2
f 406/4/2 394/4/2 407/4/2
f 394/1/2 395/1/2 408/1/2
f 407/4/2 394/4/2 408/4/2
f 359/1/2 380/1/2 409/1/2
f 380/1/2 381/1/2 409/1/2
f 409/1/2 381/1/2 410/1/2
f 381/2/2 396/2/2 411/2/2
f 410/1/2 381/1/2 411/1/2
f 396/2/2 397/2/2 411/2/2
f 411/2/2 397/2/2 412/2/2
f 397/4/2 398/4/2 413/4/2
f 412/2/2 397/2/2 413/2/2
f 399/4/2 400/4/2 413/4/2
f 398/4/2 399/4/2 413/4/2
f 413/4/2 400/4/2 414/4/2
f 414/4/2 400/4/2 415/4/2
f 401/4/2 402/4/2 416/4/2
f 402/4/2 403/4/2 416/4/2
f 403/5/2 404/5/2 417/5/2
f 416/4/2 403/4/2 417/4/2
f 404/2/2 405/2/2 418/2/2
f 417/5/2 404/5/2 418/5/2
f 405/4/2 406/4/2 419/4/2
f 418/2/2 405/2/2 419/2/2
f 419/4/2 406/4/2 420/4/2
f 406/2/2 407/2/2 421/2/2
f 420/4/2 406/4/2 421/4/2
f 407/1/2 408/1/2 422/1/2
f 421/2/2 407/2/2 422/2/2
f 408/1/2 395/1/2 423/1/2
f 422/1/2 408/1/2 423/1/2
f 395/1/2 379/1/2 424/1/2
f 423/1/2 395/1/2 424/1/2
f 424/1/2 379/1/2 425/1/2
f 409/2/2 410/2/2 426/2/2
f 410/1/2 411/1/2 427/1/2
f 426/2/2 410/2/2 427/2/2
f 411/4/2 412/4/2 428/4/2
f 427/1/2 411/1/2 428/1/2
f 412/1/2 413/1/2 429/1/2
f 428/4/2 412/4/2 429/4/2
f 413/4/2 414/4/2 430/4/2
f 429/1/2 413/1/2 430/1/2
f 430/4/2 414/4/2 431/4/2
f 414/2/2 415/2/2 432/2/2
f 431/4/2 414/4/2 432/4/2
f 415/4/2 400/4/2 433/4/2
f 432/2/2 415/2/2 433/2/2
f 400/2/2 401/2/2 434/2/2
f 433/4/2 400/4/2 434/4/2
f 401/4/2 416/4/2 435/4/2
f 434/2/2 401/2/2 435/2/2
f 419/2/2 420/2/2 436/2/2
f 435/4/2 416/4/2 436/4/2
f 417/2/2 418/2/2 436/2/2
f 416/2/2 417/2/2 436/2/2
f 418/2/2 419/2/2 436/2/2
f 436/2/2 420/2/2 437/2/2
f 420/4/2 421/4/2 438/4/2
f 437/2/2 420/2/2 438/2/2
f 421/1/2 422/1/2 439/1/2
f 438/4/2 421/4/2 439/4/2
f 422/2/2 423/2/2 440/2/2
f 439/1/2 422/1/2 440/1/2
f 423/1/2 424/1/2 441/1/2
f 440/2/2 423/2/2 441/2/2
f 424/2/2 425/2/2 442/2/2
f 441/1/2 424/1/2 442/1/2
f 442/2/2 425/2/2 443/2/2
f 446/6/2 447/6/2 448/6/2
f 448/6/2 447/6/2 449/6/2
f 444/3/2 445/3/2 450/3/2
f 450/3/2 445/3/2 451/3/2
f 450/6/2 451/6/2 452/6/2
f 452/6/2 451/6/2 453/6/2
f 448/3/2 449/3/2 454/3/2
f 454/3/2 449/3/2 455/3/2
f 452/3/2 453/3/2 456/3/2
f 456/3/2 453/3/2 457/3/2
f 454/6/2 455/6/2 458/6/2
f 458/6/2 455/6/2 459/6/2
f 456/6/2 457/6/2 460/6/2
f 460/6/2 457/6/2 461/6/2
f 458/3/2 459/3/2 462/3/2
f 462/3/2 459/3/2 463/3/2
f 460/3/2 461/3/2 464/3/2
f 464/3/2 461/3/2 465/3/2
f 464/6/2 465/6/2 466/6/2
f 462/6/2 463/6/2 469/6/2
f 464/6/2 466/6/2 470/6/2
f 466/3/2 467/3/2 471/3/2
f 470/6/2 466/6/2 471/6/2
f 471/3/2 467/3/2 472/3/2
f 468/3/2 469/3/2 474/3/2
f 469/6/2 463/6/2 475/6/2
f 474/3/2 469/3/2 475/3/2
f 475/6/2 463/6/2 476/6/2
f 471/6/2 472/6/2 477/6/2
f 472/3/2 473/3/2 478/3/2
f 477/6/2 472/6/2 478/6/2
f 473/6/2 474/6/2 479/6/2
f 478/3/2 473/3/2 479/3/2
f 474/6/2 475/6/2 479/6/2
f 479/6/2 475/6/2 480/6/2
f 481/6/2 482/6/2 488/6/2
f 488/6/2 482/6/2 489/6/2
f 489/6/2 482/6/2 490/6/2
f 482/3/2 483/3/2 491/3/2
f 490/6/2 482/6/2 491/6/2
f 483/6/2 484/6/2 492/6/2
f 491/3/2 483/3/2 492/3/2
f 492/6/2 484/6/2 493/6/2
f 493/6/2 484/6/2 494/6/2
f 494/6/2 484/6/2 495/6/2
f 484/3/2 485/3/2 496/3/2
f 495/6/2 484/6/2 496/6/2
f 485/6/2 486/6/2 497/6/2
f 496/3/2 485/3/2 497/3/2
f 486/3/2 487/3/2 498/3/2
f 497/6/2 486/6/2 498/6/2
f 498/3/2 487/3/2 499/3/2
f 499/3/2 487/3/2 500/3/2
f 500/3/2 487/3/2 501/3/2
f 501/3/2 487/3/2 502/3/2
f 488/3/2 489/3/2 503/3/2
f 489/6/2 490/6/2 504/6/2
f 503/3/2 489/3/2 504/3/2
f 490/3/2 491/3/2 505/3/2
f 504/6/2 490/6/2 505/6/2
f 491/3/2 492/3/2 505/3/2
f 492/3/2 493/3/2 505/3/2
f 493/6/2 494/6/2 506/6/2
f 505/3/2 493/3/2 506/3/2
f 494/3/2 495/3/2 507/3/2
f 506/6/2 494/6/2 507/6/2
f 495/6/2 496/6/2 508/6/2
f 507/3/2 495/3/2 508/3/2
f 496/6/2 497/6/2 508/6/2
f 497/3/2 498/3/2 509/3/2
f 508/6/2 497/6/2 509/6/2
f 498/3/2 499/3/2 509/3/2
f 499/6/2 500/6/2 510/6/2
f 509/3/2 499/3/2 510/3/2
f 500/3/2 501/3/2 511/3/2
f 510/6/2 500/6/2 511/6/2
f 501/6/2 502/6/2 512/6/2
f 511/3/2 501/3/2 512/3/2
f 512/6/2 502/6/2 513/6/2
f 519/1/3 515/1/3 514/1/3
f 520/2/3 516/2/3 515/2/3
f 520/1/3 515/1/3 519/1/3
f 521/1/3 517/1/3 516/1/3
f 521/2/3 516/2/3 520/2/3
f 522/2/3 518/2/3 517/2/3
f 522/1/3 517/1/3 521/1/3
f 523/2/3 518/2/3 522/2/3
f 528/6/3 525/6/3 524/6/3
f 529/1/3 527/1/3 526/1/3
f 530/1/3 527/1/3 529/1/3
f 531/6/3 525/6/3 528/6/3
f 532/6/3 525/6/3 531/6/3
f 533/6/3 525/6/3 532/6/3
f 534/6/3 532/6/3 531/6/3
f 535/3/3 533/3/3 532/3/3
f 535/6/3 532/6/3 534/6/3
f 536/3/3 533/3/3 535/3/3
f 543/6/3 538/6/3 537/6/3
f 544/3/3 539/3/3 538/3/3
f 544/6/3 538/6/3 543/6/3
f 545/6/3 540/6/3 539/6/3
f 545/3/3 539/3/3 544/3/3
f 546/6/3 540/6/3 545/6/3
f 547/6/3 540/6/3 546/6/3
f 548/3/3 541/3/3 540/3/3
f 548/6/3 540/6/3 547/6/3
f 549/6/3 542/6/3 541/6/3
f 549/3/3 541/3/3 548/3/3
f 550/6/3 542/6/3 549/6/3
f 560/3/3 552/3/3 551/3/3
f 561/6/3 553/6/3 552/6/3
f 561/3/3 552/3/3 560/3/3
f 562/3/3 554/3/3 553/3/3
f 562/6/3 553/6/3 561/6/3
f 563/6/3 555/6/3 554/6/3
f 563/3/3 554/3/3 562/3/3
f 563/6/3 556/6/3 555/6/3
f 564/3/3 557/3/3 556/3/3
f 564/6/3 556/6/3 563/6/3
f 565/6/3 559/6/3 558/6/3
f 565/3/3 557/3/3 564/3/3
f 565/6/3 558/6/3 557/6/3
f 566/6/3 559/6/3 565/6/3
f 569/3/3 568/3/3 567/3/3
f 570/3/3 568/3/3 569/3/3
f 573/6/3 572/6/3 571/6/3
f 574/6/3 572/6/3 573/6/3
f 577/6/3 576/6/3 575/6/3
f 578/6/3 577/6/3 575/6/3
f 579/6/3 577/6/3 578/6/3
f 580/3/3 579/3/3 578/3/3
f 581/3/3 579/3/3 580/3/3
f 588/6/3 583/6/3 582/6/3
f 589/3/3 584/3/3 583/3/3
f 589/6/3 583/6/3 588/6/3
f 590/6/3 585/6/3 584/6/3
f 590/3/3 584/3/3 589/3/3
f 591/3/3 586/3/3 585/3/3
f 591/6/3 585/6/3 590/6/3
f 592/3/3 586/3/3 591/3/3
f 593/6/3 587/6/3 586/6/3
f 593/3/3 586/3/3 592/3/3
f 594/6/3 587/6/3 593/6/3
f 595/6/3 587/6/3 594/6/3
f 597/6/3 590/6/3 589/6/3
f 598/3/3 592/3/3 591/3/3
f 598/3/3 591/3/3 590/3/3
f 598/6/3 590/6/3 597/6/3
f 599/3/3 592/3/3 598/3/3
f 600/3/3 592/3/3 599/3/3
f 601/6/3 593/6/3 592/6/3
f 601/3/3 592/3/3 600/3/3
f 601/6/3 594/6/3 593/6/3
f 602/6/3 594/6/3 601/6/3
f 603/3/3 595/3/3 594/3/3
f 603/6/3 594/6/3 602/6/3
f 604/3/3 595/3/3 603/3/3
f 605/6/3 597/6/3 596/6/3
f 606/3/3 599/3/3 598/3/3
f 606/6/3 597/6/3 605/6/3
f 606/3/3 598/3/3 597/3/3
f 607/6/3 600/6/3 599/6/3
f 607/3/3 599/3/3 606/3/3
f 608/3/3 602/3/3 601/3/3
f 608/6/3 600/6/3 607/6/3
f 608/3/3 601/3/3 600/3/3
f 609/6/3 604/6/3 603/6/3
f 609/3/3 602/3/3 608/3/3
f 609/6/3 603/6/3 602/6/3
f 610/6/3 604/6/3 609/6/3
f 611/6/4 612/6/4 616/6/4
f 612/3/4 613/3/4 617/3/4
f 616/6/4 612/6/4 617/6/4
f 617/3/4 613/3/4 618/3/4
f 613/6/4 614/6/4 619/6/4
f 618/3/4 613/3/4 619/3/4
f 619/6/4 614/6/4 620/6/4
f 614/3/4 615/3/4 621/3/4
f 620/6/4 614/6/4 621/6/4
f 621/3/4 615/3/4 622/3/4
f 622/3/4 615/3/4 623/3/4
f 617/6/4 618/6/4 625/6/4
f 619/3/4 620/3/4 626/3/4
f 618/3/4 619/3/4 626/3/4
f 625/6/4 618/6/4 626/6/4
f 626/3/4 620/3/4 627/3/4
f 627/3/4 620/3/4 628/3/4
f 620/6/4 621/6/4 629/6/4
f 628/3/4 620/3/4 629/3/4
f 621/6/4 622/6/4 629/6/4
f 622/3/4 623/3/4 630/3/4
f 629/6/4 622/6/4 630/6/4
f 630/3/4 623/3/4 631/3/4
f 624/3/4 625/3/4 632/3/4
f 625/3/4 626/3/4 632/3/4
f 626/6/4 627/6/4 633/6/4
f 632/3/4 626/3/4 633/3/4
f 627/3/4 628/3/4 634/3/4
f 633/6/4 627/6/4 634/6/4
f 628/6/4 629/6/4 635/6/4
f 634/3/4 628/3/4 635/3/4
f 629/3/4 630/3/4 636/3/4
f 635/6/4 629/6/4 636/6/4
f 630/6/4 631/6/4 637/6/4
f 636/3/4 630/3/4 637/3/4
f 637/6/4 631/6/4 638/6/4
f 639/6/4 640/6/4 641/6/4
f 641/6/4 640/6/4 642/6/4
f 641/3/4 642/3/4 643/3/4
f 641/3/4 643/3/4 644/3/4
f 644/3/4 643/3/4 645/3/4
f 646/3/4 647/3/4 648/3/4
f 648/3/4 647/3/4 649/3/4
f 650/6/4 651/6/4 652/6/4
f 652/6/4 651/6/4 653/6/4
f 654/6/4 655/6/4 660/6/4
f 655/3/4 656/3/4 661/3/4
f 660/6/4 655/6/4 661/6/4
f 656/6/4 657/6/4 662/6/4
f 661/3/4 656/3/4 662/3/4
f 662/6/4 657/6/4 663/6/4
f 663/6/4 657/6/4 664/6/4
f 657/3/4 658/3/4 665/3/4
f 664/6/4 657/6/4 665/6/4
f 658/6/4 659/6/4 666/6/4
f 665/3/4 658/3/4 666/3/4
f 666/6/4 659/6/4 667/6/4
f 667/6/4 659/6/4 668/6/4
f 669/6/4 670/6/4 677/6/4
f 670/3/4 671/3/4 678/3/4
f 677/6/4 670/6/4 678/6/4
f 671/6/4 672/6/4 679/6/4
f 678/3/4 671/3/4 679/3/4
f 672/3/4 673/3/4 680/3/4
f 679/6/4 672/6/4 680/6/4
f 673/3/4 674/3/4 680/3/4
f 675/6/4 676/6/4 681/6/4
f 680/3/4 674/3/4 681/3/4
f 674/6/4 675/6/4 681/6/4
f 681/6/4 676/6/4 682/6/4
f 683/6/4 684/6/4 688/6/4
f 686/1/4 687/1/4 689/1/4
f 689/1/4 687/1/4 690/1/4
f 688/6/4 684/6/4 691/6/4
f 684/3/4 685/3/4 692/3/4
f 691/6/4 684/6/4 692/6/4
f 692/3/4 685/3/4 693/3/4
f 691/3/4 692/3/4 694/3/4
f 692/6/4 693/6/4 695/6/4
f 694/3/4 692/3/4 695/3/4
f 695/6/4 693/6/4 696/6/4
f 697/1/4 698/1/4 703/1/4
f 698/2/4 699/2/4 704/2/4
f 703/1/4 698/1/4 704/1/4
f 699/4/4 700/4/4 705/4/4
f 704/2/4 699/2/4 705/2/4
f 700/1/4 701/1/4 706/1/4
f 705/4/4 700/4/4 706/4/4
f 701/2/4 702/2/4 707/2/4
f 706/1/4 701/1/4 707/1/4
f 707/2/4 702/2/4 708/2/4
f 711/1/5 710/1/5 709/1/5
f 712/1/5 710/1/5 711/1/5
f 713/2/5 712/2/5 711/2/5
f 714/2/5 712/2/5 713/2/5
f 715/1/5 714/1/5 713/1/5
f 716/1/5 714/1/5 715/1/5
f 717/2/5 716/2/5 715/2/5
f 718/2/5 716/2/5 717/2/5
f 720/1/5 718/1/5 717/1/5
f 721/1/5 718/1/5 720/1/5
f 723/6/5 721/6/5 720/6/5
f 723/6/5 720/6/5 719/6/5
f 724/6/5 721/6/5 723/6/5
f 725/3/5 722/3/5 721/3/5
f 725/6/5 721/6/5 724/6/5
f 726/3/5 722/3/5 725/3/5
f 727/6/5 725/6/5 724/6/5
f 728/6/5 725/6/5 727/6/5
f 729/3/5 728/3/5 727/3/5
f 730/3/5 728/3/5 729/3/5
f 732/6/5 730/6/5 729/6/5
f 733/6/5 730/6/5 732/6/5
f 735/6/5 733/6/5 732/6/5
f 735/6/5 734/6/5 733/6/5
f 735/6/5 732/6/5 731/6/5
f 736/6/5 734/6/5 735/6/5
f 737/6/5 734/6/5 736/6/5
f 738/6/5 734/6/5 737/6/5
f 739/1/5 737/1/5 736/1/5
f 740/1/5 737/1/5 739/1/5
f 743/1/5 742/1/5 741/1/5
f 744/1/5 742/1/5 743/1/5
f 747/1/5 746/1/5 745/1/5
f 748/1/5 746/1/5 747/1/5
f 753/6/5 750/6/5 749/6/5
f 754/3/5 752/3/5 751/3/5
f 754/6/5 750/6/5 753/6/5
f 754/3/5 751/3/5 750/3/5
f 755/3/5 752/3/5 754/3/5
f 759/6/5 757/6/5 756/6/5
f 760/6/5 757/6/5 759/6/5
f 761/3/5 758/3/5 757/3/5
f 761/6/5 757/6/5 760/6/5
f 762/3/5 758/3/5 761/3/5
f 767/3/5 764/3/5 763/3/5
f 768/6/5 765/6/5 764/6/5
f 768/3/5 764/3/5 767/3/5
f 769/3/5 766/3/5 765/3/5
f 769/6/5 765/6/5 768/6/5
f 770/3/5 766/3/5 769/3/5
f 771/6/5 768/6/5 767/6/5
f 772/3/5 769/3/5 768/3/5
f 772/6/5 768/6/5 771/6/5
f 773/6/5 770/6/5 769/6/5
f 773/3/5 769/3/5 772/3/5
f 774/6/5 770/6/5 773/6/5
f 779/6/5 776/6/5 775/6/5
f 780/6/5 776/6/5 779/6/5
f 781/6/5 778/6/5 777/6/5
f 782/3/5 780/3/5 779/3/5
f 783/6/5 778/6/5 781/6/5
f 784/3/5 782/3/5 779/3/5
f 785/6/5 778/6/5 783/6/5
f 786/6/5 778/6/5 785/6/5
f 787/3/5 786/3/5 785/3/5
f 788/3/5 786/3/5 787/3/5
f 789/3/5 784/3/5 779/3/5
f 790/3/5 784/3/5 789/3/5
f 791/6/5 788/6/5 787/6/5
f 792/6/5 790/6/5 789/6/5
f 793/6/5 788/6/5 791/6/5
f 794/6/5 792/6/5 789/6/5
f 795/6/5 788/6/5 793/6/5
f 796/6/5 794/6/5 789/6/5
f 797/6/5 788/6/5 795/6/5
f 798/6/5 788/6/5 797/6/5
f 799/6/5 796/6/5 789/6/5
f 800/3/5 798/3/5 797/3/5
f 801/3/5 798/3/5 800/3/5
f 802/6/5 799/6/5 789/6/5
f 803/6/5 799/6/5 802/6/5
f 804/6/5 801/6/5 800/6/5
f 805/6/5 801/6/5 804/6/5
f 806/3/5 803/3/5 802/3/5
f 807/3/5 803/3/5 806/3/5
f 808/6/5 807/6/5 806/6/5
f 809/3/5 805/3/5 804/3/5
f 810/6/5 808/6/5 806/6/5
f 811/3/5 805/3/5 809/3/5
f 812/6/5 810/6/5 806/6/5
f 813/3/5 805/3/5 811/3/5
f 814/6/5 812/6/5 806/6/5
f 815/3/5 805/3/5 813/3/5
f 816/6/5 814/6/5 806/6/5
f 817/6/5 814/6/5 816/6/5
f 818/3/5 805/3/5 815/3/5
f 819/3/5 805/3/5 818/3/5
f 820/6/6 821/6/6 822/6/6
f 822/6/6 821/6/6 823/6/6
f 822/3/6 823/3/6 824/3/6
f 824/3/6 823/3/6 825/3/6
f 824/6/6 825/6/6 826/6/6
f 826/6/6 825/6/6 827/6/6
f 828/6/6 829/6/6 832/6/6
f 832/6/6 829/6/6 833/6/6
f 830/6/6 831/6/6 834/6/6
f 834/6/6 831/6/6 835/6/6
f 836/6/6 837/6/6 840/6/6
f 840/6/6 837/6/6 841/6/6
f 838/6/6 839/6/6 842/6/6
f 842/6/6 839/6/6 843/6/6
f 846/6/6 847/6/6 848/6/6
f 848/6/6 847/6/6 849/6/6
f 844/3/6 845/3/6 850/3/6
f 848/3/6 849/3/6 851/3/6
f 844/3/6 850/3/6 852/3/6
f 852/3/6 850/3/6 853/3/6
f 851/3/6 849/3/6 854/3/6
f 854/3/6 849/3/6 855/3/6
f 852/6/6 853/6/6 856/6/6
f 856/6/6 853/6/6 857/6/6
f 854/6/6 855/6/6 858/6/6
f 856/3/6 857/3/6 859/3/6
f 859/3/6 857/3/6 860/3/6
f 858/6/6 855/6/6 861/6/6
f 861/6/6 855/6/6 862/6/6
f 863/2/6 864/2/6 865/2/6
f 865/2/6 864/2/6 866/2/6
f 867/2/6 868/2/6 869/2/6
f 869/2/6 868/2/6 870/2/6
f 871/6/6 872/6/6 874/6/6
f 872/3/6 873/3/6 875/3/6
f 874/6/6 872/6/6 875/6/6
f 875/3/6 873/3/6 876/3/6
f 874/3/6 875/3/6 877/3/6
f 877/3/6 875/3/6 878/3/6
f 875/6/6 876/6/6 879/6/6
f 878/3/6 875/3/6 879/3/6
f 879/6/6 876/6/6 880/6/6
f 877/6/6 878/6/6 881/6/6
f 878/3/6 879/3/6 882/3/6
f 881/6/6 878/6/6 882/6/6
f 879/3/6 880/3/6 882/3/6
f 882/3/6 880/3/6 883/3/6
f 883/3/6 880/3/6 884/3/6
f 881/3/6 882/3/6 885/3/6
f 882/3/6 883/3/6 885/3/6
f 883/6/6 884/6/6 886/6/6
f 885/3/6 883/3/6 886/3/6
f 881/3/6 885/3/6 887/3/6
f 885/6/6 886/6/6 888/6/6
f 887/3/6 885/3/6 888/3/6
f 886/6/6 884/6/6 889/6/6
f 888/6/6 886/6/6 889/6/6
f 889/6/6 884/6/6 890/6/6
f 887/6/6 888/6/6 891/6/6
f 888/6/6 889/6/6 891/6/6
f 889/3/6 890/3/6 892/3/6
f 891/6/6 889/6/6 892/6/6
f 892/3/6 890/3/6 893/3/6
f 887/6/6 891/6/6 894/6/6
f 891/3/6 892/3/6 895/3/6
f 894/6/6 891/6/6 895/6/6
f 892/6/6 893/6/6 896/6/6
f 895/3/6 892/3/6 896/3/6
f 895/6/6 896/6/6 897/6/6
f 896/6/6 893/6/6 897/6/6
f 897/6/6 893/6/6 898/6/6
f 894/3/6 895/3/6 899/3/6
f 895/6/6 897/6/6 900/6/6
f 899/3/6 895/3/6 900/3/6
f 897/3/6 898/3/6 901/3/6
f 900/6/6 897/6/6 901/6/6
f 901/3/6 898/3/6 902/3/6
f 899/6/6 900/6/6 903/6/6
f 900/3/6 901/3/6 904/3/6
f 903/6/6 900/6/6 904/6/6
f 901/6/6 902/6/6 905/6/6
f 904/3/6 901/3/6 905/3/6
f 905/6/6 902/6/6 906/6/6
f 903/3/6 904/3/6 907/3/6
f 904/3/6 905/3/6 907/3/6
f 905/3/6 906/3/6 907/3/6
f 907/3/6 906/3/6 908/3/6
f 907/6/6 908/6/6 909/6/6
f 908/3/6 906/3/6 910/3/6
f 909/6/6 908/6/6 910/6/6
f 910/3/6 906/3/6 911/3/6
f 909/3/6 910/3/6 912/3/6
f 910/6/6 911/6/6 912/6/6
f 912/6/6 911/6/6 913/6/6
f 909/3/6 912/3/6 914/3/6
f 912/3/6 913/3/6 914/3/6
f 913/6/6 911/6/6 915/6/6
f 914/3/6 913/3/6 915/3/6
f 915/6/6 911/6/6 916/6/6
