# MagicaVoxel @ Ephtracy

# group
o 

# material
mtllib SmithingHousePillar2TEX.mtl
usemtl palette

# normals
vn -1 0 0
vn 1 0 0
vn 0 0 1
vn 0 0 -1
vn 0 -1 0
vn 0 1 0

# texcoords
vt 0.958984 0.5
vt 0.962891 0.5
vt 0.982422 0.5

# verts
v 0 2 -0.1
v 0 2 -0.3
v 0 2 -0.4
v 0 2.1 -0.1
v 0 2.1 -0.3
v 0 2.3 -0.1
v 0 2.3 -0.4
v 0 3.5 -0.1
v 0 3.5 -0.4
v 0 3.7 -0.1
v 0 3.7 -0.4
v 0.1 2 0
v 0.1 2 -0.1
v 0.1 2 -0.4
v 0.1 2 -0.5
v 0.1 2.1 -0.1
v 0.1 2.2 0
v 0.1 2.2 -0.1
v 0.1 2.3 0
v 0.1 2.3 -0.1
v 0.1 2.3 -0.4
v 0.1 2.3 -0.5
v 0.1 2.4 -0.1
v 0.1 2.4 -0.2
v 0.1 2.5 -0.2
v 0.1 2.5 -0.4
v 0.1 2.6 -0.3
v 0.1 2.6 -0.4
v 0.1 2.7 -0.1
v 0.1 2.7 -0.2
v 0.1 2.8 -0.1
v 0.1 2.8 -0.2
v 0.1 3 -0.1
v 0.1 3 -0.2
v 0.1 3.1 -0.2
v 0.1 3.1 -0.3
v 0.1 3.2 -0.2
v 0.1 3.2 -0.3
v 0.1 3.2 -0.4
v 0.1 3.3 -0.1
v 0.1 3.3 -0.3
v 0.1 3.3 -0.4
v 0.1 3.4 -0.3
v 0.1 3.4 -0.4
v 0.1 3.5 0
v 0.1 3.5 -0.1
v 0.1 3.5 -0.4
v 0.1 3.5 -0.5
v 0.1 3.7 0
v 0.1 3.7 -0.1
v 0.1 3.7 -0.4
v 0.1 3.7 -0.5
v 0.4 2 0
v 0.4 2 -0.1
v 0.4 2 -0.4
v 0.4 2 -0.5
v 0.4 2.1 -0.1
v 0.4 2.2 0
v 0.4 2.2 -0.1
v 0.4 2.2 -0.4
v 0.4 2.2 -0.5
v 0.4 2.3 0
v 0.4 2.3 -0.1
v 0.4 2.3 -0.2
v 0.4 2.3 -0.4
v 0.4 2.3 -0.5
v 0.4 2.5 -0.1
v 0.4 2.5 -0.2
v 0.4 2.5 -0.3
v 0.4 2.5 -0.4
v 0.4 2.6 -0.3
v 0.4 2.6 -0.4
v 0.4 2.7 -0.1
v 0.4 2.7 -0.2
v 0.4 2.9 -0.3
v 0.4 2.9 -0.4
v 0.4 3 -0.1
v 0.4 3 -0.2
v 0.4 3 -0.3
v 0.4 3 -0.4
v 0.4 3.2 -0.1
v 0.4 3.2 -0.2
v 0.4 3.3 -0.1
v 0.4 3.3 -0.2
v 0.4 3.3 -0.3
v 0.4 3.3 -0.4
v 0.4 3.4 -0.2
v 0.4 3.4 -0.3
v 0.4 3.5 0
v 0.4 3.5 -0.1
v 0.4 3.5 -0.2
v 0.4 3.5 -0.3
v 0.4 3.5 -0.4
v 0.4 3.5 -0.5
v 0.4 3.6 0
v 0.4 3.6 -0.1
v 0.4 3.7 0
v 0.4 3.7 -0.1
v 0.4 3.7 -0.4
v 0.4 3.7 -0.5
v 0.5 2 -0.1
v 0.5 2 -0.3
v 0.5 2 -0.4
v 0.5 2.1 -0.1
v 0.5 2.1 -0.2
v 0.5 2.2 -0.3
v 0.5 2.2 -0.4
v 0.5 2.3 -0.1
v 0.5 2.3 -0.2
v 0.5 2.3 -0.4
v 0.5 3.5 -0.1
v 0.5 3.5 -0.2
v 0.5 3.5 -0.3
v 0.5 3.5 -0.4
v 0.5 3.6 -0.1
v 0.5 3.6 -0.2
v 0.5 3.6 -0.3
v 0.5 3.7 -0.1
v 0.5 3.7 -0.2
v 0.5 3.7 -0.4
v 0.1 2 0
v 0.1 2.2 0
v 0.1 2.3 0
v 0.1 3.5 0
v 0.1 3.7 0
v 0.2 2.1 0
v 0.2 2.2 0
v 0.2 3.6 0
v 0.2 3.7 0
v 0.3 2 0
v 0.3 2.1 0
v 0.3 2.2 0
v 0.3 2.3 0
v 0.4 2 0
v 0.4 2.2 0
v 0.4 2.3 0
v 0.4 3.5 0
v 0.4 3.6 0
v 0.4 3.7 0
v 0 2 -0.1
v 0 2.1 -0.1
v 0 2.3 -0.1
v 0 3.5 -0.1
v 0 3.7 -0.1
v 0.1 2 -0.1
v 0.1 2.1 -0.1
v 0.1 2.2 -0.1
v 0.1 2.3 -0.1
v 0.1 2.4 -0.1
v 0.1 2.7 -0.1
v 0.1 2.8 -0.1
v 0.1 3 -0.1
v 0.1 3.3 -0.1
v 0.1 3.5 -0.1
v 0.1 3.7 -0.1
v 0.2 2.4 -0.1
v 0.2 2.5 -0.1
v 0.2 2.7 -0.1
v 0.2 2.8 -0.1
v 0.2 3 -0.1
v 0.2 3.1 -0.1
v 0.2 3.2 -0.1
v 0.2 3.3 -0.1
v 0.3 2.3 -0.1
v 0.3 2.7 -0.1
v 0.3 2.8 -0.1
v 0.3 3.1 -0.1
v 0.3 3.2 -0.1
v 0.3 3.3 -0.1
v 0.4 2 -0.1
v 0.4 2.1 -0.1
v 0.4 2.2 -0.1
v 0.4 2.3 -0.1
v 0.4 2.5 -0.1
v 0.4 2.7 -0.1
v 0.4 3 -0.1
v 0.4 3.2 -0.1
v 0.4 3.3 -0.1
v 0.4 3.5 -0.1
v 0.4 3.6 -0.1
v 0.4 3.7 -0.1
v 0.5 2 -0.1
v 0.5 2.1 -0.1
v 0.5 2.3 -0.1
v 0.5 3.5 -0.1
v 0.5 3.6 -0.1
v 0.5 3.7 -0.1
v 0 2 -0.4
v 0 2.3 -0.4
v 0 3.5 -0.4
v 0 3.7 -0.4
v 0.1 2 -0.4
v 0.1 2.3 -0.4
v 0.1 2.5 -0.4
v 0.1 2.6 -0.4
v 0.1 3.2 -0.4
v 0.1 3.3 -0.4
v 0.1 3.4 -0.4
v 0.1 3.5 -0.4
v 0.1 3.7 -0.4
v 0.2 2.4 -0.4
v 0.2 2.5 -0.4
v 0.2 2.7 -0.4
v 0.2 3.1 -0.4
v 0.2 3.2 -0.4
v 0.2 3.3 -0.4
v 0.2 3.4 -0.4
v 0.3 2.4 -0.4
v 0.3 2.5 -0.4
v 0.3 2.7 -0.4
v 0.3 2.9 -0.4
v 0.3 3 -0.4
v 0.3 3.1 -0.4
v 0.3 3.3 -0.4
v 0.4 2 -0.4
v 0.4 2.2 -0.4
v 0.4 2.3 -0.4
v 0.4 2.5 -0.4
v 0.4 2.6 -0.4
v 0.4 2.9 -0.4
v 0.4 3 -0.4
v 0.4 3.3 -0.4
v 0.4 3.5 -0.4
v 0.4 3.7 -0.4
v 0.5 2 -0.4
v 0.5 2.2 -0.4
v 0.5 2.3 -0.4
v 0.5 3.5 -0.4
v 0.5 3.7 -0.4
v 0.1 2 -0.5
v 0.1 2.3 -0.5
v 0.1 3.5 -0.5
v 0.1 3.7 -0.5
v 0.2 2 -0.5
v 0.2 2.2 -0.5
v 0.2 3.6 -0.5
v 0.2 3.7 -0.5
v 0.3 3.6 -0.5
v 0.3 3.7 -0.5
v 0.4 2 -0.5
v 0.4 2.2 -0.5
v 0.4 2.3 -0.5
v 0.4 3.5 -0.5
v 0.4 3.7 -0.5
v 0.1 2 0
v 0.3 2 0
v 0.4 2 0
v 0 2 -0.1
v 0.1 2 -0.1
v 0.2 2 -0.1
v 0.4 2 -0.1
v 0.5 2 -0.1
v 0 2 -0.3
v 0.1 2 -0.3
v 0.2 2 -0.3
v 0.3 2 -0.3
v 0.4 2 -0.3
v 0.5 2 -0.3
v 0 2 -0.4
v 0.1 2 -0.4
v 0.2 2 -0.4
v 0.4 2 -0.4
v 0.5 2 -0.4
v 0.1 2 -0.5
v 0.2 2 -0.5
v 0.4 2 -0.5
v 0.1 3.5 0
v 0.4 3.5 0
v 0 3.5 -0.1
v 0.1 3.5 -0.1
v 0.4 3.5 -0.1
v 0.5 3.5 -0.1
v 0.4 3.5 -0.2
v 0.5 3.5 -0.2
v 0.4 3.5 -0.3
v 0.5 3.5 -0.3
v 0 3.5 -0.4
v 0.1 3.5 -0.4
v 0.4 3.5 -0.4
v 0.5 3.5 -0.4
v 0.1 3.5 -0.5
v 0.4 3.5 -0.5
v 0.1 2.3 0
v 0.3 2.3 0
v 0.4 2.3 0
v 0 2.3 -0.1
v 0.1 2.3 -0.1
v 0.3 2.3 -0.1
v 0.4 2.3 -0.1
v 0.5 2.3 -0.1
v 0.4 2.3 -0.2
v 0.5 2.3 -0.2
v 0 2.3 -0.4
v 0.1 2.3 -0.4
v 0.4 2.3 -0.4
v 0.5 2.3 -0.4
v 0.1 2.3 -0.5
v 0.4 2.3 -0.5
v 0.1 3.7 0
v 0.2 3.7 0
v 0.4 3.7 0
v 0 3.7 -0.1
v 0.1 3.7 -0.1
v 0.3 3.7 -0.1
v 0.4 3.7 -0.1
v 0.5 3.7 -0.1
v 0.1 3.7 -0.2
v 0.2 3.7 -0.2
v 0.3 3.7 -0.2
v 0.4 3.7 -0.2
v 0.5 3.7 -0.2
v 0.2 3.7 -0.3
v 0.4 3.7 -0.3
v 0 3.7 -0.4
v 0.1 3.7 -0.4
v 0.3 3.7 -0.4
v 0.4 3.7 -0.4
v 0.5 3.7 -0.4
v 0.1 3.7 -0.5
v 0.2 3.7 -0.5
v 0.3 3.7 -0.5
v 0.4 3.7 -0.5

# faces
f 4/3/1 2/3/1 1/3/1
f 5/1/1 3/1/1 2/1/1
f 5/3/1 2/3/1 4/3/1
f 6/1/1 5/1/1 4/1/1
f 7/1/1 3/1/1 5/1/1
f 7/1/1 5/1/1 6/1/1
f 10/1/1 9/1/1 8/1/1
f 11/1/1 9/1/1 10/1/1
f 16/3/1 13/3/1 12/3/1
f 17/3/1 16/3/1 12/3/1
f 18/3/1 16/3/1 17/3/1
f 19/1/1 18/1/1 17/1/1
f 20/1/1 18/1/1 19/1/1
f 21/1/1 15/1/1 14/1/1
f 22/1/1 15/1/1 21/1/1
f 23/1/1 21/1/1 20/1/1
f 24/1/1 21/1/1 23/1/1
f 25/3/1 24/3/1 23/3/1
f 25/1/1 21/1/1 24/1/1
f 26/1/1 21/1/1 25/1/1
f 27/3/1 26/3/1 25/3/1
f 28/3/1 26/3/1 27/3/1
f 29/3/1 25/3/1 23/3/1
f 29/3/1 27/3/1 25/3/1
f 30/3/1 27/3/1 29/3/1
f 31/1/1 30/1/1 29/1/1
f 32/3/1 27/3/1 30/3/1
f 32/1/1 30/1/1 31/1/1
f 33/3/1 32/3/1 31/3/1
f 34/3/1 27/3/1 32/3/1
f 34/3/1 32/3/1 33/3/1
f 35/1/1 34/1/1 33/1/1
f 35/3/1 27/3/1 34/3/1
f 36/1/1 28/1/1 27/1/1
f 36/3/1 27/3/1 35/3/1
f 37/1/1 35/1/1 33/1/1
f 37/2/1 36/2/1 35/2/1
f 38/1/1 28/1/1 36/1/1
f 38/2/1 36/2/1 37/2/1
f 39/1/1 28/1/1 38/1/1
f 40/1/1 37/1/1 33/1/1
f 40/1/1 38/1/1 37/1/1
f 41/3/1 39/3/1 38/3/1
f 41/1/1 38/1/1 40/1/1
f 42/3/1 39/3/1 41/3/1
f 43/2/1 41/2/1 40/2/1
f 43/1/1 42/1/1 41/1/1
f 44/1/1 42/1/1 43/1/1
f 46/2/1 43/2/1 40/2/1
f 46/2/1 44/2/1 43/2/1
f 47/2/1 44/2/1 46/2/1
f 49/3/1 46/3/1 45/3/1
f 50/3/1 46/3/1 49/3/1
f 51/1/1 48/1/1 47/1/1
f 52/1/1 48/1/1 51/1/1
f 53/1/2 54/1/2 57/1/2
f 53/1/2 57/1/2 58/1/2
f 58/1/2 57/1/2 59/1/2
f 55/3/2 56/3/2 60/3/2
f 60/3/2 56/3/2 61/3/2
f 58/3/2 59/3/2 62/3/2
f 62/3/2 59/3/2 63/3/2
f 60/1/2 61/1/2 65/1/2
f 65/1/2 61/1/2 66/1/2
f 63/1/2 64/1/2 67/1/2
f 64/1/2 65/1/2 67/1/2
f 67/1/2 65/1/2 68/1/2
f 68/1/2 65/1/2 69/1/2
f 69/1/2 65/1/2 70/1/2
f 68/1/2 69/1/2 71/1/2
f 69/3/2 70/3/2 71/3/2
f 71/3/2 70/3/2 72/3/2
f 67/3/2 68/3/2 73/3/2
f 68/1/2 71/1/2 74/1/2
f 73/3/2 68/3/2 74/3/2
f 71/1/2 72/1/2 74/1/2
f 73/1/2 74/1/2 75/1/2
f 74/1/2 72/1/2 75/1/2
f 75/1/2 72/1/2 76/1/2
f 73/1/2 75/1/2 77/1/2
f 77/1/2 75/1/2 78/1/2
f 75/3/2 76/3/2 79/3/2
f 78/1/2 75/1/2 79/1/2
f 79/3/2 76/3/2 80/3/2
f 77/3/2 78/3/2 81/3/2
f 78/1/2 79/1/2 82/1/2
f 81/3/2 78/3/2 82/3/2
f 79/1/2 80/1/2 82/1/2
f 81/1/2 82/1/2 83/1/2
f 82/1/2 80/1/2 84/1/2
f 83/1/2 82/1/2 84/1/2
f 84/1/2 80/1/2 85/1/2
f 85/1/2 80/1/2 86/1/2
f 83/2/2 84/2/2 87/2/2
f 84/3/2 85/3/2 87/3/2
f 85/2/2 86/2/2 88/2/2
f 87/3/2 85/3/2 88/3/2
f 83/2/2 87/2/2 90/2/2
f 87/2/2 88/2/2 90/2/2
f 90/2/2 88/2/2 91/2/2
f 88/2/2 86/2/2 92/2/2
f 91/2/2 88/2/2 92/2/2
f 92/2/2 86/2/2 93/2/2
f 89/3/2 90/3/2 95/3/2
f 95/3/2 90/3/2 96/3/2
f 95/1/2 96/1/2 97/1/2
f 97/1/2 96/1/2 98/1/2
f 93/1/2 94/1/2 99/1/2
f 99/1/2 94/1/2 100/1/2
f 101/1/2 102/1/2 104/1/2
f 104/1/2 102/1/2 105/1/2
f 102/3/2 103/3/2 106/3/2
f 105/1/2 102/1/2 106/1/2
f 106/3/2 103/3/2 107/3/2
f 104/3/2 105/3/2 108/3/2
f 105/1/2 106/1/2 109/1/2
f 108/3/2 105/3/2 109/3/2
f 106/1/2 107/1/2 109/1/2
f 109/1/2 107/1/2 110/1/2
f 111/3/2 112/3/2 115/3/2
f 112/1/2 113/1/2 116/1/2
f 115/3/2 112/3/2 116/3/2
f 113/3/2 114/3/2 117/3/2
f 116/1/2 113/1/2 117/1/2
f 115/1/2 116/1/2 118/1/2
f 116/3/2 117/3/2 119/3/2
f 118/1/2 116/1/2 119/1/2
f 117/3/2 114/3/2 120/3/2
f 119/3/2 117/3/2 120/3/2
f 126/3/3 122/3/3 121/3/3
f 127/1/3 123/1/3 122/1/3
f 127/3/3 122/3/3 126/3/3
f 128/3/3 125/3/3 124/3/3
f 129/3/3 125/3/3 128/3/3
f 130/3/3 126/3/3 121/3/3
f 131/1/3 127/1/3 126/1/3
f 131/3/3 126/3/3 130/3/3
f 132/1/3 123/1/3 127/1/3
f 132/1/3 127/1/3 131/1/3
f 133/1/3 123/1/3 132/1/3
f 134/1/3 131/1/3 130/1/3
f 134/1/3 132/1/3 131/1/3
f 135/3/3 133/3/3 132/3/3
f 135/1/3 132/1/3 134/1/3
f 136/3/3 133/3/3 135/3/3
f 137/3/3 128/3/3 124/3/3
f 138/1/3 129/1/3 128/1/3
f 138/3/3 128/3/3 137/3/3
f 139/1/3 129/1/3 138/1/3
f 145/3/3 141/3/3 140/3/3
f 146/1/3 142/1/3 141/1/3
f 146/3/3 141/3/3 145/3/3
f 147/1/3 142/1/3 146/1/3
f 148/1/3 142/1/3 147/1/3
f 154/1/3 144/1/3 143/1/3
f 155/1/3 144/1/3 154/1/3
f 156/1/3 149/1/3 148/1/3
f 156/3/3 150/3/3 149/3/3
f 157/3/3 150/3/3 156/3/3
f 158/1/3 151/1/3 150/1/3
f 158/3/3 150/3/3 157/3/3
f 159/3/3 152/3/3 151/3/3
f 159/1/3 151/1/3 158/1/3
f 160/1/3 153/1/3 152/1/3
f 160/3/3 152/3/3 159/3/3
f 161/1/3 153/1/3 160/1/3
f 162/1/3 153/1/3 161/1/3
f 163/2/3 154/2/3 153/2/3
f 163/1/3 153/1/3 162/1/3
f 164/1/3 157/1/3 156/1/3
f 164/1/3 156/1/3 148/1/3
f 165/3/3 159/3/3 158/3/3
f 165/3/3 158/3/3 157/3/3
f 166/1/3 160/1/3 159/1/3
f 166/3/3 159/3/3 165/3/3
f 167/1/3 162/1/3 161/1/3
f 167/3/3 161/3/3 160/3/3
f 168/2/3 163/2/3 162/2/3
f 168/1/3 162/1/3 167/1/3
f 169/2/3 154/2/3 163/2/3
f 169/2/3 163/2/3 168/2/3
f 173/1/3 157/1/3 164/1/3
f 174/3/3 165/3/3 157/3/3
f 174/1/3 157/1/3 173/1/3
f 175/1/3 166/1/3 165/1/3
f 175/3/3 165/3/3 174/3/3
f 176/1/3 160/1/3 166/1/3
f 176/1/3 166/1/3 175/1/3
f 176/3/3 168/3/3 167/3/3
f 176/3/3 167/3/3 160/3/3
f 177/1/3 169/1/3 168/1/3
f 177/3/3 168/3/3 176/3/3
f 178/2/3 154/2/3 169/2/3
f 178/1/3 169/1/3 177/1/3
f 179/2/3 154/2/3 178/2/3
f 182/1/3 171/1/3 170/1/3
f 183/3/3 172/3/3 171/3/3
f 183/1/3 171/1/3 182/1/3
f 183/3/3 173/3/3 172/3/3
f 184/3/3 173/3/3 183/3/3
f 185/3/3 180/3/3 179/3/3
f 186/1/3 181/1/3 180/1/3
f 186/3/3 180/3/3 185/3/3
f 187/1/3 181/1/3 186/1/3
f 188/1/4 189/1/4 192/1/4
f 192/1/4 189/1/4 193/1/4
f 190/1/4 191/1/4 199/1/4
f 199/1/4 191/1/4 200/1/4
f 193/1/4 194/1/4 201/1/4
f 194/3/4 195/3/4 202/3/4
f 201/1/4 194/1/4 202/1/4
f 195/1/4 196/1/4 203/1/4
f 203/1/4 196/1/4 204/1/4
f 196/3/4 197/3/4 205/3/4
f 204/1/4 196/1/4 205/1/4
f 197/1/4 198/1/4 206/1/4
f 205/3/4 197/3/4 206/3/4
f 198/2/4 199/2/4 207/2/4
f 206/1/4 198/1/4 207/1/4
f 193/1/4 201/1/4 208/1/4
f 201/3/4 202/3/4 208/3/4
f 202/3/4 195/3/4 209/3/4
f 208/3/4 202/3/4 209/3/4
f 203/3/4 204/3/4 210/3/4
f 195/1/4 203/1/4 210/1/4
f 210/3/4 204/3/4 211/3/4
f 211/3/4 204/3/4 212/3/4
f 204/2/4 205/2/4 213/2/4
f 212/3/4 204/3/4 213/3/4
f 205/2/4 206/2/4 213/2/4
f 206/2/4 207/2/4 213/2/4
f 213/2/4 207/2/4 214/2/4
f 193/1/4 208/1/4 217/1/4
f 208/1/4 209/1/4 217/1/4
f 209/3/4 195/3/4 218/3/4
f 217/1/4 209/1/4 218/1/4
f 210/1/4 211/1/4 219/1/4
f 218/3/4 195/3/4 219/3/4
f 195/1/4 210/1/4 219/1/4
f 211/3/4 212/3/4 220/3/4
f 219/1/4 211/1/4 220/1/4
f 212/1/4 213/1/4 221/1/4
f 220/3/4 212/3/4 221/3/4
f 213/1/4 214/1/4 221/1/4
f 214/2/4 207/2/4 222/2/4
f 221/1/4 214/1/4 222/1/4
f 207/2/4 199/2/4 223/2/4
f 222/2/4 207/2/4 223/2/4
f 215/3/4 216/3/4 225/3/4
f 216/1/4 217/1/4 226/1/4
f 225/3/4 216/3/4 226/3/4
f 226/1/4 217/1/4 227/1/4
f 223/3/4 224/3/4 228/3/4
f 228/3/4 224/3/4 229/3/4
f 230/1/4 231/1/4 234/1/4
f 234/1/4 231/1/4 235/1/4
f 232/1/4 233/1/4 236/1/4
f 236/1/4 233/1/4 237/1/4
f 232/1/4 236/1/4 238/1/4
f 236/3/4 237/3/4 238/3/4
f 238/3/4 237/3/4 239/3/4
f 234/3/4 235/3/4 240/3/4
f 235/1/4 231/1/4 241/1/4
f 240/3/4 235/3/4 241/3/4
f 241/1/4 231/1/4 242/1/4
f 232/1/4 238/1/4 243/1/4
f 238/1/4 239/1/4 243/1/4
f 243/1/4 239/1/4 244/1/4
f 249/3/5 246/3/5 245/3/5
f 250/3/5 246/3/5 249/3/5
f 251/1/5 247/1/5 246/1/5
f 253/3/5 249/3/5 248/3/5
f 254/1/5 250/1/5 249/1/5
f 254/3/5 249/3/5 253/3/5
f 255/3/5 246/3/5 250/3/5
f 255/1/5 250/1/5 254/1/5
f 256/1/5 252/1/5 251/1/5
f 256/3/5 246/3/5 255/3/5
f 256/1/5 251/1/5 246/1/5
f 257/1/5 252/1/5 256/1/5
f 258/1/5 252/1/5 257/1/5
f 259/1/5 254/1/5 253/1/5
f 259/1/5 255/1/5 254/1/5
f 259/1/5 256/1/5 255/1/5
f 259/1/5 257/1/5 256/1/5
f 260/1/5 257/1/5 259/1/5
f 261/1/5 257/1/5 260/1/5
f 262/3/5 258/3/5 257/3/5
f 262/1/5 257/1/5 261/1/5
f 263/3/5 258/3/5 262/3/5
f 264/1/5 261/1/5 260/1/5
f 265/3/5 262/3/5 261/3/5
f 265/1/5 261/1/5 264/1/5
f 266/3/5 262/3/5 265/3/5
f 270/3/5 268/3/5 267/3/5
f 271/3/5 268/3/5 270/3/5
f 273/3/5 272/3/5 271/3/5
f 274/3/5 272/3/5 273/3/5
f 275/1/5 274/1/5 273/1/5
f 276/1/5 274/1/5 275/1/5
f 277/1/5 270/1/5 269/1/5
f 278/1/5 270/1/5 277/1/5
f 279/3/5 276/3/5 275/3/5
f 280/3/5 276/3/5 279/3/5
f 281/1/5 279/1/5 278/1/5
f 282/1/5 279/1/5 281/1/5
f 283/1/6 284/1/6 287/1/6
f 284/3/6 285/3/6 288/3/6
f 287/1/6 284/1/6 288/1/6
f 288/3/6 285/3/6 289/3/6
f 289/3/6 290/3/6 291/3/6
f 291/3/6 290/3/6 292/3/6
f 286/1/6 287/1/6 293/1/6
f 293/1/6 287/1/6 294/1/6
f 291/1/6 292/1/6 295/1/6
f 295/1/6 292/1/6 296/1/6
f 294/1/6 295/1/6 297/1/6
f 297/1/6 295/1/6 298/1/6
f 299/3/6 300/3/6 303/3/6
f 300/1/6 301/1/6 304/1/6
f 304/1/6 301/1/6 305/1/6
f 302/1/6 303/1/6 307/1/6
f 303/3/6 300/3/6 307/3/6
f 300/1/6 304/1/6 308/1/6
f 307/3/6 300/3/6 308/3/6
f 304/3/6 305/3/6 309/3/6
f 308/1/6 304/1/6 309/1/6
f 305/1/6 306/1/6 310/1/6
f 309/3/6 305/3/6 310/3/6
f 310/1/6 306/1/6 311/1/6
f 308/1/6 309/1/6 312/1/6
f 307/1/6 308/1/6 312/1/6
f 309/1/6 310/1/6 312/1/6
f 310/3/6 311/3/6 313/3/6
f 312/1/6 310/1/6 313/1/6
f 307/1/6 312/1/6 314/1/6
f 302/1/6 307/1/6 314/1/6
f 314/1/6 312/1/6 315/1/6
f 312/3/6 313/3/6 316/3/6
f 313/3/6 311/3/6 317/3/6
f 316/3/6 313/3/6 317/3/6
f 317/3/6 311/3/6 318/3/6
f 315/1/6 312/1/6 319/1/6
f 312/3/6 316/3/6 320/3/6
f 319/1/6 312/1/6 320/1/6
f 316/1/6 317/1/6 321/1/6
f 320/3/6 316/3/6 321/3/6
f 321/1/6 317/1/6 322/1/6
