# MagicaVoxel @ Ephtracy

# group
o 

# material
mtllib SmithingHouse5WallTEX.mtl
usemtl palette

# normals
vn -1 0 0
vn 1 0 0
vn 0 0 1
vn 0 0 -1
vn 0 -1 0
vn 0 1 0

# texcoords
vt 0.943359 0.5
vt 0.947266 0.5
vt 0.958984 0.5
vt 0.974609 0.5
vt 0.978516 0.5
vt 0.982422 0.5

# verts
v 0 2 -0.1
v 0 2 -0.2
v 0 2 -0.7
v 0 2 -0.8
v 0 2 -0.9
v 0 2 -1.1
v 0 2 -1.4
v 0 2 -1.6
v 0 2 -1.8
v 0 2 -1.9
v 0 2 -2.1
v 0 2.1 -0.1
v 0 2.1 -0.2
v 0 2.1 -0.3
v 0 2.1 -0.5
v 0 2.1 -0.7
v 0 2.1 -0.8
v 0 2.1 -0.9
v 0 2.1 -1
v 0 2.1 -1.1
v 0 2.1 -1.2
v 0 2.1 -1.4
v 0 2.1 -1.6
v 0 2.1 -1.8
v 0 2.1 -1.9
v 0 2.1 -2
v 0 2.1 -2.1
v 0 2.2 -0.2
v 0 2.2 -0.3
v 0 2.2 -0.4
v 0 2.2 -0.5
v 0 2.2 -0.6
v 0 2.2 -0.8
v 0 2.2 -1
v 0 2.2 -1.5
v 0 2.2 -1.6
v 0 2.2 -1.8
v 0 2.2 -1.9
v 0 2.2 -2
v 0 2.3 -0.1
v 0 2.3 -0.2
v 0 2.3 -0.3
v 0 2.3 -0.4
v 0 2.3 -0.6
v 0 2.3 -1.1
v 0 2.3 -1.2
v 0 2.3 -1.5
v 0 2.3 -1.6
v 0 2.3 -1.9
v 0 2.3 -2.1
v 0 3.5 -0.1
v 0 3.5 -0.5
v 0 3.5 -0.7
v 0 3.5 -1.1
v 0 3.5 -1.3
v 0 3.5 -1.5
v 0 3.5 -1.6
v 0 3.5 -1.8
v 0 3.5 -2
v 0 3.5 -2.1
v 0 3.6 -0.1
v 0 3.6 -0.4
v 0 3.6 -0.5
v 0 3.6 -0.7
v 0 3.6 -0.8
v 0 3.6 -1.1
v 0 3.6 -1.3
v 0 3.6 -1.5
v 0 3.6 -1.6
v 0 3.6 -1.8
v 0 3.6 -2
v 0 3.6 -2.1
v 0 3.7 -0.1
v 0 3.7 -0.4
v 0 3.7 -0.8
v 0 3.7 -1.1
v 0 3.7 -1.6
v 0 3.7 -1.8
v 0 3.7 -2
v 0 3.7 -2.1
v 0.1 2.3 0
v 0.1 2.3 -0.1
v 0.1 2.3 -0.2
v 0.1 2.3 -0.3
v 0.1 2.3 -0.4
v 0.1 2.3 -0.5
v 0.1 2.3 -0.6
v 0.1 2.3 -0.7
v 0.1 2.3 -1.1
v 0.1 2.3 -1.2
v 0.1 2.3 -1.4
v 0.1 2.3 -1.5
v 0.1 2.3 -1.6
v 0.1 2.3 -1.9
v 0.1 2.3 -2.1
v 0.1 2.3 -2.2
v 0.1 2.4 0
v 0.1 2.4 -0.1
v 0.1 2.4 -0.2
v 0.1 2.4 -0.3
v 0.1 2.4 -0.4
v 0.1 2.4 -0.5
v 0.1 2.4 -0.6
v 0.1 2.4 -1.2
v 0.1 2.4 -1.3
v 0.1 2.4 -1.4
v 0.1 2.4 -1.8
v 0.1 2.4 -2.1
v 0.1 2.4 -2.2
v 0.1 2.5 -0.1
v 0.1 2.5 -0.2
v 0.1 2.5 -0.3
v 0.1 2.5 -0.4
v 0.1 2.5 -0.5
v 0.1 2.5 -0.6
v 0.1 2.5 -0.7
v 0.1 2.5 -0.8
v 0.1 2.5 -1
v 0.1 2.5 -1.2
v 0.1 2.5 -1.3
v 0.1 2.5 -1.4
v 0.1 2.5 -1.8
v 0.1 2.5 -1.9
v 0.1 2.5 -2
v 0.1 2.5 -2.1
v 0.1 2.6 0
v 0.1 2.6 -0.1
v 0.1 2.6 -0.2
v 0.1 2.6 -1
v 0.1 2.6 -1.2
v 0.1 2.6 -1.3
v 0.1 2.6 -1.4
v 0.1 2.6 -1.6
v 0.1 2.6 -1.9
v 0.1 2.6 -2
v 0.1 2.6 -2.1
v 0.1 2.7 0
v 0.1 2.7 -0.3
v 0.1 2.7 -0.4
v 0.1 2.7 -0.5
v 0.1 2.7 -0.6
v 0.1 2.7 -0.8
v 0.1 2.7 -0.9
v 0.1 2.7 -1
v 0.1 2.7 -1.1
v 0.1 2.7 -1.2
v 0.1 2.7 -1.3
v 0.1 2.7 -1.4
v 0.1 2.7 -1.5
v 0.1 2.7 -1.6
v 0.1 2.7 -1.7
v 0.1 2.7 -1.8
v 0.1 2.7 -2
v 0.1 2.7 -2.1
v 0.1 2.7 -2.2
v 0.1 2.8 -0.1
v 0.1 2.8 -0.4
v 0.1 2.8 -0.7
v 0.1 2.8 -0.8
v 0.1 2.8 -0.9
v 0.1 2.8 -1
v 0.1 2.8 -1.1
v 0.1 2.8 -1.3
v 0.1 2.8 -1.4
v 0.1 2.8 -1.5
v 0.1 2.8 -1.6
v 0.1 2.8 -1.8
v 0.1 2.8 -1.9
v 0.1 2.8 -2.1
v 0.1 2.8 -2.2
v 0.1 2.9 0
v 0.1 2.9 -0.1
v 0.1 2.9 -0.3
v 0.1 2.9 -0.4
v 0.1 2.9 -0.6
v 0.1 2.9 -0.7
v 0.1 2.9 -0.8
v 0.1 2.9 -0.9
v 0.1 2.9 -1.1
v 0.1 2.9 -1.4
v 0.1 2.9 -1.5
v 0.1 2.9 -1.6
v 0.1 2.9 -1.7
v 0.1 2.9 -1.9
v 0.1 2.9 -2
v 0.1 3 -0.2
v 0.1 3 -0.3
v 0.1 3 -0.4
v 0.1 3 -0.6
v 0.1 3 -0.8
v 0.1 3 -0.9
v 0.1 3 -1
v 0.1 3 -1.1
v 0.1 3 -1.3
v 0.1 3 -1.4
v 0.1 3 -1.5
v 0.1 3 -1.7
v 0.1 3 -1.8
v 0.1 3 -1.9
v 0.1 3 -2
v 0.1 3.1 0
v 0.1 3.1 -0.1
v 0.1 3.1 -0.2
v 0.1 3.1 -0.8
v 0.1 3.1 -0.9
v 0.1 3.1 -1
v 0.1 3.1 -1.3
v 0.1 3.1 -1.4
v 0.1 3.1 -1.7
v 0.1 3.1 -1.8
v 0.1 3.1 -2
v 0.1 3.1 -2.1
v 0.1 3.1 -2.2
v 0.1 3.2 -0.1
v 0.1 3.2 -0.2
v 0.1 3.2 -0.9
v 0.1 3.2 -1.1
v 0.1 3.2 -1.2
v 0.1 3.2 -2.1
v 0.1 3.2 -2.2
v 0.1 3.3 -0.2
v 0.1 3.3 -0.7
v 0.1 3.3 -0.8
v 0.1 3.3 -1
v 0.1 3.3 -1.1
v 0.1 3.3 -1.4
v 0.1 3.3 -1.8
v 0.1 3.3 -2
v 0.1 3.3 -2.1
v 0.1 3.3 -2.2
v 0.1 3.4 -0.2
v 0.1 3.4 -0.4
v 0.1 3.4 -0.7
v 0.1 3.4 -0.8
v 0.1 3.4 -0.9
v 0.1 3.4 -1.1
v 0.1 3.4 -1.2
v 0.1 3.4 -1.7
v 0.1 3.4 -1.9
v 0.1 3.4 -2
v 0.1 3.5 0
v 0.1 3.5 -0.1
v 0.1 3.5 -0.4
v 0.1 3.5 -0.5
v 0.1 3.5 -0.7
v 0.1 3.5 -0.8
v 0.1 3.5 -0.9
v 0.1 3.5 -1
v 0.1 3.5 -1.1
v 0.1 3.5 -1.3
v 0.1 3.5 -1.5
v 0.1 3.5 -1.6
v 0.1 3.5 -1.7
v 0.1 3.5 -1.8
v 0.1 3.5 -1.9
v 0.1 3.5 -2
v 0.1 3.5 -2.1
v 0.1 3.5 -2.2
v 0.2 2.3 0
v 0.2 2.3 -0.1
v 0.2 2.3 -0.3
v 0.2 2.3 -0.4
v 0.2 2.3 -0.5
v 0.2 2.3 -0.6
v 0.2 2.3 -0.7
v 0.2 2.3 -0.8
v 0.2 2.3 -1.2
v 0.2 2.3 -1.3
v 0.2 2.3 -1.4
v 0.2 2.3 -1.5
v 0.2 2.3 -1.7
v 0.2 2.3 -2
v 0.2 2.3 -2.1
v 0.2 2.3 -2.2
v 0.2 2.4 0
v 0.2 2.4 -0.1
v 0.2 2.4 -0.2
v 0.2 2.4 -0.3
v 0.2 2.4 -0.4
v 0.2 2.4 -0.5
v 0.2 2.4 -0.6
v 0.2 2.4 -1.2
v 0.2 2.4 -1.3
v 0.2 2.4 -1.4
v 0.2 2.4 -1.8
v 0.2 2.4 -2.1
v 0.2 2.4 -2.2
v 0.2 2.5 -0.1
v 0.2 2.5 -0.2
v 0.2 2.5 -0.3
v 0.2 2.5 -0.4
v 0.2 2.5 -0.5
v 0.2 2.5 -0.6
v 0.2 2.5 -0.7
v 0.2 2.5 -0.8
v 0.2 2.5 -1
v 0.2 2.5 -1.2
v 0.2 2.5 -1.3
v 0.2 2.5 -1.4
v 0.2 2.5 -1.8
v 0.2 2.5 -1.9
v 0.2 2.5 -2
v 0.2 2.5 -2.1
v 0.2 2.6 0
v 0.2 2.6 -0.1
v 0.2 2.6 -0.2
v 0.2 2.6 -1
v 0.2 2.6 -1.2
v 0.2 2.6 -1.3
v 0.2 2.6 -1.4
v 0.2 2.6 -1.6
v 0.2 2.6 -1.9
v 0.2 2.6 -2
v 0.2 2.6 -2.1
v 0.2 2.7 0
v 0.2 2.7 -0.3
v 0.2 2.7 -0.4
v 0.2 2.7 -0.5
v 0.2 2.7 -0.6
v 0.2 2.7 -0.8
v 0.2 2.7 -0.9
v 0.2 2.7 -1
v 0.2 2.7 -1.1
v 0.2 2.7 -1.2
v 0.2 2.7 -1.3
v 0.2 2.7 -1.4
v 0.2 2.7 -1.5
v 0.2 2.7 -1.6
v 0.2 2.7 -1.7
v 0.2 2.7 -1.8
v 0.2 2.7 -2
v 0.2 2.7 -2.1
v 0.2 2.7 -2.2
v 0.2 2.8 -0.1
v 0.2 2.8 -0.4
v 0.2 2.8 -0.7
v 0.2 2.8 -0.8
v 0.2 2.8 -0.9
v 0.2 2.8 -1
v 0.2 2.8 -1.1
v 0.2 2.8 -1.3
v 0.2 2.8 -1.4
v 0.2 2.8 -1.5
v 0.2 2.8 -1.6
v 0.2 2.8 -1.8
v 0.2 2.8 -1.9
v 0.2 2.8 -2.1
v 0.2 2.8 -2.2
v 0.2 2.9 0
v 0.2 2.9 -0.1
v 0.2 2.9 -0.3
v 0.2 2.9 -0.4
v 0.2 2.9 -0.6
v 0.2 2.9 -0.7
v 0.2 2.9 -0.8
v 0.2 2.9 -0.9
v 0.2 2.9 -1.1
v 0.2 2.9 -1.4
v 0.2 2.9 -1.5
v 0.2 2.9 -1.6
v 0.2 2.9 -1.7
v 0.2 2.9 -1.9
v 0.2 2.9 -2
v 0.2 3 -0.2
v 0.2 3 -0.3
v 0.2 3 -0.4
v 0.2 3 -0.6
v 0.2 3 -0.8
v 0.2 3 -0.9
v 0.2 3 -1
v 0.2 3 -1.1
v 0.2 3 -1.3
v 0.2 3 -1.4
v 0.2 3 -1.5
v 0.2 3 -1.7
v 0.2 3 -1.8
v 0.2 3 -1.9
v 0.2 3 -2
v 0.2 3.1 0
v 0.2 3.1 -0.1
v 0.2 3.1 -0.2
v 0.2 3.1 -0.8
v 0.2 3.1 -0.9
v 0.2 3.1 -1
v 0.2 3.1 -1.3
v 0.2 3.1 -1.4
v 0.2 3.1 -1.7
v 0.2 3.1 -1.8
v 0.2 3.1 -2
v 0.2 3.1 -2.1
v 0.2 3.1 -2.2
v 0.2 3.2 -0.1
v 0.2 3.2 -0.2
v 0.2 3.2 -0.9
v 0.2 3.2 -1.1
v 0.2 3.2 -1.2
v 0.2 3.2 -2.1
v 0.2 3.2 -2.2
v 0.2 3.3 -0.2
v 0.2 3.3 -0.7
v 0.2 3.3 -0.8
v 0.2 3.3 -1
v 0.2 3.3 -1.1
v 0.2 3.3 -1.4
v 0.2 3.3 -1.8
v 0.2 3.3 -2
v 0.2 3.3 -2.1
v 0.2 3.3 -2.2
v 0.2 3.4 -0.2
v 0.2 3.4 -0.4
v 0.2 3.4 -0.7
v 0.2 3.4 -0.8
v 0.2 3.4 -0.9
v 0.2 3.4 -1.1
v 0.2 3.4 -1.2
v 0.2 3.4 -1.7
v 0.2 3.4 -1.9
v 0.2 3.4 -2
v 0.2 3.5 0
v 0.2 3.5 -0.1
v 0.2 3.5 -0.2
v 0.2 3.5 -0.4
v 0.2 3.5 -0.5
v 0.2 3.5 -0.7
v 0.2 3.5 -0.8
v 0.2 3.5 -0.9
v 0.2 3.5 -1
v 0.2 3.5 -1.1
v 0.2 3.5 -1.3
v 0.2 3.5 -1.4
v 0.2 3.5 -1.6
v 0.2 3.5 -1.7
v 0.2 3.5 -1.8
v 0.2 3.5 -1.9
v 0.2 3.5 -2
v 0.2 3.5 -2.1
v 0.2 3.5 -2.2
v 0.3 2 -0.1
v 0.3 2 -0.4
v 0.3 2 -0.5
v 0.3 2 -0.7
v 0.3 2 -0.9
v 0.3 2 -1
v 0.3 2 -1.4
v 0.3 2 -1.5
v 0.3 2 -1.6
v 0.3 2 -2.1
v 0.3 2.1 -0.1
v 0.3 2.1 -0.2
v 0.3 2.1 -0.3
v 0.3 2.1 -0.4
v 0.3 2.1 -0.7
v 0.3 2.1 -0.9
v 0.3 2.1 -1.1
v 0.3 2.1 -1.4
v 0.3 2.1 -1.5
v 0.3 2.1 -1.6
v 0.3 2.1 -1.9
v 0.3 2.1 -2.1
v 0.3 2.2 -0.1
v 0.3 2.2 -0.2
v 0.3 2.2 -0.4
v 0.3 2.2 -0.5
v 0.3 2.2 -0.6
v 0.3 2.2 -0.7
v 0.3 2.2 -0.8
v 0.3 2.2 -1
v 0.3 2.2 -1.1
v 0.3 2.2 -1.2
v 0.3 2.2 -1.3
v 0.3 2.2 -1.5
v 0.3 2.2 -1.7
v 0.3 2.2 -1.9
v 0.3 2.2 -2
v 0.3 2.2 -2.1
v 0.3 2.3 -0.1
v 0.3 2.3 -0.3
v 0.3 2.3 -0.4
v 0.3 2.3 -0.6
v 0.3 2.3 -0.7
v 0.3 2.3 -0.8
v 0.3 2.3 -1.2
v 0.3 2.3 -1.3
v 0.3 2.3 -1.5
v 0.3 2.3 -1.7
v 0.3 2.3 -2
v 0.3 2.3 -2.1
v 0.3 3.5 -0.1
v 0.3 3.5 -0.2
v 0.3 3.5 -0.4
v 0.3 3.5 -0.5
v 0.3 3.5 -0.7
v 0.3 3.5 -0.9
v 0.3 3.5 -1.1
v 0.3 3.5 -1.3
v 0.3 3.5 -1.4
v 0.3 3.5 -1.6
v 0.3 3.5 -1.7
v 0.3 3.5 -1.8
v 0.3 3.5 -1.9
v 0.3 3.5 -2
v 0.3 3.5 -2.1
v 0.3 3.6 -0.2
v 0.3 3.6 -0.4
v 0.3 3.6 -0.6
v 0.3 3.6 -0.7
v 0.3 3.6 -0.8
v 0.3 3.6 -0.9
v 0.3 3.6 -1
v 0.3 3.6 -1.1
v 0.3 3.6 -1.2
v 0.3 3.6 -1.3
v 0.3 3.6 -1.4
v 0.3 3.6 -1.5
v 0.3 3.6 -1.6
v 0.3 3.6 -1.7
v 0.3 3.6 -1.8
v 0.3 3.6 -1.9
v 0.3 3.6 -2
v 0.3 3.6 -2.1
v 0.3 3.7 -0.1
v 0.3 3.7 -0.5
v 0.3 3.7 -0.6
v 0.3 3.7 -0.8
v 0.3 3.7 -1
v 0.3 3.7 -1.2
v 0.3 3.7 -1.5
v 0.3 3.7 -1.7
v 0.3 3.7 -1.8
v 0.3 3.7 -1.9
v 0.3 3.7 -2
v 0.3 3.7 -2.1
v 0.1 2.3 0
v 0.1 2.4 0
v 0.1 2.6 0
v 0.1 2.7 0
v 0.1 2.9 0
v 0.1 3.1 0
v 0.1 3.5 0
v 0.2 2.3 0
v 0.2 2.4 0
v 0.2 2.6 0
v 0.2 2.7 0
v 0.2 2.9 0
v 0.2 3.1 0
v 0.2 3.5 0
v 0 2 -0.1
v 0 2.1 -0.1
v 0 2.3 -0.1
v 0 3.5 -0.1
v 0 3.6 -0.1
v 0 3.7 -0.1
v 0.1 2 -0.1
v 0.1 2.1 -0.1
v 0.1 2.2 -0.1
v 0.1 2.3 -0.1
v 0.1 3.5 -0.1
v 0.1 3.6 -0.1
v 0.1 3.7 -0.1
v 0.2 2.1 -0.1
v 0.2 2.2 -0.1
v 0.2 2.3 -0.1
v 0.2 3.5 -0.1
v 0.2 3.6 -0.1
v 0.3 2 -0.1
v 0.3 2.1 -0.1
v 0.3 2.2 -0.1
v 0.3 2.3 -0.1
v 0.3 3.5 -0.1
v 0.3 3.7 -0.1
v 0.1 3.1 -0.8
v 0.1 3.3 -0.8
v 0.2 3.1 -0.8
v 0.2 3.3 -0.8
v 0.1 3.1 -2
v 0.1 3.3 -2
v 0.2 3.1 -2
v 0.2 3.3 -2
v 0.1 3.1 -0.2
v 0.1 3.2 -0.2
v 0.1 3.3 -0.2
v 0.2 3.1 -0.2
v 0.2 3.2 -0.2
v 0.2 3.3 -0.2
v 0.1 3.1 -1.4
v 0.1 3.3 -1.4
v 0.2 3.1 -1.4
v 0.2 3.3 -1.4
v 0 2 -2.1
v 0 2.1 -2.1
v 0 2.3 -2.1
v 0 3.5 -2.1
v 0 3.6 -2.1
v 0 3.7 -2.1
v 0.1 2.1 -2.1
v 0.1 2.3 -2.1
v 0.1 3.5 -2.1
v 0.2 2.1 -2.1
v 0.2 2.2 -2.1
v 0.2 2.3 -2.1
v 0.2 3.5 -2.1
v 0.2 3.6 -2.1
v 0.2 3.7 -2.1
v 0.3 2 -2.1
v 0.3 2.1 -2.1
v 0.3 2.2 -2.1
v 0.3 2.3 -2.1
v 0.3 3.5 -2.1
v 0.3 3.6 -2.1
v 0.3 3.7 -2.1
v 0.1 2.3 -2.2
v 0.1 2.4 -2.2
v 0.1 2.7 -2.2
v 0.1 2.8 -2.2
v 0.1 3.1 -2.2
v 0.1 3.2 -2.2
v 0.1 3.3 -2.2
v 0.1 3.5 -2.2
v 0.2 2.3 -2.2
v 0.2 2.4 -2.2
v 0.2 2.7 -2.2
v 0.2 2.8 -2.2
v 0.2 3.1 -2.2
v 0.2 3.2 -2.2
v 0.2 3.3 -2.2
v 0.2 3.5 -2.2
v 0 2 -0.1
v 0.1 2 -0.1
v 0.3 2 -0.1
v 0 2 -0.2
v 0.1 2 -0.2
v 0.1 2 -0.4
v 0.3 2 -0.4
v 0.2 2 -0.5
v 0.3 2 -0.5
v 0 2 -0.7
v 0.1 2 -0.7
v 0.2 2 -0.7
v 0.3 2 -0.7
v 0 2 -0.8
v 0.1 2 -0.8
v 0 2 -0.9
v 0.1 2 -0.9
v 0.3 2 -0.9
v 0.1 2 -1
v 0.3 2 -1
v 0 2 -1.1
v 0.1 2 -1.1
v 0.1 2 -1.2
v 0.2 2 -1.2
v 0 2 -1.4
v 0.1 2 -1.4
v 0.2 2 -1.4
v 0.3 2 -1.4
v 0.1 2 -1.5
v 0.3 2 -1.5
v 0 2 -1.6
v 0.3 2 -1.6
v 0.1 2 -1.7
v 0.2 2 -1.7
v 0 2 -1.8
v 0.1 2 -1.8
v 0 2 -1.9
v 0.1 2 -1.9
v 0.1 2 -2
v 0.2 2 -2
v 0 2 -2.1
v 0.3 2 -2.1
v 0.1 2.3 0
v 0.2 2.3 0
v 0.1 2.3 -0.1
v 0.2 2.3 -0.1
v 0.1 2.3 -2.1
v 0.2 2.3 -2.1
v 0.1 2.3 -2.2
v 0.2 2.3 -2.2
v 0.1 3.3 -0.2
v 0.2 3.3 -0.2
v 0.1 3.3 -0.7
v 0.2 3.3 -0.7
v 0.1 3.3 -0.8
v 0.2 3.3 -0.8
v 0.1 3.3 -1.4
v 0.2 3.3 -1.4
v 0.1 3.3 -1.8
v 0.2 3.3 -1.8
v 0.1 3.3 -2
v 0.2 3.3 -2
v 0 3.5 -0.1
v 0.1 3.5 -0.1
v 0.2 3.5 -0.1
v 0.3 3.5 -0.1
v 0.2 3.5 -0.2
v 0.3 3.5 -0.2
v 0.1 3.5 -0.4
v 0.2 3.5 -0.4
v 0.3 3.5 -0.4
v 0 3.5 -0.5
v 0.1 3.5 -0.5
v 0.2 3.5 -0.5
v 0.3 3.5 -0.5
v 0 3.5 -0.7
v 0.1 3.5 -0.7
v 0.2 3.5 -0.7
v 0.3 3.5 -0.7
v 0.1 3.5 -0.8
v 0.2 3.5 -0.8
v 0.1 3.5 -0.9
v 0.2 3.5 -0.9
v 0.3 3.5 -0.9
v 0.1 3.5 -1
v 0.2 3.5 -1
v 0 3.5 -1.1
v 0.1 3.5 -1.1
v 0.2 3.5 -1.1
v 0.3 3.5 -1.1
v 0 3.5 -1.3
v 0.1 3.5 -1.3
v 0.2 3.5 -1.3
v 0.3 3.5 -1.3
v 0.2 3.5 -1.4
v 0.3 3.5 -1.4
v 0 3.5 -1.5
v 0.1 3.5 -1.5
v 0 3.5 -1.6
v 0.1 3.5 -1.6
v 0.2 3.5 -1.6
v 0.3 3.5 -1.6
v 0.1 3.5 -1.7
v 0.2 3.5 -1.7
v 0.3 3.5 -1.7
v 0 3.5 -1.8
v 0.1 3.5 -1.8
v 0.2 3.5 -1.8
v 0.3 3.5 -1.8
v 0.1 3.5 -1.9
v 0.2 3.5 -1.9
v 0.3 3.5 -1.9
v 0 3.5 -2
v 0.1 3.5 -2
v 0.2 3.5 -2
v 0.3 3.5 -2
v 0 3.5 -2.1
v 0.1 3.5 -2.1
v 0.2 3.5 -2.1
v 0.3 3.5 -2.1
v 0 2.3 -0.1
v 0.1 2.3 -0.1
v 0.2 2.3 -0.1
v 0.3 2.3 -0.1
v 0 2.3 -0.2
v 0.1 2.3 -0.2
v 0 2.3 -0.3
v 0.1 2.3 -0.3
v 0.2 2.3 -0.3
v 0.3 2.3 -0.3
v 0 2.3 -0.4
v 0.1 2.3 -0.4
v 0.2 2.3 -0.4
v 0.3 2.3 -0.4
v 0.1 2.3 -0.5
v 0.2 2.3 -0.5
v 0 2.3 -0.6
v 0.1 2.3 -0.6
v 0.2 2.3 -0.6
v 0.3 2.3 -0.6
v 0.1 2.3 -0.7
v 0.2 2.3 -0.7
v 0.3 2.3 -0.7
v 0.2 2.3 -0.8
v 0.3 2.3 -0.8
v 0 2.3 -1.1
v 0.1 2.3 -1.1
v 0 2.3 -1.2
v 0.1 2.3 -1.2
v 0.2 2.3 -1.2
v 0.3 2.3 -1.2
v 0.2 2.3 -1.3
v 0.3 2.3 -1.3
v 0.1 2.3 -1.4
v 0.2 2.3 -1.4
v 0 2.3 -1.5
v 0.1 2.3 -1.5
v 0.2 2.3 -1.5
v 0.3 2.3 -1.5
v 0 2.3 -1.6
v 0.1 2.3 -1.6
v 0.2 2.3 -1.7
v 0.3 2.3 -1.7
v 0 2.3 -1.9
v 0.1 2.3 -1.9
v 0.2 2.3 -2
v 0.3 2.3 -2
v 0 2.3 -2.1
v 0.1 2.3 -2.1
v 0.2 2.3 -2.1
v 0.3 2.3 -2.1
v 0.1 3.1 -0.2
v 0.2 3.1 -0.2
v 0.1 3.1 -0.8
v 0.2 3.1 -0.8
v 0.1 3.1 -1.4
v 0.2 3.1 -1.4
v 0.1 3.1 -1.7
v 0.2 3.1 -1.7
v 0.1 3.1 -1.8
v 0.2 3.1 -1.8
v 0.1 3.1 -2
v 0.2 3.1 -2
v 0.1 3.5 0
v 0.2 3.5 0
v 0.1 3.5 -0.1
v 0.2 3.5 -0.1
v 0.1 3.5 -2.1
v 0.2 3.5 -2.1
v 0.1 3.5 -2.2
v 0.2 3.5 -2.2
v 0 3.7 -0.1
v 0.1 3.7 -0.1
v 0.3 3.7 -0.1
v 0.1 3.7 -0.2
v 0.2 3.7 -0.2
v 0 3.7 -0.4
v 0.2 3.7 -0.4
v 0.1 3.7 -0.5
v 0.3 3.7 -0.5
v 0.2 3.7 -0.6
v 0.3 3.7 -0.6
v 0 3.7 -0.8
v 0.1 3.7 -0.8
v 0.2 3.7 -0.8
v 0.3 3.7 -0.8
v 0.2 3.7 -1
v 0.3 3.7 -1
v 0 3.7 -1.1
v 0.1 3.7 -1.1
v 0.2 3.7 -1.2
v 0.3 3.7 -1.2
v 0.1 3.7 -1.5
v 0.3 3.7 -1.5
v 0 3.7 -1.6
v 0.1 3.7 -1.6
v 0.2 3.7 -1.7
v 0.3 3.7 -1.7
v 0 3.7 -1.8
v 0.1 3.7 -1.8
v 0.2 3.7 -1.8
v 0.3 3.7 -1.8
v 0.2 3.7 -1.9
v 0.3 3.7 -1.9
v 0 3.7 -2
v 0.1 3.7 -2
v 0.2 3.7 -2
v 0.3 3.7 -2
v 0 3.7 -2.1
v 0.2 3.7 -2.1
v 0.3 3.7 -2.1

# faces
f 12/6/1 2/6/1 1/6/1
f 13/3/1 3/3/1 2/3/1
f 13/6/1 2/6/1 12/6/1
f 14/3/1 3/3/1 13/3/1
f 15/3/1 3/3/1 14/3/1
f 16/6/1 4/6/1 3/6/1
f 16/3/1 3/3/1 15/3/1
f 17/3/1 5/3/1 4/3/1
f 17/6/1 4/6/1 16/6/1
f 18/6/1 6/6/1 5/6/1
f 18/3/1 5/3/1 17/3/1
f 19/6/1 6/6/1 18/6/1
f 20/3/1 7/3/1 6/3/1
f 20/6/1 6/6/1 19/6/1
f 21/3/1 7/3/1 20/3/1
f 22/6/1 8/6/1 7/6/1
f 22/3/1 7/3/1 21/3/1
f 23/3/1 9/3/1 8/3/1
f 23/6/1 8/6/1 22/6/1
f 24/6/1 10/6/1 9/6/1
f 24/3/1 9/3/1 23/3/1
f 25/3/1 11/3/1 10/3/1
f 25/6/1 10/6/1 24/6/1
f 26/3/1 11/3/1 25/3/1
f 27/3/1 11/3/1 26/3/1
f 28/3/1 13/3/1 12/3/1
f 28/3/1 14/3/1 13/3/1
f 29/6/1 15/6/1 14/6/1
f 29/3/1 14/3/1 28/3/1
f 30/6/1 15/6/1 29/6/1
f 31/3/1 16/3/1 15/3/1
f 31/6/1 15/6/1 30/6/1
f 31/3/1 17/3/1 16/3/1
f 32/3/1 17/3/1 31/3/1
f 33/6/1 19/6/1 18/6/1
f 33/3/1 17/3/1 32/3/1
f 33/6/1 18/6/1 17/6/1
f 34/3/1 20/3/1 19/3/1
f 34/6/1 19/6/1 33/6/1
f 35/3/1 22/3/1 21/3/1
f 35/3/1 23/3/1 22/3/1
f 36/6/1 24/6/1 23/6/1
f 36/3/1 23/3/1 35/3/1
f 37/3/1 25/3/1 24/3/1
f 37/6/1 24/6/1 36/6/1
f 37/3/1 26/3/1 25/3/1
f 38/3/1 26/3/1 37/3/1
f 39/6/1 27/6/1 26/6/1
f 39/3/1 26/3/1 38/3/1
f 40/3/1 28/3/1 12/3/1
f 41/6/1 29/6/1 28/6/1
f 41/3/1 28/3/1 40/3/1
f 42/3/1 30/3/1 29/3/1
f 42/6/1 29/6/1 41/6/1
f 43/6/1 32/6/1 31/6/1
f 43/3/1 30/3/1 42/3/1
f 43/6/1 31/6/1 30/6/1
f 44/3/1 34/3/1 33/3/1
f 44/6/1 32/6/1 43/6/1
f 44/3/1 33/3/1 32/3/1
f 45/6/1 21/6/1 20/6/1
f 45/3/1 34/3/1 44/3/1
f 45/3/1 20/3/1 34/3/1
f 46/3/1 35/3/1 21/3/1
f 46/6/1 21/6/1 45/6/1
f 47/6/1 36/6/1 35/6/1
f 47/3/1 35/3/1 46/3/1
f 48/3/1 38/3/1 37/3/1
f 48/6/1 36/6/1 47/6/1
f 48/3/1 37/3/1 36/3/1
f 49/6/1 39/6/1 38/6/1
f 49/3/1 38/3/1 48/3/1
f 50/6/1 27/6/1 39/6/1
f 50/6/1 39/6/1 49/6/1
f 61/3/1 52/3/1 51/3/1
f 62/3/1 52/3/1 61/3/1
f 63/6/1 53/6/1 52/6/1
f 63/3/1 52/3/1 62/3/1
f 64/3/1 54/3/1 53/3/1
f 64/6/1 53/6/1 63/6/1
f 65/3/1 54/3/1 64/3/1
f 66/6/1 55/6/1 54/6/1
f 66/3/1 54/3/1 65/3/1
f 67/3/1 56/3/1 55/3/1
f 67/6/1 55/6/1 66/6/1
f 68/6/1 57/6/1 56/6/1
f 68/3/1 56/3/1 67/3/1
f 69/3/1 58/3/1 57/3/1
f 69/6/1 57/6/1 68/6/1
f 70/6/1 59/6/1 58/6/1
f 70/3/1 58/3/1 69/3/1
f 71/3/1 60/3/1 59/3/1
f 71/6/1 59/6/1 70/6/1
f 72/3/1 60/3/1 71/3/1
f 73/6/1 62/6/1 61/6/1
f 74/3/1 63/3/1 62/3/1
f 74/6/1 62/6/1 73/6/1
f 74/3/1 65/3/1 64/3/1
f 74/3/1 64/3/1 63/3/1
f 75/6/1 66/6/1 65/6/1
f 75/3/1 65/3/1 74/3/1
f 76/3/1 67/3/1 66/3/1
f 76/6/1 66/6/1 75/6/1
f 76/3/1 68/3/1 67/3/1
f 76/3/1 69/3/1 68/3/1
f 77/6/1 70/6/1 69/6/1
f 77/3/1 69/3/1 76/3/1
f 78/3/1 71/3/1 70/3/1
f 78/6/1 70/6/1 77/6/1
f 79/6/1 72/6/1 71/6/1
f 79/3/1 71/3/1 78/3/1
f 80/6/1 72/6/1 79/6/1
f 97/2/1 82/2/1 81/2/1
f 98/1/1 83/1/1 82/1/1
f 98/2/1 82/2/1 97/2/1
f 98/1/1 84/1/1 83/1/1
f 98/1/1 85/1/1 84/1/1
f 99/1/1 85/1/1 98/1/1
f 100/1/1 85/1/1 99/1/1
f 101/2/1 86/2/1 85/2/1
f 101/1/1 85/1/1 100/1/1
f 102/4/1 87/4/1 86/4/1
f 102/2/1 86/2/1 101/2/1
f 103/2/1 88/2/1 87/2/1
f 103/4/1 87/4/1 102/4/1
f 104/4/1 89/4/1 88/4/1
f 104/4/1 90/4/1 89/4/1
f 104/2/1 91/2/1 90/2/1
f 105/2/1 91/2/1 104/2/1
f 106/1/1 95/1/1 94/1/1
f 106/2/1 91/2/1 105/2/1
f 106/1/1 94/1/1 93/1/1
f 106/1/1 92/1/1 91/1/1
f 106/1/1 93/1/1 92/1/1
f 107/1/1 95/1/1 106/1/1
f 108/2/1 96/2/1 95/2/1
f 108/1/1 95/1/1 107/1/1
f 109/2/1 96/2/1 108/2/1
f 110/2/1 99/2/1 98/2/1
f 110/1/1 98/1/1 97/1/1
f 111/4/1 100/4/1 99/4/1
f 111/2/1 99/2/1 110/2/1
f 112/2/1 101/2/1 100/2/1
f 112/4/1 100/4/1 111/4/1
f 112/2/1 102/2/1 101/2/1
f 112/2/1 103/2/1 102/2/1
f 113/2/1 103/2/1 112/2/1
f 114/2/1 103/2/1 113/2/1
f 115/2/1 88/2/1 103/2/1
f 115/2/1 103/2/1 114/2/1
f 116/4/1 104/4/1 88/4/1
f 116/2/1 88/2/1 115/2/1
f 117/4/1 104/4/1 116/4/1
f 118/4/1 104/4/1 117/4/1
f 119/5/1 105/5/1 104/5/1
f 119/4/1 104/4/1 118/4/1
f 120/4/1 106/4/1 105/4/1
f 120/5/1 105/5/1 119/5/1
f 121/2/1 107/2/1 106/2/1
f 121/4/1 106/4/1 120/4/1
f 122/1/1 108/1/1 107/1/1
f 122/2/1 107/2/1 121/2/1
f 122/1/1 109/1/1 108/1/1
f 123/1/1 109/1/1 122/1/1
f 124/1/1 109/1/1 123/1/1
f 125/1/1 109/1/1 124/1/1
f 126/1/1 110/1/1 97/1/1
f 127/4/1 111/4/1 110/4/1
f 127/1/1 110/1/1 126/1/1
f 128/2/1 112/2/1 111/2/1
f 128/4/1 111/4/1 127/4/1
f 129/4/1 118/4/1 117/4/1
f 129/2/1 119/2/1 118/2/1
f 130/4/1 120/4/1 119/4/1
f 130/2/1 119/2/1 129/2/1
f 130/4/1 121/4/1 120/4/1
f 130/4/1 122/4/1 121/4/1
f 130/4/1 123/4/1 122/4/1
f 131/4/1 123/4/1 130/4/1
f 132/4/1 123/4/1 131/4/1
f 133/4/1 123/4/1 132/4/1
f 134/2/1 124/2/1 123/2/1
f 134/4/1 123/4/1 133/4/1
f 135/4/1 125/4/1 124/4/1
f 135/2/1 124/2/1 134/2/1
f 136/1/1 109/1/1 125/1/1
f 136/4/1 125/4/1 135/4/1
f 137/2/1 128/2/1 127/2/1
f 137/2/1 127/2/1 126/2/1
f 138/2/1 112/2/1 128/2/1
f 138/2/1 128/2/1 137/2/1
f 138/4/1 113/4/1 112/4/1
f 139/5/1 114/5/1 113/5/1
f 139/4/1 113/4/1 138/4/1
f 140/4/1 115/4/1 114/4/1
f 140/5/1 114/5/1 139/5/1
f 141/5/1 117/5/1 116/5/1
f 141/4/1 115/4/1 140/4/1
f 141/5/1 116/5/1 115/5/1
f 142/4/1 129/4/1 117/4/1
f 142/5/1 117/5/1 141/5/1
f 142/4/1 130/4/1 129/4/1
f 143/4/1 130/4/1 142/4/1
f 144/4/1 130/4/1 143/4/1
f 145/4/1 130/4/1 144/4/1
f 146/2/1 131/2/1 130/2/1
f 146/4/1 130/4/1 145/4/1
f 147/4/1 132/4/1 131/4/1
f 147/2/1 131/2/1 146/2/1
f 148/5/1 133/5/1 132/5/1
f 148/4/1 132/4/1 147/4/1
f 149/5/1 133/5/1 148/5/1
f 150/4/1 135/4/1 134/4/1
f 150/5/1 133/5/1 149/5/1
f 150/4/1 134/4/1 133/4/1
f 151/4/1 135/4/1 150/4/1
f 152/4/1 135/4/1 151/4/1
f 153/2/1 136/2/1 135/2/1
f 153/4/1 135/4/1 152/4/1
f 154/1/1 109/1/1 136/1/1
f 154/2/1 136/2/1 153/2/1
f 155/1/1 109/1/1 154/1/1
f 156/4/1 139/4/1 138/4/1
f 156/4/1 138/4/1 137/4/1
f 157/2/1 141/2/1 140/2/1
f 157/4/1 139/4/1 156/4/1
f 157/2/1 140/2/1 139/2/1
f 157/2/1 142/2/1 141/2/1
f 158/2/1 142/2/1 157/2/1
f 159/4/1 143/4/1 142/4/1
f 159/2/1 142/2/1 158/2/1
f 160/5/1 144/5/1 143/5/1
f 160/4/1 143/4/1 159/4/1
f 161/2/1 145/2/1 144/2/1
f 161/5/1 144/5/1 160/5/1
f 162/4/1 146/4/1 145/4/1
f 162/2/1 145/2/1 161/2/1
f 162/4/1 147/4/1 146/4/1
f 163/2/1 148/2/1 147/2/1
f 163/4/1 147/4/1 162/4/1
f 164/5/1 149/5/1 148/5/1
f 164/2/1 148/2/1 163/2/1
f 165/2/1 151/2/1 150/2/1
f 165/5/1 149/5/1 164/5/1
f 165/2/1 150/2/1 149/2/1
f 166/2/1 151/2/1 165/2/1
f 167/2/1 153/2/1 152/2/1
f 167/4/1 152/4/1 151/4/1
f 168/2/1 153/2/1 167/2/1
f 169/4/1 155/4/1 154/4/1
f 169/4/1 154/4/1 153/4/1
f 170/4/1 155/4/1 169/4/1
f 171/4/1 156/4/1 137/4/1
f 172/2/1 157/2/1 156/2/1
f 172/4/1 156/4/1 171/4/1
f 173/2/1 157/2/1 172/2/1
f 174/4/1 158/4/1 157/4/1
f 174/2/1 157/2/1 173/2/1
f 175/4/1 158/4/1 174/4/1
f 176/2/1 160/2/1 159/2/1
f 176/4/1 158/4/1 175/4/1
f 176/2/1 159/2/1 158/2/1
f 177/2/1 160/2/1 176/2/1
f 178/5/1 162/5/1 161/5/1
f 178/2/1 160/2/1 177/2/1
f 178/5/1 161/5/1 160/5/1
f 179/4/1 163/4/1 162/4/1
f 179/5/1 162/5/1 178/5/1
f 179/4/1 166/4/1 165/4/1
f 179/4/1 164/4/1 163/4/1
f 179/4/1 165/4/1 164/4/1
f 180/4/1 166/4/1 179/4/1
f 181/4/1 166/4/1 180/4/1
f 182/2/1 151/2/1 166/2/1
f 182/4/1 166/4/1 181/4/1
f 183/4/1 168/4/1 167/4/1
f 183/2/1 151/2/1 182/2/1
f 183/4/1 167/4/1 151/4/1
f 184/2/1 153/2/1 168/2/1
f 184/4/1 168/4/1 183/4/1
f 185/4/1 169/4/1 153/4/1
f 185/2/1 153/2/1 184/2/1
f 186/4/1 173/4/1 172/4/1
f 187/2/1 174/2/1 173/2/1
f 187/4/1 173/4/1 186/4/1
f 188/1/1 175/1/1 174/1/1
f 188/2/1 174/2/1 187/2/1
f 189/5/1 177/5/1 176/5/1
f 189/1/1 175/1/1 188/1/1
f 189/5/1 176/5/1 175/5/1
f 190/2/1 178/2/1 177/2/1
f 190/5/1 177/5/1 189/5/1
f 191/4/1 180/4/1 179/4/1
f 191/2/1 178/2/1 190/2/1
f 191/4/1 179/4/1 178/4/1
f 192/4/1 180/4/1 191/4/1
f 193/4/1 180/4/1 192/4/1
f 194/4/1 180/4/1 193/4/1
f 195/2/1 181/2/1 180/2/1
f 195/4/1 180/4/1 194/4/1
f 196/1/1 183/1/1 182/1/1
f 196/2/1 181/2/1 195/2/1
f 196/1/1 182/1/1 181/1/1
f 196/1/1 184/1/1 183/1/1
f 197/1/1 184/1/1 196/1/1
f 198/1/1 184/1/1 197/1/1
f 199/5/1 185/5/1 184/5/1
f 199/1/1 184/1/1 198/1/1
f 200/4/1 169/4/1 185/4/1
f 200/5/1 185/5/1 199/5/1
f 201/2/1 172/2/1 171/2/1
f 202/4/1 186/4/1 172/4/1
f 202/2/1 172/2/1 201/2/1
f 203/1/1 189/1/1 188/1/1
f 203/4/1 186/4/1 202/4/1
f 203/1/1 188/1/1 187/1/1
f 203/1/1 187/1/1 186/1/1
f 203/1/1 190/1/1 189/1/1
f 204/4/1 192/4/1 191/4/1
f 204/1/1 190/1/1 203/1/1
f 204/4/1 191/4/1 190/4/1
f 205/4/1 192/4/1 204/4/1
f 206/2/1 193/2/1 192/2/1
f 206/4/1 192/4/1 205/4/1
f 207/1/1 195/1/1 194/1/1
f 207/4/1 194/4/1 193/4/1
f 207/1/1 197/1/1 196/1/1
f 207/1/1 196/1/1 195/1/1
f 208/1/1 197/1/1 207/1/1
f 209/2/1 198/2/1 197/2/1
f 209/1/1 197/1/1 208/1/1
f 210/1/1 200/1/1 199/1/1
f 210/2/1 198/2/1 209/2/1
f 210/1/1 199/1/1 198/1/1
f 211/4/1 169/4/1 200/4/1
f 211/1/1 200/1/1 210/1/1
f 212/2/1 170/2/1 169/2/1
f 212/4/1 169/4/1 211/4/1
f 213/2/1 170/2/1 212/2/1
f 214/1/1 202/1/1 201/1/1
f 214/4/1 203/4/1 202/4/1
f 215/4/1 203/4/1 214/4/1
f 216/2/1 206/2/1 205/2/1
f 216/4/1 205/4/1 204/4/1
f 217/2/1 193/2/1 206/2/1
f 217/2/1 206/2/1 216/2/1
f 217/4/1 208/4/1 207/4/1
f 217/4/1 207/4/1 193/4/1
f 218/4/1 208/4/1 217/4/1
f 219/4/1 213/4/1 212/4/1
f 219/4/1 212/4/1 211/4/1
f 220/4/1 213/4/1 219/4/1
f 221/1/1 215/1/1 214/1/1
f 223/4/1 216/4/1 204/4/1
f 223/4/1 217/4/1 216/4/1
f 224/4/1 217/4/1 223/4/1
f 225/2/1 218/2/1 217/2/1
f 225/4/1 217/4/1 224/4/1
f 226/4/1 208/4/1 218/4/1
f 228/4/1 219/4/1 211/4/1
f 229/2/1 220/2/1 219/2/1
f 229/4/1 219/4/1 228/4/1
f 230/2/1 220/2/1 229/2/1
f 231/2/1 222/2/1 221/2/1
f 231/1/1 221/1/1 214/1/1
f 232/2/1 222/2/1 231/2/1
f 233/4/1 224/4/1 223/4/1
f 233/2/1 222/2/1 232/2/1
f 233/4/1 223/4/1 222/4/1
f 234/4/1 224/4/1 233/4/1
f 235/4/1 224/4/1 234/4/1
f 236/2/1 218/2/1 225/2/1
f 236/2/1 225/2/1 224/2/1
f 237/4/1 227/4/1 226/4/1
f 237/2/1 218/2/1 236/2/1
f 237/4/1 226/4/1 218/4/1
f 238/4/1 227/4/1 237/4/1
f 239/2/1 228/2/1 227/2/1
f 240/1/1 230/1/1 229/1/1
f 240/2/1 228/2/1 239/2/1
f 240/1/1 229/1/1 228/1/1
f 241/1/1 214/1/1 201/1/1
f 241/1/1 232/1/1 231/1/1
f 241/1/1 231/1/1 214/1/1
f 242/1/1 232/1/1 241/1/1
f 243/2/1 234/2/1 233/2/1
f 243/1/1 232/1/1 242/1/1
f 243/2/1 233/2/1 232/2/1
f 244/2/1 234/2/1 243/2/1
f 245/2/1 234/2/1 244/2/1
f 246/5/1 235/5/1 234/5/1
f 246/2/1 234/2/1 245/2/1
f 247/4/1 224/4/1 235/4/1
f 247/5/1 235/5/1 246/5/1
f 248/2/1 236/2/1 224/2/1
f 248/4/1 224/4/1 247/4/1
f 249/5/1 237/5/1 236/5/1
f 249/2/1 236/2/1 248/2/1
f 249/5/1 238/5/1 237/5/1
f 250/5/1 238/5/1 249/5/1
f 251/5/1 238/5/1 250/5/1
f 252/5/1 238/5/1 251/5/1
f 253/4/1 227/4/1 238/4/1
f 253/5/1 238/5/1 252/5/1
f 254/2/1 239/2/1 227/2/1
f 254/4/1 227/4/1 253/4/1
f 255/1/1 240/1/1 239/1/1
f 255/2/1 239/2/1 254/2/1
f 256/1/1 230/1/1 240/1/1
f 256/1/1 240/1/1 255/1/1
f 257/1/1 230/1/1 256/1/1
f 258/1/1 230/1/1 257/1/1
f 259/2/2 260/2/2 275/2/2
f 260/1/2 261/1/2 276/1/2
f 275/2/2 260/2/2 276/2/2
f 261/1/2 262/1/2 276/1/2
f 276/1/2 262/1/2 277/1/2
f 277/1/2 262/1/2 278/1/2
f 262/2/2 263/2/2 279/2/2
f 278/1/2 262/1/2 279/1/2
f 263/4/2 264/4/2 280/4/2
f 279/2/2 263/2/2 280/2/2
f 264/2/2 265/2/2 281/2/2
f 280/4/2 264/4/2 281/4/2
f 265/4/2 266/4/2 282/4/2
f 266/4/2 267/4/2 282/4/2
f 267/2/2 268/2/2 282/2/2
f 268/2/2 269/2/2 282/2/2
f 282/2/2 269/2/2 283/2/2
f 272/1/2 273/1/2 284/1/2
f 283/2/2 269/2/2 284/2/2
f 269/1/2 270/1/2 284/1/2
f 270/1/2 271/1/2 284/1/2
f 271/1/2 272/1/2 284/1/2
f 284/1/2 273/1/2 285/1/2
f 273/2/2 274/2/2 286/2/2
f 285/1/2 273/1/2 286/1/2
f 286/2/2 274/2/2 287/2/2
f 276/2/2 277/2/2 288/2/2
f 275/1/2 276/1/2 288/1/2
f 277/4/2 278/4/2 289/4/2
f 288/2/2 277/2/2 289/2/2
f 278/2/2 279/2/2 290/2/2
f 289/4/2 278/4/2 290/4/2
f 279/2/2 280/2/2 290/2/2
f 280/2/2 281/2/2 290/2/2
f 290/2/2 281/2/2 291/2/2
f 291/2/2 281/2/2 292/2/2
f 281/2/2 265/2/2 293/2/2
f 292/2/2 281/2/2 293/2/2
f 265/4/2 282/4/2 294/4/2
f 293/2/2 265/2/2 294/2/2
f 294/4/2 282/4/2 295/4/2
f 295/4/2 282/4/2 296/4/2
f 282/5/2 283/5/2 297/5/2
f 296/4/2 282/4/2 297/4/2
f 283/4/2 284/4/2 298/4/2
f 297/5/2 283/5/2 298/5/2
f 284/2/2 285/2/2 299/2/2
f 298/4/2 284/4/2 299/4/2
f 285/1/2 286/1/2 300/1/2
f 299/2/2 285/2/2 300/2/2
f 286/1/2 287/1/2 300/1/2
f 300/1/2 287/1/2 301/1/2
f 301/1/2 287/1/2 302/1/2
f 302/1/2 287/1/2 303/1/2
f 275/1/2 288/1/2 304/1/2
f 288/4/2 289/4/2 305/4/2
f 304/1/2 288/1/2 305/1/2
f 289/2/2 290/2/2 306/2/2
f 305/4/2 289/4/2 306/4/2
f 295/4/2 296/4/2 307/4/2
f 296/2/2 297/2/2 307/2/2
f 297/4/2 298/4/2 308/4/2
f 307/2/2 297/2/2 308/2/2
f 298/4/2 299/4/2 308/4/2
f 299/4/2 300/4/2 308/4/2
f 300/4/2 301/4/2 308/4/2
f 308/4/2 301/4/2 309/4/2
f 309/4/2 301/4/2 310/4/2
f 310/4/2 301/4/2 311/4/2
f 301/2/2 302/2/2 312/2/2
f 311/4/2 301/4/2 312/4/2
f 302/4/2 303/4/2 313/4/2
f 312/2/2 302/2/2 313/2/2
f 303/1/2 287/1/2 314/1/2
f 313/4/2 303/4/2 314/4/2
f 305/2/2 306/2/2 315/2/2
f 304/2/2 305/2/2 315/2/2
f 306/2/2 290/2/2 316/2/2
f 315/2/2 306/2/2 316/2/2
f 290/4/2 291/4/2 316/4/2
f 291/5/2 292/5/2 317/5/2
f 316/4/2 291/4/2 317/4/2
f 292/4/2 293/4/2 318/4/2
f 317/5/2 292/5/2 318/5/2
f 294/5/2 295/5/2 319/5/2
f 318/4/2 293/4/2 319/4/2
f 293/5/2 294/5/2 319/5/2
f 295/4/2 307/4/2 320/4/2
f 319/5/2 295/5/2 320/5/2
f 307/4/2 308/4/2 320/4/2
f 320/4/2 308/4/2 321/4/2
f 321/4/2 308/4/2 322/4/2
f 322/4/2 308/4/2 323/4/2
f 308/2/2 309/2/2 324/2/2
f 323/4/2 308/4/2 324/4/2
f 309/4/2 310/4/2 325/4/2
f 324/2/2 309/2/2 325/2/2
f 310/5/2 311/5/2 326/5/2
f 325/4/2 310/4/2 326/4/2
f 326/5/2 311/5/2 327/5/2
f 312/4/2 313/4/2 328/4/2
f 327/5/2 311/5/2 328/5/2
f 311/4/2 312/4/2 328/4/2
f 328/4/2 313/4/2 329/4/2
f 329/4/2 313/4/2 330/4/2
f 313/2/2 314/2/2 331/2/2
f 330/4/2 313/4/2 331/4/2
f 314/1/2 287/1/2 332/1/2
f 331/2/2 314/2/2 332/2/2
f 332/1/2 287/1/2 333/1/2
f 315/4/2 316/4/2 334/4/2
f 316/4/2 317/4/2 334/4/2
f 318/2/2 319/2/2 335/2/2
f 334/4/2 317/4/2 335/4/2
f 317/2/2 318/2/2 335/2/2
f 319/2/2 320/2/2 335/2/2
f 335/2/2 320/2/2 336/2/2
f 320/4/2 321/4/2 337/4/2
f 336/2/2 320/2/2 337/2/2
f 321/5/2 322/5/2 338/5/2
f 337/4/2 321/4/2 338/4/2
f 322/2/2 323/2/2 339/2/2
f 338/5/2 322/5/2 339/5/2
f 323/4/2 324/4/2 340/4/2
f 339/2/2 323/2/2 340/2/2
f 324/4/2 325/4/2 340/4/2
f 325/2/2 326/2/2 341/2/2
f 340/4/2 325/4/2 341/4/2
f 326/5/2 327/5/2 342/5/2
f 341/2/2 326/2/2 342/2/2
f 328/2/2 329/2/2 343/2/2
f 342/5/2 327/5/2 343/5/2
f 327/2/2 328/2/2 343/2/2
f 343/2/2 329/2/2 344/2/2
f 330/2/2 331/2/2 345/2/2
f 329/4/2 330/4/2 345/4/2
f 345/2/2 331/2/2 346/2/2
f 331/4/2 332/4/2 347/4/2
f 332/4/2 333/4/2 347/4/2
f 347/4/2 333/4/2 348/4/2
f 315/4/2 334/4/2 349/4/2
f 334/2/2 335/2/2 350/2/2
f 349/4/2 334/4/2 350/4/2
f 350/2/2 335/2/2 351/2/2
f 335/4/2 336/4/2 352/4/2
f 351/2/2 335/2/2 352/2/2
f 352/4/2 336/4/2 353/4/2
f 337/2/2 338/2/2 354/2/2
f 353/4/2 336/4/2 354/4/2
f 336/2/2 337/2/2 354/2/2
f 354/2/2 338/2/2 355/2/2
f 339/5/2 340/5/2 356/5/2
f 355/2/2 338/2/2 356/2/2
f 338/5/2 339/5/2 356/5/2
f 340/4/2 341/4/2 357/4/2
f 356/5/2 340/5/2 357/5/2
f 343/4/2 344/4/2 357/4/2
f 341/4/2 342/4/2 357/4/2
f 342/4/2 343/4/2 357/4/2
f 357/4/2 344/4/2 358/4/2
f 358/4/2 344/4/2 359/4/2
f 344/2/2 329/2/2 360/2/2
f 359/4/2 344/4/2 360/4/2
f 345/4/2 346/4/2 361/4/2
f 360/2/2 329/2/2 361/2/2
f 329/4/2 345/4/2 361/4/2
f 346/2/2 331/2/2 362/2/2
f 361/4/2 346/4/2 362/4/2
f 331/4/2 347/4/2 363/4/2
f 362/2/2 331/2/2 363/2/2
f 350/4/2 351/4/2 364/4/2
f 351/2/2 352/2/2 365/2/2
f 364/4/2 351/4/2 365/4/2
f 352/1/2 353/1/2 366/1/2
f 365/2/2 352/2/2 366/2/2
f 354/5/2 355/5/2 367/5/2
f 366/1/2 353/1/2 367/1/2
f 353/5/2 354/5/2 367/5/2
f 355/2/2 356/2/2 368/2/2
f 367/5/2 355/5/2 368/5/2
f 357/4/2 358/4/2 369/4/2
f 368/2/2 356/2/2 369/2/2
f 356/4/2 357/4/2 369/4/2
f 369/4/2 358/4/2 370/4/2
f 370/4/2 358/4/2 371/4/2
f 371/4/2 358/4/2 372/4/2
f 358/2/2 359/2/2 373/2/2
f 372/4/2 358/4/2 373/4/2
f 360/1/2 361/1/2 374/1/2
f 373/2/2 359/2/2 374/2/2
f 359/1/2 360/1/2 374/1/2
f 361/1/2 362/1/2 374/1/2
f 374/1/2 362/1/2 375/1/2
f 375/1/2 362/1/2 376/1/2
f 362/5/2 363/5/2 377/5/2
f 376/1/2 362/1/2 377/1/2
f 363/4/2 347/4/2 378/4/2
f 377/5/2 363/5/2 378/5/2
f 349/2/2 350/2/2 379/2/2
f 350/4/2 364/4/2 380/4/2
f 379/2/2 350/2/2 380/2/2
f 366/1/2 367/1/2 381/1/2
f 380/4/2 364/4/2 381/4/2
f 365/1/2 366/1/2 381/1/2
f 364/1/2 365/1/2 381/1/2
f 367/1/2 368/1/2 381/1/2
f 369/4/2 370/4/2 382/4/2
f 381/1/2 368/1/2 382/1/2
f 368/4/2 369/4/2 382/4/2
f 382/4/2 370/4/2 383/4/2
f 370/2/2 371/2/2 384/2/2
f 383/4/2 370/4/2 384/4/2
f 371/4/2 372/4/2 385/4/2
f 372/1/2 373/1/2 385/1/2
f 374/1/2 375/1/2 385/1/2
f 373/1/2 374/1/2 385/1/2
f 385/1/2 375/1/2 386/1/2
f 375/2/2 376/2/2 387/2/2
f 386/1/2 375/1/2 387/1/2
f 377/1/2 378/1/2 388/1/2
f 387/2/2 376/2/2 388/2/2
f 376/1/2 377/1/2 388/1/2
f 378/4/2 347/4/2 389/4/2
f 388/1/2 378/1/2 389/1/2
f 347/2/2 348/2/2 390/2/2
f 389/4/2 347/4/2 390/4/2
f 390/2/2 348/2/2 391/2/2
f 379/1/2 380/1/2 392/1/2
f 380/4/2 381/4/2 392/4/2
f 392/4/2 381/4/2 393/4/2
f 383/2/2 384/2/2 394/2/2
f 382/4/2 383/4/2 394/4/2
f 384/2/2 371/2/2 395/2/2
f 394/2/2 384/2/2 395/2/2
f 385/4/2 386/4/2 395/4/2
f 371/4/2 385/4/2 395/4/2
f 395/4/2 386/4/2 396/4/2
f 390/4/2 391/4/2 397/4/2
f 389/4/2 390/4/2 397/4/2
f 397/4/2 391/4/2 398/4/2
f 392/1/2 393/1/2 399/1/2
f 382/4/2 394/4/2 401/4/2
f 394/4/2 395/4/2 401/4/2
f 401/4/2 395/4/2 402/4/2
f 395/2/2 396/2/2 403/2/2
f 402/4/2 395/4/2 403/4/2
f 396/4/2 386/4/2 404/4/2
f 389/4/2 397/4/2 406/4/2
f 397/2/2 398/2/2 407/2/2
f 406/4/2 397/4/2 407/4/2
f 407/2/2 398/2/2 408/2/2
f 399/2/2 400/2/2 409/2/2
f 392/1/2 399/1/2 409/1/2
f 409/2/2 400/2/2 410/2/2
f 401/4/2 402/4/2 411/4/2
f 410/2/2 400/2/2 411/2/2
f 400/4/2 401/4/2 411/4/2
f 411/4/2 402/4/2 412/4/2
f 412/4/2 402/4/2 413/4/2
f 403/2/2 396/2/2 414/2/2
f 402/2/2 403/2/2 414/2/2
f 404/4/2 405/4/2 415/4/2
f 414/2/2 396/2/2 415/2/2
f 396/4/2 404/4/2 415/4/2
f 415/4/2 405/4/2 416/4/2
f 405/2/2 406/2/2 417/2/2
f 407/1/2 408/1/2 418/1/2
f 417/2/2 406/2/2 418/2/2
f 406/1/2 407/1/2 418/1/2
f 379/1/2 392/1/2 419/1/2
f 409/1/2 410/1/2 419/1/2
f 392/1/2 409/1/2 419/1/2
f 419/1/2 410/1/2 420/1/2
f 420/1/2 410/1/2 421/1/2
f 411/2/2 412/2/2 422/2/2
f 421/1/2 410/1/2 422/1/2
f 410/2/2 411/2/2 422/2/2
f 422/2/2 412/2/2 423/2/2
f 423/2/2 412/2/2 424/2/2
f 412/5/2 413/5/2 425/5/2
f 424/2/2 412/2/2 425/2/2
f 413/4/2 402/4/2 426/4/2
f 425/5/2 413/5/2 426/5/2
f 402/2/2 414/2/2 427/2/2
f 426/4/2 402/4/2 427/4/2
f 414/5/2 415/5/2 428/5/2
f 427/2/2 414/2/2 428/2/2
f 415/5/2 416/5/2 428/5/2
f 428/5/2 416/5/2 429/5/2
f 429/5/2 416/5/2 430/5/2
f 430/5/2 416/5/2 431/5/2
f 416/4/2 405/4/2 432/4/2
f 431/5/2 416/5/2 432/5/2
f 405/2/2 417/2/2 433/2/2
f 432/4/2 405/4/2 433/4/2
f 417/1/2 418/1/2 434/1/2
f 433/2/2 417/2/2 434/2/2
f 418/1/2 408/1/2 435/1/2
f 434/1/2 418/1/2 435/1/2
f 435/1/2 408/1/2 436/1/2
f 436/1/2 408/1/2 437/1/2
f 438/3/2 439/3/2 448/3/2
f 448/3/2 439/3/2 449/3/2
f 449/3/2 439/3/2 450/3/2
f 439/6/2 440/6/2 451/6/2
f 450/3/2 439/3/2 451/3/2
f 440/3/2 441/3/2 452/3/2
f 441/6/2 442/6/2 452/6/2
f 442/3/2 443/3/2 453/3/2
f 452/6/2 442/6/2 453/6/2
f 443/6/2 444/6/2 454/6/2
f 444/3/2 445/3/2 455/3/2
f 454/6/2 444/6/2 455/6/2
f 445/6/2 446/6/2 456/6/2
f 455/3/2 445/3/2 456/3/2
f 446/3/2 447/3/2 457/3/2
f 456/6/2 446/6/2 457/6/2
f 457/3/2 447/3/2 458/3/2
f 458/3/2 447/3/2 459/3/2
f 448/6/2 449/6/2 460/6/2
f 449/3/2 450/3/2 461/3/2
f 460/6/2 449/6/2 461/6/2
f 451/6/2 440/6/2 462/6/2
f 450/6/2 451/6/2 462/6/2
f 440/3/2 452/3/2 463/3/2
f 462/6/2 440/6/2 463/6/2
f 452/3/2 453/3/2 463/3/2
f 463/3/2 453/3/2 464/3/2
f 464/3/2 453/3/2 465/3/2
f 465/3/2 453/3/2 466/3/2
f 453/3/2 443/3/2 467/3/2
f 466/3/2 453/3/2 467/3/2
f 443/6/2 454/6/2 467/6/2
f 455/3/2 456/3/2 468/3/2
f 467/6/2 454/6/2 468/6/2
f 454/3/2 455/3/2 468/3/2
f 456/3/2 457/3/2 468/3/2
f 457/3/2 458/3/2 468/3/2
f 468/3/2 458/3/2 469/3/2
f 469/3/2 458/3/2 470/3/2
f 470/3/2 458/3/2 471/3/2
f 471/3/2 458/3/2 472/3/2
f 458/6/2 459/6/2 473/6/2
f 472/3/2 458/3/2 473/3/2
f 473/6/2 459/6/2 474/6/2
f 474/6/2 459/6/2 475/6/2
f 460/3/2 461/3/2 476/3/2
f 461/3/2 450/3/2 477/3/2
f 476/3/2 461/3/2 477/3/2
f 450/6/2 462/6/2 477/6/2
f 463/3/2 464/3/2 478/3/2
f 477/6/2 462/6/2 478/6/2
f 462/3/2 463/3/2 478/3/2
f 464/6/2 465/6/2 479/6/2
f 478/3/2 464/3/2 479/3/2
f 465/3/2 466/3/2 480/3/2
f 479/6/2 465/6/2 480/6/2
f 466/6/2 467/6/2 481/6/2
f 480/3/2 466/3/2 481/3/2
f 467/6/2 468/6/2 481/6/2
f 468/6/2 469/6/2 481/6/2
f 469/3/2 470/3/2 482/3/2
f 481/6/2 469/6/2 482/6/2
f 470/6/2 471/6/2 483/6/2
f 482/3/2 470/3/2 483/3/2
f 471/3/2 472/3/2 484/3/2
f 483/6/2 471/6/2 484/6/2
f 473/6/2 474/6/2 485/6/2
f 484/3/2 472/3/2 485/3/2
f 472/6/2 473/6/2 485/6/2
f 474/3/2 475/3/2 486/3/2
f 485/6/2 474/6/2 486/6/2
f 486/3/2 475/3/2 487/3/2
f 488/3/2 489/3/2 503/3/2
f 489/6/2 490/6/2 503/6/2
f 490/3/2 491/3/2 504/3/2
f 503/6/2 490/6/2 504/6/2
f 491/6/2 492/6/2 505/6/2
f 492/3/2 493/3/2 506/3/2
f 505/6/2 492/6/2 506/6/2
f 506/3/2 493/3/2 507/3/2
f 493/6/2 494/6/2 508/6/2
f 507/3/2 493/3/2 508/3/2
f 508/6/2 494/6/2 509/6/2
f 494/3/2 495/3/2 510/3/2
f 509/6/2 494/6/2 510/6/2
f 510/3/2 495/3/2 511/3/2
f 495/6/2 496/6/2 512/6/2
f 511/3/2 495/3/2 512/3/2
f 496/3/2 497/3/2 513/3/2
f 512/6/2 496/6/2 513/6/2
f 513/3/2 497/3/2 514/3/2
f 497/6/2 498/6/2 515/6/2
f 514/3/2 497/3/2 515/3/2
f 498/3/2 499/3/2 516/3/2
f 515/6/2 498/6/2 516/6/2
f 499/6/2 500/6/2 517/6/2
f 516/3/2 499/3/2 517/3/2
f 500/3/2 501/3/2 518/3/2
f 517/6/2 500/6/2 518/6/2
f 501/6/2 502/6/2 519/6/2
f 518/3/2 501/3/2 519/3/2
f 519/6/2 502/6/2 520/6/2
f 488/3/2 503/3/2 521/3/2
f 503/3/2 504/3/2 521/3/2
f 504/3/2 491/3/2 522/3/2
f 521/3/2 504/3/2 522/3/2
f 491/6/2 505/6/2 522/6/2
f 506/3/2 507/3/2 523/3/2
f 522/6/2 505/6/2 523/6/2
f 505/3/2 506/3/2 523/3/2
f 508/6/2 509/6/2 524/6/2
f 523/3/2 507/3/2 524/3/2
f 507/6/2 508/6/2 524/6/2
f 510/3/2 511/3/2 525/3/2
f 524/6/2 509/6/2 525/6/2
f 509/3/2 510/3/2 525/3/2
f 511/6/2 512/6/2 526/6/2
f 525/3/2 511/3/2 526/3/2
f 513/6/2 514/6/2 526/6/2
f 512/6/2 513/6/2 526/6/2
f 514/3/2 515/3/2 527/3/2
f 526/6/2 514/6/2 527/6/2
f 515/3/2 516/3/2 527/3/2
f 516/6/2 517/6/2 528/6/2
f 527/3/2 516/3/2 528/3/2
f 517/3/2 518/3/2 529/3/2
f 528/6/2 517/6/2 529/6/2
f 518/6/2 519/6/2 530/6/2
f 529/3/2 518/3/2 530/3/2
f 519/3/2 520/3/2 531/3/2
f 530/6/2 519/6/2 531/6/2
f 531/3/2 520/3/2 532/3/2
f 540/2/3 534/2/3 533/2/3
f 541/1/3 535/1/3 534/1/3
f 541/2/3 534/2/3 540/2/3
f 542/2/3 536/2/3 535/2/3
f 542/1/3 535/1/3 541/1/3
f 543/4/3 537/4/3 536/4/3
f 543/2/3 536/2/3 542/2/3
f 544/2/3 538/2/3 537/2/3
f 544/4/3 537/4/3 543/4/3
f 545/1/3 539/1/3 538/1/3
f 545/2/3 538/2/3 544/2/3
f 546/1/3 539/1/3 545/1/3
f 553/6/3 548/6/3 547/6/3
f 554/3/3 549/3/3 548/3/3
f 554/6/3 548/6/3 553/6/3
f 555/3/3 549/3/3 554/3/3
f 556/3/3 549/3/3 555/3/3
f 557/3/3 551/3/3 550/3/3
f 558/6/3 552/6/3 551/6/3
f 558/3/3 551/3/3 557/3/3
f 559/6/3 552/6/3 558/6/3
f 560/3/3 554/3/3 553/3/3
f 560/3/3 555/3/3 554/3/3
f 561/6/3 556/6/3 555/6/3
f 561/3/3 555/3/3 560/3/3
f 562/6/3 556/6/3 561/6/3
f 563/6/3 558/6/3 557/6/3
f 564/3/3 559/3/3 558/3/3
f 564/6/3 558/6/3 563/6/3
f 565/3/3 560/3/3 553/3/3
f 566/6/3 561/6/3 560/6/3
f 566/3/3 560/3/3 565/3/3
f 567/3/3 562/3/3 561/3/3
f 567/6/3 561/6/3 566/6/3
f 568/3/3 562/3/3 567/3/3
f 569/3/3 564/3/3 563/3/3
f 570/3/3 559/3/3 564/3/3
f 570/3/3 564/3/3 569/3/3
f 573/4/3 572/4/3 571/4/3
f 574/4/3 572/4/3 573/4/3
f 577/4/3 576/4/3 575/4/3
f 578/4/3 576/4/3 577/4/3
f 579/4/4 580/4/4 582/4/4
f 580/1/4 581/1/4 583/1/4
f 582/4/4 580/4/4 583/4/4
f 583/1/4 581/1/4 584/1/4
f 585/4/4 586/4/4 587/4/4
f 587/4/4 586/4/4 588/4/4
f 589/3/4 590/3/4 595/3/4
f 590/6/4 591/6/4 595/6/4
f 595/6/4 591/6/4 596/6/4
f 592/3/4 593/3/4 597/3/4
f 595/3/4 596/3/4 598/3/4
f 589/3/4 595/3/4 598/3/4
f 598/3/4 596/3/4 599/3/4
f 599/3/4 596/3/4 600/3/4
f 597/3/4 593/3/4 601/3/4
f 593/6/4 594/6/4 602/6/4
f 601/3/4 593/3/4 602/3/4
f 602/6/4 594/6/4 603/6/4
f 589/3/4 598/3/4 604/3/4
f 598/6/4 599/6/4 605/6/4
f 604/3/4 598/3/4 605/3/4
f 599/3/4 600/3/4 606/3/4
f 605/6/4 599/6/4 606/6/4
f 606/3/4 600/3/4 607/3/4
f 601/6/4 602/6/4 608/6/4
f 602/3/4 603/3/4 609/3/4
f 608/6/4 602/6/4 609/6/4
f 609/3/4 603/3/4 610/3/4
f 611/2/4 612/2/4 619/2/4
f 612/1/4 613/1/4 620/1/4
f 619/2/4 612/2/4 620/2/4
f 613/4/4 614/4/4 621/4/4
f 620/1/4 613/1/4 621/1/4
f 614/2/4 615/2/4 622/2/4
f 621/4/4 614/4/4 622/4/4
f 615/4/4 616/4/4 623/4/4
f 622/2/4 615/2/4 623/2/4
f 616/2/4 617/2/4 624/2/4
f 623/4/4 616/4/4 624/4/4
f 617/1/4 618/1/4 625/1/4
f 624/2/4 617/2/4 625/2/4
f 625/1/4 618/1/4 626/1/4
f 630/6/5 628/6/5 627/6/5
f 631/3/5 629/3/5 628/3/5
f 631/6/5 628/6/5 630/6/5
f 632/3/5 631/3/5 630/3/5
f 632/3/5 629/3/5 631/3/5
f 633/3/5 629/3/5 632/3/5
f 634/6/5 633/6/5 632/6/5
f 635/6/5 633/6/5 634/6/5
f 636/3/5 632/3/5 630/3/5
f 637/6/5 634/6/5 632/6/5
f 637/3/5 632/3/5 636/3/5
f 638/3/5 635/3/5 634/3/5
f 638/6/5 634/6/5 637/6/5
f 639/3/5 635/3/5 638/3/5
f 640/6/5 637/6/5 636/6/5
f 640/6/5 638/6/5 637/6/5
f 640/6/5 639/6/5 638/6/5
f 641/6/5 639/6/5 640/6/5
f 642/3/5 641/3/5 640/3/5
f 643/6/5 639/6/5 641/6/5
f 643/3/5 641/3/5 642/3/5
f 644/6/5 639/6/5 643/6/5
f 645/6/5 643/6/5 642/6/5
f 645/3/5 644/3/5 643/3/5
f 646/3/5 644/3/5 645/3/5
f 647/6/5 645/6/5 642/6/5
f 647/6/5 646/6/5 645/6/5
f 648/6/5 646/6/5 647/6/5
f 649/3/5 648/3/5 647/3/5
f 649/6/5 646/6/5 648/6/5
f 650/6/5 646/6/5 649/6/5
f 651/3/5 649/3/5 647/3/5
f 651/3/5 650/3/5 649/3/5
f 652/3/5 650/3/5 651/3/5
f 653/6/5 646/6/5 650/6/5
f 653/3/5 650/3/5 652/3/5
f 654/6/5 646/6/5 653/6/5
f 655/6/5 652/6/5 651/6/5
f 655/3/5 653/3/5 652/3/5
f 655/3/5 654/3/5 653/3/5
f 656/3/5 654/3/5 655/3/5
f 657/6/5 655/6/5 651/6/5
f 657/6/5 656/6/5 655/6/5
f 658/6/5 656/6/5 657/6/5
f 659/3/5 658/3/5 657/3/5
f 660/3/5 658/3/5 659/3/5
f 661/3/5 659/3/5 657/3/5
f 662/6/5 660/6/5 659/6/5
f 662/3/5 659/3/5 661/3/5
f 663/6/5 662/6/5 661/6/5
f 664/6/5 660/6/5 662/6/5
f 664/6/5 662/6/5 663/6/5
f 665/3/5 664/3/5 663/3/5
f 665/6/5 660/6/5 664/6/5
f 666/3/5 658/3/5 660/3/5
f 666/6/5 660/6/5 665/6/5
f 667/3/5 665/3/5 663/3/5
f 667/3/5 666/3/5 665/3/5
f 668/3/5 658/3/5 666/3/5
f 668/3/5 666/3/5 667/3/5
f 671/2/5 670/2/5 669/2/5
f 672/2/5 670/2/5 671/2/5
f 675/2/5 674/2/5 673/2/5
f 676/2/5 674/2/5 675/2/5
f 679/2/5 678/2/5 677/2/5
f 680/2/5 678/2/5 679/2/5
f 681/4/5 680/4/5 679/4/5
f 682/4/5 680/4/5 681/4/5
f 685/4/5 684/4/5 683/4/5
f 686/4/5 684/4/5 685/4/5
f 687/2/5 686/2/5 685/2/5
f 688/2/5 686/2/5 687/2/5
f 693/3/5 692/3/5 691/3/5
f 694/3/5 692/3/5 693/3/5
f 695/3/5 690/3/5 689/3/5
f 696/6/5 694/6/5 693/6/5
f 697/6/5 694/6/5 696/6/5
f 698/3/5 695/3/5 689/3/5
f 699/3/5 695/3/5 698/3/5
f 700/3/5 697/3/5 696/3/5
f 701/3/5 697/3/5 700/3/5
f 702/6/5 699/6/5 698/6/5
f 703/6/5 699/6/5 702/6/5
f 704/6/5 701/6/5 700/6/5
f 705/6/5 701/6/5 704/6/5
f 706/3/5 703/3/5 702/3/5
f 707/3/5 705/3/5 704/3/5
f 708/3/5 706/3/5 702/3/5
f 709/3/5 705/3/5 707/3/5
f 710/3/5 705/3/5 709/3/5
f 711/3/5 708/3/5 702/3/5
f 712/6/5 710/6/5 709/6/5
f 713/3/5 711/3/5 702/3/5
f 714/3/5 711/3/5 713/3/5
f 715/6/5 710/6/5 712/6/5
f 716/6/5 710/6/5 715/6/5
f 717/6/5 714/6/5 713/6/5
f 718/6/5 714/6/5 717/6/5
f 719/3/5 716/3/5 715/3/5
f 720/3/5 716/3/5 719/3/5
f 721/6/5 720/6/5 719/6/5
f 722/6/5 720/6/5 721/6/5
f 723/3/5 718/3/5 717/3/5
f 724/3/5 718/3/5 723/3/5
f 725/6/5 724/6/5 723/6/5
f 726/6/5 724/6/5 725/6/5
f 727/3/5 722/3/5 721/3/5
f 728/3/5 722/3/5 727/3/5
f 729/3/5 726/3/5 725/3/5
f 730/6/5 728/6/5 727/6/5
f 731/6/5 728/6/5 730/6/5
f 732/3/5 729/3/5 725/3/5
f 733/3/5 729/3/5 732/3/5
f 734/3/5 731/3/5 730/3/5
f 735/3/5 731/3/5 734/3/5
f 736/6/5 733/6/5 732/6/5
f 737/6/5 735/6/5 734/6/5
f 738/6/5 735/6/5 737/6/5
f 739/6/5 736/6/5 732/6/5
f 740/6/5 736/6/5 739/6/5
f 741/3/5 738/3/5 737/3/5
f 742/3/5 738/3/5 741/3/5
f 743/3/5 740/3/5 739/3/5
f 744/3/5 740/3/5 743/3/5
f 745/6/5 742/6/5 741/6/5
f 746/6/5 742/6/5 745/6/5
f 747/3/6 748/3/6 751/3/6
f 751/3/6 748/3/6 752/3/6
f 751/6/6 752/6/6 753/6/6
f 753/6/6 752/6/6 754/6/6
f 749/3/6 750/3/6 755/3/6
f 755/3/6 750/3/6 756/3/6
f 753/3/6 754/3/6 757/3/6
f 757/3/6 754/3/6 758/3/6
f 755/6/6 756/6/6 759/6/6
f 759/6/6 756/6/6 760/6/6
f 757/6/6 758/6/6 761/6/6
f 759/3/6 760/3/6 762/3/6
f 757/6/6 761/6/6 763/6/6
f 763/6/6 761/6/6 764/6/6
f 762/3/6 760/3/6 765/3/6
f 765/3/6 760/3/6 766/3/6
f 763/3/6 764/3/6 767/3/6
f 765/6/6 766/6/6 768/6/6
f 768/6/6 766/6/6 769/6/6
f 768/3/6 769/3/6 770/3/6
f 770/3/6 769/3/6 771/3/6
f 763/3/6 767/3/6 772/3/6
f 772/3/6 767/3/6 773/3/6
f 772/6/6 773/6/6 774/6/6
f 774/6/6 773/6/6 775/6/6
f 770/6/6 771/6/6 776/6/6
f 776/6/6 771/6/6 777/6/6
f 776/3/6 777/3/6 778/3/6
f 778/3/6 777/3/6 779/3/6
f 774/3/6 775/3/6 780/3/6
f 778/6/6 779/6/6 781/6/6
f 774/3/6 780/3/6 782/3/6
f 782/3/6 780/3/6 783/3/6
f 781/6/6 779/6/6 784/6/6
f 784/6/6 779/6/6 785/6/6
f 782/6/6 783/6/6 786/6/6
f 786/6/6 783/6/6 787/6/6
f 784/3/6 785/3/6 788/3/6
f 788/3/6 785/3/6 789/3/6
f 786/3/6 787/3/6 790/3/6
f 790/3/6 787/3/6 791/3/6
f 788/6/6 789/6/6 792/6/6
f 792/6/6 789/6/6 793/6/6
f 790/6/6 791/6/6 794/6/6
f 794/6/6 791/6/6 795/6/6
f 792/3/6 793/3/6 796/3/6
f 796/3/6 793/3/6 797/3/6
f 798/1/6 799/1/6 800/1/6
f 800/1/6 799/1/6 801/1/6
f 802/1/6 803/1/6 804/1/6
f 804/1/6 803/1/6 805/1/6
f 804/2/6 805/2/6 806/2/6
f 806/2/6 805/2/6 807/2/6
f 806/1/6 807/1/6 808/1/6
f 808/1/6 807/1/6 809/1/6
f 810/1/6 811/1/6 812/1/6
f 812/1/6 811/1/6 813/1/6
f 814/1/6 815/1/6 816/1/6
f 816/1/6 815/1/6 817/1/6
f 818/6/6 819/6/6 821/6/6
f 819/3/6 820/3/6 821/3/6
f 821/3/6 820/3/6 822/3/6
f 818/6/6 821/6/6 823/6/6
f 821/6/6 822/6/6 823/6/6
f 822/3/6 820/3/6 824/3/6
f 823/6/6 822/6/6 824/6/6
f 823/3/6 824/3/6 825/3/6
f 824/3/6 820/3/6 826/3/6
f 825/3/6 824/3/6 826/3/6
f 825/6/6 826/6/6 827/6/6
f 827/6/6 826/6/6 828/6/6
f 823/3/6 825/3/6 829/3/6
f 825/6/6 827/6/6 830/6/6
f 829/3/6 825/3/6 830/3/6
f 827/3/6 828/3/6 831/3/6
f 830/6/6 827/6/6 831/6/6
f 831/3/6 828/3/6 832/3/6
f 829/6/6 830/6/6 833/6/6
f 830/6/6 831/6/6 833/6/6
f 831/6/6 832/6/6 833/6/6
f 833/6/6 832/6/6 834/6/6
f 829/6/6 833/6/6 835/6/6
f 835/6/6 833/6/6 836/6/6
f 833/3/6 834/3/6 837/3/6
f 836/6/6 833/6/6 837/6/6
f 837/3/6 834/3/6 838/3/6
f 835/3/6 836/3/6 839/3/6
f 836/6/6 837/6/6 839/6/6
f 837/6/6 838/6/6 839/6/6
f 839/6/6 838/6/6 840/6/6
f 835/3/6 839/3/6 841/3/6
f 839/3/6 840/3/6 841/3/6
f 841/3/6 840/3/6 842/3/6
f 842/3/6 840/3/6 843/3/6
f 843/3/6 840/3/6 844/3/6
f 841/6/6 842/6/6 845/6/6
f 842/3/6 843/3/6 846/3/6
f 845/6/6 842/6/6 846/6/6
f 843/6/6 844/6/6 847/6/6
f 846/3/6 843/3/6 847/3/6
f 847/6/6 844/6/6 848/6/6
f 846/6/6 847/6/6 849/6/6
f 847/3/6 848/3/6 849/3/6
f 849/3/6 848/3/6 850/3/6
f 845/3/6 846/3/6 851/3/6
f 846/6/6 849/6/6 852/6/6
f 851/3/6 846/3/6 852/3/6
f 849/6/6 850/6/6 852/6/6
f 852/6/6 850/6/6 853/6/6
f 853/6/6 850/6/6 854/6/6
f 851/6/6 852/6/6 855/6/6
f 852/6/6 853/6/6 855/6/6
f 853/3/6 854/3/6 856/3/6
f 855/6/6 853/6/6 856/6/6
f 856/3/6 854/3/6 857/3/6
