# MagicaVoxel @ Ephtracy

# group
o 

# material
mtllib SmithingHouse4WallTEX.mtl
usemtl palette

# normals
vn -1 0 0
vn 1 0 0
vn 0 0 1
vn 0 0 -1
vn 0 -1 0
vn 0 1 0

# texcoords
vt 0.943359 0.5
vt 0.947266 0.5
vt 0.958984 0.5
vt 0.974609 0.5
vt 0.978516 0.5
vt 0.982422 0.5

# verts
v 0 2 -0.1
v 0 2 -0.2
v 0 2 -0.4
v 0 2 -0.7
v 0 2 -0.8
v 0 2 -0.9
v 0 2 -1.1
v 0 2 -1.2
v 0 2 -1.3
v 0 2 -1.4
v 0 2 -1.8
v 0 2 -2
v 0 2 -2.3
v 0 2.1 -0.1
v 0 2.1 -0.2
v 0 2.1 -0.4
v 0 2.1 -0.7
v 0 2.1 -0.8
v 0 2.1 -0.9
v 0 2.1 -1
v 0 2.1 -1.1
v 0 2.1 -1.2
v 0 2.1 -1.9
v 0 2.1 -2
v 0 2.1 -2.2
v 0 2.1 -2.3
v 0 2.2 -0.3
v 0 2.2 -0.7
v 0 2.2 -1.4
v 0 2.2 -1.8
v 0 2.2 -1.9
v 0 2.2 -2
v 0 2.3 -0.1
v 0 2.3 -0.3
v 0 2.3 -0.7
v 0 2.3 -1
v 0 2.3 -1.1
v 0 2.3 -1.3
v 0 2.3 -1.8
v 0 2.3 -1.9
v 0 2.3 -2
v 0 2.3 -2.2
v 0 2.3 -2.3
v 0 3.5 -0.1
v 0 3.5 -0.2
v 0 3.5 -0.3
v 0 3.5 -0.7
v 0 3.5 -0.8
v 0 3.5 -0.9
v 0 3.5 -1.2
v 0 3.5 -1.5
v 0 3.5 -1.6
v 0 3.5 -1.9
v 0 3.5 -2.3
v 0 3.6 -0.2
v 0 3.6 -0.3
v 0 3.6 -0.5
v 0 3.6 -0.6
v 0 3.6 -0.7
v 0 3.6 -0.8
v 0 3.6 -0.9
v 0 3.6 -1.1
v 0 3.6 -1.2
v 0 3.6 -1.3
v 0 3.6 -1.6
v 0 3.6 -1.7
v 0 3.6 -1.8
v 0 3.6 -1.9
v 0 3.6 -2.1
v 0 3.6 -2.2
v 0 3.6 -2.3
v 0 3.7 -0.1
v 0 3.7 -0.5
v 0 3.7 -0.6
v 0 3.7 -1.1
v 0 3.7 -1.3
v 0 3.7 -1.5
v 0 3.7 -1.7
v 0 3.7 -1.8
v 0 3.7 -1.9
v 0 3.7 -2.1
v 0 3.7 -2.2
v 0 3.7 -2.3
v 0.1 2.3 0
v 0.1 2.3 -0.1
v 0.1 2.3 -0.2
v 0.1 2.3 -0.3
v 0.1 2.3 -0.5
v 0.1 2.3 -0.7
v 0.1 2.3 -1
v 0.1 2.3 -1.1
v 0.1 2.3 -1.3
v 0.1 2.3 -1.4
v 0.1 2.3 -1.5
v 0.1 2.3 -1.8
v 0.1 2.3 -1.9
v 0.1 2.3 -2
v 0.1 2.3 -2.2
v 0.1 2.3 -2.3
v 0.1 2.3 -2.4
v 0.1 2.4 -0.2
v 0.1 2.4 -0.3
v 0.1 2.4 -0.5
v 0.1 2.4 -0.8
v 0.1 2.4 -1
v 0.1 2.4 -1.4
v 0.1 2.4 -1.5
v 0.1 2.4 -1.8
v 0.1 2.4 -1.9
v 0.1 2.4 -2
v 0.1 2.4 -2.1
v 0.1 2.4 -2.2
v 0.1 2.5 -0.1
v 0.1 2.5 -0.3
v 0.1 2.5 -0.7
v 0.1 2.5 -0.8
v 0.1 2.5 -0.9
v 0.1 2.5 -1
v 0.1 2.5 -1.1
v 0.1 2.5 -1.3
v 0.1 2.5 -2
v 0.1 2.5 -2.1
v 0.1 2.5 -2.2
v 0.1 2.5 -2.3
v 0.1 2.6 0
v 0.1 2.6 -0.1
v 0.1 2.6 -0.5
v 0.1 2.6 -0.8
v 0.1 2.6 -0.9
v 0.1 2.6 -1
v 0.1 2.6 -1.1
v 0.1 2.6 -1.2
v 0.1 2.6 -1.3
v 0.1 2.6 -1.4
v 0.1 2.6 -1.9
v 0.1 2.6 -2.1
v 0.1 2.6 -2.2
v 0.1 2.6 -2.3
v 0.1 2.6 -2.4
v 0.1 2.7 0
v 0.1 2.7 -0.1
v 0.1 2.7 -0.2
v 0.1 2.7 -0.4
v 0.1 2.7 -0.6
v 0.1 2.7 -0.8
v 0.1 2.7 -1.1
v 0.1 2.7 -1.2
v 0.1 2.7 -1.4
v 0.1 2.7 -2.2
v 0.1 2.7 -2.3
v 0.1 2.8 -0.1
v 0.1 2.8 -0.2
v 0.1 2.8 -0.4
v 0.1 2.8 -0.5
v 0.1 2.8 -0.6
v 0.1 2.8 -1.3
v 0.1 2.8 -1.5
v 0.1 2.8 -1.7
v 0.1 2.8 -1.9
v 0.1 2.8 -2.1
v 0.1 2.8 -2.2
v 0.1 2.8 -2.4
v 0.1 2.9 -0.3
v 0.1 2.9 -0.4
v 0.1 2.9 -0.5
v 0.1 2.9 -0.6
v 0.1 2.9 -0.7
v 0.1 2.9 -0.8
v 0.1 2.9 -1.2
v 0.1 2.9 -1.3
v 0.1 2.9 -1.5
v 0.1 2.9 -1.7
v 0.1 2.9 -1.8
v 0.1 2.9 -1.9
v 0.1 2.9 -2.1
v 0.1 2.9 -2.2
v 0.1 2.9 -2.3
v 0.1 3 -0.2
v 0.1 3 -0.3
v 0.1 3 -0.4
v 0.1 3 -0.7
v 0.1 3 -0.8
v 0.1 3 -0.9
v 0.1 3 -1
v 0.1 3 -1.2
v 0.1 3 -1.3
v 0.1 3 -1.6
v 0.1 3 -1.8
v 0.1 3 -2.1
v 0.1 3 -2.2
v 0.1 3 -2.3
v 0.1 3 -2.4
v 0.1 3.1 -0.1
v 0.1 3.1 -0.2
v 0.1 3.1 -0.8
v 0.1 3.1 -0.9
v 0.1 3.1 -1
v 0.1 3.1 -1.6
v 0.1 3.1 -2.2
v 0.1 3.1 -2.4
v 0.1 3.2 0
v 0.1 3.2 -0.1
v 0.1 3.2 -0.2
v 0.1 3.2 -1
v 0.1 3.2 -1.5
v 0.1 3.2 -2.3
v 0.1 3.2 -2.4
v 0.1 3.3 -0.1
v 0.1 3.3 -0.2
v 0.1 3.3 -0.4
v 0.1 3.3 -0.6
v 0.1 3.3 -0.7
v 0.1 3.3 -0.8
v 0.1 3.3 -0.9
v 0.1 3.3 -1
v 0.1 3.3 -1.4
v 0.1 3.3 -1.5
v 0.1 3.3 -1.6
v 0.1 3.3 -1.8
v 0.1 3.3 -1.9
v 0.1 3.3 -2
v 0.1 3.3 -2.1
v 0.1 3.3 -2.2
v 0.1 3.3 -2.3
v 0.1 3.4 -0.2
v 0.1 3.4 -0.4
v 0.1 3.4 -0.5
v 0.1 3.4 -0.6
v 0.1 3.4 -0.7
v 0.1 3.4 -0.8
v 0.1 3.4 -0.9
v 0.1 3.4 -1.1
v 0.1 3.4 -1.4
v 0.1 3.4 -1.5
v 0.1 3.4 -1.7
v 0.1 3.4 -1.8
v 0.1 3.4 -1.9
v 0.1 3.4 -2
v 0.1 3.4 -2.1
v 0.1 3.5 0
v 0.1 3.5 -0.1
v 0.1 3.5 -0.2
v 0.1 3.5 -0.3
v 0.1 3.5 -0.5
v 0.1 3.5 -0.7
v 0.1 3.5 -0.8
v 0.1 3.5 -0.9
v 0.1 3.5 -1.1
v 0.1 3.5 -1.2
v 0.1 3.5 -1.4
v 0.1 3.5 -1.5
v 0.1 3.5 -1.6
v 0.1 3.5 -1.7
v 0.1 3.5 -1.8
v 0.1 3.5 -1.9
v 0.1 3.5 -2.3
v 0.1 3.5 -2.4
v 0.2 2.3 0
v 0.2 2.3 -0.1
v 0.2 2.3 -0.2
v 0.2 2.3 -0.3
v 0.2 2.3 -0.5
v 0.2 2.3 -0.7
v 0.2 2.3 -0.9
v 0.2 2.3 -1
v 0.2 2.3 -1.3
v 0.2 2.3 -1.4
v 0.2 2.3 -1.5
v 0.2 2.3 -1.8
v 0.2 2.3 -2.1
v 0.2 2.3 -2.2
v 0.2 2.3 -2.3
v 0.2 2.3 -2.4
v 0.2 2.4 -0.2
v 0.2 2.4 -0.3
v 0.2 2.4 -0.5
v 0.2 2.4 -0.8
v 0.2 2.4 -1
v 0.2 2.4 -1.4
v 0.2 2.4 -1.5
v 0.2 2.4 -1.8
v 0.2 2.4 -1.9
v 0.2 2.4 -2
v 0.2 2.4 -2.1
v 0.2 2.4 -2.2
v 0.2 2.5 -0.1
v 0.2 2.5 -0.3
v 0.2 2.5 -0.7
v 0.2 2.5 -0.8
v 0.2 2.5 -0.9
v 0.2 2.5 -1
v 0.2 2.5 -1.1
v 0.2 2.5 -1.3
v 0.2 2.5 -2
v 0.2 2.5 -2.1
v 0.2 2.5 -2.2
v 0.2 2.5 -2.3
v 0.2 2.6 0
v 0.2 2.6 -0.1
v 0.2 2.6 -0.5
v 0.2 2.6 -0.8
v 0.2 2.6 -0.9
v 0.2 2.6 -1
v 0.2 2.6 -1.1
v 0.2 2.6 -1.2
v 0.2 2.6 -1.3
v 0.2 2.6 -1.4
v 0.2 2.6 -1.9
v 0.2 2.6 -2.1
v 0.2 2.6 -2.2
v 0.2 2.6 -2.3
v 0.2 2.6 -2.4
v 0.2 2.7 0
v 0.2 2.7 -0.1
v 0.2 2.7 -0.2
v 0.2 2.7 -0.4
v 0.2 2.7 -0.6
v 0.2 2.7 -0.8
v 0.2 2.7 -1.1
v 0.2 2.7 -1.2
v 0.2 2.7 -1.4
v 0.2 2.7 -2.2
v 0.2 2.7 -2.3
v 0.2 2.8 -0.1
v 0.2 2.8 -0.2
v 0.2 2.8 -0.4
v 0.2 2.8 -0.5
v 0.2 2.8 -0.6
v 0.2 2.8 -1.3
v 0.2 2.8 -1.5
v 0.2 2.8 -1.7
v 0.2 2.8 -1.9
v 0.2 2.8 -2.1
v 0.2 2.8 -2.2
v 0.2 2.8 -2.4
v 0.2 2.9 -0.3
v 0.2 2.9 -0.4
v 0.2 2.9 -0.5
v 0.2 2.9 -0.6
v 0.2 2.9 -0.7
v 0.2 2.9 -0.8
v 0.2 2.9 -1.2
v 0.2 2.9 -1.3
v 0.2 2.9 -1.5
v 0.2 2.9 -1.7
v 0.2 2.9 -1.8
v 0.2 2.9 -1.9
v 0.2 2.9 -2.1
v 0.2 2.9 -2.2
v 0.2 2.9 -2.3
v 0.2 3 -0.2
v 0.2 3 -0.3
v 0.2 3 -0.4
v 0.2 3 -0.7
v 0.2 3 -0.8
v 0.2 3 -0.9
v 0.2 3 -1
v 0.2 3 -1.2
v 0.2 3 -1.3
v 0.2 3 -1.6
v 0.2 3 -1.8
v 0.2 3 -2.1
v 0.2 3 -2.2
v 0.2 3 -2.3
v 0.2 3 -2.4
v 0.2 3.1 -0.1
v 0.2 3.1 -0.2
v 0.2 3.1 -0.8
v 0.2 3.1 -0.9
v 0.2 3.1 -1
v 0.2 3.1 -1.6
v 0.2 3.1 -2.2
v 0.2 3.1 -2.4
v 0.2 3.2 0
v 0.2 3.2 -0.1
v 0.2 3.2 -0.2
v 0.2 3.2 -1
v 0.2 3.2 -1.5
v 0.2 3.2 -2.3
v 0.2 3.2 -2.4
v 0.2 3.3 -0.1
v 0.2 3.3 -0.2
v 0.2 3.3 -0.4
v 0.2 3.3 -0.6
v 0.2 3.3 -0.7
v 0.2 3.3 -0.8
v 0.2 3.3 -0.9
v 0.2 3.3 -1
v 0.2 3.3 -1.4
v 0.2 3.3 -1.5
v 0.2 3.3 -1.6
v 0.2 3.3 -1.8
v 0.2 3.3 -1.9
v 0.2 3.3 -2
v 0.2 3.3 -2.1
v 0.2 3.3 -2.2
v 0.2 3.3 -2.3
v 0.2 3.4 -0.2
v 0.2 3.4 -0.4
v 0.2 3.4 -0.5
v 0.2 3.4 -0.6
v 0.2 3.4 -0.7
v 0.2 3.4 -0.8
v 0.2 3.4 -0.9
v 0.2 3.4 -1.1
v 0.2 3.4 -1.4
v 0.2 3.4 -1.5
v 0.2 3.4 -1.7
v 0.2 3.4 -1.8
v 0.2 3.4 -1.9
v 0.2 3.4 -2
v 0.2 3.4 -2.1
v 0.2 3.5 0
v 0.2 3.5 -0.1
v 0.2 3.5 -0.2
v 0.2 3.5 -0.3
v 0.2 3.5 -0.5
v 0.2 3.5 -0.6
v 0.2 3.5 -0.8
v 0.2 3.5 -1
v 0.2 3.5 -1.1
v 0.2 3.5 -1.3
v 0.2 3.5 -1.4
v 0.2 3.5 -1.5
v 0.2 3.5 -1.7
v 0.2 3.5 -1.8
v 0.2 3.5 -1.9
v 0.2 3.5 -2.2
v 0.2 3.5 -2.3
v 0.2 3.5 -2.4
v 0.3 2 -0.1
v 0.3 2 -0.2
v 0.3 2 -0.5
v 0.3 2 -0.9
v 0.3 2 -1.3
v 0.3 2 -1.4
v 0.3 2 -1.6
v 0.3 2 -1.8
v 0.3 2 -1.9
v 0.3 2 -2
v 0.3 2 -2.3
v 0.3 2.1 -0.1
v 0.3 2.1 -0.2
v 0.3 2.1 -0.3
v 0.3 2.1 -0.5
v 0.3 2.1 -0.6
v 0.3 2.1 -0.9
v 0.3 2.1 -1.3
v 0.3 2.1 -1.4
v 0.3 2.1 -1.5
v 0.3 2.1 -1.6
v 0.3 2.1 -1.8
v 0.3 2.1 -1.9
v 0.3 2.1 -2
v 0.3 2.2 -0.1
v 0.3 2.2 -0.3
v 0.3 2.2 -0.5
v 0.3 2.2 -0.6
v 0.3 2.2 -0.7
v 0.3 2.2 -0.9
v 0.3 2.2 -1
v 0.3 2.2 -1.3
v 0.3 2.2 -1.5
v 0.3 2.2 -1.6
v 0.3 2.2 -1.9
v 0.3 2.2 -2.1
v 0.3 2.2 -2.2
v 0.3 2.2 -2.3
v 0.3 2.3 -0.1
v 0.3 2.3 -0.5
v 0.3 2.3 -0.7
v 0.3 2.3 -0.9
v 0.3 2.3 -1
v 0.3 2.3 -1.3
v 0.3 2.3 -1.8
v 0.3 2.3 -2.1
v 0.3 2.3 -2.2
v 0.3 2.3 -2.3
v 0.3 3.5 -0.1
v 0.3 3.5 -0.2
v 0.3 3.5 -0.3
v 0.3 3.5 -0.6
v 0.3 3.5 -1
v 0.3 3.5 -1.3
v 0.3 3.5 -1.5
v 0.3 3.5 -1.7
v 0.3 3.5 -2.2
v 0.3 3.5 -2.3
v 0.3 3.6 -0.1
v 0.3 3.6 -0.2
v 0.3 3.6 -0.3
v 0.3 3.6 -0.6
v 0.3 3.6 -0.8
v 0.3 3.6 -1
v 0.3 3.6 -1.3
v 0.3 3.6 -1.5
v 0.3 3.6 -1.6
v 0.3 3.6 -1.7
v 0.3 3.6 -1.9
v 0.3 3.6 -2
v 0.3 3.6 -2.2
v 0.3 3.6 -2.3
v 0.3 3.7 -0.1
v 0.3 3.7 -0.6
v 0.3 3.7 -0.8
v 0.3 3.7 -1.3
v 0.3 3.7 -1.6
v 0.3 3.7 -1.7
v 0.3 3.7 -1.9
v 0.3 3.7 -2
v 0.3 3.7 -2.2
v 0.3 3.7 -2.3
v 0.1 2.3 0
v 0.1 2.6 0
v 0.1 2.7 0
v 0.1 3.2 0
v 0.1 3.5 0
v 0.2 2.3 0
v 0.2 2.6 0
v 0.2 2.7 0
v 0.2 3.2 0
v 0.2 3.5 0
v 0 2 -0.1
v 0 2.1 -0.1
v 0 2.3 -0.1
v 0 3.5 -0.1
v 0 3.7 -0.1
v 0.1 2 -0.1
v 0.1 2.1 -0.1
v 0.1 2.3 -0.1
v 0.1 3.5 -0.1
v 0.1 3.6 -0.1
v 0.1 3.7 -0.1
v 0.2 2 -0.1
v 0.2 2.1 -0.1
v 0.2 2.2 -0.1
v 0.2 2.3 -0.1
v 0.2 3.5 -0.1
v 0.2 3.6 -0.1
v 0.2 3.7 -0.1
v 0.3 2 -0.1
v 0.3 2.1 -0.1
v 0.3 2.2 -0.1
v 0.3 2.3 -0.1
v 0.3 3.5 -0.1
v 0.3 3.6 -0.1
v 0.3 3.7 -0.1
v 0.1 3.1 -0.8
v 0.1 3.3 -0.8
v 0.2 3.1 -0.8
v 0.2 3.3 -0.8
v 0.1 3.1 -2.2
v 0.1 3.3 -2.2
v 0.2 3.1 -2.2
v 0.2 3.3 -2.2
v 0.1 3.1 -0.2
v 0.1 3.2 -0.2
v 0.1 3.3 -0.2
v 0.2 3.1 -0.2
v 0.2 3.2 -0.2
v 0.2 3.3 -0.2
v 0.1 3.1 -1.6
v 0.1 3.3 -1.6
v 0.2 3.1 -1.6
v 0.2 3.3 -1.6
v 0 2 -2.3
v 0 2.1 -2.3
v 0 2.3 -2.3
v 0 3.5 -2.3
v 0 3.6 -2.3
v 0 3.7 -2.3
v 0.1 2 -2.3
v 0.1 2.1 -2.3
v 0.1 2.3 -2.3
v 0.1 3.5 -2.3
v 0.1 3.6 -2.3
v 0.1 3.7 -2.3
v 0.2 2 -2.3
v 0.2 2.2 -2.3
v 0.2 2.3 -2.3
v 0.2 3.5 -2.3
v 0.2 3.6 -2.3
v 0.2 3.7 -2.3
v 0.3 2 -2.3
v 0.3 2.2 -2.3
v 0.3 2.3 -2.3
v 0.3 3.5 -2.3
v 0.3 3.6 -2.3
v 0.3 3.7 -2.3
v 0.1 2.3 -2.4
v 0.1 2.6 -2.4
v 0.1 2.8 -2.4
v 0.1 3 -2.4
v 0.1 3.1 -2.4
v 0.1 3.2 -2.4
v 0.1 3.5 -2.4
v 0.2 2.3 -2.4
v 0.2 2.6 -2.4
v 0.2 2.8 -2.4
v 0.2 3 -2.4
v 0.2 3.1 -2.4
v 0.2 3.2 -2.4
v 0.2 3.5 -2.4
v 0 2 -0.1
v 0.1 2 -0.1
v 0.2 2 -0.1
v 0.3 2 -0.1
v 0 2 -0.2
v 0.1 2 -0.2
v 0.2 2 -0.2
v 0.3 2 -0.2
v 0.1 2 -0.3
v 0.2 2 -0.3
v 0 2 -0.4
v 0.1 2 -0.4
v 0.1 2 -0.5
v 0.2 2 -0.5
v 0.3 2 -0.5
v 0.1 2 -0.6
v 0.2 2 -0.6
v 0 2 -0.7
v 0.1 2 -0.7
v 0 2 -0.8
v 0.1 2 -0.8
v 0.2 2 -0.8
v 0 2 -0.9
v 0.1 2 -0.9
v 0.2 2 -0.9
v 0.3 2 -0.9
v 0 2 -1.1
v 0.1 2 -1.1
v 0 2 -1.2
v 0.1 2 -1.2
v 0 2 -1.3
v 0.3 2 -1.3
v 0 2 -1.4
v 0.1 2 -1.4
v 0.2 2 -1.4
v 0.3 2 -1.4
v 0.2 2 -1.6
v 0.3 2 -1.6
v 0 2 -1.8
v 0.1 2 -1.8
v 0.3 2 -1.8
v 0.1 2 -1.9
v 0.3 2 -1.9
v 0 2 -2
v 0.1 2 -2
v 0.2 2 -2
v 0.3 2 -2
v 0 2 -2.3
v 0.1 2 -2.3
v 0.2 2 -2.3
v 0.3 2 -2.3
v 0.1 2.3 0
v 0.2 2.3 0
v 0.1 2.3 -0.1
v 0.2 2.3 -0.1
v 0.1 2.3 -2.3
v 0.2 2.3 -2.3
v 0.1 2.3 -2.4
v 0.2 2.3 -2.4
v 0.1 3.3 -0.2
v 0.2 3.3 -0.2
v 0.1 3.3 -0.4
v 0.2 3.3 -0.4
v 0.1 3.3 -0.6
v 0.2 3.3 -0.6
v 0.1 3.3 -0.7
v 0.2 3.3 -0.7
v 0.1 3.3 -0.8
v 0.2 3.3 -0.8
v 0.1 3.3 -1.6
v 0.2 3.3 -1.6
v 0.1 3.3 -1.8
v 0.2 3.3 -1.8
v 0.1 3.3 -1.9
v 0.2 3.3 -1.9
v 0.1 3.3 -2
v 0.2 3.3 -2
v 0.1 3.3 -2.1
v 0.2 3.3 -2.1
v 0.1 3.3 -2.2
v 0.2 3.3 -2.2
v 0 3.5 -0.1
v 0.1 3.5 -0.1
v 0.2 3.5 -0.1
v 0.3 3.5 -0.1
v 0 3.5 -0.2
v 0.1 3.5 -0.2
v 0.2 3.5 -0.2
v 0.3 3.5 -0.2
v 0 3.5 -0.3
v 0.1 3.5 -0.3
v 0.2 3.5 -0.3
v 0.3 3.5 -0.3
v 0.1 3.5 -0.5
v 0.2 3.5 -0.5
v 0.2 3.5 -0.6
v 0.3 3.5 -0.6
v 0 3.5 -0.7
v 0.1 3.5 -0.7
v 0 3.5 -0.8
v 0.1 3.5 -0.8
v 0.2 3.5 -0.8
v 0 3.5 -0.9
v 0.1 3.5 -0.9
v 0.2 3.5 -1
v 0.3 3.5 -1
v 0.1 3.5 -1.1
v 0.2 3.5 -1.1
v 0 3.5 -1.2
v 0.1 3.5 -1.2
v 0.2 3.5 -1.3
v 0.3 3.5 -1.3
v 0.1 3.5 -1.4
v 0.2 3.5 -1.4
v 0 3.5 -1.5
v 0.1 3.5 -1.5
v 0.2 3.5 -1.5
v 0.3 3.5 -1.5
v 0 3.5 -1.6
v 0.1 3.5 -1.6
v 0.1 3.5 -1.7
v 0.2 3.5 -1.7
v 0.3 3.5 -1.7
v 0.1 3.5 -1.8
v 0.2 3.5 -1.8
v 0 3.5 -1.9
v 0.1 3.5 -1.9
v 0.2 3.5 -1.9
v 0.2 3.5 -2.2
v 0.3 3.5 -2.2
v 0 3.5 -2.3
v 0.1 3.5 -2.3
v 0.2 3.5 -2.3
v 0.3 3.5 -2.3
v 0 2.3 -0.1
v 0.1 2.3 -0.1
v 0.2 2.3 -0.1
v 0.3 2.3 -0.1
v 0.1 2.3 -0.2
v 0.2 2.3 -0.2
v 0 2.3 -0.3
v 0.1 2.3 -0.3
v 0.2 2.3 -0.3
v 0.1 2.3 -0.5
v 0.2 2.3 -0.5
v 0.3 2.3 -0.5
v 0 2.3 -0.7
v 0.1 2.3 -0.7
v 0.2 2.3 -0.7
v 0.3 2.3 -0.7
v 0.2 2.3 -0.9
v 0.3 2.3 -0.9
v 0 2.3 -1
v 0.1 2.3 -1
v 0.2 2.3 -1
v 0.3 2.3 -1
v 0 2.3 -1.1
v 0.1 2.3 -1.1
v 0 2.3 -1.3
v 0.1 2.3 -1.3
v 0.2 2.3 -1.3
v 0.3 2.3 -1.3
v 0.1 2.3 -1.4
v 0.2 2.3 -1.4
v 0.1 2.3 -1.5
v 0.2 2.3 -1.5
v 0 2.3 -1.8
v 0.1 2.3 -1.8
v 0.2 2.3 -1.8
v 0.3 2.3 -1.8
v 0 2.3 -1.9
v 0.1 2.3 -1.9
v 0 2.3 -2
v 0.1 2.3 -2
v 0.2 2.3 -2.1
v 0.3 2.3 -2.1
v 0 2.3 -2.2
v 0.1 2.3 -2.2
v 0.2 2.3 -2.2
v 0.3 2.3 -2.2
v 0 2.3 -2.3
v 0.1 2.3 -2.3
v 0.2 2.3 -2.3
v 0.3 2.3 -2.3
v 0.1 3.1 -0.2
v 0.2 3.1 -0.2
v 0.1 3.1 -0.8
v 0.2 3.1 -0.8
v 0.1 3.1 -1.6
v 0.2 3.1 -1.6
v 0.1 3.1 -2.2
v 0.2 3.1 -2.2
v 0.1 3.5 0
v 0.2 3.5 0
v 0.1 3.5 -0.1
v 0.2 3.5 -0.1
v 0.1 3.5 -2.3
v 0.2 3.5 -2.3
v 0.1 3.5 -2.4
v 0.2 3.5 -2.4
v 0 3.7 -0.1
v 0.1 3.7 -0.1
v 0.2 3.7 -0.1
v 0.3 3.7 -0.1
v 0.1 3.7 -0.2
v 0.2 3.7 -0.2
v 0.1 3.7 -0.3
v 0.2 3.7 -0.3
v 0.1 3.7 -0.4
v 0.2 3.7 -0.4
v 0 3.7 -0.5
v 0.2 3.7 -0.5
v 0 3.7 -0.6
v 0.1 3.7 -0.6
v 0.2 3.7 -0.6
v 0.3 3.7 -0.6
v 0.1 3.7 -0.8
v 0.3 3.7 -0.8
v 0.1 3.7 -0.9
v 0.2 3.7 -0.9
v 0 3.7 -1.1
v 0.1 3.7 -1.1
v 0.2 3.7 -1.1
v 0.1 3.7 -1.2
v 0.2 3.7 -1.2
v 0 3.7 -1.3
v 0.2 3.7 -1.3
v 0.3 3.7 -1.3
v 0 3.7 -1.5
v 0.1 3.7 -1.5
v 0.2 3.7 -1.6
v 0.3 3.7 -1.6
v 0 3.7 -1.7
v 0.1 3.7 -1.7
v 0.2 3.7 -1.7
v 0.3 3.7 -1.7
v 0 3.7 -1.8
v 0.2 3.7 -1.8
v 0 3.7 -1.9
v 0.1 3.7 -1.9
v 0.2 3.7 -1.9
v 0.3 3.7 -1.9
v 0.1 3.7 -2
v 0.2 3.7 -2
v 0.3 3.7 -2
v 0 3.7 -2.1
v 0.2 3.7 -2.1
v 0 3.7 -2.2
v 0.1 3.7 -2.2
v 0.2 3.7 -2.2
v 0.3 3.7 -2.2
v 0 3.7 -2.3
v 0.1 3.7 -2.3
v 0.2 3.7 -2.3
v 0.3 3.7 -2.3

# faces
f 14/6/1 2/6/1 1/6/1
f 15/3/1 3/3/1 2/3/1
f 15/6/1 2/6/1 14/6/1
f 16/6/1 4/6/1 3/6/1
f 16/3/1 3/3/1 15/3/1
f 17/3/1 5/3/1 4/3/1
f 17/6/1 4/6/1 16/6/1
f 18/6/1 6/6/1 5/6/1
f 18/3/1 5/3/1 17/3/1
f 19/3/1 7/3/1 6/3/1
f 19/6/1 6/6/1 18/6/1
f 20/3/1 7/3/1 19/3/1
f 21/6/1 8/6/1 7/6/1
f 21/3/1 7/3/1 20/3/1
f 22/3/1 9/3/1 8/3/1
f 22/6/1 8/6/1 21/6/1
f 23/6/1 12/6/1 11/6/1
f 24/3/1 13/3/1 12/3/1
f 24/6/1 12/6/1 23/6/1
f 25/3/1 13/3/1 24/3/1
f 26/3/1 13/3/1 25/3/1
f 27/3/1 15/3/1 14/3/1
f 27/3/1 16/3/1 15/3/1
f 27/3/1 17/3/1 16/3/1
f 27/3/1 18/3/1 17/3/1
f 27/3/1 20/3/1 19/3/1
f 27/3/1 19/3/1 18/3/1
f 28/3/1 20/3/1 27/3/1
f 29/6/1 10/6/1 9/6/1
f 29/3/1 11/3/1 10/3/1
f 30/6/1 23/6/1 11/6/1
f 30/3/1 11/3/1 29/3/1
f 31/3/1 25/3/1 24/3/1
f 31/6/1 23/6/1 30/6/1
f 31/3/1 24/3/1 23/3/1
f 32/3/1 25/3/1 31/3/1
f 33/3/1 27/3/1 14/3/1
f 34/6/1 28/6/1 27/6/1
f 34/3/1 27/3/1 33/3/1
f 35/3/1 20/3/1 28/3/1
f 35/6/1 28/6/1 34/6/1
f 36/6/1 21/6/1 20/6/1
f 36/3/1 20/3/1 35/3/1
f 37/3/1 22/3/1 21/3/1
f 37/6/1 21/6/1 36/6/1
f 38/6/1 29/6/1 9/6/1
f 38/3/1 22/3/1 37/3/1
f 38/6/1 30/6/1 29/6/1
f 38/3/1 9/3/1 22/3/1
f 39/3/1 31/3/1 30/3/1
f 39/6/1 30/6/1 38/6/1
f 40/6/1 32/6/1 31/6/1
f 40/3/1 31/3/1 39/3/1
f 41/3/1 25/3/1 32/3/1
f 41/6/1 32/6/1 40/6/1
f 42/6/1 26/6/1 25/6/1
f 42/3/1 25/3/1 41/3/1
f 43/6/1 26/6/1 42/6/1
f 55/3/1 45/3/1 44/3/1
f 55/6/1 46/6/1 45/6/1
f 56/3/1 47/3/1 46/3/1
f 56/6/1 46/6/1 55/6/1
f 57/3/1 47/3/1 56/3/1
f 58/3/1 47/3/1 57/3/1
f 59/6/1 48/6/1 47/6/1
f 59/3/1 47/3/1 58/3/1
f 60/3/1 49/3/1 48/3/1
f 60/6/1 48/6/1 59/6/1
f 61/6/1 50/6/1 49/6/1
f 61/3/1 49/3/1 60/3/1
f 62/6/1 50/6/1 61/6/1
f 63/3/1 51/3/1 50/3/1
f 63/6/1 50/6/1 62/6/1
f 64/3/1 51/3/1 63/3/1
f 65/3/1 53/3/1 52/3/1
f 65/6/1 52/6/1 51/6/1
f 66/3/1 53/3/1 65/3/1
f 67/3/1 53/3/1 66/3/1
f 68/6/1 54/6/1 53/6/1
f 68/3/1 53/3/1 67/3/1
f 69/6/1 54/6/1 68/6/1
f 70/6/1 54/6/1 69/6/1
f 71/6/1 54/6/1 70/6/1
f 72/3/1 55/3/1 44/3/1
f 72/3/1 56/3/1 55/3/1
f 72/3/1 57/3/1 56/3/1
f 73/6/1 58/6/1 57/6/1
f 73/3/1 57/3/1 72/3/1
f 74/3/1 59/3/1 58/3/1
f 74/6/1 58/6/1 73/6/1
f 74/3/1 60/3/1 59/3/1
f 74/3/1 62/3/1 61/3/1
f 74/3/1 61/3/1 60/3/1
f 75/6/1 64/6/1 63/6/1
f 75/3/1 62/3/1 74/3/1
f 75/6/1 63/6/1 62/6/1
f 76/3/1 51/3/1 64/3/1
f 76/6/1 64/6/1 75/6/1
f 77/6/1 66/6/1 65/6/1
f 77/3/1 51/3/1 76/3/1
f 77/6/1 65/6/1 51/6/1
f 78/3/1 67/3/1 66/3/1
f 78/6/1 66/6/1 77/6/1
f 79/6/1 68/6/1 67/6/1
f 79/3/1 67/3/1 78/3/1
f 80/3/1 69/3/1 68/3/1
f 80/6/1 68/6/1 79/6/1
f 81/6/1 70/6/1 69/6/1
f 81/3/1 69/3/1 80/3/1
f 82/3/1 71/3/1 70/3/1
f 82/6/1 70/6/1 81/6/1
f 83/3/1 71/3/1 82/3/1
f 101/1/1 85/1/1 84/1/1
f 101/1/1 86/1/1 85/1/1
f 101/2/1 87/2/1 86/2/1
f 102/1/1 88/1/1 87/1/1
f 102/2/1 87/2/1 101/2/1
f 103/4/1 89/4/1 88/4/1
f 103/1/1 88/1/1 102/1/1
f 104/2/1 90/2/1 89/2/1
f 105/4/1 91/4/1 90/4/1
f 105/2/1 90/2/1 104/2/1
f 105/4/1 92/4/1 91/4/1
f 105/4/1 93/4/1 92/4/1
f 106/2/1 94/2/1 93/2/1
f 106/4/1 93/4/1 105/4/1
f 107/4/1 95/4/1 94/4/1
f 107/2/1 94/2/1 106/2/1
f 108/1/1 100/1/1 99/1/1
f 108/4/1 95/4/1 107/4/1
f 108/1/1 99/1/1 98/1/1
f 108/1/1 96/1/1 95/1/1
f 108/1/1 98/1/1 97/1/1
f 108/1/1 97/1/1 96/1/1
f 109/1/1 100/1/1 108/1/1
f 110/1/1 100/1/1 109/1/1
f 111/1/1 100/1/1 110/1/1
f 112/1/1 100/1/1 111/1/1
f 113/1/1 101/1/1 84/1/1
f 113/1/1 102/1/1 101/1/1
f 114/4/1 103/4/1 102/4/1
f 114/1/1 102/1/1 113/1/1
f 115/4/1 89/4/1 103/4/1
f 115/4/1 103/4/1 114/4/1
f 115/2/1 104/2/1 89/2/1
f 116/4/1 107/4/1 106/4/1
f 116/2/1 104/2/1 115/2/1
f 116/4/1 106/4/1 105/4/1
f 116/4/1 105/4/1 104/4/1
f 116/4/1 109/4/1 108/4/1
f 116/4/1 108/4/1 107/4/1
f 117/4/1 109/4/1 116/4/1
f 118/4/1 109/4/1 117/4/1
f 119/4/1 109/4/1 118/4/1
f 120/4/1 109/4/1 119/4/1
f 121/2/1 110/2/1 109/2/1
f 121/4/1 111/4/1 110/4/1
f 122/2/1 112/2/1 111/2/1
f 122/4/1 111/4/1 121/4/1
f 123/1/1 100/1/1 112/1/1
f 123/2/1 112/2/1 122/2/1
f 124/1/1 100/1/1 123/1/1
f 125/1/1 113/1/1 84/1/1
f 126/4/1 115/4/1 114/4/1
f 126/1/1 113/1/1 125/1/1
f 126/4/1 114/4/1 113/4/1
f 126/4/1 116/4/1 115/4/1
f 126/4/1 117/4/1 116/4/1
f 127/4/1 117/4/1 126/4/1
f 128/4/1 117/4/1 127/4/1
f 129/5/1 118/5/1 117/5/1
f 129/4/1 117/4/1 128/4/1
f 130/4/1 119/4/1 118/4/1
f 130/5/1 118/5/1 129/5/1
f 131/5/1 120/5/1 119/5/1
f 131/4/1 119/4/1 130/4/1
f 132/5/1 120/5/1 131/5/1
f 133/4/1 109/4/1 120/4/1
f 133/5/1 120/5/1 132/5/1
f 134/4/1 109/4/1 133/4/1
f 135/2/1 122/2/1 121/2/1
f 135/4/1 109/4/1 134/4/1
f 135/2/1 121/2/1 109/2/1
f 135/2/1 124/2/1 123/2/1
f 135/2/1 123/2/1 122/2/1
f 136/2/1 124/2/1 135/2/1
f 137/2/1 124/2/1 136/2/1
f 138/1/1 100/1/1 124/1/1
f 138/2/1 124/2/1 137/2/1
f 139/1/1 100/1/1 138/1/1
f 140/4/1 127/4/1 126/4/1
f 140/4/1 126/4/1 125/4/1
f 141/4/1 127/4/1 140/4/1
f 142/4/1 127/4/1 141/4/1
f 143/4/1 127/4/1 142/4/1
f 144/5/1 128/5/1 127/5/1
f 145/4/1 131/4/1 130/4/1
f 145/5/1 128/5/1 144/5/1
f 145/4/1 130/4/1 129/4/1
f 145/4/1 129/4/1 128/4/1
f 146/2/1 132/2/1 131/2/1
f 146/4/1 131/4/1 145/4/1
f 147/5/1 134/5/1 133/5/1
f 147/2/1 132/2/1 146/2/1
f 147/5/1 133/5/1 132/5/1
f 148/4/1 135/4/1 134/4/1
f 148/5/1 134/5/1 147/5/1
f 148/4/1 136/4/1 135/4/1
f 149/2/1 137/2/1 136/2/1
f 149/1/1 138/1/1 137/1/1
f 150/4/1 139/4/1 138/4/1
f 150/1/1 138/1/1 149/1/1
f 151/2/1 141/2/1 140/2/1
f 151/4/1 142/4/1 141/4/1
f 152/2/1 143/2/1 142/2/1
f 152/4/1 142/4/1 151/4/1
f 153/4/1 127/4/1 143/4/1
f 153/2/1 143/2/1 152/2/1
f 154/5/1 144/5/1 127/5/1
f 154/4/1 127/4/1 153/4/1
f 155/4/1 145/4/1 144/4/1
f 155/5/1 144/5/1 154/5/1
f 155/4/1 146/4/1 145/4/1
f 155/4/1 148/4/1 147/4/1
f 155/4/1 147/4/1 146/4/1
f 156/4/1 148/4/1 155/4/1
f 157/4/1 136/4/1 148/4/1
f 157/4/1 148/4/1 156/4/1
f 158/4/1 136/4/1 157/4/1
f 159/4/1 136/4/1 158/4/1
f 160/2/1 149/2/1 136/2/1
f 160/4/1 136/4/1 159/4/1
f 161/4/1 150/4/1 149/4/1
f 161/2/1 149/2/1 160/2/1
f 162/4/1 139/4/1 150/4/1
f 162/4/1 150/4/1 161/4/1
f 163/4/1 153/4/1 152/4/1
f 164/5/1 154/5/1 153/5/1
f 164/4/1 153/4/1 163/4/1
f 165/2/1 155/2/1 154/2/1
f 165/5/1 154/5/1 164/5/1
f 166/4/1 156/4/1 155/4/1
f 166/2/1 155/2/1 165/2/1
f 167/4/1 156/4/1 166/4/1
f 168/4/1 156/4/1 167/4/1
f 169/4/1 156/4/1 168/4/1
f 170/2/1 157/2/1 156/2/1
f 170/4/1 156/4/1 169/4/1
f 171/4/1 158/4/1 157/4/1
f 171/2/1 157/2/1 170/2/1
f 172/5/1 159/5/1 158/5/1
f 172/4/1 158/4/1 171/4/1
f 173/5/1 159/5/1 172/5/1
f 174/4/1 161/4/1 160/4/1
f 174/5/1 159/5/1 173/5/1
f 174/4/1 160/4/1 159/4/1
f 175/4/1 161/4/1 174/4/1
f 176/2/1 162/2/1 161/2/1
f 176/4/1 161/4/1 175/4/1
f 177/2/1 162/2/1 176/2/1
f 178/4/1 163/4/1 152/4/1
f 178/2/1 152/2/1 151/2/1
f 179/2/1 164/2/1 163/2/1
f 179/4/1 163/4/1 178/4/1
f 180/1/1 165/1/1 164/1/1
f 180/2/1 164/2/1 179/2/1
f 180/1/1 166/1/1 165/1/1
f 180/1/1 167/1/1 166/1/1
f 181/4/1 168/4/1 167/4/1
f 181/1/1 167/1/1 180/1/1
f 182/5/1 169/5/1 168/5/1
f 182/4/1 168/4/1 181/4/1
f 183/5/1 169/5/1 182/5/1
f 184/5/1 169/5/1 183/5/1
f 185/4/1 170/4/1 169/4/1
f 185/5/1 169/5/1 184/5/1
f 186/5/1 173/5/1 172/5/1
f 186/4/1 170/4/1 185/4/1
f 186/5/1 172/5/1 171/5/1
f 186/5/1 171/5/1 170/5/1
f 187/5/1 173/5/1 186/5/1
f 188/1/1 175/1/1 174/1/1
f 188/5/1 173/5/1 187/5/1
f 188/1/1 174/1/1 173/1/1
f 189/4/1 177/4/1 176/4/1
f 189/1/1 175/1/1 188/1/1
f 189/4/1 176/4/1 175/4/1
f 190/4/1 177/4/1 189/4/1
f 191/2/1 162/2/1 177/2/1
f 191/4/1 177/4/1 190/4/1
f 192/2/1 162/2/1 191/2/1
f 193/2/1 151/2/1 140/2/1
f 193/2/1 178/2/1 151/2/1
f 194/1/1 179/1/1 178/1/1
f 194/2/1 178/2/1 193/2/1
f 194/1/1 182/1/1 181/1/1
f 194/1/1 181/1/1 180/1/1
f 194/1/1 180/1/1 179/1/1
f 195/5/1 183/5/1 182/5/1
f 195/1/1 182/1/1 194/1/1
f 196/4/1 184/4/1 183/4/1
f 196/5/1 183/5/1 195/5/1
f 197/2/1 185/2/1 184/2/1
f 197/4/1 184/4/1 196/4/1
f 197/2/1 187/2/1 186/2/1
f 197/2/1 186/2/1 185/2/1
f 198/1/1 190/1/1 189/1/1
f 198/2/1 187/2/1 197/2/1
f 198/1/1 188/1/1 187/1/1
f 198/1/1 189/1/1 188/1/1
f 199/4/1 191/4/1 190/4/1
f 199/1/1 190/1/1 198/1/1
f 199/4/1 192/4/1 191/4/1
f 200/4/1 192/4/1 199/4/1
f 201/2/1 193/2/1 140/2/1
f 202/4/1 194/4/1 193/4/1
f 202/2/1 193/2/1 201/2/1
f 203/4/1 194/4/1 202/4/1
f 204/4/1 197/4/1 196/4/1
f 204/4/1 196/4/1 195/4/1
f 204/4/1 198/4/1 197/4/1
f 205/4/1 198/4/1 204/4/1
f 206/5/1 200/5/1 199/5/1
f 207/5/1 200/5/1 206/5/1
f 208/2/1 203/2/1 202/2/1
f 208/1/1 202/1/1 201/1/1
f 209/2/1 203/2/1 208/2/1
f 213/4/1 204/4/1 195/4/1
f 214/4/1 204/4/1 213/4/1
f 215/5/1 205/5/1 204/5/1
f 215/4/1 204/4/1 214/4/1
f 216/5/1 205/5/1 215/5/1
f 217/4/1 198/4/1 205/4/1
f 217/5/1 205/5/1 216/5/1
f 218/4/1 198/4/1 217/4/1
f 223/5/1 206/5/1 199/5/1
f 224/1/1 207/1/1 206/1/1
f 224/5/1 206/5/1 223/5/1
f 225/1/1 209/1/1 208/1/1
f 225/5/1 210/5/1 209/5/1
f 226/2/1 211/2/1 210/2/1
f 226/5/1 210/5/1 225/5/1
f 227/2/1 211/2/1 226/2/1
f 228/4/1 212/4/1 211/4/1
f 228/2/1 211/2/1 227/2/1
f 229/2/1 214/2/1 213/2/1
f 229/4/1 212/4/1 228/4/1
f 229/2/1 213/2/1 212/2/1
f 230/2/1 214/2/1 229/2/1
f 231/4/1 216/4/1 215/4/1
f 231/2/1 214/2/1 230/2/1
f 231/4/1 215/4/1 214/4/1
f 232/4/1 216/4/1 231/4/1
f 233/2/1 217/2/1 216/2/1
f 233/4/1 216/4/1 232/4/1
f 234/4/1 218/4/1 217/4/1
f 234/2/1 217/2/1 233/2/1
f 234/4/1 219/4/1 218/4/1
f 235/4/1 219/4/1 234/4/1
f 236/2/1 220/2/1 219/2/1
f 236/4/1 219/4/1 235/4/1
f 237/1/1 221/1/1 220/1/1
f 237/2/1 220/2/1 236/2/1
f 238/5/1 222/5/1 221/5/1
f 238/1/1 221/1/1 237/1/1
f 239/1/1 223/1/1 222/1/1
f 239/5/1 222/5/1 238/5/1
f 239/1/1 224/1/1 223/1/1
f 240/1/1 227/1/1 226/1/1
f 240/1/1 208/1/1 201/1/1
f 240/1/1 225/1/1 208/1/1
f 240/1/1 226/1/1 225/1/1
f 241/1/1 227/1/1 240/1/1
f 242/1/1 227/1/1 241/1/1
f 243/1/1 227/1/1 242/1/1
f 244/5/1 230/5/1 229/5/1
f 244/1/1 227/1/1 243/1/1
f 244/5/1 228/5/1 227/5/1
f 244/5/1 229/5/1 228/5/1
f 245/5/1 230/5/1 244/5/1
f 246/2/1 232/2/1 231/2/1
f 246/5/1 230/5/1 245/5/1
f 246/2/1 231/2/1 230/2/1
f 247/2/1 232/2/1 246/2/1
f 248/5/1 233/5/1 232/5/1
f 248/2/1 232/2/1 247/2/1
f 249/5/1 233/5/1 248/5/1
f 250/4/1 234/4/1 233/4/1
f 250/5/1 233/5/1 249/5/1
f 250/4/1 235/4/1 234/4/1
f 251/4/1 235/4/1 250/4/1
f 252/4/1 235/4/1 251/4/1
f 253/2/1 236/2/1 235/2/1
f 253/4/1 235/4/1 252/4/1
f 254/5/1 237/5/1 236/5/1
f 254/2/1 236/2/1 253/2/1
f 255/1/1 238/1/1 237/1/1
f 255/5/1 237/5/1 254/5/1
f 255/1/1 239/1/1 238/1/1
f 256/1/1 224/1/1 239/1/1
f 256/1/1 239/1/1 255/1/1
f 256/1/1 207/1/1 224/1/1
f 257/1/1 207/1/1 256/1/1
f 258/1/2 259/1/2 274/1/2
f 259/1/2 260/1/2 274/1/2
f 260/2/2 261/2/2 274/2/2
f 261/1/2 262/1/2 275/1/2
f 274/2/2 261/2/2 275/2/2
f 262/4/2 263/4/2 276/4/2
f 275/1/2 262/1/2 276/1/2
f 263/2/2 264/2/2 277/2/2
f 264/2/2 265/2/2 277/2/2
f 265/4/2 266/4/2 278/4/2
f 277/2/2 265/2/2 278/2/2
f 266/4/2 267/4/2 278/4/2
f 267/2/2 268/2/2 279/2/2
f 278/4/2 267/4/2 279/4/2
f 268/4/2 269/4/2 280/4/2
f 279/2/2 268/2/2 280/2/2
f 272/1/2 273/1/2 281/1/2
f 280/4/2 269/4/2 281/4/2
f 271/1/2 272/1/2 281/1/2
f 270/1/2 271/1/2 281/1/2
f 269/1/2 270/1/2 281/1/2
f 281/1/2 273/1/2 282/1/2
f 282/1/2 273/1/2 283/1/2
f 283/1/2 273/1/2 284/1/2
f 284/1/2 273/1/2 285/1/2
f 258/1/2 274/1/2 286/1/2
f 274/1/2 275/1/2 286/1/2
f 275/4/2 276/4/2 287/4/2
f 286/1/2 275/1/2 287/1/2
f 276/4/2 263/4/2 288/4/2
f 287/4/2 276/4/2 288/4/2
f 263/2/2 277/2/2 288/2/2
f 279/4/2 280/4/2 289/4/2
f 288/2/2 277/2/2 289/2/2
f 278/4/2 279/4/2 289/4/2
f 277/4/2 278/4/2 289/4/2
f 281/4/2 282/4/2 289/4/2
f 280/4/2 281/4/2 289/4/2
f 289/4/2 282/4/2 290/4/2
f 290/4/2 282/4/2 291/4/2
f 291/4/2 282/4/2 292/4/2
f 292/4/2 282/4/2 293/4/2
f 282/2/2 283/2/2 294/2/2
f 283/4/2 284/4/2 294/4/2
f 284/2/2 285/2/2 295/2/2
f 294/4/2 284/4/2 295/4/2
f 285/1/2 273/1/2 296/1/2
f 295/2/2 285/2/2 296/2/2
f 296/1/2 273/1/2 297/1/2
f 258/1/2 286/1/2 298/1/2
f 287/4/2 288/4/2 299/4/2
f 298/1/2 286/1/2 299/1/2
f 286/4/2 287/4/2 299/4/2
f 288/4/2 289/4/2 299/4/2
f 289/4/2 290/4/2 299/4/2
f 299/4/2 290/4/2 300/4/2
f 300/4/2 290/4/2 301/4/2
f 290/5/2 291/5/2 302/5/2
f 301/4/2 290/4/2 302/4/2
f 291/4/2 292/4/2 303/4/2
f 302/5/2 291/5/2 303/5/2
f 292/5/2 293/5/2 304/5/2
f 303/4/2 292/4/2 304/4/2
f 304/5/2 293/5/2 305/5/2
f 293/4/2 282/4/2 306/4/2
f 305/5/2 293/5/2 306/5/2
f 306/4/2 282/4/2 307/4/2
f 294/2/2 295/2/2 308/2/2
f 307/4/2 282/4/2 308/4/2
f 282/2/2 294/2/2 308/2/2
f 296/2/2 297/2/2 308/2/2
f 295/2/2 296/2/2 308/2/2
f 308/2/2 297/2/2 309/2/2
f 309/2/2 297/2/2 310/2/2
f 297/1/2 273/1/2 311/1/2
f 310/2/2 297/2/2 311/2/2
f 311/1/2 273/1/2 312/1/2
f 299/4/2 300/4/2 313/4/2
f 298/4/2 299/4/2 313/4/2
f 313/4/2 300/4/2 314/4/2
f 314/4/2 300/4/2 315/4/2
f 315/4/2 300/4/2 316/4/2
f 300/5/2 301/5/2 317/5/2
f 302/4/2 303/4/2 318/4/2
f 317/5/2 301/5/2 318/5/2
f 303/4/2 304/4/2 318/4/2
f 301/4/2 302/4/2 318/4/2
f 304/2/2 305/2/2 319/2/2
f 318/4/2 304/4/2 319/4/2
f 306/5/2 307/5/2 320/5/2
f 319/2/2 305/2/2 320/2/2
f 305/5/2 306/5/2 320/5/2
f 307/4/2 308/4/2 321/4/2
f 320/5/2 307/5/2 321/5/2
f 308/4/2 309/4/2 321/4/2
f 309/2/2 310/2/2 322/2/2
f 310/1/2 311/1/2 322/1/2
f 311/4/2 312/4/2 323/4/2
f 322/1/2 311/1/2 323/1/2
f 313/2/2 314/2/2 324/2/2
f 314/4/2 315/4/2 324/4/2
f 315/2/2 316/2/2 325/2/2
f 324/4/2 315/4/2 325/4/2
f 316/4/2 300/4/2 326/4/2
f 325/2/2 316/2/2 326/2/2
f 300/5/2 317/5/2 327/5/2
f 326/4/2 300/4/2 327/4/2
f 317/4/2 318/4/2 328/4/2
f 327/5/2 317/5/2 328/5/2
f 318/4/2 319/4/2 328/4/2
f 320/4/2 321/4/2 328/4/2
f 319/4/2 320/4/2 328/4/2
f 328/4/2 321/4/2 329/4/2
f 321/4/2 309/4/2 330/4/2
f 329/4/2 321/4/2 330/4/2
f 330/4/2 309/4/2 331/4/2
f 331/4/2 309/4/2 332/4/2
f 309/2/2 322/2/2 333/2/2
f 332/4/2 309/4/2 333/4/2
f 322/4/2 323/4/2 334/4/2
f 333/2/2 322/2/2 334/2/2
f 323/4/2 312/4/2 335/4/2
f 334/4/2 323/4/2 335/4/2
f 325/4/2 326/4/2 336/4/2
f 326/5/2 327/5/2 337/5/2
f 336/4/2 326/4/2 337/4/2
f 327/2/2 328/2/2 338/2/2
f 337/5/2 327/5/2 338/5/2
f 328/4/2 329/4/2 339/4/2
f 338/2/2 328/2/2 339/2/2
f 339/4/2 329/4/2 340/4/2
f 340/4/2 329/4/2 341/4/2
f 341/4/2 329/4/2 342/4/2
f 329/2/2 330/2/2 343/2/2
f 342/4/2 329/4/2 343/4/2
f 330/4/2 331/4/2 344/4/2
f 343/2/2 330/2/2 344/2/2
f 331/5/2 332/5/2 345/5/2
f 344/4/2 331/4/2 345/4/2
f 345/5/2 332/5/2 346/5/2
f 333/4/2 334/4/2 347/4/2
f 346/5/2 332/5/2 347/5/2
f 332/4/2 333/4/2 347/4/2
f 347/4/2 334/4/2 348/4/2
f 334/2/2 335/2/2 349/2/2
f 348/4/2 334/4/2 349/4/2
f 349/2/2 335/2/2 350/2/2
f 325/4/2 336/4/2 351/4/2
f 324/2/2 325/2/2 351/2/2
f 336/2/2 337/2/2 352/2/2
f 351/4/2 336/4/2 352/4/2
f 337/1/2 338/1/2 353/1/2
f 352/2/2 337/2/2 353/2/2
f 338/1/2 339/1/2 353/1/2
f 339/1/2 340/1/2 353/1/2
f 340/4/2 341/4/2 354/4/2
f 353/1/2 340/1/2 354/1/2
f 341/5/2 342/5/2 355/5/2
f 354/4/2 341/4/2 355/4/2
f 355/5/2 342/5/2 356/5/2
f 356/5/2 342/5/2 357/5/2
f 342/4/2 343/4/2 358/4/2
f 357/5/2 342/5/2 358/5/2
f 345/5/2 346/5/2 359/5/2
f 358/4/2 343/4/2 359/4/2
f 344/5/2 345/5/2 359/5/2
f 343/5/2 344/5/2 359/5/2
f 359/5/2 346/5/2 360/5/2
f 347/1/2 348/1/2 361/1/2
f 360/5/2 346/5/2 361/5/2
f 346/1/2 347/1/2 361/1/2
f 349/4/2 350/4/2 362/4/2
f 361/1/2 348/1/2 362/1/2
f 348/4/2 349/4/2 362/4/2
f 362/4/2 350/4/2 363/4/2
f 350/2/2 335/2/2 364/2/2
f 363/4/2 350/4/2 364/4/2
f 364/2/2 335/2/2 365/2/2
f 313/2/2 324/2/2 366/2/2
f 324/2/2 351/2/2 366/2/2
f 351/1/2 352/1/2 367/1/2
f 366/2/2 351/2/2 367/2/2
f 354/1/2 355/1/2 367/1/2
f 353/1/2 354/1/2 367/1/2
f 352/1/2 353/1/2 367/1/2
f 355/5/2 356/5/2 368/5/2
f 367/1/2 355/1/2 368/1/2
f 356/4/2 357/4/2 369/4/2
f 368/5/2 356/5/2 369/5/2
f 357/2/2 358/2/2 370/2/2
f 369/4/2 357/4/2 370/4/2
f 359/2/2 360/2/2 370/2/2
f 358/2/2 359/2/2 370/2/2
f 362/1/2 363/1/2 371/1/2
f 370/2/2 360/2/2 371/2/2
f 360/1/2 361/1/2 371/1/2
f 361/1/2 362/1/2 371/1/2
f 363/4/2 364/4/2 372/4/2
f 371/1/2 363/1/2 372/1/2
f 364/4/2 365/4/2 372/4/2
f 372/4/2 365/4/2 373/4/2
f 313/2/2 366/2/2 374/2/2
f 366/4/2 367/4/2 375/4/2
f 374/2/2 366/2/2 375/2/2
f 375/4/2 367/4/2 376/4/2
f 369/4/2 370/4/2 377/4/2
f 368/4/2 369/4/2 377/4/2
f 370/4/2 371/4/2 377/4/2
f 377/4/2 371/4/2 378/4/2
f 372/5/2 373/5/2 379/5/2
f 379/5/2 373/5/2 380/5/2
f 375/2/2 376/2/2 381/2/2
f 374/1/2 375/1/2 381/1/2
f 381/2/2 376/2/2 382/2/2
f 368/4/2 377/4/2 386/4/2
f 386/4/2 377/4/2 387/4/2
f 377/5/2 378/5/2 388/5/2
f 387/4/2 377/4/2 388/4/2
f 388/5/2 378/5/2 389/5/2
f 378/4/2 371/4/2 390/4/2
f 389/5/2 378/5/2 390/5/2
f 390/4/2 371/4/2 391/4/2
f 372/5/2 379/5/2 396/5/2
f 379/1/2 380/1/2 397/1/2
f 396/5/2 379/5/2 397/5/2
f 381/1/2 382/1/2 398/1/2
f 382/5/2 383/5/2 398/5/2
f 383/2/2 384/2/2 399/2/2
f 398/5/2 383/5/2 399/5/2
f 399/2/2 384/2/2 400/2/2
f 384/4/2 385/4/2 401/4/2
f 400/2/2 384/2/2 401/2/2
f 386/2/2 387/2/2 402/2/2
f 401/4/2 385/4/2 402/4/2
f 385/2/2 386/2/2 402/2/2
f 402/2/2 387/2/2 403/2/2
f 388/4/2 389/4/2 404/4/2
f 403/2/2 387/2/2 404/2/2
f 387/4/2 388/4/2 404/4/2
f 404/4/2 389/4/2 405/4/2
f 389/2/2 390/2/2 406/2/2
f 405/4/2 389/4/2 406/4/2
f 390/4/2 391/4/2 407/4/2
f 406/2/2 390/2/2 407/2/2
f 391/4/2 392/4/2 407/4/2
f 407/4/2 392/4/2 408/4/2
f 392/2/2 393/2/2 409/2/2
f 408/4/2 392/4/2 409/4/2
f 393/1/2 394/1/2 410/1/2
f 409/2/2 393/2/2 410/2/2
f 394/5/2 395/5/2 411/5/2
f 410/1/2 394/1/2 411/1/2
f 395/1/2 396/1/2 412/1/2
f 411/5/2 395/5/2 412/5/2
f 396/1/2 397/1/2 412/1/2
f 399/1/2 400/1/2 413/1/2
f 374/1/2 381/1/2 413/1/2
f 381/1/2 398/1/2 413/1/2
f 398/1/2 399/1/2 413/1/2
f 413/1/2 400/1/2 414/1/2
f 414/1/2 400/1/2 415/1/2
f 415/1/2 400/1/2 416/1/2
f 402/5/2 403/5/2 417/5/2
f 416/1/2 400/1/2 417/1/2
f 400/5/2 401/5/2 417/5/2
f 401/5/2 402/5/2 417/5/2
f 417/5/2 403/5/2 418/5/2
f 404/2/2 405/2/2 419/2/2
f 418/5/2 403/5/2 419/5/2
f 403/2/2 404/2/2 419/2/2
f 419/2/2 405/2/2 420/2/2
f 405/5/2 406/5/2 421/5/2
f 420/2/2 405/2/2 421/2/2
f 421/5/2 406/5/2 422/5/2
f 406/4/2 407/4/2 423/4/2
f 422/5/2 406/5/2 423/5/2
f 407/4/2 408/4/2 423/4/2
f 423/4/2 408/4/2 424/4/2
f 408/2/2 409/2/2 425/2/2
f 424/4/2 408/4/2 425/4/2
f 409/5/2 410/5/2 426/5/2
f 425/2/2 409/2/2 426/2/2
f 410/1/2 411/1/2 427/1/2
f 426/5/2 410/5/2 427/5/2
f 411/1/2 412/1/2 427/1/2
f 412/1/2 397/1/2 428/1/2
f 427/1/2 412/1/2 428/1/2
f 397/1/2 380/1/2 429/1/2
f 428/1/2 397/1/2 429/1/2
f 429/1/2 380/1/2 430/1/2
f 431/6/2 432/6/2 442/6/2
f 432/3/2 433/3/2 443/3/2
f 442/6/2 432/6/2 443/6/2
f 443/3/2 433/3/2 444/3/2
f 433/6/2 434/6/2 445/6/2
f 444/3/2 433/3/2 445/3/2
f 445/6/2 434/6/2 446/6/2
f 434/3/2 435/3/2 447/3/2
f 446/6/2 434/6/2 447/6/2
f 435/6/2 436/6/2 448/6/2
f 447/3/2 435/3/2 448/3/2
f 436/3/2 437/3/2 449/3/2
f 448/6/2 436/6/2 449/6/2
f 449/3/2 437/3/2 450/3/2
f 437/6/2 438/6/2 451/6/2
f 450/3/2 437/3/2 451/3/2
f 438/3/2 439/3/2 452/3/2
f 451/6/2 438/6/2 452/6/2
f 439/6/2 440/6/2 453/6/2
f 452/3/2 439/3/2 453/3/2
f 440/3/2 441/3/2 454/3/2
f 453/6/2 440/6/2 454/6/2
f 443/3/2 444/3/2 455/3/2
f 442/3/2 443/3/2 455/3/2
f 445/6/2 446/6/2 456/6/2
f 455/3/2 444/3/2 456/3/2
f 444/6/2 445/6/2 456/6/2
f 456/6/2 446/6/2 457/6/2
f 446/3/2 447/3/2 458/3/2
f 457/6/2 446/6/2 458/6/2
f 447/3/2 448/3/2 458/3/2
f 449/3/2 450/3/2 458/3/2
f 448/3/2 449/3/2 458/3/2
f 458/3/2 450/3/2 459/3/2
f 459/3/2 450/3/2 460/3/2
f 460/3/2 450/3/2 461/3/2
f 461/3/2 450/3/2 462/3/2
f 450/6/2 451/6/2 463/6/2
f 462/3/2 450/3/2 463/3/2
f 451/3/2 452/3/2 464/3/2
f 463/6/2 451/6/2 464/6/2
f 452/6/2 453/6/2 465/6/2
f 453/3/2 454/3/2 465/3/2
f 454/3/2 441/3/2 466/3/2
f 465/3/2 454/3/2 466/3/2
f 466/3/2 441/3/2 467/3/2
f 467/3/2 441/3/2 468/3/2
f 456/6/2 457/6/2 469/6/2
f 455/6/2 456/6/2 469/6/2
f 457/3/2 458/3/2 470/3/2
f 469/6/2 457/6/2 470/6/2
f 458/3/2 459/3/2 470/3/2
f 459/6/2 460/6/2 471/6/2
f 470/3/2 459/3/2 471/3/2
f 460/3/2 461/3/2 472/3/2
f 471/6/2 460/6/2 472/6/2
f 461/6/2 462/6/2 473/6/2
f 472/3/2 461/3/2 473/3/2
f 463/3/2 464/3/2 474/3/2
f 473/6/2 462/6/2 474/6/2
f 462/3/2 463/3/2 474/3/2
f 464/3/2 452/3/2 475/3/2
f 474/3/2 464/3/2 475/3/2
f 452/6/2 465/6/2 475/6/2
f 465/6/2 466/6/2 475/6/2
f 466/3/2 467/3/2 476/3/2
f 475/6/2 466/6/2 476/6/2
f 467/6/2 468/6/2 477/6/2
f 476/3/2 467/3/2 477/3/2
f 477/6/2 468/6/2 478/6/2
f 479/6/2 480/6/2 489/6/2
f 480/3/2 481/3/2 490/3/2
f 489/6/2 480/6/2 490/6/2
f 481/6/2 482/6/2 491/6/2
f 490/3/2 481/3/2 491/3/2
f 482/3/2 483/3/2 492/3/2
f 491/6/2 482/6/2 492/6/2
f 492/3/2 483/3/2 493/3/2
f 483/6/2 484/6/2 494/6/2
f 493/3/2 483/3/2 494/3/2
f 484/3/2 485/3/2 495/3/2
f 494/6/2 484/6/2 495/6/2
f 485/6/2 486/6/2 496/6/2
f 495/3/2 485/3/2 496/3/2
f 496/6/2 486/6/2 497/6/2
f 486/3/2 487/3/2 498/3/2
f 497/6/2 486/6/2 498/6/2
f 498/3/2 487/3/2 499/3/2
f 499/3/2 487/3/2 500/3/2
f 487/6/2 488/6/2 501/6/2
f 500/3/2 487/3/2 501/3/2
f 501/6/2 488/6/2 502/6/2
f 489/3/2 490/3/2 503/3/2
f 490/3/2 491/3/2 503/3/2
f 491/3/2 492/3/2 503/3/2
f 492/6/2 493/6/2 504/6/2
f 503/3/2 492/3/2 504/3/2
f 493/3/2 494/3/2 505/3/2
f 504/6/2 493/6/2 505/6/2
f 494/3/2 495/3/2 505/3/2
f 496/6/2 497/6/2 506/6/2
f 505/3/2 495/3/2 506/3/2
f 495/6/2 496/6/2 506/6/2
f 497/3/2 498/3/2 507/3/2
f 506/6/2 497/6/2 507/6/2
f 498/6/2 499/6/2 508/6/2
f 507/3/2 498/3/2 508/3/2
f 499/3/2 500/3/2 509/3/2
f 508/6/2 499/6/2 509/6/2
f 500/6/2 501/6/2 510/6/2
f 509/3/2 500/3/2 510/3/2
f 501/3/2 502/3/2 511/3/2
f 510/6/2 501/6/2 511/6/2
f 511/3/2 502/3/2 512/3/2
f 518/1/3 514/1/3 513/1/3
f 519/4/3 515/4/3 514/4/3
f 519/1/3 514/1/3 518/1/3
f 520/2/3 516/2/3 515/2/3
f 520/4/3 515/4/3 519/4/3
f 521/1/3 517/1/3 516/1/3
f 521/2/3 516/2/3 520/2/3
f 522/1/3 517/1/3 521/1/3
f 528/6/3 524/6/3 523/6/3
f 529/3/3 525/3/3 524/3/3
f 529/6/3 524/6/3 528/6/3
f 530/3/3 525/3/3 529/3/3
f 531/3/3 527/3/3 526/3/3
f 532/3/3 527/3/3 531/3/3
f 533/3/3 527/3/3 532/3/3
f 534/3/3 530/3/3 529/3/3
f 534/3/3 529/3/3 528/3/3
f 535/3/3 530/3/3 534/3/3
f 536/3/3 530/3/3 535/3/3
f 537/3/3 530/3/3 536/3/3
f 538/3/3 532/3/3 531/3/3
f 539/6/3 533/6/3 532/6/3
f 539/3/3 532/3/3 538/3/3
f 540/6/3 533/6/3 539/6/3
f 541/6/3 535/6/3 534/6/3
f 542/3/3 536/3/3 535/3/3
f 542/6/3 535/6/3 541/6/3
f 543/6/3 537/6/3 536/6/3
f 543/3/3 536/3/3 542/3/3
f 544/6/3 537/6/3 543/6/3
f 545/6/3 539/6/3 538/6/3
f 546/3/3 540/3/3 539/3/3
f 546/6/3 539/6/3 545/6/3
f 547/3/3 540/3/3 546/3/3
f 550/4/3 549/4/3 548/4/3
f 551/4/3 549/4/3 550/4/3
f 554/5/3 553/5/3 552/5/3
f 555/5/3 553/5/3 554/5/3
f 556/4/4 557/4/4 559/4/4
f 557/2/4 558/2/4 560/2/4
f 559/4/4 557/4/4 560/4/4
f 560/2/4 558/2/4 561/2/4
f 562/4/4 563/4/4 564/4/4
f 564/4/4 563/4/4 565/4/4
f 566/3/4 567/3/4 572/3/4
f 567/6/4 568/6/4 573/6/4
f 572/3/4 567/3/4 573/3/4
f 573/6/4 568/6/4 574/6/4
f 569/6/4 570/6/4 575/6/4
f 570/3/4 571/3/4 576/3/4
f 575/6/4 570/6/4 576/6/4
f 576/3/4 571/3/4 577/3/4
f 573/6/4 574/6/4 578/6/4
f 572/6/4 573/6/4 578/6/4
f 578/6/4 574/6/4 579/6/4
f 579/6/4 574/6/4 580/6/4
f 575/3/4 576/3/4 581/3/4
f 576/6/4 577/6/4 582/6/4
f 581/3/4 576/3/4 582/3/4
f 582/6/4 577/6/4 583/6/4
f 578/3/4 579/3/4 584/3/4
f 579/6/4 580/6/4 585/6/4
f 584/3/4 579/3/4 585/3/4
f 585/6/4 580/6/4 586/6/4
f 581/6/4 582/6/4 587/6/4
f 582/3/4 583/3/4 588/3/4
f 587/6/4 582/6/4 588/6/4
f 588/3/4 583/3/4 589/3/4
f 590/1/4 591/1/4 597/1/4
f 591/4/4 592/4/4 598/4/4
f 597/1/4 591/1/4 598/1/4
f 592/2/4 593/2/4 599/2/4
f 598/4/4 592/4/4 599/4/4
f 593/4/4 594/4/4 600/4/4
f 599/2/4 593/2/4 600/2/4
f 594/5/4 595/5/4 601/5/4
f 600/4/4 594/4/4 601/4/4
f 595/1/4 596/1/4 602/1/4
f 601/5/4 595/5/4 602/5/4
f 602/1/4 596/1/4 603/1/4
f 608/6/5 605/6/5 604/6/5
f 609/3/5 606/3/5 605/3/5
f 609/6/5 605/6/5 608/6/5
f 610/6/5 607/6/5 606/6/5
f 610/3/5 606/3/5 609/3/5
f 611/6/5 607/6/5 610/6/5
f 612/3/5 609/3/5 608/3/5
f 612/3/5 610/3/5 609/3/5
f 612/3/5 611/3/5 610/3/5
f 613/3/5 611/3/5 612/3/5
f 614/3/5 612/3/5 608/3/5
f 615/6/5 613/6/5 612/6/5
f 615/3/5 612/3/5 614/3/5
f 616/6/5 615/6/5 614/6/5
f 616/6/5 613/6/5 615/6/5
f 617/3/5 611/3/5 613/3/5
f 617/6/5 613/6/5 616/6/5
f 618/3/5 611/3/5 617/3/5
f 619/6/5 616/6/5 614/6/5
f 619/3/5 617/3/5 616/3/5
f 620/6/5 618/6/5 617/6/5
f 620/3/5 617/3/5 619/3/5
f 621/6/5 619/6/5 614/6/5
f 621/6/5 620/6/5 619/6/5
f 622/6/5 620/6/5 621/6/5
f 623/3/5 622/3/5 621/3/5
f 624/6/5 620/6/5 622/6/5
f 624/3/5 622/3/5 623/3/5
f 625/6/5 618/6/5 620/6/5
f 625/6/5 620/6/5 624/6/5
f 626/6/5 624/6/5 623/6/5
f 627/3/5 625/3/5 624/3/5
f 627/6/5 624/6/5 626/6/5
f 628/6/5 618/6/5 625/6/5
f 628/3/5 625/3/5 627/3/5
f 629/6/5 618/6/5 628/6/5
f 630/3/5 627/3/5 626/3/5
f 630/3/5 628/3/5 627/3/5
f 630/3/5 629/3/5 628/3/5
f 631/3/5 629/3/5 630/3/5
f 632/6/5 631/6/5 630/6/5
f 633/3/5 629/3/5 631/3/5
f 633/6/5 631/6/5 632/6/5
f 634/3/5 633/3/5 632/3/5
f 635/3/5 629/3/5 633/3/5
f 635/3/5 633/3/5 634/3/5
f 636/6/5 635/6/5 634/6/5
f 637/6/5 635/6/5 636/6/5
f 638/6/5 635/6/5 637/6/5
f 639/6/5 635/6/5 638/6/5
f 640/6/5 638/6/5 637/6/5
f 640/3/5 639/3/5 638/3/5
f 641/3/5 639/3/5 640/3/5
f 642/3/5 637/3/5 636/3/5
f 643/6/5 640/6/5 637/6/5
f 643/3/5 637/3/5 642/3/5
f 643/6/5 641/6/5 640/6/5
f 644/6/5 641/6/5 643/6/5
f 645/6/5 643/6/5 642/6/5
f 645/3/5 644/3/5 643/3/5
f 646/3/5 644/3/5 645/3/5
f 647/6/5 645/6/5 642/6/5
f 647/6/5 646/6/5 645/6/5
f 648/6/5 646/6/5 647/6/5
f 649/6/5 646/6/5 648/6/5
f 650/6/5 646/6/5 649/6/5
f 651/3/5 648/3/5 647/3/5
f 652/6/5 649/6/5 648/6/5
f 652/3/5 648/3/5 651/3/5
f 653/3/5 650/3/5 649/3/5
f 653/6/5 649/6/5 652/6/5
f 654/3/5 650/3/5 653/3/5
f 657/1/5 656/1/5 655/1/5
f 658/1/5 656/1/5 657/1/5
f 661/1/5 660/1/5 659/1/5
f 662/1/5 660/1/5 661/1/5
f 665/5/5 664/5/5 663/5/5
f 666/5/5 664/5/5 665/5/5
f 667/2/5 666/2/5 665/2/5
f 668/2/5 666/2/5 667/2/5
f 669/4/5 668/4/5 667/4/5
f 670/4/5 668/4/5 669/4/5
f 671/2/5 670/2/5 669/2/5
f 672/2/5 670/2/5 671/2/5
f 675/4/5 674/4/5 673/4/5
f 676/4/5 674/4/5 675/4/5
f 677/2/5 676/2/5 675/2/5
f 678/2/5 676/2/5 677/2/5
f 679/1/5 678/1/5 677/1/5
f 680/1/5 678/1/5 679/1/5
f 681/5/5 680/5/5 679/5/5
f 682/5/5 680/5/5 681/5/5
f 683/1/5 682/1/5 681/1/5
f 684/1/5 682/1/5 683/1/5
f 689/3/5 686/3/5 685/3/5
f 690/3/5 686/3/5 689/3/5
f 691/6/5 688/6/5 687/6/5
f 692/6/5 688/6/5 691/6/5
f 693/6/5 690/6/5 689/6/5
f 694/6/5 690/6/5 693/6/5
f 695/3/5 692/3/5 691/3/5
f 696/3/5 692/3/5 695/3/5
f 697/3/5 694/3/5 693/3/5
f 698/6/5 696/6/5 695/6/5
f 699/6/5 696/6/5 698/6/5
f 700/6/5 696/6/5 699/6/5
f 701/3/5 697/3/5 693/3/5
f 702/3/5 697/3/5 701/3/5
f 703/6/5 702/6/5 701/6/5
f 704/6/5 702/6/5 703/6/5
f 705/3/5 700/3/5 699/3/5
f 706/3/5 704/3/5 703/3/5
f 707/3/5 704/3/5 706/3/5
f 708/3/5 700/3/5 705/3/5
f 709/3/5 700/3/5 708/3/5
f 710/6/5 707/6/5 706/6/5
f 711/6/5 709/6/5 708/6/5
f 712/6/5 710/6/5 706/6/5
f 713/6/5 710/6/5 712/6/5
f 714/6/5 709/6/5 711/6/5
f 715/6/5 709/6/5 714/6/5
f 716/3/5 713/3/5 712/3/5
f 717/3/5 715/3/5 714/3/5
f 718/3/5 716/3/5 712/3/5
f 719/3/5 716/3/5 718/3/5
f 720/3/5 715/3/5 717/3/5
f 721/3/5 715/3/5 720/3/5
f 722/6/5 719/6/5 718/6/5
f 723/6/5 719/6/5 722/6/5
f 724/3/5 723/3/5 722/3/5
f 725/6/5 721/6/5 720/6/5
f 726/6/5 721/6/5 725/6/5
f 727/3/5 724/3/5 722/3/5
f 728/3/5 726/3/5 725/3/5
f 729/3/5 727/3/5 722/3/5
f 730/3/5 727/3/5 729/3/5
f 731/3/5 726/3/5 728/3/5
f 732/3/5 726/3/5 731/3/5
f 733/3/5 726/3/5 732/3/5
f 734/6/5 730/6/5 729/6/5
f 735/6/5 730/6/5 734/6/5
f 736/6/5 733/6/5 732/6/5
f 737/6/5 733/6/5 736/6/5
f 738/3/6 739/3/6 742/3/6
f 740/6/6 741/6/6 743/6/6
f 738/3/6 742/3/6 744/3/6
f 744/3/6 742/3/6 745/3/6
f 743/6/6 741/6/6 746/6/6
f 744/6/6 745/6/6 747/6/6
f 746/6/6 741/6/6 748/6/6
f 748/6/6 741/6/6 749/6/6
f 744/6/6 747/6/6 750/6/6
f 750/6/6 747/6/6 751/6/6
f 748/3/6 749/3/6 752/3/6
f 752/3/6 749/3/6 753/3/6
f 752/6/6 753/6/6 754/6/6
f 754/6/6 753/6/6 755/6/6
f 750/3/6 751/3/6 756/3/6
f 756/3/6 751/3/6 757/3/6
f 754/3/6 755/3/6 758/3/6
f 758/3/6 755/3/6 759/3/6
f 756/6/6 757/6/6 760/6/6
f 760/6/6 757/6/6 761/6/6
f 760/3/6 761/3/6 762/3/6
f 762/3/6 761/3/6 763/3/6
f 758/6/6 759/6/6 764/6/6
f 764/6/6 759/6/6 765/6/6
f 762/6/6 763/6/6 766/6/6
f 764/3/6 765/3/6 767/3/6
f 762/6/6 766/6/6 768/6/6
f 767/3/6 765/3/6 769/3/6
f 762/6/6 768/6/6 770/6/6
f 770/6/6 768/6/6 771/6/6
f 769/3/6 765/3/6 772/3/6
f 772/3/6 765/3/6 773/3/6
f 770/3/6 771/3/6 774/3/6
f 774/3/6 771/3/6 775/3/6
f 774/6/6 775/6/6 776/6/6
f 776/6/6 775/6/6 777/6/6
f 772/6/6 773/6/6 778/6/6
f 778/6/6 773/6/6 779/6/6
f 776/3/6 777/3/6 780/3/6
f 780/3/6 777/3/6 781/3/6
f 778/3/6 779/3/6 782/3/6
f 782/3/6 779/3/6 783/3/6
f 780/6/6 781/6/6 784/6/6
f 784/6/6 781/6/6 785/6/6
f 782/6/6 783/6/6 786/6/6
f 786/6/6 783/6/6 787/6/6
f 788/1/6 789/1/6 790/1/6
f 790/1/6 789/1/6 791/1/6
f 792/1/6 793/1/6 794/1/6
f 794/1/6 793/1/6 795/1/6
f 796/1/6 797/1/6 798/1/6
f 798/1/6 797/1/6 799/1/6
f 800/1/6 801/1/6 802/1/6
f 802/1/6 801/1/6 803/1/6
f 804/3/6 805/3/6 808/3/6
f 805/6/6 806/6/6 808/6/6
f 806/3/6 807/3/6 809/3/6
f 808/6/6 806/6/6 809/6/6
f 804/3/6 808/3/6 810/3/6
f 808/3/6 809/3/6 810/3/6
f 809/3/6 807/3/6 811/3/6
f 810/3/6 809/3/6 811/3/6
f 804/3/6 810/3/6 812/3/6
f 810/6/6 811/6/6 812/6/6
f 811/3/6 807/3/6 813/3/6
f 812/6/6 811/6/6 813/6/6
f 804/3/6 812/3/6 814/3/6
f 812/3/6 813/3/6 814/3/6
f 813/3/6 807/3/6 815/3/6
f 814/3/6 813/3/6 815/3/6
f 814/6/6 815/6/6 816/6/6
f 816/6/6 815/6/6 817/6/6
f 815/3/6 807/3/6 818/3/6
f 817/6/6 815/6/6 818/6/6
f 818/3/6 807/3/6 819/3/6
f 816/3/6 817/3/6 820/3/6
f 817/6/6 818/6/6 820/6/6
f 818/6/6 819/6/6 820/6/6
f 820/6/6 819/6/6 821/6/6
f 816/3/6 820/3/6 822/3/6
f 820/3/6 821/3/6 822/3/6
f 822/3/6 821/3/6 823/3/6
f 816/3/6 822/3/6 824/3/6
f 822/6/6 823/6/6 825/6/6
f 824/3/6 822/3/6 825/3/6
f 823/3/6 821/3/6 826/3/6
f 825/6/6 823/6/6 826/6/6
f 824/6/6 825/6/6 827/6/6
f 825/3/6 826/3/6 827/3/6
f 826/3/6 821/3/6 828/3/6
f 827/3/6 826/3/6 828/3/6
f 824/6/6 827/6/6 829/6/6
f 827/6/6 828/6/6 829/6/6
f 828/3/6 821/3/6 830/3/6
f 829/6/6 828/6/6 830/6/6
f 830/3/6 821/3/6 831/3/6
f 829/3/6 830/3/6 832/3/6
f 832/3/6 830/3/6 833/3/6
f 830/6/6 831/6/6 834/6/6
f 833/3/6 830/3/6 834/3/6
f 834/6/6 831/6/6 835/6/6
f 832/6/6 833/6/6 836/6/6
f 833/3/6 834/3/6 837/3/6
f 836/6/6 833/6/6 837/6/6
f 834/3/6 835/3/6 837/3/6
f 837/3/6 835/3/6 838/3/6
f 838/3/6 835/3/6 839/3/6
f 836/3/6 837/3/6 840/3/6
f 837/3/6 838/3/6 840/3/6
f 838/6/6 839/6/6 841/6/6
f 840/3/6 838/3/6 841/3/6
f 840/6/6 841/6/6 842/6/6
f 842/6/6 841/6/6 843/6/6
f 841/6/6 839/6/6 844/6/6
f 843/6/6 841/6/6 844/6/6
f 844/6/6 839/6/6 845/6/6
f 842/3/6 843/3/6 846/3/6
f 843/6/6 844/6/6 846/6/6
f 844/3/6 845/3/6 847/3/6
f 846/6/6 844/6/6 847/6/6
f 847/3/6 845/3/6 848/3/6
f 842/3/6 846/3/6 849/3/6
f 846/3/6 847/3/6 849/3/6
f 847/6/6 848/6/6 850/6/6
f 849/3/6 847/3/6 850/3/6
f 849/6/6 850/6/6 851/6/6
f 851/6/6 850/6/6 852/6/6
f 850/6/6 848/6/6 853/6/6
f 852/6/6 850/6/6 853/6/6
f 853/6/6 848/6/6 854/6/6
f 851/3/6 852/3/6 855/3/6
f 852/6/6 853/6/6 856/6/6
f 855/3/6 852/3/6 856/3/6
f 853/3/6 854/3/6 857/3/6
f 856/6/6 853/6/6 857/6/6
f 857/3/6 854/3/6 858/3/6
