# MagicaVoxel @ Ephtracy

# group
o 

# material
mtllib SmithingFloor1TEX.mtl
usemtl palette

# normals
vn -1 0 0
vn 1 0 0
vn 0 0 1
vn 0 0 -1
vn 0 -1 0
vn 0 1 0

# texcoords
vt 0.458984 0.5
vt 0.462891 0.5
vt 0.466797 0.5

# verts
v 0 2 -0.2
v 0 2 -0.3
v 0 2 -0.4
v 0 2 -0.5
v 0 2 -0.8
v 0 2 -0.9
v 0 2 -1
v 0 2 -1.1
v 0 2 -1.2
v 0 2 -1.3
v 0 2 -1.4
v 0 2 -1.5
v 0 2 -1.6
v 0 2 -1.7
v 0 2 -1.8
v 0 2.1 -0.2
v 0 2.1 -0.3
v 0 2.1 -0.4
v 0 2.1 -0.5
v 0 2.1 -0.8
v 0 2.1 -0.9
v 0 2.1 -1
v 0 2.1 -1.1
v 0 2.1 -1.2
v 0 2.1 -1.3
v 0 2.1 -1.4
v 0 2.1 -1.5
v 0 2.1 -1.6
v 0 2.1 -1.7
v 0 2.1 -1.8
v 0.1 2 -0.1
v 0.1 2 -0.2
v 0.1 2 -1.8
v 0.1 2 -1.9
v 0.1 2.1 -0.1
v 0.1 2.1 -0.2
v 0.1 2.1 -1.8
v 0.1 2.1 -1.9
v 0.2 2 0
v 0.2 2 -0.1
v 0.2 2 -1.9
v 0.2 2 -2
v 0.2 2.1 0
v 0.2 2.1 -0.1
v 0.2 2.1 -1.9
v 0.2 2.1 -2
v 0.5 2 0
v 0.5 2 -0.1
v 0.5 2 -1.9
v 0.5 2 -2
v 0.5 2.1 0
v 0.5 2.1 -0.1
v 0.5 2.1 -1.9
v 0.5 2.1 -2
v 1.1 2 0
v 1.1 2 -0.1
v 1.1 2 -1.9
v 1.1 2 -2
v 1.1 2.1 0
v 1.1 2.1 -0.1
v 1.1 2.1 -1.9
v 1.1 2.1 -2
v 0.4 2 0
v 0.4 2 -0.1
v 0.4 2 -1.9
v 0.4 2 -2
v 0.4 2.1 0
v 0.4 2.1 -0.1
v 0.4 2.1 -1.9
v 0.4 2.1 -2
v 1 2 0
v 1 2 -0.1
v 1 2 -1.9
v 1 2 -2
v 1 2.1 0
v 1 2.1 -0.1
v 1 2.1 -1.9
v 1 2.1 -2
v 2.2 2 0
v 2.2 2 -0.1
v 2.2 2 -1.9
v 2.2 2 -2
v 2.2 2.1 0
v 2.2 2.1 -0.1
v 2.2 2.1 -1.9
v 2.2 2.1 -2
v 2.3 2 -0.1
v 2.3 2 -0.2
v 2.3 2 -1.8
v 2.3 2 -1.9
v 2.3 2.1 -0.1
v 2.3 2.1 -0.2
v 2.3 2.1 -1.8
v 2.3 2.1 -1.9
v 2.4 2 -0.2
v 2.4 2 -0.3
v 2.4 2 -0.4
v 2.4 2 -0.5
v 2.4 2 -0.8
v 2.4 2 -0.9
v 2.4 2 -1
v 2.4 2 -1.1
v 2.4 2 -1.4
v 2.4 2 -1.5
v 2.4 2 -1.8
v 2.4 2.1 -0.2
v 2.4 2.1 -0.3
v 2.4 2.1 -0.4
v 2.4 2.1 -0.5
v 2.4 2.1 -0.8
v 2.4 2.1 -0.9
v 2.4 2.1 -1
v 2.4 2.1 -1.1
v 2.4 2.1 -1.4
v 2.4 2.1 -1.5
v 2.4 2.1 -1.8
v 0.2 2 0
v 0.2 2.1 0
v 0.3 2 0
v 0.3 2.1 0
v 0.4 2 0
v 0.4 2.1 0
v 0.5 2 0
v 0.5 2.1 0
v 1 2 0
v 1 2.1 0
v 1.1 2 0
v 1.1 2.1 0
v 1.6 2 0
v 1.6 2.1 0
v 1.8 2 0
v 1.8 2.1 0
v 1.9 2 0
v 1.9 2.1 0
v 2.2 2 0
v 2.2 2.1 0
v 0.1 2 -0.1
v 0.1 2.1 -0.1
v 0.2 2 -0.1
v 0.2 2.1 -0.1
v 0.4 2 -0.1
v 0.4 2.1 -0.1
v 0.5 2 -0.1
v 0.5 2.1 -0.1
v 1 2 -0.1
v 1 2.1 -0.1
v 1.1 2 -0.1
v 1.1 2.1 -0.1
v 2.2 2 -0.1
v 2.2 2.1 -0.1
v 2.3 2 -0.1
v 2.3 2.1 -0.1
v 0 2 -0.2
v 0 2.1 -0.2
v 0.1 2 -0.2
v 0.1 2.1 -0.2
v 2.3 2 -0.2
v 2.3 2.1 -0.2
v 2.4 2 -0.2
v 2.4 2.1 -0.2
v 0 2 -1.8
v 0 2.1 -1.8
v 0.1 2 -1.8
v 0.1 2.1 -1.8
v 2.3 2 -1.8
v 2.3 2.1 -1.8
v 2.4 2 -1.8
v 2.4 2.1 -1.8
v 0.1 2 -1.9
v 0.1 2.1 -1.9
v 0.2 2 -1.9
v 0.2 2.1 -1.9
v 0.4 2 -1.9
v 0.4 2.1 -1.9
v 0.5 2 -1.9
v 0.5 2.1 -1.9
v 1 2 -1.9
v 1 2.1 -1.9
v 1.1 2 -1.9
v 1.1 2.1 -1.9
v 2.2 2 -1.9
v 2.2 2.1 -1.9
v 2.3 2 -1.9
v 2.3 2.1 -1.9
v 0.2 2 -2
v 0.2 2.1 -2
v 0.4 2 -2
v 0.4 2.1 -2
v 0.5 2 -2
v 0.5 2.1 -2
v 0.7 2 -2
v 0.7 2.1 -2
v 0.9 2 -2
v 0.9 2.1 -2
v 1 2 -2
v 1 2.1 -2
v 1.1 2 -2
v 1.1 2.1 -2
v 2.2 2 -2
v 2.2 2.1 -2
v 0.2 2 0
v 0.3 2 0
v 0.4 2 0
v 0.5 2 0
v 1 2 0
v 1.1 2 0
v 1.6 2 0
v 1.8 2 0
v 1.9 2 0
v 2.2 2 0
v 0.1 2 -0.1
v 0.2 2 -0.1
v 0.3 2 -0.1
v 0.4 2 -0.1
v 0.5 2 -0.1
v 1 2 -0.1
v 1.1 2 -0.1
v 1.3 2 -0.1
v 1.5 2 -0.1
v 1.6 2 -0.1
v 1.8 2 -0.1
v 1.9 2 -0.1
v 2.2 2 -0.1
v 2.3 2 -0.1
v 0 2 -0.2
v 0.1 2 -0.2
v 0.5 2 -0.2
v 0.6 2 -0.2
v 1.3 2 -0.2
v 1.4 2 -0.2
v 1.5 2 -0.2
v 2.1 2 -0.2
v 2.2 2 -0.2
v 2.3 2 -0.2
v 2.4 2 -0.2
v 0 2 -0.3
v 0.1 2 -0.3
v 0.5 2 -0.3
v 0.6 2 -0.3
v 0.7 2 -0.3
v 1.4 2 -0.3
v 1.5 2 -0.3
v 1.6 2 -0.3
v 2 2 -0.3
v 2.1 2 -0.3
v 2.2 2 -0.3
v 2.4 2 -0.3
v 0 2 -0.4
v 0.1 2 -0.4
v 0.2 2 -0.4
v 0.3 2 -0.4
v 0.7 2 -0.4
v 0.9 2 -0.4
v 1 2 -0.4
v 1.6 2 -0.4
v 1.7 2 -0.4
v 1.9 2 -0.4
v 2 2 -0.4
v 2.4 2 -0.4
v 0 2 -0.5
v 0.2 2 -0.5
v 0.3 2 -0.5
v 0.8 2 -0.5
v 0.9 2 -0.5
v 1 2 -0.5
v 1.3 2 -0.5
v 1.7 2 -0.5
v 1.8 2 -0.5
v 1.9 2 -0.5
v 2.2 2 -0.5
v 2.4 2 -0.5
v 0.1 2 -0.6
v 0.6 2 -0.6
v 0.7 2 -0.6
v 0.8 2 -0.6
v 1.3 2 -0.6
v 1.5 2 -0.6
v 1.8 2 -0.6
v 2.2 2 -0.6
v 2.3 2 -0.6
v 0.1 2 -0.7
v 0.5 2 -0.7
v 0.6 2 -0.7
v 0.7 2 -0.7
v 1.3 2 -0.7
v 1.5 2 -0.7
v 1.6 2 -0.7
v 2.3 2 -0.7
v 0 2 -0.8
v 0.1 2 -0.8
v 0.2 2 -0.8
v 0.5 2 -0.8
v 0.7 2 -0.8
v 0.9 2 -0.8
v 1 2 -0.8
v 1.3 2 -0.8
v 1.6 2 -0.8
v 1.9 2 -0.8
v 2 2 -0.8
v 2.4 2 -0.8
v 0 2 -0.9
v 0.1 2 -0.9
v 0.2 2 -0.9
v 0.4 2 -0.9
v 0.9 2 -0.9
v 1 2 -0.9
v 1.8 2 -0.9
v 1.9 2 -0.9
v 2 2 -0.9
v 2.2 2 -0.9
v 2.4 2 -0.9
v 0 2 -1
v 0.2 2 -1
v 0.4 2 -1
v 0.6 2 -1
v 0.7 2 -1
v 1 2 -1
v 1.4 2 -1
v 1.5 2 -1
v 1.8 2 -1
v 2.1 2 -1
v 2.2 2 -1
v 2.4 2 -1
v 0 2 -1.1
v 0.6 2 -1.1
v 0.7 2 -1.1
v 1.2 2 -1.1
v 1.4 2 -1.1
v 1.5 2 -1.1
v 1.7 2 -1.1
v 2.1 2 -1.1
v 2.2 2 -1.1
v 2.4 2 -1.1
v 0 2 -1.2
v 0.1 2 -1.2
v 0.2 2 -1.2
v 0.9 2 -1.2
v 1 2 -1.2
v 1.2 2 -1.2
v 1.5 2 -1.2
v 1.6 2 -1.2
v 1.7 2 -1.2
v 2.3 2 -1.2
v 0 2 -1.3
v 0.1 2 -1.3
v 0.2 2 -1.3
v 0.3 2 -1.3
v 0.6 2 -1.3
v 0.9 2 -1.3
v 1 2 -1.3
v 1.2 2 -1.3
v 1.5 2 -1.3
v 1.6 2 -1.3
v 1.8 2 -1.3
v 2.3 2 -1.3
v 0 2 -1.4
v 0.3 2 -1.4
v 0.5 2 -1.4
v 0.6 2 -1.4
v 1 2 -1.4
v 1.2 2 -1.4
v 1.4 2 -1.4
v 1.5 2 -1.4
v 1.8 2 -1.4
v 2 2 -1.4
v 2.1 2 -1.4
v 2.4 2 -1.4
v 0 2 -1.5
v 0.1 2 -1.5
v 0.3 2 -1.5
v 0.5 2 -1.5
v 0.6 2 -1.5
v 1.4 2 -1.5
v 1.5 2 -1.5
v 1.7 2 -1.5
v 2 2 -1.5
v 2.1 2 -1.5
v 2.2 2 -1.5
v 2.4 2 -1.5
v 0 2 -1.6
v 0.1 2 -1.6
v 0.2 2 -1.6
v 0.3 2 -1.6
v 0.8 2 -1.6
v 1 2 -1.6
v 1.5 2 -1.6
v 1.6 2 -1.6
v 1.7 2 -1.6
v 2.2 2 -1.6
v 2.3 2 -1.6
v 0 2 -1.7
v 0.2 2 -1.7
v 0.3 2 -1.7
v 0.4 2 -1.7
v 0.8 2 -1.7
v 1 2 -1.7
v 1.5 2 -1.7
v 1.6 2 -1.7
v 2.3 2 -1.7
v 0 2 -1.8
v 0.1 2 -1.8
v 0.4 2 -1.8
v 0.5 2 -1.8
v 0.6 2 -1.8
v 0.8 2 -1.8
v 1 2 -1.8
v 1.2 2 -1.8
v 1.4 2 -1.8
v 1.5 2 -1.8
v 2 2 -1.8
v 2.1 2 -1.8
v 2.3 2 -1.8
v 2.4 2 -1.8
v 0.1 2 -1.9
v 0.2 2 -1.9
v 0.4 2 -1.9
v 0.5 2 -1.9
v 0.6 2 -1.9
v 0.7 2 -1.9
v 0.9 2 -1.9
v 1 2 -1.9
v 1.1 2 -1.9
v 1.2 2 -1.9
v 1.4 2 -1.9
v 2 2 -1.9
v 2.1 2 -1.9
v 2.2 2 -1.9
v 2.3 2 -1.9
v 0.2 2 -2
v 0.4 2 -2
v 0.5 2 -2
v 0.7 2 -2
v 0.9 2 -2
v 1 2 -2
v 1.1 2 -2
v 2.2 2 -2
v 0.2 2.1 0
v 0.3 2.1 0
v 0.4 2.1 0
v 0.5 2.1 0
v 1 2.1 0
v 1.1 2.1 0
v 1.6 2.1 0
v 1.8 2.1 0
v 1.9 2.1 0
v 2.2 2.1 0
v 0.1 2.1 -0.1
v 0.2 2.1 -0.1
v 0.3 2.1 -0.1
v 0.4 2.1 -0.1
v 0.5 2.1 -0.1
v 1 2.1 -0.1
v 1.1 2.1 -0.1
v 1.3 2.1 -0.1
v 1.5 2.1 -0.1
v 1.6 2.1 -0.1
v 1.8 2.1 -0.1
v 1.9 2.1 -0.1
v 2.2 2.1 -0.1
v 2.3 2.1 -0.1
v 0 2.1 -0.2
v 0.1 2.1 -0.2
v 0.5 2.1 -0.2
v 0.6 2.1 -0.2
v 1.3 2.1 -0.2
v 1.4 2.1 -0.2
v 1.5 2.1 -0.2
v 2.1 2.1 -0.2
v 2.2 2.1 -0.2
v 2.3 2.1 -0.2
v 2.4 2.1 -0.2
v 0 2.1 -0.3
v 0.1 2.1 -0.3
v 0.5 2.1 -0.3
v 0.6 2.1 -0.3
v 0.7 2.1 -0.3
v 1.4 2.1 -0.3
v 1.5 2.1 -0.3
v 1.6 2.1 -0.3
v 2 2.1 -0.3
v 2.1 2.1 -0.3
v 2.2 2.1 -0.3
v 2.4 2.1 -0.3
v 0 2.1 -0.4
v 0.1 2.1 -0.4
v 0.2 2.1 -0.4
v 0.3 2.1 -0.4
v 0.7 2.1 -0.4
v 0.9 2.1 -0.4
v 1 2.1 -0.4
v 1.6 2.1 -0.4
v 1.7 2.1 -0.4
v 1.9 2.1 -0.4
v 2 2.1 -0.4
v 2.4 2.1 -0.4
v 0 2.1 -0.5
v 0.2 2.1 -0.5
v 0.3 2.1 -0.5
v 0.8 2.1 -0.5
v 0.9 2.1 -0.5
v 1 2.1 -0.5
v 1.3 2.1 -0.5
v 1.7 2.1 -0.5
v 1.8 2.1 -0.5
v 1.9 2.1 -0.5
v 2.2 2.1 -0.5
v 2.4 2.1 -0.5
v 0.1 2.1 -0.6
v 0.6 2.1 -0.6
v 0.7 2.1 -0.6
v 0.8 2.1 -0.6
v 1.3 2.1 -0.6
v 1.5 2.1 -0.6
v 1.8 2.1 -0.6
v 2.2 2.1 -0.6
v 2.3 2.1 -0.6
v 0.1 2.1 -0.7
v 0.5 2.1 -0.7
v 0.6 2.1 -0.7
v 0.7 2.1 -0.7
v 1.3 2.1 -0.7
v 1.5 2.1 -0.7
v 1.6 2.1 -0.7
v 2.3 2.1 -0.7
v 0 2.1 -0.8
v 0.1 2.1 -0.8
v 0.2 2.1 -0.8
v 0.5 2.1 -0.8
v 0.7 2.1 -0.8
v 0.9 2.1 -0.8
v 1 2.1 -0.8
v 1.3 2.1 -0.8
v 1.6 2.1 -0.8
v 1.9 2.1 -0.8
v 2 2.1 -0.8
v 2.4 2.1 -0.8
v 0 2.1 -0.9
v 0.1 2.1 -0.9
v 0.2 2.1 -0.9
v 0.4 2.1 -0.9
v 0.9 2.1 -0.9
v 1 2.1 -0.9
v 1.8 2.1 -0.9
v 1.9 2.1 -0.9
v 2 2.1 -0.9
v 2.2 2.1 -0.9
v 2.4 2.1 -0.9
v 0 2.1 -1
v 0.2 2.1 -1
v 0.4 2.1 -1
v 0.6 2.1 -1
v 0.7 2.1 -1
v 1 2.1 -1
v 1.4 2.1 -1
v 1.5 2.1 -1
v 1.8 2.1 -1
v 2.1 2.1 -1
v 2.2 2.1 -1
v 2.4 2.1 -1
v 0 2.1 -1.1
v 0.6 2.1 -1.1
v 0.7 2.1 -1.1
v 1.2 2.1 -1.1
v 1.4 2.1 -1.1
v 1.5 2.1 -1.1
v 1.7 2.1 -1.1
v 2.1 2.1 -1.1
v 2.2 2.1 -1.1
v 2.4 2.1 -1.1
v 0 2.1 -1.2
v 0.1 2.1 -1.2
v 0.2 2.1 -1.2
v 0.9 2.1 -1.2
v 1 2.1 -1.2
v 1.2 2.1 -1.2
v 1.5 2.1 -1.2
v 1.6 2.1 -1.2
v 1.7 2.1 -1.2
v 2.3 2.1 -1.2
v 0 2.1 -1.3
v 0.1 2.1 -1.3
v 0.2 2.1 -1.3
v 0.3 2.1 -1.3
v 0.6 2.1 -1.3
v 0.9 2.1 -1.3
v 1 2.1 -1.3
v 1.2 2.1 -1.3
v 1.5 2.1 -1.3
v 1.6 2.1 -1.3
v 1.8 2.1 -1.3
v 2.3 2.1 -1.3
v 0 2.1 -1.4
v 0.3 2.1 -1.4
v 0.5 2.1 -1.4
v 0.6 2.1 -1.4
v 1 2.1 -1.4
v 1.2 2.1 -1.4
v 1.4 2.1 -1.4
v 1.5 2.1 -1.4
v 1.8 2.1 -1.4
v 2 2.1 -1.4
v 2.1 2.1 -1.4
v 2.4 2.1 -1.4
v 0 2.1 -1.5
v 0.1 2.1 -1.5
v 0.3 2.1 -1.5
v 0.5 2.1 -1.5
v 0.6 2.1 -1.5
v 1.4 2.1 -1.5
v 1.5 2.1 -1.5
v 1.7 2.1 -1.5
v 2 2.1 -1.5
v 2.1 2.1 -1.5
v 2.2 2.1 -1.5
v 2.4 2.1 -1.5
v 0 2.1 -1.6
v 0.1 2.1 -1.6
v 0.2 2.1 -1.6
v 0.3 2.1 -1.6
v 0.8 2.1 -1.6
v 1 2.1 -1.6
v 1.5 2.1 -1.6
v 1.6 2.1 -1.6
v 1.7 2.1 -1.6
v 2.2 2.1 -1.6
v 2.3 2.1 -1.6
v 0 2.1 -1.7
v 0.2 2.1 -1.7
v 0.3 2.1 -1.7
v 0.4 2.1 -1.7
v 0.8 2.1 -1.7
v 1 2.1 -1.7
v 1.5 2.1 -1.7
v 1.6 2.1 -1.7
v 2.3 2.1 -1.7
v 0 2.1 -1.8
v 0.1 2.1 -1.8
v 0.4 2.1 -1.8
v 0.5 2.1 -1.8
v 0.6 2.1 -1.8
v 0.8 2.1 -1.8
v 1 2.1 -1.8
v 1.2 2.1 -1.8
v 1.4 2.1 -1.8
v 1.5 2.1 -1.8
v 2 2.1 -1.8
v 2.1 2.1 -1.8
v 2.3 2.1 -1.8
v 2.4 2.1 -1.8
v 0.1 2.1 -1.9
v 0.2 2.1 -1.9
v 0.4 2.1 -1.9
v 0.5 2.1 -1.9
v 0.6 2.1 -1.9
v 0.7 2.1 -1.9
v 0.9 2.1 -1.9
v 1 2.1 -1.9
v 1.1 2.1 -1.9
v 1.2 2.1 -1.9
v 1.4 2.1 -1.9
v 2 2.1 -1.9
v 2.1 2.1 -1.9
v 2.2 2.1 -1.9
v 2.3 2.1 -1.9
v 0.2 2.1 -2
v 0.4 2.1 -2
v 0.5 2.1 -2
v 0.7 2.1 -2
v 0.9 2.1 -2
v 1 2.1 -2
v 1.1 2.1 -2
v 2.2 2.1 -2

# faces
f 16/1/1 2/1/1 1/1/1
f 17/2/1 3/2/1 2/2/1
f 17/1/1 2/1/1 16/1/1
f 18/1/1 4/1/1 3/1/1
f 18/2/1 3/2/1 17/2/1
f 19/2/1 5/2/1 4/2/1
f 19/1/1 4/1/1 18/1/1
f 20/1/1 6/1/1 5/1/1
f 20/2/1 5/2/1 19/2/1
f 21/3/1 7/3/1 6/3/1
f 21/1/1 6/1/1 20/1/1
f 22/1/1 8/1/1 7/1/1
f 22/3/1 7/3/1 21/3/1
f 23/2/1 9/2/1 8/2/1
f 23/1/1 8/1/1 22/1/1
f 24/1/1 10/1/1 9/1/1
f 24/2/1 9/2/1 23/2/1
f 25/3/1 11/3/1 10/3/1
f 25/1/1 10/1/1 24/1/1
f 26/1/1 12/1/1 11/1/1
f 26/3/1 11/3/1 25/3/1
f 27/2/1 13/2/1 12/2/1
f 27/1/1 12/1/1 26/1/1
f 28/1/1 14/1/1 13/1/1
f 28/2/1 13/2/1 27/2/1
f 29/2/1 15/2/1 14/2/1
f 29/1/1 14/1/1 28/1/1
f 30/2/1 15/2/1 29/2/1
f 35/2/1 32/2/1 31/2/1
f 36/2/1 32/2/1 35/2/1
f 37/1/1 34/1/1 33/1/1
f 38/1/1 34/1/1 37/1/1
f 43/1/1 40/1/1 39/1/1
f 44/1/1 40/1/1 43/1/1
f 45/2/1 42/2/1 41/2/1
f 46/2/1 42/2/1 45/2/1
f 51/1/1 48/1/1 47/1/1
f 52/1/1 48/1/1 51/1/1
f 53/2/1 50/2/1 49/2/1
f 54/2/1 50/2/1 53/2/1
f 59/1/1 56/1/1 55/1/1
f 60/1/1 56/1/1 59/1/1
f 61/2/1 58/2/1 57/2/1
f 62/2/1 58/2/1 61/2/1
f 63/2/2 64/2/2 67/2/2
f 67/2/2 64/2/2 68/2/2
f 65/2/2 66/2/2 69/2/2
f 69/2/2 66/2/2 70/2/2
f 71/1/2 72/1/2 75/1/2
f 75/1/2 72/1/2 76/1/2
f 73/2/2 74/2/2 77/2/2
f 77/2/2 74/2/2 78/2/2
f 79/1/2 80/1/2 83/1/2
f 83/1/2 80/1/2 84/1/2
f 81/2/2 82/2/2 85/2/2
f 85/2/2 82/2/2 86/2/2
f 87/2/2 88/2/2 91/2/2
f 91/2/2 88/2/2 92/2/2
f 89/1/2 90/1/2 93/1/2
f 93/1/2 90/1/2 94/1/2
f 95/1/2 96/1/2 106/1/2
f 96/2/2 97/2/2 107/2/2
f 106/1/2 96/1/2 107/1/2
f 97/1/2 98/1/2 108/1/2
f 107/2/2 97/2/2 108/2/2
f 98/2/2 99/2/2 109/2/2
f 108/1/2 98/1/2 109/1/2
f 99/1/2 100/1/2 110/1/2
f 109/2/2 99/2/2 110/2/2
f 100/2/2 101/2/2 111/2/2
f 110/1/2 100/1/2 111/1/2
f 101/1/2 102/1/2 112/1/2
f 111/2/2 101/2/2 112/2/2
f 102/2/2 103/2/2 113/2/2
f 112/1/2 102/1/2 113/1/2
f 103/1/2 104/1/2 114/1/2
f 113/2/2 103/2/2 114/2/2
f 104/2/2 105/2/2 115/2/2
f 114/1/2 104/1/2 115/1/2
f 115/2/2 105/2/2 116/2/2
f 119/1/3 118/1/3 117/1/3
f 120/1/3 118/1/3 119/1/3
f 121/2/3 120/2/3 119/2/3
f 122/2/3 120/2/3 121/2/3
f 125/1/3 124/1/3 123/1/3
f 126/1/3 124/1/3 125/1/3
f 129/1/3 128/1/3 127/1/3
f 130/1/3 128/1/3 129/1/3
f 131/2/3 130/2/3 129/2/3
f 132/2/3 130/2/3 131/2/3
f 133/3/3 132/3/3 131/3/3
f 134/3/3 132/3/3 133/3/3
f 135/1/3 134/1/3 133/1/3
f 136/1/3 134/1/3 135/1/3
f 139/2/3 138/2/3 137/2/3
f 140/2/3 138/2/3 139/2/3
f 143/2/3 142/2/3 141/2/3
f 144/2/3 142/2/3 143/2/3
f 147/2/3 146/2/3 145/2/3
f 148/2/3 146/2/3 147/2/3
f 151/2/3 150/2/3 149/2/3
f 152/2/3 150/2/3 151/2/3
f 155/1/3 154/1/3 153/1/3
f 156/1/3 154/1/3 155/1/3
f 159/1/3 158/1/3 157/1/3
f 160/1/3 158/1/3 159/1/3
f 161/2/4 162/2/4 163/2/4
f 163/2/4 162/2/4 164/2/4
f 165/2/4 166/2/4 167/2/4
f 167/2/4 166/2/4 168/2/4
f 169/1/4 170/1/4 171/1/4
f 171/1/4 170/1/4 172/1/4
f 173/1/4 174/1/4 175/1/4
f 175/1/4 174/1/4 176/1/4
f 177/1/4 178/1/4 179/1/4
f 179/1/4 178/1/4 180/1/4
f 181/1/4 182/1/4 183/1/4
f 183/1/4 182/1/4 184/1/4
f 185/2/4 186/2/4 187/2/4
f 187/2/4 186/2/4 188/2/4
f 189/2/4 190/2/4 191/2/4
f 191/2/4 190/2/4 192/2/4
f 191/3/4 192/3/4 193/3/4
f 193/3/4 192/3/4 194/3/4
f 193/2/4 194/2/4 195/2/4
f 195/2/4 194/2/4 196/2/4
f 197/2/4 198/2/4 199/2/4
f 199/2/4 198/2/4 200/2/4
f 212/1/5 202/1/5 201/1/5
f 213/2/5 203/2/5 202/2/5
f 213/1/5 202/1/5 212/1/5
f 214/2/5 203/2/5 213/2/5
f 215/1/5 205/1/5 204/1/5
f 216/1/5 205/1/5 215/1/5
f 217/1/5 207/1/5 206/1/5
f 218/1/5 207/1/5 217/1/5
f 219/1/5 207/1/5 218/1/5
f 220/2/5 208/2/5 207/2/5
f 220/1/5 207/1/5 219/1/5
f 221/3/5 209/3/5 208/3/5
f 221/2/5 208/2/5 220/2/5
f 222/1/5 210/1/5 209/1/5
f 222/3/5 209/3/5 221/3/5
f 223/1/5 210/1/5 222/1/5
f 226/2/5 212/2/5 211/2/5
f 226/2/5 214/2/5 213/2/5
f 226/2/5 216/2/5 215/2/5
f 226/2/5 213/2/5 212/2/5
f 226/2/5 218/2/5 217/2/5
f 226/2/5 217/2/5 216/2/5
f 226/2/5 215/2/5 214/2/5
f 227/2/5 218/2/5 226/2/5
f 228/2/5 218/2/5 227/2/5
f 229/3/5 219/3/5 218/3/5
f 229/2/5 218/2/5 228/2/5
f 230/3/5 219/3/5 229/3/5
f 231/2/5 221/2/5 220/2/5
f 231/3/5 219/3/5 230/3/5
f 231/2/5 224/2/5 223/2/5
f 231/2/5 223/2/5 222/2/5
f 231/2/5 222/2/5 221/2/5
f 231/2/5 220/2/5 219/2/5
f 232/2/5 224/2/5 231/2/5
f 233/2/5 224/2/5 232/2/5
f 234/2/5 224/2/5 233/2/5
f 236/1/5 227/1/5 226/1/5
f 236/1/5 226/1/5 225/1/5
f 237/1/5 227/1/5 236/1/5
f 238/2/5 228/2/5 227/2/5
f 238/1/5 227/1/5 237/1/5
f 239/1/5 230/1/5 229/1/5
f 239/2/5 228/2/5 238/2/5
f 239/1/5 229/1/5 228/1/5
f 240/1/5 230/1/5 239/1/5
f 241/2/5 231/2/5 230/2/5
f 241/1/5 230/1/5 240/1/5
f 242/1/5 232/1/5 231/1/5
f 242/2/5 231/2/5 241/2/5
f 243/1/5 232/1/5 242/1/5
f 244/1/5 232/1/5 243/1/5
f 245/2/5 233/2/5 232/2/5
f 245/1/5 232/1/5 244/1/5
f 246/1/5 235/1/5 234/1/5
f 246/2/5 233/2/5 245/2/5
f 246/1/5 234/1/5 233/1/5
f 247/1/5 235/1/5 246/1/5
f 248/2/5 237/2/5 236/2/5
f 249/3/5 238/3/5 237/3/5
f 249/2/5 237/2/5 248/2/5
f 249/3/5 240/3/5 239/3/5
f 249/3/5 239/3/5 238/3/5
f 250/3/5 240/3/5 249/3/5
f 251/3/5 240/3/5 250/3/5
f 252/2/5 243/2/5 242/2/5
f 252/3/5 240/3/5 251/3/5
f 252/2/5 241/2/5 240/2/5
f 252/2/5 242/2/5 241/2/5
f 253/2/5 243/2/5 252/2/5
f 254/2/5 243/2/5 253/2/5
f 255/3/5 244/3/5 243/3/5
f 255/2/5 243/2/5 254/2/5
f 256/3/5 244/3/5 255/3/5
f 257/3/5 244/3/5 256/3/5
f 258/2/5 245/2/5 244/2/5
f 258/3/5 244/3/5 257/3/5
f 258/2/5 247/2/5 246/2/5
f 258/2/5 246/2/5 245/2/5
f 259/2/5 247/2/5 258/2/5
f 260/1/5 250/1/5 249/1/5
f 260/1/5 249/1/5 248/1/5
f 261/2/5 251/2/5 250/2/5
f 261/1/5 250/1/5 260/1/5
f 262/1/5 252/1/5 251/1/5
f 262/2/5 251/2/5 261/2/5
f 262/1/5 253/1/5 252/1/5
f 263/1/5 253/1/5 262/1/5
f 264/2/5 254/2/5 253/2/5
f 264/1/5 253/1/5 263/1/5
f 265/1/5 256/1/5 255/1/5
f 265/2/5 254/2/5 264/2/5
f 265/1/5 255/1/5 254/1/5
f 266/1/5 256/1/5 265/1/5
f 267/2/5 257/2/5 256/2/5
f 267/1/5 256/1/5 266/1/5
f 268/2/5 257/2/5 267/2/5
f 269/1/5 259/1/5 258/1/5
f 269/2/5 257/2/5 268/2/5
f 269/1/5 258/1/5 257/1/5
f 270/1/5 259/1/5 269/1/5
f 271/1/5 259/1/5 270/1/5
f 272/2/5 263/2/5 262/2/5
f 272/2/5 262/2/5 261/2/5
f 272/2/5 261/2/5 260/2/5
f 273/2/5 263/2/5 272/2/5
f 274/2/5 263/2/5 273/2/5
f 275/3/5 266/3/5 265/3/5
f 275/2/5 263/2/5 274/2/5
f 275/3/5 264/3/5 263/3/5
f 275/3/5 265/3/5 264/3/5
f 276/2/5 268/2/5 267/2/5
f 276/3/5 266/3/5 275/3/5
f 276/2/5 267/2/5 266/2/5
f 277/2/5 268/2/5 276/2/5
f 278/3/5 270/3/5 269/3/5
f 278/2/5 268/2/5 277/2/5
f 278/3/5 269/3/5 268/3/5
f 279/2/5 271/2/5 270/2/5
f 279/3/5 270/3/5 278/3/5
f 280/2/5 271/2/5 279/2/5
f 281/1/5 273/1/5 272/1/5
f 281/2/5 272/2/5 260/2/5
f 282/1/5 273/1/5 281/1/5
f 283/2/5 274/2/5 273/2/5
f 283/1/5 273/1/5 282/1/5
f 284/1/5 275/1/5 274/1/5
f 284/2/5 274/2/5 283/2/5
f 284/1/5 276/1/5 275/1/5
f 285/2/5 277/2/5 276/2/5
f 285/1/5 276/1/5 284/1/5
f 286/1/5 278/1/5 277/1/5
f 286/2/5 277/2/5 285/2/5
f 286/1/5 280/1/5 279/1/5
f 286/1/5 279/1/5 278/1/5
f 287/1/5 280/1/5 286/1/5
f 288/2/5 271/2/5 280/2/5
f 288/1/5 280/1/5 287/1/5
f 289/2/5 282/2/5 281/2/5
f 289/2/5 281/2/5 260/2/5
f 290/2/5 282/2/5 289/2/5
f 291/2/5 282/2/5 290/2/5
f 292/3/5 283/3/5 282/3/5
f 292/2/5 282/2/5 291/2/5
f 292/3/5 284/3/5 283/3/5
f 293/2/5 285/2/5 284/2/5
f 293/3/5 284/3/5 292/3/5
f 294/2/5 285/2/5 293/2/5
f 295/2/5 285/2/5 294/2/5
f 296/3/5 287/3/5 286/3/5
f 296/2/5 285/2/5 295/2/5
f 296/3/5 286/3/5 285/3/5
f 297/2/5 288/2/5 287/2/5
f 297/3/5 287/3/5 296/3/5
f 298/2/5 288/2/5 297/2/5
f 299/2/5 288/2/5 298/2/5
f 300/2/5 271/2/5 288/2/5
f 300/2/5 288/2/5 299/2/5
f 301/1/5 290/1/5 289/1/5
f 302/2/5 291/2/5 290/2/5
f 302/1/5 290/1/5 301/1/5
f 303/1/5 292/1/5 291/1/5
f 303/2/5 291/2/5 302/2/5
f 303/1/5 294/1/5 293/1/5
f 303/1/5 293/1/5 292/1/5
f 304/1/5 294/1/5 303/1/5
f 305/2/5 295/2/5 294/2/5
f 305/1/5 294/1/5 304/1/5
f 306/1/5 296/1/5 295/1/5
f 306/2/5 295/2/5 305/2/5
f 306/1/5 298/1/5 297/1/5
f 306/1/5 297/1/5 296/1/5
f 307/1/5 298/1/5 306/1/5
f 308/2/5 299/2/5 298/2/5
f 308/1/5 298/1/5 307/1/5
f 309/1/5 300/1/5 299/1/5
f 309/2/5 299/2/5 308/2/5
f 310/1/5 300/1/5 309/1/5
f 311/1/5 300/1/5 310/1/5
f 312/3/5 302/3/5 301/3/5
f 312/3/5 303/3/5 302/3/5
f 313/2/5 304/2/5 303/2/5
f 313/3/5 303/3/5 312/3/5
f 314/3/5 305/3/5 304/3/5
f 314/2/5 304/2/5 313/2/5
f 314/3/5 306/3/5 305/3/5
f 315/3/5 306/3/5 314/3/5
f 316/3/5 306/3/5 315/3/5
f 317/2/5 307/2/5 306/2/5
f 317/3/5 306/3/5 316/3/5
f 318/2/5 307/2/5 317/2/5
f 319/2/5 307/2/5 318/2/5
f 320/3/5 308/3/5 307/3/5
f 320/2/5 307/2/5 319/2/5
f 320/3/5 310/3/5 309/3/5
f 320/3/5 309/3/5 308/3/5
f 321/3/5 310/3/5 320/3/5
f 322/2/5 311/2/5 310/2/5
f 322/3/5 310/3/5 321/3/5
f 323/2/5 311/2/5 322/2/5
f 324/1/5 313/1/5 312/1/5
f 324/1/5 314/1/5 313/1/5
f 324/1/5 315/1/5 314/1/5
f 325/2/5 316/2/5 315/2/5
f 325/1/5 315/1/5 324/1/5
f 326/1/5 318/1/5 317/1/5
f 326/2/5 316/2/5 325/2/5
f 326/1/5 317/1/5 316/1/5
f 327/1/5 318/1/5 326/1/5
f 328/2/5 319/2/5 318/2/5
f 328/1/5 318/1/5 327/1/5
f 329/1/5 321/1/5 320/1/5
f 329/2/5 319/2/5 328/2/5
f 329/1/5 320/1/5 319/1/5
f 330/1/5 321/1/5 329/1/5
f 331/2/5 322/2/5 321/2/5
f 331/1/5 321/1/5 330/1/5
f 332/1/5 323/1/5 322/1/5
f 332/2/5 322/2/5 331/2/5
f 333/1/5 323/1/5 332/1/5
f 334/2/5 327/2/5 326/2/5
f 334/2/5 325/2/5 324/2/5
f 334/2/5 326/2/5 325/2/5
f 335/2/5 327/2/5 334/2/5
f 336/2/5 327/2/5 335/2/5
f 337/2/5 327/2/5 336/2/5
f 338/2/5 327/2/5 337/2/5
f 339/3/5 328/3/5 327/3/5
f 339/2/5 327/2/5 338/2/5
f 339/3/5 330/3/5 329/3/5
f 339/3/5 329/3/5 328/3/5
f 340/3/5 330/3/5 339/3/5
f 341/3/5 330/3/5 340/3/5
f 342/2/5 333/2/5 332/2/5
f 342/3/5 330/3/5 341/3/5
f 342/2/5 332/2/5 331/2/5
f 342/2/5 331/2/5 330/2/5
f 343/2/5 333/2/5 342/2/5
f 344/1/5 335/1/5 334/1/5
f 345/2/5 336/2/5 335/2/5
f 345/1/5 335/1/5 344/1/5
f 346/1/5 337/1/5 336/1/5
f 346/2/5 336/2/5 345/2/5
f 347/1/5 337/1/5 346/1/5
f 348/1/5 337/1/5 347/1/5
f 349/2/5 338/2/5 337/2/5
f 349/1/5 337/1/5 348/1/5
f 350/1/5 340/1/5 339/1/5
f 350/2/5 338/2/5 349/2/5
f 350/1/5 339/1/5 338/1/5
f 351/1/5 340/1/5 350/1/5
f 352/2/5 341/2/5 340/2/5
f 352/1/5 340/1/5 351/1/5
f 353/1/5 342/1/5 341/1/5
f 353/2/5 341/2/5 352/2/5
f 353/1/5 343/1/5 342/1/5
f 354/1/5 343/1/5 353/1/5
f 355/2/5 333/2/5 343/2/5
f 355/1/5 343/1/5 354/1/5
f 356/3/5 347/3/5 346/3/5
f 356/3/5 345/3/5 344/3/5
f 356/3/5 346/3/5 345/3/5
f 357/2/5 348/2/5 347/2/5
f 357/3/5 347/3/5 356/3/5
f 358/2/5 348/2/5 357/2/5
f 359/3/5 349/3/5 348/3/5
f 359/2/5 348/2/5 358/2/5
f 359/3/5 350/3/5 349/3/5
f 360/2/5 351/2/5 350/2/5
f 360/3/5 350/3/5 359/3/5
f 361/3/5 354/3/5 353/3/5
f 361/2/5 351/2/5 360/2/5
f 361/3/5 352/3/5 351/3/5
f 361/3/5 353/3/5 352/3/5
f 362/3/5 354/3/5 361/3/5
f 363/3/5 354/3/5 362/3/5
f 364/2/5 355/2/5 354/2/5
f 364/3/5 354/3/5 363/3/5
f 365/2/5 355/2/5 364/2/5
f 366/2/5 355/2/5 365/2/5
f 367/2/5 333/2/5 355/2/5
f 367/2/5 355/2/5 366/2/5
f 368/1/5 358/1/5 357/1/5
f 368/1/5 357/1/5 356/1/5
f 369/1/5 358/1/5 368/1/5
f 370/1/5 358/1/5 369/1/5
f 371/2/5 359/2/5 358/2/5
f 371/1/5 358/1/5 370/1/5
f 372/1/5 360/1/5 359/1/5
f 372/2/5 359/2/5 371/2/5
f 372/1/5 361/1/5 360/1/5
f 372/1/5 362/1/5 361/1/5
f 373/2/5 363/2/5 362/2/5
f 373/1/5 362/1/5 372/1/5
f 374/1/5 364/1/5 363/1/5
f 374/2/5 363/2/5 373/2/5
f 374/1/5 365/1/5 364/1/5
f 375/1/5 365/1/5 374/1/5
f 376/2/5 366/2/5 365/2/5
f 376/1/5 365/1/5 375/1/5
f 377/1/5 367/1/5 366/1/5
f 377/2/5 366/2/5 376/2/5
f 378/1/5 367/1/5 377/1/5
f 379/1/5 367/1/5 378/1/5
f 380/2/5 369/2/5 368/2/5
f 381/3/5 370/3/5 369/3/5
f 381/2/5 369/2/5 380/2/5
f 382/3/5 370/3/5 381/3/5
f 383/2/5 375/2/5 374/2/5
f 383/3/5 370/3/5 382/3/5
f 383/2/5 372/2/5 371/2/5
f 383/2/5 371/2/5 370/2/5
f 383/2/5 373/2/5 372/2/5
f 383/2/5 374/2/5 373/2/5
f 384/2/5 375/2/5 383/2/5
f 385/2/5 375/2/5 384/2/5
f 386/2/5 375/2/5 385/2/5
f 387/2/5 375/2/5 386/2/5
f 388/3/5 376/3/5 375/3/5
f 388/2/5 375/2/5 387/2/5
f 388/3/5 378/3/5 377/3/5
f 388/3/5 377/3/5 376/3/5
f 389/2/5 379/2/5 378/2/5
f 389/3/5 378/3/5 388/3/5
f 390/2/5 379/2/5 389/2/5
f 391/1/5 382/1/5 381/1/5
f 391/1/5 381/1/5 380/1/5
f 392/2/5 383/2/5 382/2/5
f 392/1/5 382/1/5 391/1/5
f 393/1/5 384/1/5 383/1/5
f 393/2/5 383/2/5 392/2/5
f 394/1/5 384/1/5 393/1/5
f 395/2/5 385/2/5 384/2/5
f 395/1/5 384/1/5 394/1/5
f 396/1/5 386/1/5 385/1/5
f 396/2/5 385/2/5 395/2/5
f 397/2/5 387/2/5 386/2/5
f 397/1/5 386/1/5 396/1/5
f 398/1/5 390/1/5 389/1/5
f 398/2/5 387/2/5 397/2/5
f 398/1/5 388/1/5 387/1/5
f 398/1/5 389/1/5 388/1/5
f 399/2/5 379/2/5 390/2/5
f 399/1/5 390/1/5 398/1/5
f 400/2/5 393/2/5 392/2/5
f 400/2/5 394/2/5 393/2/5
f 400/2/5 392/2/5 391/2/5
f 401/2/5 394/2/5 400/2/5
f 402/3/5 395/3/5 394/3/5
f 402/2/5 394/2/5 401/2/5
f 403/3/5 395/3/5 402/3/5
f 404/3/5 395/3/5 403/3/5
f 405/2/5 396/2/5 395/2/5
f 405/3/5 395/3/5 404/3/5
f 406/3/5 397/3/5 396/3/5
f 406/2/5 396/2/5 405/2/5
f 407/3/5 397/3/5 406/3/5
f 408/3/5 397/3/5 407/3/5
f 409/2/5 398/2/5 397/2/5
f 409/3/5 397/3/5 408/3/5
f 409/2/5 399/2/5 398/2/5
f 410/2/5 399/2/5 409/2/5
f 411/2/5 399/2/5 410/2/5
f 412/2/5 379/2/5 399/2/5
f 412/2/5 399/2/5 411/2/5
f 413/2/5 379/2/5 412/2/5
f 414/1/5 402/1/5 401/1/5
f 414/1/5 403/1/5 402/1/5
f 415/1/5 403/1/5 414/1/5
f 416/1/5 403/1/5 415/1/5
f 417/2/5 404/2/5 403/2/5
f 417/1/5 403/1/5 416/1/5
f 418/1/5 405/1/5 404/1/5
f 418/2/5 404/2/5 417/2/5
f 418/1/5 407/1/5 406/1/5
f 418/1/5 406/1/5 405/1/5
f 419/1/5 407/1/5 418/1/5
f 420/1/5 407/1/5 419/1/5
f 421/1/5 407/1/5 420/1/5
f 422/1/5 407/1/5 421/1/5
f 423/2/5 408/2/5 407/2/5
f 423/1/5 407/1/5 422/1/5
f 424/1/5 410/1/5 409/1/5
f 424/2/5 408/2/5 423/2/5
f 424/1/5 409/1/5 408/1/5
f 425/2/5 411/2/5 410/2/5
f 425/1/5 410/1/5 424/1/5
f 426/1/5 412/1/5 411/1/5
f 426/2/5 411/2/5 425/2/5
f 427/1/5 412/1/5 426/1/5
f 428/1/5 412/1/5 427/1/5
f 429/2/5 416/2/5 415/2/5
f 430/2/5 416/2/5 429/2/5
f 431/2/5 418/2/5 417/2/5
f 431/2/5 419/2/5 418/2/5
f 432/3/5 420/3/5 419/3/5
f 432/2/5 419/2/5 431/2/5
f 433/2/5 421/2/5 420/2/5
f 433/3/5 420/3/5 432/3/5
f 434/2/5 421/2/5 433/2/5
f 435/2/5 427/2/5 426/2/5
f 435/2/5 424/2/5 423/2/5
f 435/2/5 426/2/5 425/2/5
f 435/2/5 425/2/5 424/2/5
f 435/2/5 423/2/5 422/2/5
f 436/2/5 427/2/5 435/2/5
f 437/1/6 438/1/6 448/1/6
f 438/2/6 439/2/6 449/2/6
f 448/1/6 438/1/6 449/1/6
f 449/2/6 439/2/6 450/2/6
f 440/1/6 441/1/6 451/1/6
f 451/1/6 441/1/6 452/1/6
f 442/1/6 443/1/6 453/1/6
f 453/1/6 443/1/6 454/1/6
f 454/1/6 443/1/6 455/1/6
f 443/2/6 444/2/6 456/2/6
f 455/1/6 443/1/6 456/1/6
f 444/3/6 445/3/6 457/3/6
f 456/2/6 444/2/6 457/2/6
f 445/1/6 446/1/6 458/1/6
f 457/3/6 445/3/6 458/3/6
f 458/1/6 446/1/6 459/1/6
f 447/2/6 448/2/6 462/2/6
f 449/2/6 450/2/6 462/2/6
f 451/2/6 452/2/6 462/2/6
f 448/2/6 449/2/6 462/2/6
f 453/2/6 454/2/6 462/2/6
f 452/2/6 453/2/6 462/2/6
f 450/2/6 451/2/6 462/2/6
f 462/2/6 454/2/6 463/2/6
f 463/2/6 454/2/6 464/2/6
f 454/3/6 455/3/6 465/3/6
f 464/2/6 454/2/6 465/2/6
f 465/3/6 455/3/6 466/3/6
f 456/2/6 457/2/6 467/2/6
f 466/3/6 455/3/6 467/3/6
f 459/2/6 460/2/6 467/2/6
f 458/2/6 459/2/6 467/2/6
f 457/2/6 458/2/6 467/2/6
f 455/2/6 456/2/6 467/2/6
f 467/2/6 460/2/6 468/2/6
f 468/2/6 460/2/6 469/2/6
f 469/2/6 460/2/6 470/2/6
f 462/1/6 463/1/6 472/1/6
f 461/1/6 462/1/6 472/1/6
f 472/1/6 463/1/6 473/1/6
f 463/2/6 464/2/6 474/2/6
f 473/1/6 463/1/6 474/1/6
f 465/1/6 466/1/6 475/1/6
f 474/2/6 464/2/6 475/2/6
f 464/1/6 465/1/6 475/1/6
f 475/1/6 466/1/6 476/1/6
f 466/2/6 467/2/6 477/2/6
f 476/1/6 466/1/6 477/1/6
f 467/1/6 468/1/6 478/1/6
f 477/2/6 467/2/6 478/2/6
f 478/1/6 468/1/6 479/1/6
f 479/1/6 468/1/6 480/1/6
f 468/2/6 469/2/6 481/2/6
f 480/1/6 468/1/6 481/1/6
f 470/1/6 471/1/6 482/1/6
f 481/2/6 469/2/6 482/2/6
f 469/1/6 470/1/6 482/1/6
f 482/1/6 471/1/6 483/1/6
f 472/2/6 473/2/6 484/2/6
f 473/3/6 474/3/6 485/3/6
f 484/2/6 473/2/6 485/2/6
f 475/3/6 476/3/6 485/3/6
f 474/3/6 475/3/6 485/3/6
f 485/3/6 476/3/6 486/3/6
f 486/3/6 476/3/6 487/3/6
f 478/2/6 479/2/6 488/2/6
f 487/3/6 476/3/6 488/3/6
f 476/2/6 477/2/6 488/2/6
f 477/2/6 478/2/6 488/2/6
f 488/2/6 479/2/6 489/2/6
f 489/2/6 479/2/6 490/2/6
f 479/3/6 480/3/6 491/3/6
f 490/2/6 479/2/6 491/2/6
f 491/3/6 480/3/6 492/3/6
f 492/3/6 480/3/6 493/3/6
f 480/2/6 481/2/6 494/2/6
f 493/3/6 480/3/6 494/3/6
f 482/2/6 483/2/6 494/2/6
f 481/2/6 482/2/6 494/2/6
f 494/2/6 483/2/6 495/2/6
f 485/1/6 486/1/6 496/1/6
f 484/1/6 485/1/6 496/1/6
f 486/2/6 487/2/6 497/2/6
f 496/1/6 486/1/6 497/1/6
f 487/1/6 488/1/6 498/1/6
f 497/2/6 487/2/6 498/2/6
f 488/1/6 489/1/6 498/1/6
f 498/1/6 489/1/6 499/1/6
f 489/2/6 490/2/6 500/2/6
f 499/1/6 489/1/6 500/1/6
f 491/1/6 492/1/6 501/1/6
f 500/2/6 490/2/6 501/2/6
f 490/1/6 491/1/6 501/1/6
f 501/1/6 492/1/6 502/1/6
f 492/2/6 493/2/6 503/2/6
f 502/1/6 492/1/6 503/1/6
f 503/2/6 493/2/6 504/2/6
f 494/1/6 495/1/6 505/1/6
f 504/2/6 493/2/6 505/2/6
f 493/1/6 494/1/6 505/1/6
f 505/1/6 495/1/6 506/1/6
f 506/1/6 495/1/6 507/1/6
f 498/2/6 499/2/6 508/2/6
f 497/2/6 498/2/6 508/2/6
f 496/2/6 497/2/6 508/2/6
f 508/2/6 499/2/6 509/2/6
f 509/2/6 499/2/6 510/2/6
f 501/3/6 502/3/6 511/3/6
f 510/2/6 499/2/6 511/2/6
f 499/3/6 500/3/6 511/3/6
f 500/3/6 501/3/6 511/3/6
f 503/2/6 504/2/6 512/2/6
f 511/3/6 502/3/6 512/3/6
f 502/2/6 503/2/6 512/2/6
f 512/2/6 504/2/6 513/2/6
f 505/3/6 506/3/6 514/3/6
f 513/2/6 504/2/6 514/2/6
f 504/3/6 505/3/6 514/3/6
f 506/2/6 507/2/6 515/2/6
f 514/3/6 506/3/6 515/3/6
f 515/2/6 507/2/6 516/2/6
f 508/1/6 509/1/6 517/1/6
f 496/2/6 508/2/6 517/2/6
f 517/1/6 509/1/6 518/1/6
f 509/2/6 510/2/6 519/2/6
f 518/1/6 509/1/6 519/1/6
f 510/1/6 511/1/6 520/1/6
f 519/2/6 510/2/6 520/2/6
f 511/1/6 512/1/6 520/1/6
f 512/2/6 513/2/6 521/2/6
f 520/1/6 512/1/6 521/1/6
f 513/1/6 514/1/6 522/1/6
f 521/2/6 513/2/6 522/2/6
f 515/1/6 516/1/6 522/1/6
f 514/1/6 515/1/6 522/1/6
f 522/1/6 516/1/6 523/1/6
f 516/2/6 507/2/6 524/2/6
f 523/1/6 516/1/6 524/1/6
f 517/2/6 518/2/6 525/2/6
f 496/2/6 517/2/6 525/2/6
f 525/2/6 518/2/6 526/2/6
f 526/2/6 518/2/6 527/2/6
f 518/3/6 519/3/6 528/3/6
f 527/2/6 518/2/6 528/2/6
f 519/3/6 520/3/6 528/3/6
f 520/2/6 521/2/6 529/2/6
f 528/3/6 520/3/6 529/3/6
f 529/2/6 521/2/6 530/2/6
f 530/2/6 521/2/6 531/2/6
f 522/3/6 523/3/6 532/3/6
f 531/2/6 521/2/6 532/2/6
f 521/3/6 522/3/6 532/3/6
f 523/2/6 524/2/6 533/2/6
f 532/3/6 523/3/6 533/3/6
f 533/2/6 524/2/6 534/2/6
f 534/2/6 524/2/6 535/2/6
f 524/2/6 507/2/6 536/2/6
f 535/2/6 524/2/6 536/2/6
f 525/1/6 526/1/6 537/1/6
f 526/2/6 527/2/6 538/2/6
f 537/1/6 526/1/6 538/1/6
f 527/1/6 528/1/6 539/1/6
f 538/2/6 527/2/6 539/2/6
f 529/1/6 530/1/6 539/1/6
f 528/1/6 529/1/6 539/1/6
f 539/1/6 530/1/6 540/1/6
f 530/2/6 531/2/6 541/2/6
f 540/1/6 530/1/6 541/1/6
f 531/1/6 532/1/6 542/1/6
f 541/2/6 531/2/6 542/2/6
f 533/1/6 534/1/6 542/1/6
f 532/1/6 533/1/6 542/1/6
f 542/1/6 534/1/6 543/1/6
f 534/2/6 535/2/6 544/2/6
f 543/1/6 534/1/6 544/1/6
f 535/1/6 536/1/6 545/1/6
f 544/2/6 535/2/6 545/2/6
f 545/1/6 536/1/6 546/1/6
f 546/1/6 536/1/6 547/1/6
f 537/3/6 538/3/6 548/3/6
f 538/3/6 539/3/6 548/3/6
f 539/2/6 540/2/6 549/2/6
f 548/3/6 539/3/6 549/3/6
f 540/3/6 541/3/6 550/3/6
f 549/2/6 540/2/6 550/2/6
f 541/3/6 542/3/6 550/3/6
f 550/3/6 542/3/6 551/3/6
f 551/3/6 542/3/6 552/3/6
f 542/2/6 543/2/6 553/2/6
f 552/3/6 542/3/6 553/3/6
f 553/2/6 543/2/6 554/2/6
f 554/2/6 543/2/6 555/2/6
f 543/3/6 544/3/6 556/3/6
f 555/2/6 543/2/6 556/2/6
f 545/3/6 546/3/6 556/3/6
f 544/3/6 545/3/6 556/3/6
f 556/3/6 546/3/6 557/3/6
f 546/2/6 547/2/6 558/2/6
f 557/3/6 546/3/6 558/3/6
f 558/2/6 547/2/6 559/2/6
f 548/1/6 549/1/6 560/1/6
f 549/1/6 550/1/6 560/1/6
f 550/1/6 551/1/6 560/1/6
f 551/2/6 552/2/6 561/2/6
f 560/1/6 551/1/6 561/1/6
f 553/1/6 554/1/6 562/1/6
f 561/2/6 552/2/6 562/2/6
f 552/1/6 553/1/6 562/1/6
f 562/1/6 554/1/6 563/1/6
f 554/2/6 555/2/6 564/2/6
f 563/1/6 554/1/6 564/1/6
f 556/1/6 557/1/6 565/1/6
f 564/2/6 555/2/6 565/2/6
f 555/1/6 556/1/6 565/1/6
f 565/1/6 557/1/6 566/1/6
f 557/2/6 558/2/6 567/2/6
f 566/1/6 557/1/6 567/1/6
f 558/1/6 559/1/6 568/1/6
f 567/2/6 558/2/6 568/2/6
f 568/1/6 559/1/6 569/1/6
f 562/2/6 563/2/6 570/2/6
f 560/2/6 561/2/6 570/2/6
f 561/2/6 562/2/6 570/2/6
f 570/2/6 563/2/6 571/2/6
f 571/2/6 563/2/6 572/2/6
f 572/2/6 563/2/6 573/2/6
f 573/2/6 563/2/6 574/2/6
f 563/3/6 564/3/6 575/3/6
f 574/2/6 563/2/6 575/2/6
f 565/3/6 566/3/6 575/3/6
f 564/3/6 565/3/6 575/3/6
f 575/3/6 566/3/6 576/3/6
f 576/3/6 566/3/6 577/3/6
f 568/2/6 569/2/6 578/2/6
f 577/3/6 566/3/6 578/3/6
f 567/2/6 568/2/6 578/2/6
f 566/2/6 567/2/6 578/2/6
f 578/2/6 569/2/6 579/2/6
f 570/1/6 571/1/6 580/1/6
f 571/2/6 572/2/6 581/2/6
f 580/1/6 571/1/6 581/1/6
f 572/1/6 573/1/6 582/1/6
f 581/2/6 572/2/6 582/2/6
f 582/1/6 573/1/6 583/1/6
f 583/1/6 573/1/6 584/1/6
f 573/2/6 574/2/6 585/2/6
f 584/1/6 573/1/6 585/1/6
f 575/1/6 576/1/6 586/1/6
f 585/2/6 574/2/6 586/2/6
f 574/1/6 575/1/6 586/1/6
f 586/1/6 576/1/6 587/1/6
f 576/2/6 577/2/6 588/2/6
f 587/1/6 576/1/6 588/1/6
f 577/1/6 578/1/6 589/1/6
f 588/2/6 577/2/6 589/2/6
f 578/1/6 579/1/6 589/1/6
f 589/1/6 579/1/6 590/1/6
f 579/2/6 569/2/6 591/2/6
f 590/1/6 579/1/6 591/1/6
f 582/3/6 583/3/6 592/3/6
f 580/3/6 581/3/6 592/3/6
f 581/3/6 582/3/6 592/3/6
f 583/2/6 584/2/6 593/2/6
f 592/3/6 583/3/6 593/3/6
f 593/2/6 584/2/6 594/2/6
f 584/3/6 585/3/6 595/3/6
f 594/2/6 584/2/6 595/2/6
f 585/3/6 586/3/6 595/3/6
f 586/2/6 587/2/6 596/2/6
f 595/3/6 586/3/6 596/3/6
f 589/3/6 590/3/6 597/3/6
f 596/2/6 587/2/6 597/2/6
f 587/3/6 588/3/6 597/3/6
f 588/3/6 589/3/6 597/3/6
f 597/3/6 590/3/6 598/3/6
f 598/3/6 590/3/6 599/3/6
f 590/2/6 591/2/6 600/2/6
f 599/3/6 590/3/6 600/3/6
f 600/2/6 591/2/6 601/2/6
f 601/2/6 591/2/6 602/2/6
f 591/2/6 569/2/6 603/2/6
f 602/2/6 591/2/6 603/2/6
f 593/1/6 594/1/6 604/1/6
f 592/1/6 593/1/6 604/1/6
f 604/1/6 594/1/6 605/1/6
f 605/1/6 594/1/6 606/1/6
f 594/2/6 595/2/6 607/2/6
f 606/1/6 594/1/6 607/1/6
f 595/1/6 596/1/6 608/1/6
f 607/2/6 595/2/6 608/2/6
f 596/1/6 597/1/6 608/1/6
f 597/1/6 598/1/6 608/1/6
f 598/2/6 599/2/6 609/2/6
f 608/1/6 598/1/6 609/1/6
f 599/1/6 600/1/6 610/1/6
f 609/2/6 599/2/6 610/2/6
f 600/1/6 601/1/6 610/1/6
f 610/1/6 601/1/6 611/1/6
f 601/2/6 602/2/6 612/2/6
f 611/1/6 601/1/6 612/1/6
f 602/1/6 603/1/6 613/1/6
f 612/2/6 602/2/6 613/2/6
f 613/1/6 603/1/6 614/1/6
f 614/1/6 603/1/6 615/1/6
f 604/2/6 605/2/6 616/2/6
f 605/3/6 606/3/6 617/3/6
f 616/2/6 605/2/6 617/2/6
f 617/3/6 606/3/6 618/3/6
f 610/2/6 611/2/6 619/2/6
f 618/3/6 606/3/6 619/3/6
f 607/2/6 608/2/6 619/2/6
f 606/2/6 607/2/6 619/2/6
f 608/2/6 609/2/6 619/2/6
f 609/2/6 610/2/6 619/2/6
f 619/2/6 611/2/6 620/2/6
f 620/2/6 611/2/6 621/2/6
f 621/2/6 611/2/6 622/2/6
f 622/2/6 611/2/6 623/2/6
f 611/3/6 612/3/6 624/3/6
f 623/2/6 611/2/6 624/2/6
f 613/3/6 614/3/6 624/3/6
f 612/3/6 613/3/6 624/3/6
f 614/2/6 615/2/6 625/2/6
f 624/3/6 614/3/6 625/3/6
f 625/2/6 615/2/6 626/2/6
f 617/1/6 618/1/6 627/1/6
f 616/1/6 617/1/6 627/1/6
f 618/2/6 619/2/6 628/2/6
f 627/1/6 618/1/6 628/1/6
f 619/1/6 620/1/6 629/1/6
f 628/2/6 619/2/6 629/2/6
f 629/1/6 620/1/6 630/1/6
f 620/2/6 621/2/6 631/2/6
f 630/1/6 620/1/6 631/1/6
f 621/1/6 622/1/6 632/1/6
f 631/2/6 621/2/6 632/2/6
f 622/2/6 623/2/6 633/2/6
f 632/1/6 622/1/6 633/1/6
f 625/1/6 626/1/6 634/1/6
f 633/2/6 623/2/6 634/2/6
f 623/1/6 624/1/6 634/1/6
f 624/1/6 625/1/6 634/1/6
f 626/2/6 615/2/6 635/2/6
f 634/1/6 626/1/6 635/1/6
f 628/2/6 629/2/6 636/2/6
f 629/2/6 630/2/6 636/2/6
f 627/2/6 628/2/6 636/2/6
f 636/2/6 630/2/6 637/2/6
f 630/3/6 631/3/6 638/3/6
f 637/2/6 630/2/6 638/2/6
f 638/3/6 631/3/6 639/3/6
f 639/3/6 631/3/6 640/3/6
f 631/2/6 632/2/6 641/2/6
f 640/3/6 631/3/6 641/3/6
f 632/3/6 633/3/6 642/3/6
f 641/2/6 632/2/6 642/2/6
f 642/3/6 633/3/6 643/3/6
f 643/3/6 633/3/6 644/3/6
f 633/2/6 634/2/6 645/2/6
f 644/3/6 633/3/6 645/3/6
f 634/2/6 635/2/6 645/2/6
f 645/2/6 635/2/6 646/2/6
f 646/2/6 635/2/6 647/2/6
f 635/2/6 615/2/6 648/2/6
f 647/2/6 635/2/6 648/2/6
f 648/2/6 615/2/6 649/2/6
f 637/1/6 638/1/6 650/1/6
f 638/1/6 639/1/6 650/1/6
f 650/1/6 639/1/6 651/1/6
f 651/1/6 639/1/6 652/1/6
f 639/2/6 640/2/6 653/2/6
f 652/1/6 639/1/6 653/1/6
f 640/1/6 641/1/6 654/1/6
f 653/2/6 640/2/6 654/2/6
f 642/1/6 643/1/6 654/1/6
f 641/1/6 642/1/6 654/1/6
f 654/1/6 643/1/6 655/1/6
f 655/1/6 643/1/6 656/1/6
f 656/1/6 643/1/6 657/1/6
f 657/1/6 643/1/6 658/1/6
f 643/2/6 644/2/6 659/2/6
f 658/1/6 643/1/6 659/1/6
f 645/1/6 646/1/6 660/1/6
f 659/2/6 644/2/6 660/2/6
f 644/1/6 645/1/6 660/1/6
f 646/2/6 647/2/6 661/2/6
f 660/1/6 646/1/6 661/1/6
f 647/1/6 648/1/6 662/1/6
f 661/2/6 647/2/6 662/2/6
f 662/1/6 648/1/6 663/1/6
f 663/1/6 648/1/6 664/1/6
f 651/2/6 652/2/6 665/2/6
f 665/2/6 652/2/6 666/2/6
f 653/2/6 654/2/6 667/2/6
f 654/2/6 655/2/6 667/2/6
f 655/3/6 656/3/6 668/3/6
f 667/2/6 655/2/6 668/2/6
f 656/2/6 657/2/6 669/2/6
f 668/3/6 656/3/6 669/3/6
f 669/2/6 657/2/6 670/2/6
f 662/2/6 663/2/6 671/2/6
f 659/2/6 660/2/6 671/2/6
f 661/2/6 662/2/6 671/2/6
f 660/2/6 661/2/6 671/2/6
f 658/2/6 659/2/6 671/2/6
f 671/2/6 663/2/6 672/2/6
