# MagicaVoxel @ Ephtracy

# group
o 

# material
mtllib SmithingHouseArcForSmithingWindow.mtl
usemtl palette

# normals
vn -1 0 0
vn 1 0 0
vn 0 0 1
vn 0 0 -1
vn 0 -1 0
vn 0 1 0

# texcoords
vt 0.947266 0.5
vt 0.974609 0.5

# verts
v 0 2.2 0
v 0 2.2 -0.1
v 0 2.2 -0.2
v 0 2.2 -1
v 0 2.2 -1.1
v 0 2.2 -1.2
v 0 2.3 -0.2
v 0 2.3 -0.3
v 0 2.3 -0.4
v 0 2.3 -0.8
v 0 2.3 -0.9
v 0 2.3 -1
v 0 2.3 -1.1
v 0 2.3 -1.2
v 0 2.4 0
v 0 2.4 -0.1
v 0 2.4 -0.3
v 0 2.4 -0.4
v 0 2.4 -0.8
v 0 2.4 -0.9
v 0 2.4 -1.2
v 0.2 2.2 0
v 0.2 2.2 -0.1
v 0.2 2.2 -0.2
v 0.2 2.2 -1
v 0.2 2.2 -1.1
v 0.2 2.2 -1.2
v 0.2 2.3 -0.2
v 0.2 2.3 -0.3
v 0.2 2.3 -0.4
v 0.2 2.3 -0.8
v 0.2 2.3 -0.9
v 0.2 2.3 -1
v 0.2 2.3 -1.1
v 0.2 2.3 -1.2
v 0.2 2.4 0
v 0.2 2.4 -0.1
v 0.2 2.4 -0.3
v 0.2 2.4 -0.4
v 0.2 2.4 -0.8
v 0.2 2.4 -0.9
v 0.2 2.4 -1.1
v 0.2 2.4 -1.2
v 0 2.2 0
v 0 2.4 0
v 0.2 2.2 0
v 0.2 2.4 0
v 0 2.3 -0.8
v 0 2.4 -0.8
v 0.1 2.3 -0.8
v 0.1 2.4 -0.8
v 0.2 2.3 -0.8
v 0.2 2.4 -0.8
v 0 2.2 -1
v 0 2.3 -1
v 0.1 2.3 -1
v 0.2 2.2 -1
v 0.2 2.3 -1
v 0 2.2 -0.2
v 0 2.3 -0.2
v 0.2 2.2 -0.2
v 0.2 2.3 -0.2
v 0 2.3 -0.4
v 0 2.4 -0.4
v 0.2 2.3 -0.4
v 0.2 2.4 -0.4
v 0 2.2 -1.2
v 0 2.3 -1.2
v 0 2.4 -1.2
v 0.2 2.2 -1.2
v 0.2 2.3 -1.2
v 0.2 2.4 -1.2
v 0 2.2 0
v 0.2 2.2 0
v 0 2.2 -0.1
v 0.2 2.2 -0.1
v 0 2.2 -0.2
v 0.2 2.2 -0.2
v 0 2.2 -1
v 0.2 2.2 -1
v 0 2.2 -1.1
v 0.2 2.2 -1.1
v 0 2.2 -1.2
v 0.2 2.2 -1.2
v 0 2.3 -0.2
v 0.2 2.3 -0.2
v 0 2.3 -0.3
v 0.2 2.3 -0.3
v 0 2.3 -0.4
v 0.2 2.3 -0.4
v 0 2.3 -0.8
v 0.1 2.3 -0.8
v 0.2 2.3 -0.8
v 0 2.3 -0.9
v 0.1 2.3 -0.9
v 0.2 2.3 -0.9
v 0 2.3 -1
v 0.1 2.3 -1
v 0.2 2.3 -1
v 0 2.4 0
v 0.2 2.4 0
v 0 2.4 -0.1
v 0.2 2.4 -0.1
v 0 2.4 -0.3
v 0.2 2.4 -0.3
v 0 2.4 -0.4
v 0.2 2.4 -0.4
v 0 2.4 -0.8
v 0.1 2.4 -0.8
v 0.2 2.4 -0.8
v 0 2.4 -0.9
v 0.1 2.4 -0.9
v 0.2 2.4 -0.9
v 0.1 2.4 -1.1
v 0.2 2.4 -1.1
v 0 2.4 -1.2
v 0.2 2.4 -1.2

# faces
f 7/1/1 3/1/1 2/1/1
f 12/1/1 5/1/1 4/1/1
f 13/2/1 6/2/1 5/2/1
f 13/1/1 5/1/1 12/1/1
f 14/2/1 6/2/1 13/2/1
f 15/2/1 2/2/1 1/2/1
f 16/1/1 7/1/1 2/1/1
f 16/2/1 2/2/1 15/2/1
f 16/1/1 8/1/1 7/1/1
f 17/2/1 9/2/1 8/2/1
f 17/1/1 8/1/1 16/1/1
f 18/2/1 9/2/1 17/2/1
f 19/2/1 11/2/1 10/2/1
f 20/1/1 12/1/1 11/1/1
f 20/2/1 11/2/1 19/2/1
f 20/1/1 14/1/1 13/1/1
f 20/1/1 13/1/1 12/1/1
f 21/1/1 14/1/1 20/1/1
f 23/1/2 24/1/2 28/1/2
f 25/1/2 26/1/2 33/1/2
f 26/2/2 27/2/2 34/2/2
f 33/1/2 26/1/2 34/1/2
f 34/2/2 27/2/2 35/2/2
f 22/2/2 23/2/2 36/2/2
f 23/1/2 28/1/2 37/1/2
f 36/2/2 23/2/2 37/2/2
f 28/1/2 29/1/2 37/1/2
f 29/2/2 30/2/2 38/2/2
f 37/1/2 29/1/2 38/1/2
f 38/2/2 30/2/2 39/2/2
f 31/1/2 32/1/2 40/1/2
f 32/2/2 33/2/2 41/2/2
f 40/1/2 32/1/2 41/1/2
f 33/2/2 34/2/2 41/2/2
f 34/1/2 35/1/2 42/1/2
f 41/2/2 34/2/2 42/2/2
f 42/1/2 35/1/2 43/1/2
f 46/2/3 45/2/3 44/2/3
f 47/2/3 45/2/3 46/2/3
f 50/2/3 49/2/3 48/2/3
f 51/2/3 49/2/3 50/2/3
f 52/1/3 51/1/3 50/1/3
f 53/1/3 51/1/3 52/1/3
f 56/1/3 55/1/3 54/1/3
f 57/1/3 56/1/3 54/1/3
f 58/1/3 56/1/3 57/1/3
f 59/1/4 60/1/4 61/1/4
f 61/1/4 60/1/4 62/1/4
f 63/2/4 64/2/4 65/2/4
f 65/2/4 64/2/4 66/2/4
f 67/2/4 68/2/4 70/2/4
f 68/1/4 69/1/4 71/1/4
f 70/2/4 68/2/4 71/2/4
f 71/1/4 69/1/4 72/1/4
f 75/2/5 74/2/5 73/2/5
f 76/2/5 74/2/5 75/2/5
f 77/1/5 76/1/5 75/1/5
f 78/1/5 76/1/5 77/1/5
f 81/1/5 80/1/5 79/1/5
f 82/1/5 80/1/5 81/1/5
f 83/2/5 82/2/5 81/2/5
f 84/2/5 82/2/5 83/2/5
f 87/1/5 86/1/5 85/1/5
f 88/1/5 86/1/5 87/1/5
f 89/2/5 88/2/5 87/2/5
f 90/2/5 88/2/5 89/2/5
f 94/2/5 92/2/5 91/2/5
f 95/1/5 93/1/5 92/1/5
f 95/2/5 92/2/5 94/2/5
f 96/1/5 93/1/5 95/1/5
f 97/1/5 95/1/5 94/1/5
f 98/2/5 96/2/5 95/2/5
f 98/1/5 95/1/5 97/1/5
f 99/2/5 96/2/5 98/2/5
f 100/2/6 101/2/6 102/2/6
f 102/2/6 101/2/6 103/2/6
f 102/1/6 103/1/6 104/1/6
f 104/1/6 103/1/6 105/1/6
f 104/2/6 105/2/6 106/2/6
f 106/2/6 105/2/6 107/2/6
f 108/2/6 109/2/6 111/2/6
f 109/1/6 110/1/6 112/1/6
f 111/2/6 109/2/6 112/2/6
f 112/1/6 110/1/6 113/1/6
f 111/1/6 112/1/6 114/1/6
f 112/2/6 113/2/6 114/2/6
f 114/2/6 113/2/6 115/2/6
f 111/1/6 114/1/6 116/1/6
f 114/1/6 115/1/6 116/1/6
f 116/1/6 115/1/6 117/1/6
