# MagicaVoxel @ Ephtracy

# group
o 

# material
mtllib TestSmelter.mtl
usemtl palette

# normals
vn -1 0 0
vn 1 0 0
vn 0 0 1
vn 0 0 -1
vn 0 -1 0
vn 0 1 0

# texcoords
vt 0.970703 0.5
vt 0.974609 0.5
vt 0.978516 0.5
vt 0.982422 0.5
vt 0.986328 0.5
vt 0.990234 0.5

# verts
v 0 2 -0.1
v 0 2 -0.3
v 0 2 -1.2
v 0 2 -1.4
v 0 2.1 -0.2
v 0 2.1 -0.3
v 0 2.1 -0.4
v 0 2.1 -1.1
v 0 2.1 -1.2
v 0 2.1 -1.3
v 0 2.2 -0.1
v 0 2.2 -0.2
v 0 2.2 -0.3
v 0 2.2 -0.4
v 0 2.2 -1.1
v 0 2.2 -1.2
v 0 2.2 -1.3
v 0 2.2 -1.4
v 0 2.3 -0.2
v 0 2.3 -0.3
v 0 2.3 -1.2
v 0 2.3 -1.3
v 0 2.4 -0.6
v 0 2.4 -0.9
v 0 2.5 -0.5
v 0 2.5 -0.6
v 0 2.5 -0.8
v 0 2.5 -0.9
v 0 2.5 -1.2
v 0 2.6 -0.2
v 0 2.6 -0.5
v 0 2.6 -0.6
v 0 2.6 -0.8
v 0 2.6 -0.9
v 0 2.6 -1
v 0 2.6 -1.1
v 0 2.7 -0.1
v 0 2.7 -0.2
v 0 2.7 -0.5
v 0 2.7 -0.6
v 0 2.7 -0.7
v 0 2.7 -0.8
v 0 2.7 -1
v 0 2.7 -1.1
v 0 2.7 -1.2
v 0 2.7 -1.3
v 0 2.7 -1.4
v 0 2.8 -0.7
v 0 2.8 -0.8
v 0 2.9 -0.7
v 0 2.9 -0.8
v 0 3 -0.7
v 0 3 -0.8
v 0 3.1 -0.7
v 0 3.1 -0.8
v 0 3.2 -0.7
v 0 3.2 -0.8
v 0 3.5 -0.7
v 0 3.5 -0.8
v 0 3.8 -0.7
v 0 3.8 -0.8
v 0 4.1 -0.7
v 0 4.1 -0.8
v 0 4.3 -0.7
v 0 4.3 -0.8
v 0.1 2 0
v 0.1 2 -0.1
v 0.1 2 -1.4
v 0.1 2 -1.5
v 0.1 2.2 0
v 0.1 2.2 -0.1
v 0.1 2.2 -1.4
v 0.1 2.2 -1.5
v 0.1 2.7 0
v 0.1 2.7 -0.1
v 0.1 2.7 -1.4
v 0.1 2.7 -1.5
v 1.3 2.1 -0.1
v 1.3 2.1 -0.2
v 1.3 2.1 -0.7
v 1.3 2.1 -0.8
v 1.3 2.1 -1.3
v 1.3 2.1 -1.4
v 1.3 2.2 -1.3
v 1.3 2.2 -1.4
v 1.3 2.3 -0.1
v 1.3 2.3 -1.4
v 1.3 2.6 -0.1
v 1.3 2.6 -1.4
v 1.3 2.7 -0.1
v 1.3 2.7 -0.2
v 1.3 2.7 -1.3
v 1.3 2.7 -1.4
v 1.3 2.8 -0.7
v 1.3 2.8 -0.8
v 1.4 2.1 -0.2
v 1.4 2.1 -0.3
v 1.4 2.1 -0.4
v 1.4 2.1 -0.7
v 1.4 2.1 -0.8
v 1.4 2.1 -1.1
v 1.4 2.1 -1.2
v 1.4 2.1 -1.3
v 1.4 2.2 -0.3
v 1.4 2.2 -0.4
v 1.4 2.2 -1.1
v 1.4 2.2 -1.2
v 1.4 2.2 -1.3
v 1.4 2.3 -0.2
v 1.4 2.3 -0.3
v 1.4 2.3 -1.2
v 1.4 2.3 -1.3
v 1.4 2.4 -0.8
v 1.4 2.4 -1
v 1.4 2.5 -0.2
v 1.4 2.5 -0.3
v 1.4 2.5 -0.5
v 1.4 2.5 -0.7
v 1.4 2.5 -1
v 1.4 2.5 -1.2
v 1.4 2.6 -0.4
v 1.4 2.6 -0.5
v 1.4 2.6 -0.6
v 1.4 2.6 -0.7
v 1.4 2.6 -0.9
v 1.4 2.6 -1.1
v 1.4 2.6 -1.2
v 1.4 2.6 -1.3
v 1.4 2.7 -0.2
v 1.4 2.7 -0.3
v 1.4 2.7 -0.4
v 1.4 2.7 -0.6
v 1.4 2.7 -0.7
v 1.4 2.7 -0.8
v 1.4 2.7 -0.9
v 1.4 2.7 -1.1
v 1.4 2.7 -1.3
v 1.4 2.8 -0.7
v 1.4 2.8 -0.8
v 1.4 2.9 -0.7
v 1.4 2.9 -0.8
v 1.4 3 -0.7
v 1.4 3 -0.8
v 1.4 3.2 -0.7
v 1.4 3.2 -0.8
v 1.4 3.5 -0.7
v 1.4 3.5 -0.8
v 1.4 3.8 -0.7
v 1.4 3.8 -0.8
v 1.4 3.9 -0.7
v 1.4 3.9 -0.8
v 1.4 4.2 -0.7
v 1.4 4.2 -0.8
v 1.4 4.3 -0.7
v 1.4 4.3 -0.8
v 0.1 2.1 -0.2
v 0.1 2.1 -0.3
v 0.1 2.1 -0.4
v 0.1 2.1 -0.7
v 0.1 2.1 -0.8
v 0.1 2.1 -1.1
v 0.1 2.1 -1.2
v 0.1 2.1 -1.3
v 0.1 2.2 -0.3
v 0.1 2.2 -0.4
v 0.1 2.2 -1.1
v 0.1 2.2 -1.2
v 0.1 2.3 -0.2
v 0.1 2.3 -0.3
v 0.1 2.3 -1.2
v 0.1 2.3 -1.3
v 0.1 2.4 -0.6
v 0.1 2.4 -0.7
v 0.1 2.4 -0.8
v 0.1 2.4 -0.9
v 0.1 2.5 -0.5
v 0.1 2.5 -0.6
v 0.1 2.5 -0.8
v 0.1 2.5 -0.9
v 0.1 2.5 -1.2
v 0.1 2.6 -0.2
v 0.1 2.6 -0.5
v 0.1 2.6 -0.6
v 0.1 2.6 -0.8
v 0.1 2.6 -0.9
v 0.1 2.6 -1
v 0.1 2.6 -1.1
v 0.1 2.7 -0.2
v 0.1 2.7 -0.5
v 0.1 2.7 -0.6
v 0.1 2.7 -0.7
v 0.1 2.7 -0.8
v 0.1 2.7 -1
v 0.1 2.7 -1.1
v 0.1 2.7 -1.2
v 0.1 2.7 -1.3
v 0.1 2.8 -0.7
v 0.1 2.8 -0.8
v 0.1 2.9 -0.7
v 0.1 2.9 -0.8
v 0.1 3 -0.7
v 0.1 3 -0.8
v 0.1 3.1 -0.7
v 0.1 3.1 -0.8
v 0.1 3.2 -0.7
v 0.1 3.2 -0.8
v 0.1 3.5 -0.7
v 0.1 3.5 -0.8
v 0.1 3.8 -0.7
v 0.1 3.8 -0.8
v 0.1 4.1 -0.7
v 0.1 4.1 -0.8
v 0.1 4.3 -0.7
v 0.1 4.3 -0.8
v 0.2 2.1 -0.1
v 0.2 2.1 -0.2
v 0.2 2.1 -0.7
v 0.2 2.1 -0.8
v 0.2 2.1 -1.3
v 0.2 2.1 -1.4
v 0.2 2.3 -0.1
v 0.2 2.3 -1.4
v 0.2 2.5 -1.4
v 0.2 2.6 -0.1
v 0.2 2.7 -0.1
v 0.2 2.7 -0.2
v 0.2 2.7 -1.3
v 0.2 2.7 -1.4
v 0.2 2.8 -0.7
v 0.2 2.8 -0.8
v 1.4 2 0
v 1.4 2 -0.1
v 1.4 2 -1.4
v 1.4 2 -1.5
v 1.4 2.2 0
v 1.4 2.2 -0.1
v 1.4 2.2 -1.4
v 1.4 2.2 -1.5
v 1.4 2.7 0
v 1.4 2.7 -0.1
v 1.4 2.7 -1.4
v 1.4 2.7 -1.5
v 1.5 2 -0.1
v 1.5 2 -0.3
v 1.5 2 -1.2
v 1.5 2 -1.4
v 1.5 2.1 -0.2
v 1.5 2.1 -0.3
v 1.5 2.1 -0.4
v 1.5 2.1 -1.1
v 1.5 2.1 -1.2
v 1.5 2.1 -1.3
v 1.5 2.2 -0.1
v 1.5 2.2 -0.2
v 1.5 2.2 -0.3
v 1.5 2.2 -0.4
v 1.5 2.2 -1.1
v 1.5 2.2 -1.2
v 1.5 2.2 -1.3
v 1.5 2.2 -1.4
v 1.5 2.3 -0.2
v 1.5 2.3 -0.3
v 1.5 2.3 -1.2
v 1.5 2.3 -1.3
v 1.5 2.4 -0.7
v 1.5 2.4 -1
v 1.5 2.5 -0.2
v 1.5 2.5 -0.3
v 1.5 2.5 -0.5
v 1.5 2.5 -0.7
v 1.5 2.5 -1
v 1.5 2.5 -1.2
v 1.5 2.6 -0.4
v 1.5 2.6 -0.5
v 1.5 2.6 -0.6
v 1.5 2.6 -0.7
v 1.5 2.6 -0.9
v 1.5 2.6 -1.1
v 1.5 2.6 -1.2
v 1.5 2.6 -1.3
v 1.5 2.7 -0.1
v 1.5 2.7 -0.2
v 1.5 2.7 -0.3
v 1.5 2.7 -0.4
v 1.5 2.7 -0.6
v 1.5 2.7 -0.7
v 1.5 2.7 -0.8
v 1.5 2.7 -0.9
v 1.5 2.7 -1.1
v 1.5 2.7 -1.3
v 1.5 2.7 -1.4
v 1.5 2.8 -0.7
v 1.5 2.8 -0.8
v 1.5 2.9 -0.7
v 1.5 2.9 -0.8
v 1.5 3 -0.7
v 1.5 3 -0.8
v 1.5 3.2 -0.7
v 1.5 3.2 -0.8
v 1.5 3.5 -0.7
v 1.5 3.5 -0.8
v 1.5 3.8 -0.7
v 1.5 3.8 -0.8
v 1.5 3.9 -0.7
v 1.5 3.9 -0.8
v 1.5 4.2 -0.7
v 1.5 4.2 -0.8
v 1.5 4.3 -0.7
v 1.5 4.3 -0.8
v 0.1 2 0
v 0.1 2.2 0
v 0.1 2.7 0
v 0.2 2.1 0
v 0.2 2.2 0
v 0.2 2.3 0
v 0.2 2.6 0
v 0.2 2.7 0
v 0.3 2 0
v 0.3 2.1 0
v 0.3 2.2 0
v 0.3 2.3 0
v 0.3 2.6 0
v 0.3 2.7 0
v 0.4 2.1 0
v 0.4 2.2 0
v 0.4 2.6 0
v 0.4 2.7 0
v 0.5 2.5 0
v 0.5 2.6 0
v 0.6 2.4 0
v 0.6 2.5 0
v 0.6 2.6 0
v 0.8 2.4 0
v 0.8 2.5 0
v 0.8 2.6 0
v 0.9 2.6 0
v 0.9 2.7 0
v 1 2.5 0
v 1 2.6 0
v 1 2.7 0
v 1.1 2.1 0
v 1.1 2.2 0
v 1.1 2.5 0
v 1.1 2.6 0
v 1.2 2 0
v 1.2 2.1 0
v 1.2 2.2 0
v 1.2 2.3 0
v 1.2 2.5 0
v 1.2 2.6 0
v 1.3 2.1 0
v 1.3 2.2 0
v 1.3 2.3 0
v 1.3 2.6 0
v 1.3 2.7 0
v 1.4 2 0
v 1.4 2.2 0
v 1.4 2.7 0
v 0 2 -0.1
v 0 2.2 -0.1
v 0 2.7 -0.1
v 0.1 2 -0.1
v 0.1 2.2 -0.1
v 0.1 2.7 -0.1
v 1.4 2 -0.1
v 1.4 2.2 -0.1
v 1.4 2.7 -0.1
v 1.5 2 -0.1
v 1.5 2.2 -0.1
v 1.5 2.7 -0.1
v 0 2.7 -0.7
v 0 2.8 -0.7
v 0 2.9 -0.7
v 0 3 -0.7
v 0 3.1 -0.7
v 0 3.2 -0.7
v 0 3.5 -0.7
v 0 3.8 -0.7
v 0 4.1 -0.7
v 0 4.3 -0.7
v 0.1 2.1 -0.7
v 0.1 2.4 -0.7
v 0.1 2.7 -0.7
v 0.1 2.8 -0.7
v 0.1 2.9 -0.7
v 0.1 3 -0.7
v 0.1 3.1 -0.7
v 0.1 3.2 -0.7
v 0.1 3.5 -0.7
v 0.1 3.8 -0.7
v 0.1 4.1 -0.7
v 0.1 4.3 -0.7
v 0.2 2.1 -0.7
v 0.2 2.8 -0.7
v 1.3 2.1 -0.7
v 1.3 2.8 -0.7
v 1.4 2.1 -0.7
v 1.4 2.5 -0.7
v 1.4 2.6 -0.7
v 1.4 2.7 -0.7
v 1.4 2.8 -0.7
v 1.4 2.9 -0.7
v 1.4 3 -0.7
v 1.4 3.2 -0.7
v 1.4 3.5 -0.7
v 1.4 3.8 -0.7
v 1.4 3.9 -0.7
v 1.4 4.2 -0.7
v 1.4 4.3 -0.7
v 1.5 2.7 -0.7
v 1.5 2.8 -0.7
v 1.5 2.9 -0.7
v 1.5 3 -0.7
v 1.5 3.2 -0.7
v 1.5 3.5 -0.7
v 1.5 3.8 -0.7
v 1.5 3.9 -0.7
v 1.5 4.2 -0.7
v 1.5 4.3 -0.7
v 0.1 2.1 -1.3
v 0.1 2.3 -1.3
v 0.1 2.7 -1.3
v 0.2 2.1 -1.3
v 0.2 2.7 -1.3
v 1.3 2.1 -1.3
v 1.3 2.2 -1.3
v 1.3 2.7 -1.3
v 1.4 2.1 -1.3
v 1.4 2.2 -1.3
v 1.4 2.3 -1.3
v 1.4 2.6 -1.3
v 1.4 2.7 -1.3
v 0.2 2.1 -1.4
v 0.2 2.3 -1.4
v 0.2 2.5 -1.4
v 0.2 2.7 -1.4
v 0.3 2.1 -1.4
v 0.3 2.2 -1.4
v 0.3 2.3 -1.4
v 0.4 2.1 -1.4
v 0.4 2.2 -1.4
v 0.4 2.5 -1.4
v 0.4 2.7 -1.4
v 0.5 2.5 -1.4
v 0.5 2.7 -1.4
v 0.6 2.6 -1.4
v 0.6 2.7 -1.4
v 0.7 2.4 -1.4
v 0.7 2.5 -1.4
v 0.8 2.6 -1.4
v 0.8 2.7 -1.4
v 0.9 2.4 -1.4
v 0.9 2.5 -1.4
v 1 2.6 -1.4
v 1 2.7 -1.4
v 1.1 2.1 -1.4
v 1.1 2.2 -1.4
v 1.1 2.5 -1.4
v 1.1 2.6 -1.4
v 1.2 2.1 -1.4
v 1.2 2.2 -1.4
v 1.2 2.3 -1.4
v 1.2 2.6 -1.4
v 1.2 2.7 -1.4
v 1.3 2.1 -1.4
v 1.3 2.2 -1.4
v 1.3 2.3 -1.4
v 1.3 2.6 -1.4
v 1.3 2.7 -1.4
v 0.2 2.1 -0.1
v 0.2 2.3 -0.1
v 0.2 2.6 -0.1
v 0.2 2.7 -0.1
v 0.3 2.1 -0.1
v 0.3 2.2 -0.1
v 0.3 2.3 -0.1
v 0.3 2.6 -0.1
v 0.3 2.7 -0.1
v 0.4 2.1 -0.1
v 0.4 2.2 -0.1
v 0.4 2.6 -0.1
v 0.4 2.7 -0.1
v 0.5 2.5 -0.1
v 0.5 2.6 -0.1
v 0.6 2.4 -0.1
v 0.6 2.5 -0.1
v 0.6 2.6 -0.1
v 0.8 2.4 -0.1
v 0.8 2.5 -0.1
v 0.8 2.6 -0.1
v 0.9 2.6 -0.1
v 0.9 2.7 -0.1
v 1 2.5 -0.1
v 1 2.6 -0.1
v 1 2.7 -0.1
v 1.1 2.1 -0.1
v 1.1 2.2 -0.1
v 1.1 2.5 -0.1
v 1.1 2.6 -0.1
v 1.2 2.1 -0.1
v 1.2 2.2 -0.1
v 1.2 2.3 -0.1
v 1.2 2.5 -0.1
v 1.2 2.6 -0.1
v 1.3 2.1 -0.1
v 1.3 2.3 -0.1
v 1.3 2.6 -0.1
v 1.3 2.7 -0.1
v 0.1 2.1 -0.2
v 0.1 2.3 -0.2
v 0.1 2.6 -0.2
v 0.1 2.7 -0.2
v 0.2 2.1 -0.2
v 0.2 2.7 -0.2
v 1.3 2.1 -0.2
v 1.3 2.7 -0.2
v 1.4 2.1 -0.2
v 1.4 2.3 -0.2
v 1.4 2.5 -0.2
v 1.4 2.7 -0.2
v 0 2.7 -0.8
v 0 2.8 -0.8
v 0 2.9 -0.8
v 0 3 -0.8
v 0 3.1 -0.8
v 0 3.2 -0.8
v 0 3.5 -0.8
v 0 3.8 -0.8
v 0 4.1 -0.8
v 0 4.3 -0.8
v 0.1 2.1 -0.8
v 0.1 2.4 -0.8
v 0.1 2.5 -0.8
v 0.1 2.6 -0.8
v 0.1 2.7 -0.8
v 0.1 2.8 -0.8
v 0.1 2.9 -0.8
v 0.1 3 -0.8
v 0.1 3.1 -0.8
v 0.1 3.2 -0.8
v 0.1 3.5 -0.8
v 0.1 3.8 -0.8
v 0.1 4.1 -0.8
v 0.1 4.3 -0.8
v 0.2 2.1 -0.8
v 0.2 2.8 -0.8
v 1.3 2.1 -0.8
v 1.3 2.8 -0.8
v 1.4 2.1 -0.8
v 1.4 2.4 -0.8
v 1.4 2.7 -0.8
v 1.4 2.8 -0.8
v 1.4 2.9 -0.8
v 1.4 3 -0.8
v 1.4 3.2 -0.8
v 1.4 3.5 -0.8
v 1.4 3.8 -0.8
v 1.4 3.9 -0.8
v 1.4 4.2 -0.8
v 1.4 4.3 -0.8
v 1.5 2.7 -0.8
v 1.5 2.8 -0.8
v 1.5 2.9 -0.8
v 1.5 3 -0.8
v 1.5 3.2 -0.8
v 1.5 3.5 -0.8
v 1.5 3.8 -0.8
v 1.5 3.9 -0.8
v 1.5 4.2 -0.8
v 1.5 4.3 -0.8
v 0 2 -1.4
v 0 2.2 -1.4
v 0 2.7 -1.4
v 0.1 2 -1.4
v 0.1 2.2 -1.4
v 0.1 2.7 -1.4
v 1.4 2 -1.4
v 1.4 2.2 -1.4
v 1.4 2.7 -1.4
v 1.5 2 -1.4
v 1.5 2.2 -1.4
v 1.5 2.7 -1.4
v 0.1 2 -1.5
v 0.1 2.2 -1.5
v 0.1 2.7 -1.5
v 0.2 2.1 -1.5
v 0.2 2.2 -1.5
v 0.2 2.3 -1.5
v 0.2 2.5 -1.5
v 0.2 2.7 -1.5
v 0.3 2 -1.5
v 0.3 2.1 -1.5
v 0.3 2.2 -1.5
v 0.3 2.3 -1.5
v 0.4 2.1 -1.5
v 0.4 2.2 -1.5
v 0.4 2.5 -1.5
v 0.4 2.7 -1.5
v 0.5 2.5 -1.5
v 0.5 2.7 -1.5
v 0.6 2.6 -1.5
v 0.6 2.7 -1.5
v 0.7 2.4 -1.5
v 0.7 2.5 -1.5
v 0.8 2.6 -1.5
v 0.8 2.7 -1.5
v 0.9 2.4 -1.5
v 0.9 2.5 -1.5
v 1 2.6 -1.5
v 1 2.7 -1.5
v 1.1 2.1 -1.5
v 1.1 2.2 -1.5
v 1.1 2.5 -1.5
v 1.1 2.6 -1.5
v 1.2 2 -1.5
v 1.2 2.1 -1.5
v 1.2 2.2 -1.5
v 1.2 2.3 -1.5
v 1.2 2.6 -1.5
v 1.2 2.7 -1.5
v 1.3 2.1 -1.5
v 1.3 2.2 -1.5
v 1.3 2.3 -1.5
v 1.3 2.6 -1.5
v 1.3 2.7 -1.5
v 1.4 2 -1.5
v 1.4 2.2 -1.5
v 1.4 2.7 -1.5
v 0.1 2 0
v 0.3 2 0
v 1.2 2 0
v 1.4 2 0
v 0 2 -0.1
v 0.1 2 -0.1
v 0.2 2 -0.1
v 0.3 2 -0.1
v 1.2 2 -0.1
v 1.3 2 -0.1
v 1.4 2 -0.1
v 1.5 2 -0.1
v 0.1 2 -0.2
v 0.2 2 -0.2
v 0.3 2 -0.2
v 0.5 2 -0.2
v 1 2 -0.2
v 1.2 2 -0.2
v 1.3 2 -0.2
v 1.4 2 -0.2
v 0 2 -0.3
v 0.1 2 -0.3
v 0.2 2 -0.3
v 0.4 2 -0.3
v 0.5 2 -0.3
v 1 2 -0.3
v 1.1 2 -0.3
v 1.3 2 -0.3
v 1.4 2 -0.3
v 1.5 2 -0.3
v 0.3 2 -0.4
v 0.4 2 -0.4
v 1.1 2 -0.4
v 1.2 2 -0.4
v 0.2 2 -0.5
v 0.3 2 -0.5
v 1.2 2 -0.5
v 1.3 2 -0.5
v 0.2 2 -1
v 0.3 2 -1
v 1.2 2 -1
v 1.3 2 -1
v 0.3 2 -1.1
v 0.4 2 -1.1
v 1.1 2 -1.1
v 1.2 2 -1.1
v 0 2 -1.2
v 0.1 2 -1.2
v 0.2 2 -1.2
v 0.4 2 -1.2
v 0.5 2 -1.2
v 1 2 -1.2
v 1.1 2 -1.2
v 1.3 2 -1.2
v 1.4 2 -1.2
v 1.5 2 -1.2
v 0.1 2 -1.3
v 0.2 2 -1.3
v 0.3 2 -1.3
v 0.5 2 -1.3
v 1 2 -1.3
v 1.2 2 -1.3
v 1.3 2 -1.3
v 1.4 2 -1.3
v 0 2 -1.4
v 0.1 2 -1.4
v 0.2 2 -1.4
v 0.3 2 -1.4
v 1.2 2 -1.4
v 1.3 2 -1.4
v 1.4 2 -1.4
v 1.5 2 -1.4
v 0.1 2 -1.5
v 0.3 2 -1.5
v 1.2 2 -1.5
v 1.4 2 -1.5
v 0.2 2.1 -0.1
v 0.3 2.1 -0.1
v 0.4 2.1 -0.1
v 1.1 2.1 -0.1
v 1.2 2.1 -0.1
v 1.3 2.1 -0.1
v 0.1 2.1 -0.2
v 0.2 2.1 -0.2
v 0.3 2.1 -0.2
v 0.5 2.1 -0.2
v 1 2.1 -0.2
v 1.2 2.1 -0.2
v 1.3 2.1 -0.2
v 1.4 2.1 -0.2
v 0.1 2.1 -0.3
v 0.2 2.1 -0.3
v 0.4 2.1 -0.3
v 0.5 2.1 -0.3
v 1 2.1 -0.3
v 1.1 2.1 -0.3
v 1.3 2.1 -0.3
v 1.4 2.1 -0.3
v 0.1 2.1 -0.4
v 0.3 2.1 -0.4
v 0.4 2.1 -0.4
v 1.1 2.1 -0.4
v 1.2 2.1 -0.4
v 1.4 2.1 -0.4
v 0.2 2.1 -0.5
v 0.3 2.1 -0.5
v 1.2 2.1 -0.5
v 1.3 2.1 -0.5
v 0.1 2.1 -0.7
v 0.2 2.1 -0.7
v 1.3 2.1 -0.7
v 1.4 2.1 -0.7
v 0.1 2.1 -0.8
v 0.2 2.1 -0.8
v 1.3 2.1 -0.8
v 1.4 2.1 -0.8
v 0.2 2.1 -1
v 0.3 2.1 -1
v 1.2 2.1 -1
v 1.3 2.1 -1
v 0.1 2.1 -1.1
v 0.3 2.1 -1.1
v 0.4 2.1 -1.1
v 1.1 2.1 -1.1
v 1.2 2.1 -1.1
v 1.4 2.1 -1.1
v 0.1 2.1 -1.2
v 0.2 2.1 -1.2
v 0.4 2.1 -1.2
v 0.5 2.1 -1.2
v 1 2.1 -1.2
v 1.1 2.1 -1.2
v 1.3 2.1 -1.2
v 1.4 2.1 -1.2
v 0.1 2.1 -1.3
v 0.2 2.1 -1.3
v 0.3 2.1 -1.3
v 0.5 2.1 -1.3
v 1 2.1 -1.3
v 1.2 2.1 -1.3
v 1.3 2.1 -1.3
v 1.4 2.1 -1.3
v 0.2 2.1 -1.4
v 0.3 2.1 -1.4
v 0.4 2.1 -1.4
v 1.1 2.1 -1.4
v 1.2 2.1 -1.4
v 1.3 2.1 -1.4
v 0.1 2.7 0
v 0.2 2.7 0
v 0.3 2.7 0
v 0.4 2.7 0
v 0.9 2.7 0
v 1 2.7 0
v 1.3 2.7 0
v 1.4 2.7 0
v 0 2.7 -0.1
v 0.1 2.7 -0.1
v 0.2 2.7 -0.1
v 0.3 2.7 -0.1
v 0.4 2.7 -0.1
v 0.9 2.7 -0.1
v 1 2.7 -0.1
v 1.3 2.7 -0.1
v 1.4 2.7 -0.1
v 1.5 2.7 -0.1
v 0 2.7 -0.2
v 0.1 2.7 -0.2
v 0.2 2.7 -0.2
v 1.3 2.7 -0.2
v 1.4 2.7 -0.2
v 1.5 2.7 -0.2
v 1.4 2.7 -0.3
v 1.5 2.7 -0.3
v 1.4 2.7 -0.4
v 1.5 2.7 -0.4
v 0 2.7 -0.5
v 0.1 2.7 -0.5
v 0 2.7 -0.6
v 0.1 2.7 -0.6
v 1.4 2.7 -0.6
v 1.5 2.7 -0.6
v 0 2.7 -0.7
v 0.1 2.7 -0.7
v 1.4 2.7 -0.7
v 1.5 2.7 -0.7
v 0 2.7 -0.8
v 0.1 2.7 -0.8
v 1.4 2.7 -0.8
v 1.5 2.7 -0.8
v 1.4 2.7 -0.9
v 1.5 2.7 -0.9
v 0 2.7 -1
v 0.1 2.7 -1
v 0 2.7 -1.1
v 0.1 2.7 -1.1
v 1.4 2.7 -1.1
v 1.5 2.7 -1.1
v 0 2.7 -1.2
v 0.1 2.7 -1.2
v 0 2.7 -1.3
v 0.1 2.7 -1.3
v 0.2 2.7 -1.3
v 1.3 2.7 -1.3
v 1.4 2.7 -1.3
v 1.5 2.7 -1.3
v 0 2.7 -1.4
v 0.1 2.7 -1.4
v 0.2 2.7 -1.4
v 0.4 2.7 -1.4
v 0.5 2.7 -1.4
v 0.6 2.7 -1.4
v 0.8 2.7 -1.4
v 1 2.7 -1.4
v 1.2 2.7 -1.4
v 1.3 2.7 -1.4
v 1.4 2.7 -1.4
v 1.5 2.7 -1.4
v 0.1 2.7 -1.5
v 0.2 2.7 -1.5
v 0.4 2.7 -1.5
v 0.5 2.7 -1.5
v 0.6 2.7 -1.5
v 0.8 2.7 -1.5
v 1 2.7 -1.5
v 1.2 2.7 -1.5
v 1.3 2.7 -1.5
v 1.4 2.7 -1.5
v 0.1 2.8 -0.7
v 0.2 2.8 -0.7
v 1.3 2.8 -0.7
v 1.4 2.8 -0.7
v 0.1 2.8 -0.8
v 0.2 2.8 -0.8
v 1.3 2.8 -0.8
v 1.4 2.8 -0.8
v 0 4.3 -0.7
v 0.1 4.3 -0.7
v 1.4 4.3 -0.7
v 1.5 4.3 -0.7
v 0 4.3 -0.8
v 0.1 4.3 -0.8
v 1.4 4.3 -0.8
v 1.5 4.3 -0.8

# faces
f 5/5/1 2/5/1 1/5/1
f 6/4/1 3/4/1 2/4/1
f 6/5/1 2/5/1 5/5/1
f 7/4/1 3/4/1 6/4/1
f 8/4/1 3/4/1 7/4/1
f 9/5/1 4/5/1 3/5/1
f 9/4/1 3/4/1 8/4/1
f 10/5/1 4/5/1 9/5/1
f 11/5/1 5/5/1 1/5/1
f 12/4/1 6/4/1 5/4/1
f 12/5/1 5/5/1 11/5/1
f 12/4/1 7/4/1 6/4/1
f 13/4/1 7/4/1 12/4/1
f 14/3/1 8/3/1 7/3/1
f 14/4/1 7/4/1 13/4/1
f 15/4/1 10/4/1 9/4/1
f 15/3/1 8/3/1 14/3/1
f 15/4/1 9/4/1 8/4/1
f 16/4/1 10/4/1 15/4/1
f 17/5/1 4/5/1 10/5/1
f 17/4/1 10/4/1 16/4/1
f 18/5/1 4/5/1 17/5/1
f 19/4/1 13/4/1 12/4/1
f 19/4/1 12/4/1 11/4/1
f 20/3/1 16/3/1 15/3/1
f 20/4/1 13/4/1 19/4/1
f 20/3/1 14/3/1 13/3/1
f 20/3/1 15/3/1 14/3/1
f 21/4/1 17/4/1 16/4/1
f 21/3/1 16/3/1 20/3/1
f 21/4/1 18/4/1 17/4/1
f 22/4/1 18/4/1 21/4/1
f 23/3/1 20/3/1 19/3/1
f 23/3/1 21/3/1 20/3/1
f 23/3/1 22/3/1 21/3/1
f 24/3/1 22/3/1 23/3/1
f 25/3/1 23/3/1 19/3/1
f 26/2/1 24/2/1 23/2/1
f 26/3/1 23/3/1 25/3/1
f 27/2/1 24/2/1 26/2/1
f 28/3/1 22/3/1 24/3/1
f 28/2/1 24/2/1 27/2/1
f 29/3/1 22/3/1 28/3/1
f 30/4/1 19/4/1 11/4/1
f 30/3/1 25/3/1 19/3/1
f 31/2/1 27/2/1 26/2/1
f 31/3/1 25/3/1 30/3/1
f 31/2/1 26/2/1 25/2/1
f 32/2/1 27/2/1 31/2/1
f 33/3/1 28/3/1 27/3/1
f 33/2/1 27/2/1 32/2/1
f 34/2/1 29/2/1 28/2/1
f 34/3/1 28/3/1 33/3/1
f 35/2/1 29/2/1 34/2/1
f 36/2/1 29/2/1 35/2/1
f 37/4/1 30/4/1 11/4/1
f 38/2/1 31/2/1 30/2/1
f 38/4/1 30/4/1 37/4/1
f 39/3/1 32/3/1 31/3/1
f 39/2/1 31/2/1 38/2/1
f 40/2/1 33/2/1 32/2/1
f 40/3/1 32/3/1 39/3/1
f 40/2/1 34/2/1 33/2/1
f 40/2/1 35/2/1 34/2/1
f 41/2/1 35/2/1 40/2/1
f 42/2/1 35/2/1 41/2/1
f 43/3/1 36/3/1 35/3/1
f 43/2/1 35/2/1 42/2/1
f 44/2/1 29/2/1 36/2/1
f 44/3/1 36/3/1 43/3/1
f 45/3/1 22/3/1 29/3/1
f 45/2/1 29/2/1 44/2/1
f 46/4/1 18/4/1 22/4/1
f 46/3/1 22/3/1 45/3/1
f 47/4/1 18/4/1 46/4/1
f 48/3/1 42/3/1 41/3/1
f 49/3/1 42/3/1 48/3/1
f 50/2/1 49/2/1 48/2/1
f 51/2/1 49/2/1 50/2/1
f 52/3/1 51/3/1 50/3/1
f 53/3/1 51/3/1 52/3/1
f 54/2/1 53/2/1 52/2/1
f 55/2/1 53/2/1 54/2/1
f 56/3/1 55/3/1 54/3/1
f 57/3/1 55/3/1 56/3/1
f 58/2/1 57/2/1 56/2/1
f 59/2/1 57/2/1 58/2/1
f 60/3/1 59/3/1 58/3/1
f 61/3/1 59/3/1 60/3/1
f 62/2/1 61/2/1 60/2/1
f 63/2/1 61/2/1 62/2/1
f 64/3/1 63/3/1 62/3/1
f 65/3/1 63/3/1 64/3/1
f 70/5/1 67/5/1 66/5/1
f 71/5/1 67/5/1 70/5/1
f 72/5/1 69/5/1 68/5/1
f 73/5/1 69/5/1 72/5/1
f 74/4/1 71/4/1 70/4/1
f 75/4/1 71/4/1 74/4/1
f 76/4/1 73/4/1 72/4/1
f 77/4/1 73/4/1 76/4/1
f 84/5/1 83/5/1 82/5/1
f 85/5/1 83/5/1 84/5/1
f 86/4/1 79/4/1 78/4/1
f 87/4/1 85/4/1 84/4/1
f 88/4/1 79/4/1 86/4/1
f 89/4/1 87/4/1 84/4/1
f 90/4/1 79/4/1 88/4/1
f 91/4/1 79/4/1 90/4/1
f 92/4/1 89/4/1 84/4/1
f 93/4/1 89/4/1 92/4/1
f 94/4/1 81/4/1 80/4/1
f 95/4/1 81/4/1 94/4/1
f 104/4/1 97/4/1 96/4/1
f 104/4/1 98/4/1 97/4/1
f 105/3/1 99/3/1 98/3/1
f 105/4/1 98/4/1 104/4/1
f 106/4/1 103/4/1 102/4/1
f 106/4/1 102/4/1 101/4/1
f 106/3/1 101/3/1 100/3/1
f 107/4/1 103/4/1 106/4/1
f 108/4/1 103/4/1 107/4/1
f 109/4/1 104/4/1 96/4/1
f 110/3/1 105/3/1 104/3/1
f 110/4/1 104/4/1 109/4/1
f 111/3/1 107/3/1 106/3/1
f 111/4/1 108/4/1 107/4/1
f 112/4/1 108/4/1 111/4/1
f 113/3/1 106/3/1 100/3/1
f 113/3/1 111/3/1 106/3/1
f 113/3/1 112/3/1 111/3/1
f 114/3/1 112/3/1 113/3/1
f 115/3/1 110/3/1 109/3/1
f 116/3/1 105/3/1 110/3/1
f 116/3/1 110/3/1 115/3/1
f 117/3/1 99/3/1 105/3/1
f 117/3/1 105/3/1 116/3/1
f 118/3/1 99/3/1 117/3/1
f 119/3/1 112/3/1 114/3/1
f 119/2/1 114/2/1 113/2/1
f 120/3/1 112/3/1 119/3/1
f 121/3/1 117/3/1 116/3/1
f 122/2/1 118/2/1 117/2/1
f 122/3/1 117/3/1 121/3/1
f 123/2/1 118/2/1 122/2/1
f 124/2/1 118/2/1 123/2/1
f 125/2/1 119/2/1 113/2/1
f 125/2/1 120/2/1 119/2/1
f 126/2/1 120/2/1 125/2/1
f 127/3/1 112/3/1 120/3/1
f 127/2/1 120/2/1 126/2/1
f 128/3/1 112/3/1 127/3/1
f 129/2/1 116/2/1 115/2/1
f 130/3/1 121/3/1 116/3/1
f 130/2/1 116/2/1 129/2/1
f 131/2/1 123/2/1 122/2/1
f 131/3/1 121/3/1 130/3/1
f 131/2/1 122/2/1 121/2/1
f 132/3/1 124/3/1 123/3/1
f 132/2/1 123/2/1 131/2/1
f 133/3/1 124/3/1 132/3/1
f 134/2/1 125/2/1 113/2/1
f 135/3/1 126/3/1 125/3/1
f 135/2/1 125/2/1 134/2/1
f 136/2/1 128/2/1 127/2/1
f 136/3/1 126/3/1 135/3/1
f 136/2/1 127/2/1 126/2/1
f 137/2/1 128/2/1 136/2/1
f 140/3/1 139/3/1 138/3/1
f 141/3/1 139/3/1 140/3/1
f 142/2/1 141/2/1 140/2/1
f 143/2/1 141/2/1 142/2/1
f 144/3/1 143/3/1 142/3/1
f 145/3/1 143/3/1 144/3/1
f 146/2/1 145/2/1 144/2/1
f 147/2/1 145/2/1 146/2/1
f 148/3/1 147/3/1 146/3/1
f 149/3/1 147/3/1 148/3/1
f 150/2/1 149/2/1 148/2/1
f 151/2/1 149/2/1 150/2/1
f 152/3/1 151/3/1 150/3/1
f 153/3/1 151/3/1 152/3/1
f 154/2/1 153/2/1 152/2/1
f 155/2/1 153/2/1 154/2/1
f 156/4/2 157/4/2 164/4/2
f 157/4/2 158/4/2 164/4/2
f 158/3/2 159/3/2 165/3/2
f 164/4/2 158/4/2 165/4/2
f 162/4/2 163/4/2 166/4/2
f 161/4/2 162/4/2 166/4/2
f 160/3/2 161/3/2 166/3/2
f 166/4/2 163/4/2 167/4/2
f 156/4/2 164/4/2 168/4/2
f 164/3/2 165/3/2 169/3/2
f 168/4/2 164/4/2 169/4/2
f 167/4/2 163/4/2 170/4/2
f 166/3/2 167/3/2 170/3/2
f 170/4/2 163/4/2 171/4/2
f 165/3/2 159/3/2 172/3/2
f 169/3/2 165/3/2 172/3/2
f 168/3/2 169/3/2 172/3/2
f 172/3/2 159/3/2 173/3/2
f 170/3/2 171/3/2 174/3/2
f 160/3/2 166/3/2 174/3/2
f 166/3/2 170/3/2 174/3/2
f 174/3/2 171/3/2 175/3/2
f 168/3/2 172/3/2 176/3/2
f 172/2/2 173/2/2 177/2/2
f 176/3/2 172/3/2 177/3/2
f 174/2/2 175/2/2 178/2/2
f 175/3/2 171/3/2 179/3/2
f 178/2/2 175/2/2 179/2/2
f 179/3/2 171/3/2 180/3/2
f 168/3/2 176/3/2 181/3/2
f 176/2/2 177/2/2 182/2/2
f 181/3/2 176/3/2 182/3/2
f 177/2/2 173/2/2 183/2/2
f 182/2/2 177/2/2 183/2/2
f 178/3/2 179/3/2 184/3/2
f 179/2/2 180/2/2 185/2/2
f 184/3/2 179/3/2 185/3/2
f 185/2/2 180/2/2 186/2/2
f 186/2/2 180/2/2 187/2/2
f 181/2/2 182/2/2 188/2/2
f 182/3/2 183/3/2 189/3/2
f 188/2/2 182/2/2 189/2/2
f 183/2/2 173/2/2 190/2/2
f 189/3/2 183/3/2 190/3/2
f 190/2/2 173/2/2 191/2/2
f 184/2/2 185/2/2 192/2/2
f 185/2/2 186/2/2 192/2/2
f 186/3/2 187/3/2 193/3/2
f 192/2/2 186/2/2 193/2/2
f 187/2/2 180/2/2 194/2/2
f 193/3/2 187/3/2 194/3/2
f 180/3/2 171/3/2 195/3/2
f 194/2/2 180/2/2 195/2/2
f 195/3/2 171/3/2 196/3/2
f 197/2/2 198/2/2 199/2/2
f 199/2/2 198/2/2 200/2/2
f 199/3/2 200/3/2 201/3/2
f 201/3/2 200/3/2 202/3/2
f 201/2/2 202/2/2 203/2/2
f 203/2/2 202/2/2 204/2/2
f 203/3/2 204/3/2 205/3/2
f 205/3/2 204/3/2 206/3/2
f 205/2/2 206/2/2 207/2/2
f 207/2/2 206/2/2 208/2/2
f 207/3/2 208/3/2 209/3/2
f 209/3/2 208/3/2 210/3/2
f 209/2/2 210/2/2 211/2/2
f 211/2/2 210/2/2 212/2/2
f 211/3/2 212/3/2 213/3/2
f 213/3/2 212/3/2 214/3/2
f 215/4/2 216/4/2 221/4/2
f 219/4/2 220/4/2 222/4/2
f 219/4/2 222/4/2 223/4/2
f 221/4/2 216/4/2 224/4/2
f 224/4/2 216/4/2 225/4/2
f 225/4/2 216/4/2 226/4/2
f 219/4/2 223/4/2 227/4/2
f 227/4/2 223/4/2 228/4/2
f 217/4/2 218/4/2 229/4/2
f 229/4/2 218/4/2 230/4/2
f 231/5/2 232/5/2 235/5/2
f 235/5/2 232/5/2 236/5/2
f 233/5/2 234/5/2 237/5/2
f 237/5/2 234/5/2 238/5/2
f 235/4/2 236/4/2 239/4/2
f 239/4/2 236/4/2 240/4/2
f 237/4/2 238/4/2 241/4/2
f 241/4/2 238/4/2 242/4/2
f 243/5/2 244/5/2 247/5/2
f 244/4/2 245/4/2 248/4/2
f 247/5/2 244/5/2 248/5/2
f 248/4/2 245/4/2 249/4/2
f 249/4/2 245/4/2 250/4/2
f 245/5/2 246/5/2 251/5/2
f 250/4/2 245/4/2 251/4/2
f 251/5/2 246/5/2 252/5/2
f 243/5/2 247/5/2 253/5/2
f 247/4/2 248/4/2 254/4/2
f 253/5/2 247/5/2 254/5/2
f 248/4/2 249/4/2 254/4/2
f 254/4/2 249/4/2 255/4/2
f 249/3/2 250/3/2 256/3/2
f 255/4/2 249/4/2 256/4/2
f 251/4/2 252/4/2 257/4/2
f 256/3/2 250/3/2 257/3/2
f 250/4/2 251/4/2 257/4/2
f 257/4/2 252/4/2 258/4/2
f 252/5/2 246/5/2 259/5/2
f 258/4/2 252/4/2 259/4/2
f 259/5/2 246/5/2 260/5/2
f 254/4/2 255/4/2 261/4/2
f 253/4/2 254/4/2 261/4/2
f 257/3/2 258/3/2 262/3/2
f 261/4/2 255/4/2 262/4/2
f 255/3/2 256/3/2 262/3/2
f 256/3/2 257/3/2 262/3/2
f 258/4/2 259/4/2 263/4/2
f 262/3/2 258/3/2 263/3/2
f 259/4/2 260/4/2 263/4/2
f 263/4/2 260/4/2 264/4/2
f 261/3/2 262/3/2 265/3/2
f 262/3/2 263/3/2 265/3/2
f 263/3/2 264/3/2 265/3/2
f 265/3/2 264/3/2 266/3/2
f 253/4/2 261/4/2 267/4/2
f 261/3/2 265/3/2 267/3/2
f 267/3/2 265/3/2 268/3/2
f 268/3/2 265/3/2 269/3/2
f 265/2/2 266/2/2 270/2/2
f 269/3/2 265/3/2 270/3/2
f 266/3/2 264/3/2 271/3/2
f 270/2/2 266/2/2 271/2/2
f 271/3/2 264/3/2 272/3/2
f 268/3/2 269/3/2 273/3/2
f 269/2/2 270/2/2 274/2/2
f 273/3/2 269/3/2 274/3/2
f 270/2/2 271/2/2 274/2/2
f 271/2/2 272/2/2 274/2/2
f 274/2/2 272/2/2 275/2/2
f 275/2/2 272/2/2 276/2/2
f 276/2/2 272/2/2 277/2/2
f 277/2/2 272/2/2 278/2/2
f 272/3/2 264/3/2 279/3/2
f 278/2/2 272/2/2 279/2/2
f 264/4/2 260/4/2 280/4/2
f 279/3/2 264/3/2 280/3/2
f 253/4/2 267/4/2 281/4/2
f 267/2/2 268/2/2 282/2/2
f 281/4/2 267/4/2 282/4/2
f 268/3/2 273/3/2 283/3/2
f 282/2/2 268/2/2 283/2/2
f 273/2/2 274/2/2 284/2/2
f 283/3/2 273/3/2 284/3/2
f 274/2/2 275/2/2 284/2/2
f 275/3/2 276/3/2 285/3/2
f 284/2/2 275/2/2 285/2/2
f 276/2/2 277/2/2 286/2/2
f 285/3/2 276/3/2 286/3/2
f 286/2/2 277/2/2 287/2/2
f 277/3/2 278/3/2 288/3/2
f 287/2/2 277/2/2 288/2/2
f 278/2/2 279/2/2 289/2/2
f 288/3/2 278/3/2 289/3/2
f 279/2/2 280/2/2 289/2/2
f 280/4/2 260/4/2 290/4/2
f 289/2/2 280/2/2 290/2/2
f 290/4/2 260/4/2 291/4/2
f 286/2/2 287/2/2 292/2/2
f 292/2/2 287/2/2 293/2/2
f 292/3/2 293/3/2 294/3/2
f 294/3/2 293/3/2 295/3/2
f 294/2/2 295/2/2 296/2/2
f 296/2/2 295/2/2 297/2/2
f 296/3/2 297/3/2 298/3/2
f 298/3/2 297/3/2 299/3/2
f 298/2/2 299/2/2 300/2/2
f 300/2/2 299/2/2 301/2/2
f 300/3/2 301/3/2 302/3/2
f 302/3/2 301/3/2 303/3/2
f 302/2/2 303/2/2 304/2/2
f 304/2/2 303/2/2 305/2/2
f 304/3/2 305/3/2 306/3/2
f 306/3/2 305/3/2 307/3/2
f 306/2/2 307/2/2 308/2/2
f 308/2/2 307/2/2 309/2/2
f 313/5/3 311/5/3 310/5/3
f 314/4/3 312/4/3 311/4/3
f 314/5/3 311/5/3 313/5/3
f 315/4/3 312/4/3 314/4/3
f 316/4/3 312/4/3 315/4/3
f 317/4/3 312/4/3 316/4/3
f 318/5/3 313/5/3 310/5/3
f 319/4/3 314/4/3 313/4/3
f 319/5/3 313/5/3 318/5/3
f 319/4/3 315/4/3 314/4/3
f 320/4/3 315/4/3 319/4/3
f 321/3/3 316/3/3 315/3/3
f 321/4/3 315/4/3 320/4/3
f 322/2/3 317/2/3 316/2/3
f 322/3/3 316/3/3 321/3/3
f 323/2/3 317/2/3 322/2/3
f 324/4/3 320/4/3 319/4/3
f 324/4/3 319/4/3 318/4/3
f 325/3/3 321/3/3 320/3/3
f 325/4/3 320/4/3 324/4/3
f 325/3/3 323/3/3 322/3/3
f 325/3/3 322/3/3 321/3/3
f 326/3/3 323/3/3 325/3/3
f 327/3/3 323/3/3 326/3/3
f 328/3/3 325/3/3 324/3/3
f 328/3/3 326/3/3 325/3/3
f 329/2/3 327/2/3 326/2/3
f 329/3/3 326/3/3 328/3/3
f 330/3/3 328/3/3 324/3/3
f 331/2/3 329/2/3 328/2/3
f 331/3/3 328/3/3 330/3/3
f 332/2/3 327/2/3 329/2/3
f 332/2/3 329/2/3 331/2/3
f 333/2/3 331/2/3 330/2/3
f 333/3/3 330/3/3 324/3/3
f 334/3/3 332/3/3 331/3/3
f 334/2/3 331/2/3 333/2/3
f 335/2/3 327/2/3 332/2/3
f 335/3/3 332/3/3 334/3/3
f 336/2/3 335/2/3 334/2/3
f 336/2/3 327/2/3 335/2/3
f 337/2/3 327/2/3 336/2/3
f 338/3/3 334/3/3 333/3/3
f 338/2/3 336/2/3 334/2/3
f 339/3/3 337/3/3 336/3/3
f 339/2/3 336/2/3 338/2/3
f 340/3/3 337/3/3 339/3/3
f 341/4/3 324/4/3 318/4/3
f 341/3/3 333/3/3 324/3/3
f 341/3/3 338/3/3 333/3/3
f 341/3/3 339/3/3 338/3/3
f 342/3/3 339/3/3 341/3/3
f 343/3/3 339/3/3 342/3/3
f 344/2/3 340/2/3 339/2/3
f 344/3/3 339/3/3 343/3/3
f 345/4/3 341/4/3 318/4/3
f 345/4/3 342/4/3 341/4/3
f 346/4/3 342/4/3 345/4/3
f 347/3/3 343/3/3 342/3/3
f 347/4/3 342/4/3 346/4/3
f 348/3/3 343/3/3 347/3/3
f 349/2/3 344/2/3 343/2/3
f 349/3/3 343/3/3 348/3/3
f 350/2/3 340/2/3 344/2/3
f 350/2/3 344/2/3 349/2/3
f 351/5/3 346/5/3 345/5/3
f 351/4/3 348/4/3 347/4/3
f 351/4/3 347/4/3 346/4/3
f 352/4/3 348/4/3 351/4/3
f 353/3/3 349/3/3 348/3/3
f 353/4/3 348/4/3 352/4/3
f 353/3/3 350/3/3 349/3/3
f 354/2/3 340/2/3 350/2/3
f 354/3/3 350/3/3 353/3/3
f 355/2/3 340/2/3 354/2/3
f 356/5/3 352/5/3 351/5/3
f 356/5/3 351/5/3 345/5/3
f 357/4/3 353/4/3 352/4/3
f 357/5/3 352/5/3 356/5/3
f 357/4/3 355/4/3 354/4/3
f 357/4/3 354/4/3 353/4/3
f 358/4/3 355/4/3 357/4/3
f 362/5/3 360/5/3 359/5/3
f 363/4/3 361/4/3 360/4/3
f 363/5/3 360/5/3 362/5/3
f 364/4/3 361/4/3 363/4/3
f 368/5/3 366/5/3 365/5/3
f 369/4/3 367/4/3 366/4/3
f 369/5/3 366/5/3 368/5/3
f 370/4/3 367/4/3 369/4/3
f 383/3/3 372/3/3 371/3/3
f 384/2/3 373/2/3 372/2/3
f 384/3/3 372/3/3 383/3/3
f 385/3/3 374/3/3 373/3/3
f 385/2/3 373/2/3 384/2/3
f 386/2/3 375/2/3 374/2/3
f 386/3/3 374/3/3 385/3/3
f 387/3/3 376/3/3 375/3/3
f 387/2/3 375/2/3 386/2/3
f 388/2/3 377/2/3 376/2/3
f 388/3/3 376/3/3 387/3/3
f 389/3/3 378/3/3 377/3/3
f 389/2/3 377/2/3 388/2/3
f 390/2/3 379/2/3 378/2/3
f 390/3/3 378/3/3 389/3/3
f 391/3/3 380/3/3 379/3/3
f 391/2/3 379/2/3 390/2/3
f 392/3/3 380/3/3 391/3/3
f 393/4/3 382/4/3 381/4/3
f 393/4/3 383/4/3 382/4/3
f 393/4/3 384/4/3 383/4/3
f 394/4/3 384/4/3 393/4/3
f 397/4/3 396/4/3 395/4/3
f 398/4/3 396/4/3 397/4/3
f 399/4/3 396/4/3 398/4/3
f 400/4/3 396/4/3 399/4/3
f 401/4/3 396/4/3 400/4/3
f 410/2/3 401/2/3 400/2/3
f 411/3/3 402/3/3 401/3/3
f 411/2/3 401/2/3 410/2/3
f 412/2/3 403/2/3 402/2/3
f 412/3/3 402/3/3 411/3/3
f 413/3/3 404/3/3 403/3/3
f 413/2/3 403/2/3 412/2/3
f 414/2/3 405/2/3 404/2/3
f 414/3/3 404/3/3 413/3/3
f 415/3/3 406/3/3 405/3/3
f 415/2/3 405/2/3 414/2/3
f 416/2/3 407/2/3 406/2/3
f 416/3/3 406/3/3 415/3/3
f 417/3/3 408/3/3 407/3/3
f 417/2/3 407/2/3 416/2/3
f 418/2/3 409/2/3 408/2/3
f 418/3/3 408/3/3 417/3/3
f 419/2/3 409/2/3 418/2/3
f 423/4/3 421/4/3 420/4/3
f 423/4/3 422/4/3 421/4/3
f 424/4/3 422/4/3 423/4/3
f 428/5/3 426/5/3 425/5/3
f 429/4/3 427/4/3 426/4/3
f 429/5/3 426/5/3 428/5/3
f 430/4/3 427/4/3 429/4/3
f 431/4/3 427/4/3 430/4/3
f 432/4/3 427/4/3 431/4/3
f 437/4/3 434/4/3 433/4/3
f 438/4/3 434/4/3 437/4/3
f 439/3/3 435/3/3 434/3/3
f 439/4/3 434/4/3 438/4/3
f 440/4/3 438/4/3 437/4/3
f 441/3/3 439/3/3 438/3/3
f 441/4/3 438/4/3 440/4/3
f 442/2/3 436/2/3 435/2/3
f 442/3/3 439/3/3 441/3/3
f 442/3/3 435/3/3 439/3/3
f 443/2/3 436/2/3 442/2/3
f 444/3/3 441/3/3 440/3/3
f 444/3/3 442/3/3 441/3/3
f 444/3/3 443/3/3 442/3/3
f 445/3/3 443/3/3 444/3/3
f 446/2/3 445/2/3 444/2/3
f 447/2/3 445/2/3 446/2/3
f 448/3/3 444/3/3 440/3/3
f 449/2/3 446/2/3 444/2/3
f 449/3/3 444/3/3 448/3/3
f 450/3/3 447/3/3 446/3/3
f 450/2/3 446/2/3 449/2/3
f 450/2/3 449/2/3 448/2/3
f 451/3/3 447/3/3 450/3/3
f 452/3/3 448/3/3 440/3/3
f 452/2/3 450/2/3 448/2/3
f 452/2/3 451/2/3 450/2/3
f 453/2/3 451/2/3 452/2/3
f 454/2/3 451/2/3 453/2/3
f 455/2/3 451/2/3 454/2/3
f 456/3/3 452/3/3 440/3/3
f 456/3/3 453/3/3 452/3/3
f 457/3/3 453/3/3 456/3/3
f 458/2/3 454/2/3 453/2/3
f 458/3/3 453/3/3 457/3/3
f 459/3/3 455/3/3 454/3/3
f 459/2/3 454/2/3 458/2/3
f 460/4/3 457/4/3 456/4/3
f 461/3/3 458/3/3 457/3/3
f 461/4/3 457/4/3 460/4/3
f 461/3/3 459/3/3 458/3/3
f 462/3/3 459/3/3 461/3/3
f 463/3/3 455/3/3 459/3/3
f 463/3/3 459/3/3 462/3/3
f 464/3/3 455/3/3 463/3/3
f 465/4/3 462/4/3 461/4/3
f 465/4/3 461/4/3 460/4/3
f 466/4/3 462/4/3 465/4/3
f 467/3/3 463/3/3 462/3/3
f 467/4/3 462/4/3 466/4/3
f 468/2/3 464/2/3 463/2/3
f 468/3/3 463/3/3 467/3/3
f 469/2/3 464/2/3 468/2/3
f 470/4/4 471/4/4 474/4/4
f 474/4/4 471/4/4 475/4/4
f 471/3/4 472/3/4 476/3/4
f 475/4/4 471/4/4 476/4/4
f 472/2/4 473/2/4 477/2/4
f 476/3/4 472/3/4 477/3/4
f 477/2/4 473/2/4 478/2/4
f 474/4/4 475/4/4 479/4/4
f 475/3/4 476/3/4 480/3/4
f 479/4/4 475/4/4 480/4/4
f 476/3/4 477/3/4 480/3/4
f 477/3/4 478/3/4 480/3/4
f 480/3/4 478/3/4 481/3/4
f 481/3/4 478/3/4 482/3/4
f 479/3/4 480/3/4 483/3/4
f 480/3/4 481/3/4 483/3/4
f 481/2/4 482/2/4 484/2/4
f 483/3/4 481/3/4 484/3/4
f 479/3/4 483/3/4 485/3/4
f 483/2/4 484/2/4 486/2/4
f 485/3/4 483/3/4 486/3/4
f 484/2/4 482/2/4 487/2/4
f 486/2/4 484/2/4 487/2/4
f 485/2/4 486/2/4 488/2/4
f 479/3/4 485/3/4 488/3/4
f 486/3/4 487/3/4 489/3/4
f 488/2/4 486/2/4 489/2/4
f 487/2/4 482/2/4 490/2/4
f 489/3/4 487/3/4 490/3/4
f 489/2/4 490/2/4 491/2/4
f 490/2/4 482/2/4 491/2/4
f 491/2/4 482/2/4 492/2/4
f 488/3/4 489/3/4 493/3/4
f 489/2/4 491/2/4 493/2/4
f 491/3/4 492/3/4 494/3/4
f 493/2/4 491/2/4 494/2/4
f 494/3/4 492/3/4 495/3/4
f 479/3/4 488/3/4 496/3/4
f 488/3/4 493/3/4 496/3/4
f 493/3/4 494/3/4 496/3/4
f 496/3/4 494/3/4 497/3/4
f 497/3/4 494/3/4 498/3/4
f 494/2/4 495/2/4 499/2/4
f 498/3/4 494/3/4 499/3/4
f 496/4/4 497/4/4 500/4/4
f 497/3/4 498/3/4 501/3/4
f 500/4/4 497/4/4 501/4/4
f 501/3/4 498/3/4 502/3/4
f 498/2/4 499/2/4 503/2/4
f 502/3/4 498/3/4 503/3/4
f 499/2/4 495/2/4 504/2/4
f 503/2/4 499/2/4 504/2/4
f 501/4/4 502/4/4 505/4/4
f 500/4/4 501/4/4 505/4/4
f 502/3/4 503/3/4 506/3/4
f 505/4/4 502/4/4 506/4/4
f 503/3/4 504/3/4 506/3/4
f 504/2/4 495/2/4 507/2/4
f 506/3/4 504/3/4 507/3/4
f 507/2/4 495/2/4 508/2/4
f 509/4/4 510/4/4 513/4/4
f 511/4/4 512/4/4 513/4/4
f 510/4/4 511/4/4 513/4/4
f 513/4/4 512/4/4 514/4/4
f 515/4/4 516/4/4 517/4/4
f 517/4/4 516/4/4 518/4/4
f 518/4/4 516/4/4 519/4/4
f 519/4/4 516/4/4 520/4/4
f 521/3/4 522/3/4 535/3/4
f 522/2/4 523/2/4 536/2/4
f 535/3/4 522/3/4 536/3/4
f 523/3/4 524/3/4 537/3/4
f 536/2/4 523/2/4 537/2/4
f 524/2/4 525/2/4 538/2/4
f 537/3/4 524/3/4 538/3/4
f 525/3/4 526/3/4 539/3/4
f 538/2/4 525/2/4 539/2/4
f 526/2/4 527/2/4 540/2/4
f 539/3/4 526/3/4 540/3/4
f 527/3/4 528/3/4 541/3/4
f 540/2/4 527/2/4 541/2/4
f 528/2/4 529/2/4 542/2/4
f 541/3/4 528/3/4 542/3/4
f 529/3/4 530/3/4 543/3/4
f 542/2/4 529/2/4 543/2/4
f 543/3/4 530/3/4 544/3/4
f 533/4/4 534/4/4 545/4/4
f 534/4/4 535/4/4 545/4/4
f 535/4/4 536/4/4 545/4/4
f 532/4/4 533/4/4 545/4/4
f 531/4/4 532/4/4 545/4/4
f 545/4/4 536/4/4 546/4/4
f 547/4/4 548/4/4 549/4/4
f 549/4/4 548/4/4 550/4/4
f 550/4/4 548/4/4 551/4/4
f 551/4/4 548/4/4 552/4/4
f 551/2/4 552/2/4 561/2/4
f 552/3/4 553/3/4 562/3/4
f 561/2/4 552/2/4 562/2/4
f 553/2/4 554/2/4 563/2/4
f 562/3/4 553/3/4 563/3/4
f 554/3/4 555/3/4 564/3/4
f 563/2/4 554/2/4 564/2/4
f 555/2/4 556/2/4 565/2/4
f 564/3/4 555/3/4 565/3/4
f 556/3/4 557/3/4 566/3/4
f 565/2/4 556/2/4 566/2/4
f 557/2/4 558/2/4 567/2/4
f 566/3/4 557/3/4 567/3/4
f 558/3/4 559/3/4 568/3/4
f 567/2/4 558/2/4 568/2/4
f 559/2/4 560/2/4 569/2/4
f 568/3/4 559/3/4 569/3/4
f 569/2/4 560/2/4 570/2/4
f 571/5/4 572/5/4 574/5/4
f 572/4/4 573/4/4 575/4/4
f 574/5/4 572/5/4 575/5/4
f 575/4/4 573/4/4 576/4/4
f 577/5/4 578/5/4 580/5/4
f 578/4/4 579/4/4 581/4/4
f 580/5/4 578/5/4 581/5/4
f 581/4/4 579/4/4 582/4/4
f 583/5/4 584/5/4 586/5/4
f 584/4/4 585/4/4 587/4/4
f 586/5/4 584/5/4 587/5/4
f 587/4/4 585/4/4 588/4/4
f 588/4/4 585/4/4 589/4/4
f 589/4/4 585/4/4 590/4/4
f 583/5/4 586/5/4 591/5/4
f 586/4/4 587/4/4 592/4/4
f 591/5/4 586/5/4 592/5/4
f 587/4/4 588/4/4 592/4/4
f 592/4/4 588/4/4 593/4/4
f 588/3/4 589/3/4 594/3/4
f 593/4/4 588/4/4 594/4/4
f 592/4/4 593/4/4 595/4/4
f 591/4/4 592/4/4 595/4/4
f 593/3/4 594/3/4 596/3/4
f 595/4/4 593/4/4 596/4/4
f 589/2/4 590/2/4 597/2/4
f 596/3/4 594/3/4 597/3/4
f 594/3/4 589/3/4 597/3/4
f 597/2/4 590/2/4 598/2/4
f 595/3/4 596/3/4 599/3/4
f 596/3/4 597/3/4 599/3/4
f 597/3/4 598/3/4 599/3/4
f 599/3/4 598/3/4 600/3/4
f 599/2/4 600/2/4 601/2/4
f 601/2/4 600/2/4 602/2/4
f 595/3/4 599/3/4 603/3/4
f 599/2/4 601/2/4 604/2/4
f 603/3/4 599/3/4 604/3/4
f 601/3/4 602/3/4 605/3/4
f 604/2/4 601/2/4 605/2/4
f 603/2/4 604/2/4 605/2/4
f 605/3/4 602/3/4 606/3/4
f 595/3/4 603/3/4 607/3/4
f 603/2/4 605/2/4 607/2/4
f 605/2/4 606/2/4 607/2/4
f 607/2/4 606/2/4 608/2/4
f 608/2/4 606/2/4 609/2/4
f 609/2/4 606/2/4 610/2/4
f 591/4/4 595/4/4 611/4/4
f 595/3/4 607/3/4 611/3/4
f 607/3/4 608/3/4 611/3/4
f 611/3/4 608/3/4 612/3/4
f 608/2/4 609/2/4 613/2/4
f 612/3/4 608/3/4 613/3/4
f 609/3/4 610/3/4 614/3/4
f 613/2/4 609/2/4 614/2/4
f 611/4/4 612/4/4 615/4/4
f 591/4/4 611/4/4 615/4/4
f 615/4/4 612/4/4 616/4/4
f 612/3/4 613/3/4 617/3/4
f 616/4/4 612/4/4 617/4/4
f 613/3/4 614/3/4 617/3/4
f 617/3/4 614/3/4 618/3/4
f 614/3/4 610/3/4 619/3/4
f 618/3/4 614/3/4 619/3/4
f 619/3/4 610/3/4 620/3/4
f 615/5/4 616/5/4 621/5/4
f 617/4/4 618/4/4 621/4/4
f 616/4/4 617/4/4 621/4/4
f 621/4/4 618/4/4 622/4/4
f 618/3/4 619/3/4 623/3/4
f 622/4/4 618/4/4 623/4/4
f 619/2/4 620/2/4 624/2/4
f 623/3/4 619/3/4 624/3/4
f 624/2/4 620/2/4 625/2/4
f 621/5/4 622/5/4 626/5/4
f 615/5/4 621/5/4 626/5/4
f 622/4/4 623/4/4 627/4/4
f 626/5/4 622/5/4 627/5/4
f 624/4/4 625/4/4 627/4/4
f 623/4/4 624/4/4 627/4/4
f 627/4/4 625/4/4 628/4/4
f 634/5/5 630/5/5 629/5/5
f 635/5/5 630/5/5 634/5/5
f 636/4/5 631/4/5 630/4/5
f 636/5/5 630/5/5 635/5/5
f 637/5/5 632/5/5 631/5/5
f 637/4/5 631/4/5 636/4/5
f 638/5/5 632/5/5 637/5/5
f 639/5/5 632/5/5 638/5/5
f 641/1/5 635/1/5 634/1/5
f 641/5/5 634/5/5 633/5/5
f 642/6/5 636/6/5 635/6/5
f 642/1/5 635/1/5 641/1/5
f 643/5/5 637/5/5 636/5/5
f 643/6/5 636/6/5 642/6/5
f 644/5/5 637/5/5 643/5/5
f 645/5/5 637/5/5 644/5/5
f 646/6/5 638/6/5 637/6/5
f 646/5/5 637/5/5 645/5/5
f 647/1/5 639/1/5 638/1/5
f 647/6/5 638/6/5 646/6/5
f 648/5/5 640/5/5 639/5/5
f 648/1/5 639/1/5 647/1/5
f 649/5/5 641/5/5 633/5/5
f 650/6/5 642/6/5 641/6/5
f 650/5/5 641/5/5 649/5/5
f 651/5/5 643/5/5 642/5/5
f 651/6/5 642/6/5 650/6/5
f 651/5/5 644/5/5 643/5/5
f 652/5/5 644/5/5 651/5/5
f 653/4/5 645/4/5 644/4/5
f 653/5/5 644/5/5 652/5/5
f 654/5/5 647/5/5 646/5/5
f 654/4/5 645/4/5 653/4/5
f 654/5/5 646/5/5 645/5/5
f 655/5/5 647/5/5 654/5/5
f 656/6/5 648/6/5 647/6/5
f 656/5/5 647/5/5 655/5/5
f 657/5/5 640/5/5 648/5/5
f 657/6/5 648/6/5 656/6/5
f 658/5/5 640/5/5 657/5/5
f 659/5/5 651/5/5 650/5/5
f 659/5/5 652/5/5 651/5/5
f 660/4/5 653/4/5 652/4/5
f 660/5/5 652/5/5 659/5/5
f 660/4/5 655/4/5 654/4/5
f 660/4/5 654/4/5 653/4/5
f 661/5/5 656/5/5 655/5/5
f 661/4/5 655/4/5 660/4/5
f 661/5/5 657/5/5 656/5/5
f 662/5/5 657/5/5 661/5/5
f 663/5/5 659/5/5 650/5/5
f 664/4/5 660/4/5 659/4/5
f 664/5/5 659/5/5 663/5/5
f 664/4/5 661/4/5 660/4/5
f 664/4/5 662/4/5 661/4/5
f 665/5/5 657/5/5 662/5/5
f 665/4/5 662/4/5 664/4/5
f 666/5/5 657/5/5 665/5/5
f 667/5/5 663/5/5 650/5/5
f 667/4/5 664/4/5 663/4/5
f 667/4/5 666/4/5 665/4/5
f 667/4/5 665/4/5 664/4/5
f 668/4/5 666/4/5 667/4/5
f 669/4/5 666/4/5 668/4/5
f 670/5/5 657/5/5 666/5/5
f 670/4/5 666/4/5 669/4/5
f 671/4/5 669/4/5 668/4/5
f 671/5/5 668/5/5 667/5/5
f 672/4/5 669/4/5 671/4/5
f 673/4/5 669/4/5 672/4/5
f 674/5/5 670/5/5 669/5/5
f 674/4/5 669/4/5 673/4/5
f 675/4/5 650/4/5 649/4/5
f 676/5/5 667/5/5 650/5/5
f 676/4/5 650/4/5 675/4/5
f 676/5/5 671/5/5 667/5/5
f 676/5/5 672/5/5 671/5/5
f 677/5/5 672/5/5 676/5/5
f 678/4/5 673/4/5 672/4/5
f 678/5/5 672/5/5 677/5/5
f 679/4/5 673/4/5 678/4/5
f 680/4/5 673/4/5 679/4/5
f 681/5/5 674/5/5 673/5/5
f 681/4/5 673/4/5 680/4/5
f 682/5/5 657/5/5 670/5/5
f 682/5/5 674/5/5 681/5/5
f 682/5/5 670/5/5 674/5/5
f 683/4/5 658/4/5 657/4/5
f 683/5/5 657/5/5 682/5/5
f 684/4/5 658/4/5 683/4/5
f 685/6/5 677/6/5 676/6/5
f 685/5/5 676/5/5 675/5/5
f 686/5/5 679/5/5 678/5/5
f 686/6/5 677/6/5 685/6/5
f 686/5/5 678/5/5 677/5/5
f 687/5/5 679/5/5 686/5/5
f 688/4/5 680/4/5 679/4/5
f 688/5/5 679/5/5 687/5/5
f 689/5/5 681/5/5 680/5/5
f 689/4/5 680/4/5 688/4/5
f 689/5/5 682/5/5 681/5/5
f 690/5/5 682/5/5 689/5/5
f 691/6/5 683/6/5 682/6/5
f 691/5/5 682/5/5 690/5/5
f 692/5/5 684/5/5 683/5/5
f 692/6/5 683/6/5 691/6/5
f 693/5/5 685/5/5 675/5/5
f 694/4/5 686/4/5 685/4/5
f 694/5/5 685/5/5 693/5/5
f 695/6/5 687/6/5 686/6/5
f 695/4/5 686/4/5 694/4/5
f 696/5/5 688/5/5 687/5/5
f 696/6/5 687/6/5 695/6/5
f 696/5/5 690/5/5 689/5/5
f 696/5/5 689/5/5 688/5/5
f 697/6/5 691/6/5 690/6/5
f 697/5/5 690/5/5 696/5/5
f 698/1/5 692/1/5 691/1/5
f 698/6/5 691/6/5 697/6/5
f 699/5/5 684/5/5 692/5/5
f 699/1/5 692/1/5 698/1/5
f 700/5/5 684/5/5 699/5/5
f 701/5/5 695/5/5 694/5/5
f 701/5/5 696/5/5 695/5/5
f 702/4/5 697/4/5 696/4/5
f 702/5/5 696/5/5 701/5/5
f 703/5/5 698/5/5 697/5/5
f 703/4/5 697/4/5 702/4/5
f 703/5/5 699/5/5 698/5/5
f 704/5/5 699/5/5 703/5/5
f 705/6/6 706/6/6 712/6/6
f 706/5/6 707/5/6 713/5/6
f 707/5/6 708/5/6 713/5/6
f 712/6/6 706/6/6 713/6/6
f 708/5/6 709/5/6 713/5/6
f 713/5/6 709/5/6 714/5/6
f 714/5/6 709/5/6 715/5/6
f 709/6/6 710/6/6 716/6/6
f 715/5/6 709/5/6 716/5/6
f 716/6/6 710/6/6 717/6/6
f 711/6/6 712/6/6 719/6/6
f 712/5/6 713/5/6 720/5/6
f 719/6/6 712/6/6 720/6/6
f 713/5/6 714/5/6 720/5/6
f 720/5/6 714/5/6 721/5/6
f 714/4/6 715/4/6 722/4/6
f 721/5/6 714/5/6 722/5/6
f 716/5/6 717/5/6 723/5/6
f 722/4/6 715/4/6 723/4/6
f 715/5/6 716/5/6 723/5/6
f 723/5/6 717/5/6 724/5/6
f 717/6/6 718/6/6 725/6/6
f 724/5/6 717/5/6 725/5/6
f 725/6/6 718/6/6 726/6/6
f 720/5/6 721/5/6 727/5/6
f 719/5/6 720/5/6 727/5/6
f 727/5/6 721/5/6 728/5/6
f 723/4/6 724/4/6 729/4/6
f 728/5/6 721/5/6 729/5/6
f 721/4/6 722/4/6 729/4/6
f 722/4/6 723/4/6 729/4/6
f 725/5/6 726/5/6 730/5/6
f 729/4/6 724/4/6 730/4/6
f 724/5/6 725/5/6 730/5/6
f 730/5/6 726/5/6 731/5/6
f 731/5/6 726/5/6 732/5/6
f 727/5/6 728/5/6 733/5/6
f 728/4/6 729/4/6 734/4/6
f 733/5/6 728/5/6 734/5/6
f 729/4/6 730/4/6 734/4/6
f 730/4/6 731/4/6 734/4/6
f 731/5/6 732/5/6 735/5/6
f 734/4/6 731/4/6 735/4/6
f 735/5/6 732/5/6 736/5/6
f 727/5/6 733/5/6 737/5/6
f 733/4/6 734/4/6 738/4/6
f 737/5/6 733/5/6 738/5/6
f 734/4/6 735/4/6 738/4/6
f 735/4/6 736/4/6 738/4/6
f 736/5/6 732/5/6 739/5/6
f 738/4/6 736/4/6 739/4/6
f 739/5/6 732/5/6 740/5/6
f 738/4/6 739/4/6 742/4/6
f 742/4/6 739/4/6 743/4/6
f 741/5/6 742/5/6 745/5/6
f 742/4/6 743/4/6 745/4/6
f 745/4/6 743/4/6 746/4/6
f 746/4/6 743/4/6 747/4/6
f 743/5/6 744/5/6 748/5/6
f 747/4/6 743/4/6 748/4/6
f 741/5/6 745/5/6 749/5/6
f 745/5/6 746/5/6 749/5/6
f 746/4/6 747/4/6 750/4/6
f 749/5/6 746/5/6 750/5/6
f 750/4/6 747/4/6 751/4/6
f 751/4/6 747/4/6 752/4/6
f 747/5/6 748/5/6 753/5/6
f 752/4/6 747/4/6 753/4/6
f 748/5/6 744/5/6 754/5/6
f 753/5/6 748/5/6 754/5/6
f 749/5/6 750/5/6 755/5/6
f 750/5/6 751/5/6 755/5/6
f 755/5/6 751/5/6 756/5/6
f 751/4/6 752/4/6 757/4/6
f 756/5/6 751/5/6 757/5/6
f 757/4/6 752/4/6 758/4/6
f 758/4/6 752/4/6 759/4/6
f 752/5/6 753/5/6 760/5/6
f 759/4/6 752/4/6 760/4/6
f 753/5/6 754/5/6 760/5/6
f 760/5/6 754/5/6 761/5/6
f 761/5/6 754/5/6 762/5/6
f 755/6/6 756/6/6 763/6/6
f 757/5/6 758/5/6 764/5/6
f 763/6/6 756/6/6 764/6/6
f 756/5/6 757/5/6 764/5/6
f 764/5/6 758/5/6 765/5/6
f 758/4/6 759/4/6 766/4/6
f 765/5/6 758/5/6 766/5/6
f 759/5/6 760/5/6 767/5/6
f 766/4/6 759/4/6 767/4/6
f 760/5/6 761/5/6 767/5/6
f 767/5/6 761/5/6 768/5/6
f 761/6/6 762/6/6 769/6/6
f 768/5/6 761/5/6 769/5/6
f 769/6/6 762/6/6 770/6/6
f 764/6/6 765/6/6 771/6/6
f 767/5/6 768/5/6 772/5/6
f 771/6/6 765/6/6 772/6/6
f 765/5/6 766/5/6 772/5/6
f 766/5/6 767/5/6 772/5/6
f 772/5/6 768/5/6 773/5/6
f 773/5/6 768/5/6 774/5/6
f 768/6/6 769/6/6 775/6/6
f 774/5/6 768/5/6 775/5/6
f 775/6/6 769/6/6 776/6/6
f 777/4/6 778/4/6 786/4/6
f 778/2/6 779/2/6 787/2/6
f 786/4/6 778/4/6 787/4/6
f 779/3/6 780/3/6 788/3/6
f 787/2/6 779/2/6 788/2/6
f 780/2/6 781/2/6 789/2/6
f 788/3/6 780/3/6 789/3/6
f 781/3/6 782/3/6 790/3/6
f 789/2/6 781/2/6 790/2/6
f 782/2/6 783/2/6 791/2/6
f 790/3/6 782/3/6 791/3/6
f 783/4/6 784/4/6 792/4/6
f 791/2/6 783/2/6 792/2/6
f 792/4/6 784/4/6 793/4/6
f 785/4/6 786/4/6 795/4/6
f 786/4/6 787/4/6 795/4/6
f 795/4/6 787/4/6 796/4/6
f 796/4/6 787/4/6 797/4/6
f 793/4/6 794/4/6 798/4/6
f 792/4/6 793/4/6 798/4/6
f 798/4/6 794/4/6 799/4/6
f 799/4/6 794/4/6 800/4/6
f 799/2/6 800/2/6 801/2/6
f 801/2/6 800/2/6 802/2/6
f 801/3/6 802/3/6 803/3/6
f 803/3/6 802/3/6 804/3/6
f 795/2/6 796/2/6 805/2/6
f 805/2/6 796/2/6 806/2/6
f 805/3/6 806/3/6 807/3/6
f 807/3/6 806/3/6 808/3/6
f 803/2/6 804/2/6 809/2/6
f 809/2/6 804/2/6 810/2/6
f 807/2/6 808/2/6 811/2/6
f 811/2/6 808/2/6 812/2/6
f 809/3/6 810/3/6 813/3/6
f 813/3/6 810/3/6 814/3/6
f 817/2/6 818/2/6 819/2/6
f 819/2/6 818/2/6 820/2/6
f 815/2/6 816/2/6 821/2/6
f 821/2/6 816/2/6 822/2/6
f 821/3/6 822/3/6 823/3/6
f 823/3/6 822/3/6 824/3/6
f 819/3/6 820/3/6 825/3/6
f 825/3/6 820/3/6 826/3/6
f 823/2/6 824/2/6 827/2/6
f 827/2/6 824/2/6 828/2/6
f 827/3/6 828/3/6 829/3/6
f 829/3/6 828/3/6 830/3/6
f 825/2/6 826/2/6 833/2/6
f 833/2/6 826/2/6 834/2/6
f 830/4/6 831/4/6 835/4/6
f 829/4/6 830/4/6 835/4/6
f 835/4/6 831/4/6 836/4/6
f 836/4/6 831/4/6 837/4/6
f 833/4/6 834/4/6 844/4/6
f 832/4/6 833/4/6 844/4/6
f 844/4/6 834/4/6 845/4/6
f 845/4/6 834/4/6 846/4/6
f 836/4/6 837/4/6 847/4/6
f 837/2/6 838/2/6 848/2/6
f 847/4/6 837/4/6 848/4/6
f 838/3/6 839/3/6 849/3/6
f 848/2/6 838/2/6 849/2/6
f 839/2/6 840/2/6 850/2/6
f 849/3/6 839/3/6 850/3/6
f 840/3/6 841/3/6 851/3/6
f 850/2/6 840/2/6 851/2/6
f 841/2/6 842/2/6 852/2/6
f 851/3/6 841/3/6 852/3/6
f 842/3/6 843/3/6 853/3/6
f 852/2/6 842/2/6 853/2/6
f 843/2/6 844/2/6 854/2/6
f 853/3/6 843/3/6 854/3/6
f 844/4/6 845/4/6 855/4/6
f 854/2/6 844/2/6 855/2/6
f 855/4/6 845/4/6 856/4/6
f 857/4/6 858/4/6 861/4/6
f 861/4/6 858/4/6 862/4/6
f 859/4/6 860/4/6 863/4/6
f 863/4/6 860/4/6 864/4/6
f 865/3/6 866/3/6 869/3/6
f 869/3/6 866/3/6 870/3/6
f 867/2/6 868/2/6 871/2/6
f 871/2/6 868/2/6 872/2/6
