# MagicaVoxel @ Ephtracy

# group
o 

# material
mtllib WalkWayTEX.mtl
usemtl palette

# normals
vn -1 0 0
vn 1 0 0
vn 0 0 1
vn 0 0 -1
vn 0 -1 0
vn 0 1 0

# texcoords
vt 0.943359 0.5
vt 0.947266 0.5
vt 0.978516 0.5

# verts
v 0 2 -0.2
v 0 2 -0.3
v 0 2 -0.4
v 0 2 -0.5
v 0 2.1 -0.2
v 0 2.1 -0.3
v 0 2.1 -0.4
v 0 2.1 -0.5
v 0.1 2 -0.1
v 0.1 2 -0.2
v 0.1 2 -0.5
v 0.1 2 -0.6
v 0.1 2.1 -0.1
v 0.1 2.1 -0.2
v 0.1 2.1 -0.5
v 0.1 2.1 -0.6
v 0.2 2 0
v 0.2 2 -0.1
v 0.2 2 -0.6
v 0.2 2 -0.7
v 0.2 2.1 0
v 0.2 2.1 -0.1
v 0.2 2.1 -0.6
v 0.2 2.1 -0.7
v 0.4 2 0
v 0.4 2 -0.1
v 0.4 2 -0.6
v 0.4 2 -0.7
v 0.4 2.1 0
v 0.4 2.1 -0.1
v 0.4 2.1 -0.6
v 0.4 2.1 -0.7
v 0.5 2 -0.1
v 0.5 2 -0.3
v 0.5 2 -0.6
v 0.5 2.1 -0.1
v 0.5 2.1 -0.3
v 0.5 2.1 -0.6
v 0.2 2 0
v 0.2 2.1 0
v 0.3 2 0
v 0.3 2.1 0
v 0.4 2 0
v 0.4 2.1 0
v 0.1 2 -0.1
v 0.1 2.1 -0.1
v 0.2 2 -0.1
v 0.2 2.1 -0.1
v 0.4 2 -0.1
v 0.4 2.1 -0.1
v 0.5 2 -0.1
v 0.5 2.1 -0.1
v 0 2 -0.2
v 0 2.1 -0.2
v 0.1 2 -0.2
v 0.1 2.1 -0.2
v 0 2 -0.5
v 0 2.1 -0.5
v 0.1 2 -0.5
v 0.1 2.1 -0.5
v 0.1 2 -0.6
v 0.1 2.1 -0.6
v 0.2 2 -0.6
v 0.2 2.1 -0.6
v 0.4 2 -0.6
v 0.4 2.1 -0.6
v 0.5 2 -0.6
v 0.5 2.1 -0.6
v 0.2 2 -0.7
v 0.2 2.1 -0.7
v 0.3 2 -0.7
v 0.3 2.1 -0.7
v 0.4 2 -0.7
v 0.4 2.1 -0.7
v 0.2 2 0
v 0.3 2 0
v 0.4 2 0
v 0.1 2 -0.1
v 0.2 2 -0.1
v 0.3 2 -0.1
v 0.4 2 -0.1
v 0.5 2 -0.1
v 0 2 -0.2
v 0.1 2 -0.2
v 0.2 2 -0.2
v 0.4 2 -0.2
v 0 2 -0.3
v 0.1 2 -0.3
v 0.2 2 -0.3
v 0.3 2 -0.3
v 0.4 2 -0.3
v 0.5 2 -0.3
v 0 2 -0.4
v 0.1 2 -0.4
v 0.2 2 -0.4
v 0.3 2 -0.4
v 0.4 2 -0.4
v 0 2 -0.5
v 0.1 2 -0.5
v 0.2 2 -0.5
v 0.1 2 -0.6
v 0.2 2 -0.6
v 0.3 2 -0.6
v 0.4 2 -0.6
v 0.5 2 -0.6
v 0.2 2 -0.7
v 0.3 2 -0.7
v 0.4 2 -0.7
v 0.2 2.1 0
v 0.3 2.1 0
v 0.4 2.1 0
v 0.1 2.1 -0.1
v 0.2 2.1 -0.1
v 0.3 2.1 -0.1
v 0.4 2.1 -0.1
v 0.5 2.1 -0.1
v 0 2.1 -0.2
v 0.1 2.1 -0.2
v 0.2 2.1 -0.2
v 0.4 2.1 -0.2
v 0 2.1 -0.3
v 0.1 2.1 -0.3
v 0.2 2.1 -0.3
v 0.3 2.1 -0.3
v 0.4 2.1 -0.3
v 0.5 2.1 -0.3
v 0 2.1 -0.4
v 0.1 2.1 -0.4
v 0.2 2.1 -0.4
v 0.3 2.1 -0.4
v 0.4 2.1 -0.4
v 0 2.1 -0.5
v 0.1 2.1 -0.5
v 0.2 2.1 -0.5
v 0.1 2.1 -0.6
v 0.2 2.1 -0.6
v 0.3 2.1 -0.6
v 0.4 2.1 -0.6
v 0.5 2.1 -0.6
v 0.2 2.1 -0.7
v 0.3 2.1 -0.7
v 0.4 2.1 -0.7

# faces
f 5/3/1 2/3/1 1/3/1
f 6/2/1 3/2/1 2/2/1
f 6/3/1 2/3/1 5/3/1
f 7/1/1 4/1/1 3/1/1
f 7/2/1 3/2/1 6/2/1
f 8/1/1 4/1/1 7/1/1
f 13/2/1 10/2/1 9/2/1
f 14/2/1 10/2/1 13/2/1
f 15/1/1 12/1/1 11/1/1
f 16/1/1 12/1/1 15/1/1
f 21/1/1 18/1/1 17/1/1
f 22/1/1 18/1/1 21/1/1
f 23/1/1 20/1/1 19/1/1
f 24/1/1 20/1/1 23/1/1
f 25/3/2 26/3/2 29/3/2
f 29/3/2 26/3/2 30/3/2
f 27/2/2 28/2/2 31/2/2
f 31/2/2 28/2/2 32/2/2
f 33/3/2 34/3/2 36/3/2
f 34/1/2 35/1/2 37/1/2
f 36/3/2 34/3/2 37/3/2
f 37/1/2 35/1/2 38/1/2
f 41/1/3 40/1/3 39/1/3
f 42/1/3 40/1/3 41/1/3
f 43/3/3 42/3/3 41/3/3
f 44/3/3 42/3/3 43/3/3
f 47/2/3 46/2/3 45/2/3
f 48/2/3 46/2/3 47/2/3
f 51/3/3 50/3/3 49/3/3
f 52/3/3 50/3/3 51/3/3
f 55/3/3 54/3/3 53/3/3
f 56/3/3 54/3/3 55/3/3
f 57/1/4 58/1/4 59/1/4
f 59/1/4 58/1/4 60/1/4
f 61/1/4 62/1/4 63/1/4
f 63/1/4 62/1/4 64/1/4
f 65/1/4 66/1/4 67/1/4
f 67/1/4 66/1/4 68/1/4
f 69/1/4 70/1/4 71/1/4
f 71/1/4 70/1/4 72/1/4
f 71/2/4 72/2/4 73/2/4
f 73/2/4 72/2/4 74/2/4
f 79/1/5 76/1/5 75/1/5
f 80/3/5 77/3/5 76/3/5
f 80/1/5 76/1/5 79/1/5
f 81/3/5 77/3/5 80/3/5
f 84/2/5 79/2/5 78/2/5
f 85/1/5 80/1/5 79/1/5
f 85/1/5 81/1/5 80/1/5
f 85/2/5 79/2/5 84/2/5
f 86/3/5 82/3/5 81/3/5
f 86/1/5 81/1/5 85/1/5
f 87/3/5 84/3/5 83/3/5
f 88/1/5 85/1/5 84/1/5
f 88/3/5 84/3/5 87/3/5
f 89/3/5 86/3/5 85/3/5
f 89/1/5 85/1/5 88/1/5
f 90/3/5 86/3/5 89/3/5
f 91/3/5 82/3/5 86/3/5
f 91/3/5 86/3/5 90/3/5
f 92/3/5 82/3/5 91/3/5
f 93/2/5 88/2/5 87/2/5
f 93/2/5 89/2/5 88/2/5
f 94/2/5 89/2/5 93/2/5
f 95/1/5 90/1/5 89/1/5
f 95/2/5 89/2/5 94/2/5
f 96/3/5 91/3/5 90/3/5
f 96/1/5 90/1/5 95/1/5
f 97/1/5 92/1/5 91/1/5
f 97/3/5 91/3/5 96/3/5
f 98/1/5 94/1/5 93/1/5
f 99/3/5 96/3/5 95/3/5
f 99/1/5 94/1/5 98/1/5
f 99/3/5 95/3/5 94/3/5
f 100/3/5 96/3/5 99/3/5
f 101/1/5 100/1/5 99/1/5
f 102/3/5 96/3/5 100/3/5
f 102/1/5 100/1/5 101/1/5
f 103/1/5 97/1/5 96/1/5
f 103/3/5 96/3/5 102/3/5
f 104/1/5 92/1/5 97/1/5
f 104/1/5 97/1/5 103/1/5
f 105/1/5 92/1/5 104/1/5
f 106/1/5 103/1/5 102/1/5
f 107/2/5 104/2/5 103/2/5
f 107/1/5 103/1/5 106/1/5
f 108/2/5 104/2/5 107/2/5
f 109/1/6 110/1/6 113/1/6
f 110/3/6 111/3/6 114/3/6
f 113/1/6 110/1/6 114/1/6
f 114/3/6 111/3/6 115/3/6
f 112/2/6 113/2/6 118/2/6
f 113/1/6 114/1/6 119/1/6
f 114/1/6 115/1/6 119/1/6
f 118/2/6 113/2/6 119/2/6
f 115/3/6 116/3/6 120/3/6
f 119/1/6 115/1/6 120/1/6
f 117/3/6 118/3/6 121/3/6
f 118/1/6 119/1/6 122/1/6
f 121/3/6 118/3/6 122/3/6
f 119/3/6 120/3/6 123/3/6
f 122/1/6 119/1/6 123/1/6
f 123/3/6 120/3/6 124/3/6
f 120/3/6 116/3/6 125/3/6
f 124/3/6 120/3/6 125/3/6
f 125/3/6 116/3/6 126/3/6
f 121/2/6 122/2/6 127/2/6
f 122/2/6 123/2/6 127/2/6
f 127/2/6 123/2/6 128/2/6
f 123/1/6 124/1/6 129/1/6
f 128/2/6 123/2/6 129/2/6
f 124/3/6 125/3/6 130/3/6
f 129/1/6 124/1/6 130/1/6
f 125/1/6 126/1/6 131/1/6
f 130/3/6 125/3/6 131/3/6
f 127/1/6 128/1/6 132/1/6
f 129/3/6 130/3/6 133/3/6
f 132/1/6 128/1/6 133/1/6
f 128/3/6 129/3/6 133/3/6
f 133/3/6 130/3/6 134/3/6
f 133/1/6 134/1/6 135/1/6
f 134/3/6 130/3/6 136/3/6
f 135/1/6 134/1/6 136/1/6
f 130/1/6 131/1/6 137/1/6
f 136/3/6 130/3/6 137/3/6
f 131/1/6 126/1/6 138/1/6
f 137/1/6 131/1/6 138/1/6
f 138/1/6 126/1/6 139/1/6
f 136/1/6 137/1/6 140/1/6
f 137/2/6 138/2/6 141/2/6
f 140/1/6 137/1/6 141/1/6
f 141/2/6 138/2/6 142/2/6
