# MagicaVoxel @ Ephtracy

# group
o 

# material
mtllib SmithingHouse3Wall.mtl
usemtl palette

# normals
vn -1 0 0
vn 1 0 0
vn 0 0 1
vn 0 0 -1
vn 0 -1 0
vn 0 1 0

# texcoords
vt 0.974609 0.5
vt 0.982422 0.5

# verts
v 0 2.1 -0.3
v 0 2.1 -0.4
v 0 2.1 -0.9
v 0 2.1 -1
v 0 2.9 -0.4
v 0 2.9 -0.5
v 0 2.9 -0.8
v 0 2.9 -0.9
v 0 3 -0.3
v 0 3 -0.4
v 0 3 -0.5
v 0 3 -0.8
v 0 3 -0.9
v 0 3 -1
v 0 3.1 -0.4
v 0 3.1 -0.9
v 0 3.5 -0.1
v 0 3.5 -2.1
v 0 3.7 -0.1
v 0 3.7 -2.1
v 0.1 2 -0.1
v 0.1 2 -0.4
v 0.1 2 -0.9
v 0.1 2 -2.1
v 0.1 2.1 -0.3
v 0.1 2.1 -0.4
v 0.1 2.1 -0.9
v 0.1 2.1 -1
v 0.1 2.3 0
v 0.1 2.3 -0.1
v 0.1 2.3 -2.1
v 0.1 2.3 -2.2
v 0.1 3 -0.3
v 0.1 3 -0.4
v 0.1 3 -0.9
v 0.1 3 -1
v 0.1 3.1 -0.4
v 0.1 3.1 -0.9
v 0.1 3.5 0
v 0.1 3.5 -0.1
v 0.1 3.5 -2.1
v 0.1 3.5 -2.2
v 0.2 2 -0.1
v 0.2 2 -0.4
v 0.2 2 -0.9
v 0.2 2 -2.1
v 0.2 2.1 -0.3
v 0.2 2.1 -0.4
v 0.2 2.1 -0.9
v 0.2 2.1 -1
v 0.2 2.3 0
v 0.2 2.3 -0.1
v 0.2 2.3 -2.1
v 0.2 2.3 -2.2
v 0.2 3 -0.3
v 0.2 3 -0.4
v 0.2 3 -0.9
v 0.2 3 -1
v 0.2 3.1 -0.4
v 0.2 3.1 -0.9
v 0.2 3.5 0
v 0.2 3.5 -0.1
v 0.2 3.5 -2.1
v 0.2 3.5 -2.2
v 0.3 2.1 -0.3
v 0.3 2.1 -0.4
v 0.3 2.1 -0.9
v 0.3 2.1 -1
v 0.3 2.9 -0.4
v 0.3 2.9 -0.5
v 0.3 2.9 -0.8
v 0.3 2.9 -0.9
v 0.3 3 -0.3
v 0.3 3 -0.4
v 0.3 3 -0.5
v 0.3 3 -0.8
v 0.3 3 -0.9
v 0.3 3 -1
v 0.3 3.1 -0.4
v 0.3 3.1 -0.9
v 0.3 3.5 -0.1
v 0.3 3.5 -2.1
v 0.3 3.7 -0.1
v 0.3 3.7 -2.1
v 0.1 2.3 0
v 0.1 3.5 0
v 0.2 2.3 0
v 0.2 3.5 0
v 0 3.5 -0.1
v 0 3.7 -0.1
v 0.1 2 -0.1
v 0.1 2.3 -0.1
v 0.1 3.5 -0.1
v 0.2 2 -0.1
v 0.2 2.3 -0.1
v 0.2 3.5 -0.1
v 0.3 3.5 -0.1
v 0.3 3.7 -0.1
v 0 2.1 -0.3
v 0 3 -0.3
v 0.1 2.1 -0.3
v 0.1 3 -0.3
v 0.2 2.1 -0.3
v 0.2 3 -0.3
v 0.3 2.1 -0.3
v 0.3 3 -0.3
v 0 3 -0.4
v 0 3.1 -0.4
v 0.1 3 -0.4
v 0.1 3.1 -0.4
v 0.2 3 -0.4
v 0.2 3.1 -0.4
v 0.3 3 -0.4
v 0.3 3.1 -0.4
v 0 2.9 -0.8
v 0 3 -0.8
v 0.3 2.9 -0.8
v 0.3 3 -0.8
v 0 2.1 -0.9
v 0 2.9 -0.9
v 0.1 2.1 -0.9
v 0.2 2.1 -0.9
v 0.3 2.1 -0.9
v 0.3 2.9 -0.9
v 0 2.1 -0.4
v 0 2.9 -0.4
v 0.1 2.1 -0.4
v 0.2 2.1 -0.4
v 0.3 2.1 -0.4
v 0.3 2.9 -0.4
v 0 2.9 -0.5
v 0 3 -0.5
v 0.3 2.9 -0.5
v 0.3 3 -0.5
v 0 3 -0.9
v 0 3.1 -0.9
v 0.1 3 -0.9
v 0.1 3.1 -0.9
v 0.2 3 -0.9
v 0.2 3.1 -0.9
v 0.3 3 -0.9
v 0.3 3.1 -0.9
v 0 2.1 -1
v 0 3 -1
v 0.1 2.1 -1
v 0.1 3 -1
v 0.2 2.1 -1
v 0.2 3 -1
v 0.3 2.1 -1
v 0.3 3 -1
v 0 3.5 -2.1
v 0 3.7 -2.1
v 0.1 2 -2.1
v 0.1 2.3 -2.1
v 0.1 3.5 -2.1
v 0.2 2 -2.1
v 0.2 2.3 -2.1
v 0.2 3.5 -2.1
v 0.3 3.5 -2.1
v 0.3 3.7 -2.1
v 0.1 2.3 -2.2
v 0.1 3.5 -2.2
v 0.2 2.3 -2.2
v 0.2 3.5 -2.2
v 0.1 2 -0.1
v 0.2 2 -0.1
v 0.1 2 -0.4
v 0.2 2 -0.4
v 0.1 2 -0.9
v 0.2 2 -0.9
v 0.1 2 -2.1
v 0.2 2 -2.1
v 0 2.1 -0.3
v 0.1 2.1 -0.3
v 0.2 2.1 -0.3
v 0.3 2.1 -0.3
v 0 2.1 -0.4
v 0.1 2.1 -0.4
v 0.2 2.1 -0.4
v 0.3 2.1 -0.4
v 0 2.1 -0.9
v 0.1 2.1 -0.9
v 0.2 2.1 -0.9
v 0.3 2.1 -0.9
v 0 2.1 -1
v 0.1 2.1 -1
v 0.2 2.1 -1
v 0.3 2.1 -1
v 0.1 2.3 0
v 0.2 2.3 0
v 0.1 2.3 -0.1
v 0.2 2.3 -0.1
v 0.1 2.3 -2.1
v 0.2 2.3 -2.1
v 0.1 2.3 -2.2
v 0.2 2.3 -2.2
v 0 2.9 -0.4
v 0.3 2.9 -0.4
v 0 2.9 -0.5
v 0.3 2.9 -0.5
v 0 2.9 -0.8
v 0.3 2.9 -0.8
v 0 2.9 -0.9
v 0.3 2.9 -0.9
v 0 3 -0.5
v 0.3 3 -0.5
v 0 3 -0.8
v 0.3 3 -0.8
v 0 3.5 -0.1
v 0.1 3.5 -0.1
v 0.2 3.5 -0.1
v 0.3 3.5 -0.1
v 0 3.5 -2.1
v 0.1 3.5 -2.1
v 0.2 3.5 -2.1
v 0.3 3.5 -2.1
v 0.1 2.1 -0.4
v 0.2 2.1 -0.4
v 0.1 2.1 -0.9
v 0.2 2.1 -0.9
v 0 3 -0.3
v 0.1 3 -0.3
v 0.2 3 -0.3
v 0.3 3 -0.3
v 0 3 -0.4
v 0.1 3 -0.4
v 0.2 3 -0.4
v 0.3 3 -0.4
v 0 3 -0.9
v 0.1 3 -0.9
v 0.2 3 -0.9
v 0.3 3 -0.9
v 0 3 -1
v 0.1 3 -1
v 0.2 3 -1
v 0.3 3 -1
v 0 3.1 -0.4
v 0.1 3.1 -0.4
v 0.2 3.1 -0.4
v 0.3 3.1 -0.4
v 0 3.1 -0.9
v 0.1 3.1 -0.9
v 0.2 3.1 -0.9
v 0.3 3.1 -0.9
v 0.1 3.5 0
v 0.2 3.5 0
v 0.1 3.5 -0.1
v 0.2 3.5 -0.1
v 0.1 3.5 -2.1
v 0.2 3.5 -2.1
v 0.1 3.5 -2.2
v 0.2 3.5 -2.2
v 0 3.7 -0.1
v 0.3 3.7 -0.1
v 0 3.7 -2.1
v 0.3 3.7 -2.1

# faces
f 5/2/1 2/2/1 1/2/1
f 8/2/1 4/2/1 3/2/1
f 9/2/1 6/2/1 5/2/1
f 9/2/1 5/2/1 1/2/1
f 10/2/1 6/2/1 9/2/1
f 11/2/1 6/2/1 10/2/1
f 12/2/1 8/2/1 7/2/1
f 13/2/1 4/2/1 8/2/1
f 13/2/1 8/2/1 12/2/1
f 14/2/1 4/2/1 13/2/1
f 15/2/1 11/2/1 10/2/1
f 15/2/1 12/2/1 11/2/1
f 15/2/1 13/2/1 12/2/1
f 16/2/1 13/2/1 15/2/1
f 19/2/1 18/2/1 17/2/1
f 20/2/1 18/2/1 19/2/1
f 25/1/1 22/1/1 21/1/1
f 26/2/1 23/2/1 22/2/1
f 26/1/1 22/1/1 25/1/1
f 27/1/1 24/1/1 23/1/1
f 27/2/1 23/2/1 26/2/1
f 28/1/1 24/1/1 27/1/1
f 30/1/1 25/1/1 21/1/1
f 31/1/1 24/1/1 28/1/1
f 33/1/1 30/1/1 29/1/1
f 33/1/1 25/1/1 30/1/1
f 36/1/1 32/1/1 31/1/1
f 36/1/1 31/1/1 28/1/1
f 37/1/1 34/1/1 33/1/1
f 38/1/1 36/1/1 35/1/1
f 39/1/1 37/1/1 33/1/1
f 39/1/1 38/1/1 37/1/1
f 39/1/1 33/1/1 29/1/1
f 40/1/1 38/1/1 39/1/1
f 41/1/1 36/1/1 38/1/1
f 41/1/1 38/1/1 40/1/1
f 41/1/1 32/1/1 36/1/1
f 42/1/1 32/1/1 41/1/1
f 43/1/2 44/1/2 47/1/2
f 44/2/2 45/2/2 48/2/2
f 47/1/2 44/1/2 48/1/2
f 45/1/2 46/1/2 49/1/2
f 48/2/2 45/2/2 49/2/2
f 49/1/2 46/1/2 50/1/2
f 43/1/2 47/1/2 52/1/2
f 50/1/2 46/1/2 53/1/2
f 51/1/2 52/1/2 55/1/2
f 52/1/2 47/1/2 55/1/2
f 53/1/2 54/1/2 58/1/2
f 50/1/2 53/1/2 58/1/2
f 55/1/2 56/1/2 59/1/2
f 57/1/2 58/1/2 60/1/2
f 55/1/2 59/1/2 61/1/2
f 59/1/2 60/1/2 61/1/2
f 51/1/2 55/1/2 61/1/2
f 61/1/2 60/1/2 62/1/2
f 60/1/2 58/1/2 63/1/2
f 62/1/2 60/1/2 63/1/2
f 58/1/2 54/1/2 63/1/2
f 63/1/2 54/1/2 64/1/2
f 65/2/2 66/2/2 69/2/2
f 67/2/2 68/2/2 72/2/2
f 69/2/2 70/2/2 73/2/2
f 65/2/2 69/2/2 73/2/2
f 73/2/2 70/2/2 74/2/2
f 74/2/2 70/2/2 75/2/2
f 71/2/2 72/2/2 76/2/2
f 72/2/2 68/2/2 77/2/2
f 76/2/2 72/2/2 77/2/2
f 77/2/2 68/2/2 78/2/2
f 74/2/2 75/2/2 79/2/2
f 75/2/2 76/2/2 79/2/2
f 76/2/2 77/2/2 79/2/2
f 79/2/2 77/2/2 80/2/2
f 81/2/2 82/2/2 83/2/2
f 83/2/2 82/2/2 84/2/2
f 87/1/3 86/1/3 85/1/3
f 88/1/3 86/1/3 87/1/3
f 93/2/3 90/2/3 89/2/3
f 94/1/3 92/1/3 91/1/3
f 95/1/3 92/1/3 94/1/3
f 96/2/3 90/2/3 93/2/3
f 97/2/3 90/2/3 96/2/3
f 98/2/3 90/2/3 97/2/3
f 101/2/3 100/2/3 99/2/3
f 102/2/3 100/2/3 101/2/3
f 105/2/3 104/2/3 103/2/3
f 106/2/3 104/2/3 105/2/3
f 109/2/3 108/2/3 107/2/3
f 110/2/3 108/2/3 109/2/3
f 113/2/3 112/2/3 111/2/3
f 114/2/3 112/2/3 113/2/3
f 117/2/3 116/2/3 115/2/3
f 118/2/3 116/2/3 117/2/3
f 121/2/3 120/2/3 119/2/3
f 122/2/3 120/2/3 121/2/3
f 123/2/3 120/2/3 122/2/3
f 124/2/3 120/2/3 123/2/3
f 125/2/4 126/2/4 127/2/4
f 127/2/4 126/2/4 128/2/4
f 128/2/4 126/2/4 129/2/4
f 129/2/4 126/2/4 130/2/4
f 131/2/4 132/2/4 133/2/4
f 133/2/4 132/2/4 134/2/4
f 135/2/4 136/2/4 137/2/4
f 137/2/4 136/2/4 138/2/4
f 139/2/4 140/2/4 141/2/4
f 141/2/4 140/2/4 142/2/4
f 143/2/4 144/2/4 145/2/4
f 145/2/4 144/2/4 146/2/4
f 147/2/4 148/2/4 149/2/4
f 149/2/4 148/2/4 150/2/4
f 151/2/4 152/2/4 155/2/4
f 153/1/4 154/1/4 156/1/4
f 156/1/4 154/1/4 157/1/4
f 155/2/4 152/2/4 158/2/4
f 158/2/4 152/2/4 159/2/4
f 159/2/4 152/2/4 160/2/4
f 161/1/4 162/1/4 163/1/4
f 163/1/4 162/1/4 164/1/4
f 167/1/5 166/1/5 165/1/5
f 168/1/5 166/1/5 167/1/5
f 169/2/5 168/2/5 167/2/5
f 170/2/5 168/2/5 169/2/5
f 171/1/5 170/1/5 169/1/5
f 172/1/5 170/1/5 171/1/5
f 177/2/5 174/2/5 173/2/5
f 178/2/5 174/2/5 177/2/5
f 179/2/5 176/2/5 175/2/5
f 180/2/5 176/2/5 179/2/5
f 185/2/5 182/2/5 181/2/5
f 186/2/5 182/2/5 185/2/5
f 187/2/5 184/2/5 183/2/5
f 188/2/5 184/2/5 187/2/5
f 191/1/5 190/1/5 189/1/5
f 192/1/5 190/1/5 191/1/5
f 195/1/5 194/1/5 193/1/5
f 196/1/5 194/1/5 195/1/5
f 199/2/5 198/2/5 197/2/5
f 200/2/5 198/2/5 199/2/5
f 203/2/5 202/2/5 201/2/5
f 204/2/5 202/2/5 203/2/5
f 207/2/5 206/2/5 205/2/5
f 208/2/5 206/2/5 207/2/5
f 213/2/5 210/2/5 209/2/5
f 214/2/5 210/2/5 213/2/5
f 215/2/5 212/2/5 211/2/5
f 216/2/5 212/2/5 215/2/5
f 217/2/6 218/2/6 219/2/6
f 219/2/6 218/2/6 220/2/6
f 221/2/6 222/2/6 225/2/6
f 225/2/6 222/2/6 226/2/6
f 223/2/6 224/2/6 227/2/6
f 227/2/6 224/2/6 228/2/6
f 229/2/6 230/2/6 233/2/6
f 233/2/6 230/2/6 234/2/6
f 231/2/6 232/2/6 235/2/6
f 235/2/6 232/2/6 236/2/6
f 237/2/6 238/2/6 241/2/6
f 241/2/6 238/2/6 242/2/6
f 239/2/6 240/2/6 243/2/6
f 243/2/6 240/2/6 244/2/6
f 245/1/6 246/1/6 247/1/6
f 247/1/6 246/1/6 248/1/6
f 249/1/6 250/1/6 251/1/6
f 251/1/6 250/1/6 252/1/6
f 253/2/6 254/2/6 255/2/6
f 255/2/6 254/2/6 256/2/6
