# MagicaVoxel @ Ephtracy

# group
o 

# material
mtllib SmithingHouse1Wall.mtl
usemtl palette

# normals
vn -1 0 0
vn 1 0 0
vn 0 0 1
vn 0 0 -1
vn 0 -1 0
vn 0 1 0

# texcoords
vt 0.974609 0.5
vt 0.982422 0.5

# verts
v 0 2.1 -0.3
v 0 2.1 -0.4
v 0 2.1 -0.9
v 0 2.1 -1
v 0 2.4 -1.3
v 0 2.4 -1.9
v 0 2.5 -1.2
v 0 2.5 -1.3
v 0 2.5 -1.9
v 0 2.5 -2
v 0 2.9 -0.4
v 0 2.9 -0.5
v 0 2.9 -0.8
v 0 2.9 -0.9
v 0 2.9 -1.3
v 0 2.9 -1.4
v 0 2.9 -1.8
v 0 2.9 -1.9
v 0 3 -0.3
v 0 3 -0.4
v 0 3 -0.5
v 0 3 -0.8
v 0 3 -0.9
v 0 3 -1
v 0 3 -1.2
v 0 3 -1.3
v 0 3 -1.4
v 0 3 -1.8
v 0 3 -1.9
v 0 3 -2
v 0 3.1 -0.4
v 0 3.1 -0.9
v 0 3.1 -1.3
v 0 3.1 -1.9
v 0 3.5 -0.1
v 0 3.5 -2.1
v 0 3.7 -0.1
v 0 3.7 -2.1
v 0.1 2 -0.1
v 0.1 2 -0.4
v 0.1 2 -0.9
v 0.1 2 -2.1
v 0.1 2.1 -0.3
v 0.1 2.1 -0.4
v 0.1 2.1 -0.9
v 0.1 2.1 -1
v 0.1 2.3 0
v 0.1 2.3 -0.1
v 0.1 2.3 -2.1
v 0.1 2.3 -2.2
v 0.1 2.4 -1.3
v 0.1 2.4 -1.9
v 0.1 2.5 -1.2
v 0.1 2.5 -1.3
v 0.1 2.5 -1.9
v 0.1 2.5 -2
v 0.1 3 -0.3
v 0.1 3 -0.4
v 0.1 3 -0.9
v 0.1 3 -1
v 0.1 3 -1.2
v 0.1 3 -1.3
v 0.1 3 -1.9
v 0.1 3 -2
v 0.1 3.1 -0.4
v 0.1 3.1 -0.9
v 0.1 3.1 -1.3
v 0.1 3.1 -1.9
v 0.1 3.5 0
v 0.1 3.5 -0.1
v 0.1 3.5 -2.1
v 0.1 3.5 -2.2
v 0.2 2.3 0
v 0.2 2.3 -0.1
v 0.2 2.3 -0.3
v 0.2 2.3 -1
v 0.2 2.3 -2.1
v 0.2 2.3 -2.2
v 0.2 2.4 -1.3
v 0.2 2.4 -1.9
v 0.2 2.5 -1.2
v 0.2 2.5 -1.3
v 0.2 2.5 -1.9
v 0.2 2.5 -2
v 0.2 3 -0.3
v 0.2 3 -0.4
v 0.2 3 -0.9
v 0.2 3 -1
v 0.2 3 -1.2
v 0.2 3 -1.3
v 0.2 3 -1.9
v 0.2 3 -2
v 0.2 3.1 -0.4
v 0.2 3.1 -0.9
v 0.2 3.1 -1.3
v 0.2 3.1 -1.9
v 0.2 3.5 0
v 0.2 3.5 -0.1
v 0.2 3.5 -2.1
v 0.2 3.5 -2.2
v 0.3 2 -0.1
v 0.3 2 -0.3
v 0.3 2 -1
v 0.3 2 -2.1
v 0.3 2.1 -0.3
v 0.3 2.1 -0.4
v 0.3 2.1 -0.9
v 0.3 2.1 -1
v 0.3 2.3 -0.1
v 0.3 2.3 -0.3
v 0.3 2.3 -1
v 0.3 2.3 -2.1
v 0.3 2.4 -1.3
v 0.3 2.4 -1.9
v 0.3 2.5 -1.2
v 0.3 2.5 -1.3
v 0.3 2.5 -1.9
v 0.3 2.5 -2
v 0.3 2.9 -0.4
v 0.3 2.9 -0.5
v 0.3 2.9 -0.8
v 0.3 2.9 -0.9
v 0.3 2.9 -1.3
v 0.3 2.9 -1.4
v 0.3 2.9 -1.8
v 0.3 2.9 -1.9
v 0.3 3 -0.3
v 0.3 3 -0.4
v 0.3 3 -0.5
v 0.3 3 -0.8
v 0.3 3 -0.9
v 0.3 3 -1
v 0.3 3 -1.2
v 0.3 3 -1.3
v 0.3 3 -1.4
v 0.3 3 -1.8
v 0.3 3 -1.9
v 0.3 3 -2
v 0.3 3.1 -0.4
v 0.3 3.1 -0.9
v 0.3 3.1 -1.3
v 0.3 3.1 -1.9
v 0.3 3.5 -0.1
v 0.3 3.5 -2.1
v 0.3 3.7 -0.1
v 0.3 3.7 -2.1
v 0.5 2 -0.3
v 0.5 2 -0.4
v 0.5 2 -0.9
v 0.5 2 -1
v 0.5 2.1 -0.3
v 0.5 2.1 -0.4
v 0.5 2.1 -0.9
v 0.5 2.1 -1
v 0.6 2 -0.4
v 0.6 2 -0.5
v 0.6 2 -0.8
v 0.6 2 -0.9
v 0.6 2.1 -0.4
v 0.6 2.1 -0.5
v 0.6 2.1 -0.8
v 0.6 2.1 -0.9
v 0.7 2 -0.5
v 0.7 2 -0.8
v 0.7 2.1 -0.5
v 0.7 2.1 -0.8
v 0.1 2.3 0
v 0.1 3.5 0
v 0.2 2.3 0
v 0.2 3.5 0
v 0 3.5 -0.1
v 0 3.7 -0.1
v 0.1 2 -0.1
v 0.1 2.3 -0.1
v 0.1 3.5 -0.1
v 0.2 2 -0.1
v 0.2 2.3 -0.1
v 0.2 3.5 -0.1
v 0.3 2 -0.1
v 0.3 2.3 -0.1
v 0.3 3.5 -0.1
v 0.3 3.7 -0.1
v 0 2.1 -0.3
v 0 3 -0.3
v 0.1 2.1 -0.3
v 0.1 3 -0.3
v 0.2 2.3 -0.3
v 0.2 3 -0.3
v 0.3 2 -0.3
v 0.3 2.1 -0.3
v 0.3 2.3 -0.3
v 0.3 3 -0.3
v 0.5 2 -0.3
v 0.5 2.1 -0.3
v 0 3 -0.4
v 0 3.1 -0.4
v 0.1 3 -0.4
v 0.1 3.1 -0.4
v 0.2 3 -0.4
v 0.2 3.1 -0.4
v 0.3 3 -0.4
v 0.3 3.1 -0.4
v 0.5 2 -0.4
v 0.5 2.1 -0.4
v 0.6 2 -0.4
v 0.6 2.1 -0.4
v 0.6 2 -0.5
v 0.6 2.1 -0.5
v 0.7 2 -0.5
v 0.7 2.1 -0.5
v 0 2.9 -0.8
v 0 3 -0.8
v 0.3 2.9 -0.8
v 0.3 3 -0.8
v 0 2.1 -0.9
v 0 2.9 -0.9
v 0.1 2.1 -0.9
v 0.2 2.1 -0.9
v 0.3 2.1 -0.9
v 0.3 2.9 -0.9
v 0 2.5 -1.2
v 0 3 -1.2
v 0.1 2.5 -1.2
v 0.1 3 -1.2
v 0.2 2.5 -1.2
v 0.2 3 -1.2
v 0.3 2.5 -1.2
v 0.3 3 -1.2
v 0 2.4 -1.3
v 0 2.5 -1.3
v 0 3 -1.3
v 0 3.1 -1.3
v 0.1 2.4 -1.3
v 0.1 2.5 -1.3
v 0.1 3 -1.3
v 0.1 3.1 -1.3
v 0.2 2.4 -1.3
v 0.2 2.5 -1.3
v 0.2 3 -1.3
v 0.2 3.1 -1.3
v 0.3 2.4 -1.3
v 0.3 2.5 -1.3
v 0.3 3 -1.3
v 0.3 3.1 -1.3
v 0 2.9 -1.8
v 0 3 -1.8
v 0.3 2.9 -1.8
v 0.3 3 -1.8
v 0 2.5 -1.9
v 0 2.9 -1.9
v 0.3 2.5 -1.9
v 0.3 2.9 -1.9
v 0 2.1 -0.4
v 0 2.9 -0.4
v 0.1 2.1 -0.4
v 0.2 2.1 -0.4
v 0.3 2.1 -0.4
v 0.3 2.9 -0.4
v 0 2.9 -0.5
v 0 3 -0.5
v 0.3 2.9 -0.5
v 0.3 3 -0.5
v 0.6 2 -0.8
v 0.6 2.1 -0.8
v 0.7 2 -0.8
v 0.7 2.1 -0.8
v 0 3 -0.9
v 0 3.1 -0.9
v 0.1 3 -0.9
v 0.1 3.1 -0.9
v 0.2 3 -0.9
v 0.2 3.1 -0.9
v 0.3 3 -0.9
v 0.3 3.1 -0.9
v 0.5 2 -0.9
v 0.5 2.1 -0.9
v 0.6 2 -0.9
v 0.6 2.1 -0.9
v 0 2.1 -1
v 0 3 -1
v 0.1 2.1 -1
v 0.1 3 -1
v 0.2 2.3 -1
v 0.2 3 -1
v 0.3 2 -1
v 0.3 2.1 -1
v 0.3 2.3 -1
v 0.3 3 -1
v 0.5 2 -1
v 0.5 2.1 -1
v 0 2.5 -1.3
v 0 2.9 -1.3
v 0.3 2.5 -1.3
v 0.3 2.9 -1.3
v 0 2.9 -1.4
v 0 3 -1.4
v 0.3 2.9 -1.4
v 0.3 3 -1.4
v 0 2.4 -1.9
v 0 2.5 -1.9
v 0 3 -1.9
v 0 3.1 -1.9
v 0.1 2.4 -1.9
v 0.1 2.5 -1.9
v 0.1 3 -1.9
v 0.1 3.1 -1.9
v 0.2 2.4 -1.9
v 0.2 2.5 -1.9
v 0.2 3 -1.9
v 0.2 3.1 -1.9
v 0.3 2.4 -1.9
v 0.3 2.5 -1.9
v 0.3 3 -1.9
v 0.3 3.1 -1.9
v 0 2.5 -2
v 0 3 -2
v 0.1 2.5 -2
v 0.1 3 -2
v 0.2 2.5 -2
v 0.2 3 -2
v 0.3 2.5 -2
v 0.3 3 -2
v 0 3.5 -2.1
v 0 3.7 -2.1
v 0.1 2 -2.1
v 0.1 2.3 -2.1
v 0.1 3.5 -2.1
v 0.2 2 -2.1
v 0.2 2.3 -2.1
v 0.2 3.5 -2.1
v 0.3 2 -2.1
v 0.3 2.3 -2.1
v 0.3 3.5 -2.1
v 0.3 3.7 -2.1
v 0.1 2.3 -2.2
v 0.1 3.5 -2.2
v 0.2 2.3 -2.2
v 0.2 3.5 -2.2
v 0.1 2 -0.1
v 0.2 2 -0.1
v 0.3 2 -0.1
v 0.3 2 -0.3
v 0.5 2 -0.3
v 0.1 2 -0.4
v 0.2 2 -0.4
v 0.3 2 -0.4
v 0.5 2 -0.4
v 0.6 2 -0.4
v 0.6 2 -0.5
v 0.7 2 -0.5
v 0.6 2 -0.8
v 0.7 2 -0.8
v 0.1 2 -0.9
v 0.2 2 -0.9
v 0.3 2 -0.9
v 0.5 2 -0.9
v 0.6 2 -0.9
v 0.3 2 -1
v 0.5 2 -1
v 0.1 2 -2.1
v 0.2 2 -2.1
v 0.3 2 -2.1
v 0 2.1 -0.3
v 0.1 2.1 -0.3
v 0 2.1 -0.4
v 0.1 2.1 -0.4
v 0 2.1 -0.9
v 0.1 2.1 -0.9
v 0 2.1 -1
v 0.1 2.1 -1
v 0.1 2.3 0
v 0.2 2.3 0
v 0.1 2.3 -0.1
v 0.2 2.3 -0.1
v 0.1 2.3 -2.1
v 0.2 2.3 -2.1
v 0.1 2.3 -2.2
v 0.2 2.3 -2.2
v 0 2.4 -1.3
v 0.1 2.4 -1.3
v 0.2 2.4 -1.3
v 0.3 2.4 -1.3
v 0 2.4 -1.9
v 0.1 2.4 -1.9
v 0.2 2.4 -1.9
v 0.3 2.4 -1.9
v 0 2.5 -1.2
v 0.1 2.5 -1.2
v 0.2 2.5 -1.2
v 0.3 2.5 -1.2
v 0 2.5 -1.3
v 0.1 2.5 -1.3
v 0.2 2.5 -1.3
v 0.3 2.5 -1.3
v 0 2.5 -1.9
v 0.1 2.5 -1.9
v 0.2 2.5 -1.9
v 0.3 2.5 -1.9
v 0 2.5 -2
v 0.1 2.5 -2
v 0.2 2.5 -2
v 0.3 2.5 -2
v 0 2.9 -0.4
v 0.3 2.9 -0.4
v 0 2.9 -0.5
v 0.3 2.9 -0.5
v 0 2.9 -0.8
v 0.3 2.9 -0.8
v 0 2.9 -0.9
v 0.3 2.9 -0.9
v 0 2.9 -1.3
v 0.3 2.9 -1.3
v 0 2.9 -1.4
v 0.3 2.9 -1.4
v 0 2.9 -1.8
v 0.3 2.9 -1.8
v 0 2.9 -1.9
v 0.3 2.9 -1.9
v 0 3 -0.5
v 0.3 3 -0.5
v 0 3 -0.8
v 0.3 3 -0.8
v 0 3 -1.4
v 0.3 3 -1.4
v 0 3 -1.8
v 0.3 3 -1.8
v 0 3.5 -0.1
v 0.1 3.5 -0.1
v 0.2 3.5 -0.1
v 0.3 3.5 -0.1
v 0 3.5 -2.1
v 0.1 3.5 -2.1
v 0.2 3.5 -2.1
v 0.3 3.5 -2.1
v 0.3 2.1 -0.3
v 0.5 2.1 -0.3
v 0.1 2.1 -0.4
v 0.2 2.1 -0.4
v 0.3 2.1 -0.4
v 0.5 2.1 -0.4
v 0.6 2.1 -0.4
v 0.6 2.1 -0.5
v 0.7 2.1 -0.5
v 0.6 2.1 -0.8
v 0.7 2.1 -0.8
v 0.1 2.1 -0.9
v 0.2 2.1 -0.9
v 0.3 2.1 -0.9
v 0.5 2.1 -0.9
v 0.6 2.1 -0.9
v 0.3 2.1 -1
v 0.5 2.1 -1
v 0.2 2.3 -0.1
v 0.3 2.3 -0.1
v 0.2 2.3 -0.3
v 0.3 2.3 -0.3
v 0.2 2.3 -1
v 0.3 2.3 -1
v 0.2 2.3 -2.1
v 0.3 2.3 -2.1
v 0 2.5 -1.3
v 0.3 2.5 -1.3
v 0 2.5 -1.9
v 0.3 2.5 -1.9
v 0 3 -0.3
v 0.1 3 -0.3
v 0.2 3 -0.3
v 0.3 3 -0.3
v 0 3 -0.4
v 0.1 3 -0.4
v 0.2 3 -0.4
v 0.3 3 -0.4
v 0 3 -0.9
v 0.1 3 -0.9
v 0.2 3 -0.9
v 0.3 3 -0.9
v 0 3 -1
v 0.1 3 -1
v 0.2 3 -1
v 0.3 3 -1
v 0 3 -1.2
v 0.1 3 -1.2
v 0.2 3 -1.2
v 0.3 3 -1.2
v 0 3 -1.3
v 0.1 3 -1.3
v 0.2 3 -1.3
v 0.3 3 -1.3
v 0 3 -1.9
v 0.1 3 -1.9
v 0.2 3 -1.9
v 0.3 3 -1.9
v 0 3 -2
v 0.1 3 -2
v 0.2 3 -2
v 0.3 3 -2
v 0 3.1 -0.4
v 0.1 3.1 -0.4
v 0.2 3.1 -0.4
v 0.3 3.1 -0.4
v 0 3.1 -0.9
v 0.1 3.1 -0.9
v 0.2 3.1 -0.9
v 0.3 3.1 -0.9
v 0 3.1 -1.3
v 0.1 3.1 -1.3
v 0.2 3.1 -1.3
v 0.3 3.1 -1.3
v 0 3.1 -1.9
v 0.1 3.1 -1.9
v 0.2 3.1 -1.9
v 0.3 3.1 -1.9
v 0.1 3.5 0
v 0.2 3.5 0
v 0.1 3.5 -0.1
v 0.2 3.5 -0.1
v 0.1 3.5 -2.1
v 0.2 3.5 -2.1
v 0.1 3.5 -2.2
v 0.2 3.5 -2.2
v 0 3.7 -0.1
v 0.3 3.7 -0.1
v 0 3.7 -2.1
v 0.3 3.7 -2.1

# faces
f 8/2/1 6/2/1 5/2/1
f 9/2/1 6/2/1 8/2/1
f 11/2/1 2/2/1 1/2/1
f 14/2/1 4/2/1 3/2/1
f 15/2/1 8/2/1 7/2/1
f 18/2/1 10/2/1 9/2/1
f 19/2/1 12/2/1 11/2/1
f 19/2/1 11/2/1 1/2/1
f 20/2/1 12/2/1 19/2/1
f 21/2/1 12/2/1 20/2/1
f 22/2/1 14/2/1 13/2/1
f 23/2/1 4/2/1 14/2/1
f 23/2/1 14/2/1 22/2/1
f 24/2/1 4/2/1 23/2/1
f 25/2/1 16/2/1 15/2/1
f 25/2/1 15/2/1 7/2/1
f 26/2/1 16/2/1 25/2/1
f 27/2/1 16/2/1 26/2/1
f 28/2/1 18/2/1 17/2/1
f 29/2/1 10/2/1 18/2/1
f 29/2/1 18/2/1 28/2/1
f 30/2/1 10/2/1 29/2/1
f 31/2/1 21/2/1 20/2/1
f 31/2/1 22/2/1 21/2/1
f 31/2/1 23/2/1 22/2/1
f 32/2/1 23/2/1 31/2/1
f 33/2/1 27/2/1 26/2/1
f 33/2/1 29/2/1 28/2/1
f 33/2/1 28/2/1 27/2/1
f 34/2/1 29/2/1 33/2/1
f 37/2/1 36/2/1 35/2/1
f 38/2/1 36/2/1 37/2/1
f 43/1/1 40/1/1 39/1/1
f 44/2/1 41/2/1 40/2/1
f 44/1/1 40/1/1 43/1/1
f 45/1/1 42/1/1 41/1/1
f 45/2/1 41/2/1 44/2/1
f 46/1/1 42/1/1 45/1/1
f 48/1/1 43/1/1 39/1/1
f 49/1/1 42/1/1 46/1/1
f 51/1/1 49/1/1 46/1/1
f 51/1/1 50/1/1 49/1/1
f 52/1/1 50/1/1 51/1/1
f 53/1/1 51/1/1 46/1/1
f 54/1/1 51/1/1 53/1/1
f 55/1/1 50/1/1 52/1/1
f 56/1/1 50/1/1 55/1/1
f 57/1/1 48/1/1 47/1/1
f 57/1/1 43/1/1 48/1/1
f 60/1/1 53/1/1 46/1/1
f 61/1/1 53/1/1 60/1/1
f 64/1/1 50/1/1 56/1/1
f 65/1/1 58/1/1 57/1/1
f 66/1/1 62/1/1 61/1/1
f 66/1/1 60/1/1 59/1/1
f 66/1/1 61/1/1 60/1/1
f 67/1/1 62/1/1 66/1/1
f 68/1/1 64/1/1 63/1/1
f 69/1/1 65/1/1 57/1/1
f 69/1/1 68/1/1 67/1/1
f 69/1/1 67/1/1 66/1/1
f 69/1/1 57/1/1 47/1/1
f 69/1/1 66/1/1 65/1/1
f 70/1/1 68/1/1 69/1/1
f 71/1/1 64/1/1 68/1/1
f 71/1/1 68/1/1 70/1/1
f 71/1/1 50/1/1 64/1/1
f 72/1/1 50/1/1 71/1/1
f 76/1/2 77/1/2 79/1/2
f 77/1/2 78/1/2 79/1/2
f 79/1/2 78/1/2 80/1/2
f 76/1/2 79/1/2 81/1/2
f 81/1/2 79/1/2 82/1/2
f 80/1/2 78/1/2 83/1/2
f 83/1/2 78/1/2 84/1/2
f 73/1/2 74/1/2 85/1/2
f 74/1/2 75/1/2 85/1/2
f 76/1/2 81/1/2 88/1/2
f 88/1/2 81/1/2 89/1/2
f 84/1/2 78/1/2 92/1/2
f 85/1/2 86/1/2 93/1/2
f 89/1/2 90/1/2 94/1/2
f 87/1/2 88/1/2 94/1/2
f 88/1/2 89/1/2 94/1/2
f 94/1/2 90/1/2 95/1/2
f 91/1/2 92/1/2 96/1/2
f 85/1/2 93/1/2 97/1/2
f 95/1/2 96/1/2 97/1/2
f 94/1/2 95/1/2 97/1/2
f 73/1/2 85/1/2 97/1/2
f 93/1/2 94/1/2 97/1/2
f 97/1/2 96/1/2 98/1/2
f 96/1/2 92/1/2 99/1/2
f 98/1/2 96/1/2 99/1/2
f 92/1/2 78/1/2 99/1/2
f 99/1/2 78/1/2 100/1/2
f 101/2/2 102/2/2 105/2/2
f 103/2/2 104/2/2 108/2/2
f 105/2/2 106/2/2 109/2/2
f 101/2/2 105/2/2 109/2/2
f 109/2/2 106/2/2 110/2/2
f 107/2/2 108/2/2 111/2/2
f 108/2/2 104/2/2 111/2/2
f 111/2/2 104/2/2 112/2/2
f 113/2/2 114/2/2 116/2/2
f 116/2/2 114/2/2 117/2/2
f 110/2/2 106/2/2 119/2/2
f 107/2/2 111/2/2 122/2/2
f 115/2/2 116/2/2 123/2/2
f 117/2/2 118/2/2 126/2/2
f 119/2/2 120/2/2 127/2/2
f 110/2/2 119/2/2 127/2/2
f 127/2/2 120/2/2 128/2/2
f 128/2/2 120/2/2 129/2/2
f 121/2/2 122/2/2 130/2/2
f 122/2/2 111/2/2 131/2/2
f 130/2/2 122/2/2 131/2/2
f 131/2/2 111/2/2 132/2/2
f 123/2/2 124/2/2 133/2/2
f 115/2/2 123/2/2 133/2/2
f 133/2/2 124/2/2 134/2/2
f 134/2/2 124/2/2 135/2/2
f 125/2/2 126/2/2 136/2/2
f 126/2/2 118/2/2 137/2/2
f 136/2/2 126/2/2 137/2/2
f 137/2/2 118/2/2 138/2/2
f 128/2/2 129/2/2 139/2/2
f 129/2/2 130/2/2 139/2/2
f 130/2/2 131/2/2 139/2/2
f 139/2/2 131/2/2 140/2/2
f 134/2/2 135/2/2 141/2/2
f 136/2/2 137/2/2 141/2/2
f 135/2/2 136/2/2 141/2/2
f 141/2/2 137/2/2 142/2/2
f 143/2/2 144/2/2 145/2/2
f 145/2/2 144/2/2 146/2/2
f 147/1/2 148/1/2 151/1/2
f 151/1/2 148/1/2 152/1/2
f 149/1/2 150/1/2 153/1/2
f 153/1/2 150/1/2 154/1/2
f 155/1/2 156/1/2 159/1/2
f 159/1/2 156/1/2 160/1/2
f 157/1/2 158/1/2 161/1/2
f 161/1/2 158/1/2 162/1/2
f 163/1/2 164/1/2 165/1/2
f 165/1/2 164/1/2 166/1/2
f 169/1/3 168/1/3 167/1/3
f 170/1/3 168/1/3 169/1/3
f 175/2/3 172/2/3 171/2/3
f 176/1/3 174/1/3 173/1/3
f 177/1/3 174/1/3 176/1/3
f 178/2/3 172/2/3 175/2/3
f 179/2/3 177/2/3 176/2/3
f 180/2/3 177/2/3 179/2/3
f 181/2/3 172/2/3 178/2/3
f 182/2/3 172/2/3 181/2/3
f 185/2/3 184/2/3 183/2/3
f 186/2/3 184/2/3 185/2/3
f 191/2/3 188/2/3 187/2/3
f 192/2/3 188/2/3 191/2/3
f 193/1/3 190/1/3 189/1/3
f 194/1/3 190/1/3 193/1/3
f 197/2/3 196/2/3 195/2/3
f 198/2/3 196/2/3 197/2/3
f 201/2/3 200/2/3 199/2/3
f 202/2/3 200/2/3 201/2/3
f 205/1/3 204/1/3 203/1/3
f 206/1/3 204/1/3 205/1/3
f 209/1/3 208/1/3 207/1/3
f 210/1/3 208/1/3 209/1/3
f 213/2/3 212/2/3 211/2/3
f 214/2/3 212/2/3 213/2/3
f 217/2/3 216/2/3 215/2/3
f 218/2/3 216/2/3 217/2/3
f 219/2/3 216/2/3 218/2/3
f 220/2/3 216/2/3 219/2/3
f 223/2/3 222/2/3 221/2/3
f 224/2/3 222/2/3 223/2/3
f 227/2/3 226/2/3 225/2/3
f 228/2/3 226/2/3 227/2/3
f 233/2/3 230/2/3 229/2/3
f 234/2/3 230/2/3 233/2/3
f 235/2/3 232/2/3 231/2/3
f 236/2/3 232/2/3 235/2/3
f 241/2/3 238/2/3 237/2/3
f 242/2/3 238/2/3 241/2/3
f 243/2/3 240/2/3 239/2/3
f 244/2/3 240/2/3 243/2/3
f 247/2/3 246/2/3 245/2/3
f 248/2/3 246/2/3 247/2/3
f 251/2/3 250/2/3 249/2/3
f 252/2/3 250/2/3 251/2/3
f 253/2/4 254/2/4 255/2/4
f 255/2/4 254/2/4 256/2/4
f 256/2/4 254/2/4 257/2/4
f 257/2/4 254/2/4 258/2/4
f 259/2/4 260/2/4 261/2/4
f 261/2/4 260/2/4 262/2/4
f 263/1/4 264/1/4 265/1/4
f 265/1/4 264/1/4 266/1/4
f 267/2/4 268/2/4 269/2/4
f 269/2/4 268/2/4 270/2/4
f 271/2/4 272/2/4 273/2/4
f 273/2/4 272/2/4 274/2/4
f 275/1/4 276/1/4 277/1/4
f 277/1/4 276/1/4 278/1/4
f 279/2/4 280/2/4 281/2/4
f 281/2/4 280/2/4 282/2/4
f 283/2/4 284/2/4 287/2/4
f 287/2/4 284/2/4 288/2/4
f 285/1/4 286/1/4 289/1/4
f 289/1/4 286/1/4 290/1/4
f 291/2/4 292/2/4 293/2/4
f 293/2/4 292/2/4 294/2/4
f 295/2/4 296/2/4 297/2/4
f 297/2/4 296/2/4 298/2/4
f 299/2/4 300/2/4 303/2/4
f 303/2/4 300/2/4 304/2/4
f 301/2/4 302/2/4 305/2/4
f 305/2/4 302/2/4 306/2/4
f 307/2/4 308/2/4 311/2/4
f 311/2/4 308/2/4 312/2/4
f 309/2/4 310/2/4 313/2/4
f 313/2/4 310/2/4 314/2/4
f 315/2/4 316/2/4 317/2/4
f 317/2/4 316/2/4 318/2/4
f 319/2/4 320/2/4 321/2/4
f 321/2/4 320/2/4 322/2/4
f 323/2/4 324/2/4 327/2/4
f 325/1/4 326/1/4 328/1/4
f 328/1/4 326/1/4 329/1/4
f 327/2/4 324/2/4 330/2/4
f 328/2/4 329/2/4 331/2/4
f 331/2/4 329/2/4 332/2/4
f 330/2/4 324/2/4 333/2/4
f 333/2/4 324/2/4 334/2/4
f 335/1/4 336/1/4 337/1/4
f 337/1/4 336/1/4 338/1/4
f 342/2/5 341/2/5 340/2/5
f 344/1/5 340/1/5 339/1/5
f 345/2/5 342/2/5 340/2/5
f 345/1/5 340/1/5 344/1/5
f 346/1/5 343/1/5 342/1/5
f 346/2/5 342/2/5 345/2/5
f 347/1/5 343/1/5 346/1/5
f 349/1/5 346/1/5 345/1/5
f 349/1/5 348/1/5 347/1/5
f 349/1/5 347/1/5 346/1/5
f 351/1/5 349/1/5 345/1/5
f 351/1/5 350/1/5 349/1/5
f 352/1/5 350/1/5 351/1/5
f 353/2/5 345/2/5 344/2/5
f 354/1/5 351/1/5 345/1/5
f 354/2/5 345/2/5 353/2/5
f 355/1/5 351/1/5 354/1/5
f 356/1/5 351/1/5 355/1/5
f 357/1/5 351/1/5 356/1/5
f 358/2/5 355/2/5 354/2/5
f 358/1/5 356/1/5 355/1/5
f 359/1/5 356/1/5 358/1/5
f 360/1/5 354/1/5 353/1/5
f 361/2/5 358/2/5 354/2/5
f 361/1/5 354/1/5 360/1/5
f 362/2/5 358/2/5 361/2/5
f 365/2/5 364/2/5 363/2/5
f 366/2/5 364/2/5 365/2/5
f 369/2/5 368/2/5 367/2/5
f 370/2/5 368/2/5 369/2/5
f 373/1/5 372/1/5 371/1/5
f 374/1/5 372/1/5 373/1/5
f 377/1/5 376/1/5 375/1/5
f 378/1/5 376/1/5 377/1/5
f 383/2/5 380/2/5 379/2/5
f 384/2/5 380/2/5 383/2/5
f 385/2/5 382/2/5 381/2/5
f 386/2/5 382/2/5 385/2/5
f 391/2/5 388/2/5 387/2/5
f 392/2/5 388/2/5 391/2/5
f 393/2/5 390/2/5 389/2/5
f 394/2/5 390/2/5 393/2/5
f 399/2/5 396/2/5 395/2/5
f 400/2/5 396/2/5 399/2/5
f 401/2/5 398/2/5 397/2/5
f 402/2/5 398/2/5 401/2/5
f 405/2/5 404/2/5 403/2/5
f 406/2/5 404/2/5 405/2/5
f 409/2/5 408/2/5 407/2/5
f 410/2/5 408/2/5 409/2/5
f 413/2/5 412/2/5 411/2/5
f 414/2/5 412/2/5 413/2/5
f 417/2/5 416/2/5 415/2/5
f 418/2/5 416/2/5 417/2/5
f 421/2/5 420/2/5 419/2/5
f 422/2/5 420/2/5 421/2/5
f 425/2/5 424/2/5 423/2/5
f 426/2/5 424/2/5 425/2/5
f 431/2/5 428/2/5 427/2/5
f 432/2/5 428/2/5 431/2/5
f 433/2/5 430/2/5 429/2/5
f 434/2/5 430/2/5 433/2/5
f 435/1/6 436/1/6 439/1/6
f 439/1/6 436/1/6 440/1/6
f 438/1/6 439/1/6 442/1/6
f 440/1/6 441/1/6 442/1/6
f 439/1/6 440/1/6 442/1/6
f 438/1/6 442/1/6 444/1/6
f 442/1/6 443/1/6 444/1/6
f 444/1/6 443/1/6 445/1/6
f 437/2/6 438/2/6 446/2/6
f 438/1/6 444/1/6 447/1/6
f 446/2/6 438/2/6 447/2/6
f 447/1/6 444/1/6 448/1/6
f 448/1/6 444/1/6 449/1/6
f 449/1/6 444/1/6 450/1/6
f 448/1/6 449/1/6 451/1/6
f 451/1/6 449/1/6 452/1/6
f 453/2/6 454/2/6 455/2/6
f 455/2/6 454/2/6 456/2/6
f 457/2/6 458/2/6 459/2/6
f 459/2/6 458/2/6 460/2/6
f 461/2/6 462/2/6 463/2/6
f 463/2/6 462/2/6 464/2/6
f 465/2/6 466/2/6 469/2/6
f 469/2/6 466/2/6 470/2/6
f 467/2/6 468/2/6 471/2/6
f 471/2/6 468/2/6 472/2/6
f 473/2/6 474/2/6 477/2/6
f 477/2/6 474/2/6 478/2/6
f 475/2/6 476/2/6 479/2/6
f 479/2/6 476/2/6 480/2/6
f 481/2/6 482/2/6 485/2/6
f 485/2/6 482/2/6 486/2/6
f 483/2/6 484/2/6 487/2/6
f 487/2/6 484/2/6 488/2/6
f 489/2/6 490/2/6 493/2/6
f 493/2/6 490/2/6 494/2/6
f 491/2/6 492/2/6 495/2/6
f 495/2/6 492/2/6 496/2/6
f 497/2/6 498/2/6 501/2/6
f 501/2/6 498/2/6 502/2/6
f 499/2/6 500/2/6 503/2/6
f 503/2/6 500/2/6 504/2/6
f 505/2/6 506/2/6 509/2/6
f 509/2/6 506/2/6 510/2/6
f 507/2/6 508/2/6 511/2/6
f 511/2/6 508/2/6 512/2/6
f 513/1/6 514/1/6 515/1/6
f 515/1/6 514/1/6 516/1/6
f 517/1/6 518/1/6 519/1/6
f 519/1/6 518/1/6 520/1/6
f 521/2/6 522/2/6 523/2/6
f 523/2/6 522/2/6 524/2/6
