# MagicaVoxel @ Ephtracy

# group
o 

# material
mtllib SmithingHouse2Wall.mtl
usemtl palette

# normals
vn -1 0 0
vn 1 0 0
vn 0 0 1
vn 0 0 -1
vn 0 -1 0
vn 0 1 0

# texcoords
vt 0.974609 0.5
vt 0.982422 0.5

# verts
v 0 3.5 -0.1
v 0 3.5 -1.7
v 0 3.7 -0.1
v 0 3.7 -1.7
v 0.1 2 -0.1
v 0.1 2 -1.7
v 0.1 2.3 0
v 0.1 2.3 -0.1
v 0.1 2.3 -1.7
v 0.1 2.3 -1.8
v 0.1 3.5 0
v 0.1 3.5 -0.1
v 0.1 3.5 -1.7
v 0.1 3.5 -1.8
v 0.2 2.3 0
v 0.2 2.3 -0.1
v 0.2 2.3 -1.7
v 0.2 2.3 -1.8
v 0.2 3.5 0
v 0.2 3.5 -0.1
v 0.2 3.5 -1.7
v 0.2 3.5 -1.8
v 0.3 2 -0.1
v 0.3 2 -1.7
v 0.3 2.3 -0.1
v 0.3 2.3 -1.7
v 0.3 3.5 -0.1
v 0.3 3.5 -1.7
v 0.3 3.7 -0.1
v 0.3 3.7 -1.7
v 0.1 2.3 0
v 0.1 3.5 0
v 0.2 2.3 0
v 0.2 3.5 0
v 0 3.5 -0.1
v 0 3.7 -0.1
v 0.1 2 -0.1
v 0.1 2.3 -0.1
v 0.1 3.5 -0.1
v 0.2 2 -0.1
v 0.2 2.3 -0.1
v 0.2 3.5 -0.1
v 0.3 2 -0.1
v 0.3 2.3 -0.1
v 0.3 3.5 -0.1
v 0.3 3.7 -0.1
v 0 3.5 -1.7
v 0 3.7 -1.7
v 0.1 2 -1.7
v 0.1 2.3 -1.7
v 0.1 3.5 -1.7
v 0.2 2 -1.7
v 0.2 2.3 -1.7
v 0.2 3.5 -1.7
v 0.3 2 -1.7
v 0.3 2.3 -1.7
v 0.3 3.5 -1.7
v 0.3 3.7 -1.7
v 0.1 2.3 -1.8
v 0.1 3.5 -1.8
v 0.2 2.3 -1.8
v 0.2 3.5 -1.8
v 0.1 2 -0.1
v 0.2 2 -0.1
v 0.3 2 -0.1
v 0.1 2 -1.7
v 0.2 2 -1.7
v 0.3 2 -1.7
v 0.1 2.3 0
v 0.2 2.3 0
v 0.1 2.3 -0.1
v 0.2 2.3 -0.1
v 0.1 2.3 -1.7
v 0.2 2.3 -1.7
v 0.1 2.3 -1.8
v 0.2 2.3 -1.8
v 0 3.5 -0.1
v 0.1 3.5 -0.1
v 0.2 3.5 -0.1
v 0.3 3.5 -0.1
v 0 3.5 -1.7
v 0.1 3.5 -1.7
v 0.2 3.5 -1.7
v 0.3 3.5 -1.7
v 0.2 2.3 -0.1
v 0.3 2.3 -0.1
v 0.2 2.3 -1.7
v 0.3 2.3 -1.7
v 0.1 3.5 0
v 0.2 3.5 0
v 0.1 3.5 -0.1
v 0.2 3.5 -0.1
v 0.1 3.5 -1.7
v 0.2 3.5 -1.7
v 0.1 3.5 -1.8
v 0.2 3.5 -1.8
v 0 3.7 -0.1
v 0.3 3.7 -0.1
v 0 3.7 -1.7
v 0.3 3.7 -1.7

# faces
f 3/2/1 2/2/1 1/2/1
f 4/2/1 2/2/1 3/2/1
f 8/1/1 6/1/1 5/1/1
f 9/1/1 6/1/1 8/1/1
f 11/1/1 8/1/1 7/1/1
f 11/1/1 10/1/1 9/1/1
f 11/1/1 9/1/1 8/1/1
f 12/1/1 10/1/1 11/1/1
f 13/1/1 10/1/1 12/1/1
f 14/1/1 10/1/1 13/1/1
f 15/1/2 16/1/2 19/1/2
f 17/1/2 18/1/2 19/1/2
f 16/1/2 17/1/2 19/1/2
f 19/1/2 18/1/2 20/1/2
f 20/1/2 18/1/2 21/1/2
f 21/1/2 18/1/2 22/1/2
f 23/2/2 24/2/2 25/2/2
f 25/2/2 24/2/2 26/2/2
f 27/2/2 28/2/2 29/2/2
f 29/2/2 28/2/2 30/2/2
f 33/1/3 32/1/3 31/1/3
f 34/1/3 32/1/3 33/1/3
f 39/2/3 36/2/3 35/2/3
f 40/1/3 38/1/3 37/1/3
f 41/1/3 38/1/3 40/1/3
f 42/2/3 36/2/3 39/2/3
f 43/2/3 41/2/3 40/2/3
f 44/2/3 41/2/3 43/2/3
f 45/2/3 36/2/3 42/2/3
f 46/2/3 36/2/3 45/2/3
f 47/2/4 48/2/4 51/2/4
f 49/1/4 50/1/4 52/1/4
f 52/1/4 50/1/4 53/1/4
f 51/2/4 48/2/4 54/2/4
f 52/2/4 53/2/4 55/2/4
f 55/2/4 53/2/4 56/2/4
f 54/2/4 48/2/4 57/2/4
f 57/2/4 48/2/4 58/2/4
f 59/1/4 60/1/4 61/1/4
f 61/1/4 60/1/4 62/1/4
f 66/1/5 64/1/5 63/1/5
f 67/2/5 65/2/5 64/2/5
f 67/1/5 64/1/5 66/1/5
f 68/2/5 65/2/5 67/2/5
f 71/1/5 70/1/5 69/1/5
f 72/1/5 70/1/5 71/1/5
f 75/1/5 74/1/5 73/1/5
f 76/1/5 74/1/5 75/1/5
f 81/2/5 78/2/5 77/2/5
f 82/2/5 78/2/5 81/2/5
f 83/2/5 80/2/5 79/2/5
f 84/2/5 80/2/5 83/2/5
f 85/2/6 86/2/6 87/2/6
f 87/2/6 86/2/6 88/2/6
f 89/1/6 90/1/6 91/1/6
f 91/1/6 90/1/6 92/1/6
f 93/1/6 94/1/6 95/1/6
f 95/1/6 94/1/6 96/1/6
f 97/2/6 98/2/6 99/2/6
f 99/2/6 98/2/6 100/2/6
